<svg width="40" height="32" viewBox="-5 0 32 32" fill="none" xmlns="http://www.w3.org/2000/svg">
<g clip-path="url(#clip0_659_16887)">
<path d="M8.70243 13.5923C8.70243 13.3219 8.48994 13.1094 8.21949 13.1094H5.26386C5.02239 13.1384 4.83887 13.3412 4.83887 13.5923C4.83887 13.8628 5.05136 14.0753 5.32181 14.0753H8.27744C8.51891 14.0463 8.70243 13.8435 8.70243 13.5923Z" fill="#FDC82E" stroke="#FDC82E" stroke-miterlimit="10"/>
<path d="M8.21949 16.0039C8.48994 16.0039 8.70243 16.2164 8.70243 16.4869C8.70243 16.738 8.51891 16.9408 8.27744 16.9698H8.21949H5.32181C5.05136 16.9698 4.83887 16.7573 4.83887 16.4869C4.83887 16.2357 5.02239 16.0329 5.26386 16.0039H5.32181H8.21949Z" fill="#FDC82E" stroke="#FDC82E" stroke-miterlimit="10"/>
<path d="M16.43 13.5923C16.43 13.3219 16.2175 13.1094 15.947 13.1094H12.9914C12.7499 13.1384 12.5664 13.3412 12.5664 13.5923C12.5664 13.8628 12.7789 14.0753 13.0494 14.0753H16.005C16.2465 14.0463 16.43 13.8435 16.43 13.5923Z" fill="#FDC82E" stroke="#FDC82E" stroke-miterlimit="10"/>
<path d="M15.947 16.0039C16.2175 16.0039 16.43 16.2164 16.43 16.4869C16.43 16.738 16.2465 16.9408 16.005 16.9698H15.947H13.0494C12.7789 16.9698 12.5664 16.7573 12.5664 16.4869C12.5664 16.2357 12.7499 16.0329 12.9914 16.0039H13.0494H15.947Z" fill="#FDC82E" stroke="#FDC82E" stroke-miterlimit="10"/>
<path d="M11.1173 0.909367C11.0883 0.667894 10.8854 0.484375 10.6343 0.484375C10.3639 0.484375 10.1514 0.696871 10.1514 0.967321V2.95706C10.1803 3.19853 10.3832 3.38205 10.6343 3.38205C10.9048 3.38205 11.1173 3.16955 11.1173 2.8991V0.909367Z" fill="#282828" stroke="#282828" stroke-miterlimit="10"/>
<path fill-rule="evenodd" clip-rule="evenodd" d="M14.4978 20.2922C14.4688 20.0507 14.266 19.8672 14.0148 19.8672H7.19564C6.95417 19.8962 6.77065 20.099 6.77065 20.3501V27.5943H5.26386C5.02239 27.6233 4.83887 27.8261 4.83887 28.0773C4.83887 28.3477 5.05136 28.5602 5.32181 28.5602H16.0046C16.246 28.5312 16.4296 28.3284 16.4296 28.0773C16.4296 27.8068 16.2171 27.5943 15.9466 27.5943H14.4978V20.2922ZM10.1513 27.5943H7.73654V20.8331H13.5319V27.5943H11.1172V23.1899C11.0882 22.9484 10.8854 22.7649 10.6342 22.7649C10.3638 22.7649 10.1513 22.9774 10.1513 23.2478V27.5943Z" fill="#282828" stroke="#282828" stroke-miterlimit="10"/>
<path d="M20.3126 9.78516H0.96582V31.0348H20.3126V9.78516Z" stroke="#282828" stroke-width="2" stroke-linecap="round" stroke-linejoin="round"/>
<path d="M16.4296 5.37891H4.83887V9.77371H16.4296V5.37891Z" stroke="#282828" stroke-width="2" stroke-linecap="round" stroke-linejoin="round"/>
</g>
<defs>
<clipPath id="clip0_659_16887">
<rect width="40" height="32" fill="white"/>
</clipPath>
</defs>
</svg>
