<svg width="40" height="32" viewBox="0 0 40 32" fill="none" xmlns="http://www.w3.org/2000/svg">
<g clip-path="url(#clip0_659_18969)">
<path d="M13.3349 15.8928C17.7139 15.8928 21.2813 12.3254 21.2813 7.94641C21.2813 3.56746 17.7139 0 13.3349 0C8.95598 0 5.38086 3.56746 5.38086 7.94641C5.38086 12.3254 8.94832 15.8928 13.3273 15.8928H13.3349ZM13.3349 1.37799C16.956 1.37799 19.9033 4.32536 19.9033 7.94641C19.9033 11.5675 16.956 14.5148 13.3349 14.5148C9.71387 14.5148 6.76651 11.5675 6.76651 7.94641C6.76651 4.32536 9.70622 1.37799 13.3349 1.37799Z" fill="black"/>
<path d="M28.6165 17.9282C32.2605 17.9282 35.2232 14.9656 35.2232 11.3215C35.2232 7.67752 32.2605 4.71484 28.6165 4.71484C24.9724 4.71484 22.0098 7.67752 22.0098 11.3215C22.0098 14.9656 24.9724 17.9282 28.6165 17.9282ZM28.6165 6.10049C31.4949 6.10049 33.8452 8.44307 33.8452 11.3292C33.8452 14.2153 31.5026 16.5579 28.6165 16.5579C25.7303 16.5579 23.3878 14.2153 23.3878 11.3292C23.3878 8.44307 25.7303 6.10049 28.6165 6.10049Z" fill="black"/>
<path d="M28.4478 20.4957C26.3426 20.4957 24.3292 21.1005 22.5761 22.2335C20.1876 19.7455 16.8344 18.1914 13.1215 18.1914C5.88708 18.1914 0 24.0785 0 31.3129C0 31.6957 0.30622 32.0019 0.688995 32.0019H25.5541C25.9368 32.0019 26.2431 31.6957 26.2431 31.3129C26.2431 28.289 25.2019 25.5101 23.4794 23.29C24.9722 22.3637 26.6718 21.8737 28.4478 21.8737C33.4239 21.8737 37.512 25.7397 37.8641 30.6239H29.4431C29.0603 30.6239 28.7541 30.9302 28.7541 31.3129C28.7541 31.6957 29.0603 32.0019 29.4431 32.0019H38.5761C38.9589 32.0019 39.2651 31.6957 39.2651 31.3129C39.2651 25.3493 34.4115 20.4957 28.4478 20.4957ZM1.40096 30.6239C1.76077 24.4689 6.8823 19.5694 13.1292 19.5694C19.3761 19.5694 24.4976 24.4689 24.8498 30.6239H1.40096Z" fill="black"/>
</g>
<defs>
<clipPath id="clip0_659_18969">
<rect width="40" height="32"/>
</clipPath>
</defs>
</svg>
