<svg width="40" height="32" viewBox="0 0 32 32" fill="none" xmlns="http://www.w3.org/2000/svg">
<g clip-path="url(#clip0_679_30358)">
<path d="M30.4726 13.8282C30.1001 13.8282 29.8021 14.1262 29.8021 14.4987V21.1297C29.8021 22.21 28.9229 23.0966 27.8352 23.0966H3.30803C2.22026 23.0966 1.34109 22.2175 1.34109 21.1297V3.30803C1.34109 2.22771 2.22026 1.34109 3.30803 1.34109H27.8352C28.9155 1.34109 29.8021 2.22026 29.8021 3.30803V6.98114C29.8021 7.35367 30.1001 7.65169 30.4726 7.65169C30.8452 7.65169 31.1432 7.35367 31.1432 6.98114V3.30803C31.1432 1.48265 29.6605 0 27.8352 0H3.30803C1.48265 0 0 1.48265 0 3.30803V21.1371C0 22.9625 1.48265 24.4452 3.30803 24.4452H11.7271L9.10454 31.091C9.02258 31.2997 9.05239 31.5306 9.1716 31.7169C9.29825 31.9031 9.50687 32.0075 9.72293 32.0075H21.4054C21.6289 32.0075 21.8375 31.8957 21.9567 31.7169C22.0834 31.5306 22.1057 31.2997 22.0237 31.091L19.4012 24.4452H27.8203C29.6456 24.4452 31.1283 22.9625 31.1283 21.1371V14.5062C31.1283 14.1336 30.8303 13.8356 30.4577 13.8356L30.4726 13.8282ZM20.4293 30.6589H10.7139L13.1651 24.4377H17.9781L20.4293 30.6589Z" fill="black"/>
<path d="M27.6497 7.65332C28.0223 7.65332 28.3203 7.3553 28.3203 6.98277V4.71781C28.3203 3.73434 27.5156 2.92969 26.5321 2.92969H4.62016C3.62924 2.92969 2.83203 3.73434 2.83203 4.71781V18.5981C2.83203 19.5891 3.63669 20.3863 4.62016 20.3863H26.5321C27.5156 20.3863 28.3203 19.5816 28.3203 18.5981V14.5078C28.3203 14.1353 28.0223 13.8373 27.6497 13.8373C27.2772 13.8373 26.9792 14.1353 26.9792 14.5078V18.5981C26.9792 18.844 26.7706 19.0452 26.5321 19.0452H4.62016C4.37429 19.0452 4.17313 18.8366 4.17313 18.5981V4.71781C4.17313 4.47195 4.38174 4.27078 4.62016 4.27078H26.5321C26.778 4.27078 26.9792 4.4794 26.9792 4.71781V6.98277C26.9792 7.3553 27.2772 7.65332 27.6497 7.65332Z" fill="black"/>
<path d="M27.6491 8.96484C27.2765 8.96484 26.9785 9.26287 26.9785 9.63539C26.9785 9.65029 26.986 9.66519 26.986 9.68009C26.986 9.695 26.9785 9.7099 26.9785 9.7248V11.2373C26.9785 11.6098 27.2765 11.9078 27.6491 11.9078C28.0216 11.9078 28.3196 11.6098 28.3196 11.2373V9.7248C28.3196 9.7248 28.3122 9.695 28.3122 9.68009C28.3122 9.66519 28.3196 9.65029 28.3196 9.63539C28.3196 9.26287 28.0216 8.96484 27.6491 8.96484Z" fill="black"/>
<path d="M30.4713 8.96094C30.0988 8.96094 29.8008 9.25896 29.8008 9.63149C29.8008 10.004 30.0988 10.302 30.4713 10.302C30.8439 10.302 31.1419 10.004 31.1419 9.63149C31.1419 9.25896 30.8439 8.96094 30.4713 8.96094Z" fill="black"/>
</g>
<defs>
<clipPath id="clip0_679_30358">
<rect width="40" height="32" fill="black"/>
</clipPath>
</defs>
</svg>
