<svg width="40" height="32" viewBox="0 0 32 32" fill="none" xmlns="http://www.w3.org/2000/svg">
<g clip-path="url(#clip0_659_17958)">
<path d="M14.5989 32.0018C13.0754 32.0018 12.1414 30.8611 11.8965 29.7051C11.7204 28.8707 11.8658 27.8984 12.4859 27.1788C11.8276 26.9721 11.1922 26.7118 10.5874 26.3903C10.5261 27.3396 9.93666 28.1281 9.2247 28.5951C8.20652 29.2534 6.69073 29.3912 5.59599 28.2276L3.76633 26.3979C2.618 25.3185 2.7558 23.8104 3.40652 22.7922C3.86585 22.0726 4.66202 21.4908 5.6113 21.4219C5.28977 20.8171 5.02948 20.1817 4.82279 19.5233C4.10317 20.1511 3.12326 20.2965 2.28881 20.1128C1.11752 19.8525 -0.0537702 18.8649 -0.000181715 17.2573C-0.000181715 15.9635 -0.000181715 15.1903 0.0457513 14.7233H-0.000181715C-0.0537702 13.131 1.11752 12.1587 2.28881 11.8984C3.12326 11.7147 4.10317 11.8678 4.81513 12.4956C5.02183 11.8372 5.28212 11.2018 5.60365 10.5893C4.65436 10.5204 3.85819 9.93861 3.39886 9.219C2.74814 8.20847 2.61034 6.69268 3.77398 5.59794C4.75389 4.61804 5.28212 4.08215 5.61896 3.81421L5.58834 3.78359C6.68307 2.61995 8.19886 2.75775 9.20939 3.40847C9.92901 3.8678 10.5108 4.66397 10.5797 5.61325C11.1845 5.29172 11.8199 5.03144 12.4783 4.82474C11.8582 4.10512 11.7127 3.13287 11.8888 2.29842C12.1491 1.11947 13.1367 -0.0518172 14.7214 0.00177133H17.3013C18.863 -0.0518172 19.8582 1.11947 20.1108 2.29842C20.2869 3.13287 20.1414 4.10512 19.5214 4.82474C20.1721 5.03144 20.8075 5.29172 21.4123 5.61325C21.4812 4.67163 22.0706 3.87546 22.7826 3.40847C23.7931 2.75775 25.3089 2.6123 26.4037 3.77593C27.3529 4.72522 27.8965 5.26876 28.1874 5.62091L28.218 5.59029C29.3816 6.68503 29.2438 8.20081 28.5931 9.21134C28.1338 9.93096 27.3376 10.5128 26.3883 10.5817C26.7099 11.1941 26.9702 11.8295 27.1769 12.4802C27.8965 11.8601 28.8687 11.707 29.7032 11.8908C30.8821 12.1434 32.0534 13.1156 31.9998 14.7156V17.3032C32.0534 18.8802 30.8821 19.8525 29.7032 20.1051C28.8687 20.2812 27.8965 20.1357 27.1769 19.5156C26.9702 20.174 26.7099 20.8094 26.3883 21.4142C27.3376 21.4831 28.1261 22.0649 28.5931 22.7845C29.2515 23.8027 29.3893 25.3109 28.218 26.4056L26.3883 28.2353C25.3089 29.3836 23.7931 29.2458 22.7826 28.5874C22.0706 28.1281 21.4812 27.3319 21.4199 26.3826C20.8075 26.7042 20.1797 26.9645 19.5214 27.1712C20.1414 27.8908 20.2869 28.863 20.1108 29.6975C19.8582 30.8764 18.8477 32.0401 17.2859 31.9941H14.6984C14.6984 31.9941 14.6371 31.9941 14.6065 31.9941L14.5989 32.0018ZM9.92901 24.5147C10.0591 24.5147 10.1969 24.553 10.3118 24.6295C11.4142 25.3568 12.6314 25.8621 13.9175 26.1223C14.2391 26.1836 14.4687 26.4668 14.4687 26.796V27.0716C14.4687 27.3472 14.3003 27.5999 14.04 27.707C13.2438 28.0362 13.1137 28.8324 13.2362 29.4066C13.3587 29.9731 13.795 30.6161 14.6218 30.6161C14.6371 30.6161 14.6525 30.6161 14.6754 30.6161H17.3013C18.2123 30.6468 18.6333 29.9807 18.7558 29.4066C18.8783 28.8247 18.7405 28.0362 17.952 27.707C17.6917 27.5999 17.5233 27.3472 17.5233 27.0716V26.796C17.5233 26.4668 17.7529 26.1836 18.0745 26.1223C19.3682 25.8621 20.5778 25.3568 21.6802 24.6295C21.9558 24.4458 22.3156 24.4841 22.5453 24.7137L22.7443 24.9128C22.9434 25.1118 22.997 25.4027 22.8898 25.663C22.5606 26.4515 23.0199 27.1099 23.5175 27.4238C24.0151 27.7453 24.796 27.8984 25.3855 27.263L27.2458 25.4027C27.8888 24.7979 27.7357 24.0094 27.4218 23.5118C27.1003 23.0142 26.4419 22.5472 25.6458 22.8841C25.3855 22.9912 25.0946 22.93 24.8955 22.731L24.7041 22.5396C24.4745 22.3099 24.4362 21.9424 24.6199 21.6745C25.3472 20.5721 25.8525 19.3549 26.1127 18.0688C26.174 17.7472 26.4572 17.5176 26.7864 17.5176H27.0697C27.3453 17.5176 27.5979 17.686 27.7051 17.9463C28.0343 18.7424 28.8228 18.8726 29.397 18.7501C29.9711 18.6276 30.6371 18.1759 30.6065 17.3185V14.6927C30.6371 13.8123 29.9711 13.3606 29.397 13.2381C28.8228 13.1156 28.0343 13.2534 27.7051 14.042C27.5979 14.3022 27.3453 14.463 27.0697 14.463H26.7864C26.4572 14.463 26.174 14.2334 26.1127 13.9118C25.8525 12.6257 25.3472 11.4085 24.6199 10.3061C24.4362 10.0305 24.4745 9.67067 24.7041 9.44101L24.8955 9.24962C25.0946 9.05058 25.3855 8.98933 25.6458 9.09651C26.4496 9.42569 27.1003 8.95871 27.4218 8.4611C27.7434 7.97115 27.8888 7.18263 27.2611 6.59316C27.1998 6.53191 25.4008 4.73287 25.4008 4.73287C24.796 4.08981 24.0075 4.24292 23.5175 4.5568C23.0199 4.87833 22.5606 5.5367 22.8821 6.32522C22.9893 6.5855 22.9281 6.87641 22.729 7.07546L22.53 7.2745C22.3003 7.50416 21.9328 7.54244 21.6649 7.35871C20.5625 6.63144 19.3529 6.12617 18.0592 5.86589C17.7376 5.80464 17.508 5.52139 17.508 5.1922V4.9166C17.508 4.64101 17.6764 4.38837 17.9367 4.2812C18.7328 3.95201 18.863 3.16349 18.7405 2.58168C18.618 2.01517 18.1816 1.37211 17.3548 1.37211C17.3319 1.37211 17.3089 1.37211 17.2859 1.37211H14.6754C13.8103 1.34914 13.3434 2.00751 13.2209 2.58168C13.0984 3.16349 13.2362 3.95201 14.0247 4.2812C14.285 4.38837 14.4534 4.64101 14.4534 4.9166V5.1922C14.4534 5.52139 14.2237 5.80464 13.9022 5.86589C12.6084 6.12617 11.3989 6.63144 10.2965 7.35871C10.0209 7.54244 9.66106 7.50416 9.4314 7.2745L9.24001 7.08311C9.04097 6.88407 8.98738 6.59316 9.09456 6.33287C9.42374 5.5367 8.95676 4.87833 8.45915 4.5568C7.96154 4.23526 7.18068 4.08981 6.59121 4.71756C6.52996 4.7788 4.73092 6.57785 4.73092 6.57785C4.08786 7.18263 4.24097 7.97115 4.55484 8.4611C4.87637 8.95871 5.52709 9.41804 6.33092 9.08885C6.58355 8.98168 6.88212 9.04292 7.08116 9.24196L7.27255 9.43335C7.50221 9.66302 7.54049 10.0305 7.35676 10.2984C6.62948 11.4008 6.12422 12.618 5.86393 13.9042C5.80269 14.2257 5.51944 14.4554 5.19025 14.4554H4.89934C4.62374 14.4554 4.37111 14.2869 4.26393 14.0343C3.93475 13.2381 3.14623 13.1003 2.57207 13.2305C1.9979 13.353 1.33953 13.8046 1.3625 14.6621C1.3625 14.6697 1.3625 14.685 1.3625 14.6927C1.3625 14.8152 1.3625 17.2649 1.3625 17.2649C1.33188 18.1683 1.9979 18.62 2.57207 18.7501C3.14623 18.8802 3.93475 18.7424 4.27159 17.9386C4.37877 17.686 4.6314 17.5176 4.907 17.5176H5.18259C5.51178 17.5176 5.79503 17.7472 5.85628 18.0688C6.11657 19.3625 6.62183 20.5798 7.3491 21.6745C7.53283 21.9501 7.49456 22.3099 7.25723 22.5472L7.06585 22.7386C6.8668 22.9377 6.5759 22.9912 6.31561 22.8841C5.51944 22.5549 4.86106 23.0219 4.53953 23.5195C4.218 24.0171 4.07255 24.8056 4.7003 25.3874L6.56058 27.2477C7.16537 27.8908 7.95389 27.7377 8.45149 27.4161C8.94145 27.0946 9.40078 26.4439 9.07159 25.6554C8.96441 25.3951 9.02566 25.1042 9.21704 24.9051L9.41609 24.7061C9.54623 24.5759 9.72231 24.507 9.90604 24.507L9.92901 24.5147Z" fill="black"/>
</g>
<defs>
<clipPath id="clip0_659_17958">
<rect width="40" height="32" fill="white"/>
</clipPath>
</defs>
</svg>
