<svg width="410" height="323" viewBox="0 0 410 323" fill="none" xmlns="http://www.w3.org/2000/svg">
<g clip-path="url(#clip0_1269_21663)">
<path d="M107.537 145.771C106.633 145.771 105.903 146.507 105.903 147.407V160.507C105.903 161.412 106.638 162.142 107.537 162.142C108.437 162.142 109.172 161.407 109.172 160.507V147.407C109.172 146.502 108.437 145.771 107.537 145.771Z" fill="#3F3D56"/>
<path d="M293.68 0H146.475C129.78 0 116.25 13.5398 116.25 30.2458V290.538C116.25 307.244 129.78 320.784 146.475 320.784H293.68C310.375 320.784 323.906 307.244 323.906 290.538V30.2458C323.906 13.5398 310.375 0 293.68 0Z" fill="white"/>
<path d="M293.68 323H146.475C129.415 323 115.535 309.11 115.535 292.039V31.7462C115.535 14.6751 129.415 0.785156 146.475 0.785156H293.68C310.74 0.785156 324.621 14.6751 324.621 31.7462V292.039C324.621 309.11 310.74 323 293.68 323ZM146.475 2.21567C130.205 2.21567 116.964 15.4604 116.964 31.7462V292.039C116.964 308.32 130.2 321.569 146.475 321.569H293.68C309.95 321.569 323.191 308.325 323.191 292.039V31.7462C323.191 15.4654 309.955 2.21567 293.68 2.21567H146.475Z" fill="#3F3D56"/>
<path d="M304.342 63.4218H245.175C242.666 63.4218 240.622 61.3811 240.622 58.8652C240.622 56.3493 242.661 54.3086 245.175 54.3086H304.342C306.851 54.3086 308.896 56.3493 308.896 58.8652C308.896 61.3811 306.856 63.4218 304.342 63.4218Z" fill="#E6E6E6"/>
<path d="M248.834 99.2404H191.322C189.872 99.2404 188.692 98.06 188.692 96.6094C188.692 95.1589 189.872 93.9785 191.322 93.9785H248.834C250.284 93.9785 251.463 95.1589 251.463 96.6094C251.463 98.06 250.284 99.2404 248.834 99.2404Z" fill="#FDC82E"/>
<path d="M167.609 11.2832H134.639C134.553 11.2832 134.484 11.3526 134.484 11.4383V15.3997C134.484 15.4853 134.553 15.5547 134.639 15.5547H167.609C167.694 15.5547 167.764 15.4853 167.764 15.3997V11.4383C167.764 11.3526 167.694 11.2832 167.609 11.2832Z" fill="#E6E6E6"/>
<path d="M278.145 15.5512C280.031 15.5512 281.559 14.0217 281.559 12.135C281.559 10.2482 280.031 8.71875 278.145 8.71875C276.26 8.71875 274.731 10.2482 274.731 12.135C274.731 14.0217 276.26 15.5512 278.145 15.5512Z" fill="#E6E6E6"/>
<path d="M287.532 15.5512C289.418 15.5512 290.946 14.0217 290.946 12.135C290.946 10.2482 289.418 8.71875 287.532 8.71875C285.647 8.71875 284.118 10.2482 284.118 12.135C284.118 14.0217 285.647 15.5512 287.532 15.5512Z" fill="#E6E6E6"/>
<path d="M296.92 15.5512C298.805 15.5512 300.334 14.0217 300.334 12.135C300.334 10.2482 298.805 8.71875 296.92 8.71875C295.034 8.71875 293.506 10.2482 293.506 12.135C293.506 14.0217 295.034 15.5512 296.92 15.5512Z" fill="#E6E6E6"/>
<path d="M146.115 113.325C146.115 113.8 146.495 114.175 146.965 114.175H293.181C293.655 114.175 294.03 113.795 294.03 113.325C294.03 112.855 293.65 112.475 293.181 112.475H146.965C146.49 112.475 146.115 112.855 146.115 113.325Z" fill="#3F3D56"/>
<path d="M262.08 233.868C262.08 234.343 262.46 234.718 262.93 234.718H409.145C409.62 234.718 409.995 234.338 409.995 233.868C409.995 233.398 409.615 233.018 409.145 233.018H262.93C262.455 233.018 262.08 233.398 262.08 233.868Z" fill="#3F3D56"/>
<path d="M279.165 180.315H191.417C189.967 180.315 188.787 179.134 188.787 177.684C188.787 176.233 189.967 175.053 191.417 175.053H279.165C280.614 175.053 281.794 176.233 281.794 177.684C281.794 179.134 280.614 180.315 279.165 180.315Z" fill="#FDC82E"/>
<path d="M164.805 183.805C168.363 183.805 171.248 180.918 171.248 177.357C171.248 173.797 168.363 170.91 164.805 170.91C161.246 170.91 158.362 173.797 158.362 177.357C158.362 180.918 161.246 183.805 164.805 183.805Z" fill="#FDC82E"/>
<path d="M164.085 188.102V186.672C169.413 186.672 173.747 182.335 173.747 177.003C173.747 171.671 169.413 167.335 164.085 167.335V165.904C170.203 165.904 175.177 170.886 175.177 177.003C175.177 183.12 170.198 188.102 164.085 188.102Z" fill="#3F3D56"/>
<path d="M87.3633 151.358C89.9925 148.682 93.5014 147.872 95.2009 149.543C96.9004 151.213 96.1506 154.739 93.5214 157.415C92.4867 158.501 91.2071 159.316 89.7876 159.806L78.511 171.005L73.3726 165.598L85.034 155.135C85.4939 153.709 86.2936 152.414 87.3583 151.358H87.3633Z" fill="#FFB6B6"/>
<path d="M51.2993 142.12L63.1207 168.365L81.9999 158.141L88.7579 161.727C88.7579 161.727 73.3226 187.546 62.7558 184.605C52.189 181.664 33.4247 155.015 36.8037 146.792C40.1827 138.569 51.2993 142.12 51.2993 142.12Z" fill="#FDC82E"/>
<path d="M0 322.121C0 322.451 0.264919 322.716 0.594819 322.716H365.129C365.459 322.716 365.723 322.451 365.723 322.121C365.723 321.79 365.459 321.525 365.129 321.525H0.594819C0.264919 321.525 0 321.79 0 322.121Z" fill="#3F3D56"/>
<path d="M109.127 193.808C127.043 193.808 141.567 179.582 141.567 162.032C141.567 144.483 127.043 130.256 109.127 130.256C91.2105 130.256 76.6865 144.483 76.6865 162.032C76.6865 179.582 91.2105 193.808 109.127 193.808Z" fill="#5D2A9D"/>
<path d="M46.116 317.039H54.7383L58.8371 283.762H46.116V317.039Z" fill="#FFB6B6"/>
<path d="M75.6518 316.844C75.9218 317.294 76.0617 318.754 76.0617 319.285C76.0617 320.9 74.7521 322.211 73.1376 322.211H46.4407C45.3361 322.211 44.4463 321.315 44.4463 320.215V319.104C44.4463 319.104 43.1267 315.763 45.8459 311.642C45.8459 311.642 49.2249 314.868 54.2734 309.816L55.7629 307.115L66.5446 315.003L72.5178 315.738C73.8274 315.898 74.982 315.713 75.6568 316.849L75.6518 316.844Z" fill="#2F2E41"/>
<path d="M52.6389 143.801L52.8138 132.167L45.646 127.695L37.8484 137.239L52.6389 143.801Z" fill="#FFB6B6"/>
<path opacity="0.1" d="M52.6389 143.801L53.1037 132.457L45.646 127.695L48.1802 141.735L52.6389 143.801Z" fill="black"/>
<path d="M70.0537 220.739L58.1723 301.628H43.2669L45.2463 255.456L46.291 231.178L43.2669 219.623C43.2669 219.623 41.8873 217.052 40.7277 213.941C39.4181 210.425 38.3834 206.214 39.9179 204.218C40.4827 203.483 41.9523 202.937 43.9467 202.532C45.1663 202.282 46.5859 202.087 48.1204 201.937C56.9327 201.067 69.4689 201.612 69.4689 201.612L69.7888 212.136L69.9637 218.013L70.0487 220.749L70.0537 220.739Z" fill="#2F2E41"/>
<path d="M30.9307 313.082L39.4581 314.337L48.3554 282.011L35.7642 280.16L30.9307 313.082Z" fill="#FFB6B6"/>
<path d="M60.1817 317.188C60.3817 317.673 60.3117 319.138 60.2317 319.659C59.9968 321.259 58.5122 322.365 56.9127 322.129L30.5008 318.243C29.4111 318.083 28.6564 317.068 28.8163 315.977L28.9763 314.877C28.9763 314.877 28.1565 311.376 31.4455 307.694C31.4455 307.694 34.3196 311.381 40.0529 307.114L41.9173 304.658L51.4344 314.032L57.2376 315.627C58.5073 315.977 59.6819 315.962 60.1817 317.183V317.188Z" fill="#2F2E41"/>
<path d="M70.2387 207.249L68.6092 221.289L59.7219 250.88L45.0963 299.592L30.3508 297.426L43.5818 228.161L42.2722 216.287C42.2722 216.287 41.8473 215.107 41.3575 213.376C40.3878 209.955 39.1681 204.388 40.5077 201.547C40.6877 201.162 40.9176 200.827 41.1975 200.557C41.7224 200.046 42.797 199.736 44.2316 199.571C50.2298 198.891 62.581 200.832 68.0743 201.787L70.2387 207.254V207.249Z" fill="#2F2E41"/>
<path d="M39.488 134.777L53.9736 141.735C53.9736 141.735 69.3289 187.251 69.3289 189.572C69.3289 191.893 73.6726 193.343 71.0684 195.949C68.4642 198.555 75.9219 200.766 71.9031 202.852C67.8843 204.937 42.802 216.336 40.0128 215.311C32.3202 212.475 40.3377 202.056 40.3377 202.056C40.3377 202.056 34.5595 197.4 35.4292 195.079C36.299 192.758 30.2158 148.402 30.2158 148.402L39.488 134.777Z" fill="#FDC82E"/>
<path d="M83.6294 174.886C87.2233 173.821 90.6872 174.816 91.362 177.107C92.0368 179.398 89.6726 182.114 86.0737 183.174C84.6441 183.619 83.1246 183.714 81.65 183.449L66.3597 187.761L64.4902 180.538L79.7606 177.057C80.8552 176.037 82.1798 175.291 83.6244 174.886H83.6294Z" fill="#FFB6B6"/>
<path d="M56.5828 149.288L54.1885 177.978L75.657 178.208L79.8207 184.625C79.8207 184.625 53.8036 199.701 45.991 191.998C38.1784 184.295 34.7045 151.879 41.6473 146.332C48.5952 140.785 56.5878 149.288 56.5878 149.288H56.5828Z" fill="#FDC82E"/>
<path d="M52.339 135.544C59.1935 135.544 64.7502 129.984 64.7502 123.124C64.7502 116.265 59.1935 110.705 52.339 110.705C45.4844 110.705 39.9277 116.265 39.9277 123.124C39.9277 129.984 45.4844 135.544 52.339 135.544Z" fill="#FFB6B6"/>
<path d="M45.646 123.174C45.646 123.174 47.6004 119.948 48.6751 118.288C49.7498 116.627 49.7498 114.191 49.7498 114.191C49.7498 114.191 59.7167 113.986 63.0407 116.822C66.3647 119.658 68.709 109.194 65.485 105.578C65.485 105.578 64.1154 107.144 64.4103 107.729L64.7052 108.314C64.7052 108.314 63.0457 101.667 58.2572 100.396C58.2572 100.396 55.593 101.772 56.3378 102.552C57.0825 103.332 50.6345 97.8555 48.6801 101.082C48.6801 101.082 43.8916 100.982 44.4764 102.742L44.1815 103.818C44.1815 103.818 40.0777 102.547 39.7828 105.578C39.7828 105.578 41.2474 105.578 42.0321 106.358C42.8119 107.139 39.198 109.39 39.198 109.39C39.198 109.39 34.9943 120.929 40.6626 125.62C40.6626 125.62 40.7125 119.998 42.9569 121.369C45.2012 122.739 45.646 123.179 45.646 123.179V123.174Z" fill="#2F2E41"/>
<path d="M57.4524 130.506L57.0076 131.681L60.3515 131.776L60.5715 130.701L57.4524 130.506Z" fill="#2F2E41"/>
<path d="M60.7964 126.305C60.7964 126.305 55.7829 124.935 52.7738 129.041L52.104 129.821C52.104 129.821 45.756 122.684 46.3108 120.043L44.9762 120.143L43.6416 126.985C43.6416 126.985 47.8753 134.318 53.7785 134.613C53.7785 134.613 59.4618 135.984 60.6864 133.638C61.911 131.292 64.0204 127.831 64.0204 127.831L60.7964 126.305ZM59.8867 132.858H56.5677C55.7879 132.858 53.7835 130.022 53.7835 130.022C54.8982 128.261 58.2372 128.166 58.2372 128.166H61.866L62.136 129.241L59.8867 132.858Z" fill="#2F2E41"/>
<path d="M302.708 317.984L297.259 316.804L299.209 295.211L307.251 296.952L302.708 317.984Z" fill="#A0616A"/>
<path d="M284.063 313.821C283.833 314.071 283.543 314.971 283.473 315.307C283.254 316.327 283.903 317.337 284.923 317.557L301.798 321.204C302.493 321.354 303.182 320.914 303.332 320.213L303.482 319.508C303.482 319.508 304.772 317.577 303.617 314.601C303.617 314.601 301.043 316.177 298.539 312.295L297.964 310.385L290.076 313.896L286.198 313.546C285.348 313.471 284.643 313.191 284.063 313.816V313.821Z" fill="#2F2E41"/>
<path d="M292.961 316.327L288.417 313.101L298.699 294.02L305.407 298.781L292.961 316.327Z" fill="#A0616A"/>
<path d="M277.46 305.164C277.151 305.304 276.531 306.019 276.331 306.295C275.726 307.145 275.926 308.33 276.781 308.936L290.861 318.934C291.441 319.349 292.251 319.209 292.661 318.629L293.076 318.044C293.076 318.044 295.02 316.773 295.13 313.582C295.13 313.582 292.141 314.017 291.366 309.461L291.591 307.48L282.954 307.605L279.53 305.754C278.78 305.349 278.24 304.819 277.46 305.164Z" fill="#2F2E41"/>
<path d="M358.451 209.58C358.451 209.58 366.928 221.114 349.973 234.078L315.359 223.009L327.72 197.21L338.672 191.203L358.451 209.585V209.58Z" fill="#2F2E41"/>
<path d="M315.359 223.009L301.933 249.163L293.46 303.593L304.052 304.303L314.649 252.7L333.373 224.775L320.302 218.768" fill="#2F2E41"/>
<path d="M349.973 225.86V234.078L325.956 260.477C325.956 260.477 325.956 280.269 316.773 289.458L306.177 305.718L296.994 300.772L310.415 253.41L334.433 222.309L349.973 225.87V225.86Z" fill="#2F2E41"/>
<path d="M332.904 144.412L336.547 161.673L350.433 158.277C350.433 158.277 343.57 143.992 344.935 138.33L332.904 144.412Z" fill="#A0616A"/>
<path opacity="0.1" d="M332.904 144.412L336.547 161.673L350.433 158.277C350.433 158.277 343.57 143.992 344.935 138.33L332.904 144.412Z" fill="black"/>
<path d="M346.084 147.018L335.488 151.964C335.488 151.964 330.034 155.301 329.934 157.521C329.834 159.742 330.539 170.346 330.539 170.346C330.539 170.346 326.3 174.587 329.125 183.07L327.71 197.21L359.5 214.176L356.676 184.486L358.091 156.916L346.079 147.018H346.084Z" fill="#E6E6E6"/>
<path d="M355.597 227.466C354.357 230.312 351.883 231.982 350.068 231.192C348.259 230.402 347.794 227.451 349.034 224.605C349.514 223.459 350.263 222.449 351.213 221.649L356.621 209.645L362.195 212.305L356.271 223.855C356.336 225.095 356.102 226.335 355.592 227.466H355.597Z" fill="#A0616A"/>
<path d="M349.973 158.681C349.973 158.681 357.746 153.735 360.57 159.387C363.394 165.044 369.752 194.024 369.752 194.024L360.57 221.594L352.093 218.057L359.51 188.387L349.973 158.676V158.681Z" fill="#E6E6E6"/>
<path d="M310.146 223.015C307.941 225.206 305.027 225.846 303.638 224.44C302.248 223.035 302.903 220.124 305.102 217.933C305.972 217.048 307.036 216.378 308.216 215.987L317.663 206.824L321.867 211.351L312.105 219.904C311.71 221.079 311.035 222.145 310.146 223.01V223.015Z" fill="#A0616A"/>
<path d="M330.239 156.997C330.239 156.997 343.785 156.442 344.33 162.744C344.875 169.041 335.613 197.151 335.613 197.151L316.923 219.394L310.345 212.982L328.165 188.133L330.234 156.997H330.239Z" fill="#E6E6E6"/>
<path d="M369.357 231.648L282.729 217.668C281.299 217.438 280.32 216.082 280.55 214.652C280.78 213.221 282.134 212.241 283.564 212.471L370.192 226.451C371.622 226.681 372.601 228.037 372.372 229.467C372.142 230.898 370.787 231.878 369.357 231.648Z" fill="#5D2A9D"/>
<path d="M263.291 211.55C263.861 208.035 261.476 204.723 257.963 204.153C254.451 203.582 251.141 205.969 250.571 209.484C250.001 212.998 252.386 216.31 255.899 216.881C259.411 217.451 262.721 215.064 263.291 211.55Z" fill="#5D2A9D"/>
<path d="M254.507 220.999L254.737 219.583C259.996 220.434 264.964 216.842 265.814 211.576C266.664 206.314 263.075 201.342 257.811 200.492L258.041 199.076C264.079 200.052 268.203 205.759 267.228 211.806C266.254 217.848 260.55 221.974 254.507 220.999Z" fill="#3F3D56"/>
<path d="M334.293 148.078C340.184 148.078 344.96 143.299 344.96 137.404C344.96 131.509 340.184 126.73 334.293 126.73C328.402 126.73 323.626 131.509 323.626 137.404C323.626 143.299 328.402 148.078 334.293 148.078Z" fill="#A0616A"/>
<path d="M340.596 137.403C340.596 137.403 333.938 131.351 329.67 133.487C325.401 135.622 323.267 137.043 323.267 137.043C323.267 137.043 319.713 131.706 325.046 127.079C325.046 127.079 314.189 122.333 322.107 114.92C330.024 107.507 337.137 110.353 337.137 110.353C337.137 110.353 346.739 114.625 339.981 123.163C339.981 123.163 349.823 129.41 344.725 139.629C344.725 139.629 344.25 133.126 342.826 134.902C341.401 136.678 340.596 137.393 340.596 137.393V137.403Z" fill="#2F2E41"/>
<path d="M120.273 173.997C116.195 163.963 112.116 153.929 108.037 143.896C107.472 142.51 105.708 142.46 105.158 143.896C101.129 154.415 98.4949 165.393 97.2303 176.587C97.0154 178.493 99.9995 178.478 100.214 176.587C100.709 172.206 101.444 167.859 102.389 163.558C105.748 163.733 109.137 163.358 112.381 162.457C114.05 166.569 115.725 170.68 117.394 174.792C118.109 176.547 120.998 175.782 120.273 173.997ZM103.069 160.602C104.073 156.485 105.278 152.419 106.677 148.412L111.251 159.666C108.572 160.372 105.833 160.682 103.069 160.602Z" fill="white"/>
</g>
<defs>
<clipPath id="clip0_1269_21663">
<rect width="410" height="323" fill="white"/>
</clipPath>
</defs>
</svg>
