<svg width="346" height="356" viewBox="0 0 346 356" fill="none" xmlns="http://www.w3.org/2000/svg">
<path d="M34.7897 106.646C32.7309 110.016 30.8484 113.443 29.1131 116.925C29.0249 117.065 28.966 117.234 28.8778 117.374C28.4366 118.245 28.0248 119.115 27.613 119.986C27.3189 120.632 27.0248 121.25 26.7307 121.896C26.5542 122.261 26.3777 122.626 26.2306 123.019C20.3187 136.274 16.3774 150.288 14.5538 164.582C14.495 164.976 14.4656 165.369 14.4068 165.762C14.3185 166.464 14.2303 167.166 14.1715 167.868C14.0832 168.823 13.995 169.778 13.9067 170.733C13.9067 170.901 13.8773 171.07 13.8773 171.238C13.5832 175.057 13.4067 178.933 13.4067 182.837C13.4067 186.74 13.5538 190.616 13.8773 194.435C13.8773 194.603 13.9067 194.772 13.9067 194.94C13.995 195.895 14.0832 196.85 14.1715 197.805C14.2303 198.507 14.3185 199.209 14.4068 199.911C14.4656 200.304 14.495 200.698 14.5538 201.091C16.3774 215.385 20.2893 229.399 26.2306 242.654C26.4071 243.019 26.5542 243.384 26.7307 243.777C27.0248 244.423 27.3189 245.069 27.613 245.687C28.0248 246.558 28.466 247.428 28.8778 248.299C28.966 248.439 29.0249 248.608 29.1131 248.748C30.8484 252.202 32.7603 255.629 34.7897 259.027L173 182.837L34.7897 106.646Z" fill="#5D2A9D" stroke='#ffffff' stroke-width="2"/>
<path d="M173 182.57L84.2383 232.077C85.55 234.275 86.9413 236.406 88.3922 238.46C88.4518 238.547 88.5213 238.643 88.581 238.729C88.9487 239.248 89.3164 239.756 89.694 240.256C89.9722 240.63 90.2505 240.995 90.5287 241.36C90.6877 241.571 90.8467 241.782 91.0057 241.984C96.8291 249.471 103.726 256.124 111.467 261.75C111.686 261.903 111.904 262.057 112.123 262.22C112.501 262.489 112.878 262.758 113.266 263.026C113.792 263.391 114.319 263.746 114.846 264.102C114.945 264.169 115.035 264.226 115.134 264.294C117.271 265.705 119.467 267.039 121.742 268.306C124.018 269.573 126.324 270.745 128.649 271.829C128.748 271.877 128.858 271.925 128.957 271.973C129.543 272.242 130.13 272.501 130.716 272.761C131.143 272.943 131.571 273.135 132.008 273.317C132.256 273.423 132.505 273.529 132.753 273.634C141.667 277.301 151.088 279.74 160.707 280.872C160.976 280.901 161.244 280.93 161.512 280.959C161.979 281.007 162.456 281.055 162.924 281.103C163.569 281.16 164.205 281.218 164.851 281.266C164.961 281.266 165.08 281.285 165.189 281.295C167.763 281.487 170.367 281.583 172.99 281.583V182.58L173 182.57Z" fill="#FDC82E" stroke='#ffffff' stroke-width="2"/>
<path d="M307.61 275.362C308.214 274.549 308.817 273.737 309.401 272.905C309.502 272.75 309.622 272.614 309.723 272.46C312.078 269.151 314.312 265.727 316.446 262.186L173 182.57V341.782C177.247 341.782 181.453 341.628 185.62 341.318C185.801 341.318 185.982 341.279 186.163 341.279C187.21 341.202 188.236 341.105 189.283 341.008C190.048 340.931 190.812 340.854 191.557 340.776C191.98 340.738 192.423 340.68 192.845 340.641C208.383 338.822 223.62 334.914 238.01 329.013C238.413 328.839 238.815 328.684 239.218 328.51C239.922 328.22 240.607 327.929 241.291 327.62C242.237 327.214 243.183 326.788 244.129 326.343C244.29 326.266 244.451 326.188 244.632 326.111C248.396 324.369 252.119 322.493 255.803 320.442C259.486 318.41 263.048 316.243 266.49 313.98C266.631 313.883 266.792 313.786 266.933 313.69C267.798 313.128 268.644 312.548 269.509 311.948C270.133 311.523 270.737 311.097 271.361 310.652C271.703 310.4 272.065 310.149 272.408 309.897C284.927 300.862 296.077 290.143 305.476 278.109C305.738 277.78 306 277.432 306.261 277.103C306.724 276.523 307.167 275.923 307.61 275.323V275.362Z" fill="#FDC8D5" stroke='#ffffff' stroke-width="2"/>
<path d="M172.962 182.366V69.2188C169.927 69.2188 166.917 69.3271 163.944 69.5437C163.818 69.5437 163.68 69.5678 163.554 69.5799C162.811 69.64 162.068 69.7002 161.325 69.7724C160.783 69.8206 160.241 69.8808 159.7 69.941C159.385 69.9771 159.083 70.0132 158.768 70.0373C147.66 71.3252 136.778 74.1178 126.488 78.3066C126.198 78.427 125.909 78.5474 125.619 78.6677C125.128 78.8724 124.624 79.089 124.133 79.2937C123.453 79.5826 122.773 79.8835 122.105 80.1964C121.992 80.2446 121.866 80.3048 121.753 80.3529C119.057 81.5927 116.4 82.9288 113.78 84.3853C111.148 85.8297 108.604 87.3704 106.148 88.9714C106.035 89.0436 105.934 89.1158 105.821 89.188C105.203 89.5973 104.599 90.0065 103.994 90.4158C103.554 90.7167 103.113 91.0297 102.672 91.3426C102.42 91.5232 102.168 91.6917 101.929 91.8723C92.9867 98.3 85.0144 105.907 78.289 114.466C78.1 114.706 77.9111 114.947 77.7348 115.188C77.4073 115.609 77.0925 116.03 76.7776 116.452C76.3494 117.029 75.9086 117.619 75.493 118.209C75.4174 118.317 75.3418 118.414 75.2663 118.522C73.5786 120.881 71.9791 123.313 70.4678 125.816L173 182.39L172.962 182.366Z" fill="#FD8EB9" stroke='#ffffff' stroke-width="2"/>
<path d="M338.636 91.4524C336.195 87.4211 333.59 83.4931 330.878 79.6944C330.769 79.5394 330.634 79.3585 330.525 79.2035C329.847 78.2473 329.142 77.317 328.436 76.3867C327.921 75.7148 327.406 75.0171 326.89 74.3452C326.592 73.9576 326.293 73.57 325.995 73.1824C315.144 59.4088 302.259 47.1599 287.8 36.7975C287.394 36.5132 286.987 36.229 286.58 35.9447C285.874 35.4537 285.169 34.9627 284.437 34.4717C283.46 33.7999 282.484 33.1538 281.48 32.4819C281.317 32.3786 281.127 32.2494 280.965 32.146C276.977 29.5618 272.881 27.081 268.622 24.7553C264.39 22.4296 260.077 20.2589 255.737 18.2691C255.547 18.1916 255.357 18.0882 255.167 18.0107C254.082 17.5197 252.97 17.0287 251.885 16.5635C251.098 16.2276 250.284 15.8917 249.47 15.5557C249.009 15.3748 248.548 15.1681 248.087 14.9872C231.458 8.24256 213.88 3.74612 195.922 1.6788C195.434 1.62711 194.918 1.57544 194.43 1.52375C193.562 1.42039 192.667 1.34286 191.799 1.26533C190.605 1.16197 189.412 1.0586 188.191 0.955236C187.974 0.955236 187.757 0.929393 187.567 0.903552C182.766 0.567612 177.91 0.386719 173 0.386719V182.57L338.609 91.4782L338.636 91.4524Z" fill="#FC7530" stroke='#ffffff' stroke-width="2"/>
<path d="M173 182.399L250.21 225.164C251.352 223.262 252.414 221.343 253.387 219.399C253.432 219.314 253.467 219.229 253.511 219.144C253.75 218.652 253.989 218.168 254.219 217.676C254.388 217.319 254.556 216.962 254.715 216.597C254.812 216.385 254.901 216.181 254.998 215.969C258.299 208.532 260.494 200.67 261.512 192.647C261.539 192.426 261.565 192.197 261.592 191.976C261.636 191.585 261.68 191.195 261.724 190.796C261.778 190.261 261.831 189.726 261.875 189.183C261.875 189.089 261.893 188.996 261.901 188.903C262.07 186.755 262.158 184.581 262.158 182.391C262.158 180.2 262.07 178.027 261.901 175.879C261.901 175.785 261.884 175.692 261.875 175.598C261.831 175.064 261.778 174.52 261.724 173.985C261.68 173.595 261.636 173.204 261.592 172.805C261.565 172.584 261.539 172.355 261.512 172.134C260.494 164.103 258.299 156.249 254.998 148.812C254.901 148.6 254.812 148.396 254.715 148.184C254.556 147.827 254.388 147.462 254.219 147.106C253.989 146.613 253.75 146.121 253.511 145.637C253.467 145.552 253.432 145.467 253.387 145.382C252.414 143.438 251.352 141.519 250.21 139.617L173 182.382V182.399Z" fill="#9C51D0" stroke='#ffffff' stroke-width="2"/>
<path d="M173 354.959C267.542 354.959 344.184 281.414 344.184 190.692C344.184 99.9705 267.542 26.4258 173 26.4258C78.458 26.4258 1.81641 99.9705 1.81641 190.692C1.81641 281.414 78.458 354.959 173 354.959Z" stroke="white" stroke-width="2" stroke-miterlimit="10"/>
<path d="M173 322.106C248.633 322.106 309.947 263.27 309.947 190.693C309.947 118.115 248.633 59.2793 173 59.2793C97.366 59.2793 36.0527 118.115 36.0527 190.693C36.0527 263.27 97.366 322.106 173 322.106Z" stroke="white" stroke-width="2" stroke-miterlimit="10"/>
<path d="M172.999 289.253C229.724 289.253 275.709 245.126 275.709 190.693C275.709 136.26 229.724 92.1328 172.999 92.1328C116.274 92.1328 70.2886 136.26 70.2886 190.693C70.2886 245.126 116.274 289.253 172.999 289.253Z" stroke="white" stroke-width="2" stroke-miterlimit="10"/>
<path d="M173.001 256.4C210.818 256.4 241.475 226.982 241.475 190.693C241.475 154.404 210.818 124.986 173.001 124.986C135.184 124.986 104.528 154.404 104.528 190.693C104.528 226.982 135.184 256.4 173.001 256.4Z" stroke="white" stroke-width="2" stroke-miterlimit="10"/>
<path d="M173.001 223.541C191.909 223.541 207.238 208.832 207.238 190.687C207.238 172.543 191.909 157.834 173.001 157.834C154.092 157.834 138.764 172.543 138.764 190.687C138.764 208.832 154.092 223.541 173.001 223.541Z" stroke="white" stroke-width="2" stroke-miterlimit="10"/>
<path d="M158.986 14.6L159.238 10.184H163.858V11.156H160.27L160.126 13.616H161.338C163.318 13.616 164.254 14.696 164.254 16.184C164.254 17.792 163.006 18.824 161.326 18.824C159.886 18.824 158.914 18.236 158.242 17.12L159.19 16.532C159.706 17.468 160.402 17.852 161.314 17.852C162.37 17.852 163.15 17.24 163.15 16.22C163.15 15.248 162.466 14.6 161.29 14.6H158.986Z" fill="#282828"/>
<path d="M161.42 149.064V141.756L159.2 142.956L158.648 142.188L161.408 140.664H162.488V149.064H161.42Z" fill="#282828"/>
<path d="M158.566 116.445V115.473L161.41 112.545C162.394 111.513 162.838 111.045 162.838 110.157C162.838 109.281 162.202 108.777 161.35 108.777C160.462 108.777 159.886 109.221 159.394 110.037L158.506 109.497C159.19 108.429 160.126 107.805 161.434 107.805C162.838 107.805 163.954 108.717 163.954 110.085C163.954 111.225 163.21 112.077 162.202 113.133L159.898 115.473H164.182V116.445H158.566Z" fill="#282828"/>
<path d="M164.254 81.5102C164.254 83.0342 163.018 84.0662 161.326 84.0662C159.874 84.0662 158.914 83.4782 158.242 82.3622L159.19 81.7742C159.706 82.6982 160.378 83.0942 161.314 83.0942C162.358 83.0942 163.138 82.4822 163.138 81.4622C163.138 80.5142 162.466 79.8542 161.362 79.8542H159.934V78.8822H161.194C162.154 78.8822 162.766 78.3062 162.766 77.4902C162.766 76.6382 162.13 76.1582 161.266 76.1582C160.51 76.1582 159.922 76.5422 159.526 77.2742L158.626 76.7222C159.226 75.7382 160.114 75.1862 161.338 75.1862C162.79 75.1862 163.87 76.0622 163.87 77.3942C163.87 78.2102 163.486 78.9062 162.766 79.3022C163.738 79.6982 164.254 80.5382 164.254 81.5102Z" fill="#282828"/>
<path d="M158.23 49.9471V48.9751L162.178 43.9711H163.486V48.9751H164.458V49.9471H163.486V52.3711H162.406V49.9471H158.23ZM159.382 48.9751H162.406V45.1471L159.382 48.9751Z" fill="#282828"/>
</svg>
