<svg width="450" height="277" viewBox="0 0 450 277" fill="none" xmlns="http://www.w3.org/2000/svg">
<path d="M195.816 167.738C193.444 168.567 200.716 185.354 201.25 187.223C204.727 199.13 215.93 225.162 217.623 220.203C222.763 211.527 267.835 202.371 267.835 202.371C267.835 202.371 241.008 169.836 230.19 155.281C219.171 159.647 204.217 158.877 195.816 167.728V167.738Z" fill="#3F3D56"/>
<path d="M114.771 2.02242C115.661 1.39808 116.165 1.7577 116.255 2.34708C121.719 2.52689 128.287 3.68067 136.134 6.03318C156.577 10.6084 174.074 39.0733 153.366 53.8627C145.254 61.5895 136.104 60.0461 125.83 58.5877C125.235 56.7796 128.417 70.7698 125.65 72.8526C121.994 75.6397 111.75 67.1436 105.801 67.4483C102.799 71.2443 113.288 76.0043 107.224 80.3397C103.448 83.0468 96.1711 82.5424 95.1322 84.765C94.5678 90.2592 93.8585 95.6935 93.8585 95.6935C93.8585 95.6935 85.9918 93.6406 74.9885 92.8465C67.3815 83.2816 62.6565 69.0166 62.1171 56.2102C60.6936 23.5647 88.4093 2.43198 114.766 2.01742V2.02741L114.771 2.02242Z" fill="#3F3D56"/>
<path d="M164.024 209.106C161.527 208.721 162.386 211.338 164.469 211.004C171.277 216.208 175.582 223.216 175.582 232.396C175.642 240.832 208.353 206.344 215.101 203.102C223.656 192.788 240.858 206.519 232.212 195.2C229.121 193.687 228.292 189.322 226.718 185.99C224.041 184.447 221.639 179.717 217.303 180.526C198.553 188.103 182.635 201.114 164.029 209.101L164.024 209.106Z" fill="#9E616A"/>
<path d="M95.0715 93.4135C95.3962 98.7879 103.153 102.594 105.97 107.404C108.342 109.991 109.921 114.536 113.637 113.907C117.528 107.753 124.091 102.584 128.132 96.8549C132.412 98.633 133.446 99.9766 142.272 101.31C146.312 102.199 134.1 105.736 137.132 114.351C141.323 133.726 140.074 155.473 147.496 174.038C149.994 183.453 166.181 191.3 168.414 176.915C171.416 162.056 167.05 143.431 166.072 126.883C165.717 120.944 172.1 116.754 173.858 112.683C175.022 100.531 165.362 100.501 162.565 91.5605C161.911 89.2479 155.787 90.9062 158.999 87.9943C162.181 84.3981 158.17 77.0658 163.574 76.851C164.323 76.4365 164.828 75.013 164.493 74.2338C162.795 70.1931 160.632 66.417 158.17 62.8608C156.182 60.1836 159.928 52.5767 156.532 52.1621C149.459 60.6282 136.358 59.6192 126.468 57.931C125.639 57.961 124.066 61.8519 125.814 66.457C129.136 75.2227 121.564 74.3237 120.914 67.2562C120.56 63.3053 114.196 59.4694 109.386 61.5172C107.748 62.2065 106.954 65.6479 105.7 66.417C103.238 67.9005 110.036 78.8639 108.043 79.5182C95.4461 83.6488 95.0615 80.1725 95.0615 93.3886V93.4085L95.0715 93.4135Z" fill="#9E616A"/>
<path d="M257.814 212.901C257.58 212.961 257.37 213.021 257.125 213.081C258.224 212.901 259.328 212.756 260.397 212.516C261.62 212.272 262.859 212.192 264.113 211.982C264.587 211.922 265.092 211.802 265.476 211.507C265.741 211.298 265.921 210.973 265.921 210.648C265.921 210.498 265.951 210.324 265.951 210.174C265.536 210.943 264.757 211.427 263.303 211.447C261.405 211.742 259.617 212.426 257.809 212.901H257.814Z" fill="#6F479F"/>
<path d="M247.007 215.333L247.097 215.303C248.43 214.949 250.069 215.243 251.138 214.324C250.004 214.569 248.855 214.829 247.721 215.123C247.511 215.183 247.277 215.243 247.002 215.333H247.007Z" fill="#6F479F"/>
<path d="M229.12 188.867C229.685 189.876 230.219 190.885 230.728 191.929C231.023 192.583 231.353 193.203 231.588 193.857C231.617 193.947 231.677 194.037 231.737 194.102C231.383 193.302 231.263 192.373 230.818 191.639C230.344 190.69 229.749 189.771 229.12 188.872V188.867Z" fill="#6F479F"/>
<path d="M231.228 219.732C231.553 219.792 231.977 219.673 232.267 219.643C233.276 219.433 234.32 219.168 235.329 218.923C237.316 218.449 239.279 217.974 241.267 217.56C241.502 217.5 241.682 217.315 241.772 217.115C240.518 217.56 239.244 217.974 237.931 218.279C235.728 218.783 233.446 219.198 231.213 219.732H231.223H231.228Z" fill="#6F479F"/>
<path d="M373.183 191.211C377.193 191.241 383.911 191.211 383.911 191.211L449.157 13.5191L440.801 8.34961C440.801 8.34961 395.464 131.265 373.183 191.216V191.211Z" fill="#686889"/>
<path d="M265.816 122.936C285.835 136.217 354.203 180.191 355.092 181.524C353.808 194.535 347.245 196.264 331.982 198.192C334.264 206.423 349.388 202.707 356.486 199.645C361.69 197.412 362.639 189.451 362.255 185.565C367.489 188.981 372.174 191.214 372.174 191.214L376.994 178.437L268.164 115.809C268.164 115.809 266.176 122.192 265.821 122.941L265.816 122.936Z" fill="#686889"/>
<path d="M269.049 177.986C281.97 193.614 303.897 210.372 318.777 226.18C328.556 224.162 347.746 219.167 350.978 219.262C347.736 215.341 333.006 199.888 331.998 198.17C336.663 195.737 354.249 200.008 355.353 181.322C345.403 173.271 341.687 171.543 340.109 172.047C337.137 172.996 343.141 183.42 316.189 185.028C305.491 176.887 303.268 172.192 298.838 172.462C289.088 173.735 279.138 176.208 269.039 177.986H269.049Z" fill="#3F3D56"/>
<path d="M218.421 218.699C218.451 223.124 218.036 223.599 218.036 223.599L265.451 211.477C265.451 211.477 267.319 206.102 266.845 202.711C255.701 206.537 225.843 212.81 218.421 218.689V218.699Z" fill="#686889"/>
<path d="M268.633 115.603C293.826 131.017 377.548 178.232 377.548 178.232L440.502 8.94588L303.596 8.44141L303.291 9.45034C303.291 9.45034 279.736 82.3933 268.623 115.603H268.633Z" fill="#6F479F"/>
<path d="M228.885 159.3C237.441 168.575 254.348 191.945 261.271 199.642C262.725 203.238 256.161 203.438 254.079 203.438C244.838 194.608 226.363 168.325 222.672 163.061C222.317 162.526 222.427 161.807 222.967 161.423C224.27 160.474 226.792 158.96 228.875 159.28L228.885 159.29V159.3Z" fill="#686889"/>
<path d="M201.964 167.594C207.368 168.099 217.378 159.008 219.67 166.795C229.48 177.494 237.057 189.906 245.368 201.733C247.066 203.097 247.451 204.47 246.761 205.269C245.458 206.813 240.943 207.167 239.274 207.672C234.255 210.459 227.717 211.533 223.141 214.205C220.769 214.859 214.376 203.951 215.09 203.062C224.06 192.008 242.96 208.941 230.838 191.629C228.021 187.263 225.254 182.034 220.264 179.891C215.599 179.537 210.195 182.479 206.719 184.317C205.465 181.759 196.739 167.439 201.959 167.589L201.964 167.594Z" fill="#686889"/>
<path d="M1.45532 202.004C-2.40561 249.299 16.9889 267.539 66.6714 264.782C78.3191 268.259 90.0567 276.245 103.453 275.266C117.747 273.368 131.138 266.975 143.091 259.163C154.858 261.751 165.697 246.032 174.023 239.174C177.235 232.486 173.399 223.101 169.448 216.828C159.349 202.948 140.508 210.26 128.151 211.149C121.768 207.857 137.656 207.798 137.686 203.727C141.103 204.796 145.203 207.827 149.594 207.233C181.001 206.579 182.869 175.202 170.007 154.464C166.686 157.111 170.806 168.789 169.258 174.373C169.048 188.927 153.45 188.193 148.61 176.805C135.689 158.565 147.356 132.652 131.318 116.379C127.782 109.366 124.43 102.329 124.43 102.329C124.43 102.329 119.026 106.724 112.068 115.22C105.975 107.464 100.481 100.511 95.1064 95.3113C92.0446 95.7259 82.7245 94.2125 74.9627 92.8789C72.73 94.8968 70.4175 96.8897 68.964 102.294C34.2956 123.447 4.9716 159.244 1.4653 202.004H1.45532Z" fill="#FDC82E"/>
<path d="M141.508 59.7454C139.335 68.8058 148.965 84.4043 155.388 70.5639C164.299 53.0375 145.349 29.8969 141.508 59.7454Z" fill="#E1CBF1"/>
<path d="M157.076 51.7858C158.145 55.9764 157.551 70.1814 164.299 70.3512C168.934 63.5434 166.856 44.948 161.986 45.2177C160.562 45.2777 158.864 48.0348 157.086 51.7858H157.076Z" fill="#E1CBF1"/>
<path d="M363.617 186.07C363.617 186.07 363.647 186.131 363.677 186.161C363.647 186.131 363.647 186.1 363.617 186.07Z" fill="black"/>
<path d="M267.12 211.093C267.12 210.679 266.765 210.324 266.35 210.324C265.936 210.324 265.571 210.679 265.571 211.093C265.571 211.508 265.926 211.863 266.35 211.863C266.775 211.863 267.12 211.538 267.12 211.093Z" fill="black"/>
<path d="M194.986 167.209C195.905 164.362 197.893 163.888 200.421 162.959C203.208 161.92 206.005 160.906 208.887 160.112C211.674 159.343 214.471 158.598 217.233 157.739C219.79 156.97 222.313 155.981 224.9 155.307C226.233 154.952 227.547 154.358 228.97 154.558C229.535 154.618 230.134 154.822 230.544 155.247C230.574 155.277 230.604 155.277 230.634 155.307C231.048 155.397 231.288 155.751 231.583 156.026C232.147 156.59 232.717 157.19 233.281 157.754C234.555 159.118 235.808 160.571 236.997 162.09C239.614 165.151 241.987 168.393 244.574 171.505C249.684 177.658 254.673 183.867 259.513 190.255C260.907 192.033 262.19 193.911 263.584 195.689C264.503 196.883 265.392 198.062 266.231 199.345C266.736 200.144 267.365 200.919 267.715 201.808C268.339 203.351 268.099 205.049 267.894 206.648C267.774 207.657 267.65 208.665 267.51 209.649C267.42 210.004 267.39 210.399 267.265 210.783C267.295 210.813 267.295 210.873 267.325 210.903C267.445 211.378 267.175 211.852 266.701 212.002C266.641 212.032 266.551 212.032 266.491 212.062C263.614 212.811 260.692 213.575 257.815 214.325C254.573 215.154 251.372 216.023 248.13 216.852C244.744 217.741 241.382 218.61 238.001 219.499C234.465 220.418 230.958 221.337 227.427 222.226C224.58 222.975 221.718 223.68 218.901 224.459C218.841 224.489 218.751 224.489 218.656 224.489C218.477 224.489 218.332 224.429 218.182 224.339C218.122 224.399 218.032 224.429 217.937 224.459C217.877 224.519 217.787 224.579 217.727 224.609C217.607 224.669 217.483 224.699 217.373 224.699C217.263 224.699 217.163 224.669 217.048 224.639C216.803 224.549 216.663 224.404 216.574 224.194C216.514 224.074 216.454 223.949 216.394 223.869C215.565 222.326 214.756 220.748 213.931 219.204C213.012 217.426 212.063 215.668 211.194 213.86C210.75 212.971 210.335 212.052 209.891 211.123C209.681 210.678 209.476 210.204 209.296 209.759C209.176 209.495 209.086 209.255 209.002 208.99C208.942 208.87 208.912 208.745 208.882 208.636C208.852 208.516 208.822 208.371 208.852 208.251C208.912 208.006 209.176 207.896 209.416 208.006H209.446C209.656 208.126 209.771 208.331 209.921 208.541C210.07 208.75 210.215 208.955 210.335 209.135C210.6 209.55 210.87 209.934 211.104 210.359C212.143 212.117 213.122 213.865 214.076 215.653L214.106 215.683L214.136 215.713C214.136 215.713 214.166 215.743 214.166 215.773C214.166 215.773 214.196 215.803 214.196 215.833C214.196 215.833 214.196 215.863 214.226 215.863C214.226 215.863 214.256 215.893 214.256 215.923C214.256 215.923 214.256 215.953 214.286 215.953V215.983C214.286 215.983 214.316 216.013 214.316 216.043C214.316 216.043 214.316 216.073 214.346 216.073C214.346 216.103 214.376 216.103 214.376 216.133C214.91 217.142 215.475 218.185 216.014 219.194C216.309 219.729 216.579 220.293 216.873 220.833C216.933 220.083 217.083 219.379 217.348 218.69C217.438 218.415 217.612 218.185 217.792 217.971C217.438 217.346 217.103 216.687 216.813 216.043C215.56 213.515 214.381 210.993 213.247 208.436C212.863 207.547 212.478 206.678 212.113 205.789C212.528 205.524 212.942 205.254 213.337 204.989C213.427 204.929 213.547 204.84 213.632 204.78C213.782 205.134 213.926 205.469 214.076 205.818C215.38 208.88 216.783 211.912 218.267 214.909C218.621 215.628 218.921 216.332 219.336 217.022C219.486 216.962 219.63 216.872 219.78 216.787C225.155 213.99 231.043 212.152 236.832 210.374C242.037 208.8 247.196 207.102 252.461 205.679C255.937 204.879 259.298 203.661 262.775 202.772C263.574 202.527 264.383 202.477 265.207 202.387C265.357 202.387 265.562 202.357 265.772 202.327C265.862 202.297 265.981 202.297 266.066 202.267C266.036 202.207 266.006 202.147 266.006 202.087C265.532 201.258 265.057 200.634 264.493 199.775C260.242 193.976 255.877 188.217 251.422 182.573C248.515 178.977 245.603 175.381 242.656 171.814C240.483 169.137 238.435 166.38 236.213 163.733C234.989 162.19 233.75 160.641 232.467 159.128C232.202 158.773 230.769 157.23 230.354 156.221C230.089 156.191 229.82 156.101 229.525 156.071C228.456 156.011 227.472 156.366 226.493 156.695C223.616 157.554 206.379 162.694 201.744 164.482C200.381 165.017 198.957 165.401 197.733 166.24C197.489 166.45 197.349 166.715 197.199 166.99C199.187 173.263 202.159 179.142 204.621 185.2C204.801 185.645 205.006 186.119 205.216 186.564C205.006 186.654 204.831 186.774 204.651 186.888C204.386 187.068 204.147 187.213 203.902 187.423L203.782 187.513C203.093 185.905 202.419 184.271 201.764 182.643C199.866 178.218 197.988 173.762 196.775 169.067C196.715 168.823 196.655 168.563 196.595 168.318C196.21 169.267 195.826 170.246 195.875 171.29C196.12 173.662 197.039 175.895 197.958 178.068C199.232 181.1 200.486 184.126 201.754 187.158C201.964 187.603 200.62 189.176 200.481 188.702C200.006 187.633 199.562 186.559 199.117 185.49C197.863 182.398 196.5 179.366 195.291 176.25C194.667 174.611 194.192 172.928 194.067 171.2C193.888 169.807 194.452 168.523 194.956 167.279L194.996 167.219L194.986 167.209ZM266.141 203.221C265.697 203.401 265.252 203.546 264.808 203.666C263.739 203.876 262.725 204.26 261.716 204.615C255.363 206.787 248.795 208.301 242.401 210.384C234.764 212.786 226.958 214.809 219.855 218.555C219.56 218.705 219.261 218.85 218.996 219.059C218.372 220.008 218.551 221.352 218.432 222.476V222.656H218.462C221.493 221.857 224.52 221.082 227.582 220.283C231.088 219.364 234.595 218.475 238.126 217.546L248.195 214.929C251.457 214.1 254.698 213.231 257.975 212.402C259.583 211.987 261.216 211.572 262.815 211.148C263.704 210.903 264.593 210.703 265.492 210.459C265.522 210.339 265.582 210.194 265.612 210.074C265.762 209.325 265.886 208.561 265.966 207.791C265.996 206.278 266.411 204.7 266.146 203.216H266.136L266.141 203.221Z" fill="black"/>
<path d="M67.8804 105.142C67.8804 105.082 67.8503 105.021 67.7903 105.021C67.7302 105.021 67.7002 105.052 67.7002 105.112C67.7002 105.172 67.7302 105.232 67.7903 105.232C67.8503 105.232 67.8804 105.202 67.8804 105.142Z" fill="black"/>
<path d="M66.4565 107.13C66.4565 107.07 66.4265 107.01 66.3664 107.01C66.3064 107.01 66.2764 107.04 66.2764 107.1C66.2764 107.16 66.3064 107.22 66.3664 107.22C66.4265 107.22 66.4565 107.19 66.4565 107.13Z" fill="black"/>
<path d="M141.983 260.405C141.983 260.344 141.953 260.314 141.893 260.314C141.833 260.314 141.803 260.344 141.803 260.405C141.803 260.465 141.833 260.495 141.893 260.495C141.953 260.495 141.983 260.465 141.983 260.405Z" fill="black"/>
<path d="M199.316 168.305C199.346 168.011 200.145 167.616 200.295 167.586C200.739 167.406 217.142 162.152 217.142 162.152C217.202 162.152 217.292 162.122 217.352 162.092C217.382 162.122 217.382 162.152 217.412 162.152C217.502 162.272 222.172 167.971 222.372 168.18C223.351 169.434 224.36 170.643 225.373 171.896C225.373 171.896 225.998 172.616 226.203 172.845C226.293 172.935 226.382 173.055 226.467 173.14C226.437 173.14 226.407 173.14 226.407 173.17C226.882 173.764 234.639 184.158 234.814 184.403C234.933 184.583 235.078 184.758 235.198 184.938C235.168 184.938 246.631 201.725 246.996 202.969C248.329 206 246.521 206 245.987 206.24C244.199 207.039 222.511 214.531 222.402 214.561C220.534 215.216 219.25 211.59 218.606 210.611C217.332 208.623 215.869 205.975 214.595 203.983C214.24 203.598 216.078 202.254 216.583 202.439C217.057 202.559 217.237 203.064 217.442 203.478C217.976 204.427 218.541 205.376 219.05 206.325C219.23 206.235 219.375 206.145 219.555 206.06C219.939 205.851 225.463 203.089 225.553 203.029C225.583 203.029 225.583 202.999 225.613 202.999C225.289 202.309 224.959 201.605 224.664 200.916C224.31 200.167 223.715 199.278 223.411 198.483C223.351 198.304 224.1 198.334 224.24 198.483C225.339 199.617 226.228 200.916 226.947 202.309C226.947 202.339 226.977 202.339 226.977 202.369C227.157 202.279 240.797 196.401 241.087 196.311C240.198 195.057 239.329 193.848 238.47 192.595C238.145 192.12 237.815 191.676 237.461 191.201C236.741 191.381 236.037 191.586 235.348 191.795C233.835 192.12 232.316 192.45 230.803 192.804C230.593 192.864 230.328 192.924 230.083 192.924C229.699 192.924 229.334 192.774 229.254 192.3C229.164 191.676 229.789 191.441 230.293 191.351C232.346 190.846 234.364 190.252 236.417 189.713C235.438 188.319 234.459 186.946 233.475 185.552C231.867 186.206 230.293 186.886 228.575 187.19C228.365 187.22 228.131 187.25 227.921 187.25C227.676 187.25 227.416 187.19 227.232 187.005C226.817 186.621 227.022 185.872 227.556 185.752C227.851 185.692 228.151 185.632 228.445 185.572C229.839 185.247 231.152 184.683 232.486 184.148C231.352 182.54 230.203 180.937 229.07 179.339C226.837 180.028 223.485 181.177 221.233 181.651C220.434 180.792 218.386 176.002 218.171 175.712C217.667 175.862 214.22 177.106 213.002 177.55C213.211 177.845 214.989 180.367 214.195 181.027C214.015 181.117 213.871 181.177 213.751 181.177C212.952 181.177 212.497 179.783 212.053 179.219C211.843 178.864 211.608 178.529 211.398 178.18C209.79 178.774 208.187 179.404 206.608 180.048C207.203 181.212 207.742 182.42 208.092 183.674C208.182 183.824 207.497 184.059 207.467 183.919C206.903 183.17 206.428 182.375 205.924 181.576C205.679 181.192 205.42 180.777 205.175 180.353C205.709 181.451 206.214 182.585 206.628 183.704C206.873 184.089 206.658 184.623 206.184 184.683C206.154 184.683 205.494 184.328 205.415 183.994C205.265 183.579 199.201 169.084 199.291 168.275L199.311 168.285L199.316 168.305ZM246.196 205.176C246.196 205.176 246.107 204.347 246.107 204.317C244.498 204.702 240.732 206.305 240.138 206.52C240.168 206.58 240.228 207.209 240.228 207.209C240.228 207.209 245.367 205.511 246.196 205.191V205.181V205.176ZM230.543 210.79C231.018 210.7 236.816 208.293 239.189 207.579C239.189 207.579 239.009 207.014 239.009 206.86C237.496 207.394 235.977 207.958 234.464 208.433C233.13 208.937 231.817 209.472 230.513 210.041C230.513 210.101 230.513 210.81 230.543 210.79ZM222.611 213.497C224.479 213.113 229.439 211.215 229.439 211.215L229.349 210.466C229.349 210.466 224.24 212.424 222.781 212.928C222.661 213.078 222.536 213.492 222.601 213.492H222.611V213.497ZM218.815 207.973L218.431 209.137C218.431 209.137 220.743 212.793 221.108 213.178C221.198 212.933 221.258 212.583 221.373 212.319C219.889 210.086 218.815 207.983 218.815 207.983V207.973ZM226.178 204.192C225.998 204.222 225.853 204.282 225.733 204.372C225.169 204.667 219.764 207.404 219.61 207.464C220.054 208.293 221.922 211.684 221.952 211.744C224.325 210.975 226.617 210.231 228.965 209.312C228.755 209.017 226.562 204.947 226.178 204.202V204.192ZM235.418 200.062C235.238 200.092 229.174 202.709 228.285 203.123C228.041 203.243 227.811 203.368 227.566 203.478C228.315 204.752 229.969 208.348 230.183 208.792C232.97 207.659 235.797 206.56 238.649 205.551C237.486 203.623 236.477 202.015 235.418 200.057V200.067V200.062ZM236.582 199.557C237.915 201.285 239.763 205.111 239.793 205.171C241.721 204.517 243.684 203.898 245.672 203.333C244.573 201.375 243.33 199.507 242.046 197.654C241.751 197.744 236.876 199.462 236.582 199.552V199.557ZM210.025 165.903C209.76 165.993 209.46 166.083 209.196 166.148C208.127 166.502 207.053 166.837 205.984 167.156C205.774 167.216 205.569 167.276 205.36 167.336C205.45 167.456 205.569 167.546 205.654 167.661C206.423 168.41 207.108 169.269 207.737 170.123C207.857 170.063 207.982 170.033 208.122 169.973C209.545 169.469 210.999 169.084 212.427 168.7C211.658 167.751 210.884 166.802 210.025 165.913L210.035 165.903H210.025ZM217.846 165.273C217.492 164.769 217.047 164.354 216.653 163.88C215.259 164.324 213.866 164.769 212.462 165.184C212.197 165.273 211.928 165.333 211.663 165.428C212.167 166.083 212.732 166.682 213.301 167.296C213.566 167.591 213.836 167.891 214.1 168.185C215.739 167.651 217.372 167.116 219.03 166.642C218.646 166.197 218.261 165.723 217.836 165.278H217.846V165.273ZM221.672 179.448C221.762 179.658 221.882 179.833 221.997 180.043C222.322 179.953 222.651 179.863 222.916 179.748C224.644 179.154 226.362 178.554 228.086 178.02C226.987 176.537 225.823 175.113 224.669 173.685C222.911 174.249 221.133 174.818 219.375 175.383C220.174 176.746 220.918 178.09 221.657 179.453L221.667 179.443L221.672 179.448ZM218.461 174.074C220.189 173.54 221.907 173.035 223.6 172.501C222.831 171.522 222.087 170.603 221.338 169.654C220.863 169.029 220.389 168.4 219.914 167.816C218.276 168.26 216.673 168.765 215.074 169.389C215.489 169.894 215.933 170.398 216.348 170.932C217.097 171.941 217.771 173.015 218.461 174.084V174.074ZM212.107 176.357C213.056 175.972 214.035 175.588 214.984 175.193C215.704 174.928 216.408 174.688 217.127 174.444C215.993 173.02 214.865 171.597 213.681 170.223C213.591 170.133 213.501 170.013 213.436 169.929C211.863 170.433 210.224 170.848 208.646 171.412C208.941 171.856 209.241 172.331 209.505 172.776C210.394 173.939 211.263 175.118 212.092 176.342L212.102 176.352L212.107 176.357ZM203.257 174.094C204.146 175.637 205.095 177.156 205.874 178.789C205.934 178.879 205.994 178.999 206.024 179.114C207.507 178.225 209.026 177.54 210.569 176.911C210.509 176.821 210.479 176.761 210.419 176.666C209.945 175.747 209.38 174.908 208.751 174.079C208.247 173.36 207.772 172.626 207.328 171.876C205.964 172.471 204.65 173.15 203.257 173.715C203.197 173.715 203.167 173.744 203.107 173.744C203.167 173.864 203.197 173.954 203.257 174.069V174.089V174.094ZM202.488 172.426C202.488 172.426 202.518 172.426 202.548 172.396C203.911 171.861 205.225 171.172 206.558 170.588C206.468 170.438 206.349 170.293 206.264 170.143C205.819 169.424 205.285 168.69 204.78 167.911C204.72 167.791 204.63 167.666 204.57 167.556C204.096 167.676 203.651 167.801 203.177 167.941C202.702 168.09 202.228 168.235 201.753 168.385C201.399 168.505 201.034 168.63 200.685 168.71H200.655C201.189 169.983 201.848 171.207 202.493 172.426H202.488Z" fill="black"/>
<path d="M221.957 162.961L222.611 160.498L222.701 160.528V160.498C224.874 160.024 227.037 158.89 229.269 158.86C230.403 158.475 232.241 162.181 233.16 162.961C236.402 167.181 239.663 171.367 242.97 175.527C249.243 183.849 256.221 191.69 261.84 200.486C262.135 203.303 257.05 203.902 254.952 203.992C252.49 203.902 250.881 201.375 249.548 199.597C240.163 187.595 230.418 175.567 221.982 162.971L221.962 162.961H221.957ZM231.582 172.88C231.582 172.88 231.552 172.82 231.522 172.82L231.312 173.889C232.476 175.372 233.595 176.891 234.759 178.374L235.003 177.241C233.869 175.787 232.721 174.334 231.587 172.875L231.582 172.88ZM235.862 178.374L235.618 179.538C236.781 181.051 237.93 182.54 239.094 184.053L239.329 182.83C238.195 181.346 237.046 179.858 235.852 178.374H235.862ZM239.998 185.202C241.332 186.96 242.675 188.738 244.039 190.497L244.283 189.273C242.95 187.495 241.606 185.737 240.243 183.978L239.998 185.202ZM244.898 191.65C246.201 193.378 247.545 195.037 248.819 196.76L249.063 195.596C247.75 193.868 246.446 192.15 245.143 190.427L244.898 191.65ZM250.542 197.449C250.332 197.204 250.157 196.975 249.947 196.73L249.713 197.924C250.956 199.622 252.27 200.985 253.509 202.684C253.629 202.419 253.803 202.149 254.013 201.914C253.214 200.076 251.701 199.037 250.537 197.459V197.449H250.542ZM230.463 172.73L230.708 171.596C229.574 170.323 228.565 168.919 227.496 167.556L227.316 168.505C228.066 169.544 230.163 172.366 230.468 172.725L230.463 172.73ZM223.391 162.032L223.211 163.011C224.374 164.344 225.353 165.888 226.422 167.316L226.602 166.397C225.743 165.298 223.63 162.356 223.391 162.032ZM230.643 161.972C230.108 161.202 229.389 160.488 228.915 159.689C227.551 160.343 226.038 160.698 224.634 161.232C225.583 162.536 226.687 163.85 227.666 165.153C229.364 165.063 231.017 164.679 232.716 164.619C231.996 163.73 231.322 162.861 230.633 161.972H230.643ZM235.573 168.275C234.853 167.386 234.149 166.497 233.46 165.568C231.792 165.658 230.168 166.132 228.5 166.257C229.569 167.651 230.673 169.044 231.742 170.478C233.38 170.183 235.013 169.649 236.671 169.679C236.317 169.204 235.952 168.759 235.573 168.285V168.275ZM238.864 172.526C238.3 171.776 237.7 171.042 237.136 170.323C235.563 170.618 234.104 171.152 232.561 171.596C233.755 173.14 234.903 174.688 236.067 176.232C237.675 175.847 239.279 175.462 240.937 175.223C240.248 174.304 239.573 173.415 238.854 172.516L238.864 172.526ZM242.106 176.686C241.896 176.441 241.721 176.182 241.511 175.937C239.968 176.351 238.48 176.886 236.936 177.36C238.13 178.904 239.279 180.452 240.472 181.995C242.111 181.641 243.684 180.987 245.372 180.957C244.273 179.503 243.2 178.08 242.111 176.676V176.686H242.106ZM248.584 185.032C247.725 183.933 246.856 182.86 246.027 181.761C244.453 182.145 242.965 182.74 241.421 183.184C242.695 184.852 244.009 186.506 245.282 188.174C247.041 187.759 248.819 187.345 250.597 187.64C249.942 186.78 249.263 185.881 248.579 185.022L248.589 185.032H248.584ZM251.855 189.253C251.676 189.008 251.501 188.778 251.321 188.534C249.483 188.778 248.079 188.978 246.361 189.483C247.645 191.091 248.919 192.694 250.167 194.322C251.945 193.938 253.793 194.143 255.601 193.968C254.318 192.424 253.074 190.816 251.855 189.243V189.253ZM259.967 199.202C258.713 197.839 257.504 196.435 256.371 194.982C254.642 195.396 252.924 195.456 251.201 195.731C252.395 197.489 253.788 199.147 254.707 201.045C256.575 200.691 258.868 200.066 260.706 199.976C260.441 199.732 260.202 199.472 259.967 199.207V199.202ZM255.866 202.769C257.504 202.709 259.218 202.524 260.686 201.79C260.921 201.435 261.191 201.07 261.425 200.691C259.817 201.165 256.436 201.76 254.797 202.054C254.767 202.319 254.707 202.529 254.707 202.853C255.062 202.883 255.477 202.794 255.871 202.764V202.774L255.866 202.769Z" fill="black"/>
<path d="M264.767 123.063C264.827 122.913 264.857 122.768 264.917 122.619C265.191 121.819 265.451 120.98 265.746 120.186C267.109 116.145 268.453 112.105 269.816 108.034C271.27 103.699 272.723 99.3582 274.182 94.9928C275.635 90.6274 277.089 86.287 278.577 81.9216C280.001 77.701 281.394 73.4855 282.828 69.2649C284.221 65.1343 285.585 61.0037 286.988 56.883C288.472 52.4577 289.96 48.0523 291.414 43.632C292.777 39.5913 294.121 35.5506 295.484 31.5098C296.878 27.3193 298.301 23.1337 299.705 18.9431C300.394 16.9252 301.068 14.9323 301.788 12.9145C302.172 11.8156 302.567 10.7118 302.981 9.64293C303.161 9.1984 303.336 8.75387 303.516 8.33931V8.30933C303.576 8.15949 303.666 8.04462 303.781 7.95471H303.81L303.84 7.92475C303.9 7.89478 303.99 7.8648 304.05 7.8648C304.11 7.83484 304.14 7.83484 304.2 7.80487C304.29 7.7749 304.41 7.74494 304.495 7.74494C304.819 7.685 305.149 7.68499 305.474 7.68499C306.423 7.62506 307.372 7.59509 308.321 7.59509C313.37 7.50519 318.39 7.53516 323.445 7.56513C328.819 7.59509 334.173 7.59509 339.548 7.62506C345.042 7.65503 350.536 7.65503 356.035 7.68499C361.24 7.71496 366.399 7.71497 371.604 7.74494C376.978 7.7749 382.362 7.7749 387.707 7.80487C393.001 7.83484 398.251 7.83484 403.515 7.8648C408.75 7.89477 413.939 7.89478 419.174 7.92475C423.899 7.95471 428.619 7.95471 433.344 7.98468C435.716 7.98468 438.124 8.01465 440.536 8.01465C440.686 8.01465 440.811 8.04462 440.921 8.10456C441.185 8.07459 441.485 8.16449 441.69 8.22442C443.893 8.99361 445.82 10.3672 447.748 11.6108C448.373 12.0853 449.537 12.44 449.537 13.389C449.537 13.4489 449.507 13.5388 449.477 13.5988V13.6587C449.507 13.9234 449.447 14.1931 449.387 14.4279C449.267 14.8125 449.152 15.1971 449.032 15.5916C448.707 16.6305 448.313 17.6744 447.963 18.7133C447.214 20.916 446.39 23.1686 445.591 25.4612C443.573 31.0753 441.52 36.6644 439.467 42.2485C437.145 48.6018 434.802 54.965 432.49 61.3483C430.177 67.7316 427.824 74.0649 425.512 80.4481C423.079 87.1361 420.612 93.824 418.18 100.532C415.717 107.31 413.22 114.048 410.758 120.825C408.385 127.299 405.998 133.807 403.625 140.28C401.283 146.723 398.9 153.151 396.553 159.595C394.23 165.918 391.917 172.221 389.605 178.545C387.997 182.91 386.423 187.25 384.815 191.616C384.815 191.676 384.815 191.766 384.755 191.86C384.545 192.275 383.976 192.305 383.561 192.395C382.397 192.545 381.239 192.64 380.055 192.66H378.831C377.348 192.66 375.889 192.6 374.436 192.51C374.051 192.48 373.487 192.51 373.012 192.39H372.388C372.388 192.39 372.328 192.39 372.298 192.36C372.208 192.33 372.148 192.33 372.053 192.3C372.023 192.3 371.993 192.3 371.963 192.27C371.904 192.27 371.874 192.24 371.814 192.24C371.784 192.24 371.754 192.24 371.694 192.21H371.634L371.604 192.18H371.544C371.544 192.18 371.454 192.15 371.424 192.12C370.735 191.766 370.09 191.371 369.436 190.956C367.708 189.947 366.05 188.874 364.357 187.805C364.032 187.595 363.702 187.39 363.408 187.18C363.143 187.98 362.963 188.789 362.718 189.553C362.214 191.786 361.769 194.008 361.175 196.241C361.145 196.331 361.085 196.451 361.025 196.506C361.055 196.655 361.025 196.83 360.935 197.04C360.905 197.13 360.875 197.19 360.815 197.25C360.815 197.37 360.755 197.494 360.695 197.604C360.635 197.724 360.605 197.814 360.546 197.869C360.516 198.079 360.426 198.314 360.191 198.493C360.101 198.553 360.041 198.613 359.956 198.643C359.806 198.853 359.572 198.998 359.332 199.058C358.088 199.652 356.869 200.361 355.506 200.696C349.797 202.624 343.738 203.403 337.77 203.848C340.142 206.13 342.465 208.453 344.842 210.765C346.236 212.099 347.549 213.473 348.883 214.866C349.772 215.785 350.751 216.644 351.56 217.653C352.035 218.098 352.214 218.877 351.59 219.291C351.44 219.381 351.285 219.441 351.145 219.441C350.911 219.561 350.581 219.651 350.406 219.706C348.508 220.151 346.545 220.395 344.617 220.745C341.88 221.494 339.123 222.168 336.356 222.763C333.984 223.177 331.596 223.542 329.224 224.046C325.717 224.876 322.276 225.974 318.77 226.804C318.71 226.804 318.65 226.833 318.56 226.833C318.235 226.833 317.936 226.624 317.781 226.359C317.601 226.209 317.456 226.034 317.276 225.884C315.733 224.401 314.185 222.943 312.641 221.459C311.033 219.946 309.459 218.427 307.851 216.884C306.243 215.341 304.62 213.792 303.011 212.249C301.343 210.676 299.72 209.067 298.052 207.489C296.413 205.946 294.78 204.367 293.182 202.824C291.543 201.251 289.92 199.702 288.282 198.129C286.614 196.521 284.96 194.947 283.292 193.339C281.654 191.766 280.031 190.217 278.422 188.644C276.814 187.1 275.211 185.522 273.642 183.979C272.034 182.405 270.431 180.827 268.917 179.189C268.737 179.009 268.563 178.804 268.353 178.564C268.173 178.355 267.908 178.06 267.968 177.765C267.998 177.705 268.028 177.616 268.088 177.586C268.058 177.141 268.383 176.756 268.827 176.666C269.926 176.457 271 176.282 272.099 176.072C273.997 175.717 275.895 175.383 277.838 175.033C279.766 174.679 281.729 174.314 283.657 173.964C285.585 173.61 287.483 173.275 289.426 172.925C291.384 172.571 293.347 172.206 295.334 171.857C296.343 171.677 297.352 171.502 298.396 171.322C298.841 171.232 299.315 171.172 299.76 171.077C300.004 171.047 300.204 171.017 300.449 170.958C300.569 170.958 300.694 170.928 300.804 170.928C300.914 170.928 301.048 170.928 301.128 170.987C301.308 171.047 301.423 171.167 301.513 171.312C301.633 171.492 301.663 171.727 301.603 171.937C301.589 172.003 301.589 172.003 301.603 171.937C301.633 171.787 301.573 171.996 301.573 172.026C301.633 172.056 301.663 172.086 301.723 172.116C303.561 173.34 305.139 174.903 306.832 176.337C308.196 177.406 309.539 178.649 310.963 179.843C312.326 181.007 313.7 182.216 314.914 183.529C315.064 183.709 315.208 183.854 315.358 184.004C315.388 184.004 315.418 184.004 315.418 183.974C315.953 183.914 316.487 183.914 317.026 183.914C319.933 183.619 322.825 183.085 325.732 182.845C327.401 182.725 329.004 182.126 330.602 181.776C331.996 181.391 333.369 180.677 334.493 179.788C335.657 178.869 336.511 177.615 337.26 176.372C337.675 175.363 338.089 174.319 338.454 173.28C338.689 172.746 338.719 172.086 339.048 171.642C339.108 171.582 339.138 171.552 339.198 171.552C338.903 171.372 338.634 171.197 338.339 171.017C334.773 168.705 331.177 166.442 327.58 164.13C323.894 161.757 320.218 159.37 316.527 156.997C312.871 154.655 309.195 152.302 305.539 149.925C301.912 147.582 298.286 145.26 294.67 142.912C291.104 140.63 287.538 138.337 283.971 136.024C280.405 133.742 276.839 131.449 273.273 129.137C271.729 128.128 270.151 127.119 268.608 126.135C268.043 125.78 267.474 125.386 266.909 125.036C266.665 124.886 266.435 124.741 266.19 124.591C266.01 124.472 265.806 124.347 265.626 124.237L265.596 124.207H265.476C265.386 124.207 265.296 124.207 265.211 124.177C264.887 123.997 264.647 123.488 264.797 123.043V123.083L264.767 123.063ZM438.628 9.74283L428.344 9.71286C423.294 9.68289 418.215 9.68288 413.16 9.65292C407.866 9.62295 402.616 9.62295 397.322 9.59298C392.027 9.56301 386.748 9.56302 381.483 9.53305C376.159 9.50308 370.845 9.50307 365.505 9.47311C360.271 9.44314 355.051 9.44314 349.787 9.41317C344.293 9.3832 338.769 9.35324 333.269 9.35324C328.035 9.32327 322.815 9.32326 317.581 9.26333C315.054 9.23336 312.561 9.23336 310.034 9.17343C308.87 9.14346 307.721 9.14345 306.588 9.08352C306.053 9.05355 305.489 9.02358 304.949 8.99362C304.859 8.99362 304.749 8.96365 304.625 8.96365C304.535 9.25834 304.475 9.55802 304.39 9.85271C304.115 10.8317 303.825 11.7807 303.531 12.7297C302.247 16.8303 300.854 20.901 299.49 24.9717C298.067 29.1623 296.693 33.3779 295.269 37.5684C293.876 41.759 292.482 45.9146 291.079 50.1052C289.625 54.4406 288.172 58.781 286.714 63.1164C285.35 67.2171 283.976 71.3178 282.583 75.4184C281.159 79.6989 279.736 83.9744 278.277 88.2249L273.762 101.711C272.339 105.931 270.945 110.177 269.512 114.397C269.392 114.722 269.302 115.022 269.187 115.346C269.307 115.346 269.397 115.376 269.482 115.406H269.512C269.512 115.406 269.572 115.436 269.602 115.466C269.632 115.496 269.662 115.496 269.692 115.526C269.871 115.616 270.046 115.706 270.196 115.821L270.995 116.265C271.619 116.62 272.249 116.985 272.863 117.334C276.874 119.647 280.885 121.969 284.925 124.282C288.936 126.594 292.917 128.887 296.928 131.2C300.938 133.512 304.949 135.805 308.96 138.117C313.031 140.46 317.071 142.812 321.142 145.13C325.123 147.412 329.134 149.735 333.115 152.018C337.035 154.28 340.961 156.533 344.882 158.795C348.773 161.028 352.669 163.281 356.56 165.543C360.356 167.746 364.137 169.939 367.933 172.141C369.801 173.24 371.679 174.344 373.547 175.433C374.466 175.967 375.355 176.532 376.254 177.071C376.549 177.251 376.818 177.426 377.113 177.635C378.921 172.736 380.739 167.856 382.547 162.956C384.78 156.897 387.033 150.834 389.265 144.775C391.608 138.422 393.96 132.059 396.338 125.675C398.63 119.522 400.883 113.343 403.176 107.2C405.703 100.372 408.225 93.5643 410.753 86.7365C413.215 80.0486 415.712 73.3606 418.175 66.6527C419.448 63.2063 420.732 59.765 422.001 56.3086C423.304 52.7424 424.618 49.2061 425.951 45.6399C428.449 38.892 430.941 32.1841 433.469 25.4362C434.567 22.5293 435.671 19.5874 436.82 16.6705C437.414 15.1271 438.044 13.5788 438.658 12.0654C438.983 11.2662 439.312 10.4571 439.667 9.69287C439.312 9.75281 438.948 9.75281 438.598 9.72284L438.618 9.74283H438.628ZM375.849 190.742C377.243 190.832 378.616 190.832 380.01 190.832H381.049C381.703 190.802 382.502 190.802 383.222 190.832C384.171 188.244 385.09 185.692 386.039 183.105C388.271 177.011 390.494 170.953 392.727 164.894C395.039 158.591 397.332 152.297 399.644 145.994C402.017 139.461 404.424 132.923 406.837 126.39C409.364 119.532 411.856 112.629 414.384 105.771C416.786 99.1733 419.224 92.5803 421.636 85.9523C424.008 79.5091 426.361 73.0509 428.739 66.5778C431.081 60.1346 433.464 53.7064 435.811 47.2632C437.924 41.4643 440.062 35.6754 442.194 29.9115C443.203 27.1444 444.247 24.3874 445.286 21.6203C445.88 20.0469 446.48 18.4986 447.064 16.9252C447.359 16.1261 447.688 15.3519 448.013 14.5527C448.103 14.308 448.193 14.1082 448.308 13.8984C447.953 13.7186 447.654 13.394 447.329 13.2092C446.135 12.44 444.926 11.7257 443.733 10.9765C443.288 10.6219 442.064 9.99756 441.27 9.36822C441.15 9.51806 440.976 9.63294 440.796 9.69287C440.736 9.84272 440.706 10.0175 440.646 10.1674C440.411 10.9366 440.141 11.7407 439.907 12.5099C439.402 14.0233 438.868 15.5417 438.363 17.0551C437.444 19.7023 436.465 22.4294 435.486 25.1665C434.418 28.1384 433.314 31.1352 432.225 34.1071C430.981 37.4585 429.727 40.8549 428.509 44.2064C427.195 47.7726 425.862 51.3389 424.558 54.9351C422.001 61.8528 419.448 68.7854 416.891 75.7031C414.429 82.421 411.931 89.099 409.469 95.8169C407.066 102.29 404.679 108.768 402.276 115.251C399.934 121.555 397.611 127.878 395.264 134.201C392.981 140.415 390.689 146.583 388.406 152.797C386.114 159.01 383.801 165.214 381.518 171.422C379.945 175.673 378.367 179.918 376.793 184.199C375.994 186.341 375.22 188.504 374.421 190.642C374.835 190.642 375.37 190.672 375.874 190.702L375.864 190.742H375.849ZM336.421 202.115C341.975 202.025 347.564 201.106 352.969 199.742C354.222 199.298 355.371 199.053 356.625 198.518C357.219 198.339 358.168 197.599 358.967 197.355C358.997 197.295 359.057 197.235 359.117 197.175C359.117 197.175 359.147 197.145 359.177 197.145C359.207 197.055 359.237 196.935 359.297 196.82C359.297 196.79 359.327 196.76 359.327 196.76C359.327 196.64 359.357 196.496 359.417 196.346C359.477 196.226 359.507 196.136 359.597 196.051C359.567 195.666 359.716 195.252 359.831 194.887C360.106 193.878 360.306 192.869 360.551 191.885C360.965 189.987 361.41 188.089 362.034 186.206C361.295 185.732 360.58 185.287 359.831 184.813C358.558 184.014 357.304 183.175 356.065 182.35C355.945 183.27 355.821 184.189 355.651 185.088C355.236 187.23 354.377 189.248 353.338 191.181C352.204 193.294 350.661 195.432 348.259 196.051C346.036 196.8 343.713 197.03 341.431 197.504C339.733 197.829 338.014 198.039 336.321 198.274C335.097 198.518 333.859 198.718 332.605 198.838C333.524 199.757 334.443 200.676 335.432 201.545C335.632 201.725 335.847 201.9 336.026 202.11C336.116 202.08 336.291 202.08 336.441 202.11H336.421V202.115ZM339.987 173.385C339.693 174.689 339.333 176.002 338.853 177.246C337.785 179.329 336.206 181.167 334.128 182.296C333.06 182.83 331.986 183.429 330.807 183.599C329.553 183.924 328.31 184.348 327.031 184.518C323.235 184.843 319.454 185.652 315.658 185.792C315.094 185.792 314.799 185.347 314.799 184.903C313.97 184.248 313.161 183.569 312.336 182.915C309.689 180.832 307.042 178.754 304.46 176.592C303.246 175.493 302.147 174.539 300.724 173.62C300.544 173.5 300.369 173.295 300.339 173.025V172.781C300.074 172.841 299.805 172.9 299.54 172.93C298.821 173.08 298.116 173.195 297.427 173.315C295.439 173.67 293.446 174.064 291.458 174.414C289.531 174.768 287.568 175.133 285.63 175.483C283.702 175.837 281.804 176.172 279.871 176.522C277.943 176.876 276.01 177.241 274.072 177.561C272.648 177.825 271.225 178.095 269.791 178.33C270.116 178.594 270.446 178.864 270.74 179.159C272.409 180.642 274.032 182.131 275.67 183.644C277.308 185.158 278.942 186.706 280.57 188.249C282.238 189.823 283.921 191.431 285.59 193.009C287.198 194.553 288.831 196.071 290.43 197.614C292.068 199.188 293.721 200.766 295.389 202.339C297.058 203.913 298.691 205.491 300.349 207.064C301.987 208.638 303.611 210.186 305.249 211.759C306.887 213.303 308.481 214.851 310.119 216.395C311.692 217.908 313.3 219.426 314.879 220.94C316.272 222.273 317.696 223.617 319.099 224.95C319.159 224.95 319.219 224.921 319.279 224.921C320.198 224.711 321.087 224.416 322.016 224.181C326.147 223.018 330.307 221.949 334.553 221.334C337.904 220.86 341.211 219.941 344.502 219.192C346.221 218.897 347.979 218.837 349.707 218.657H350.211L350.152 218.597C349.497 217.798 348.728 217.114 348.009 216.395C345.162 213.393 342.16 210.516 339.208 207.564C337.065 205.251 334.633 203.228 332.55 200.846C332.195 200.311 329.873 198.139 331.097 197.754C331.187 197.754 331.276 197.754 331.371 197.784C331.431 197.46 331.666 197.19 332.111 197.095C333.09 196.975 334.098 196.85 335.082 196.68C337.345 196.236 339.658 196.056 341.92 195.547C343.938 195.162 345.991 194.922 347.949 194.243C350.891 193.384 352.759 188.689 353.828 185.982C354.102 185.183 354.302 184.373 354.482 183.549C354.602 183.135 354.757 182.186 355.046 181.591C354.926 181.501 354.802 181.411 354.662 181.347C352.854 180.153 351.036 178.974 349.228 177.81C347.479 176.676 345.721 175.548 343.963 174.424C342.709 173.625 341.436 172.816 340.187 172.021V172.081C340.127 172.496 340.037 172.94 339.977 173.355L339.997 173.365L339.987 173.385ZM267.674 123.383C268.028 123.628 268.363 123.827 268.713 124.037L278.367 130.28C281.934 132.563 285.5 134.856 289.066 137.168C292.662 139.481 296.258 141.803 299.855 144.116C303.451 146.428 307.077 148.781 310.673 151.094C314.389 153.466 318.095 155.883 321.816 158.286C325.533 160.658 329.239 163.076 332.93 165.478C336.466 167.761 340.002 170.053 343.538 172.366C345.297 173.5 347.045 174.629 348.803 175.752C350.591 176.916 352.399 178.065 354.177 179.199C355.985 180.333 357.803 181.481 359.582 182.615C361.19 183.654 362.763 184.668 364.372 185.707C366.04 186.806 367.663 187.88 369.301 188.979C370.051 189.483 370.755 189.987 371.474 190.492C371.719 190.672 371.978 190.847 372.223 191.026C372.433 190.462 372.638 189.927 372.848 189.358C374.151 185.852 375.435 182.38 376.738 178.874C376.619 178.814 376.529 178.784 376.414 178.724C375.879 178.46 375.375 178.19 374.84 177.895C372.942 176.856 371.034 175.782 369.161 174.714C367.263 173.645 365.365 172.541 363.482 171.472C359.622 169.269 355.756 167.047 351.895 164.814C348.034 162.581 344.138 160.359 340.247 158.126C336.266 155.843 332.255 153.521 328.275 151.238C324.324 148.956 320.373 146.693 316.417 144.411C312.376 142.068 308.306 139.745 304.265 137.398C300.224 135.085 296.184 132.733 292.113 130.42C288.102 128.108 284.091 125.785 280.051 123.473C278.093 122.339 276.13 121.21 274.172 120.086C273.193 119.522 272.214 118.952 271.23 118.388C270.755 118.123 270.281 117.824 269.806 117.559C269.512 117.379 269.212 117.204 268.917 117.054C268.857 117.024 268.797 116.995 268.767 116.965C268.737 116.965 268.738 116.935 268.708 116.935C268.053 118.863 267.404 120.825 266.75 122.783C267.074 122.933 267.404 123.168 267.699 123.378H267.679L267.674 123.383Z" fill="black"/>
<path d="M155.558 61.2002C155.233 61.1702 154.838 61.1702 154.459 61.1702C154.489 61.2601 154.489 61.35 154.489 61.4149C154.549 62.1841 153.8 62.7185 153.185 63.0232C153.005 63.0832 152.801 63.1431 152.621 63.1431C151.872 63.1431 151.137 62.6386 150.923 61.9194C150.893 61.8595 150.893 61.7695 150.893 61.7096C149.439 62.1541 148.076 62.8085 146.792 63.6076C146.672 63.6376 146.582 63.6676 146.467 63.6676C145.698 63.6676 145.214 62.5687 145.963 62.0293C148.106 60.6657 150.538 59.6868 153.065 59.502H153.42C154.399 59.502 155.438 59.502 156.207 60.1563C156.896 60.8106 156.327 61.35 155.553 61.1952H155.563L155.558 61.2002Z" fill="black"/>
<path d="M235.249 198.871C235.069 198.307 234.884 197.738 234.624 197.203C234.27 196.434 233.765 195.78 233.201 195.215C232.816 193.962 231.657 192.598 230.703 191.499C230.763 191.379 230.763 191.234 230.703 191.085C230.554 190.79 230.409 190.52 230.289 190.226C230.139 189.901 230.024 189.601 229.874 189.277C229.724 188.952 229.55 188.652 229.37 188.357C229.19 188.063 229.045 187.793 228.865 187.528C228.056 186.345 227.167 185.216 226.218 184.177C225.299 183.198 224.35 182.249 223.341 181.36C222.837 180.915 222.302 180.471 221.733 180.056C221.523 179.906 221.318 179.762 221.079 179.642C220.999 179.582 220.909 179.522 220.814 179.492C220.549 179.372 220.309 179.342 220.045 179.312C219.71 179.282 214.66 180.446 213.297 180.92C207.093 182.973 201.864 187.009 196.275 190.255C190.811 193.637 185.131 196.669 179.547 199.85C175.152 202.293 170.577 204.425 166.032 206.598C164.284 207.517 162.435 208.326 160.657 209.215C159.858 209.036 159.049 208.881 158.285 208.621C157.306 208.286 156.327 208.087 155.343 207.932C157.211 207.607 159.029 206.983 160.837 206.418C164.613 204.995 167.91 202.527 171.001 200.005C172.335 198.841 173.619 197.538 174.598 196.054C175.791 194.036 176.68 191.844 177.305 189.581C179.263 182.419 178.014 174.872 176.556 167.744C175.991 164.837 175.072 161.985 173.818 159.308C172.475 156.876 170.991 154.468 169.183 152.36C168.984 149.089 168.769 145.827 168.414 142.581C167.85 137.316 167.041 132.097 166.686 126.832C166.626 125.164 166.686 123.236 167.755 121.843C169.713 119.44 171.995 117.327 173.664 114.71C174.937 112.508 175.472 111.084 174.433 108.587C173.684 106.029 172.824 103.447 171.251 101.304C170.502 100.505 169.383 99.0218 168.219 99.0218C168.139 99.0518 168.02 99.0818 167.925 99.1117C167.835 98.6572 167.54 98.1328 167.39 97.888C166.886 97.1688 166.321 96.4945 165.692 95.8352C165.752 95.4406 165.552 94.9961 165.427 94.6415C164.688 92.8234 163.559 91.2451 162.106 89.9464C161.327 89.0274 160.348 88.9675 159.429 89.3521C159.319 89.2322 159.194 89.1173 159.074 88.9675C159.134 88.9375 159.164 88.9075 159.194 88.8775C160.438 87.0695 161.397 85.1415 161.691 82.9688C161.936 81.5952 162.166 80.1717 161.841 78.7782C161.811 78.6883 161.811 78.6284 161.781 78.5335C163.569 78.059 165.113 77.1699 165.437 75.212C165.527 73.8384 164.668 72.6847 164.104 71.5259C164.044 71.406 163.954 71.2612 163.894 71.1413C164.633 70.6368 165.228 69.8876 165.702 69.1234C166.391 68.0246 166.866 66.8109 167.215 65.5572C167.6 64.3335 167.83 63.0498 168.015 61.7812C168.154 60.5275 168.249 59.2838 168.279 58.0351C168.309 55.4778 168.109 52.8956 167.45 50.4282C167.126 49.2045 166.681 47.9957 166.057 46.8919C165.412 45.7931 164.513 44.6593 163.21 44.3346C162.885 44.2447 162.49 44.2147 162.201 44.3346C162.505 43.5354 162.735 42.6963 162.92 41.8722C163.424 39.6396 163.574 37.327 163.394 35.0644C163.225 32.7518 162.72 30.4693 161.971 28.2366C161.232 26.0939 160.223 24.046 159.064 22.1131C157.87 20.1252 156.447 18.2522 154.873 16.529C153.36 14.8907 151.702 13.3773 149.944 11.9838C148.156 10.5803 146.258 9.33657 144.265 8.23773C142.307 7.13889 140.224 6.21987 138.081 5.47066C129.545 2.46883 125.275 1.34002 114.636 0.865522C112.224 0.745648 109.786 0.745647 107.444 1.34002C99.6568 2.65363 92.1997 5.65546 85.6666 10.0758C81.3511 12.9228 77.2505 16.1344 73.8391 19.9953C67.1212 27.9869 62.9306 38.5008 61.4771 48.8149C61.0925 52.1963 61.1525 55.6227 61.4472 59.0391C61.627 61.981 61.9516 64.9278 62.6109 67.7748C63.2253 70.6218 63.8546 73.4738 64.9235 76.181C66.4069 79.8371 68.1651 83.4033 69.9732 86.9396C70.8123 88.5679 71.7013 90.2011 72.6503 91.8094C72.985 92.3139 73.3046 92.8184 73.8441 93.1131C73.7342 93.223 73.6093 93.3478 73.4894 93.4677C72.8002 94.0821 72.1758 94.5366 71.7313 95.3357C70.8722 96.6693 70.103 98.0129 69.3888 99.4364C68.5796 101.135 68.0452 102.024 68.1351 102.943C67.1561 102.913 66.2271 103.297 65.428 103.832C64.3891 104.446 63.4401 105.045 62.4561 105.7C59.7789 107.508 56.9319 109.116 54.3746 111.134C49.265 114.93 44.535 119.186 39.6052 123.196C37.3127 125.339 35.0001 127.417 32.8873 129.729C31.4039 131.458 29.8855 133.146 28.3721 134.839C25.2804 138.68 22.6931 142.716 19.906 146.696C17.7034 149.988 15.4408 153.265 13.6027 156.796C11.0754 161.556 8.72286 166.391 6.85484 171.41C5.40137 175.786 4.1477 180.211 3.13876 184.726C2.63429 187.099 2.30964 189.486 1.83514 191.859V191.909C0.6414 199.131 -0.277627 206.433 0.0769979 213.686C0.256808 216.827 0.411643 219.979 0.731305 223.101C1.02599 225.533 1.5904 227.951 2.1548 230.323C3.51836 235.528 4.70211 240.837 7.46919 245.507C10.7707 251.091 15.6406 255.821 21.3495 258.913C24.1765 260.336 27.2083 261.345 30.1802 262.389C33.4717 263.308 36.8082 264.227 40.1596 264.887C44.9196 265.746 49.7345 266.22 54.5445 266.25C56.5024 266.22 58.4653 266.015 60.4232 265.985C61.7269 265.956 63.0105 265.985 64.3141 265.896C65.2631 265.866 66.2121 265.651 67.1311 265.776C67.3409 265.836 67.5757 265.776 67.7555 265.656C68.6146 266.22 69.4837 266.785 70.3727 267.264C71.8861 268.153 73.4045 269.072 75.0678 269.727C76.5812 270.231 78.0996 270.765 79.583 271.425C83.389 272.908 87.2499 274.362 91.2307 275.346C94.737 275.99 98.3332 276.769 101.929 276.769C106.15 276.679 110.316 275.87 114.291 274.536C118.837 273.103 123.172 271.11 127.303 268.768C130.444 267.169 133.746 265.796 136.748 263.958C137.846 263.268 138.95 262.614 139.959 261.815C140.728 261.25 141.473 260.531 142.332 260.057C142.746 260.621 143.585 260.916 144.919 260.916C145.164 260.916 145.393 260.886 145.638 260.886C147.476 260.641 149.264 259.907 151.043 259.342C153.385 258.453 155.498 257.08 157.546 255.716C161.252 253.544 164.493 250.637 167.405 247.485C169.668 244.928 172.545 242.97 174.658 240.263C175.527 238.869 176.061 237.321 176.326 235.717C178.588 234.144 180.042 232.98 182.384 231.557C187.224 228.315 191.829 224.699 196.285 220.983C199.941 217.831 203.447 214.48 207.043 211.233C210.075 208.566 212.812 205.414 216.289 203.332C220.569 200.505 223.985 199.291 229.125 200.24C229.984 200.33 230.823 200.47 231.652 200.714C232.721 201.099 234.18 201.394 235.069 200.505C235.513 200.06 235.493 199.436 235.249 198.896V198.871ZM170.467 169.887C170.407 169.138 169.728 160.167 169.578 157.585C169.518 156.636 169.458 155.717 169.398 154.768C170.377 156.366 171.356 157.94 172.215 159.608C173.349 161.98 174.083 164.538 174.712 167.065C175.986 173.478 177.3 180.166 176.226 186.669C174.558 194.891 171.955 197.658 165.143 202.203C163.739 203.002 162.406 203.921 160.922 204.515C159.758 204.99 158.52 205.295 157.296 205.679L157.316 205.669C154.164 206.558 150.843 206.803 147.631 206.264C145.279 205.909 142.996 205.345 140.823 204.426C139.64 203.951 138.481 203.417 137.532 202.557C136.278 201.668 135.159 200.63 133.996 199.616C133.461 199.251 133.166 198.517 132.482 198.452C131.623 197.643 130.824 196.784 130.17 195.835C129.45 194.736 128.796 193.612 128.411 192.358C127.757 190.45 127.128 188.552 126.713 186.619C126.468 185.72 126.653 184.801 126.713 183.912C127.098 178.598 127.632 173.223 128.731 167.994C129.206 165.317 130.075 162.73 131.468 160.417C132.982 158.224 135.124 156.586 137.267 155.073C138.511 154.263 139.874 153.789 141.063 152.99C141.093 153.344 141.123 153.679 141.153 153.999C141.333 155.697 141.538 157.415 141.717 159.108C141.747 159.523 141.797 160.057 142.012 160.412C142.092 161.066 142.182 161.716 142.307 162.37C142.631 164.098 143.076 165.816 143.61 167.509C143.875 168.399 144.205 169.268 144.529 170.127C145.359 172.239 146.337 174.257 147.501 176.155C148.54 177.854 149.734 179.487 151.067 180.945C152.581 182.584 154.309 184.037 156.302 185.046C156.452 185.136 156.627 185.226 156.776 185.291C157.725 185.705 158.674 186 159.683 186.15C160.078 186.21 160.493 186.24 160.877 186.24C161.626 186.24 162.361 186.16 163.08 185.945C165.163 185.351 166.816 183.802 167.95 182.024L167.98 181.994C169.113 180.156 169.798 178.073 170.152 175.936C170.292 174.927 170.417 173.918 170.477 172.874C170.537 171.895 170.537 170.886 170.477 169.872L170.467 169.887ZM134.305 207.697C135.439 207.103 136.508 206.413 137.487 205.644C137.687 205.494 137.991 205.32 138.256 205.14C138.376 205.23 138.521 205.32 138.641 205.384C140.389 206.244 142.267 206.898 144.165 207.402C143.416 207.522 142.681 207.667 141.962 207.817C139.55 208.202 137.142 208.706 134.74 209.15C133.316 209.38 131.768 209.32 130.434 209.92C129.99 210.194 129.725 210.609 129.635 211.083C129.39 211.004 129.191 210.914 128.981 210.759C128.656 210.549 128.327 210.344 128.002 210.105C130.115 209.335 132.437 209.036 134.305 207.702V207.697ZM124.066 131.078C123.896 129.12 122.852 127.452 121.753 125.873C120.36 123.701 118.632 121.773 117.118 119.69C115.815 118.032 114.531 116.398 113.257 114.76C114.326 113.721 115.245 112.538 116.229 111.439C117.268 110.285 118.372 109.186 119.441 108.022C121.019 106.479 122.593 104.901 124.106 103.262C124.106 103.322 124.136 103.352 124.136 103.412C124.166 103.532 124.256 103.592 124.381 103.592C129.251 111.319 131.483 120.469 131.803 129.535C131.853 131.817 131.773 134.08 131.593 136.362C131.533 138.625 131.089 140.848 130.524 143.02C129.395 141.527 128.092 140.223 126.958 138.74C125.919 137.576 125 136.277 123.806 135.264C124.221 133.89 124.311 132.467 124.071 131.073L124.066 131.078ZM137.157 107.323C135.844 109.191 135.754 111.534 135.933 113.676C136.208 116.553 136.683 119.445 137.187 122.292C136.498 121.223 135.794 120.15 135.104 119.081C134.065 117.303 132.792 115.694 131.598 114.031C131.203 113.497 130.819 112.932 130.404 112.363C130.195 111.768 129.99 111.199 129.75 110.605C129.001 108.767 128.052 106.839 127.043 105.17C126.389 104.221 125.849 103.088 125.055 102.228C125.884 101.329 126.723 100.41 127.517 99.4614C127.992 98.9269 128.496 98.4524 128.971 97.918C129.66 98.3326 130.404 98.7271 131.174 99.0168C133.426 100.32 135.983 101.005 138.506 101.544C139.515 101.724 140.494 101.959 141.478 102.079C139.55 103.957 137.297 106.839 137.142 107.313L137.152 107.323H137.157ZM131.943 152.261C132.033 149.888 131.803 147.501 131.618 145.158C132.093 144.449 132.232 143.52 132.477 142.726C132.597 141.946 132.832 141.242 132.982 140.493C133.306 138.505 133.366 136.512 133.516 134.524C133.841 128.586 133.271 122.587 131.758 116.818C131.788 116.848 131.788 116.878 131.818 116.908C133.271 119.161 134.615 121.483 136.008 123.766H135.998C136.778 125.009 137.422 126.323 138.141 127.597C138.141 127.657 138.171 127.746 138.201 127.806C139.06 132.856 139.839 137.906 140.219 143.02C140.429 145.927 140.673 148.819 140.938 151.696C139.655 152.465 138.171 152.85 136.838 153.564C134.645 154.878 132.597 156.451 130.929 158.354C131.433 156.366 131.818 154.313 131.938 152.261H131.943ZM168.214 100.35C169.498 101.21 170.357 102.613 170.981 103.977C171.811 105.49 172.435 107.098 172.969 108.702C173.838 110.6 173.659 111.489 172.585 113.217C171.251 115.649 168.999 117.612 167.27 119.75C163.919 122.842 165.078 127.741 165.402 131.752C165.757 135.613 166.381 139.449 166.736 143.31C167.121 146.602 167.26 149.998 167.505 153.29C167.75 157.21 168.699 168.713 168.699 169.038C168.699 169.432 168.729 169.847 168.729 170.232V170.252C168.729 170.806 168.729 171.405 168.609 172.06C168.549 173.223 168.469 174.372 168.284 175.506C168.164 176.365 167.96 177.204 167.72 178.033C167.54 178.618 167.325 179.217 167.066 179.811C166.886 180.256 166.651 180.671 166.411 181.085C166.381 181.115 166.381 181.145 166.351 181.175C166.142 181.5 165.907 181.829 165.662 182.124C165.452 182.399 165.218 182.629 164.973 182.873C164.763 183.083 164.558 183.258 164.318 183.438C164.109 183.588 163.874 183.732 163.629 183.882C163.384 183.992 163.155 184.117 162.91 184.207C162.665 184.297 162.435 184.387 162.191 184.452C161.926 184.512 161.656 184.571 161.392 184.601C161.127 184.631 160.827 184.631 160.562 184.631C160.238 184.631 159.938 184.601 159.613 184.542C159.289 184.482 158.924 184.392 158.605 184.297C158.21 184.147 157.795 184.002 157.441 183.852C156.936 183.642 156.462 183.368 156.017 183.103C155.483 182.738 154.948 182.384 154.439 181.969C153.765 181.405 153.135 180.835 152.541 180.211C151.762 179.412 151.057 178.543 150.398 177.654C149.589 176.52 148.855 175.371 148.166 174.147C147.366 172.694 146.682 171.206 146.113 169.782L146.083 169.722C145.393 168.024 144.829 166.276 144.415 164.553C144.08 163.299 143.85 162.025 143.665 160.777C143.575 160.332 143.545 159.888 143.485 159.473V159.323C143.456 159.143 143.426 158.969 143.306 158.819C143.246 158.204 143.186 157.605 143.126 157.011C142.861 154.598 142.571 152.191 142.357 149.758C141.852 143.585 141.468 137.406 140.399 131.313C139.48 125.494 138.236 119.605 137.612 113.786C137.522 112.178 137.402 110.485 138.146 109.026C138.915 107.573 139.924 106.269 140.993 105.045C141.852 104.066 142.751 103.177 143.52 102.169C145.064 102.049 146.642 101.604 147.916 100.715C147.746 101.879 147.716 103.098 148.006 104.401C148.215 105.44 148.845 108.177 150.148 108.177C150.328 108.177 150.503 108.117 150.683 108.027C150.853 107.907 151.157 107.633 151.452 107.308C151.482 107.952 151.542 108.582 151.662 109.206C151.782 110.125 152.226 111.044 153.24 111.044H153.42C154.014 111.014 154.519 110.59 155.028 110.325C155.028 110.325 155.058 110.295 155.088 110.295C155.058 110.355 155.058 110.445 155.058 110.505C155.028 111.424 154.878 112.373 154.998 113.292C155.118 114.121 155.867 114.865 156.697 114.865C156.941 114.865 157.171 114.805 157.416 114.655C158.245 114.241 158.839 113.566 159.404 112.817C159.554 113.746 159.908 114.456 160.827 114.071C161.481 113.656 161.991 113.032 162.555 112.463C163.564 111.299 164.818 110.41 165.797 109.221C166.331 108.637 166.596 107.768 167.31 107.383C167.43 107.688 167.555 108.007 167.935 108.072C168.269 108.132 168.589 107.863 168.624 107.538C168.714 106.439 167.615 105.84 166.696 106.439C164.553 108.227 162.351 110.065 160.572 112.238C160.662 110.695 161.047 109.116 161.611 107.693C161.936 106.764 162.086 105.785 162.62 104.956C163.489 103.762 164.673 102.873 165.802 101.984C166.541 101.359 167.285 100.7 168.204 100.345L168.214 100.35ZM155.832 88.6028C156.157 88.463 156.522 88.7227 156.811 88.8476C157.316 89.0574 157.7 89.4719 158.145 89.8266C158.255 89.9165 158.345 90.0064 158.47 90.0713C158.195 90.306 157.965 90.5758 157.78 90.8705C156.267 93.183 154.809 95.5655 153.415 97.973C152.791 99.1667 151.962 100.266 151.747 101.599C151.657 102.498 151.657 103.417 151.597 104.306C151.597 104.601 151.567 104.901 151.567 105.195C151.357 105.405 151.182 105.64 151.062 105.82C150.818 106.064 150.588 106.294 150.343 106.539L150.363 106.519C149.689 104.941 149.444 103.317 149.504 101.649C149.584 100.256 150.273 99.0118 150.838 97.7582C151.727 95.8602 152.536 94.0121 153.395 92.1091C154.069 90.8654 154.639 89.4619 155.827 88.6028H155.832ZM166.356 98.6972V98.7072C166.601 98.9419 166.781 99.2616 167.046 99.5063C166.336 99.9209 165.712 100.485 165.118 101.02C163.834 102.089 162.5 103.103 161.491 104.401C160.957 105.24 160.742 106.219 160.423 107.138C159.948 108.167 159.564 109.271 159.444 110.43C159.444 110.55 159.414 110.665 159.414 110.814C159.414 110.814 159.384 110.844 159.354 110.844C158.405 111.489 157.685 112.473 156.766 113.127C156.522 111.319 156.846 109.501 157.091 107.723C157.241 106.529 157.366 105.35 157.715 104.216C158.04 103.297 158.575 102.488 159.049 101.659C159.703 100.475 160.423 99.3165 161.312 98.2726C162.001 97.4435 162.475 96.3746 163.33 95.7153C164.523 96.4845 165.347 97.7032 166.361 98.6872L166.356 98.6972ZM161.751 91.3799H161.741C162.55 92.239 163.135 93.2779 163.824 94.2868C162.51 93.9622 161.382 95.3257 160.612 96.4895C159.574 97.8331 158.47 99.1367 157.671 100.62C156.901 101.814 156.107 103.207 155.892 104.631C155.648 105.905 155.478 107.218 155.358 108.492H155.268C154.594 108.757 153.994 109.116 153.4 109.501C153.075 107.573 153.37 105.58 153.37 103.652C153.43 102.903 153.34 102.169 153.52 101.449C153.755 100.775 154.144 100.146 154.499 99.5213C155.723 97.4085 156.961 95.3307 158.185 93.218C159.104 91.8544 159.993 89.0973 161.751 91.3799ZM162.006 45.2187C162.186 45.3885 162.42 45.4484 162.66 45.5433C162.77 45.5733 162.86 45.6033 162.955 45.6632C163.035 45.7231 163.125 45.7831 163.22 45.843C163.33 45.9229 163.454 46.0128 163.574 46.1377C163.694 46.2626 163.839 46.4024 163.959 46.5523C164.109 46.7321 164.254 46.9369 164.373 47.1466C164.553 47.5013 164.728 47.8359 164.908 48.1855C165.153 48.7799 165.352 49.3493 165.532 49.8838C165.532 49.9137 165.562 49.9437 165.562 49.9737C165.837 50.8927 166.037 51.8117 166.187 52.7607V52.7907C166.386 54.0943 166.511 55.3979 166.541 56.6166C166.571 58.0401 166.511 59.4437 166.361 60.7473C166.241 61.911 166.027 63.0598 165.767 64.1936C165.557 64.9728 165.312 65.707 165.048 66.4562C164.838 66.9607 164.633 67.4352 164.393 67.8797L164.413 67.8897C164.264 68.1844 164.089 68.4541 163.849 68.7488C163.699 68.9586 163.554 69.1034 163.404 69.2833C163.325 69.3931 163.205 69.513 163.08 69.6079C163.08 69.6379 163.05 69.6379 163.02 69.6678C162.151 68.2344 161.172 66.8708 160.343 65.4173C160.068 64.9728 159.209 63.2147 158.734 62.4155C158.764 62.0209 158.794 61.6363 158.824 61.2517C159.479 61.7262 160.812 61.971 161.382 61.7262C162.45 61.5764 162.665 60.1179 161.501 59.9681C160.642 60.1479 159.743 59.9681 158.884 60.088V58.5746C158.854 57.6256 158.764 56.6466 158.639 55.6976C158.49 54.6887 158.275 53.7097 158.015 52.7257C157.935 52.431 157.845 52.1613 157.75 51.8667C158.884 50.613 159.893 49.2494 160.722 47.766C161.177 46.9369 161.591 46.0678 161.946 45.1787C161.976 45.1787 161.976 45.2087 162.006 45.2087V45.2187ZM71.5465 85.9956C69.7684 82.5792 68.0702 79.0779 66.6167 75.5416C65.1932 71.8955 64.454 67.9946 63.7397 64.1687C63.2652 60.048 62.8407 55.8874 63.0505 51.7218C63.1304 48.2455 63.8796 44.7941 64.8286 41.4377C65.9924 36.9125 67.8904 32.6719 70.0331 28.5663C71.7213 25.6144 73.5993 22.7374 75.9119 20.2451C78.5591 17.428 81.5609 15.0206 84.7126 12.758C88.9631 9.7861 93.5083 7.18385 98.3781 5.42571C102.034 4.12208 105.81 3.29296 109.611 2.63865C111.005 2.42887 112.378 2.45884 113.772 2.45884C121.609 2.45884 129.106 4.08712 133.976 5.75036C134.984 6.10499 136.058 6.40467 137.067 6.78927C137.452 6.93911 137.846 7.05399 138.201 7.20383C138.231 7.2338 138.261 7.2338 138.261 7.2338H138.291C140.079 7.94305 141.797 8.77716 143.431 9.66622C144.974 10.5253 146.492 11.5043 147.916 12.5432C149.279 13.5521 150.583 14.656 151.807 15.8147C152.941 16.8836 154.009 18.0374 154.988 19.2611C155.877 20.3949 156.736 21.5437 157.486 22.7674V22.7974L157.516 22.8273C158.225 24.0211 158.849 25.1998 159.414 26.4535C159.918 27.5873 160.333 28.7061 160.687 29.8999C161.012 30.9887 161.272 32.1225 161.457 33.2513C161.596 34.2902 161.691 35.3341 161.721 36.403C161.721 37.3819 161.691 38.3909 161.571 39.3748C161.452 40.2639 161.307 41.1929 161.097 41.9621C160.862 42.7912 160.592 43.6303 160.298 44.4245C160.268 44.4545 160.268 44.4844 160.268 44.4844V44.5144C159.933 45.3136 159.578 46.0778 159.169 46.827C158.754 47.5462 158.31 48.2505 157.805 48.9397C157.571 49.2644 157.301 49.5641 157.036 49.8887C156.916 49.594 156.771 49.2944 156.622 48.9997C156.412 48.5751 156.177 48.1606 155.932 47.776C155.668 47.3215 155.368 46.9069 155.043 46.5223C154.719 46.1377 154.354 45.7731 153.974 45.4834C153.53 45.1288 153.055 44.8091 152.551 44.5644C152.046 44.3196 151.512 44.1498 150.978 44.0599C150.393 43.94 149.764 43.94 149.169 44.0299C148.22 44.1498 147.291 44.5344 146.492 45.0688C144.774 46.2026 143.49 47.9258 142.541 49.7039C141.622 51.492 140.963 53.39 140.524 55.353C140.279 56.3319 140.139 57.2809 140.019 58.2599C139.09 58.3498 138.171 58.4097 137.252 58.4397C135.624 58.4597 133.991 58.3798 132.382 58.195C130.899 58.0251 129.41 57.7804 127.957 57.4258C127.807 57.3958 127.632 57.3658 127.452 57.3059H127.422C127.213 57.246 126.978 57.246 126.768 57.3658C126.598 57.4557 126.414 57.6605 126.354 57.8703C126.294 58.0801 126.294 58.3448 126.414 58.5596C126.503 58.7594 126.708 58.9442 126.918 59.0041C127.957 59.2788 129.031 59.5086 130.1 59.6934C132.152 60.048 134.26 60.2578 136.373 60.2578H136.583C137.672 60.2578 138.775 60.1979 139.874 60.108C139.844 60.5825 139.814 61.0569 139.814 61.5314C139.814 63.5493 139.994 65.5722 140.439 67.5301C140.673 68.569 141.003 69.6129 141.388 70.6218C141.862 71.7856 142.417 72.8844 143.166 73.8934C143.76 74.7325 144.479 75.4667 145.339 76.0361C146.178 76.6005 147.127 76.9551 148.106 77.075C148.315 77.105 148.49 77.105 148.7 77.105C149.449 77.105 150.153 76.9851 150.843 76.7204C151.762 76.3957 152.591 75.8613 153.305 75.207C154.729 73.9533 155.802 72.3001 156.597 70.5719C157.071 69.563 157.466 68.4891 157.76 67.5101C158.085 66.3763 158.345 65.2275 158.53 64.0937C159.004 67.0656 161.147 69.468 162.42 72.1452C162.835 73.0043 163.399 73.7835 163.694 74.6726C163.894 75.2969 163.419 75.7714 163.005 76.156C161.491 77.085 159.683 77.1949 157.985 77.3797C157.126 77.4996 156.197 77.4396 155.428 76.9951C155.218 76.7504 155.073 76.4906 154.834 76.2459C154.479 75.8613 153.765 75.8913 153.5 76.3957C153.225 76.8403 153.47 77.4047 153.765 77.7293C154.484 78.8931 156.047 79.1828 157.301 79.1828C158.22 79.0729 159.354 79.013 160.453 78.8282C160.513 80.0219 160.283 81.2007 160.038 82.3345H160.028C159.783 84.2325 158.989 86.0206 157.915 87.474C157.885 87.534 157.855 87.5639 157.825 87.5939C157.201 87.0595 156.482 86.6749 155.623 86.7348C154.479 87.0195 153.56 88.0285 152.796 89.2571C150.523 89.8515 145.743 89.2571 142.566 86.565C142.252 86.2953 141.777 86.3352 141.513 86.6499C141.243 86.9646 141.283 87.4391 141.597 87.7038C144.345 90.0363 148.091 90.9554 150.898 90.9554C151.247 90.9554 151.582 90.9354 151.897 90.9104C151.347 92.0542 150.898 93.203 150.508 94.0471C149.649 95.9151 148.73 97.7032 148.225 99.5713C147.721 99.5713 147.276 99.836 146.802 99.8959C145.943 100.016 145.074 100.221 144.215 100.281C142.377 100.48 140.469 100.036 138.661 99.6562C136.763 99.2316 134.954 98.7272 133.196 97.958C132.367 97.5034 131.498 97.0589 130.639 96.7043C128.681 95.6954 127.043 94.2719 125.435 92.7834C124.79 92.219 124.221 91.5697 123.656 90.9154C123.182 90.381 122.647 89.6018 121.878 90.1662C121.404 90.4909 121.464 91.265 121.878 91.5897C122.273 92.0642 122.687 92.5087 123.072 92.9532C124.466 94.3767 125.979 95.7703 127.617 96.934C127.537 97.0239 127.447 97.1138 127.353 97.1788C126.079 98.3425 124.98 99.6562 123.816 100.925C121.743 103.127 119.576 105.23 117.463 107.428C115.615 109.276 113.977 111.329 112.169 113.227C111.369 112.248 110.56 111.239 109.736 110.255C107.274 107.428 104.716 104.701 102.039 102.084C99.9265 99.791 97.8487 97.4185 95.9457 94.9511C95.701 94.6564 95.4712 94.3568 95.2265 94.0621C95.2864 93.5276 95.3463 93.0232 95.4362 92.4887C95.646 91.265 94.1027 89.6617 93.9828 90.346C93.6781 91.9443 93.5083 93.5476 93.2935 95.1559C90.2318 94.177 86.9402 94.2669 83.7886 93.6425C82.1803 93.3678 80.6369 92.8933 79.0635 92.4788C77.6101 92.0342 76.0318 92.0042 74.6382 91.4099C73.3846 89.7516 72.5255 87.7837 71.5465 85.9756V85.9956ZM145.408 57.3009C144.185 57.6555 142.946 57.9153 141.782 58.1001C141.812 57.8903 141.842 57.7155 141.872 57.5057C142.052 56.4368 142.297 55.333 142.591 54.2941C142.886 53.3751 143.186 52.506 143.57 51.6469C143.835 51.0026 144.195 50.3433 144.549 49.7489C144.844 49.3044 145.144 48.8598 145.468 48.4453C145.703 48.1506 146.003 47.8509 146.268 47.5562C146.532 47.3115 146.802 47.0817 147.067 46.8669C147.311 46.7171 147.541 46.5722 147.786 46.4224C147.996 46.3125 148.171 46.2226 148.38 46.1277C148.59 46.0378 148.795 45.9779 149.005 45.9179C149.184 45.888 149.359 45.858 149.539 45.828C149.689 45.7981 149.864 45.7981 150.044 45.7981C150.223 45.828 150.398 45.828 150.578 45.858C150.758 45.888 150.933 45.9179 151.112 45.9779C151.292 46.0378 151.467 46.0977 151.617 46.1577C151.827 46.2376 152.031 46.3275 152.211 46.4524C152.421 46.5722 152.626 46.7171 152.806 46.8669C153.05 47.0467 153.25 47.2515 153.46 47.4613C153.785 47.8159 154.084 48.1805 154.379 48.5601C154.559 48.8249 154.734 49.1245 154.913 49.4192C155.208 49.9836 155.468 50.583 155.713 51.1474L155.743 51.2373L155.773 51.2973L155.763 51.2873C155.228 51.8517 154.664 52.3561 154.004 52.8656C153.265 53.46 152.491 53.9994 151.692 54.5039C150.773 55.0982 149.794 55.6027 148.785 56.0472C147.766 56.4918 146.742 56.8864 145.713 57.201C146.218 57.0612 146.118 57.0961 145.403 57.3009H145.408ZM142.941 59.6834C144.01 59.4736 145.084 59.1989 146.003 58.9342C148.116 58.3098 150.193 57.4807 152.096 56.3469L152.116 56.3569C153.66 55.4579 155.088 54.419 156.337 53.1153C156.582 54.1542 156.751 55.2281 156.871 56.1771C156.991 57.186 157.051 58.165 157.051 59.149V59.8682C157.021 61.1518 156.941 62.3955 156.727 63.6442C156.547 64.743 156.332 65.8169 156.007 66.8858C155.743 67.7449 155.443 68.584 155.088 69.4131C154.824 70.0574 154.464 70.6868 154.109 71.3111C153.815 71.7856 153.485 72.2601 153.22 72.6147C152.926 72.9694 152.626 73.304 152.301 73.6237C152.091 73.8684 151.827 74.0382 151.582 74.248C151.372 74.3979 151.137 74.5427 150.893 74.6925C150.683 74.8024 150.478 74.8923 150.268 74.9872C150.059 75.0771 149.854 75.1371 149.644 75.197C149.464 75.227 149.289 75.2569 149.11 75.2869C148.9 75.3169 148.725 75.3169 148.545 75.3169C148.395 75.2869 148.22 75.2869 148.041 75.2569C147.861 75.227 147.686 75.197 147.506 75.1371C147.326 75.1071 147.182 75.0172 147.002 74.9573C146.822 74.8773 146.617 74.7874 146.437 74.6626C146.228 74.5427 146.053 74.3979 145.843 74.248C145.633 74.0982 145.428 73.8934 145.249 73.7136C145.004 73.4489 144.774 73.1492 144.529 72.8545C144.255 72.4599 144.025 72.0753 143.78 71.6907C143.485 71.1563 143.256 70.5919 143.011 70.0225C142.736 69.2733 142.507 68.529 142.292 67.7599C142.047 66.7509 141.877 65.742 141.757 64.7281C141.607 63.5643 141.548 62.4155 141.578 61.2218C141.578 60.7772 141.607 60.3327 141.637 59.8882C142.082 59.8282 142.497 59.7683 142.941 59.6784V59.6834ZM70.9122 100.271C71.7213 98.6972 72.5804 97.1188 73.6193 95.6654L73.6293 95.6554C74.4085 95.0111 75.0828 94.3218 75.832 93.7874C76.6311 93.9372 77.5002 94.0521 78.2944 94.2918C80.4071 94.9162 82.3651 95.4256 84.5078 95.7453C86.7105 96.04 88.9631 96.2198 91.1058 96.6044C91.7501 96.6943 92.3795 96.8691 92.9739 97.1089C93.2386 97.1988 93.5083 97.2887 93.773 97.2887C93.9129 97.2887 94.0377 97.2587 94.1576 97.2287C94.6621 97.019 94.8319 96.5395 94.9568 96.035C96.6749 98.6422 98.6928 101.055 100.776 103.397C103.987 106.669 107.169 110.055 110.081 113.621C113.292 117.662 116.524 121.703 119.616 125.863C121.434 128.421 122.797 130.359 122.353 133.65C122.323 134.005 122.233 134.34 122.108 134.659C121.783 134.869 121.574 135.314 121.694 135.698C121.279 136.597 120.774 137.486 120.39 138.375C119.116 141.162 117.513 143.78 115.875 146.367C114.926 147.91 114.127 149.578 112.998 151.032C112.463 151.646 111.864 153.195 110.885 152.306C109.541 151.267 108.802 149.698 107.673 148.445C106.864 147.466 106.22 146.362 105.501 145.293C104.367 143.665 103.188 142.061 102.054 140.423C98.6279 135.613 94.6521 131.243 90.7312 126.847C86.3958 121.978 82.0953 117.098 77.8099 112.203C75.757 109.92 73.6493 107.508 71.6564 105.16C71.092 104.391 70.4027 103.677 69.8982 102.848C69.9582 101.929 70.5525 101.09 70.9072 100.261L70.9122 100.271ZM142.022 259.173C141.303 259.372 140.539 259.787 140.324 259.942C136.608 262.499 132.507 264.317 128.466 266.245C125.669 267.519 123.052 269.152 120.205 270.316C117.773 271.53 115.155 272.369 112.568 273.163C109.476 274.172 106.275 274.736 103.033 274.891C100.591 275.091 98.1234 274.681 95.7509 274.327C92.6292 273.822 89.5075 273.103 86.5107 272.064C83.9034 271.115 81.1963 270.106 78.644 269.032C77.0657 268.378 75.3724 267.993 73.884 267.134C71.097 265.651 68.4498 263.903 65.8325 262.115C64.0244 260.951 62.1864 259.822 60.4582 258.518C58.9748 257.479 57.6612 256.236 56.2377 255.137C54.6743 253.823 53.0061 252.61 51.3978 251.331C47.7716 248.744 44.1754 246.161 40.8239 243.22C39.785 242.151 38.7411 241.137 37.7922 240.008C37.0829 239.209 36.4885 238.25 35.8342 237.421C34.146 235.278 32.4178 233.14 30.9344 230.823C29.6208 228.48 28.462 226.043 27.6629 223.46C26.9536 221.582 26.3592 219.684 25.8847 217.721C25.4102 216.113 25.2704 214.46 25.0256 212.822C24.9058 212.022 24.7609 211.213 24.5811 210.419C24.4612 209.945 23.9867 209.61 23.5122 209.73C23.0377 209.85 22.7031 210.324 22.823 210.799C23.0327 211.628 23.1776 212.497 23.2975 213.326C23.742 217.981 25.3503 222.387 26.9536 226.752C27.6928 228.36 28.437 230.023 29.2961 231.572C30.8395 234.004 32.6925 236.267 34.4657 238.549C36.7582 241.811 39.5153 244.733 42.7269 247.105C46.9974 250.522 51.5776 253.549 55.7981 257.055C58.6152 259.582 61.7369 261.66 64.9185 263.653C65.0983 263.773 65.2731 263.883 65.4529 264.008C63.2502 264.217 61.0276 264.157 58.8249 264.252C56.6622 264.402 54.5195 264.527 52.3817 264.432C48.7855 264.252 45.1594 263.958 41.6231 263.333C38.5613 262.859 35.6244 261.99 32.6226 261.22C30.5398 260.686 28.5219 259.937 26.5291 259.168C24.8408 258.543 23.1426 257.854 21.5693 256.965C15.5107 253.429 10.4261 248.044 7.51914 241.631C6.33539 238.864 5.50127 235.922 4.73208 233.015C3.69318 228.975 2.59933 224.904 2.35959 220.713V220.753C2.08488 216.158 1.67031 211.553 1.76521 206.853C2.00995 200.285 3.18871 193.782 4.32251 187.309C5.42135 181.57 7.02965 175.896 8.98758 170.401C11.2802 164.927 13.8075 159.583 16.7744 154.503C18.6724 151.382 20.7252 148.35 22.803 145.353C25.0057 142.151 27.1784 138.91 29.6108 135.908C31.4189 133.95 33.1471 131.927 34.9252 129.939C36.8831 127.971 38.906 126.038 40.9838 124.17C42.4672 122.867 44.1055 121.708 45.5889 120.374C50.6086 116.069 55.6882 111.788 61.3373 108.312C63.2752 107.058 65.1133 105.695 67.1361 104.566C67.4109 104.446 67.4908 104.446 67.7305 104.386C68.0252 104.326 68.3249 104.326 68.6196 104.296C68.8543 104.661 69.184 105.045 69.5686 105.49C72.3057 108.906 75.3075 112.148 78.1845 115.439C82.4899 120.369 86.8603 125.279 91.2257 130.179C93.2136 132.432 95.1466 134.724 97.1045 137.007C99.5669 140.009 101.76 143.21 103.992 146.392C104.831 147.725 105.72 148.999 106.729 150.188C108.013 151.731 109.257 154.288 111.489 154.288C111.639 154.288 111.784 154.288 111.934 154.258C113.987 153.814 116.784 147.66 118.207 145.762C118.976 144.369 119.865 143.055 120.61 141.662C121.439 140.118 122.153 138.51 122.922 136.937C123.596 137.626 124.196 138.39 124.85 139.109C125.569 139.879 126.154 140.748 126.838 141.542C127.557 142.281 128.202 143.055 128.826 143.854C129.181 144.299 129.575 144.714 129.895 145.188C130.075 145.388 130.349 145.513 130.614 145.543C130.614 145.723 130.614 145.897 130.584 146.047C130.494 148.22 130.494 150.413 130.229 152.58C130.08 153.864 129.755 155.078 129.51 156.296C129.096 158.314 128.411 160.247 127.967 162.265C127.907 162.769 127.512 163.274 127.722 163.808C127.752 163.868 127.782 163.898 127.812 163.958C127.368 165.382 127.033 166.835 126.773 168.294C125.844 172.719 125.435 176.375 125.085 180.855C124.076 177.764 122.433 175.686 121.269 172.654C120.764 171.625 119.251 172.359 119.786 173.403C120.26 174.537 124.835 184.302 124.805 184.517C124.501 186.809 125.45 189.062 126.079 191.234C126.908 194.236 128.401 197.053 130.684 199.226C131.069 199.641 131.543 199.975 131.988 200.325C132.312 200.56 132.642 200.939 133.027 201.094C134.25 202.193 135.469 203.267 136.803 204.216C135.054 205.255 133.296 206.299 131.428 207.093C129.83 207.687 128.107 207.922 126.558 208.666C125.345 207.213 124.476 205.434 123.651 203.736C118.812 191.644 116.549 178.758 112.568 166.391C110.286 160.946 107.608 155.692 103.952 151.087C100.156 146.751 95.7809 142.561 90.8511 139.559C89.9321 139.085 87.8193 138.305 87.7294 139.914C87.7893 140.498 88.3238 140.803 88.8632 140.743C90.0569 140.953 91.0359 141.722 92.0149 142.381C95.9057 145.503 99.8216 148.774 102.943 152.695C106.235 157.061 108.822 162.05 110.935 167.1C113.662 175.456 115.51 184.132 117.947 192.533C120.29 198.886 122.643 211.758 130.484 213.061C131.848 214.485 133.516 215.619 134.585 217.282C136.723 220.578 138.621 224.02 140.314 227.546C140.319 227.556 140.324 227.566 140.324 227.566C141.488 230.183 142.377 232.95 142.821 235.767C143.89 240.492 144.245 245.332 143.77 250.152C143.56 252.05 143.081 253.928 142.546 255.766C142.102 257.16 141.827 258.324 142.012 259.183L142.022 259.173ZM173.249 239.274C172.005 240.852 170.462 242.191 168.944 243.494C166.956 245.342 165.198 247.425 163.205 249.233C161.122 251.366 158.6 252.969 156.102 254.578C154.049 255.911 151.942 257.215 149.599 257.929C148.176 258.374 146.752 258.998 145.234 259.093H145.204C143.605 259.063 143.485 259.153 143.93 257.454C144.345 256.031 144.769 254.607 145.094 253.149C145.783 250.262 145.813 247.29 145.748 244.348C145.688 240.572 144.909 236.861 144.14 233.175C143.281 229.409 141.642 225.873 139.744 222.536C138.411 220.039 137.047 217.547 135.319 215.284C134.185 213.831 132.562 212.852 131.398 211.423C133.146 211.039 134.955 211.009 136.713 210.594C139.63 210.03 142.571 209.37 145.513 209.021C145.878 208.991 146.263 208.961 146.642 208.961C148.006 208.961 149.409 209.225 150.713 209.255C151.692 209.405 152.701 209.435 153.685 209.5C154.988 209.61 156.302 209.915 157.576 210.269C158.405 210.574 159.304 210.744 160.163 210.924C160.313 211.044 160.488 211.103 160.667 211.103C160.727 211.103 160.817 211.103 160.877 211.073C162.011 211.318 163.14 211.578 164.149 212.142C168.359 214.67 170.887 219.155 172.585 223.605C174.668 228.445 176.061 234.474 173.239 239.264L173.249 239.274ZM230.633 198.607C227.717 198.222 224.685 197.748 221.833 198.667C218.237 199.765 214.965 201.938 212.053 204.251C209.346 206.513 206.943 209.101 204.296 211.413C201.894 213.556 199.536 215.749 197.164 217.916C195.416 219.585 193.568 220.918 191.759 222.491C188.283 225.189 184.782 227.896 181.091 230.298C179.318 231.367 178.094 232.256 176.615 233.35C176.645 231.007 176.231 228.625 175.637 226.377C175.282 225.044 174.717 223.8 174.183 222.516C173.474 220.788 172.76 219.04 171.751 217.467C169.733 214.285 167.001 210.964 163.285 209.92C165.657 208.786 168.01 207.667 170.357 206.503C172.65 205.444 174.932 204.431 177.135 203.212C183.164 199.94 189.167 196.584 195.076 193.112C199.651 190.435 204.047 187.374 208.652 184.881C211.773 183.183 218.336 181.075 219.795 180.691C219.975 180.661 220.15 180.691 220.299 180.81C220.834 181.285 222.582 182.798 223.241 183.398C224.1 184.197 224.939 185.006 225.704 185.8C226.028 186.125 226.358 186.519 226.683 186.869C225.499 185.705 224.185 184.282 222.377 184.756C219.285 185.675 216.578 187.493 213.731 188.917C213.167 189.212 212.568 189.481 211.973 189.776C211.823 189.866 211.678 189.956 211.499 190.021C211.054 190.201 210.844 190.8 211.054 191.214C211.439 192.024 212.238 191.719 212.832 191.364C214.086 190.77 215.265 190.121 216.488 189.496C218.097 188.637 219.66 187.688 221.388 186.999C221.953 186.724 222.487 186.405 223.116 186.375C224.005 186.165 224.63 187.234 225.169 187.708C225.614 188.153 226.028 188.627 226.443 189.102C227.422 190.255 228.461 191.384 229.505 192.518C228.221 191.864 226.827 191.479 225.404 191.449C224.545 191.359 223.766 191.659 223.001 191.954C222.282 192.163 221.578 192.318 220.919 192.608C219.405 193.252 217.917 193.677 216.493 194.476C215.989 194.706 215.514 194.921 215.04 195.245C213.911 195.984 214.685 196.729 215.959 196.194C217.183 195.69 218.431 195.295 219.705 194.941C220.899 194.546 222.018 193.982 223.271 193.717C224.22 193.392 225.019 193.092 226.058 193.272C227.512 193.547 228.905 194.111 230.129 195C231.767 195.959 233.101 197.383 233.575 199.251C232.566 199.221 231.647 198.717 230.633 198.597V198.607Z" fill="black"/>
<path d="M145.499 57.2715C145.574 57.2514 145.645 57.2263 145.72 57.2012C145.65 57.2213 145.564 57.2464 145.469 57.2715H145.499Z" fill="black"/>
<path d="M140.336 227.558C140.336 227.558 140.332 227.549 140.327 227.54C140.327 227.536 140.318 227.531 140.31 227.531C140.31 227.531 140.31 227.558 140.336 227.558Z" fill="black"/>
<path d="M277.694 110.466C299.501 123.841 371.99 164.688 371.99 164.688L426.507 18.1281L307.967 17.6836L307.733 18.5427C307.733 18.5427 287.319 81.706 277.689 110.466H277.694Z" fill="white"/>
<path d="M371.99 165.578C372.08 165.578 372.2 165.548 372.295 165.519C372.53 165.429 372.739 165.254 372.829 164.984L427.347 18.4239C427.437 18.1591 427.407 17.8595 427.257 17.5948C427.107 17.33 426.812 17.2102 426.508 17.2102L307.968 16.7656C307.583 16.7656 307.229 17.0303 307.109 17.4199L306.864 18.279C306.599 19.1381 286.371 81.737 276.831 110.172C276.711 110.557 276.861 111.001 277.215 111.211C298.783 124.462 370.836 165.039 371.541 165.464C371.691 165.553 371.835 165.583 371.985 165.583V165.573L371.99 165.578ZM425.234 19.0182L371.516 163.406C363.14 158.681 299.647 122.819 278.764 110.082C283.783 95.0829 291.51 71.373 297.189 54.0213C306.724 24.7572 308.332 19.7375 308.592 18.7885H308.622L308.682 18.5787L425.229 19.0232L425.234 19.0182Z" fill="black"/>
<path d="M383.466 46.1497C379.67 45.865 376.838 42.2588 377.153 38.0882C377.467 33.9176 380.789 30.7659 384.585 31.0356C388.381 31.3203 391.213 34.9265 390.898 39.0971C390.584 43.2677 387.262 46.4194 383.466 46.1497Z" fill="#6F479F"/>
<path d="M355.88 43.4798C352.394 43.225 349.802 39.9135 350.081 36.0776C350.366 32.2516 353.413 29.3497 356.909 29.6144C360.395 29.8692 362.988 33.1807 362.708 37.0166C362.423 40.8426 359.376 43.7445 355.88 43.4798Z" fill="#9959D9"/>
<g opacity="0.6">
<path d="M328.326 40.3897C325.364 40.1699 323.156 37.3479 323.396 34.0963C323.64 30.8447 326.233 28.3773 329.195 28.6021C332.156 28.8219 334.364 31.6439 334.124 34.8955C333.88 38.147 331.287 40.6144 328.326 40.3897Z" fill="#E1CBF1"/>
</g>
<path d="M363.253 36.9238L375.93 37.8728V38.0826L363.233 37.1336V36.9238H363.253Z" fill="black"/>
<path d="M335.657 34.8906L349.527 35.9295L349.507 36.1393L335.637 35.1004L335.657 34.8906Z" fill="black"/>
<path d="M317.027 61.3483C319.26 54.7203 320.918 49.8555 320.918 49.8555L380.93 56.6633L375.94 70.0891L317.027 61.3533V61.3483Z" fill="#E1CBF1"/>
<path d="M311.473 78.497C313.695 71.869 315.209 67.6484 315.209 67.6484L374.516 76.3243L368.637 91.8279L311.473 78.482V78.492V78.497Z" fill="#E1CBF1"/>
<path d="M306.333 94.3604C308.566 87.7324 309.635 84.6406 309.635 84.6406L366.939 98.0365L361.655 113.34L306.328 94.3604H306.333Z" fill="#E1CBF1"/>
<path d="M300.3 109.515C302.532 102.887 303.591 99.7949 303.591 99.7949L358.583 119.494L353.594 135.392L300.3 109.515Z" fill="#6F479F"/>
<path d="M94.5677 93.4115C94.9823 93.4115 95.3669 93.1168 95.4568 92.6623C95.6067 91.7433 95.6366 90.7344 95.6666 89.7854C95.7265 88.272 95.7865 86.7236 96.261 85.7746C97.0601 84.2013 98.5436 83.0075 100.272 82.6229C101.041 82.4431 101.88 82.4132 102.769 82.3782C103.124 82.3782 103.458 82.3482 103.808 82.3182C104.907 82.2583 106.515 82.0535 107.759 81.0945C111.06 78.6921 109.092 75.4455 107.789 73.3078C107.524 72.8632 107.284 72.4786 107.07 72.0841C105.876 69.8214 106.535 66.1753 108.583 63.7628C109.472 62.7239 111.35 61.0557 113.877 61.9248C117.059 62.9637 119.586 65.6109 120.505 68.8125C120.565 69.0772 120.655 69.317 120.715 69.5817C120.895 70.3009 121.07 71.0052 121.434 71.7244C122.089 72.9981 123.212 73.8372 124.376 73.8971C126.074 73.9871 127.408 72.5036 127.698 71.0202C127.992 69.5068 127.453 68.0184 127.043 67.0394C126.894 66.7147 126.749 66.415 126.599 66.1204C126.244 65.3711 125.88 64.6669 125.71 63.9476C125.205 61.8948 125.8 60.2316 127.548 58.9879C127.962 58.6932 128.052 58.1588 127.758 57.7342C127.463 57.3197 126.929 57.2298 126.504 57.5244C124.161 59.1927 123.262 61.5951 123.947 64.3822C124.191 65.3012 124.571 66.1104 124.956 66.9095C125.105 67.2042 125.25 67.5039 125.37 67.7986C125.905 68.9923 126.089 69.9114 125.905 70.6755C125.755 71.4248 125.105 72.159 124.391 72.129C123.737 72.099 123.197 71.4747 122.938 70.9353C122.673 70.4008 122.523 69.8015 122.343 69.1572C122.283 68.8924 122.194 68.5928 122.134 68.328C121.035 64.552 118.063 61.4703 114.347 60.2466C111.76 59.3875 109.112 60.2765 107.124 62.649C104.627 65.6209 103.883 70.0412 105.396 72.9332C105.641 73.3477 105.871 73.7923 106.165 74.2368C107.649 76.6992 108.448 78.3075 106.61 79.6411C105.921 80.1455 104.972 80.4103 103.578 80.5002C103.254 80.5301 102.924 80.5301 102.599 80.5601C101.68 80.5901 100.731 80.62 99.7822 80.8548C97.5496 81.3892 95.6216 82.9076 94.6127 84.9555C93.9584 86.2591 93.8935 88.0172 93.8435 89.7154C93.8135 90.6345 93.7836 91.5835 93.6337 92.3926C93.5438 92.8671 93.8785 93.3416 94.3829 93.4015C94.4729 93.3716 94.5028 93.3716 94.5627 93.3716L94.5727 93.4115H94.5677Z" fill="black"/>
<path d="M115.955 77.7232H116.369C116.874 77.6932 117.228 77.2786 117.228 76.8041C117.228 76.3296 116.814 75.945 116.309 75.945C114.766 76.005 113.492 75.5904 112.533 74.6414C110.895 73.0331 110.545 70.3909 110.575 69.2371C110.605 67.6938 111.799 65.9156 113.392 65.8207C114.281 65.7908 115.2 66.2353 115.795 67.0444C116.209 67.5789 116.484 68.2681 116.594 69.0024C116.444 69.0323 116.299 69.0323 116.149 69.0923C115.38 69.3021 114.816 69.9514 114.756 70.6656C114.636 71.8294 117.158 73.8173 117.463 74.052C117.848 74.3467 118.412 74.2968 118.717 73.8722C119.011 73.4876 118.961 72.9232 118.537 72.6185C118.092 72.2639 117.053 71.3149 116.639 70.8105C116.849 70.7505 117.143 70.7805 117.438 70.8105L118.417 70.9303V69.9214C118.417 68.408 117.972 67.0145 117.163 65.9406C116.214 64.6869 114.701 63.9827 113.272 64.0426C111.16 64.1325 108.847 66.1254 108.757 69.1822C108.727 70.7255 109.202 73.8772 111.255 75.9301C112.508 77.1538 114.072 77.7381 115.95 77.7381L115.96 77.7182L115.955 77.7232Z" fill="black"/>
</svg>
