<svg width="680" height="350" viewBox="0 0 680 350" fill="none" xmlns="http://www.w3.org/2000/svg">
<path d="M647.948 177.052C661.957 220.713 626.931 251.404 592.724 258.446C552.171 266.798 509.057 257.401 468.991 271.041C425.928 284.437 392.557 317.762 344.307 322.112C275.043 328.356 234.627 306.924 174.85 285.077C128.304 272.929 62.7048 278.11 69.3563 209.208C75.2363 148.286 161.767 145.291 208.141 114.62C254.533 83.9357 301.093 38.1359 363.26 36.764C423.709 35.4299 462.079 84.4584 509.554 112.141C555.082 135.405 621.768 124.083 647.945 177.052H647.948Z" fill="#E1CBF1"/>
<path d="M433.385 96.0077C433.951 120.764 432.84 189.619 432.84 189.619C361.982 190.489 202.643 189.89 202.643 189.89C204.096 157.617 202.831 119.513 202.965 84.8707C202.972 82.8008 206.212 79.5824 208.276 79.5824C212.438 79.5824 380.167 78.7675 427.571 78.881C434.003 78.8947 433.252 90.2621 433.385 96.0077Z" fill="#5D2B9D"/>
<path d="M289.965 225.795C289.763 225.767 289.852 225.881 289.931 225.994C289.944 225.929 289.955 225.86 289.965 225.795ZM328.824 223.463C338.044 223.322 312.782 223.096 298.413 223.106C297.594 223.106 297.556 224.337 298.375 224.378C307.821 224.866 319.461 222.731 328.77 223.463C328.787 223.463 328.807 223.463 328.824 223.463ZM433.05 190.159C433.338 190.193 433.564 190.413 433.605 190.702C434.898 200.261 433.77 220.513 431.226 221.087C407.836 226.369 363.429 223.443 344.86 223.763C344.472 223.769 344.184 224.117 344.243 224.502C344.822 228.222 346.413 244.483 350.428 248.169C351.597 249.241 355.574 249.234 359.181 249.169C360.354 249.148 361.571 252.308 359.997 252.284C340.752 251.954 315.875 252.284 295.55 252.284C289.855 252.284 265.896 254.131 275.298 249.107C275.346 249.08 275.4 249.059 275.452 249.045C279.443 248.034 286.447 250.923 287.212 244.916C287.219 244.875 287.229 244.83 287.243 244.789C290.13 236.994 289.996 227.201 289.42 224.216C289.358 223.904 289.08 223.684 288.762 223.697C280.355 224.103 222.316 224.667 210.285 224.278C210.1 224.271 202.958 219.251 202.958 219.066C202.588 187.322 201.539 190.097 202.643 189.898C202.663 189.898 422.887 188.997 433.05 190.162V190.159Z" fill="#A8A7B6"/>
<path d="M240.679 78.7748C240.593 78.7645 240.501 78.7473 240.415 78.7266C240.398 78.7232 240.381 78.7163 240.367 78.7129C240.988 78.7232 241.608 78.7301 242.229 78.737C241.828 78.737 241.427 78.7438 241.029 78.7645C240.947 78.7713 240.868 78.7782 240.785 78.7782C240.751 78.7782 240.713 78.7782 240.679 78.7748Z" fill="black"/>
<path d="M237.459 78.665C238.038 78.6754 238.614 78.6857 239.194 78.696C239.112 78.6994 239.029 78.7029 238.947 78.7063C238.779 78.6994 238.604 78.7132 238.429 78.7269C238.285 78.7372 238.141 78.751 237.997 78.751C237.812 78.751 237.63 78.7304 237.462 78.665H237.459Z" fill="black"/>
<path d="M316.398 212.068C315.936 212.006 315.473 211.855 315.041 211.68C314.149 211.312 313.405 210.679 312.84 209.906C312.558 209.52 312.315 209.094 312.154 208.644C311.969 208.131 311.866 207.588 311.838 207.045C311.811 206.467 311.914 205.886 312.096 205.339C312.298 204.727 312.593 204.153 313.011 203.661C313.803 202.74 314.866 202.08 316.059 201.839C317.208 201.609 318.442 201.743 319.508 202.231C320.496 202.681 321.308 203.489 321.812 204.452C322.114 205.026 322.316 205.649 322.412 206.292C322.505 206.928 322.457 207.588 322.313 208.214C322.179 208.795 321.942 209.362 321.61 209.857C321.315 210.298 320.952 210.676 320.526 210.992C320.242 211.202 319.923 211.37 319.601 211.511C319.484 211.563 319.364 211.608 319.241 211.645C318.85 211.824 318.435 211.945 318.013 212.027C317.694 212.086 317.369 212.12 317.046 212.12C316.827 212.12 316.611 212.106 316.395 212.075L316.398 212.068ZM317.636 210.93C317.78 210.916 317.924 210.899 318.065 210.872C318.246 210.831 318.428 210.779 318.603 210.72C318.668 210.696 318.733 210.672 318.795 210.645C318.86 210.604 318.925 210.562 318.99 210.521C319.141 210.418 319.285 210.308 319.422 210.191C319.563 210.06 319.7 209.926 319.827 209.782C319.974 209.61 320.115 209.431 320.245 209.245C320.345 209.091 320.441 208.936 320.526 208.774C320.602 208.62 320.67 208.465 320.729 208.307C320.78 208.149 320.825 207.987 320.862 207.825C320.897 207.653 320.917 207.481 320.931 207.306C320.938 207.151 320.934 206.997 320.928 206.842C320.91 206.66 320.886 206.477 320.856 206.299C320.825 206.165 320.79 206.03 320.749 205.9C320.698 205.755 320.64 205.614 320.571 205.473C320.499 205.332 320.42 205.195 320.334 205.064C320.249 204.94 320.16 204.82 320.06 204.707C319.961 204.597 319.854 204.49 319.745 204.387C319.597 204.26 319.446 204.139 319.289 204.029C319.131 203.926 318.97 203.833 318.805 203.744C318.648 203.668 318.49 203.6 318.325 203.538C318.188 203.493 318.054 203.455 317.914 203.424C317.763 203.397 317.612 203.376 317.458 203.362C317.324 203.355 317.19 203.359 317.053 203.362C316.906 203.376 316.762 203.393 316.618 203.421C316.46 203.455 316.306 203.5 316.152 203.551C316.001 203.606 315.853 203.668 315.709 203.737C315.569 203.809 315.432 203.888 315.301 203.974C315.181 204.06 315.065 204.15 314.952 204.242C314.842 204.342 314.736 204.449 314.633 204.559C314.53 204.679 314.434 204.803 314.341 204.934C314.238 205.092 314.142 205.25 314.057 205.415C313.978 205.58 313.902 205.749 313.841 205.92C313.803 206.034 313.772 206.147 313.748 206.264C313.704 206.519 313.669 206.773 313.649 207.031C313.642 207.179 313.638 207.327 313.645 207.475C313.659 207.643 313.683 207.808 313.714 207.977C313.755 208.169 313.806 208.362 313.868 208.551C313.916 208.685 313.971 208.812 314.033 208.943C314.094 209.063 314.163 209.18 314.235 209.297C314.317 209.417 314.406 209.534 314.502 209.648C314.616 209.771 314.736 209.892 314.859 210.002C314.996 210.122 315.14 210.232 315.291 210.335C315.421 210.421 315.555 210.5 315.696 210.573C315.816 210.631 315.939 210.683 316.062 210.727C316.213 210.775 316.361 210.817 316.515 210.848C316.714 210.886 316.913 210.916 317.115 210.934C317.29 210.944 317.461 210.947 317.636 210.934V210.93Z" fill="black"/>
<path d="M319.385 102.404C316.313 75.6597 325.248 100.977 335.3 92.8003C332.945 97.253 332.606 100.351 331.169 101.427C327.473 104.188 323.407 98.1023 319.385 102.407V102.404Z" fill="#FDC82E"/>
<path d="M339.634 167.088C343.865 178.744 296.026 176.863 297.027 166.806C297.538 161.652 302.338 120.053 303.857 108.8L309.679 108.951C309.98 110.464 309.253 114.356 309.432 115.934C309.432 115.934 314.403 116.495 314.701 115.577C315.463 113.252 315.682 108.518 315.682 108.518C319.296 107.493 322.08 108.566 322.08 108.566L322.419 115.384C323.376 116.677 326.355 116.371 328.505 115.336L328.779 108.459L334.539 107.864C335.636 113.287 339.72 154.142 339.637 167.088H339.634Z" fill="#E1CBF1"/>
<path d="M338.232 91.518C338.171 91.3735 337.999 91.3048 337.855 91.3632C337.673 91.4354 337.499 91.5214 337.32 91.6074C337.235 91.573 337.135 91.5592 337.025 91.573C332.424 92.3638 331.752 96.373 326.843 92.5529C324.933 91.2979 323.16 89.3311 320.699 89.4136C320.085 89.4274 319.454 89.6509 319.039 90.1185C318.679 90.0016 318.233 90.2629 318.244 90.6859C318.141 93.6326 318.323 96.5862 318.504 99.5295C318.624 101.675 318.707 103.824 318.772 105.973C318.837 106.688 318.727 107.469 318.974 108.146C319.543 108.628 319.454 107.17 319.495 106.85C319.529 106.121 319.547 105.392 319.553 104.66C319.601 101.397 319.406 98.1404 319.361 94.8807C319.358 93.8286 319.355 92.7764 319.385 91.7277C319.355 91.3564 319.509 90.9094 319.413 90.5449C320.143 90.2045 320.973 90.2561 321.717 90.5277C322.982 90.9506 323.969 91.8859 325.001 92.6973C326.304 93.6979 327.617 94.7879 329.201 95.3037C331.097 95.9191 332.815 94.9083 334.427 93.9868C333.731 94.9633 333.237 96.1048 332.942 97.2533C332.486 99.3645 332.496 100.056 330.47 101.166C327.175 102.865 325.663 99.5948 322.739 100.08C321.779 100.238 320.76 100.637 320.167 101.448C320.044 101.627 319.931 101.819 319.9 102.036C319.865 102.239 320.126 102.383 320.277 102.253C320.788 101.672 321.484 101.348 322.235 101.201C322.835 101.091 323.462 101.039 324.038 101.269C324.943 101.582 325.694 102.205 326.582 102.545C327.223 102.796 327.912 102.906 328.598 102.944C330.227 102.961 331.691 101.947 332.723 100.76C333.473 99.8114 333.511 98.5427 333.744 97.4045C333.967 96.3249 334.399 95.2899 335.006 94.3684C335.311 93.9008 335.685 93.4916 336.1 93.1272C336.473 92.9793 336.857 92.8486 337.255 92.7386C337.591 92.6423 337.715 92.3501 337.677 92.0819C337.807 92.0165 337.937 91.9546 338.071 91.8962C338.215 91.8309 338.287 91.6658 338.225 91.5145L338.232 91.518Z" fill="black"/>
<path d="M334.759 109.146C334.419 109.067 334.344 108.675 334.159 108.428C333.689 107.864 334.7 107.413 334.831 108.256C334.91 108.218 334.995 108.311 334.92 108.373C334.92 108.565 335.016 108.737 335.043 108.923C335.04 109.064 334.896 109.181 334.759 109.15V109.146Z" fill="black"/>
<path d="M340.468 166.179C339.984 147.361 337.989 128.594 335.784 109.902C335.435 107.781 335.054 106.718 332.661 107.241C325.478 107.616 328.914 110.078 327.738 115.308C327.659 115.318 327.58 115.345 327.511 115.4C326.13 115.455 324.103 116.157 322.992 115.139C322.756 112.987 323.25 111.027 322.962 108.871C322.831 107.447 321.779 107.458 321.165 107.537C311.85 107.165 315.82 108.929 313.951 115.473C312.69 115.507 311.428 115.366 310.173 115.277C310.286 113.135 310.602 110.735 310.2 108.572C309.724 107.447 307.77 108.145 306.792 108.104C305.946 108.379 303.216 107.685 303.131 108.83C300.635 126.634 298.08 144.445 296.592 162.383C291.786 179.183 326.222 175.717 335.507 173.565C338.075 172.97 337.927 172.602 339.172 171.835C341.171 170.608 340.29 168.036 340.471 166.169L340.468 166.179ZM338.805 170.594C331.598 175.329 302.829 175.91 297.7 168.256C297.58 168.077 297.532 167.86 297.546 167.647C298.773 148.292 301.698 129.075 303.789 109.813C303.823 109.493 304.104 109.266 304.427 109.287C305.805 109.38 307.149 109.308 308.524 109.246C308.846 109.232 309.124 109.476 309.144 109.799C309.264 111.842 308.352 114.118 309.1 116.026C309.165 116.195 309.312 116.315 309.487 116.363C310.896 116.762 313.348 117.034 314.637 116.508C314.719 116.473 314.795 116.422 314.85 116.349C315.731 115.235 316.159 111.219 315.916 109.466C315.875 109.156 316.08 108.871 316.382 108.809C318.052 108.462 319.91 108.599 321.614 108.62C321.707 108.62 321.796 108.644 321.875 108.689C321.912 108.709 321.954 108.723 321.995 108.733C321.895 114.912 320.284 117.828 328.067 116.408C328.211 116.38 328.348 116.305 328.434 116.188C329.839 114.283 328.578 111.309 329.095 109.112C329.38 108.101 332.02 108.448 333.408 108.431C333.7 108.427 333.954 108.63 334.008 108.916C337.746 128.948 338.637 149.733 339.066 170.095C339.069 170.295 338.976 170.487 338.808 170.597L338.805 170.594Z" fill="black"/>
<path d="M609.49 139.301C609.49 139.246 609.535 139.201 609.59 139.201C609.646 139.201 609.691 139.246 609.691 139.301C609.691 139.357 609.646 139.402 609.59 139.402C609.535 139.402 609.49 139.357 609.49 139.301Z" fill="#FDC82E"/>
<path d="M610.142 140.217C610.142 140.168 610.18 140.13 610.228 140.13C610.277 140.13 610.315 140.168 610.315 140.217C610.315 140.265 610.277 140.303 610.228 140.303C610.18 140.303 610.142 140.265 610.142 140.217Z" fill="#FDC82E"/>
<path d="M609.833 139.301C609.833 139.246 609.878 139.201 609.933 139.201C609.988 139.201 610.033 139.246 610.033 139.301C610.033 139.357 609.988 139.402 609.933 139.402C609.878 139.402 609.833 139.357 609.833 139.301Z" fill="#FDC82E"/>
<path d="M610.484 140.217C610.484 140.168 610.522 140.13 610.571 140.13C610.62 140.13 610.658 140.168 610.658 140.217C610.658 140.265 610.62 140.303 610.571 140.303C610.522 140.303 610.484 140.265 610.484 140.217Z" fill="#FDC82E"/>
<path d="M263.212 221.542C263.232 221.157 263.25 220.772 263.263 220.39C263.267 220.266 263.27 220.142 263.274 220.019C263.671 220.043 264.062 220.067 264.45 220.087C264.48 220.6 264.511 221.112 264.549 221.621C264.103 221.597 263.658 221.569 263.212 221.542Z" fill="black"/>
<path d="M257.52 221.195C257.533 220.682 257.544 220.17 257.55 219.661C259.018 219.757 260.434 219.847 261.788 219.929C261.73 220.438 261.665 220.944 261.593 221.449C260.235 221.367 258.877 221.284 257.52 221.198V221.195Z" fill="black"/>
<path d="M250.564 220.727V220.685C250.564 220.18 250.54 219.674 250.516 219.169C252.343 219.303 254.116 219.427 255.816 219.544C255.782 220.056 255.744 220.568 255.703 221.077C253.989 220.964 252.274 220.85 250.564 220.73V220.727Z" fill="black"/>
<path d="M243.988 220.241C243.93 219.712 243.871 219.186 243.816 218.656C245.551 218.794 247.245 218.924 248.894 219.048C248.88 219.543 248.867 220.042 248.85 220.537C248.85 220.561 248.85 220.582 248.846 220.606C247.224 220.489 245.606 220.369 243.988 220.241Z" fill="black"/>
<path d="M238.488 219.798C238.536 219.431 238.574 219.063 238.587 218.691C238.594 218.537 238.598 218.378 238.601 218.224C239.804 218.327 240.994 218.426 242.163 218.523C242.174 219.049 242.187 219.575 242.201 220.101C240.96 220.001 239.722 219.902 238.484 219.798H238.488Z" fill="black"/>
<path d="M184.011 213.296C168.764 210.731 153.445 207.767 139.282 202.602C139.159 202.014 139.09 201.416 139.021 200.821C162.397 210.002 205.148 215.335 237.483 218.13C237.442 218.656 237.353 219.179 237.24 219.695C219.38 218.178 201.607 216.122 184.008 213.296H184.011Z" fill="black"/>
<path d="M138.277 202.232C137.684 202.005 137.071 201.761 136.447 201.503C136.392 201.087 136.337 200.671 136.282 200.255C136.255 200.052 136.227 199.849 136.196 199.649C136.879 199.949 137.581 200.244 138.305 200.533C138.349 201.087 138.401 201.644 138.469 202.197C138.473 202.235 138.48 202.269 138.483 202.307C138.415 202.283 138.346 202.256 138.277 202.232Z" fill="black"/>
<path d="M134.081 200.492C134.005 199.966 133.94 199.436 133.879 198.907C133.865 198.79 133.855 198.673 133.841 198.56C134.413 198.838 135.007 199.117 135.617 199.388C135.617 199.402 135.617 199.416 135.617 199.429C135.641 199.839 135.658 200.244 135.672 200.65C135.679 200.829 135.682 201.008 135.685 201.183C135.154 200.96 134.619 200.729 134.077 200.485L134.081 200.492Z" fill="black"/>
<path d="M131.373 199.202C131.28 198.686 131.184 198.17 131.071 197.658C131.027 197.448 130.979 197.239 130.931 197.025C131.51 197.359 132.117 197.686 132.744 198.009C132.762 198.463 132.768 198.917 132.768 199.37C132.768 199.542 132.768 199.714 132.768 199.886C132.302 199.666 131.836 199.436 131.373 199.202Z" fill="black"/>
<path d="M129.048 197.936C129.014 197.242 128.98 196.547 128.952 195.853C128.956 195.842 128.959 195.829 128.962 195.818C129.336 196.066 129.727 196.31 130.125 196.551C130.152 196.771 130.176 196.994 130.2 197.218C130.231 197.672 130.262 198.119 130.279 198.576C130.279 198.593 130.279 198.614 130.279 198.631C129.864 198.404 129.449 198.174 129.045 197.936H129.048Z" fill="black"/>
<path d="M163.811 166.592C164.167 166.52 164.52 166.448 164.87 166.379C164.87 166.785 164.846 167.19 164.825 167.596C164.524 167.665 164.212 167.741 163.883 167.816C163.859 167.407 163.838 166.998 163.811 166.589V166.592Z" fill="black"/>
<path d="M165.953 166.98C165.916 166.716 165.878 166.451 165.837 166.189C166.272 166.107 166.704 166.024 167.129 165.945C167.119 166.327 167.109 166.709 167.088 167.09C166.725 167.169 166.361 167.248 165.998 167.328C165.984 167.211 165.971 167.094 165.953 166.98Z" fill="black"/>
<path d="M167.935 166.816C167.935 166.833 167.942 166.85 167.945 166.871L167.932 166.806C167.932 166.806 167.932 166.806 167.932 166.809C167.877 166.482 167.829 166.156 167.771 165.826C168.422 165.705 169.06 165.592 169.684 165.485C169.684 165.826 169.677 166.166 169.673 166.507C169.101 166.637 168.525 166.768 167.949 166.899L167.932 166.813L167.935 166.816Z" fill="black"/>
<path d="M170.246 165.918C170.229 165.743 170.219 165.571 170.212 165.392C187.725 162.762 185.527 162.913 170.291 166.365C170.277 166.217 170.263 166.066 170.246 165.918Z" fill="black"/>
<path d="M274.55 220.837C274.55 220.837 274.546 220.83 274.543 220.823C274.553 220.837 274.56 220.855 274.571 220.869C274.564 220.858 274.557 220.848 274.55 220.834V220.837Z" fill="black"/>
<path d="M274.468 220.699C274.481 220.723 274.495 220.744 274.505 220.764C274.492 220.744 274.481 220.723 274.468 220.699Z" fill="black"/>
<path d="M461.39 217.068C461.342 216.552 460.989 216.061 460.516 215.848C462.346 215.638 464.177 215.425 466.008 215.201C466.029 215.414 466.046 215.628 466.056 215.841C466.07 216.13 466.066 216.418 466.063 216.707C466.063 216.735 466.063 216.759 466.06 216.786C464.506 216.975 462.95 217.158 461.393 217.333C461.4 217.247 461.4 217.158 461.393 217.068H461.39Z" fill="black"/>
<path d="M468.075 216.49C468.051 216.139 468.014 215.796 467.966 215.448C467.942 215.287 467.911 215.129 467.88 214.967C469.831 214.723 471.778 214.472 473.726 214.207C473.702 214.451 473.684 214.692 473.667 214.936C473.647 215.232 473.626 215.524 473.606 215.82C471.768 216.067 469.923 216.304 468.082 216.535C468.082 216.518 468.082 216.504 468.079 216.487L468.075 216.49Z" fill="black"/>
<path d="M475.039 214.741C475.032 214.507 475.029 214.269 475.025 214.036C476.959 213.771 478.889 213.496 480.816 213.214C480.809 213.345 480.806 213.475 480.799 213.602C480.779 214.012 480.751 214.417 480.731 214.823C478.852 215.098 476.973 215.366 475.087 215.624C475.07 215.329 475.053 215.036 475.039 214.741Z" fill="black"/>
<path d="M482.472 212.966C484.923 212.598 487.368 212.213 489.809 211.814C489.823 211.983 489.836 212.155 489.847 212.323V212.275C489.864 212.647 489.881 213.018 489.898 213.389C487.474 213.792 485.043 214.177 482.609 214.541C482.554 214.015 482.509 213.492 482.475 212.963L482.472 212.966Z" fill="black"/>
<path d="M491.112 211.597C495.487 210.868 499.848 210.084 504.188 209.238C515.006 207.052 525.675 204.535 535.7 200.711C539.41 199.264 543.116 197.562 546.209 195.478C563.918 183.351 534.055 173.981 521.695 170.683C506.355 166.705 490.622 163.913 474.72 161.788C474.72 161.737 474.72 161.688 474.72 161.637C474.72 161.53 474.706 161.42 474.699 161.314C474.686 161.135 474.668 160.953 474.634 160.777C474.61 160.64 474.586 160.499 474.552 160.361C474.538 160.313 474.524 160.265 474.511 160.217C484.721 161.585 494.873 163.212 504.919 165.196C515.839 167.41 526.728 169.985 536.852 173.895C547.059 177.777 560.174 185.434 550.104 194.629C547.166 197.238 543.415 199.209 539.534 200.89C532.334 203.974 524.571 206.171 516.744 208.087C508.347 210.036 499.862 211.707 491.311 213.151C491.252 212.632 491.187 212.113 491.115 211.597H491.112Z" fill="black"/>
<path d="M469.879 161.16C469.855 160.64 469.838 160.114 469.779 159.599C471.178 159.76 472.622 159.984 473.983 160.145C474.062 160.317 474.096 160.506 474.123 160.692C474.123 160.682 474.123 160.671 474.12 160.661C474.144 160.847 474.164 161.032 474.175 161.222V161.187C474.175 161.294 474.175 161.4 474.175 161.51C474.175 161.5 474.175 161.49 474.175 161.476C474.175 161.555 474.175 161.634 474.171 161.713C472.742 161.524 471.312 161.338 469.882 161.16H469.879Z" fill="black"/>
<path d="M466.193 160.709C466.152 160.186 466.114 159.663 466.069 159.141C466.992 159.251 467.914 159.364 468.833 159.481C468.846 159.993 468.809 160.509 468.754 161.021C467.9 160.915 467.046 160.812 466.189 160.709H466.193Z" fill="black"/>
<path d="M461.153 160.127C461.126 159.605 461.105 159.082 461.088 158.56C462.356 158.704 463.625 158.852 464.894 159C464.883 159.515 464.87 160.035 464.842 160.55C463.615 160.406 462.384 160.265 461.153 160.127Z" fill="black"/>
<path d="M455.9 159.557C455.794 159.007 455.626 158.471 455.444 157.941C456.977 158.103 458.513 158.271 460.045 158.443C460.001 158.959 459.956 159.475 459.919 159.991C458.581 159.843 457.241 159.698 455.9 159.557Z" fill="black"/>
<path d="M450.703 159.027C450.682 158.505 450.675 157.979 450.703 157.456C451.79 157.566 452.873 157.676 453.956 157.79C454.083 158.316 454.186 158.852 454.251 159.388C453.068 159.265 451.886 159.148 450.699 159.031L450.703 159.027Z" fill="black"/>
<path d="M443.482 158.337C443.489 157.817 443.63 157.274 443.513 156.762C445.505 156.947 447.494 157.137 449.486 157.332C449.373 157.841 449.318 158.364 449.284 158.887C447.35 158.698 445.416 158.515 443.482 158.337Z" fill="black"/>
<path d="M313.704 136.417C313.814 136.076 313.913 135.733 314.009 135.392C314.016 135.365 314.023 135.337 314.03 135.31C332.136 135.451 350.246 135.069 368.314 134.161C392.952 132.827 417.724 130.713 441.689 126.053C449.482 124.479 457.173 122.667 464.397 119.909C467.071 118.867 469.742 117.64 471.97 116.137C484.732 107.4 463.21 100.647 454.306 98.271C450.892 97.3873 447.446 96.5827 443.98 95.8469C443.98 95.5994 443.966 95.3552 443.942 95.1077C443.928 94.9598 443.908 94.8085 443.884 94.6572C451.19 96.177 458.448 97.965 465.226 100.585C472.584 103.381 482.033 108.899 474.775 115.528C472.656 117.409 469.958 118.829 467.16 120.04C461.973 122.261 456.377 123.846 450.737 125.228C424.262 131.373 396.573 133.673 369.093 135.237C353.27 136.056 337.409 136.455 321.549 136.455C318.933 136.455 316.32 136.444 313.704 136.424V136.417Z" fill="black"/>
<path d="M310.1 136.378C309.922 136 309.72 135.629 309.511 135.261C309.812 135.264 310.114 135.268 310.412 135.271C310.347 135.512 310.279 135.752 310.214 135.993C310.179 136.12 310.142 136.251 310.107 136.378C310.107 136.378 310.104 136.378 310.1 136.378Z" fill="black"/>
<path d="M260.955 133.356C259.824 133.277 258.655 133.191 257.451 133.102C257.485 133.476 257.509 133.855 257.53 134.229C258.624 134.308 259.714 134.388 260.808 134.46C260.815 134.394 260.825 134.333 260.832 134.267C260.825 134.315 260.818 134.36 260.815 134.408C260.859 134.057 260.907 133.707 260.955 133.356Z" fill="black"/>
<path d="M254.317 132.858C254.328 133.236 254.335 133.614 254.341 133.993C255.044 134.048 255.744 134.099 256.447 134.151C256.453 133.776 256.453 133.401 256.447 133.023C255.747 132.968 255.037 132.913 254.317 132.854V132.858Z" fill="black"/>
<path d="M249.997 133.642C251.084 133.734 252.171 133.82 253.258 133.906C253.275 133.631 253.289 133.356 253.303 133.081C253.306 132.981 253.313 132.878 253.316 132.779C252.199 132.689 251.06 132.593 249.901 132.493C249.936 132.875 249.966 133.26 249.997 133.642Z" fill="black"/>
<path d="M248.633 132.384C247.501 132.284 246.353 132.181 245.19 132.074C245.19 132.459 245.19 132.841 245.19 133.226C246.339 133.333 247.488 133.432 248.636 133.532C248.636 133.216 248.636 132.903 248.633 132.59C248.633 132.521 248.633 132.456 248.629 132.387L248.633 132.384Z" fill="black"/>
<path d="M240.885 132.809C241.708 132.892 242.531 132.971 243.357 133.05C243.36 132.871 243.367 132.692 243.371 132.513C243.378 132.311 243.381 132.104 243.388 131.901C242.541 131.819 241.687 131.736 240.83 131.65C240.851 132.035 240.871 132.424 240.885 132.809Z" fill="black"/>
<path d="M238.114 132.528C238.557 132.572 238.995 132.621 239.438 132.665C239.438 132.61 239.445 132.555 239.448 132.497C239.465 132.17 239.479 131.843 239.493 131.517C239.098 131.476 238.701 131.438 238.306 131.396C238.245 131.775 238.179 132.153 238.114 132.531V132.528Z" fill="black"/>
<path d="M167.643 113.146C161.986 104.027 189.414 97.8583 197.736 95.9053C199.381 95.5546 201.017 95.1729 202.652 94.7947C202.669 94.5918 202.69 94.3855 202.707 94.1826C191.197 96.0015 170.458 100.898 166.189 108.077C162.774 114.253 171.894 118.647 178.004 121.006C188.413 124.895 199.714 127.085 210.963 128.979C219.308 130.32 227.712 131.421 236.149 132.328C236.228 131.954 236.304 131.575 236.379 131.201C207.905 128.161 174.792 122.594 167.643 113.152V113.146Z" fill="black"/>
<path d="M207.052 93.6182C207.1 93.67 207.148 93.7184 207.2 93.7703C207.162 93.7772 207.124 93.7876 207.086 93.7945C207.076 93.7357 207.062 93.6769 207.052 93.6182Z" fill="black"/>
<path d="M293.798 307.932C269.095 307.08 244.368 305.718 219.809 303.376C219.377 303.335 219.038 302.991 218.996 302.561C218.979 302.379 218.952 302.187 218.914 302.008C218.856 301.75 219.065 301.513 219.326 301.537C239.486 303.483 257.266 304.6 267.737 305.099C299.146 306.701 361.961 306.839 362.119 306.835C362.276 306.832 362.575 307.496 362.3 307.881C362.026 308.266 349.313 308.706 341.99 308.706C325.92 308.706 309.854 308.441 293.794 307.929L293.798 307.932Z" fill="black"/>
<path d="M193.015 299.202C193.015 299.202 193.015 299.185 193.015 299.178C193.015 299.178 193.015 299.175 193.015 299.171C193.015 299.161 193.015 299.147 193.015 299.137C193.015 299.161 193.011 299.185 193.008 299.209V299.202H193.015Z" fill="black"/>
<path d="M193.025 299.095C193.025 299.095 193.025 299.067 193.028 299.054C193.028 299.074 193.025 299.098 193.021 299.118C193.021 299.112 193.021 299.105 193.021 299.095H193.025Z" fill="black"/>
<path d="M160.042 295.358C160.429 294.849 160.813 294.34 161.197 293.831C161.664 293.914 162.127 294 162.596 294.082C162.586 294.116 162.576 294.147 162.569 294.182C162.415 294.698 162.26 295.217 162.106 295.733C161.417 295.609 160.731 295.485 160.045 295.361L160.042 295.358Z" fill="black"/>
<path d="M154.738 294.357C154.896 293.807 155.043 293.257 155.191 292.707C156.36 292.934 157.543 293.161 158.733 293.381C158.362 293.89 157.992 294.402 157.622 294.911C156.658 294.729 155.698 294.547 154.738 294.361V294.357Z" fill="black"/>
<path d="M149.523 293.305C149.674 293.006 149.835 292.713 150.007 292.424C150.147 292.194 150.291 291.971 150.442 291.747C151.663 292.002 152.894 292.253 154.138 292.497C153.97 293.043 153.802 293.594 153.617 294.137C152.249 293.865 150.888 293.59 149.527 293.305H149.523Z" fill="black"/>
<path d="M118.584 284.668C64.91 263.628 137.692 246.113 161.414 242.286C165.744 241.588 168.175 241.007 168.772 241.361C117.422 250.27 57.5146 271.423 149.939 291.641C149.627 292.15 149.318 292.662 149.064 293.205C138.614 291.001 128.345 288.313 118.584 284.664V284.668Z" fill="black"/>
<path d="M381.154 306.935C381.181 306.773 381.205 306.608 381.233 306.446C382.481 306.412 383.725 306.378 384.973 306.34C384.747 306.938 384.493 307.523 384.219 308.1C383.132 308.131 382.049 308.162 380.962 308.19C381.024 307.77 381.089 307.354 381.157 306.935H381.154Z" fill="black"/>
<path d="M390.775 307.777C390.724 307.516 390.672 307.255 390.621 306.99C390.587 306.821 390.713 306.663 390.885 306.656C393.069 306.584 395.249 306.505 397.433 306.419C397.639 306.412 397.783 306.622 397.701 306.808C397.523 307.217 397.334 307.619 397.139 308.018C397.094 308.111 397.001 308.169 396.899 308.176C395.321 308.235 392.311 308.231 391.238 308.176C391.012 308.166 390.823 307.997 390.779 307.774L390.775 307.777Z" fill="black"/>
<path d="M405.093 306.543C404.993 306.309 404.921 306.058 404.839 305.814C404.815 305.749 404.795 305.683 404.771 305.615C408.103 305.47 411.436 305.316 414.765 305.147C415.344 305.116 415.92 305.085 416.5 305.051C416.184 305.653 415.862 306.254 415.516 306.839C412.152 307.011 408.785 307.172 405.422 307.32C405.312 307.059 405.203 306.801 405.093 306.54V306.543Z" fill="black"/>
<path d="M422.099 304.738C454.536 302.843 518.568 294.261 522.741 293.694C522.854 293.68 522.95 293.769 522.947 293.883C522.923 294.347 522.878 294.808 522.823 295.269C522.809 295.379 522.724 295.468 522.614 295.489C489.964 301.533 456.384 304.404 422.932 306.413C422.64 305.862 422.369 305.302 422.099 304.738Z" fill="black"/>
<path d="M529.429 293.108C529.357 292.899 529.292 292.686 529.224 292.476C531.37 292.043 533.513 291.596 535.649 291.128C535.515 291.413 535.361 291.692 535.213 291.97C535.028 292.29 534.84 292.6 534.63 292.899C534.569 292.981 534.504 293.06 534.439 293.143C532.889 293.469 531.339 293.789 529.786 294.102C529.662 293.772 529.543 293.445 529.429 293.108Z" fill="black"/>
<path d="M539.228 291.74C539.215 291.314 539.228 290.887 539.239 290.461C539.246 290.416 539.249 290.372 539.256 290.327C541.251 289.87 543.24 289.392 545.218 288.89C545.009 289.264 544.793 289.636 544.56 289.993C544.31 290.354 544.046 290.709 543.758 291.046C543.751 291.052 543.744 291.063 543.737 291.07C543.507 291.128 543.274 291.183 543.044 291.242C541.786 291.534 540.528 291.819 539.266 292.101C539.252 291.981 539.242 291.864 539.232 291.744L539.228 291.74Z" fill="black"/>
<path d="M549.199 288.216C549.199 288.216 549.199 288.23 549.199 288.237C549.199 288.106 549.199 287.975 549.188 287.845C551.438 287.229 553.67 286.579 555.881 285.885C555.305 286.559 554.736 287.236 554.163 287.91C554.016 288.075 553.868 288.24 553.721 288.402C552.23 288.838 550.724 289.258 549.216 289.66C549.188 289.179 549.192 288.697 549.195 288.216H549.199Z" fill="black"/>
<path d="M562.042 285.225C561.987 285.056 561.932 284.891 561.857 284.73C561.785 284.571 561.695 284.424 561.606 284.276C561.551 284.19 561.486 284.111 561.411 284.035C562.378 283.691 563.341 283.334 564.301 282.969C568.463 281.346 572.619 279.438 576.089 277.1C595.95 263.497 562.457 252.989 548.598 249.29C536.242 246.085 523.655 243.565 510.935 241.515C510.935 241.512 510.929 241.505 510.929 241.502C510.87 241.113 510.829 240.721 510.839 240.329C510.839 240.315 510.843 240.298 510.846 240.284C510.85 240.271 510.853 240.257 510.86 240.243C510.884 240.192 510.911 240.14 510.939 240.088C510.946 240.082 510.949 240.075 510.953 240.068C510.97 240.047 510.99 240.03 511.007 240.013C511.079 239.951 511.151 239.889 511.223 239.827C517.439 240.821 523.631 241.918 529.782 243.135C542.029 245.617 554.242 248.506 565.597 252.89C577.045 257.243 591.75 265.832 580.457 276.144C577.158 279.07 572.955 281.281 568.604 283.168C566.499 284.069 564.349 284.905 562.165 285.685C562.131 285.531 562.093 285.376 562.045 285.225H562.042Z" fill="black"/>
<path d="M194.437 312.309C197.389 308.462 198.576 301.293 194.3 298.047C191.924 298.243 194.64 300.939 194.681 302.176C196.597 309.057 189.86 316.752 182.784 315.37C181.467 315.122 181.097 317.189 182.424 317.412C186.987 318.31 191.736 315.989 194.437 312.309Z" fill="black"/>
<path d="M196.663 318.856C197.219 318.309 197.603 317.594 198.083 316.982C200.404 312.794 202.619 308.062 202.194 303.149C202.132 296.705 196.211 290.416 189.851 294.398C185.671 297.359 188.328 302.75 187.89 306.869C184.55 314.822 176.544 302.836 177.871 298.18C178.269 288.254 187.989 281.786 197.359 283.914C203.874 285.744 209.03 291.197 211.135 297.551C211.903 298.913 211.094 302.767 212.76 302.908C213.323 302.929 213.816 302.475 213.834 301.911C213.542 287.999 197.836 276.573 184.986 283.581C178.612 286.693 175.204 294.034 175.828 300.945C176.764 305.487 179.819 311.212 184.948 311.549C194.253 310.229 187.08 300.993 190.557 296.526C197.366 291.658 201.419 301.471 199.938 307.141C199.238 310.008 197.987 312.68 196.752 315.341C196.056 316.218 194.003 319.983 196.667 318.862L196.663 318.856Z" fill="black"/>
<path d="M212.892 301.939C212.854 301.887 212.782 301.873 212.73 301.911C212.678 301.949 212.664 302.022 212.702 302.074C212.74 302.126 212.813 302.14 212.865 302.101C212.916 302.063 212.93 301.991 212.892 301.939Z" fill="black"/>
<path d="M206.616 311.718C213.538 300.423 200.66 279.837 187.409 288.048C182.03 291.837 180.11 300.309 182.736 306.141C184.992 306.945 184.104 304.184 183.888 302.991C183.682 301.499 183.648 299.986 183.823 298.487C185.54 284.843 200.194 285.555 204.85 297.06C206.372 300.584 206.825 304.604 205.91 308.348C205.543 309.466 204.233 313.42 206.616 311.714V311.718Z" fill="black"/>
<path d="M207.473 281.39C205.114 277.24 199.035 276.195 194.568 275.975C182.763 275.748 170.685 285.004 170.095 297.259C170.067 297.823 170.524 298.314 171.086 298.338C172.882 298.129 171.981 295.502 172.594 294.264C175.783 280.916 192.837 273.908 204.597 280.668C204.559 280.648 204.586 280.661 204.497 280.617C205.33 280.875 206.849 282.559 207.477 281.39H207.473Z" fill="black"/>
<path d="M195.501 271.523C192.995 269.15 188.541 269.993 185.383 270.481C178.526 272.032 172.05 276.9 169.9 283.784C169.499 285.06 171.487 285.693 171.875 284.4C174.021 277.636 180.714 273.197 187.485 272.183C189.062 271.426 195.758 273.018 195.501 271.526V271.523Z" fill="black"/>
<path d="M189.004 266.685C189.618 264.447 183.216 265.636 181.986 266.015C177.676 267.246 173.448 269.474 170.527 272.95C169.896 273.868 168.309 275.628 169.77 276.467C170.572 276.815 171.148 276.134 171.364 275.422C175.122 269.539 182.572 267.582 189.004 266.685Z" fill="black"/>
<path d="M402.67 50.0845C402.646 50.0498 402.601 50.0428 402.566 50.0671C402.531 50.0914 402.524 50.1365 402.549 50.1712C402.573 50.2059 402.618 50.2128 402.653 50.1885C402.687 50.1643 402.694 50.1192 402.67 50.0845Z" fill="black"/>
<path d="M392.53 50.9678C392.557 50.06 391.121 46.2365 390.181 48.1001C391.748 50.8199 391.584 54.3065 389.263 56.5965C387.802 58.1369 385.59 59.0756 383.468 58.6458C382.632 58.4876 382.392 59.8079 383.239 59.9489C388.272 60.9357 393.147 55.9741 392.53 50.9643V50.9678Z" fill="black"/>
<path d="M403.251 49.3657C402.675 42.9358 396.768 36.8739 390.199 36.9839C383.043 37.1008 377.084 44.1805 379.519 51.1983C380.458 54.5302 385.193 58.591 387.709 54.4408C389.101 51.6969 385.639 46.106 390.487 45.831C394.913 46.0476 395.184 52.168 393.816 55.3382C393.229 57.1915 391.995 58.8041 391.45 60.6265C391.94 61.8024 392.866 60.1726 393.223 59.6741C400.79 47.8149 390.123 39.7862 386.578 47.3473C385.769 49.6854 388.001 52.8488 385.81 54.6093C383.043 55.7714 381.205 52.0855 380.472 49.9364C380.016 47.8631 380.564 45.635 381.315 43.6957C384.919 36.8842 394.56 36.7466 399.02 42.7433C400.707 44.7822 401.941 47.3232 401.948 50.0121C402.199 51.3806 403.656 50.4763 403.248 49.3622L403.251 49.3657Z" fill="black"/>
<path d="M398.664 46.254C393.209 34.4258 379.351 41.282 383.434 52.7629C385.368 53.2271 383.794 50.3217 384.055 49.3211C383.582 44.3147 388.536 39.219 393.398 42.1898C397.423 44.5038 399.281 49.7337 398.215 54.1727C398.156 54.9463 397.186 56.2082 398.143 56.5968C400.868 54.4306 399.878 49.1526 398.66 46.2506L398.664 46.254Z" fill="black"/>
<path d="M381.528 38.1737C385.902 34.584 392.406 33.7141 397.378 36.5164C397.354 36.5027 397.371 36.513 397.313 36.482C402.305 39.1262 396.764 33.0574 390.98 33.5216C383.451 33.3771 375.747 39.2809 375.37 47.0965C375.353 47.4575 375.644 47.7704 376.001 47.7876C377.146 47.6535 376.573 45.979 376.964 45.1881C377.626 42.3927 379.32 39.9617 381.524 38.1737H381.528Z" fill="black"/>
<path d="M375.683 39.3295C376.769 39.5186 376.653 37.8991 377.177 37.2802C377.911 35.9289 378.851 34.8698 380.009 33.9139C382.903 31.5552 386.743 30.5924 390.412 31.0807C390.799 31.1151 391.601 31.2767 391.574 30.6784C387.432 28.0583 381.257 30.7437 378.014 33.9449C377.167 34.9042 374.229 38.322 375.679 39.3295H375.683Z" fill="black"/>
<path d="M376.036 33.4973C378.216 29.4675 383.273 28.1987 387.432 27.597C387.847 27.0021 386.805 26.8749 386.414 26.8061C383.085 26.5826 379.787 28.0921 377.181 30.0795C376.344 30.9116 373.961 32.6549 375.161 33.8377C375.48 33.9787 375.902 33.8377 376.032 33.5008L376.036 33.4973Z" fill="black"/>
<path d="M581.887 180.239C582.699 192.167 556.447 182.529 553.052 176.443C550.947 173.999 554.595 167.287 557.935 169.855C563.019 164.371 574.824 160.438 573.517 172.039C573.291 173.057 572.821 174.401 574.357 174.487C578.053 173.703 581.242 176.333 581.887 180.239Z" fill="#F5EBFD"/>
<path d="M519.271 134.315C518.105 140.308 499.337 147.395 497.211 146.023C494.65 144.369 493.162 137.571 491.348 127.93C490.399 122.889 506.702 118.78 512.571 118.296C515.979 118.017 519.998 130.588 519.274 134.315H519.271Z" fill="#FDC82E"/>
<path d="M300.469 130.45C303.216 130.856 305.845 135.639 303.867 139.493C302.235 142.677 277.471 140.979 276.322 138.634C272.801 135.488 273.387 129.415 280.587 129.942C282.319 127.504 283.834 120.015 289.82 121.129C298.563 122.243 294.788 131.066 300.469 130.45Z" fill="#FDC82E"/>
<path d="M153.405 174.589C155.345 177.749 153.13 184.743 151.533 188.422C147.631 195.684 135.987 185.984 132.771 183.533C129.093 181.157 134.52 171.746 135.888 168.098C135.552 165.956 152.685 172.485 153.405 174.593V174.589Z" fill="white"/>
<path d="M508.083 133.703C510.243 131.424 508.659 127.693 505.388 128.044C501.631 128.446 501.195 134.002 504.665 134.738C504.267 139.064 510.36 137.207 508.083 133.703Z" fill="black"/>
<path d="M518.029 124.448C517.165 121.411 515.67 116.078 511.601 116.917C506.393 117.34 501.301 119.658 496.35 121.363C494.972 116.058 492.754 110.873 491.962 105.447C491.345 101.207 493.604 96.9779 497.561 95.355C499.059 94.7395 500.681 94.8255 502.234 95.1831C502.385 95.2175 502.536 95.2622 502.68 95.3206C505.608 96.4519 507.003 99.3539 508.08 102.108C508.721 103.243 508.491 105.89 510.339 105.591C510.942 105.426 511.313 104.776 511.145 104.171C509.173 90.9607 493.899 87.4707 489.809 100.612C488.718 104.113 492.668 117.364 494.245 122.223C489.377 124.506 489.133 127.367 490.889 133.745C492.26 138.727 492.264 146.319 496.906 147.371C501.438 147.984 505.501 145.212 509.533 143.565C521.098 138.679 522.63 136.705 518.026 124.451L518.029 124.448ZM511.659 139.92C508.124 141.11 497.544 148.902 495.552 142.723C494.533 139.57 492.661 134.247 492.274 130.131C492.037 127.635 493.405 125.238 495.658 124.152C499.58 122.261 504.222 121.752 508.158 119.871C514.354 117.192 515.019 122.849 516.596 127.332C519.078 134.144 519.171 137.531 511.662 139.924L511.659 139.92Z" fill="black"/>
<path d="M488.205 113.991C487.084 113.516 485.071 101.176 487.783 103.345C488.081 106.543 489.041 109.665 489.761 112.794C490.032 113.692 488.963 114.479 488.208 113.991H488.205Z" fill="black"/>
<path d="M496.279 154.668C492.161 154.3 489.037 151.374 488.245 147.327C487.92 145.567 487.553 143.665 488.095 141.915C488.204 141.643 488.612 141.64 488.719 141.915C488.969 142.637 488.976 143.431 489.229 144.157C489.555 145.147 489.795 146.161 490.124 147.148C490.848 148.995 492.027 150.827 493.882 151.673C494.773 152.12 495.768 152.244 496.717 152.519C497.962 152.887 497.647 154.675 496.429 154.675C496.381 154.675 496.33 154.675 496.275 154.665L496.279 154.668Z" fill="black"/>
<path d="M489.377 156.645C488.612 156.411 487.958 155.954 487.351 155.445C486.353 154.671 485.441 153.75 484.988 152.55C484.632 151.59 484.148 150.507 484.385 149.479C484.584 148.967 485.321 148.878 485.643 149.318C486.164 150.284 486.459 151.388 487.083 152.309C487.868 153.282 488.938 154.111 490.087 154.599C491.208 155.063 490.752 156.693 489.696 156.693C489.596 156.693 489.49 156.679 489.38 156.645H489.377Z" fill="black"/>
<path d="M142.525 175.914C141.017 175.814 140.046 176.409 139.56 177.932C139.258 178.881 139.59 179.958 140.245 180.704C140.142 180.841 140.064 180.996 140.036 181.171C139.824 181.598 139.721 182.093 139.92 182.547C140.194 183.214 140.856 183.75 141.582 183.75C141.668 183.75 141.754 183.743 141.84 183.726C142.875 183.509 143.276 182.485 143.142 181.574C146.077 180.951 145.8 176.127 142.529 175.911L142.525 175.914Z" fill="black"/>
<path d="M151.941 171.003C153.291 166.888 154.272 162.645 155.115 158.381C155.698 156.572 156.312 154.592 155.702 152.708C153.233 144.809 142.032 142.843 139.121 151.631C138.463 152.928 138.072 154.334 137.654 155.72C137.51 156.232 137.825 156.782 138.336 156.92C139.893 157.171 139.707 154.936 140.246 153.973C141.178 151.587 142.389 148.801 144.994 147.907C148.985 146.845 153.627 150.325 154.111 154.351C153.895 159.846 151.536 164.99 150.165 170.268C145.982 168.806 141.675 166.864 137.266 166.499C133.824 165.794 132.559 170.292 131.829 172.867C130.69 176.343 128.27 181.7 131.187 184.802C133.351 186.93 136.478 187.484 139.011 189.038C142.419 190.434 145.858 192.779 149.691 192.26C153.655 191.321 153.446 184.004 154.783 180.731C156.195 175.325 156.333 173.056 151.934 171L151.941 171.003ZM152.088 183.485C151.114 185.789 151.584 190.957 148.018 190.369C144.158 189.77 140.75 187.518 137.222 185.961C134.043 184.62 130.896 183.671 131.911 179.465C132.713 176.154 133.611 172.726 135.226 169.735C137.462 166.551 141.669 170.13 144.549 170.546C146.523 171.175 148.567 171.639 150.456 172.503C155.955 173.72 152.815 179.644 152.085 183.481L152.088 183.485Z" fill="black"/>
<path d="M157.059 164.027C158.009 163.559 159.723 153.271 157.416 155.021C157.162 157.728 156.349 160.365 155.743 163.012C155.513 163.772 156.418 164.439 157.056 164.023L157.059 164.027Z" fill="black"/>
<path d="M150.233 198.436C153.716 198.123 156.36 195.65 157.028 192.226C157.121 191.789 157.423 190.097 157.399 188.88C157.388 188.261 156.497 188.172 156.356 188.774C155.712 191.528 154.954 194.598 152.256 195.901C151.502 196.28 150.658 196.383 149.859 196.617C148.738 196.95 149.139 198.587 150.23 198.432L150.233 198.436Z" fill="black"/>
<path d="M156.068 200.106C157.902 199.769 158.674 197.682 158.996 196.021C159.085 195.554 158.472 195.303 158.211 195.701C157.515 196.767 156.528 197.988 155.472 198.377C154.395 198.827 155.06 200.44 156.072 200.11L156.068 200.106Z" fill="black"/>
<path d="M324.7 218.1C324.7 218.1 324.683 218.11 324.676 218.113C324.686 218.106 324.693 218.103 324.7 218.1Z" fill="black"/>
<path d="M325.656 216.185C325.656 216.185 325.681 216.15 325.691 216.133C325.684 216.154 325.674 216.175 325.667 216.192C325.667 216.192 325.66 216.185 325.656 216.182V216.185Z" fill="black"/>
<path d="M300.583 208.737C300.583 208.737 300.593 208.751 300.597 208.758C300.59 208.751 300.586 208.744 300.583 208.737Z" fill="black"/>
<path d="M308.75 224.784C308.75 224.784 308.767 224.795 308.778 224.802C308.771 224.795 308.76 224.791 308.75 224.784Z" fill="black"/>
<path d="M189.305 158.354C188.853 158.656 188.393 158.949 187.934 159.238C187.862 158.526 187.581 155.682 186.6 157.15C186.6 157.15 186.6 157.15 186.597 157.147C186.473 158.106 186.569 159.055 186.675 160.008C183.288 161.362 185.205 162.979 186.559 161.93C186.655 161.854 186.775 161.816 186.881 161.758C187.114 162.631 186.778 163.787 187.42 164.481C188.057 165.007 189.045 164.333 188.811 163.546C188.626 162.679 188.465 161.851 188.29 160.998C188.935 160.64 189.576 160.272 190.214 159.908C191.225 159.303 190.32 157.762 189.309 158.354H189.305Z" fill="black"/>
<path d="M269.973 132.971C269.86 132.555 269.41 132.29 268.992 132.414C268.893 132.441 268.666 132.507 268.372 132.6C268.186 131.678 268.101 130.733 267.868 129.818C267.648 129.178 266.829 129.333 266.894 130.014C266.863 131.035 266.932 132.053 267.004 133.074C265.608 133.61 264.172 134.35 265.108 134.876C265.32 134.931 265.536 134.835 265.742 134.79C265.869 134.79 266.013 134.79 266.092 134.68C266.424 134.577 266.76 134.487 267.096 134.415C267.127 134.907 267.148 135.395 267.151 135.887C267.278 136.746 268.502 136.832 268.735 135.993C268.886 135.388 268.8 134.766 268.673 134.147C269.362 134.023 270.165 133.796 269.976 132.968L269.973 132.971Z" fill="black"/>
<path d="M311.009 137.18C310.731 136.52 311.033 132.889 309.747 133.673C309.747 133.673 309.747 133.669 309.747 133.666C309.583 133.848 309.562 134.13 309.545 134.367C309.518 134.687 309.497 135.007 309.476 135.327C308.77 135.516 308.047 135.729 307.488 136.221C306.908 136.575 306.912 137.627 307.673 137.737C308.019 137.789 308.348 137.503 308.345 137.149C308.609 136.977 308.99 136.939 309.37 136.905C309.339 137.314 309.339 137.73 309.521 138.084C310.114 139.075 311.595 138.177 311.009 137.187V137.18Z" fill="black"/>
<path d="M441.839 95.7809C441.713 94.9351 441.582 94.0892 441.404 93.2503C441.349 92.817 441.102 92.0193 440.54 92.3838C440.341 92.5454 440.351 92.8101 440.338 93.044C440.334 93.5219 440.348 93.9998 440.358 94.4778C439.731 94.6084 439.045 94.5053 438.459 94.7735C437.609 95.2342 438.061 96.2795 438.905 96.362C439.028 96.3792 439.752 96.3517 440.393 96.1592C440.66 96.9053 441.953 96.7265 441.843 95.7809H441.839Z" fill="black"/>
<path d="M452.873 129.705C452.897 128.674 466.687 122.814 470.006 121.233C470.455 121.02 471.055 120.875 471.429 121.202C472.79 122.395 452.839 131.111 452.873 129.709V129.705Z" fill="black"/>
<path d="M164.712 215.005C158.695 214.039 153.041 211.7 147.285 209.785C145.272 209.111 143.249 208.465 141.346 207.509C140.825 207.158 138.662 206.502 139.409 205.69C139.526 205.573 139.728 205.525 139.879 205.583C140.764 205.92 141.631 206.306 142.516 206.639C145.241 207.657 148.077 208.345 150.833 209.273C153.638 210.16 156.422 211.116 159.247 211.931C161.146 212.467 163.09 212.821 165.017 213.237C166.166 213.475 165.878 215.187 164.712 215.008V215.005Z" fill="black"/>
<path d="M134.465 245.893C134.674 244.803 138.425 243.912 139.481 243.455C142.821 242.358 146.246 241.405 149.613 240.45C151.951 239.975 154.293 238.792 156.634 238.665C157.197 238.926 157.138 239.817 156.542 239.999C149.496 242.516 142.06 243.695 134.942 245.81C134.695 245.862 134.482 246.188 134.462 245.893H134.465Z" fill="black"/>
<path d="M243.511 308.823C235.69 308.032 227.829 307.017 220.125 305.563C219.991 305.508 219.878 305.394 219.823 305.26C219.741 305.064 219.909 304.855 220.121 304.855C225.97 304.844 231.994 306.268 237.905 306.708C239.846 306.904 241.786 307.1 243.724 307.299C244.708 307.444 244.526 308.943 243.514 308.823H243.511Z" fill="black"/>
<path d="M350.774 311.195C350.75 311.195 350.729 311.198 350.705 311.202C350.633 311.212 350.555 311.185 350.513 311.112C350.366 310.7 351.103 310.772 351.347 310.683C355.42 309.981 359.582 310.298 363.672 309.837C365.075 309.648 366.467 309.393 367.862 309.163C368.222 309.101 368.572 309.383 368.62 309.741C368.668 310.105 368.407 310.449 368.044 310.5C366.991 310.652 365.939 310.796 364.886 310.944C362.201 311.339 359.496 311.092 356.798 311.068C354.779 311.009 352.763 311.123 350.75 311.202H350.777L350.774 311.195Z" fill="black"/>
<path d="M514.522 211.9C514.378 211.47 514.618 211.017 515.037 210.862C516.36 210.377 517.687 209.902 519.01 209.428C524.664 207.427 530.578 206.258 536.205 204.171C539.304 203.05 542.294 201.664 545.157 200.034C545.781 199.687 546.401 199.336 547.025 198.989C547.361 198.838 547.828 198.387 548.112 198.796C548.441 199.965 545.548 201.764 544.687 202.376C538.941 206.055 532.125 207.465 525.645 209.304C523.505 209.896 521.369 210.49 519.264 211.195C518.026 211.604 516.792 212.014 515.554 212.416C515.14 212.553 514.663 212.33 514.519 211.9H514.522Z" fill="black"/>
<path d="M567.086 251.05C560.579 247.921 553.804 245.418 546.926 243.248C546.926 243.248 546.926 243.248 546.929 243.245C546.501 243.19 546.487 242.526 546.919 242.447C547.344 242.364 547.79 242.498 548.208 242.577C553.211 243.795 558.107 245.473 562.865 247.436C562.838 247.426 562.811 247.415 562.783 247.405C564.463 248.103 566.109 248.87 567.765 249.623C568.687 250.094 568.025 251.473 567.083 251.05H567.086Z" fill="black"/>
<path d="M393.062 309.338C393.048 308.169 393.017 304.947 393.158 304.531C393.562 303.737 394.498 304.191 394.611 304.933C394.834 306.384 394.858 307.873 394.889 309.338C394.889 309.836 394.478 310.252 393.977 310.252C393.476 310.252 393.072 309.836 393.065 309.338H393.062Z" fill="black"/>
<path d="M401.39 307.732C400.101 307.516 399.573 305.869 401.17 305.687C401.76 305.69 402.463 305.948 402.603 306.587C402.782 307.279 402.048 307.887 401.39 307.732Z" fill="black"/>
<path d="M376.94 308.661C376.525 308.585 376.087 308.341 375.912 307.939C375.833 307.66 375.771 307.33 375.857 307.048C376.107 306.588 376.711 306.295 377.225 306.453C377.77 306.588 378.559 307.038 378.322 307.709C378.171 308.331 377.602 308.795 376.944 308.661H376.94Z" fill="black"/>
<path d="M418.958 306.766C417.892 306.319 418.577 304.483 419.657 305.023C420.816 305.628 420.247 307.269 418.958 306.766Z" fill="black"/>
<path d="M298.087 128.828C296.845 117.591 281.842 118.371 280.395 129.113C272.506 127.628 270.655 135.849 276.788 139.965C277.248 140.608 278.249 140.542 278.962 140.676C286.258 141.378 293.561 141.278 300.843 141.952C310.069 141.736 305.4 127.992 298.09 128.828H298.087ZM303.967 136.929C303.679 141.481 298.258 139.762 295.189 139.906C290.28 139.879 285.377 139.342 280.471 139.366C278.41 139.377 276.483 138.242 275.585 136.385C274.995 135.168 274.676 133.868 275.023 132.806C275.671 130.684 279.003 129.739 280.779 131.001C281.482 131.283 282.072 130.581 281.959 129.9C281.818 122.604 291.421 118.096 295.313 125.265C296.876 127.432 295.714 130.334 296.784 130.884C297.25 131.145 297.73 130.853 298.152 130.65C301.237 130.286 304.128 134.016 303.967 136.929Z" fill="black"/>
<path d="M581.448 176.058C579.798 173.793 576.874 173.404 574.268 173.411C576.984 160.816 563.53 160.809 558.322 169.14C558.171 169.433 557.698 170.567 558.387 170.413C558.473 170.447 558.552 170.375 558.514 170.292C560.948 166.792 564.966 164.939 569.218 165.238C571.714 165.231 572.468 168.191 572.598 170.227C572.811 171.657 571.957 173.057 572.214 174.435C573.411 176.722 578.578 173.411 580.906 179.077C582.48 185.799 574.573 186.075 570.15 184.376C570.154 184.376 570.157 184.376 570.161 184.376C563.972 182.76 555.288 180.783 553.193 173.882C552.953 171.633 555.085 169.243 557.4 169.928C557.307 170.285 556.93 171.272 557.533 170.433C558.744 169.309 556.731 168.583 555.781 168.652C552.792 168.8 550.752 172.094 551.444 174.91C554.286 182.492 564.02 184.263 570.936 186.724C578.413 189.382 587.184 183.303 581.444 176.055L581.448 176.058Z" fill="black"/>
<path d="M569.588 189.987C569.252 189.935 566.979 189.306 566.318 188.721C566.112 188.539 566.297 188.202 566.561 188.271C567.624 188.546 568.697 188.824 569.808 188.91C570.566 189.041 570.339 190.169 569.588 189.99V189.987Z" fill="black"/>
<path d="M434.476 175.584C434.294 152.344 434.161 129.103 434.161 105.863C434.161 98.6149 438.515 77.7402 427.139 77.7402C366.48 77.7402 305.808 77.7471 245.157 78.7855C245.174 78.7855 245.191 78.7855 245.208 78.7855C244.242 78.7683 243.275 78.758 242.308 78.7443C242.308 78.7443 242.311 78.7443 242.315 78.7443C235.331 78.6892 228.35 78.3591 221.366 78.4589C221.366 78.4589 221.37 78.4589 221.373 78.4589C193.502 76.9322 203.027 83.8469 201.446 107.118C200.733 141.152 200.527 175.192 200.527 209.236C200.527 230.901 217.111 225.276 230.171 225.486C238.718 225.441 261.271 225.438 288.453 225.352C287.25 232.689 287.164 240.285 284.51 247.313C282.604 248.038 273.594 247.268 273.007 248.448C272.421 249.627 272.092 251.346 272.856 252.622C273.621 253.898 278.839 253.64 281.147 253.602C288.107 253.488 295.063 253.451 302.023 253.54C321.741 253.392 341.723 252.498 361.32 252.849C362.812 252.876 361.019 248.403 358.533 248.204C356.335 248.028 354.107 247.939 351.892 247.942C351.247 247.942 350.658 247.591 350.359 247.021C346.783 240.178 346.297 232.583 344.788 225.06C551.236 220.992 258.22 222.443 212.294 222.821C212.294 222.821 212.294 222.821 212.298 222.821C204.7 222.821 203.037 212.86 203.037 212.887C203.075 211.467 203.178 202.868 203.301 190.596C279.491 191.263 355.756 190.445 431.966 190.978C431.466 199.491 431.757 207.775 432.169 215.501C431.737 222.353 429.611 220.961 424.351 222.182C423.46 223 425.263 223.426 425.812 223.736C429.158 224.155 434.232 223.395 434.044 218.998C434.915 204.601 434.315 190.056 434.483 175.601L434.476 175.584ZM343.763 231.152C344.641 237.262 345.381 244.311 349.547 249.118C350.582 249.854 357.621 249.324 358.934 249.771C359.383 250.177 359.603 250.779 359.85 251.346C331.351 250.989 302.812 251.618 274.317 251.755C274.543 250.985 274.547 250.552 274.632 249.565C276.127 250.119 285.384 250.315 286.43 248.1C289.742 241.083 290.404 233.013 290.568 225.341C307.43 225.286 325.554 225.204 343.173 225.06C342.984 226.954 343.595 229.808 343.759 231.156L343.763 231.152ZM431.781 181.378C431.97 183.716 432.014 186.164 431.994 188.66C355.77 189.118 279.518 188.224 203.311 188.822C203.599 159.709 203.983 111.88 203.928 88.365C201.755 78.0944 211.32 82.0417 217.831 81.6085C231.107 81.6085 244.382 81.299 257.661 81.3265C257.654 81.3265 257.647 81.3265 257.637 81.3265C308.853 80.7626 360.045 80.6182 411.247 79.9683C437.308 78.4451 431.733 80.5322 431.761 103.607C431.339 129.53 431.826 155.452 431.778 181.378H431.781Z" fill="black"/>
<path d="M332.386 147.227C335.201 144.012 331.762 138.727 327.696 140.02C323.787 140.962 323.228 146.9 327.092 148.317C326.887 149.386 320.938 157.728 326.798 157.945C335.948 158.966 332.252 153.285 331.378 148.128C331.755 147.877 332.095 147.571 332.386 147.224V147.227Z" fill="black"/>
<path d="M373.978 247.354C373.827 236.485 373.035 224.371 373.268 212.921C373.567 198.36 367.844 169.291 376.824 168.057C416.654 166.241 463.584 167.527 501.226 167.094C502.81 167.077 504.178 168.198 504.452 169.762C506.825 183.299 504.36 234.422 504.408 247.804C466.673 248.038 378.545 248.887 373.982 247.35L373.978 247.354Z" fill="#FDC82E"/>
<path d="M525.888 282.247C519.806 272.76 505.241 248.904 505.169 248.271C464.558 248.426 414.329 249.245 374.249 248.591C339.665 299.948 348.809 286.723 402.779 287.043C434.164 287.229 465.501 287.463 497.164 287.428C520.523 286.538 525.131 292.613 525.888 282.247Z" fill="#A8A7B6"/>
<path d="M438.761 184.709C437.993 182.477 438.363 177.928 438.761 175.528C443.074 174.18 444.514 181.343 450.243 178.282C447.926 191.321 442.965 180.466 438.761 184.709Z" fill="#FDC82E"/>
<path d="M454.33 235.746C455.29 241.234 423.555 242.248 422.046 233.965C421.827 232.754 423.356 214.658 425.441 202.122C426.826 193.797 426.418 190.018 427.282 189.939C428.417 189.836 430.429 189.303 431.286 189.98L431.691 195.221L435.144 195.417C435.065 193.56 435.925 189.939 435.925 189.939L441.092 189.358C440.657 191.958 441.757 195.155 441.757 195.155C441.757 195.155 444.61 196.372 445.57 194.811C446.146 193.876 445.964 190.41 446.057 189.747C446.057 189.747 450.082 188.062 450.534 189.661C452.657 197.129 454.405 234.608 454.333 235.746H454.33Z" fill="#FFE496"/>
<path d="M455.129 233.576C454.954 222.381 453.686 211.23 452.664 200.086C452.067 196.445 452.242 192.545 451.022 189.042C450.525 188.461 449.534 188.835 448.855 188.808C443.575 188.904 445.944 191.187 445.114 194.935C440.506 196.359 442.039 192.896 441.415 189.86C441.768 188.959 440.475 188.866 439.083 188.959C439.179 187.993 438.905 185.452 439.577 184.912C441.466 182.746 443.527 185.483 445.656 185.445C450.614 185.558 449.074 180.452 451.629 178.015C451.721 177.925 451.824 177.85 451.93 177.777C452.386 177.468 453.171 176.787 452.376 176.691C450.048 176.416 448.773 178.623 447.261 178.668C444.559 178.517 441.363 173.256 438.367 175.498C438.254 175.584 438.171 175.704 438.13 175.841C437.451 178.09 437.839 187.384 438.49 189.004C437.565 189.09 436.697 189.22 436.347 189.203C433.93 189.781 435.771 193.371 434.633 195.059C433.79 195.069 432.943 194.963 432.103 194.911C432.055 192.143 433.632 188.32 429.195 189.465C428.438 189.685 426.668 189.103 426.415 190.015C425.139 199.36 423.658 208.668 422.77 218.065C422.684 221.022 421.022 228.748 421.214 233.315C421.289 235.092 422.235 236.722 423.754 237.644C429.596 241.192 437.318 240.339 443.925 240.295C448.358 239.652 455.513 240.419 455.126 233.576H455.129ZM438.905 178.039C438.987 176.282 439.642 175.783 440.174 175.917C443.492 176.756 445.67 181.787 449.952 178.84C448.587 180.645 449.414 183.038 447.099 184.07C444.487 185.448 441.631 181.343 438.915 184.221C438.881 182.567 438.813 180.002 438.902 178.039H438.905ZM441.093 189.932C441.093 189.932 441.093 189.936 441.093 189.939C441.093 189.939 441.093 189.936 441.093 189.932ZM450.768 237.988C443.726 240.126 430.975 240.391 424.882 236.863C423.391 236 422.534 234.343 422.657 232.62C423.662 218.481 425.78 204.435 427.313 190.359C428.527 190.414 429.73 190.386 430.941 190.324C431.438 191.944 429.435 195.891 432.093 195.891C435.237 196.451 436.454 195.991 436.413 192.563C436.358 191.799 436.783 190.775 436.378 190.108C437.712 189.736 439.385 189.74 440.75 189.932C440.966 191.913 439.402 196.042 442.598 195.939C445.248 196.194 446.818 196.156 446.468 192.968C446.084 189.523 446.578 189.619 449.801 189.685C452.541 204.164 453.305 219.176 453.658 233.941C453.703 235.787 452.53 237.458 450.768 237.991V237.988Z" fill="black"/>
<path d="M448.988 219.093C449.273 218.753 449.479 218.347 449.612 217.924C449.743 217.515 449.784 217.078 449.75 216.652C449.75 216.611 449.739 216.566 449.732 216.525C449.732 216.47 449.732 216.418 449.732 216.363C449.702 216.212 449.657 216.06 449.602 215.916C449.547 215.734 449.479 215.555 449.393 215.383C449.297 215.191 449.184 215.005 449.05 214.836C448.91 214.658 448.755 214.493 448.587 214.341C448.073 213.894 447.428 213.595 446.75 213.519C446.554 213.499 446.362 213.495 446.167 213.502C445.8 213.485 445.433 213.519 445.076 213.619C444.682 213.733 444.305 213.911 443.972 214.159C443.63 214.417 443.331 214.733 443.105 215.094C442.889 215.435 442.742 215.813 442.656 216.208C442.632 216.322 442.615 216.435 442.601 216.549C442.56 216.948 442.587 217.353 442.687 217.738C442.793 218.148 442.971 218.543 443.232 218.88C443.462 219.179 443.739 219.437 444.065 219.626C444.243 219.729 444.439 219.812 444.644 219.853C444.305 220.785 443.924 221.699 443.516 222.604C443.27 223.254 443.036 223.91 442.766 224.553C442.615 225.021 442.344 225.564 442.419 226.059C442.44 226.138 442.498 226.19 442.567 226.211C442.796 226.898 443.52 227.28 444.394 227.239C444.452 227.239 444.511 227.239 444.569 227.239C444.624 227.239 444.679 227.242 444.737 227.239C444.809 227.239 444.881 227.239 444.956 227.239C445.241 227.239 445.529 227.246 445.814 227.242C446.959 227.249 448.124 227.204 449.023 226.431C449.654 225.767 449.342 224.753 449.174 223.959C448.934 222.913 448.711 221.858 448.399 220.833C448.351 220.482 448.292 220.132 448.217 219.784C448.505 219.595 448.762 219.361 448.982 219.097L448.988 219.093Z" fill="black"/>
<path d="M454.495 278.499C454.159 276.708 453.864 274.992 453.308 273.235C453.017 270.77 451.44 271.729 449.575 271.529C445.018 271.622 440.458 271.653 435.898 271.667C432.439 271.732 428.962 271.667 425.509 271.822C424.892 272.052 425.012 272.87 424.813 273.39C424.392 275.246 423.754 277.062 423.411 278.939C423.504 279.768 424.532 279.452 425.105 279.469C431.043 279.431 436.981 279.383 442.923 279.383C453.72 279.383 454.872 280.053 454.491 278.492L454.495 278.499ZM425.009 278.458C425.513 276.646 425.893 274.789 426.418 272.98C434.52 272.595 442.988 272.86 451.097 272.795C451.58 272.791 452.005 273.121 452.112 273.592C452.424 274.978 452.523 276.354 452.907 277.701C453 278.021 452.76 278.341 452.427 278.334C451.786 278.32 433.505 278.475 425.009 278.458Z" fill="black"/>
<path d="M524.349 278.939C523.32 277.375 522.377 275.697 521.27 274.177C518.212 269.552 515.853 264.488 512.874 259.808C511.42 257.607 509.942 255.424 508.65 253.124C507.7 251.659 507.072 249.991 505.855 248.709C505.828 248.681 505.8 248.65 505.773 248.616C505.797 248.581 505.821 248.547 505.838 248.509C505.872 248.437 505.879 248.361 505.886 248.282C505.907 248.128 505.907 247.973 505.91 247.815C505.913 247.65 505.917 247.485 505.92 247.319C505.92 246.821 505.927 246.326 505.931 245.827C505.941 244.497 505.944 243.166 505.958 241.835C505.975 240.319 505.979 238.806 505.979 237.293C505.979 235.78 505.955 234.401 505.941 232.954C505.927 231.365 505.924 229.773 505.913 228.185C505.903 226.569 505.876 224.956 505.872 223.34C505.859 220.097 505.842 216.855 505.852 213.613C505.855 212.052 505.852 210.491 505.852 208.929C505.852 207.368 505.859 205.955 505.859 204.47C505.859 202.926 505.865 201.386 505.865 199.842C505.865 198.298 505.855 196.902 505.848 195.43C505.842 193.99 505.831 192.549 505.811 191.108C505.794 189.771 505.787 188.43 505.783 187.092C505.776 185.593 505.78 184.09 505.78 182.591C505.78 181.092 505.769 179.572 505.745 178.063C505.735 177.337 505.728 176.615 505.691 175.893C505.656 175.212 505.622 174.535 505.588 173.854C505.55 173.129 505.516 172.407 505.475 171.681C505.458 171.361 505.44 171.041 505.403 170.725C505.409 170.313 505.416 169.9 505.423 169.474C505.475 168.518 504.703 167.782 503.918 167.369C502.807 166.919 501.436 166.833 500.184 166.847C499.797 166.847 499.42 166.853 499.06 166.867C497.678 166.747 496.286 166.664 494.897 166.675C494.328 166.675 493.763 166.685 493.193 166.719C491.784 166.829 490.382 166.898 488.976 167.012C488.956 167.012 488.935 167.012 488.915 167.012C486.357 166.984 483.799 167.06 481.242 167.094C477.223 166.943 473.215 166.96 469.19 166.912C467.099 166.905 464.983 166.84 462.871 166.843C461.582 166.843 460.29 166.86 459.007 166.929C458.397 166.96 457.787 166.974 457.173 166.977C455.637 166.977 454.101 166.922 452.565 166.926C452.174 166.926 451.783 166.926 451.389 166.933C450.343 166.96 449.301 166.97 448.255 166.974C446.112 166.974 443.973 166.946 441.83 166.939C440.754 166.939 439.677 166.939 438.597 166.957C434.428 166.95 430.259 167.149 426.09 167.129C424.667 167.118 423.247 167.08 421.828 166.994C419.304 166.891 416.784 166.864 414.261 166.871C410.064 166.871 405.864 166.97 401.664 166.957C399.144 166.967 396.628 167.07 394.108 167.074C393.275 167.074 392.445 167.056 391.612 167.022C389.033 166.967 386.455 166.895 383.877 166.895C383.154 166.85 382.406 166.823 381.648 166.829C378.439 166.816 375.062 167.4 372.995 170.037C371.116 172.493 371.164 175.752 371.191 178.702C371.181 180.875 370.92 183.038 370.944 185.215C370.869 188.182 370.992 191.136 370.934 194.103C371.047 198.779 371.5 203.442 371.719 208.111C371.939 212.822 371.606 217.539 371.702 222.253C371.853 229.502 372.137 236.746 372.425 243.991C372.473 245.16 372.696 246.336 372.6 247.505C371.867 249.211 370.913 250.823 370.07 252.477C368.034 255.995 365.812 259.457 363.624 262.892C360.775 267.259 358.656 272.038 356.14 276.594C355.125 278.475 354.24 280.425 353.133 282.254C352.19 283.849 353.369 285.634 354.295 286.944C355.838 288.391 357.943 288.501 359.212 288.56C363.175 288.739 367.005 288.526 370.965 288.343C376.787 288.106 382.646 288.563 388.471 288.361C396.168 288.147 403.869 287.793 411.576 287.969C415.608 287.834 419.64 287.859 423.676 288.024C427.907 288.103 432.134 288.374 436.365 288.436C441.316 288.536 446.263 288.367 451.214 288.371C454.286 288.316 457.355 288.522 460.427 288.557C464.212 288.529 468 288.471 471.789 288.501C475.9 288.398 480.011 288.581 484.118 288.429C486.439 288.381 488.764 288.268 491.088 288.288C492.628 288.326 494.164 288.409 495.703 288.323C500.013 288.23 504.323 288.563 508.629 288.697C512.517 288.718 516.391 289.038 520.279 289.179C521.315 289.199 522.415 289.323 523.416 289.01C523.547 288.931 523.663 288.838 523.773 288.742C524.133 288.519 524.472 288.089 524.706 287.855C525.515 286.927 526.632 286.15 527.047 284.95C527.63 282.526 525.576 280.755 524.342 278.936L524.349 278.939ZM372.96 182.718C373.125 180.913 373.228 179.101 373.255 177.289C373.142 173.727 373.91 169.869 377.836 168.865C378.868 168.597 379.92 168.511 380.976 168.494C381.923 168.494 382.869 168.535 383.812 168.552C385.231 168.552 386.644 168.576 388.063 168.604C390.11 168.683 392.157 168.707 394.207 168.703C397.468 168.707 400.728 168.648 403.989 168.652C404.387 168.655 404.784 168.655 405.182 168.652C407.891 168.645 410.61 168.497 413.325 168.476C413.647 168.476 413.969 168.476 414.292 168.476C418.118 168.504 421.975 168.583 425.815 168.738C425.901 168.738 425.987 168.738 426.076 168.738C426.103 168.738 426.131 168.738 426.158 168.738C435.827 168.645 445.495 168.394 455.167 168.38C455.64 168.394 456.113 168.401 456.587 168.401C459.473 168.418 462.353 168.184 465.24 168.215C469.217 168.243 473.222 168.026 477.213 168.005C477.7 168.005 478.183 168.005 478.67 168.009C479.037 168.016 479.404 168.016 479.771 168.016C482.14 168.016 484.502 167.82 486.871 167.741C487.475 167.741 488.075 167.723 488.678 167.699C490.382 167.723 492.086 167.751 493.787 167.734C495.727 167.727 497.671 167.851 499.625 167.868C499.694 167.868 499.756 167.868 499.824 167.868C499.872 167.868 499.92 167.868 499.968 167.868C500.085 167.868 500.198 167.868 500.308 167.864C500.726 167.864 501.131 167.888 501.576 167.971C502.296 168.04 503.126 167.94 503.62 168.586C504.107 169.061 503.939 169.78 503.973 170.392C504.045 171.894 504.083 173.404 504.268 174.899C504.33 175.343 504.371 175.79 504.398 176.24C504.398 176.306 504.391 176.368 504.391 176.433C504.371 177.183 504.367 177.929 504.36 178.678C504.33 181.697 504.367 184.716 504.371 187.735V189.74C504.371 190.355 504.36 190.967 504.354 191.583C504.343 193.082 504.343 194.581 504.34 196.08C504.333 199.089 504.353 202.101 504.371 205.109C504.391 208.156 504.401 211.202 504.419 214.249C504.425 215.865 504.432 217.477 504.432 219.09C504.432 220.713 504.439 222.339 504.432 223.962C504.426 225.582 504.415 227.201 504.412 228.821C504.412 230.406 504.412 231.988 504.405 233.573C504.398 234.989 504.384 236.409 504.391 237.829C504.398 238.62 504.398 239.408 504.405 240.195C504.412 240.91 504.426 241.625 504.436 242.344C504.453 243.654 504.46 244.964 504.48 246.278C504.487 246.725 504.487 247.168 504.497 247.615C504.497 247.643 504.497 247.667 504.497 247.694C504.312 247.691 504.127 247.684 503.945 247.681C503.681 247.681 503.414 247.674 503.15 247.67C502.238 247.653 501.326 247.656 500.414 247.656C499.78 247.656 499.145 247.656 498.511 247.656H496.612C495.374 247.656 494.14 247.643 492.902 247.639C490.54 247.629 488.177 247.612 485.819 247.615C483.175 247.615 480.528 247.629 477.885 247.622C472.999 247.608 468.113 247.622 463.228 247.608C460.852 247.601 458.479 247.629 456.103 247.643C453.487 247.656 450.868 247.691 448.252 247.725C443.184 247.787 438.117 247.729 433.05 247.705C430.375 247.691 427.701 247.677 425.027 247.677C424.084 247.677 423.141 247.677 422.198 247.677C420.501 247.677 418.804 247.677 417.107 247.677C414.539 247.67 411.971 247.646 409.399 247.629C406.763 247.615 404.126 247.595 401.493 247.577C396.535 247.543 391.574 247.515 386.613 247.515C384.151 247.515 381.686 247.515 379.224 247.557C378.011 247.577 376.793 247.605 375.583 247.681C375.227 247.705 374.867 247.729 374.507 247.77C374.692 246.711 374.489 245.607 374.465 244.538C374.369 241.698 374.304 238.854 374.099 236.017C373.821 230.454 373.591 224.88 373.567 219.31C373.536 214.93 373.804 210.525 373.475 206.144C373.269 202.039 372.882 197.937 372.827 193.824C372.906 190.138 372.72 186.418 372.964 182.725L372.96 182.718ZM356.634 279.07C359.099 274.593 361.485 270.068 364.087 265.667C367.547 260.155 371.356 254.791 374.068 248.863C374.27 248.894 374.472 248.918 374.675 248.936C375.268 248.991 375.864 249.032 376.461 249.059C377.709 249.118 378.96 249.142 380.208 249.156C382.677 249.183 385.149 249.187 387.621 249.19C390.172 249.19 392.723 249.183 395.274 249.176C397.725 249.169 400.176 249.145 402.631 249.138C407.815 249.118 412.999 249.056 418.183 249.059C423.477 249.059 428.771 249.066 434.064 249.039C439.156 249.011 444.247 248.977 449.339 249.052C451.948 249.09 454.554 249.114 457.159 249.135C459.487 249.152 461.815 249.173 464.143 249.166C467.016 249.156 469.89 249.159 472.763 249.166C474.813 249.166 476.867 249.169 478.92 249.166C481.564 249.166 484.207 249.183 486.851 249.183C489.165 249.183 491.479 249.169 493.793 249.159C496.324 249.145 498.857 249.152 501.388 249.152C502.128 249.152 502.869 249.142 503.609 249.132C503.86 249.132 504.11 249.132 504.36 249.118C504.443 249.118 504.521 249.118 504.604 249.118C504.899 250.129 505.481 251.002 505.924 251.961C505.917 251.944 505.91 251.934 505.903 251.917C507.847 255.64 510.487 258.952 512.644 262.562C513.796 264.467 514.859 266.423 516.062 268.297C517.584 271.014 519.096 273.737 520.91 276.268C522.048 278.107 523.18 279.95 524.527 281.645C524.767 281.975 524.963 282.285 525.117 282.584C524.774 282.543 524.431 282.505 524.088 282.474C523.197 282.391 522.306 282.34 521.414 282.302C519.405 282.223 517.399 282.185 515.387 282.154C512.03 282.106 508.673 282.099 505.313 282.106C503.568 282.106 501.823 282.106 500.081 282.106C498.336 282.106 496.595 282.106 494.85 282.106C487.862 282.12 480.871 282.151 473.884 282.168C466.838 282.182 459.792 282.185 452.747 282.185C449.184 282.185 445.625 282.192 442.063 282.195C438.617 282.195 435.168 282.185 431.723 282.189C424.54 282.189 417.36 282.209 410.181 282.261C406.653 282.285 403.121 282.326 399.59 282.354C396.059 282.381 392.527 282.388 388.996 282.395C385.574 282.402 382.156 282.419 378.734 282.44C375.326 282.46 371.921 282.457 368.513 282.457C367.022 282.457 365.531 282.45 364.039 282.45C362.507 282.45 360.974 282.467 359.442 282.488C358.766 282.495 358.087 282.498 357.412 282.508C356.87 282.515 356.328 282.526 355.787 282.532C355.492 282.532 355.194 282.539 354.899 282.543C354.95 282.429 355.001 282.312 355.06 282.171C355.54 281.116 356.099 280.105 356.63 279.077L356.634 279.07ZM524.212 286.407C523.752 286.875 523.382 287.405 522.892 287.848C522.881 287.855 522.871 287.865 522.861 287.872C522.628 287.914 522.364 287.855 522.124 287.876C518.541 287.814 514.948 287.408 511.365 287.212C505.55 287.105 499.739 286.679 493.924 286.947C487.519 286.738 481.111 287.116 474.707 286.83C467.058 286.885 459.412 287.002 451.763 286.875C446.802 286.858 441.844 287.016 436.883 286.94C431.873 286.872 426.871 286.614 421.865 286.5C418.588 286.418 415.31 286.421 412.032 286.545C408.57 286.514 405.103 286.459 401.64 286.521C395.908 286.614 390.179 286.947 384.443 286.989C379.848 286.93 375.251 287.167 370.656 287.15C366.758 287.15 358.889 287.436 356.651 286.703C355.687 286.387 355.012 284.95 354.775 284.231C354.662 283.963 354.611 283.76 354.6 283.574C355.063 283.581 355.53 283.585 355.992 283.588C356.678 283.595 357.364 283.612 358.053 283.619C358.958 283.626 359.867 283.636 360.775 283.646C363.851 283.684 366.926 283.65 370.002 283.646C371.757 283.646 373.516 283.636 375.275 283.64C376.886 283.64 378.501 283.653 380.112 283.66C383.568 283.674 387.028 283.684 390.484 283.691C393.981 283.695 397.478 283.705 400.979 283.729C408.172 283.784 415.361 283.832 422.555 283.842C429.552 283.853 436.55 283.825 443.548 283.825C450.631 283.825 457.715 283.808 464.798 283.811C471.789 283.815 478.776 283.825 485.767 283.836C488.904 283.839 492.038 283.849 495.175 283.849C495.515 283.849 495.857 283.849 496.197 283.849C499.715 283.849 503.232 283.839 506.754 283.842C510.158 283.842 513.559 283.815 516.96 283.753C518.664 283.722 520.368 283.684 522.069 283.598C522.847 283.56 523.622 283.509 524.397 283.426C524.733 283.389 525.066 283.354 525.398 283.313C525.405 283.313 525.415 283.313 525.422 283.313C525.727 284.372 525.374 285.293 524.215 286.414L524.212 286.407Z" fill="black"/>
<path d="M504.803 267.795C503.023 264.226 501.381 260.534 499.804 256.848C498.799 254.609 498.107 252.715 495.292 253.162C495.302 253.162 495.312 253.162 495.323 253.162C463.776 253.402 432.223 253.358 400.677 253.419C394.231 253.413 387.779 253.378 381.336 253.581C380.287 253.643 379.029 253.44 378.559 254.564C376.413 257.504 375.113 260.939 373.574 264.216C372.422 266.424 371.177 269.387 374.959 269.312C407.167 269.869 439.42 269.353 471.645 269.456C479.627 269.456 487.608 269.501 495.59 269.494C497.805 269.026 504.974 270.835 504.806 267.795H504.803ZM500.723 268.318C468.868 268.359 437.016 268.222 405.161 268.215C395.452 268.304 385.715 267.919 376.019 268.456C372.885 268.624 373.317 267.077 374.555 264.862C376.073 261.283 378.285 258.061 379.886 254.52C409.399 254.929 438.929 254.324 468.446 254.393C477.59 254.444 486.789 254.138 495.902 254.434C498.398 253.801 501.857 265.371 503.448 267.778C502.673 268.373 501.683 268.373 500.723 268.322V268.318Z" fill="black"/>
<path d="M321.013 207.953C322.33 204.487 317.547 201.224 315.106 204.463C313.635 206.024 313.251 210.026 316.32 209.713C317.605 211.126 320.379 209.593 321.01 207.953H321.013ZM328.049 209.83C328.889 215.352 323.208 228.59 309.877 226.472C307.553 226.104 308.472 224.852 305.424 226.341C303.473 227.593 304.752 234.363 300.219 229.996C298.069 228.738 295.916 231.499 294.768 228.477C292.279 230.027 290.722 239.913 287.65 237.052C286.076 238.3 285.137 240.886 282.264 239.713C281.287 246.243 277.861 244.775 272.242 244.881C269.077 245.882 268.855 243.674 269.801 241.171C270.987 236.361 275.945 234.755 279.144 231.461C284.05 227.414 286.899 224.674 292.131 221.06C300.6 215.208 294.301 207.997 300.535 201.241C304.052 197.428 309.949 194.608 315.36 195.774C322.903 197.4 327.027 203.098 328.049 209.83Z" fill="#FDC82E"/>
<path d="M317.294 211.023C311.811 210.666 313.611 201.987 318.74 203.183C323.839 204.071 322.347 211.969 317.294 211.023ZM317.924 210.029C321.425 209.899 321.439 204.404 317.952 204.239C314.081 204.088 314.345 209.875 317.924 210.029Z" fill="black"/>
<path d="M327.696 206.279C320.245 186.491 293.184 194.825 296.3 215.263C293.756 220.39 287.886 222.831 283.796 226.576C279.418 230.231 274.052 232.892 270.425 237.314C268.964 239.095 269.304 241.897 268.957 243.902C268.659 245.614 269.79 245.827 271.169 245.604C277.556 244.535 280.844 248.74 282.696 240.536C286.553 241.602 285.84 239.924 288.092 237.685C289.758 239.136 290.516 237.641 291.085 236.114C292.097 234.04 292.577 231.785 294.058 229.938C294.819 228.866 295.398 230.454 295.985 230.857C297.113 231.53 298.148 230.272 299.238 230.09C301.008 231.2 302.221 233.683 304.032 231.365C305.821 230.042 304.402 226.62 307.069 226.105C307.357 226.228 307.621 226.342 307.94 226.476C319.652 231.304 331.981 217.976 327.696 206.279ZM327.123 213.118C326.125 221.545 316.998 227.879 308.808 225.565C308.814 225.565 308.821 225.565 308.825 225.568C308.499 225.479 308.184 225.362 307.865 225.255C306.802 224.729 305.554 225.083 304.738 225.998C303.257 227.363 304.512 229.839 302.657 230.86C300.408 229.354 299.4 228.168 296.718 229.742C295.289 227.8 294.116 227.965 292.954 229.33L292.974 229.309C292.974 229.309 292.944 229.34 292.926 229.357L292.947 229.337C291.325 231.623 290.736 234.553 289.261 236.925C287.177 235.426 286.179 238.266 285.003 239.49C284.228 239.539 283.405 239.215 282.6 239.288C281.828 239.164 281.492 239.714 281.293 240.371C279.51 246.096 277.46 244.105 273.754 244.366C272.328 244.466 270.493 244.517 270.061 244.607C270.075 244.132 270.157 243.672 270.257 243.211C281.067 235.175 291.709 226.431 301.8 217.639C301.923 216.927 301.021 216.381 300.456 216.852C298.032 218.829 295.608 220.809 293.184 222.787C285.665 229.038 277.909 234.993 270.589 241.488C270.881 240.106 270.946 238.424 272.108 237.462C275.811 234.247 279.798 231.369 283.656 228.333C286.532 226.111 289.371 223.849 292.272 221.662C294.884 219.823 298.107 217.574 297.795 213.953C294.894 190.988 328.882 190.397 327.123 213.121V213.118Z" fill="black"/>
<path d="M293.596 228.704C293.596 228.704 293.613 228.69 293.62 228.684C293.613 228.69 293.603 228.697 293.596 228.704Z" fill="black"/>
<path d="M300.449 208.421C300.082 208.376 299.777 208.011 299.842 207.637C300.024 206.523 300.312 205.426 300.85 204.429C303.02 200.399 306.507 197.889 311.619 197.497C313.642 197.342 313.961 198.081 313.769 198.298C313.409 198.463 312.925 198.408 312.548 198.49C309.929 199.003 307.505 199.57 305.362 201.207C304.104 202.104 302.766 203.559 302.16 205.017C301.721 205.935 301.47 206.921 301.213 207.901C301.121 208.238 300.788 208.469 300.449 208.421Z" fill="black"/>
<path d="M325.615 211.749C325.063 211.116 324.652 211.773 324.528 212.382C324.436 212.509 324.347 212.636 324.288 212.787C324.072 213.403 323.922 214.039 323.664 214.641C323.133 216.109 322.399 217.477 321.333 218.629C320.592 219.496 319.872 220.403 318.967 221.101C318.522 221.483 317.5 221.713 317.815 222.487C318.182 223.185 319.015 222.659 319.554 222.48C321.995 221.383 323.527 219.066 324.631 216.717C325.08 215.868 325.55 214.899 325.684 213.915C325.944 213.2 326.147 212.378 325.615 211.756V211.749Z" fill="black"/>
</svg>
