<svg width="539" height="332" viewBox="0 0 539 332" fill="none" xmlns="http://www.w3.org/2000/svg">
<path d="M234.714 200.882C231.87 201.876 240.587 221.998 241.228 224.237C245.395 238.51 258.823 269.714 260.853 263.769C267.013 253.37 321.039 242.396 321.039 242.396C321.039 242.396 288.883 203.397 275.916 185.951C262.709 191.184 244.784 190.262 234.714 200.871V200.882Z" fill="#3F3D56"/>
<path d="M137.57 2.24951C138.635 1.50115 139.24 1.9322 139.348 2.63865C145.897 2.85418 153.77 4.23716 163.176 7.05699C187.68 12.541 208.652 46.6603 183.83 64.3876C174.108 73.6493 163.14 71.7993 150.825 70.0512C150.112 67.8839 153.926 84.6532 150.609 87.1497C146.227 90.4904 133.947 80.3067 126.817 80.6719C123.219 85.222 135.791 90.9275 128.523 96.1241C123.997 99.369 115.274 98.7643 114.029 101.429C113.353 108.014 112.502 114.528 112.502 114.528C112.502 114.528 103.073 112.067 89.8839 111.115C80.7658 99.6504 75.1022 82.5518 74.4556 67.2014C72.7494 28.071 105.971 2.74043 137.564 2.24352V2.25549L137.57 2.24951Z" fill="#3F3D56"/>
<path d="M196.607 250.462C193.613 250.001 194.643 253.138 197.139 252.737C205.3 258.975 210.46 267.375 210.46 278.378C210.532 288.49 249.74 247.151 257.829 243.265C268.084 230.902 288.703 247.36 278.34 233.794C274.634 231.98 273.64 226.747 271.754 222.754C268.545 220.904 265.665 215.235 260.469 216.204C237.994 225.287 218.914 240.882 196.613 250.456L196.607 250.462Z" fill="#9E616A"/>
<path d="M113.957 111.792C114.346 118.233 123.644 122.795 127.021 128.561C129.864 131.662 131.756 137.11 136.211 136.356C140.874 128.98 148.741 122.783 153.585 115.916C158.715 118.048 159.955 119.658 170.534 121.257C175.377 122.322 160.739 126.561 164.373 136.889C169.396 160.112 167.899 186.179 176.796 208.432C179.789 219.717 199.193 229.123 201.869 211.881C205.467 194.07 200.235 171.744 199.061 151.91C198.636 144.791 206.287 139.768 208.395 134.889C209.79 120.323 198.211 120.287 194.858 109.57C194.074 106.798 186.734 108.786 190.584 105.296C194.397 100.985 189.59 92.1964 196.068 91.939C196.966 91.442 197.57 89.7358 197.169 88.8018C195.134 83.9584 192.541 79.4323 189.59 75.1696C187.207 71.9607 191.697 62.8426 187.626 62.3457C179.149 72.4935 163.445 71.2841 151.591 69.2606C150.597 69.2965 148.711 73.9603 150.807 79.4802C154.788 89.9872 145.712 88.9096 144.934 80.4381C144.508 75.7025 136.881 71.1045 131.116 73.5592C129.152 74.3854 128.2 78.5103 126.697 79.4323C123.746 81.2104 131.894 94.3517 129.505 95.136C114.406 100.087 113.945 95.9202 113.945 111.762V111.786L113.957 111.792Z" fill="#9E616A"/>
<path d="M309.028 255.017C308.747 255.089 308.496 255.161 308.202 255.232C309.519 255.017 310.842 254.843 312.124 254.556C313.59 254.263 315.075 254.167 316.578 253.915C317.147 253.843 317.751 253.7 318.212 253.347C318.53 253.095 318.745 252.706 318.745 252.317C318.745 252.137 318.781 251.928 318.781 251.748C318.284 252.67 317.35 253.251 315.608 253.275C313.333 253.628 311.19 254.448 309.022 255.017H309.028Z" fill="#6F479F"/>
<path d="M296.073 257.932L296.181 257.896C297.78 257.471 299.743 257.824 301.025 256.723C299.666 257.016 298.289 257.327 296.929 257.681C296.678 257.752 296.397 257.824 296.067 257.932H296.073Z" fill="#6F479F"/>
<path d="M274.634 226.207C275.31 227.416 275.951 228.626 276.562 229.877C276.915 230.661 277.31 231.404 277.591 232.188C277.627 232.296 277.699 232.403 277.771 232.481C277.346 231.523 277.202 230.41 276.669 229.53C276.101 228.392 275.388 227.291 274.634 226.213V226.207Z" fill="#6F479F"/>
<path d="M277.16 263.2C277.549 263.271 278.058 263.128 278.405 263.092C279.614 262.84 280.865 262.523 282.075 262.23C284.458 261.661 286.81 261.092 289.193 260.595C289.475 260.524 289.69 260.302 289.798 260.062C288.295 260.595 286.769 261.092 285.194 261.457C282.554 262.062 279.818 262.559 277.142 263.2H277.154H277.16Z" fill="#6F479F"/>
<path d="M447.313 229.02C452.121 229.056 460.173 229.02 460.173 229.02L538.38 16.0304L528.364 9.83398C528.364 9.83398 474.021 157.166 447.313 229.026V229.02Z" fill="#686889"/>
<path d="M318.62 147.18C342.616 163.099 424.564 215.808 425.63 217.406C424.091 233.002 416.225 235.074 397.929 237.385C400.665 247.251 418.793 242.797 427.3 239.127C433.539 236.451 434.676 226.908 434.215 222.25C440.489 226.345 446.105 229.021 446.105 229.021L451.883 213.706L321.434 138.637C321.434 138.637 319.051 146.288 318.626 147.186L318.62 147.18Z" fill="#686889"/>
<path d="M322.493 213.168C337.982 231.901 364.264 251.987 382.099 270.935C393.821 268.517 416.823 262.53 420.697 262.644C416.811 257.944 399.156 239.42 397.946 237.361C403.538 234.445 424.618 239.564 425.941 217.167C414.015 207.516 409.561 205.445 407.669 206.049C404.107 207.187 411.303 219.682 378.998 221.609C366.174 211.851 363.51 206.223 358.199 206.546C346.513 208.073 334.587 211.037 322.481 213.168H322.493Z" fill="#3F3D56"/>
<path d="M261.81 261.967C261.846 267.271 261.349 267.84 261.349 267.84L318.182 253.31C318.182 253.31 320.421 246.868 319.853 242.803C306.496 247.389 270.706 254.908 261.81 261.955V261.967Z" fill="#686889"/>
<path d="M321.995 138.392C352.193 156.868 452.546 213.462 452.546 213.462L528.005 10.548L363.904 9.94336L363.538 11.1527C363.538 11.1527 335.304 98.5854 321.983 138.392H321.995Z" fill="#6F479F"/>
<path d="M274.353 190.771C284.608 201.889 304.874 229.902 313.172 239.128C314.914 243.438 307.047 243.678 304.551 243.678C293.475 233.093 271.329 201.59 266.905 195.28C266.48 194.639 266.612 193.777 267.258 193.316C268.821 192.178 271.844 190.364 274.341 190.748L274.353 190.759V190.771Z" fill="#686889"/>
<path d="M242.083 200.71C248.561 201.315 260.559 190.419 263.307 199.752C275.065 212.576 284.147 227.454 294.11 241.631C296.145 243.265 296.606 244.911 295.78 245.869C294.217 247.719 288.805 248.144 286.806 248.749C280.789 252.09 272.952 253.377 267.468 256.58C264.624 257.364 256.961 244.289 257.817 243.223C268.569 229.974 291.224 250.27 276.694 229.519C273.317 224.286 270 218.018 264.019 215.45C258.428 215.025 251.95 218.551 247.783 220.754C246.28 217.689 235.821 200.524 242.077 200.704L242.083 200.71Z" fill="#686889"/>
<path d="M1.74437 241.952C-2.88351 298.642 20.3636 320.506 79.9153 317.202C93.8768 321.368 107.946 330.941 124.003 329.768C141.137 327.493 157.188 319.83 171.515 310.466C185.62 313.567 198.612 294.727 208.592 286.507C212.441 278.49 207.843 267.241 203.108 259.721C191.002 243.084 168.42 251.849 153.608 252.914C145.957 248.969 165.001 248.897 165.037 244.018C169.132 245.299 174.047 248.933 179.31 248.22C216.956 247.436 219.195 209.826 203.778 184.969C199.797 188.142 204.736 202.139 202.88 208.833C202.629 226.278 183.932 225.398 178.13 211.748C162.642 189.884 176.628 158.824 157.404 139.319C153.165 130.913 149.148 122.478 149.148 122.478C149.148 122.478 142.67 127.746 134.33 137.93C127.026 128.632 120.441 120.298 113.999 114.066C110.329 114.563 99.1572 112.749 89.8536 111.15C87.1774 113.569 84.4055 115.958 82.6633 122.436C41.1082 147.79 5.95914 190.698 1.75634 241.952H1.74437Z" fill="#FDC82E"/>
<path d="M169.617 71.4339C167.013 82.2942 178.556 100.991 186.255 84.4016C196.935 63.3935 174.221 35.6562 169.617 71.4339Z" fill="#E1CBF1"/>
<path d="M188.278 61.8978C189.56 66.9208 188.847 83.9475 196.935 84.1511C202.491 75.9909 200.001 53.7017 194.163 54.025C192.457 54.0968 190.422 57.4016 188.29 61.8978H188.278Z" fill="#E1CBF1"/>
<path d="M435.849 222.854C435.849 222.854 435.885 222.926 435.921 222.962C435.885 222.926 435.885 222.89 435.849 222.854Z" fill="black"/>
<path d="M320.181 252.848C320.181 252.351 319.756 251.926 319.259 251.926C318.762 251.926 318.325 252.351 318.325 252.848C318.325 253.345 318.75 253.77 319.259 253.77C319.768 253.77 320.181 253.381 320.181 252.848Z" fill="black"/>
<path d="M233.72 200.248C234.821 196.835 237.204 196.267 240.233 195.153C243.574 193.908 246.927 192.693 250.381 191.741C253.722 190.819 257.075 189.927 260.385 188.897C263.451 187.975 266.474 186.789 269.575 185.981C271.174 185.556 272.748 184.844 274.455 185.083C275.131 185.155 275.85 185.4 276.34 185.909C276.376 185.945 276.412 185.945 276.448 185.981C276.945 186.089 277.232 186.514 277.586 186.843C278.262 187.52 278.945 188.238 279.621 188.915C281.148 190.549 282.651 192.291 284.076 194.111C287.213 197.781 290.056 201.667 293.158 205.397C299.282 212.773 305.263 220.214 311.064 227.872C312.735 230.003 314.273 232.254 315.944 234.385C317.045 235.816 318.111 237.229 319.117 238.768C319.721 239.726 320.476 240.654 320.895 241.719C321.643 243.569 321.356 245.605 321.11 247.521C320.967 248.73 320.817 249.939 320.649 251.119C320.542 251.544 320.506 252.017 320.356 252.478C320.392 252.514 320.392 252.585 320.428 252.621C320.572 253.19 320.248 253.759 319.68 253.939C319.608 253.974 319.5 253.974 319.428 254.01C315.98 254.908 312.477 255.824 309.029 256.722C305.143 257.716 301.306 258.758 297.42 259.752C293.361 260.817 289.332 261.859 285.279 262.925C281.04 264.026 276.837 265.128 272.605 266.194C269.192 267.092 265.762 267.936 262.385 268.87C262.313 268.906 262.205 268.906 262.092 268.906C261.876 268.906 261.702 268.834 261.523 268.726C261.451 268.798 261.343 268.834 261.229 268.87C261.158 268.942 261.05 269.014 260.978 269.049C260.834 269.121 260.685 269.157 260.553 269.157C260.421 269.157 260.302 269.121 260.164 269.085C259.87 268.978 259.703 268.804 259.595 268.553C259.523 268.409 259.451 268.259 259.38 268.163C258.386 266.313 257.416 264.422 256.428 262.572C255.326 260.44 254.189 258.333 253.147 256.166C252.614 255.1 252.117 253.998 251.585 252.885C251.333 252.352 251.088 251.783 250.872 251.25C250.728 250.933 250.621 250.646 250.519 250.328C250.447 250.185 250.411 250.035 250.375 249.903C250.339 249.76 250.303 249.586 250.339 249.442C250.411 249.149 250.728 249.017 251.016 249.149H251.052C251.303 249.293 251.441 249.538 251.621 249.79C251.8 250.041 251.974 250.287 252.117 250.502C252.435 250.999 252.758 251.46 253.039 251.969C254.285 254.076 255.458 256.172 256.602 258.315L256.638 258.351L256.673 258.387C256.673 258.387 256.709 258.423 256.709 258.459C256.709 258.459 256.745 258.495 256.745 258.53C256.745 258.53 256.745 258.566 256.781 258.566C256.781 258.566 256.817 258.602 256.817 258.638C256.817 258.638 256.817 258.674 256.853 258.674V258.71C256.853 258.71 256.889 258.746 256.889 258.782C256.889 258.782 256.889 258.818 256.925 258.818C256.925 258.854 256.961 258.854 256.961 258.89C257.601 260.099 258.278 261.35 258.925 262.56C259.278 263.2 259.601 263.877 259.954 264.523C260.026 263.625 260.206 262.781 260.523 261.955C260.631 261.626 260.84 261.35 261.056 261.093C260.631 260.344 260.23 259.554 259.882 258.782C258.38 255.753 256.967 252.729 255.608 249.664C255.147 248.598 254.686 247.556 254.249 246.491C254.746 246.174 255.243 245.85 255.716 245.533C255.823 245.461 255.967 245.353 256.069 245.281C256.248 245.707 256.422 246.108 256.602 246.527C258.164 250.197 259.847 253.831 261.625 257.423C262.05 258.285 262.409 259.129 262.906 259.955C263.085 259.883 263.259 259.776 263.439 259.674C269.881 256.321 276.939 254.118 283.878 251.987C290.116 250.101 296.301 248.065 302.611 246.359C306.778 245.401 310.807 243.94 314.974 242.875C315.932 242.581 316.902 242.521 317.89 242.414C318.069 242.414 318.315 242.378 318.566 242.342C318.674 242.306 318.817 242.306 318.919 242.27C318.883 242.198 318.847 242.126 318.847 242.055C318.279 241.061 317.71 240.312 317.033 239.283C311.939 232.332 306.706 225.429 301.366 218.664C297.881 214.353 294.391 210.043 290.859 205.768C288.254 202.559 285.8 199.254 283.136 196.081C281.669 194.231 280.184 192.375 278.645 190.561C278.328 190.136 276.61 188.286 276.113 187.077C275.796 187.041 275.472 186.933 275.119 186.897C273.838 186.825 272.658 187.25 271.485 187.646C268.037 188.675 247.376 194.836 241.82 196.979C240.186 197.62 238.479 198.081 237.012 199.087C236.719 199.338 236.552 199.655 236.372 199.985C238.755 207.504 242.317 214.551 245.268 221.813C245.484 222.346 245.729 222.914 245.981 223.447C245.729 223.555 245.52 223.699 245.304 223.836C244.987 224.052 244.7 224.226 244.406 224.477L244.263 224.585C243.436 222.657 242.628 220.699 241.844 218.747C239.569 213.443 237.318 208.103 235.863 202.475C235.791 202.182 235.719 201.87 235.647 201.577C235.186 202.715 234.725 203.888 234.785 205.139C235.079 207.983 236.18 210.659 237.282 213.264C238.809 216.898 240.311 220.526 241.832 224.16C242.083 224.693 240.473 226.578 240.305 226.01C239.737 224.728 239.204 223.441 238.671 222.16C237.168 218.454 235.534 214.82 234.085 211.084C233.337 209.121 232.768 207.103 232.618 205.032C232.403 203.361 233.079 201.823 233.684 200.332L233.732 200.26L233.72 200.248ZM319.009 243.414C318.476 243.629 317.943 243.803 317.411 243.946C316.129 244.198 314.914 244.659 313.705 245.084C306.089 247.688 298.217 249.502 290.553 251.999C281.399 254.878 272.042 257.303 263.528 261.793C263.175 261.973 262.816 262.147 262.499 262.398C261.75 263.536 261.966 265.146 261.822 266.493V266.709H261.858C265.492 265.751 269.12 264.823 272.79 263.865C276.993 262.763 281.196 261.698 285.429 260.584L297.498 257.447C301.408 256.453 305.293 255.411 309.22 254.417C311.148 253.921 313.106 253.424 315.022 252.915C316.087 252.621 317.153 252.382 318.231 252.089C318.267 251.945 318.339 251.771 318.374 251.628C318.554 250.73 318.704 249.814 318.8 248.892C318.835 247.078 319.332 245.186 319.015 243.408H319.003L319.009 243.414Z" fill="black"/>
<path d="M81.3652 125.85C81.3652 125.777 81.3291 125.705 81.2568 125.705C81.1846 125.705 81.1484 125.741 81.1484 125.813C81.1484 125.886 81.1846 125.958 81.2568 125.958C81.3291 125.958 81.3652 125.922 81.3652 125.85Z" fill="black"/>
<path d="M79.6592 128.232C79.6592 128.16 79.623 128.088 79.5508 128.088C79.4785 128.088 79.4424 128.124 79.4424 128.196C79.4424 128.269 79.4785 128.341 79.5508 128.341C79.623 128.341 79.6592 128.305 79.6592 128.232Z" fill="black"/>
<path d="M170.187 311.958C170.187 311.886 170.151 311.85 170.079 311.85C170.007 311.85 169.971 311.886 169.971 311.958C169.971 312.03 170.007 312.066 170.079 312.066C170.151 312.066 170.187 312.03 170.187 311.958Z" fill="black"/>
<path d="M238.909 201.559C238.945 201.206 239.903 200.733 240.082 200.697C240.615 200.481 260.276 194.183 260.276 194.183C260.348 194.183 260.456 194.147 260.528 194.111C260.564 194.147 260.564 194.183 260.6 194.183C260.707 194.327 266.305 201.158 266.545 201.409C267.718 202.912 268.927 204.361 270.143 205.864C270.143 205.864 270.891 206.726 271.137 207.001C271.244 207.109 271.352 207.253 271.454 207.354C271.418 207.354 271.382 207.354 271.382 207.39C271.951 208.103 281.248 220.561 281.458 220.855C281.602 221.07 281.775 221.28 281.919 221.495C281.883 221.495 295.623 241.617 296.06 243.108C297.659 246.742 295.491 246.742 294.851 247.03C292.707 247.987 266.712 256.968 266.58 257.004C264.341 257.788 262.803 253.442 262.03 252.268C260.504 249.885 258.75 246.712 257.223 244.323C256.798 243.862 259.001 242.252 259.606 242.473C260.175 242.617 260.39 243.222 260.636 243.719C261.276 244.856 261.953 245.994 262.563 247.131C262.779 247.024 262.952 246.916 263.168 246.814C263.629 246.563 270.25 243.252 270.358 243.18C270.394 243.18 270.394 243.144 270.43 243.144C270.041 242.318 269.646 241.474 269.293 240.647C268.868 239.749 268.155 238.684 267.79 237.732C267.718 237.516 268.616 237.552 268.784 237.732C270.101 239.091 271.166 240.648 272.029 242.318C272.029 242.354 272.065 242.354 272.065 242.39C272.28 242.282 288.63 235.235 288.978 235.128C287.912 233.625 286.87 232.176 285.84 230.673C285.451 230.105 285.056 229.572 284.631 229.003C283.769 229.218 282.925 229.464 282.099 229.715C280.285 230.105 278.464 230.5 276.65 230.925C276.399 230.997 276.082 231.068 275.788 231.068C275.327 231.068 274.89 230.889 274.795 230.32C274.687 229.572 275.435 229.29 276.04 229.183C278.5 228.578 280.919 227.865 283.38 227.219C282.206 225.549 281.033 223.902 279.853 222.232C277.926 223.016 276.04 223.83 273.98 224.196C273.729 224.231 273.447 224.267 273.196 224.267C272.903 224.267 272.591 224.196 272.37 223.974C271.873 223.513 272.118 222.615 272.759 222.471C273.112 222.399 273.471 222.328 273.825 222.256C275.495 221.867 277.07 221.19 278.668 220.549C277.309 218.622 275.932 216.7 274.573 214.784C271.897 215.61 267.88 216.987 265.18 217.556C264.222 216.526 261.767 210.785 261.51 210.438C260.905 210.617 256.774 212.108 255.313 212.641C255.565 212.994 257.696 216.017 256.744 216.808C256.528 216.915 256.355 216.987 256.211 216.987C255.253 216.987 254.708 215.317 254.176 214.64C253.924 214.215 253.643 213.814 253.391 213.395C251.464 214.108 249.542 214.862 247.65 215.634C248.362 217.029 249.009 218.478 249.428 219.981C249.536 220.16 248.716 220.442 248.68 220.274C248.003 219.376 247.434 218.424 246.83 217.466C246.536 217.005 246.225 216.508 245.932 215.999C246.572 217.317 247.177 218.676 247.674 220.017C247.967 220.478 247.71 221.118 247.141 221.19C247.105 221.19 246.315 220.765 246.219 220.364C246.039 219.867 238.771 202.493 238.879 201.523L238.903 201.535L238.909 201.559ZM295.102 245.754C295.102 245.754 294.994 244.76 294.994 244.725C293.067 245.186 288.552 247.107 287.84 247.365C287.876 247.437 287.948 248.191 287.948 248.191C287.948 248.191 294.108 246.155 295.102 245.772V245.76V245.754ZM276.339 252.484C276.908 252.376 283.859 249.49 286.702 248.634C286.702 248.634 286.487 247.958 286.487 247.772C284.673 248.413 282.853 249.089 281.039 249.658C279.44 250.262 277.866 250.903 276.303 251.586C276.303 251.657 276.303 252.508 276.339 252.484ZM266.832 255.728C269.071 255.268 275.016 252.992 275.016 252.992L274.908 252.094C274.908 252.094 268.784 254.441 267.035 255.046C266.892 255.226 266.742 255.723 266.82 255.723H266.832V255.728ZM262.282 249.107L261.821 250.502C261.821 250.502 264.593 254.884 265.03 255.345C265.138 255.052 265.209 254.633 265.347 254.316C263.569 251.639 262.282 249.119 262.282 249.119V249.107ZM271.107 244.575C270.891 244.611 270.717 244.683 270.574 244.79C269.897 245.144 263.419 248.424 263.234 248.496C263.767 249.49 266.006 253.555 266.042 253.627C268.885 252.705 271.633 251.813 274.447 250.711C274.196 250.358 271.568 245.479 271.107 244.587V244.575ZM282.182 239.624C281.967 239.66 274.699 242.797 273.633 243.294C273.34 243.437 273.064 243.587 272.771 243.719C273.669 245.245 275.651 249.556 275.908 250.089C279.249 248.73 282.637 247.413 286.056 246.203C284.661 243.892 283.452 241.965 282.182 239.618V239.63V239.624ZM283.577 239.019C285.176 241.091 287.391 245.677 287.427 245.748C289.738 244.964 292.091 244.222 294.473 243.545C293.156 241.198 291.666 238.959 290.127 236.738C289.774 236.846 283.931 238.905 283.577 239.013V239.019ZM251.745 198.679C251.428 198.787 251.068 198.895 250.751 198.973C249.47 199.398 248.183 199.799 246.902 200.182C246.65 200.254 246.405 200.326 246.153 200.398C246.261 200.541 246.405 200.649 246.506 200.787C247.428 201.685 248.249 202.715 249.003 203.738C249.147 203.666 249.296 203.63 249.464 203.559C251.17 202.954 252.912 202.493 254.625 202.032C253.703 200.894 252.775 199.757 251.745 198.691L251.757 198.679H251.745ZM261.12 197.925C260.695 197.32 260.163 196.823 259.69 196.255C258.019 196.787 256.349 197.32 254.667 197.817C254.349 197.925 254.026 197.997 253.709 198.111C254.313 198.895 254.99 199.613 255.672 200.35C255.99 200.703 256.313 201.062 256.63 201.415C258.594 200.775 260.552 200.134 262.539 199.565C262.078 199.033 261.617 198.464 261.108 197.931H261.12V197.925ZM265.706 214.916C265.814 215.167 265.958 215.377 266.096 215.628C266.485 215.52 266.88 215.413 267.197 215.275C269.269 214.563 271.328 213.844 273.394 213.204C272.076 211.425 270.682 209.719 269.299 208.007C267.191 208.683 265.06 209.366 262.952 210.042C263.91 211.677 264.802 213.287 265.688 214.922L265.7 214.91L265.706 214.916ZM261.857 208.474C263.928 207.833 265.988 207.229 268.017 206.588C267.095 205.415 266.203 204.313 265.305 203.176C264.737 202.427 264.168 201.673 263.599 200.972C261.635 201.505 259.714 202.11 257.798 202.858C258.295 203.463 258.827 204.068 259.324 204.708C260.222 205.918 261.031 207.205 261.857 208.486V208.474ZM254.241 211.21C255.379 210.749 256.552 210.288 257.69 209.815C258.552 209.498 259.396 209.21 260.258 208.917C258.899 207.211 257.546 205.504 256.127 203.858C256.02 203.75 255.912 203.607 255.834 203.505C253.948 204.109 251.984 204.606 250.093 205.283C250.446 205.816 250.805 206.384 251.122 206.917C252.188 208.312 253.23 209.725 254.224 211.192L254.236 211.204L254.241 211.21ZM243.633 208.498C244.698 210.348 245.836 212.168 246.77 214.126C246.842 214.233 246.914 214.377 246.949 214.515C248.728 213.449 250.548 212.629 252.398 211.874C252.326 211.767 252.29 211.695 252.218 211.581C251.649 210.48 250.973 209.474 250.218 208.48C249.614 207.618 249.045 206.738 248.512 205.84C246.878 206.552 245.303 207.366 243.633 208.043C243.561 208.043 243.525 208.079 243.453 208.079C243.525 208.222 243.561 208.33 243.633 208.468V208.492V208.498ZM242.711 206.498C242.711 206.498 242.747 206.498 242.783 206.462C244.417 205.822 245.992 204.996 247.59 204.295C247.482 204.115 247.339 203.942 247.237 203.762C246.704 202.9 246.063 202.02 245.459 201.086C245.387 200.942 245.279 200.793 245.207 200.661C244.639 200.805 244.106 200.954 243.537 201.122C242.968 201.302 242.399 201.475 241.831 201.655C241.406 201.798 240.969 201.948 240.549 202.044H240.514C241.154 203.571 241.944 205.037 242.717 206.498H242.711Z" fill="black"/>
<path d="M266.048 195.154L266.832 192.202L266.94 192.238V192.202C269.544 191.633 272.137 190.274 274.813 190.239C276.172 189.778 278.375 194.22 279.476 195.154C283.362 200.213 287.271 205.23 291.235 210.217C298.754 220.191 307.118 229.59 313.853 240.133C314.206 243.51 308.112 244.228 305.597 244.336C302.646 244.228 300.718 241.199 299.119 239.068C287.87 224.681 276.19 210.265 266.078 195.166L266.054 195.154H266.048ZM277.585 207.044C277.585 207.044 277.549 206.972 277.513 206.972L277.261 208.253C278.656 210.031 279.997 211.851 281.392 213.629L281.686 212.27C280.327 210.528 278.95 208.786 277.591 207.038L277.585 207.044ZM282.715 213.629L282.422 215.024C283.817 216.838 285.194 218.622 286.589 220.436L286.87 218.97C285.511 217.192 284.134 215.407 282.703 213.629H282.715ZM287.673 221.813C289.271 223.921 290.881 226.052 292.516 228.16L292.809 226.693C291.211 224.561 289.6 222.454 287.966 220.347L287.673 221.813ZM293.546 229.543C295.108 231.614 296.719 233.602 298.245 235.667L298.539 234.272C296.964 232.201 295.402 230.141 293.839 228.076L293.546 229.543ZM300.311 236.493C300.059 236.2 299.85 235.925 299.598 235.631L299.317 237.062C300.808 239.098 302.382 240.732 303.867 242.768C304.011 242.45 304.22 242.127 304.472 241.846C303.514 239.642 301.7 238.397 300.305 236.505V236.493H300.311ZM276.244 206.864L276.537 205.505C275.178 203.978 273.969 202.296 272.687 200.662L272.472 201.799C273.37 203.044 275.884 206.427 276.25 206.858L276.244 206.864ZM267.766 194.04L267.551 195.214C268.946 196.812 270.119 198.662 271.4 200.374L271.616 199.273C270.586 197.956 268.053 194.429 267.766 194.04ZM276.459 193.968C275.818 193.046 274.956 192.19 274.388 191.232C272.753 192.017 270.939 192.442 269.257 193.082C270.394 194.645 271.717 196.219 272.891 197.782C274.926 197.674 276.908 197.213 278.944 197.141C278.082 196.076 277.273 195.034 276.447 193.968H276.459ZM282.368 201.524C281.506 200.458 280.662 199.393 279.836 198.279C277.836 198.387 275.89 198.955 273.891 199.105C275.172 200.775 276.495 202.446 277.776 204.164C279.74 203.811 281.698 203.17 283.685 203.206C283.26 202.637 282.823 202.105 282.368 201.536V201.524ZM286.313 206.619C285.637 205.721 284.919 204.841 284.242 203.978C282.356 204.332 280.608 204.972 278.758 205.505C280.189 207.355 281.566 209.211 282.961 211.061C284.889 210.6 286.81 210.139 288.798 209.852C287.972 208.75 287.164 207.684 286.302 206.607L286.313 206.619ZM290.199 211.606C289.948 211.312 289.738 211.001 289.487 210.708C287.637 211.205 285.853 211.845 284.003 212.414C285.433 214.264 286.81 216.12 288.241 217.97C290.205 217.545 292.091 216.761 294.114 216.725C292.797 214.982 291.51 213.276 290.205 211.594V211.606H290.199ZM297.964 221.61C296.934 220.293 295.893 219.006 294.899 217.688C293.013 218.149 291.229 218.862 289.379 219.395C290.905 221.394 292.48 223.376 294.007 225.376C296.114 224.879 298.245 224.382 300.377 224.735C299.592 223.705 298.778 222.628 297.958 221.598L297.97 221.61H297.964ZM301.885 226.669C301.67 226.375 301.46 226.1 301.245 225.807C299.042 226.1 297.359 226.34 295.3 226.944C296.838 228.872 298.365 230.794 299.862 232.746C301.993 232.285 304.208 232.53 306.376 232.32C304.837 230.471 303.346 228.543 301.885 226.657V226.669ZM311.608 238.595C310.105 236.96 308.657 235.278 307.298 233.536C305.226 234.033 303.167 234.105 301.101 234.434C302.532 236.541 304.202 238.529 305.304 240.804C307.543 240.379 310.291 239.63 312.494 239.523C312.177 239.229 311.89 238.918 311.608 238.601V238.595ZM306.693 242.869C308.657 242.798 310.71 242.576 312.47 241.696C312.752 241.271 313.075 240.834 313.356 240.379C311.429 240.948 307.375 241.66 305.412 242.013C305.376 242.331 305.304 242.582 305.304 242.971C305.729 243.007 306.226 242.899 306.699 242.863V242.875L306.693 242.869Z" fill="black"/>
<path d="M317.362 147.331C317.433 147.151 317.469 146.977 317.541 146.798C317.871 145.84 318.182 144.834 318.535 143.882C320.169 139.039 321.78 134.195 323.414 129.316C325.157 124.119 326.899 118.917 328.647 113.684C330.389 108.452 332.131 103.249 333.915 98.0164C335.622 92.9575 337.292 87.9045 339.01 82.8456C340.681 77.8944 342.315 72.9433 343.997 68.0041C345.775 62.6997 347.56 57.4192 349.302 52.1208C350.936 47.2774 352.547 42.434 354.181 37.5906C355.851 32.5676 357.558 27.5506 359.24 22.5276C360.066 20.1089 360.874 17.7201 361.737 15.3014C362.198 13.9843 362.67 12.6612 363.167 11.38C363.383 10.8472 363.592 10.3143 363.808 9.81741V9.78148C363.88 9.60187 363.988 9.46418 364.125 9.35642H364.161L364.197 9.3205C364.269 9.28457 364.377 9.24865 364.449 9.24865C364.52 9.21272 364.556 9.21273 364.628 9.17681C364.736 9.14088 364.88 9.10497 364.981 9.10497C365.371 9.03312 365.766 9.03312 366.155 9.03312C367.292 8.96127 368.43 8.92536 369.567 8.92536C375.62 8.81759 381.637 8.85352 387.696 8.88944C394.138 8.92536 400.556 8.92536 406.998 8.96128C413.583 8.9972 420.169 8.9972 426.76 9.03312C432.999 9.06904 439.183 9.06905 445.421 9.10497C451.863 9.14089 458.317 9.14088 464.723 9.17681C471.069 9.21273 477.362 9.21272 483.672 9.24865C489.946 9.28457 496.166 9.28457 502.441 9.3205C508.104 9.35642 513.762 9.35641 519.426 9.39234C522.269 9.39234 525.155 9.42826 528.047 9.42826C528.226 9.42826 528.376 9.46418 528.508 9.53602C528.825 9.5001 529.184 9.60786 529.43 9.6797C532.07 10.6017 534.381 12.2481 536.692 13.7388C537.44 14.3076 538.835 14.7327 538.835 15.8702C538.835 15.942 538.799 16.0498 538.763 16.1216V16.1935C538.799 16.5108 538.727 16.834 538.655 17.1154C538.512 17.5764 538.374 18.0374 538.23 18.5104C537.841 19.7557 537.368 21.0069 536.949 22.2522C536.051 24.8924 535.063 27.5925 534.105 30.3405C531.687 37.0698 529.226 43.7691 526.765 50.4625C523.982 58.0778 521.174 65.7051 518.402 73.3564C515.63 81.0076 512.81 88.599 510.038 96.2503C507.122 104.267 504.165 112.283 501.249 120.324C498.298 128.448 495.304 136.524 492.353 144.648C489.509 152.407 486.647 160.208 483.803 167.967C480.996 175.69 478.14 183.396 475.326 191.119C472.542 198.698 469.77 206.254 466.998 213.833C465.07 219.066 463.185 224.268 461.257 229.501C461.257 229.573 461.257 229.68 461.185 229.794C460.934 230.291 460.251 230.327 459.754 230.435C458.359 230.614 456.97 230.728 455.551 230.752H454.084C452.306 230.752 450.558 230.68 448.816 230.572C448.355 230.536 447.678 230.572 447.11 230.429H446.361C446.361 230.429 446.29 230.429 446.254 230.393C446.146 230.357 446.074 230.357 445.96 230.321C445.924 230.321 445.888 230.321 445.852 230.285C445.781 230.285 445.745 230.249 445.673 230.249C445.637 230.249 445.601 230.249 445.529 230.213H445.457L445.421 230.177H445.35C445.35 230.177 445.242 230.141 445.206 230.105C444.38 229.68 443.607 229.207 442.823 228.71C440.752 227.501 438.764 226.214 436.734 224.933C436.345 224.681 435.95 224.436 435.597 224.184C435.28 225.142 435.064 226.112 434.771 227.028C434.166 229.704 433.633 232.368 432.921 235.045C432.885 235.152 432.813 235.296 432.741 235.362C432.777 235.541 432.741 235.751 432.633 236.002C432.598 236.11 432.562 236.182 432.49 236.254C432.49 236.398 432.418 236.547 432.346 236.679C432.274 236.823 432.238 236.93 432.166 236.996C432.131 237.248 432.023 237.529 431.741 237.745C431.634 237.817 431.562 237.888 431.46 237.924C431.28 238.176 430.999 238.349 430.712 238.421C429.221 239.134 427.76 239.984 426.126 240.385C419.283 242.696 412.021 243.63 404.866 244.163C407.71 246.899 410.494 249.683 413.344 252.455C415.014 254.053 416.589 255.699 418.187 257.37C419.253 258.471 420.426 259.501 421.396 260.71C421.965 261.243 422.18 262.177 421.432 262.674C421.252 262.782 421.067 262.854 420.899 262.854C420.618 262.997 420.223 263.105 420.013 263.171C417.738 263.704 415.385 263.997 413.074 264.416C409.793 265.314 406.489 266.123 403.172 266.835C400.328 267.332 397.466 267.769 394.623 268.374C390.42 269.367 386.295 270.685 382.092 271.678C382.02 271.678 381.948 271.714 381.841 271.714C381.451 271.714 381.092 271.463 380.907 271.146C380.691 270.966 380.517 270.756 380.302 270.577C378.452 268.799 376.596 267.051 374.746 265.272C372.818 263.458 370.932 261.638 369.005 259.788C367.077 257.939 365.131 256.083 363.203 254.233C361.204 252.347 359.258 250.419 357.258 248.527C355.295 246.677 353.337 244.785 351.421 242.935C349.457 241.049 347.512 239.193 345.548 237.308C343.548 235.38 341.567 233.494 339.567 231.566C337.603 229.68 335.658 227.824 333.73 225.939C331.802 224.089 329.88 222.197 328 220.347C326.073 218.461 324.151 216.569 322.337 214.605C322.121 214.39 321.912 214.144 321.66 213.857C321.445 213.605 321.127 213.252 321.199 212.899C321.235 212.827 321.271 212.719 321.343 212.684C321.307 212.151 321.696 211.69 322.229 211.582C323.546 211.33 324.833 211.121 326.15 210.869C328.425 210.444 330.7 210.043 333.029 209.624C335.34 209.199 337.693 208.762 340.004 208.343C342.315 207.918 344.59 207.517 346.919 207.098C349.266 206.673 351.619 206.236 354.001 205.817C355.211 205.601 356.42 205.391 357.671 205.176C358.204 205.068 358.773 204.996 359.306 204.883C359.599 204.847 359.839 204.811 360.132 204.739C360.276 204.739 360.425 204.703 360.557 204.703C360.689 204.703 360.85 204.703 360.946 204.775C361.162 204.847 361.299 204.99 361.407 205.164C361.551 205.38 361.587 205.661 361.515 205.912C361.499 205.992 361.499 205.992 361.515 205.912C361.551 205.733 361.479 205.984 361.479 206.02C361.551 206.056 361.587 206.092 361.659 206.128C363.862 207.595 365.754 209.469 367.783 211.187C369.418 212.468 371.028 213.959 372.734 215.39C374.369 216.785 376.015 218.233 377.47 219.808C377.65 220.023 377.823 220.197 378.003 220.377C378.039 220.377 378.075 220.377 378.075 220.341C378.715 220.269 379.356 220.269 380.003 220.269C383.487 219.916 386.953 219.275 390.438 218.988C392.437 218.844 394.359 218.126 396.275 217.707C397.945 217.246 399.592 216.389 400.939 215.324C402.334 214.222 403.357 212.719 404.256 211.229C404.752 210.019 405.249 208.768 405.686 207.523C405.968 206.882 406.004 206.092 406.399 205.559C406.471 205.487 406.507 205.451 406.578 205.451C406.225 205.236 405.902 205.026 405.549 204.811C401.274 202.039 396.963 199.327 392.653 196.555C388.235 193.711 383.828 190.849 379.404 188.006C375.021 185.198 370.615 182.378 366.233 179.528C361.886 176.72 357.54 173.936 353.205 171.122C348.931 168.386 344.656 165.638 340.381 162.867C336.107 160.131 331.832 157.383 327.557 154.611C325.707 153.401 323.815 152.192 321.966 151.012C321.289 150.587 320.607 150.114 319.93 149.695C319.637 149.516 319.361 149.342 319.068 149.163C318.852 149.019 318.607 148.869 318.391 148.737L318.355 148.702H318.212C318.104 148.702 317.996 148.702 317.894 148.666C317.505 148.45 317.218 147.839 317.398 147.307V147.354L317.362 147.331ZM525.76 11.4997L513.433 11.4638C507.38 11.4279 501.291 11.4279 495.232 11.392C488.886 11.356 482.594 11.356 476.248 11.3201C469.902 11.2842 463.574 11.2842 457.264 11.2483C450.881 11.2124 444.511 11.2124 438.111 11.1764C431.837 11.1405 425.581 11.1405 419.271 11.1046C412.685 11.0687 406.064 11.0327 399.472 11.0327C393.198 10.9968 386.941 10.9968 380.667 10.925C377.638 10.8891 374.65 10.8891 371.621 10.8172C370.226 10.7813 368.849 10.7813 367.49 10.7095C366.849 10.6735 366.173 10.6376 365.526 10.6017C365.418 10.6017 365.287 10.5658 365.137 10.5658C365.029 10.919 364.957 11.2782 364.856 11.6314C364.526 12.8049 364.179 13.9424 363.826 15.0799C362.287 19.9951 360.617 24.8745 358.983 29.7538C357.276 34.7768 355.63 39.8297 353.924 44.8528C352.253 49.8758 350.583 54.8568 348.901 59.8799C347.158 65.0765 345.416 70.2791 343.668 75.4757C342.034 80.391 340.387 85.3062 338.717 90.2215C337.011 95.3523 335.304 100.477 333.556 105.572L328.144 121.737C326.438 126.795 324.767 131.884 323.049 136.943C322.905 137.332 322.798 137.692 322.66 138.081C322.804 138.081 322.911 138.117 323.013 138.153H323.049C323.049 138.153 323.121 138.189 323.157 138.224C323.193 138.26 323.229 138.26 323.265 138.296C323.48 138.404 323.69 138.512 323.869 138.65L324.827 139.182C325.576 139.607 326.33 140.044 327.066 140.464C331.874 143.235 336.681 146.019 341.525 148.791C346.332 151.563 351.104 154.311 355.911 157.083C360.719 159.855 365.526 162.603 370.334 165.375C375.213 168.183 380.056 171.003 384.936 173.781C389.707 176.517 394.515 179.301 399.286 182.037C403.986 184.749 408.692 187.449 413.392 190.161C418.055 192.837 422.725 195.537 427.389 198.249C431.939 200.889 436.471 203.518 441.021 206.158C443.26 207.475 445.511 208.798 447.75 210.103C448.852 210.744 449.918 211.42 450.995 212.067C451.348 212.282 451.672 212.492 452.025 212.743C454.192 206.87 456.371 201.021 458.539 195.148C461.215 187.886 463.915 180.618 466.591 173.356C469.399 165.74 472.219 158.113 475.069 150.462C477.817 143.086 480.517 135.68 483.265 128.316C486.294 120.132 489.317 111.972 492.347 103.788C495.298 95.7713 498.292 87.7549 501.243 79.7145C502.77 75.5835 504.309 71.4585 505.829 67.3156C507.392 63.0409 508.966 58.8022 510.565 54.5276C513.558 46.4393 516.546 38.3989 519.575 30.3106C520.892 26.8262 522.215 23.2999 523.592 19.8036C524.305 17.9536 525.059 16.0977 525.796 14.2836C526.185 13.3257 526.58 12.3558 527.005 11.4399C526.58 11.5117 526.143 11.5117 525.724 11.4758L525.748 11.4997H525.76ZM450.51 228.453C452.181 228.561 453.827 228.561 455.497 228.561H456.743C457.527 228.525 458.485 228.525 459.347 228.561C460.484 225.46 461.586 222.4 462.724 219.299C465.4 211.995 468.064 204.733 470.74 197.471C473.512 189.915 476.26 182.372 479.032 174.816C481.876 166.986 484.761 159.149 487.653 151.318C490.682 143.098 493.67 134.824 496.699 126.604C499.579 118.695 502.501 110.792 505.392 102.848C508.236 95.1247 511.056 87.3837 513.906 79.6247C516.713 71.9016 519.569 64.1964 522.383 56.4733C524.915 49.5225 527.478 42.5837 530.034 35.6748C531.244 32.3581 532.495 29.0533 533.74 25.7366C534.453 23.8507 535.171 21.9948 535.872 20.1089C536.225 19.151 536.62 18.223 537.009 17.2651C537.117 16.9717 537.225 16.7323 537.362 16.4808C536.937 16.2653 536.578 15.8762 536.189 15.6546C534.758 14.7327 533.309 13.8765 531.878 12.9785C531.345 12.5534 529.879 11.8051 528.927 11.0507C528.783 11.2303 528.573 11.368 528.358 11.4399C528.286 11.6195 528.25 11.829 528.178 12.0086C527.897 12.9306 527.574 13.8945 527.292 14.8165C526.688 16.6305 526.047 18.4505 525.442 20.2645C524.341 23.4376 523.167 26.7064 521.994 29.9873C520.713 33.5495 519.39 37.1416 518.084 40.7038C516.594 44.721 515.091 48.7921 513.63 52.8093C512.056 57.084 510.457 61.3586 508.895 65.6692C505.829 73.9611 502.77 82.2709 499.705 90.5627C496.753 98.6151 493.76 106.62 490.808 114.672C487.928 122.431 485.067 130.196 482.187 137.967C479.379 145.522 476.595 153.102 473.781 160.681C471.045 168.129 468.297 175.523 465.561 182.971C462.813 190.418 460.041 197.854 457.305 205.296C455.42 210.391 453.528 215.479 451.642 220.61C450.684 223.179 449.756 225.771 448.798 228.333C449.295 228.333 449.936 228.369 450.54 228.405L450.528 228.453H450.51ZM403.25 242.085C409.907 241.977 416.606 240.876 423.084 239.241C424.587 238.709 425.964 238.415 427.467 237.775C428.179 237.559 429.317 236.673 430.275 236.38C430.311 236.308 430.382 236.236 430.454 236.164C430.454 236.164 430.49 236.128 430.526 236.128C430.562 236.02 430.598 235.877 430.67 235.739C430.67 235.703 430.706 235.667 430.706 235.667C430.706 235.524 430.742 235.35 430.813 235.17C430.885 235.027 430.921 234.919 431.029 234.817C430.993 234.356 431.173 233.859 431.31 233.422C431.64 232.213 431.879 231.003 432.172 229.824C432.669 227.549 433.202 225.274 433.951 223.017C433.064 222.448 432.208 221.915 431.31 221.347C429.784 220.389 428.281 219.383 426.796 218.395C426.653 219.497 426.503 220.598 426.299 221.676C425.802 224.244 424.773 226.663 423.527 228.98C422.168 231.512 420.318 234.075 417.439 234.817C414.774 235.715 411.991 235.991 409.255 236.559C407.219 236.948 405.16 237.2 403.13 237.481C401.663 237.775 400.178 238.014 398.676 238.158C399.777 239.259 400.879 240.361 402.064 241.403C402.304 241.618 402.561 241.828 402.777 242.079C402.885 242.043 403.094 242.043 403.274 242.079H403.25V242.085ZM407.524 207.649C407.171 209.211 406.74 210.786 406.165 212.276C404.884 214.773 402.992 216.976 400.502 218.329C399.221 218.97 397.933 219.688 396.52 219.892C395.018 220.281 393.527 220.79 391.994 220.993C387.444 221.382 382.912 222.352 378.362 222.52C377.686 222.52 377.332 221.987 377.332 221.454C376.339 220.67 375.369 219.856 374.381 219.072C371.208 216.575 368.035 214.084 364.94 211.492C363.485 210.175 362.168 209.032 360.461 207.93C360.246 207.786 360.036 207.541 360 207.217V206.924C359.683 206.996 359.36 207.068 359.042 207.104C358.18 207.283 357.336 207.421 356.51 207.565C354.127 207.99 351.738 208.463 349.356 208.882C347.045 209.307 344.692 209.744 342.369 210.163C340.058 210.588 337.783 210.989 335.466 211.408C333.155 211.833 330.838 212.27 328.515 212.654C326.809 212.971 325.103 213.294 323.384 213.576C323.774 213.893 324.169 214.216 324.522 214.569C326.522 216.348 328.467 218.132 330.431 219.946C332.395 221.76 334.352 223.616 336.304 225.466C338.304 227.351 340.321 229.279 342.321 231.171C344.249 233.021 346.206 234.841 348.122 236.691C350.086 238.577 352.068 240.469 354.067 242.355C356.067 244.24 358.025 246.132 360.012 248.018C361.976 249.904 363.922 251.76 365.885 253.646C367.849 255.496 369.759 257.352 371.723 259.202C373.609 261.016 375.536 262.836 377.428 264.65C379.099 266.248 380.805 267.859 382.487 269.457C382.559 269.457 382.631 269.421 382.703 269.421C383.804 269.17 384.87 268.817 385.983 268.535C390.935 267.14 395.922 265.859 401.011 265.123C405.028 264.554 408.991 263.452 412.937 262.554C414.996 262.201 417.103 262.129 419.175 261.914H419.78L419.708 261.842C418.923 260.884 418.001 260.064 417.139 259.202C413.727 255.604 410.129 252.155 406.59 248.617C404.022 245.845 401.106 243.42 398.61 240.564C398.185 239.924 395.401 237.32 396.868 236.859C396.975 236.859 397.083 236.859 397.197 236.895C397.269 236.505 397.55 236.182 398.083 236.068C399.256 235.925 400.466 235.775 401.645 235.571C404.357 235.039 407.129 234.823 409.841 234.212C412.26 233.751 414.721 233.464 417.067 232.65C420.594 231.62 422.833 225.992 424.114 222.748C424.443 221.79 424.683 220.82 424.898 219.832C425.042 219.335 425.228 218.197 425.575 217.485C425.431 217.377 425.282 217.269 425.114 217.192C422.947 215.761 420.767 214.348 418.6 212.953C416.505 211.594 414.397 210.241 412.29 208.894C410.787 207.936 409.261 206.966 407.764 206.014V206.086C407.692 206.583 407.584 207.116 407.512 207.613L407.536 207.625L407.524 207.649ZM320.846 147.714C321.271 148.007 321.672 148.247 322.091 148.498L333.664 155.982C337.939 158.718 342.213 161.466 346.488 164.238C350.798 167.009 355.109 169.793 359.42 172.565C363.73 175.337 368.077 178.157 372.387 180.929C376.841 183.773 381.284 186.67 385.744 189.55C390.198 192.394 394.641 195.292 399.065 198.171C403.304 200.907 407.542 203.655 411.781 206.427C413.888 207.786 415.984 209.139 418.091 210.486C420.235 211.881 422.402 213.258 424.533 214.617C426.7 215.976 428.88 217.353 431.011 218.712C432.939 219.958 434.825 221.173 436.752 222.418C438.752 223.735 440.698 225.023 442.661 226.34C443.56 226.944 444.404 227.549 445.266 228.154C445.559 228.369 445.87 228.579 446.164 228.794C446.415 228.118 446.661 227.477 446.912 226.795C448.475 222.592 450.013 218.431 451.576 214.228C451.432 214.156 451.325 214.12 451.187 214.049C450.546 213.731 449.942 213.408 449.301 213.055C447.026 211.809 444.739 210.522 442.494 209.241C440.219 207.96 437.944 206.637 435.687 205.356C431.059 202.715 426.425 200.051 421.797 197.375C417.169 194.699 412.499 192.035 407.836 189.359C403.064 186.623 398.257 183.839 393.485 181.103C388.749 178.367 384.014 175.655 379.272 172.919C374.429 170.111 369.549 167.327 364.706 164.513C359.863 161.741 355.019 158.921 350.14 156.149C345.332 153.377 340.525 150.593 335.682 147.821C333.335 146.462 330.982 145.109 328.635 143.762C327.462 143.086 326.288 142.403 325.109 141.727C324.54 141.409 323.971 141.05 323.402 140.733C323.049 140.517 322.69 140.308 322.337 140.128C322.265 140.092 322.193 140.056 322.157 140.021C322.121 140.021 322.121 139.985 322.085 139.985C321.301 142.296 320.523 144.648 319.738 146.995C320.128 147.175 320.523 147.456 320.876 147.708H320.852L320.846 147.714Z" fill="black"/>
<path d="M186.458 73.1762C186.069 73.1402 185.596 73.1402 185.141 73.1402C185.177 73.248 185.177 73.3558 185.177 73.4336C185.249 74.3556 184.35 74.9962 183.614 75.3614C183.399 75.4332 183.153 75.5051 182.938 75.5051C182.04 75.5051 181.159 74.9004 180.902 74.0383C180.866 73.9664 180.866 73.8587 180.866 73.7868C179.124 74.3197 177.49 75.104 175.951 76.0619C175.807 76.0978 175.699 76.1337 175.562 76.1337C174.64 76.1337 174.059 74.8166 174.957 74.17C177.525 72.5356 180.441 71.3621 183.47 71.1406H183.895C185.069 71.1406 186.314 71.1406 187.236 71.9249C188.062 72.7092 187.38 73.3558 186.452 73.1702H186.464L186.458 73.1762Z" fill="black"/>
<path d="M281.979 238.199C281.764 237.523 281.542 236.84 281.231 236.199C280.806 235.277 280.201 234.493 279.525 233.817C279.064 232.314 277.675 230.68 276.531 229.362C276.603 229.219 276.603 229.045 276.531 228.866C276.352 228.512 276.178 228.189 276.034 227.836C275.855 227.447 275.717 227.087 275.538 226.698C275.358 226.309 275.148 225.95 274.933 225.597C274.717 225.243 274.544 224.92 274.328 224.603C273.358 223.184 272.293 221.831 271.155 220.586C270.054 219.412 268.916 218.275 267.707 217.209C267.102 216.676 266.461 216.143 265.779 215.646C265.527 215.467 265.282 215.293 264.995 215.15C264.899 215.078 264.791 215.006 264.677 214.97C264.36 214.826 264.073 214.79 263.755 214.754C263.354 214.718 257.301 216.113 255.667 216.682C248.231 219.143 241.963 223.98 235.264 227.872C228.714 231.925 221.907 235.559 215.214 239.373C209.945 242.3 204.461 244.857 199.013 247.461C196.918 248.562 194.702 249.532 192.571 250.598C191.613 250.382 190.643 250.197 189.727 249.886C188.554 249.484 187.38 249.245 186.201 249.059C188.44 248.67 190.619 247.922 192.787 247.245C197.313 245.539 201.264 242.581 204.97 239.558C206.568 238.163 208.107 236.601 209.281 234.822C210.711 232.404 211.777 229.776 212.525 227.063C214.872 218.478 213.376 209.432 211.627 200.889C210.951 197.404 209.849 193.986 208.347 190.777C206.736 187.861 204.958 184.976 202.791 182.449C202.551 178.528 202.294 174.618 201.869 170.727C201.192 164.417 200.222 158.16 199.797 151.85C199.725 149.85 199.797 147.539 201.078 145.869C203.425 142.989 206.161 140.457 208.161 137.32C209.688 134.68 210.328 132.973 209.083 129.98C208.185 126.915 207.155 123.819 205.269 121.251C204.371 120.293 203.03 118.515 201.635 118.515C201.539 118.551 201.396 118.587 201.282 118.623C201.174 118.078 200.821 117.449 200.641 117.156C200.037 116.294 199.36 115.486 198.606 114.695C198.678 114.222 198.438 113.69 198.289 113.264C197.403 111.085 196.049 109.193 194.307 107.637C193.373 106.535 192.2 106.463 191.098 106.924C190.967 106.781 190.817 106.643 190.673 106.463C190.745 106.427 190.781 106.392 190.817 106.356C192.308 104.188 193.457 101.877 193.81 99.2731C194.104 97.6267 194.379 95.9204 193.99 94.2501C193.954 94.1423 193.954 94.0705 193.918 93.9567C196.061 93.388 197.911 92.3223 198.301 89.9754C198.408 88.329 197.379 86.9461 196.702 85.5571C196.63 85.4134 196.522 85.2398 196.451 85.0961C197.337 84.4914 198.049 83.5934 198.618 82.6774C199.444 81.3603 200.013 79.9054 200.432 78.4027C200.893 76.936 201.168 75.3973 201.39 73.8766C201.557 72.3739 201.671 70.8832 201.707 69.3865C201.743 66.3212 201.504 63.226 200.713 60.2684C200.324 58.8016 199.791 57.3528 199.043 56.0297C198.271 54.7126 197.193 53.3536 195.63 52.9644C195.241 52.8566 194.768 52.8207 194.421 52.9644C194.786 52.0065 195.062 51.0007 195.283 50.0129C195.888 47.3367 196.067 44.5648 195.852 41.8527C195.648 39.0808 195.044 36.3448 194.146 33.6686C193.26 31.1003 192.05 28.6456 190.661 26.3287C189.23 23.9459 187.524 21.7008 185.638 19.6353C183.824 17.6716 181.837 15.8576 179.729 14.1873C177.586 12.5049 175.311 11.0142 172.922 9.69708C170.575 8.37996 168.079 7.27837 165.51 6.38034C155.279 2.78221 150.16 1.42917 137.408 0.860416C134.516 0.71673 131.595 0.716728 128.787 1.42917C119.453 3.00372 110.515 6.60185 102.684 11.9003C97.5111 15.3128 92.5959 19.1624 88.5068 23.7902C80.4544 33.3693 75.4314 45.9717 73.6892 58.3347C73.2283 62.3878 73.3001 66.4948 73.6533 70.5898C73.8689 74.1161 74.258 77.6484 75.0483 81.0609C75.7847 84.4735 76.539 87.892 77.8202 91.1369C79.5983 95.5193 81.7057 99.7939 83.873 104.033C84.8788 105.984 85.9444 107.942 87.0819 109.87C87.4831 110.475 87.8662 111.079 88.5128 111.432C88.3811 111.564 88.2314 111.714 88.0877 111.858C87.2615 112.594 86.5132 113.139 85.9803 114.097C84.9506 115.695 84.0286 117.306 83.1725 119.012C82.2026 121.047 81.562 122.113 81.6698 123.215C80.4963 123.179 79.3828 123.64 78.4249 124.28C77.1796 125.017 76.0421 125.735 74.8627 126.519C71.6537 128.687 68.2412 130.615 65.1759 133.033C59.0513 137.583 53.3817 142.684 47.4726 147.492C44.7246 150.06 41.9527 152.551 39.4202 155.322C37.6421 157.394 35.8221 159.417 34.0081 161.447C30.3022 166.051 27.201 170.888 23.8603 175.66C21.2201 179.605 18.508 183.533 16.3048 187.765C13.2754 193.471 10.4556 199.266 8.21652 205.283C6.47433 210.528 4.97161 215.832 3.76226 221.244C3.15758 224.088 2.76844 226.95 2.19968 229.793V229.853C0.768811 238.51 -0.332777 247.263 0.0922931 255.956C0.307822 259.722 0.493414 263.5 0.876575 267.242C1.2298 270.157 1.90632 273.055 2.58284 275.899C4.21726 282.137 5.63616 288.501 8.9529 294.099C12.9102 300.792 18.7475 306.462 25.5905 310.168C28.9791 311.874 32.6131 313.083 36.1753 314.335C40.1207 315.436 44.1199 316.538 48.1372 317.328C53.8427 318.358 59.614 318.926 65.3794 318.962C67.7263 318.926 70.0791 318.681 72.426 318.645C73.9886 318.609 75.5272 318.645 77.0898 318.537C78.2273 318.501 79.3648 318.244 80.4664 318.394C80.7179 318.465 80.9992 318.394 81.2148 318.25C82.2445 318.926 83.2862 319.603 84.3519 320.178C86.1659 321.243 87.986 322.345 89.9796 323.129C91.7936 323.734 93.6136 324.375 95.3917 325.165C99.9538 326.943 104.582 328.685 109.353 329.865C113.556 330.637 117.867 331.571 122.177 331.571C127.236 331.463 132.229 330.493 136.995 328.895C142.443 327.176 147.639 324.788 152.591 321.98C156.356 320.064 160.314 318.418 163.912 316.214C165.229 315.388 166.552 314.604 167.761 313.646C168.683 312.969 169.575 312.107 170.605 311.539C171.102 312.215 172.108 312.568 173.706 312.568C174 312.568 174.275 312.532 174.568 312.532C176.772 312.239 178.915 311.359 181.046 310.683C183.854 309.617 186.387 307.97 188.841 306.336C193.284 303.732 197.169 300.247 200.659 296.47C203.371 293.404 206.82 291.057 209.352 287.813C210.394 286.142 211.035 284.286 211.352 282.364C214.064 280.479 215.806 279.084 218.614 277.377C224.415 273.492 229.935 269.157 235.276 264.703C239.658 260.925 243.861 256.908 248.171 253.017C251.805 249.82 255.086 246.042 259.253 243.545C264.384 240.157 268.479 238.702 274.64 239.84C275.669 239.947 276.675 240.115 277.669 240.408C278.95 240.869 280.698 241.222 281.764 240.157C282.297 239.624 282.273 238.876 281.979 238.229V238.199ZM204.329 203.457C204.258 202.559 203.443 191.807 203.264 188.711C203.192 187.574 203.12 186.472 203.048 185.335C204.222 187.251 205.395 189.136 206.425 191.136C207.784 193.98 208.664 197.045 209.418 200.075C210.945 207.762 212.519 215.778 211.232 223.573C209.233 233.428 206.113 236.744 197.947 242.192C196.265 243.15 194.667 244.252 192.888 244.964C191.493 245.533 190.009 245.898 188.542 246.359L188.566 246.347C184.788 247.413 180.807 247.706 176.957 247.06C174.137 246.635 171.401 245.958 168.797 244.857C167.378 244.288 165.989 243.647 164.852 242.617C163.349 241.552 162.008 240.307 160.613 239.091C159.972 238.654 159.619 237.774 158.799 237.696C157.769 236.726 156.811 235.697 156.027 234.559C155.165 233.242 154.381 231.895 153.92 230.392C153.135 228.105 152.381 225.83 151.884 223.513C151.591 222.436 151.812 221.334 151.884 220.268C152.345 213.898 152.986 207.456 154.303 201.188C154.872 197.979 155.913 194.878 157.584 192.106C159.398 189.478 161.966 187.514 164.534 185.7C166.025 184.73 167.66 184.161 169.085 183.203C169.12 183.629 169.156 184.03 169.192 184.413C169.408 186.448 169.653 188.508 169.869 190.537C169.905 191.034 169.965 191.675 170.222 192.1C170.318 192.884 170.426 193.663 170.575 194.447C170.964 196.518 171.497 198.578 172.138 200.607C172.455 201.673 172.85 202.715 173.239 203.744C174.233 206.277 175.407 208.696 176.802 210.971C178.047 213.006 179.478 214.964 181.076 216.712C182.89 218.676 184.962 220.418 187.351 221.627C187.53 221.735 187.74 221.843 187.919 221.921C189.057 222.418 190.194 222.771 191.404 222.95C191.877 223.022 192.374 223.058 192.835 223.058C193.733 223.058 194.613 222.962 195.475 222.705C197.971 221.993 199.953 220.137 201.312 218.005L201.348 217.969C202.707 215.766 203.527 213.27 203.952 210.707C204.12 209.498 204.27 208.289 204.341 207.037C204.413 205.864 204.413 204.655 204.341 203.439L204.329 203.457ZM160.984 248.778C162.343 248.066 163.624 247.239 164.798 246.317C165.037 246.138 165.403 245.928 165.72 245.713C165.864 245.82 166.037 245.928 166.181 246.006C168.276 247.036 170.527 247.82 172.802 248.425C171.904 248.568 171.024 248.742 170.162 248.922C167.27 249.383 164.385 249.987 161.505 250.52C159.799 250.796 157.943 250.724 156.344 251.442C155.812 251.771 155.494 252.268 155.386 252.837C155.093 252.741 154.854 252.634 154.602 252.448C154.213 252.196 153.818 251.951 153.429 251.664C155.961 250.742 158.745 250.382 160.984 248.784V248.778ZM148.711 156.939C148.508 154.592 147.256 152.592 145.939 150.701C144.269 148.096 142.197 145.785 140.383 143.289C138.821 141.301 137.282 139.343 135.755 137.38C137.037 136.134 138.138 134.716 139.318 133.398C140.563 132.015 141.886 130.698 143.167 129.303C145.059 127.453 146.945 125.562 148.759 123.598C148.759 123.67 148.795 123.706 148.795 123.777C148.831 123.921 148.939 123.993 149.088 123.993C154.925 133.255 157.602 144.223 157.985 155.089C158.045 157.825 157.949 160.537 157.733 163.273C157.661 165.985 157.129 168.649 156.452 171.254C155.099 169.464 153.537 167.901 152.177 166.123C150.932 164.728 149.831 163.171 148.4 161.956C148.897 160.31 149.004 158.603 148.717 156.933L148.711 156.939ZM164.403 128.465C162.828 130.704 162.72 133.512 162.936 136.081C163.265 139.529 163.834 142.995 164.439 146.408C163.612 145.127 162.768 143.84 161.942 142.558C160.697 140.427 159.17 138.499 157.739 136.506C157.266 135.865 156.805 135.189 156.308 134.506C156.057 133.794 155.812 133.111 155.524 132.399C154.626 130.195 153.489 127.884 152.279 125.885C151.495 124.747 150.848 123.388 149.896 122.359C150.89 121.281 151.896 120.179 152.848 119.042C153.417 118.401 154.021 117.832 154.59 117.192C155.416 117.689 156.308 118.162 157.23 118.509C159.931 120.072 162.996 120.892 166.019 121.538C167.229 121.754 168.402 122.035 169.581 122.179C167.27 124.43 164.57 127.884 164.385 128.453L164.397 128.465H164.403ZM158.152 182.329C158.26 179.486 157.985 176.624 157.763 173.816C158.332 172.966 158.5 171.852 158.793 170.9C158.937 169.966 159.218 169.122 159.398 168.224C159.787 165.841 159.859 163.453 160.038 161.07C160.427 153.951 159.745 146.761 157.931 139.846C157.967 139.882 157.967 139.918 158.003 139.954C159.745 142.654 161.355 145.438 163.026 148.174H163.014C163.948 149.665 164.72 151.239 165.582 152.766C165.582 152.838 165.618 152.946 165.654 153.017C166.684 159.07 167.618 165.123 168.073 171.254C168.324 174.738 168.618 178.204 168.935 181.653C167.396 182.575 165.618 183.036 164.02 183.892C161.391 185.466 158.937 187.352 156.937 189.633C157.542 187.251 158.003 184.79 158.146 182.329H158.152ZM201.629 120.107C203.168 121.137 204.198 122.82 204.946 124.454C205.94 126.268 206.688 128.196 207.329 130.118C208.371 132.393 208.155 133.458 206.868 135.53C205.269 138.445 202.569 140.798 200.498 143.361C196.481 147.066 197.87 152.94 198.259 157.747C198.684 162.375 199.432 166.973 199.857 171.601C200.318 175.546 200.486 179.617 200.779 183.563C201.072 188.262 202.21 202.05 202.21 202.439C202.21 202.912 202.246 203.409 202.246 203.87V203.894C202.246 204.559 202.246 205.277 202.102 206.061C202.03 207.456 201.935 208.833 201.713 210.192C201.569 211.222 201.324 212.228 201.037 213.222C200.821 213.922 200.564 214.641 200.252 215.353C200.037 215.886 199.755 216.383 199.468 216.88C199.432 216.916 199.432 216.952 199.396 216.988C199.145 217.377 198.863 217.772 198.57 218.125C198.319 218.454 198.037 218.73 197.744 219.023C197.492 219.275 197.247 219.484 196.96 219.7C196.708 219.879 196.427 220.053 196.133 220.232C195.84 220.364 195.565 220.514 195.271 220.622C194.978 220.729 194.702 220.837 194.409 220.915C194.092 220.987 193.768 221.059 193.451 221.095C193.134 221.13 192.775 221.13 192.457 221.13C192.068 221.13 191.709 221.095 191.32 221.023C190.931 220.951 190.494 220.843 190.11 220.729C189.638 220.55 189.141 220.376 188.716 220.197C188.111 219.945 187.542 219.616 187.009 219.298C186.369 218.861 185.728 218.436 185.117 217.939C184.309 217.263 183.555 216.58 182.842 215.832C181.908 214.874 181.064 213.832 180.274 212.767C179.304 211.408 178.424 210.031 177.598 208.564C176.64 206.822 175.82 205.038 175.137 203.331L175.101 203.26C174.275 201.224 173.599 199.129 173.102 197.063C172.701 195.56 172.425 194.034 172.204 192.537C172.096 192.004 172.06 191.471 171.988 190.974V190.795C171.952 190.579 171.916 190.37 171.773 190.19C171.701 189.454 171.629 188.735 171.557 188.023C171.24 185.131 170.893 182.246 170.635 179.33C170.03 171.93 169.569 164.524 168.288 157.22C167.187 150.246 165.696 143.187 164.948 136.212C164.84 134.284 164.696 132.255 165.588 130.507C166.51 128.765 167.719 127.202 169.001 125.735C170.03 124.562 171.108 123.496 172.03 122.287C173.88 122.143 175.772 121.61 177.299 120.545C177.095 121.939 177.059 123.4 177.406 124.963C177.658 126.208 178.412 129.489 179.975 129.489C180.19 129.489 180.4 129.417 180.615 129.309C180.819 129.166 181.184 128.836 181.537 128.447C181.573 129.22 181.645 129.974 181.789 130.722C181.932 131.824 182.465 132.925 183.681 132.925H183.896C184.609 132.89 185.213 132.381 185.824 132.063C185.824 132.063 185.86 132.027 185.896 132.027C185.86 132.099 185.86 132.207 185.86 132.279C185.824 133.38 185.644 134.518 185.788 135.62C185.932 136.613 186.83 137.505 187.823 137.505C188.117 137.505 188.392 137.434 188.686 137.254C189.679 136.757 190.392 135.949 191.068 135.051C191.248 136.164 191.673 137.014 192.775 136.554C193.559 136.057 194.17 135.308 194.846 134.626C196.055 133.231 197.558 132.165 198.732 130.74C199.372 130.04 199.69 128.998 200.546 128.537C200.689 128.902 200.839 129.285 201.294 129.363C201.695 129.435 202.078 129.112 202.12 128.723C202.228 127.406 200.911 126.687 199.809 127.406C197.241 129.549 194.601 131.752 192.469 134.356C192.577 132.506 193.038 130.615 193.715 128.908C194.104 127.795 194.283 126.621 194.924 125.627C195.966 124.197 197.385 123.131 198.738 122.065C199.624 121.317 200.516 120.527 201.617 120.102L201.629 120.107ZM186.788 106.026C187.177 105.859 187.614 106.17 187.961 106.32C188.566 106.571 189.027 107.068 189.56 107.493C189.691 107.601 189.799 107.709 189.949 107.786C189.62 108.068 189.344 108.391 189.123 108.744C187.309 111.516 185.56 114.372 183.89 117.258C183.142 118.689 182.148 120.006 181.89 121.604C181.783 122.682 181.783 123.783 181.711 124.849C181.711 125.202 181.675 125.562 181.675 125.915C181.423 126.166 181.214 126.448 181.07 126.663C180.777 126.957 180.502 127.232 180.208 127.525L180.232 127.501C179.424 125.609 179.131 123.664 179.202 121.664C179.298 119.994 180.124 118.503 180.801 117C181.867 114.725 182.836 112.51 183.866 110.229C184.674 108.738 185.357 107.056 186.782 106.026H186.788ZM199.402 118.126V118.138C199.696 118.419 199.911 118.802 200.228 119.096C199.378 119.593 198.63 120.269 197.917 120.91C196.379 122.191 194.78 123.406 193.571 124.963C192.93 125.969 192.673 127.142 192.29 128.244C191.721 129.477 191.26 130.8 191.116 132.189C191.116 132.333 191.08 132.47 191.08 132.65C191.08 132.65 191.044 132.686 191.009 132.686C189.871 133.458 189.009 134.638 187.907 135.422C187.614 133.255 188.003 131.076 188.296 128.944C188.476 127.513 188.626 126.1 189.045 124.741C189.434 123.64 190.075 122.67 190.643 121.676C191.428 120.257 192.29 118.868 193.355 117.617C194.182 116.623 194.75 115.342 195.774 114.552C197.205 115.474 198.193 116.934 199.408 118.114L199.402 118.126ZM193.882 109.355H193.87C194.84 110.385 195.541 111.63 196.367 112.839C194.792 112.45 193.439 114.085 192.517 115.48C191.272 117.09 189.949 118.653 188.991 120.431C188.069 121.862 187.117 123.532 186.86 125.238C186.566 126.765 186.363 128.339 186.219 129.866H186.111C185.303 130.183 184.585 130.615 183.872 131.076C183.483 128.765 183.836 126.376 183.836 124.065C183.908 123.167 183.8 122.287 184.016 121.425C184.297 120.616 184.764 119.862 185.189 119.114C186.656 116.581 188.141 114.091 189.608 111.558C190.709 109.924 191.775 106.619 193.882 109.355ZM194.188 54.0241C194.403 54.2276 194.684 54.2995 194.972 54.4132C195.104 54.4492 195.211 54.4851 195.325 54.5569C195.421 54.6288 195.529 54.7006 195.642 54.7724C195.774 54.8682 195.924 54.976 196.067 55.1257C196.211 55.2754 196.385 55.443 196.528 55.6226C196.708 55.8381 196.882 56.0836 197.025 56.335C197.241 56.7601 197.45 57.1612 197.666 57.5803C197.959 58.2927 198.199 58.9753 198.414 59.6159C198.414 59.6518 198.45 59.6877 198.45 59.7236C198.78 60.8252 199.019 61.9268 199.199 63.0643V63.1002C199.438 64.6628 199.588 66.2254 199.624 67.6862C199.66 69.3925 199.588 71.0748 199.408 72.6374C199.264 74.0323 199.007 75.4093 198.696 76.7683C198.444 77.7023 198.151 78.5824 197.834 79.4804C197.582 80.0851 197.337 80.6538 197.049 81.1867L197.073 81.1986C196.894 81.5519 196.684 81.8752 196.397 82.2284C196.217 82.4798 196.044 82.6535 195.864 82.869C195.768 83.0007 195.624 83.1444 195.475 83.2581C195.475 83.294 195.439 83.294 195.403 83.33C194.361 81.6117 193.188 79.9773 192.194 78.2351C191.865 77.7023 190.835 75.5949 190.266 74.637C190.302 74.164 190.338 73.703 190.374 73.242C191.158 73.8108 192.757 74.1042 193.439 73.8108C194.72 73.6312 194.978 71.883 193.583 71.7034C192.553 71.9189 191.475 71.7034 190.446 71.8471V70.0331C190.41 68.8956 190.302 67.7221 190.152 66.5846C189.973 65.3753 189.715 64.2018 189.404 63.0224C189.308 62.6692 189.2 62.3459 189.087 61.9927C190.446 60.49 191.655 58.8555 192.649 57.0774C193.194 56.0836 193.691 55.0419 194.116 53.9762C194.152 53.9762 194.152 54.0121 194.188 54.0121V54.0241ZM85.7588 102.901C83.6275 98.8061 81.5919 94.6093 79.8498 90.3706C78.1435 86.0001 77.2574 81.3243 76.4013 76.7384C75.8326 71.7992 75.3237 66.8121 75.5751 61.819C75.6709 57.6522 76.5689 53.5152 77.7064 49.492C79.1014 44.0679 81.3764 38.985 83.9448 34.0638C85.9684 30.5255 88.2194 27.0771 90.9914 24.0896C94.1644 20.713 97.7626 17.8273 101.54 15.1152C106.635 11.553 112.083 8.43385 117.92 6.32646C122.303 4.76388 126.829 3.77005 131.385 2.98577C133.055 2.73432 134.702 2.77024 136.372 2.77024C145.766 2.77024 154.752 4.72197 160.589 6.7156C161.798 7.14067 163.086 7.49989 164.295 7.96088C164.756 8.14049 165.229 8.27819 165.654 8.45779C165.69 8.49372 165.726 8.49371 165.726 8.49371H165.762C167.905 9.34385 169.965 10.3437 171.922 11.4093C173.772 12.4391 175.592 13.6125 177.299 14.8578C178.933 16.0671 180.496 17.3903 181.962 18.7792C183.321 20.0604 184.603 21.4434 185.776 22.9102C186.842 24.2692 187.871 25.6462 188.769 27.113V27.1489L188.805 27.1848C189.655 28.6157 190.404 30.0286 191.08 31.5313C191.685 32.8903 192.182 34.2314 192.607 35.6623C192.996 36.9674 193.307 38.3264 193.529 39.6795C193.697 40.9248 193.81 42.176 193.846 43.4572C193.846 44.6306 193.81 45.84 193.667 47.0194C193.523 48.0851 193.349 49.1987 193.098 50.1206C192.817 51.1145 192.493 52.1203 192.14 53.0722C192.104 53.1081 192.104 53.144 192.104 53.144V53.1799C191.703 54.1379 191.278 55.0538 190.787 55.9519C190.29 56.814 189.757 57.6581 189.153 58.4843C188.871 58.8735 188.548 59.2327 188.231 59.6218C188.087 59.2686 187.913 58.9094 187.734 58.5562C187.482 58.0473 187.201 57.5504 186.907 57.0894C186.59 56.5446 186.231 56.0477 185.842 55.5867C185.453 55.1257 185.016 54.6886 184.561 54.3414C184.028 53.9163 183.459 53.5332 182.854 53.2398C182.25 52.9464 181.609 52.7429 180.968 52.6351C180.268 52.4915 179.514 52.4915 178.801 52.5992C177.664 52.7429 176.55 53.2039 175.592 53.8445C173.533 55.2035 171.994 57.269 170.857 59.4003C169.755 61.5436 168.965 63.8187 168.438 66.1715C168.145 67.3449 167.977 68.4825 167.833 69.6559C166.72 69.7637 165.618 69.8355 164.516 69.8714C162.565 69.8954 160.607 69.7996 158.679 69.5781C156.901 69.3745 155.117 69.0811 153.375 68.6561C153.195 68.6201 152.986 68.5842 152.77 68.5124H152.734C152.483 68.4406 152.201 68.4405 151.95 68.5842C151.746 68.692 151.525 68.9375 151.453 69.1889C151.381 69.4404 151.381 69.7577 151.525 70.0151C151.633 70.2546 151.878 70.4761 152.13 70.5479C153.375 70.8772 154.662 71.1526 155.943 71.3741C158.404 71.7992 160.93 72.0507 163.463 72.0507H163.714C165.019 72.0507 166.342 71.9788 167.66 71.871C167.624 72.4398 167.588 73.0085 167.588 73.5773C167.588 75.996 167.803 78.4207 168.336 80.7676C168.618 82.0128 169.013 83.2641 169.474 84.4735C170.042 85.8684 170.707 87.1855 171.605 88.3949C172.317 89.4007 173.18 90.2808 174.209 90.9633C175.215 91.6398 176.353 92.0648 177.526 92.2085C177.777 92.2445 177.987 92.2445 178.238 92.2445C179.137 92.2445 179.981 92.1008 180.807 91.7835C181.908 91.3943 182.902 90.7537 183.758 89.9694C185.465 88.4667 186.752 86.4851 187.704 84.4136C188.273 83.2042 188.745 81.9171 189.099 80.7436C189.488 79.3846 189.799 78.0076 190.021 76.6486C190.589 80.2108 193.158 83.0905 194.684 86.2995C195.181 87.3292 195.858 88.2632 196.211 89.3288C196.451 90.0772 195.882 90.646 195.385 91.1069C193.571 92.2205 191.404 92.3522 189.368 92.5737C188.338 92.7174 187.225 92.6456 186.303 92.1128C186.051 91.8194 185.878 91.5081 185.59 91.2147C185.165 90.7537 184.309 90.7896 183.992 91.3943C183.663 91.9272 183.956 92.6037 184.309 92.9928C185.171 94.3878 187.045 94.735 188.548 94.735C189.65 94.6033 191.009 94.5315 192.326 94.3099C192.397 95.7408 192.122 97.1537 191.829 98.5128H191.817C191.523 100.788 190.571 102.931 189.284 104.673C189.248 104.745 189.212 104.781 189.177 104.817C188.428 104.176 187.566 103.715 186.536 103.787C185.165 104.128 184.064 105.338 183.148 106.811C180.424 107.523 174.694 106.811 170.887 103.584C170.509 103.26 169.941 103.308 169.623 103.685C169.3 104.063 169.348 104.631 169.725 104.949C173.018 107.745 177.508 108.846 180.873 108.846C181.292 108.846 181.693 108.822 182.07 108.792C181.412 110.163 180.873 111.54 180.406 112.552C179.376 114.791 178.274 116.934 177.67 119.174C177.065 119.174 176.532 119.491 175.963 119.563C174.934 119.706 173.892 119.952 172.862 120.024C170.659 120.263 168.372 119.73 166.205 119.275C163.93 118.766 161.763 118.162 159.655 117.24C158.661 116.695 157.62 116.162 156.59 115.737C154.243 114.528 152.279 112.821 150.351 111.037C149.579 110.361 148.897 109.583 148.22 108.798C147.651 108.158 147.011 107.224 146.089 107.9C145.52 108.289 145.592 109.217 146.089 109.606C146.562 110.175 147.059 110.708 147.52 111.241C149.19 112.947 151.004 114.618 152.968 116.012C152.872 116.12 152.764 116.228 152.65 116.306C151.124 117.701 149.807 119.275 148.412 120.796C145.927 123.436 143.329 125.957 140.796 128.591C138.581 130.806 136.618 133.267 134.45 135.542C133.492 134.368 132.522 133.159 131.535 131.98C128.583 128.591 125.518 125.322 122.309 122.185C119.776 119.437 117.286 116.593 115.005 113.636C114.711 113.282 114.436 112.923 114.143 112.57C114.215 111.929 114.286 111.325 114.394 110.684C114.646 109.217 112.796 107.296 112.652 108.116C112.287 110.032 112.083 111.953 111.826 113.881C108.156 112.708 104.21 112.815 100.433 112.067C98.5049 111.738 96.655 111.169 94.7691 110.672C93.0269 110.139 91.1351 110.103 89.4647 109.391C87.962 107.403 86.9323 105.044 85.7588 102.877V102.901ZM174.293 68.5064C172.826 68.9315 171.342 69.2428 169.947 69.4643C169.983 69.2129 170.018 69.0033 170.054 68.7519C170.27 67.4707 170.563 66.1476 170.916 64.9023C171.27 63.8007 171.629 62.759 172.09 61.7292C172.407 60.9569 172.838 60.1666 173.263 59.4542C173.617 58.9214 173.976 58.3885 174.365 57.8916C174.646 57.5384 175.006 57.1792 175.323 56.826C175.64 56.5326 175.963 56.2572 176.281 55.9998C176.574 55.8202 176.85 55.6465 177.143 55.4669C177.394 55.3352 177.604 55.2275 177.855 55.1137C178.107 55.0059 178.352 54.9341 178.604 54.8623C178.819 54.8263 179.029 54.7904 179.244 54.7545C179.424 54.7186 179.633 54.7186 179.849 54.7186C180.064 54.7545 180.274 54.7545 180.49 54.7904C180.705 54.8263 180.915 54.8623 181.13 54.9341C181.346 55.0059 181.555 55.0778 181.735 55.1496C181.986 55.2454 182.232 55.3532 182.447 55.5028C182.699 55.6465 182.944 55.8202 183.16 55.9998C183.453 56.2153 183.693 56.4608 183.944 56.7122C184.333 57.1373 184.692 57.5743 185.046 58.0293C185.261 58.3466 185.471 58.7058 185.686 59.0591C186.039 59.7356 186.351 60.454 186.644 61.1306L186.68 61.2383L186.716 61.3102L186.704 61.2982C186.063 61.9747 185.387 62.5794 184.597 63.19C183.71 63.9025 182.783 64.5491 181.825 65.1537C180.723 65.8662 179.55 66.4709 178.34 67.0037C177.119 67.5365 175.892 68.0095 174.658 68.3867C175.263 68.219 175.143 68.2609 174.287 68.5064H174.293ZM171.336 71.3622C172.617 71.1107 173.904 70.7814 175.006 70.4641C177.538 69.7158 180.029 68.7219 182.31 67.3629L182.334 67.3749C184.183 66.2972 185.896 65.052 187.392 63.4894C187.686 64.7347 187.889 66.0218 188.033 67.1593C188.177 68.3687 188.249 69.5421 188.249 70.7216V71.5837C188.213 73.1223 188.117 74.613 187.859 76.1098C187.644 77.4269 187.386 78.7141 186.997 79.9953C186.68 81.025 186.321 82.0308 185.896 83.0246C185.578 83.7969 185.147 84.5513 184.722 85.2997C184.369 85.8684 183.974 86.4372 183.657 86.8622C183.303 87.2873 182.944 87.6884 182.555 88.0716C182.304 88.365 181.986 88.5685 181.693 88.82C181.441 88.9996 181.16 89.1732 180.867 89.3528C180.615 89.4845 180.37 89.5923 180.118 89.706C179.867 89.8138 179.621 89.8856 179.37 89.9575C179.154 89.9934 178.945 90.0293 178.729 90.0652C178.478 90.1012 178.268 90.1012 178.053 90.1012C177.873 90.0652 177.664 90.0652 177.448 90.0293C177.233 89.9934 177.023 89.9575 176.808 89.8856C176.592 89.8497 176.418 89.7419 176.203 89.6701C175.987 89.5743 175.742 89.4665 175.526 89.3169C175.275 89.1732 175.065 88.9996 174.814 88.82C174.563 88.6404 174.317 88.3949 174.102 88.1794C173.808 87.8621 173.533 87.5028 173.239 87.1496C172.91 86.6766 172.635 86.2156 172.341 85.7547C171.988 85.1141 171.713 84.4375 171.419 83.755C171.09 82.857 170.815 81.965 170.557 81.043C170.264 79.8336 170.06 78.6243 169.917 77.4089C169.737 76.014 169.665 74.637 169.701 73.2061C169.701 72.6733 169.737 72.1405 169.773 71.6076C170.306 71.5358 170.803 71.4639 171.336 71.3562V71.3622ZM84.9985 120.012C85.9684 118.126 86.9981 116.234 88.2434 114.492L88.2554 114.48C89.1893 113.707 89.9976 112.881 90.8956 112.241C91.8535 112.42 92.8952 112.558 93.8471 112.845C96.3796 113.594 98.7265 114.204 101.295 114.588C103.935 114.941 106.635 115.156 109.204 115.617C109.976 115.725 110.73 115.935 111.443 116.222C111.76 116.33 112.083 116.438 112.401 116.438C112.568 116.438 112.718 116.402 112.862 116.366C113.466 116.114 113.67 115.539 113.819 114.935C115.879 118.06 118.298 120.952 120.794 123.759C124.644 127.681 128.457 131.74 131.948 136.015C135.797 140.858 139.671 145.701 143.377 150.689C145.556 153.754 147.19 156.077 146.658 160.022C146.622 160.447 146.514 160.848 146.364 161.232C145.975 161.483 145.724 162.016 145.867 162.477C145.37 163.554 144.766 164.62 144.305 165.686C142.778 169.026 140.856 172.164 138.893 175.265C137.755 177.115 136.797 179.114 135.444 180.857C134.803 181.593 134.085 183.449 132.912 182.383C131.301 181.138 130.415 179.258 129.062 177.755C128.092 176.582 127.32 175.259 126.458 173.978C125.099 172.026 123.686 170.104 122.327 168.14C118.22 162.375 113.454 157.136 108.755 151.868C103.558 146.031 98.4032 140.182 93.2664 134.314C90.8058 131.578 88.2793 128.687 85.8905 125.873C85.214 124.951 84.3878 124.095 83.7831 123.101C83.855 121.999 84.5674 120.994 84.9925 120L84.9985 120.012ZM170.234 310.479C169.372 310.718 168.456 311.215 168.198 311.401C163.744 314.466 158.829 316.645 153.986 318.956C150.633 320.483 147.496 322.441 144.083 323.836C141.168 325.291 138.03 326.296 134.929 327.248C131.223 328.458 127.386 329.134 123.5 329.32C120.573 329.559 117.615 329.068 114.771 328.643C111.03 328.039 107.288 327.176 103.696 325.931C100.57 324.794 97.3255 323.584 94.2662 322.297C92.3744 321.513 90.3448 321.052 88.5607 320.022C85.22 318.244 82.047 316.149 78.9098 314.005C76.7426 312.61 74.5394 311.257 72.4679 309.695C70.6898 308.449 69.1152 306.959 67.409 305.642C65.5351 304.067 63.5355 302.612 61.6077 301.079C57.2612 297.978 52.9506 294.883 48.9334 291.357C47.6881 290.076 46.4369 288.86 45.2994 287.507C44.4492 286.549 43.7368 285.4 42.9525 284.406C40.9289 281.838 38.8575 279.275 37.0794 276.497C35.5048 273.689 34.1158 270.768 33.1579 267.673C32.3078 265.422 31.5954 263.147 31.0266 260.794C30.4578 258.866 30.2902 256.884 29.9969 254.921C29.8532 253.963 29.6795 252.993 29.464 252.041C29.3203 251.472 28.7516 251.071 28.1828 251.215C27.6141 251.358 27.2129 251.927 27.3566 252.496C27.6081 253.49 27.7817 254.531 27.9254 255.525C28.4582 261.105 30.386 266.385 32.3078 271.618C33.1939 273.546 34.0859 275.539 35.1157 277.395C36.9656 280.311 39.1867 283.023 41.3121 285.759C44.0601 289.668 47.3648 293.171 51.2144 296.015C56.3332 300.11 61.8232 303.738 66.8821 307.941C70.2588 310.97 74.0006 313.46 77.8142 315.849C78.0297 315.993 78.2393 316.125 78.4548 316.274C75.8146 316.526 73.1504 316.454 70.5102 316.568C67.9179 316.747 65.3495 316.897 62.7871 316.783C58.4765 316.568 54.13 316.214 49.8913 315.466C46.2214 314.897 42.7011 313.856 39.1029 312.934C36.6064 312.293 34.1877 311.395 31.7989 310.473C29.7753 309.725 27.7398 308.898 25.8539 307.833C18.5918 303.594 12.4971 297.14 9.01277 289.453C7.59388 286.136 6.59407 282.61 5.67208 279.126C4.42681 274.282 3.11568 269.403 2.82831 264.38V264.428C2.49903 258.92 2.00211 253.4 2.11586 247.766C2.40922 239.893 3.82213 232.098 5.18116 224.339C6.49828 217.46 8.42605 210.659 10.7729 204.074C13.5209 197.512 16.5503 191.106 20.1065 185.017C22.3815 181.276 24.8421 177.642 27.3327 174.049C29.9729 170.212 32.5772 166.326 35.4928 162.728C37.6601 160.381 39.7316 157.957 41.8629 155.574C44.2098 153.215 46.6344 150.898 49.125 148.659C50.9031 147.096 52.8668 145.707 54.6449 144.109C60.6618 138.948 66.7504 133.817 73.5216 129.651C75.8445 128.148 78.0477 126.513 80.4724 125.16C80.8017 125.017 80.8975 125.017 81.1848 124.945C81.5381 124.873 81.8973 124.873 82.2505 124.837C82.5319 125.274 82.927 125.735 83.388 126.268C86.6688 130.363 90.267 134.249 93.7154 138.194C98.8761 144.103 104.115 149.988 109.347 155.861C111.73 158.561 114.047 161.309 116.394 164.045C119.345 167.643 121.974 171.481 124.65 175.295C125.656 176.893 126.721 178.42 127.931 179.845C129.469 181.695 130.96 184.76 133.636 184.76C133.816 184.76 133.989 184.76 134.169 184.724C136.63 184.191 139.982 176.815 141.688 174.54C142.61 172.87 143.676 171.296 144.568 169.625C145.562 167.775 146.418 165.847 147.34 163.962C148.148 164.788 148.867 165.704 149.651 166.566C150.513 167.488 151.214 168.53 152.034 169.481C152.896 170.368 153.668 171.295 154.417 172.253C154.842 172.786 155.315 173.283 155.698 173.852C155.913 174.091 156.243 174.241 156.56 174.277C156.56 174.492 156.56 174.702 156.524 174.882C156.416 177.486 156.416 180.114 156.099 182.713C155.919 184.251 155.53 185.706 155.237 187.167C154.74 189.585 153.92 191.902 153.387 194.321C153.315 194.926 152.842 195.53 153.093 196.171C153.129 196.243 153.165 196.279 153.201 196.351C152.668 198.057 152.267 199.799 151.956 201.547C150.842 206.852 150.351 211.234 149.932 216.604C148.723 212.898 146.753 210.408 145.358 206.774C144.754 205.541 142.94 206.421 143.58 207.672C144.149 209.031 149.633 220.735 149.597 220.993C149.232 223.741 150.369 226.441 151.124 229.045C152.118 232.643 153.908 236.02 156.644 238.624C157.105 239.121 157.673 239.522 158.206 239.941C158.595 240.223 158.991 240.678 159.452 240.863C160.918 242.18 162.379 243.468 163.978 244.605C161.882 245.85 159.775 247.102 157.536 248.054C155.62 248.766 153.554 249.047 151.699 249.939C150.244 248.197 149.202 246.066 148.214 244.03C142.413 229.536 139.701 214.09 134.929 199.266C132.193 192.741 128.984 186.442 124.602 180.922C120.052 175.726 114.807 170.703 108.898 167.105C107.797 166.536 105.264 165.602 105.156 167.53C105.228 168.23 105.869 168.595 106.515 168.524C107.946 168.775 109.12 169.697 110.293 170.487C114.957 174.229 119.651 178.15 123.392 182.85C127.338 188.083 130.439 194.064 132.972 200.116C136.24 210.132 138.456 220.532 141.377 230.602C144.185 238.217 147.005 253.645 156.404 255.208C158.039 256.914 160.038 258.273 161.319 260.267C163.882 264.218 166.157 268.343 168.186 272.57C168.192 272.582 168.198 272.594 168.198 272.594C169.593 275.731 170.659 279.048 171.192 282.424C172.473 288.088 172.898 293.889 172.329 299.667C172.078 301.942 171.503 304.193 170.863 306.396C170.33 308.066 170 309.461 170.222 310.491L170.234 310.479ZM207.664 286.627C206.173 288.519 204.323 290.123 202.503 291.686C200.121 293.901 198.013 296.398 195.624 298.565C193.128 301.121 190.105 303.043 187.111 304.971C184.65 306.569 182.124 308.132 179.316 308.988C177.61 309.521 175.904 310.269 174.084 310.383H174.048C172.132 310.347 171.988 310.455 172.521 308.419C173.018 306.713 173.527 305.007 173.916 303.259C174.742 299.798 174.778 296.236 174.7 292.71C174.628 288.184 173.694 283.735 172.772 279.317C171.743 274.803 169.779 270.564 167.504 266.565C165.905 263.572 164.271 260.584 162.2 257.872C160.841 256.13 158.895 254.956 157.5 253.244C159.595 252.783 161.763 252.747 163.87 252.25C167.366 251.574 170.893 250.784 174.419 250.365C174.856 250.329 175.317 250.293 175.772 250.293C177.406 250.293 179.089 250.61 180.651 250.646C181.825 250.825 183.034 250.861 184.213 250.939C185.776 251.071 187.351 251.436 188.877 251.861C189.871 252.226 190.949 252.43 191.978 252.646C192.158 252.789 192.368 252.861 192.583 252.861C192.655 252.861 192.763 252.861 192.835 252.825C194.194 253.118 195.547 253.43 196.756 254.106C201.803 257.136 204.832 262.512 206.868 267.846C209.364 273.648 211.035 280.874 207.652 286.615L207.664 286.627ZM276.448 237.882C272.951 237.421 269.317 236.852 265.899 237.954C261.588 239.271 257.667 241.875 254.176 244.647C250.931 247.359 248.052 250.46 244.879 253.232C241.999 255.801 239.173 258.429 236.329 261.027C234.234 263.027 232.019 264.625 229.852 266.511C225.685 269.744 221.488 272.989 217.064 275.869C214.938 277.15 213.471 278.216 211.699 279.527C211.735 276.719 211.238 273.863 210.526 271.169C210.101 269.57 209.424 268.08 208.784 266.541C207.933 264.47 207.077 262.374 205.868 260.488C203.449 256.675 200.174 252.693 195.72 251.442C198.564 250.083 201.384 248.742 204.198 247.347C206.946 246.078 209.682 244.863 212.322 243.402C219.548 239.48 226.744 235.457 233.827 231.296C239.311 228.087 244.579 224.417 250.099 221.43C253.841 219.394 261.708 216.868 263.456 216.407C263.672 216.371 263.881 216.407 264.061 216.55C264.701 217.119 266.797 218.933 267.587 219.652C268.617 220.61 269.622 221.579 270.539 222.531C270.928 222.921 271.323 223.393 271.712 223.813C270.293 222.418 268.718 220.711 266.551 221.28C262.845 222.382 259.6 224.561 256.188 226.267C255.511 226.62 254.793 226.944 254.081 227.297C253.901 227.405 253.727 227.512 253.512 227.59C252.979 227.806 252.727 228.524 252.979 229.021C253.44 229.991 254.398 229.626 255.11 229.201C256.613 228.488 258.026 227.71 259.493 226.962C261.42 225.932 263.294 224.794 265.366 223.968C266.042 223.639 266.683 223.256 267.437 223.22C268.503 222.968 269.251 224.25 269.898 224.818C270.431 225.351 270.928 225.92 271.425 226.489C272.598 227.872 273.843 229.225 275.095 230.584C273.556 229.799 271.886 229.338 270.179 229.303C269.15 229.195 268.216 229.554 267.3 229.907C266.437 230.159 265.593 230.344 264.803 230.692C262.989 231.464 261.205 231.973 259.499 232.931C258.894 233.206 258.325 233.463 257.756 233.853C256.403 234.739 257.331 235.631 258.858 234.99C260.325 234.385 261.822 233.913 263.348 233.487C264.779 233.014 266.12 232.338 267.623 232.021C268.76 231.631 269.718 231.272 270.964 231.488C272.706 231.817 274.376 232.494 275.843 233.559C277.807 234.709 279.405 236.415 279.974 238.654C278.764 238.618 277.663 238.013 276.448 237.87V237.882Z" fill="black"/>
<path d="M174.401 68.471C174.492 68.4469 174.576 68.4168 174.666 68.3867C174.582 68.4108 174.48 68.4409 174.365 68.471H174.401Z" fill="black"/>
<path d="M168.213 272.579C168.213 272.579 168.208 272.569 168.202 272.558C168.202 272.552 168.192 272.547 168.181 272.547C168.181 272.547 168.181 272.579 168.213 272.579Z" fill="black"/>
<path d="M332.857 132.23C358.995 148.263 445.883 197.224 445.883 197.224L511.23 21.5504L369.143 21.0176L368.862 22.0473C368.862 22.0473 344.393 97.7577 332.851 132.23H332.857Z" fill="white"/>
<path d="M445.884 198.29C445.991 198.29 446.135 198.254 446.249 198.218C446.53 198.11 446.782 197.901 446.889 197.577L512.236 21.9037C512.344 21.5864 512.308 21.2271 512.129 20.9098C511.949 20.5925 511.596 20.4488 511.231 20.4488L369.144 19.916C368.683 19.916 368.258 20.2333 368.114 20.7003L367.82 21.73C367.503 22.7598 343.256 97.7936 331.821 131.877C331.678 132.338 331.857 132.871 332.282 133.122C358.134 149.006 444.501 197.643 445.345 198.152C445.524 198.26 445.698 198.296 445.878 198.296V198.284L445.884 198.29ZM509.704 22.6161L445.315 195.685C435.275 190.022 359.169 147.036 334.138 131.769C340.155 113.791 349.417 85.3708 356.224 64.5723C367.653 29.4951 369.581 23.4782 369.892 22.3407H369.928L370 22.0893L509.698 22.6221L509.704 22.6161Z" fill="black"/>
<path d="M459.64 55.1376C455.09 54.7964 451.695 50.4738 452.073 45.4747C452.45 40.4757 456.431 36.698 460.981 37.0212C465.531 37.3625 468.926 41.6851 468.549 46.6841C468.171 51.6832 464.19 55.4609 459.64 55.1376Z" fill="#6F479F"/>
<path d="M426.574 51.9405C422.395 51.6352 419.288 47.6659 419.623 43.0679C419.965 38.482 423.617 35.0036 427.808 35.3209C431.986 35.6262 435.094 39.5955 434.758 44.1935C434.417 48.7794 430.765 52.2578 426.574 51.9405Z" fill="#9959D9"/>
<g opacity="0.6">
<path d="M393.545 48.234C389.994 47.9706 387.348 44.588 387.636 40.6905C387.929 36.793 391.036 33.8355 394.586 34.1049C398.137 34.3684 400.783 37.751 400.496 41.6484C400.202 45.5459 397.095 48.5034 393.545 48.234Z" fill="#E1CBF1"/>
</g>
<path d="M435.412 44.0859L450.606 45.2234V45.4749L435.388 44.3374V44.0859H435.412Z" fill="black"/>
<path d="M402.334 41.6484L418.959 42.8937L418.935 43.1452L402.31 41.8999L402.334 41.6484Z" fill="black"/>
<path d="M380.003 73.3618C382.679 65.4172 384.667 59.5859 384.667 59.5859L456.599 67.7461L450.618 83.8389L380.003 73.3678V73.3618Z" fill="#E1CBF1"/>
<path d="M373.345 93.9098C376.009 85.9652 377.823 80.9062 377.823 80.9062L448.911 91.3055L441.865 109.889L373.345 93.8918V93.9038V93.9098Z" fill="#E1CBF1"/>
<path d="M367.185 112.93C369.861 104.985 371.142 101.279 371.142 101.279L439.83 117.336L433.496 135.68L367.179 112.93H367.185Z" fill="#E1CBF1"/>
<path d="M359.952 131.094C362.628 123.149 363.898 119.443 363.898 119.443L429.813 143.056L423.832 162.112L359.952 131.094Z" fill="#6F479F"/>
<path d="M113.353 111.791C113.85 111.791 114.311 111.438 114.419 110.893C114.598 109.792 114.634 108.582 114.67 107.445C114.742 105.631 114.814 103.775 115.382 102.637C116.34 100.752 118.118 99.3207 120.19 98.8598C121.112 98.6442 122.118 98.6083 123.183 98.5664C123.608 98.5664 124.01 98.5305 124.429 98.4945C125.746 98.4227 127.674 98.1773 129.164 97.0278C133.122 94.1481 130.763 90.2566 129.2 87.6942C128.883 87.1614 128.596 86.7004 128.338 86.2274C126.907 83.5153 127.697 79.1449 130.152 76.2532C131.218 75.0079 133.469 73.0083 136.498 74.05C140.312 75.2953 143.341 78.4684 144.443 82.306C144.515 82.6233 144.622 82.9106 144.694 83.2279C144.91 84.0901 145.119 84.9342 145.556 85.7963C146.341 87.323 147.688 88.3288 149.083 88.4006C151.118 88.5084 152.717 86.7303 153.064 84.9522C153.417 83.1381 152.771 81.3541 152.28 80.1806C152.1 79.7915 151.926 79.4323 151.747 79.079C151.322 78.181 150.885 77.3368 150.681 76.4747C150.077 74.0141 150.789 72.0205 152.884 70.5297C153.381 70.1765 153.489 69.5359 153.136 69.027C152.783 68.5301 152.142 68.4224 151.633 68.7756C148.825 70.7752 147.748 73.6549 148.568 76.9956C148.861 78.0972 149.316 79.0671 149.777 80.025C149.957 80.3782 150.13 80.7374 150.274 81.0906C150.915 82.5215 151.136 83.6231 150.915 84.5391C150.735 85.4371 149.957 86.3172 149.101 86.2813C148.316 86.2453 147.67 85.497 147.358 84.8504C147.041 84.2098 146.862 83.4914 146.646 82.7191C146.574 82.4018 146.466 82.0426 146.395 81.7252C145.077 77.1992 141.515 73.5052 137.061 72.0384C133.96 71.0087 130.787 72.0744 128.404 74.9181C125.41 78.4804 124.518 83.7788 126.332 87.2452C126.626 87.7421 126.901 88.2749 127.254 88.8077C129.033 91.7593 129.99 93.6871 127.787 95.2856C126.961 95.8903 125.824 96.2076 124.153 96.3153C123.764 96.3512 123.369 96.3512 122.98 96.3872C121.878 96.4231 120.741 96.459 119.603 96.7404C116.927 97.381 114.616 99.201 113.407 101.656C112.622 103.218 112.545 105.326 112.485 107.361C112.449 108.463 112.413 109.6 112.233 110.57C112.126 111.139 112.527 111.708 113.131 111.779C113.239 111.744 113.275 111.744 113.347 111.744L113.359 111.791H113.353Z" fill="black"/>
<path d="M138.988 92.9864H139.485C140.09 92.9504 140.515 92.4535 140.515 91.8848C140.515 91.316 140.018 90.855 139.413 90.855C137.563 90.9269 136.037 90.4299 134.887 89.2924C132.923 87.3646 132.504 84.1976 132.54 82.8146C132.576 80.9647 134.007 78.8333 135.917 78.7196C136.982 78.6836 138.084 79.2165 138.796 80.1864C139.293 80.827 139.623 81.6532 139.754 82.5332C139.575 82.5692 139.401 82.5691 139.222 82.641C138.3 82.8924 137.623 83.6707 137.551 84.5269C137.408 85.9218 140.431 88.3046 140.796 88.586C141.257 88.9392 141.934 88.8793 142.299 88.3705C142.652 87.9095 142.592 87.2329 142.083 86.8677C141.55 86.4427 140.305 85.3052 139.808 84.7005C140.06 84.6286 140.413 84.6646 140.766 84.7005L141.94 84.8442V83.6348C141.94 81.8208 141.407 80.1504 140.437 78.8633C139.299 77.3605 137.485 76.5164 135.773 76.5882C133.241 76.696 130.469 79.0848 130.361 82.7488C130.325 84.5987 130.894 88.3764 133.354 90.8371C134.857 92.3038 136.731 93.0043 138.982 93.0043L138.994 92.9804L138.988 92.9864Z" fill="black"/>
</svg>
