<svg width="476" height="205" viewBox="0 0 476 205" fill="none" xmlns="http://www.w3.org/2000/svg">
<path d="M24.9815 203.794C20.8658 203.257 14.5386 205.093 15.4744 199.293C7.81626 198.189 2.80981 194.393 2.65419 186.052C-0.343529 155.606 -1.23629 120.782 18.8898 95.9414C21.5742 90.8979 27.5758 91.7365 32.3366 89.996C40.4022 87.0468 54.2011 84.1325 58.6608 83.6109C59.8259 83.3982 61.5685 90.8039 68.4341 92.7141C77.7263 95.2992 84.6595 91.9655 88.1773 84.1979C96.3658 86.3147 105.668 91.4133 113.126 94.7184C132.955 98.7106 135.416 119.751 134.562 137.046C133.841 156.735 134.935 179.26 126.124 195.816C122.317 202.095 116.977 199.892 111.035 200.686C108.83 200.324 109.663 201.694 109.069 203.062C104.241 204.075 47.8207 203.514 24.9835 203.799L24.9815 203.794Z" fill="#E1CBF1"/>
<path d="M99.3866 55.8394C96.907 51.5424 101.797 44.8015 100.572 39.8705C101.561 25.0572 84.3878 36.6064 76.3591 30.6467C72.1901 27.5544 67.1202 21.5681 62.8652 27.2742C58.168 29.7816 59.0075 57.7475 56.3108 53.7206C56.1367 53.4588 56.0282 53.1602 55.9708 52.8514C53.6898 40.5536 46.1013 26.7445 53.9294 14.7495C65.8793 -3.28299 81.8672 3.9938 96.4462 13.6819C123.176 13.5408 127.603 38.3939 106.502 51.2745C102.7 48.264 100.765 53.2113 99.3907 55.8353L99.3866 55.8394Z" fill="#3F3D56"/>
<path d="M73.4079 93.44C66.6467 93.395 61.5952 88.6277 59.5987 83.893C61.5133 72.8552 58.4295 70.8734 58.4295 70.8734C58.4295 70.8734 56.2693 63.3634 55.7512 62.2406C50.4418 60.7988 47.2249 51.3684 54.7418 47.2698C55.5772 47.4007 55.2946 53.5342 57.0904 53.7408C58.8862 53.9474 58.7879 45.0856 58.8903 43.4514C59.0541 33.8656 61.63 21.2305 71.3541 26.7279C90.8783 43.3655 105.742 16.0418 98.3746 55.9619C99.0851 58.9601 101.233 48.2311 105.05 50.9409C111.09 54.4996 102.994 61.8745 99.7117 65.1182C97.7665 65.9424 96.7775 65.5272 95.639 67.4763C95.3625 67.9487 93.6118 71.4542 93.1716 71.7794C89.1193 74.7756 87.2171 75.4812 88.0013 81.3611C86.1544 87.9118 84.0146 93.9492 73.41 93.442L73.4079 93.44Z" fill="#FFCBAE"/>
<path d="M109.373 163.588C106.941 163.014 94.7592 162.928 91.6816 161.674C94.2678 148.505 105.786 136.508 122.294 141.294C123.6 141.672 120.942 143.4 120.226 143.762C124.372 143.545 131.971 146.374 125.289 148.638C129.196 148.875 128.789 152.622 121.54 153.025C126.084 157.13 112.07 161.181 109.373 163.588Z" fill="#FFCBAE"/>
<path d="M44.0894 171.339C39.9225 170.104 30.6836 169.355 30.6836 169.355C30.6836 169.355 28.8326 153.828 30.6652 153.161C37.3753 152.885 43.3953 152.898 50.9347 155.049C48.6638 157.935 45.4163 159.624 44.0915 171.341L44.0894 171.339Z" fill="#FFCBAE"/>
<path d="M39.2735 170.165C38.3562 169.488 36.8245 169.859 35.9707 169C35.2827 168.903 34.7298 167.024 35.9461 167.462C37.2545 167.01 38.1862 167.668 39.1629 166.417C40.0004 166.437 42.2671 170.521 39.2735 170.165Z" fill="#5D2B9D"/>
<path d="M41.0213 157.428C40.4131 155.769 36.6967 157.414 38.689 154.806C40.4418 152.511 44.5002 153.843 44.5002 153.843C44.5002 153.843 41.6827 159.232 41.0213 157.428Z" fill="#5D2B9D"/>
<path d="M35.6435 166.674C31.753 165.965 32.3714 159.379 35.5083 157.318C41.9031 153.115 46.4119 166.711 35.6435 166.674ZM39.6957 159.737C39.7223 159.645 39.7592 159.571 39.665 159.506C39.6773 159.582 39.6875 159.659 39.6957 159.737Z" fill="white"/>
<path d="M22.0082 91.9169C22.0082 91.9169 22.0185 91.9086 22.0247 91.9023C22.0165 91.9106 22.0102 91.9169 22.002 91.9231C22.004 91.921 22.0061 91.9189 22.0102 91.9169H22.0082Z" fill="black"/>
<path d="M121.498 97.3018C121.498 97.3018 121.515 97.3162 121.523 97.3245C121.515 97.3162 121.506 97.31 121.498 97.3018Z" fill="black"/>
<path d="M86.9163 83.6724V83.6765C86.9163 83.6765 86.9163 83.689 86.9121 83.6952C86.9121 83.6869 86.9142 83.6807 86.9163 83.6724Z" fill="black"/>
<path d="M83.9323 33.0273C83.9323 33.0273 83.9323 33.0273 83.9277 33.0296H83.93L83.9323 33.0273Z" fill="black"/>
<path d="M99.8828 15.5391C99.887 15.5495 99.8933 15.562 99.8974 15.5746C99.8933 15.562 99.887 15.5516 99.8828 15.5391Z" fill="black"/>
<path d="M102.705 143.237C102.778 140.549 102.49 137.864 102.617 135.181C102.711 133.796 102.748 132.405 102.918 131.033C102.953 130.857 103.086 130.252 103.331 130.538C103.358 130.794 103.374 131.062 103.397 131.326C103.518 134.091 103.501 136.862 103.794 139.619C103.876 140.821 103.899 142.032 103.913 143.239C103.919 143.568 103.634 143.842 103.309 143.842C102.983 143.842 102.707 143.568 102.705 143.239V143.237Z" fill="black"/>
<path d="M27.5294 91.741C27.5315 91.7019 27.5665 91.6772 27.6035 91.6772C27.6406 91.6772 27.6694 91.7143 27.6674 91.7513C27.6653 91.7904 27.6303 91.8151 27.5932 91.8151C27.5562 91.8151 27.5273 91.7781 27.5294 91.741Z" fill="black"/>
<path d="M19.293 94.443C19.293 94.443 19.3058 94.4322 19.3123 94.4258C19.3123 94.4258 19.3101 94.4279 19.308 94.4301C19.3037 94.4344 19.2973 94.4387 19.293 94.443Z" fill="black"/>
<path d="M83.5256 69.4523C81.4759 70.4749 79.2071 70.659 76.9896 70.5117C76.15 70.4443 75.3126 70.3318 74.4792 70.2193C73.2219 69.982 72.0364 69.4646 70.8774 68.9042C70.5989 68.7611 70.3184 68.6199 70.0788 68.4072C69.9437 68.2804 69.8024 68.1127 69.6202 68.078C69.3478 68.0146 69.1533 68.2927 69.2004 68.5709C69.2291 68.7508 69.3704 68.8408 69.4482 68.9901C70.0522 69.8062 71.0207 70.1661 71.8664 70.6038C73.9058 71.6223 76.1623 71.7654 78.384 71.8432C78.4659 71.8432 78.5478 71.8432 78.6297 71.8432C80.4705 71.8268 82.3011 71.4628 83.9924 70.6385C84.7071 70.2909 84.2423 69.1231 83.5256 69.4523Z" fill="black"/>
<path d="M71.5317 48.491C69.5618 47.9817 67.4692 48.1044 65.5178 48.6996C65.1267 48.6403 64.9506 49.3152 65.3376 49.4706C65.4727 49.534 65.6202 49.5238 65.7676 49.5238C67.0023 49.4277 68.2432 49.2968 69.482 49.352C70.7515 49.5095 72.0272 49.804 73.178 50.4216C73.3008 50.53 73.4278 50.575 73.5506 50.575C74.0093 50.5709 74.3779 49.9103 73.9581 49.4604C73.2455 48.9471 72.3671 48.6914 71.5337 48.493L71.5317 48.491Z" fill="black"/>
<path d="M92.3756 52.0926C91.3743 51.5056 90.2788 51.1518 89.1505 50.9943C87.279 50.6425 85.2969 50.7427 83.4725 51.3481C83.0609 51.4586 82.7558 51.9903 83.2329 52.2459C83.3332 52.2889 83.4459 52.2746 83.536 52.2173C83.7899 52.1641 84.0458 52.1314 84.3018 52.1069C86.8326 51.8103 89.5416 51.8635 91.8125 53.2256C91.9005 53.2747 91.9947 53.2972 92.0889 53.2972C92.2957 53.2972 92.5005 53.1765 92.6069 52.9618C92.7544 52.6611 92.6581 52.25 92.3715 52.0966L92.3756 52.0926Z" fill="black"/>
<path d="M102.385 49.9882C102.398 49.4626 102.385 48.9288 102.312 48.4072C102.166 47.3908 101.916 46.3866 101.488 45.4479C101.04 44.4682 100.469 43.5356 99.7377 42.738C99.5616 42.5457 99.3896 42.3494 99.1992 42.1715C99.0088 41.9935 98.8163 41.8217 98.6218 41.652C98.2184 41.3043 97.7761 40.9873 97.3174 40.7153C96.4267 40.1856 95.4684 39.752 94.461 39.4984C93.4454 39.2448 92.3929 39.1078 91.3466 39.1589C90.2961 39.21 89.258 39.388 88.2649 39.7356C87.2841 40.0751 86.3401 40.5476 85.4986 41.1591C85.0645 41.4741 84.6467 41.8136 84.2638 42.1919C83.885 42.5641 83.5328 42.9609 83.2073 43.3802C82.595 44.1717 82.0995 45.0654 81.7391 45.998C81.735 46.0062 81.733 46.0164 81.7289 46.0246C81.5855 46.3948 81.4647 46.7731 81.3644 47.1556C81.1576 47.1045 80.9549 47.0452 80.746 47.0042C80.1706 46.9511 79.5932 47.0717 79.0362 47.2374C78.9277 45.7649 78.5202 44.3169 77.8261 43.01C76.8883 41.2409 75.4734 39.75 73.7431 38.7376C71.9863 37.7109 69.955 37.1873 67.9197 37.2589C66.9082 37.2937 65.9089 37.4737 64.9465 37.7804C64.4633 37.9338 63.9842 38.1261 63.5296 38.3531C63.0914 38.5719 62.6614 38.8112 62.258 39.0873C61.4226 39.66 60.6506 40.3308 60.0077 41.1121C59.3708 41.8851 58.82 42.7339 58.4208 43.6542C58.2098 44.1389 58.0297 44.6298 57.8863 45.139C57.7389 45.6585 57.6386 46.1882 57.5689 46.7241C57.4686 47.5094 57.4604 48.3111 57.5403 49.0985C57.5587 49.2805 57.6283 49.4462 57.7655 49.571C57.7901 49.5935 57.8147 49.6139 57.8433 49.6303C57.8433 49.6303 57.8433 49.6344 57.8433 49.6364C57.9088 50.1252 57.9989 50.6099 58.1341 51.0844C58.2795 51.5896 58.4474 52.0968 58.6747 52.5713C59.1169 53.4998 59.6534 54.3833 60.3414 55.1523C61.0601 55.956 61.8853 56.6739 62.8191 57.22C63.0443 57.3509 63.2675 57.4879 63.5009 57.6004C63.7343 57.7129 63.9698 57.8213 64.2073 57.9256C64.6967 58.1383 65.2127 58.308 65.7328 58.4328C66.7403 58.6741 67.7845 58.805 68.8227 58.7457C69.867 58.6864 70.9133 58.5044 71.8982 58.1444C72.8852 57.7844 73.823 57.3038 74.6707 56.678C75.5061 56.0624 76.2658 55.3302 76.8883 54.4958C77.2077 54.0663 77.5067 53.6184 77.7606 53.1439C78.0104 52.6756 78.2295 52.1929 78.4158 51.6959C78.766 50.7592 78.9707 49.7591 79.0383 48.7611C79.0383 48.7508 79.0383 48.7427 79.0383 48.7324C79.0506 48.5463 79.0567 48.3623 79.0588 48.1761C79.4826 48.1168 79.9085 48.0698 80.3344 48.0862C80.6047 48.1271 80.8586 48.2416 81.1207 48.3234C81.0142 49.0392 80.9794 49.7653 81.0183 50.4872C80.9672 50.9085 80.9221 51.3953 80.8893 52.0109C80.7911 54.6471 80.7644 57.2854 80.4532 59.9074C80.1051 61.8135 80.5658 64.1368 77.8281 62.6152C76.6774 61.9076 75.3219 61.4208 74.1895 60.6641C73.9602 60.5291 73.6981 60.4432 73.5158 60.2407C72.9323 59.6987 72.1153 60.5127 72.6579 61.0977C72.836 61.3001 73.0551 61.4658 73.2988 61.5803C74.1527 62.0712 75.0311 62.6172 75.9648 62.9833C76.7675 63.4067 77.5312 63.918 78.3974 64.2023C79.4847 64.5949 80.8054 64.1204 81.2026 62.9915C81.4217 62.2941 81.4668 61.5456 81.5753 60.8236C81.8374 58.7027 81.991 56.5655 82.0073 54.4262C82.466 55.4141 83.0701 56.3324 83.8093 57.1443C85.1791 58.6475 86.9646 59.7478 88.9283 60.2878C89.905 60.5557 90.9104 60.6804 91.924 60.6743C92.4318 60.6723 92.9458 60.6293 93.4474 60.5475C93.9307 60.4677 94.4119 60.3675 94.8808 60.2244C95.8472 59.9258 96.785 59.5147 97.6328 58.9584C98.4702 58.4082 99.2504 57.764 99.9036 57.0032C100.25 56.6023 100.567 56.1872 100.856 55.7433C101.151 55.2914 101.404 54.8148 101.63 54.324C101.959 53.6041 102.205 52.8412 102.363 52.0661C102.4 51.8861 102.383 51.7082 102.287 51.5487C102.271 51.52 102.252 51.4934 102.232 51.4689C102.232 51.4689 102.232 51.4648 102.232 51.4628C102.314 50.976 102.373 50.4872 102.385 49.9943V49.9882ZM77.6111 49.2765C77.5497 49.6937 77.4678 50.1048 77.3613 50.5138C77.2384 50.9392 77.093 51.3523 76.9251 51.7614C76.7736 52.0968 76.6119 52.422 76.4317 52.7431C76.19 53.148 75.9259 53.5345 75.6372 53.9088C75.3792 54.2217 75.1089 54.5183 74.8222 54.8066C74.4987 55.1093 74.1649 55.3895 73.8128 55.6574C73.5158 55.8661 73.2128 56.0604 72.9016 56.2444C72.5023 56.4612 72.0968 56.6535 71.6771 56.8273C71.331 56.9561 70.9809 57.0686 70.6246 57.1688C70.3891 57.2261 70.1536 57.2813 69.9141 57.3243C69.7011 57.3631 69.4861 57.3918 69.2711 57.4204C68.9128 57.4531 68.5585 57.4756 68.1982 57.4797C67.9811 57.4756 67.762 57.4695 67.545 57.4552C67.3177 57.4388 67.0924 57.4122 66.8672 57.3856C66.4536 57.3202 66.0502 57.2322 65.6448 57.1279C65.4298 57.0645 65.2148 57.0011 65.0039 56.9234C64.7971 56.8457 64.5943 56.7639 64.3937 56.68C64.0476 56.5185 63.7118 56.3467 63.378 56.1606C63.1774 56.0379 62.9788 55.909 62.7822 55.7781C62.6061 55.6595 62.4361 55.5266 62.2682 55.3977C61.9447 55.1298 61.6376 54.8537 61.3407 54.5571C61.0704 54.2667 60.8124 53.9681 60.5667 53.6552C60.4192 53.4548 60.2718 53.2441 60.1326 53.0253C59.9933 52.8105 59.8684 52.5876 59.7435 52.3626C59.5838 52.0477 59.4098 51.6693 59.2521 51.2807C59.121 50.9208 59.0043 50.5588 58.9019 50.1927C58.8467 49.9636 58.7955 49.7346 58.7525 49.5035C58.8671 49.3726 58.9327 49.2008 58.9142 49.0208C58.8794 48.6772 58.863 48.3295 58.863 47.9839C58.8692 47.5749 58.8978 47.1679 58.949 46.7609C59.0105 46.3498 59.0924 45.9428 59.1988 45.5399C59.3135 45.1411 59.4487 44.7504 59.6063 44.368C59.7722 43.9876 59.9585 43.6195 60.1653 43.2575C60.3967 42.875 60.6506 42.5089 60.925 42.1551C61.1687 41.8606 61.4246 41.5763 61.6949 41.3063C61.9713 41.0405 62.3276 40.7337 62.7064 40.4494C63.0279 40.2204 63.3576 40.0097 63.6995 39.8134C64.0538 39.6232 64.4141 39.4514 64.7868 39.298C65.1636 39.1528 65.5465 39.028 65.9376 38.9237C66.3369 38.8276 66.7382 38.7519 67.1457 38.6967C67.5388 38.6537 67.932 38.6312 68.3272 38.6292C68.7224 38.6353 69.1135 38.6619 69.5045 38.709C69.9386 38.7703 70.3666 38.8583 70.7905 38.9707C71.1672 39.0791 71.5358 39.2059 71.8982 39.3532C72.3118 39.5311 72.7111 39.7316 73.1002 39.9586C73.4606 40.1794 73.8066 40.4187 74.1404 40.6764C74.4639 40.9403 74.771 41.2184 75.0618 41.515C75.1703 41.6315 75.2748 41.7502 75.3792 41.8708C75.3587 41.8626 75.3382 41.8524 75.3178 41.8442C73.2517 41.3473 71.2123 40.6703 69.095 40.3901C68.0774 40.296 67.0494 40.2735 66.0277 40.2633C65.2291 40.2878 64.0701 39.9831 63.5337 40.6989C63.0074 41.56 62.7863 42.738 64.1684 42.8648C64.4776 42.9057 64.7868 42.8996 65.094 42.8709C65.1165 42.8893 65.137 42.9098 65.1615 42.9282C65.5956 43.1941 66.1301 42.9425 66.6072 43.0489C69.6499 43.5008 72.6927 43.9651 75.7416 44.3741C76.2208 44.4784 76.6999 44.0571 76.5729 43.6011C76.7409 43.9221 76.8965 44.2473 77.0337 44.5807C77.1749 44.9488 77.2978 45.3231 77.3981 45.7035C77.4944 46.1003 77.5701 46.4991 77.6234 46.9061C77.6664 47.2967 77.6889 47.6873 77.693 48.0821C77.6869 48.4829 77.6582 48.8797 77.6111 49.2765ZM101.384 50.6099C101.37 50.8451 101.349 51.0783 101.323 51.3114C101.175 51.4014 101.061 51.5466 101.024 51.7246C100.954 52.0641 100.866 52.3995 100.764 52.7287C100.637 53.1173 100.487 53.4977 100.317 53.87C100.137 54.2442 99.9364 54.6083 99.7152 54.96C99.4859 55.3077 99.2422 55.639 98.976 55.9581C98.7037 56.2731 98.417 56.5696 98.1119 56.8518C97.7761 57.1484 97.426 57.4224 97.0574 57.6781C96.7359 57.8867 96.4083 58.081 96.0704 58.2589C95.7285 58.4307 95.2964 58.6168 94.8501 58.7764C94.4753 58.8991 94.0965 59.0034 93.7116 59.0893C93.3164 59.167 92.9212 59.2222 92.5199 59.259C92.1165 59.2856 91.7131 59.2918 91.3097 59.2754C90.9002 59.2488 90.4948 59.2018 90.0893 59.1322C89.7003 59.0566 89.3194 58.9604 88.9406 58.8459C88.5659 58.7232 88.2014 58.58 87.841 58.4185C87.4438 58.2303 87.0629 58.0196 86.6903 57.7865C86.3626 57.5717 86.0494 57.3406 85.7463 57.0911C85.4044 56.7987 85.0849 56.4878 84.7798 56.1565C84.5034 55.8374 84.2434 55.5082 84.0017 55.1625C83.7724 54.8148 83.5615 54.4569 83.3711 54.0867C83.1929 53.7207 83.0373 53.3484 82.8981 52.966C82.7732 52.5938 82.6687 52.2154 82.5827 51.8309C82.4988 51.4137 82.4394 50.9965 82.4025 50.5731C82.378 50.1804 82.3718 49.7857 82.3882 49.393C82.4128 48.986 82.4619 48.5811 82.5295 48.1782C82.6053 47.7916 82.6994 47.4133 82.8141 47.0349C82.939 46.6545 83.0844 46.2843 83.2482 45.9183C83.4304 45.5378 83.6332 45.1697 83.8543 44.8118C83.8707 44.7873 83.8891 44.7648 83.9055 44.7402C84.444 44.867 85.0931 44.9202 85.1464 44.9079C87.3189 44.9897 89.473 45.3395 91.5943 45.7444C92.4379 45.9551 93.2672 46.2107 94.0945 46.4705C94.6596 46.7466 95.2125 47.0492 95.8104 47.2701C96.4165 47.6219 97.1291 47.3049 97.0738 46.7813C97.2478 46.4868 97.2314 46.0573 97.2151 45.6994C97.2478 45.2433 97.0902 44.7709 96.695 44.458C96.0008 43.9692 95.0343 43.9406 94.2173 43.6706C93.7914 43.5581 93.3614 43.4538 92.9314 43.3577C92.5977 43.2207 92.2516 43.1102 91.8974 43.0243C90.6831 42.6132 89.4013 42.5785 88.1256 42.6439C87.3435 42.5723 86.5715 42.5232 85.7914 42.6337C86.0248 42.4435 86.2623 42.2574 86.508 42.0835C86.8479 41.8606 87.194 41.6581 87.5523 41.47C87.9516 41.2777 88.355 41.108 88.7686 40.9587C89.1147 40.8482 89.4607 40.7521 89.8149 40.6683C90.2593 40.5803 90.7057 40.5169 91.1582 40.476C91.5267 40.4576 91.8953 40.4515 92.2639 40.4637C92.5055 40.478 92.7471 40.4965 92.9888 40.5251C93.2038 40.5517 93.4167 40.5864 93.6297 40.6253C93.9819 40.6989 94.3259 40.7848 94.6719 40.8871C94.8787 40.9546 95.0855 41.0262 95.2882 41.1059C95.4992 41.1877 95.708 41.2798 95.9148 41.3738C96.2895 41.56 96.6499 41.7645 97.0062 41.9833C97.1925 42.1081 97.3789 42.2308 97.557 42.3699C97.7311 42.5048 97.901 42.6419 98.0689 42.783C98.3515 43.0407 98.6218 43.3045 98.8839 43.5806C99.0395 43.7585 99.191 43.9385 99.3384 44.1226C99.4715 44.2882 99.5944 44.4641 99.7152 44.64C99.9445 44.9918 100.155 45.3476 100.35 45.7178C100.522 46.0757 100.678 46.4377 100.819 46.81C100.899 47.0452 100.979 47.2906 101.046 47.5401C101.116 47.7876 101.167 48.0371 101.22 48.2886C101.28 48.6363 101.333 49.0494 101.368 49.4687C101.386 49.8512 101.39 50.2316 101.378 50.612L101.384 50.6099Z" fill="black"/>
<path d="M39.018 163.349C38.5737 162.776 38.1129 162.212 37.5949 161.703C37.6707 161.482 37.6563 161.238 37.5068 161.036C37.6379 160.747 37.7833 160.441 37.9184 160.173C38.1518 159.721 38.3894 159.271 38.631 158.823C38.9279 158.173 37.9614 157.714 37.6481 158.355C37.5089 158.792 37.0031 159.85 36.7779 160.69C36.1001 160.752 35.6578 161.774 36.4277 162.193C36.5199 162.245 36.612 162.275 36.7021 162.29C37.3144 163.126 37.9041 163.993 38.6208 164.736C38.7272 164.803 38.8419 164.834 38.9525 164.834C39.321 164.834 39.6507 164.494 39.5401 164.079C39.4316 163.764 39.2268 163.627 39.02 163.347L39.018 163.349Z" fill="black"/>
<path d="M19.3125 94.426C19.3125 94.426 19.3248 94.4137 19.333 94.4096C19.3371 94.4056 19.3412 94.4015 19.3432 94.3994C19.333 94.4076 19.3227 94.4178 19.3125 94.4281V94.426Z" fill="black"/>
<path d="M135.23 126.231C135.197 124.836 135.165 123.443 135.152 122.048C135.128 120.398 134.833 118.77 134.585 117.142C134.337 115.853 133.85 114.624 133.379 113.405C132.658 111.677 131.95 109.935 131.047 108.29C130.488 107.327 129.886 106.392 129.28 105.46C127.736 103.093 126.223 100.594 124.032 98.7536C123.657 98.4488 121.302 96.4527 120.391 96.4588C120.364 96.4425 120.34 96.422 120.313 96.4057C120.26 96.373 120.205 96.3402 120.149 96.3075C120.141 96.3034 120.133 96.2973 120.123 96.2932C118.499 95.7839 116.869 95.2849 115.282 94.6714C111.914 93.5608 108.763 91.9267 105.527 90.4971C103.361 89.5236 101.16 88.6339 98.9565 87.7463C97.6071 87.2187 96.2864 86.6113 94.9063 86.1756C94.8736 86.1715 94.8428 86.1654 94.8101 86.1613C94.6811 86.1429 94.5521 86.1163 94.4251 86.0918C94.3576 86.0795 94.29 86.0672 94.2224 86.0529C93.6716 85.877 93.1146 85.7093 92.5843 85.4762C91.2022 84.9587 89.8937 84.1345 88.487 83.6682C88.3949 83.6396 88.1532 83.5455 87.9075 83.476C87.9403 83.161 87.9669 82.8461 87.9935 82.5331C88.0775 81.2754 88.1451 80.0196 88.2925 78.7393C88.3621 78.089 88.3334 77.4222 88.5198 76.7903C89.2446 76.2585 89.9613 75.7084 90.6063 75.0989C92.6765 73.1703 94.5214 71.0065 96.1963 68.7302C96.7881 67.9489 97.3061 67.1226 97.7791 66.2698C97.9327 66.278 98.0863 66.2862 98.2419 66.2862C98.6125 66.2862 98.9852 66.2514 99.3374 66.1409C100.361 65.7585 101.225 65.0161 102.012 64.2737C104.227 62.1692 106.115 59.625 107.094 56.7085C107.565 55.2421 107.964 53.5283 107.43 52.0475C107.71 51.9289 107.972 51.6262 108.202 51.4176C108.879 50.7898 109.569 50.1496 110.257 49.5054C112.252 47.7261 114.115 45.7606 115.567 43.5089C116.558 41.9239 117.539 40.3163 118.276 38.5943C119.005 36.7004 119.695 34.7698 120.057 32.7696C120.887 28.1904 119.033 23.5355 115.956 20.161C111.932 15.6861 108.044 14.3363 102.237 13.4896C99.4131 12.9967 96.5403 12.9517 93.8702 11.7757C90.9319 10.3625 88.5136 8.09845 85.7022 6.46843C81.3142 3.97534 75.3126 2.87503 70.298 3.20022C62.8344 3.98148 55.293 9.93094 51.9779 16.541C50.6879 18.8521 50.0429 21.4413 49.7849 24.0612C49.4388 27.0471 49.4695 30.0699 49.9139 33.0436C50.2988 35.3813 50.8578 37.6964 51.724 39.9032C52.4488 41.7193 53.358 43.4537 53.9845 45.3066C54.1463 45.7443 54.3265 46.1922 54.4657 46.6482C54.175 46.7546 53.9047 46.9652 53.6405 47.1002C52.4406 47.634 51.6871 48.7589 50.9172 49.7692C50.909 49.7856 50.8988 49.804 50.8885 49.8224C50.7227 50.0576 50.5773 50.2887 50.4606 50.5034C50.2906 50.7775 50.1411 51.0679 50.1166 51.3276C49.7296 52.5302 49.7439 53.8473 49.8811 55.0928C50.0777 57.0828 50.9213 58.9092 52.0209 60.5555C52.8542 61.8215 54.3408 62.5782 55.8131 62.8216C55.9933 64.6255 56.1837 66.4375 56.7673 68.1555C57.4614 70.2661 58.3337 72.3829 59.7076 74.1376C59.6237 74.2276 59.5582 74.3483 59.5479 74.471C59.5111 75.1664 59.5418 75.8658 59.5336 76.5632C59.5643 78.0746 59.4128 79.5758 59.3145 81.0811C59.2879 81.4369 59.2613 81.7928 59.2367 82.1466C56.8942 82.6129 54.6029 83.2428 52.2789 83.8237C50.0285 84.4945 47.8007 85.2451 45.536 85.8709C44.1088 86.3086 42.6448 86.6031 41.1848 86.8976C41.0087 86.9364 40.7835 86.9937 40.5746 87.0816C39.3727 87.2943 38.1687 87.4989 36.9729 87.7525C34.0468 88.4417 31.1515 89.2516 28.2541 90.0431C26.3416 90.5953 24.4271 91.1393 22.5269 91.7304C22.2648 91.9431 22.0088 92.164 21.7488 92.3787C21.2962 92.755 20.8417 93.1313 20.3891 93.5076C20.2479 93.6242 20.1066 93.7428 19.9653 93.8615C20.0042 93.8471 20.0431 93.8349 20.082 93.8206C19.8609 93.9842 19.6418 94.1519 19.4268 94.3257C19.396 94.3523 19.3653 94.3789 19.3367 94.4075C19.3285 94.4137 19.3203 94.4218 19.3121 94.428C19.308 94.4321 19.3039 94.4362 19.2978 94.4402C19.2978 94.4402 19.2957 94.4423 19.2937 94.4443L19.2978 94.4402C19.2568 94.4771 19.2179 94.5139 19.177 94.5507C19.1544 94.5732 19.1299 94.5977 19.1073 94.6202C18.9435 94.7879 18.7797 94.9536 18.6159 95.1193C18.448 95.289 18.2842 95.4669 18.0958 95.6121C18.0385 95.6592 17.9709 95.6899 17.9013 95.7083C16.73 96.9108 15.7718 98.3097 14.8708 99.725C13.1815 102.271 11.8526 105.028 10.4602 107.74C8.7443 110.906 7.39901 114.26 6.00253 117.575C5.73634 118.242 5.48858 118.915 5.2572 119.594C5.22853 119.729 5.19577 119.862 5.1671 119.993C5.11591 120.23 5.05243 120.465 4.991 120.7C4.85586 121.204 4.72481 121.711 4.56919 122.208C4.27229 123.157 3.98972 124.106 3.76857 125.073C3.76857 125.065 3.76857 125.057 3.77062 125.049C3.75219 125.13 3.73376 125.212 3.71534 125.294C3.59043 125.922 3.46552 126.546 3.32014 127.169C3.25052 127.47 3.17067 127.769 3.10105 128.067C3.03348 128.36 2.97819 128.656 2.92495 128.951C2.81438 129.566 2.68743 130.18 2.57686 130.796C2.46833 131.399 2.38233 132.008 2.29428 132.614C2.21033 133.201 2.12228 133.79 2.03833 134.377C1.95233 134.98 1.84585 135.583 1.7619 136.189C1.75576 136.23 1.75166 136.271 1.74757 136.311C1.71685 136.545 1.68614 136.776 1.65952 137.009C1.64519 137.134 1.6329 137.256 1.61857 137.381C1.60219 137.534 1.58581 137.688 1.56943 137.841C1.551 138.017 1.53462 138.193 1.51823 138.369C1.508 138.467 1.4998 138.563 1.48957 138.661C1.45476 139.021 1.41995 139.383 1.38309 139.743C0.770851 148.521 0.228229 157.313 0.23642 166.114C0.326515 173.534 0.963327 180.956 1.92571 188.31C2.49905 192.62 3.54129 195.874 7.69182 197.949C10.0015 199.048 12.5181 199.549 15.053 199.845C14.9384 200.442 14.9015 201.072 14.7971 201.665C14.7049 202.187 14.4981 203.034 15.2619 203.095C15.266 203.095 15.2701 203.095 15.2762 203.095C16.2325 203.095 15.8823 201.177 16.0809 200.498C16.0809 200.35 16.1158 200.16 16.1424 199.962C16.7423 200.019 17.3402 200.07 17.9361 200.115C21.3904 200.265 24.8468 200.379 28.3053 200.381C28.465 200.383 28.6247 200.385 28.7844 200.385C31.0757 200.385 33.3609 200.203 35.644 200.044C40.6791 199.743 45.7469 199.289 50.7841 198.923C56.3475 198.373 61.8863 197.585 67.4251 196.845C70.4188 196.35 73.4022 195.808 76.361 195.141C78.0687 194.843 79.8645 194.485 81.5538 194.031C81.8363 193.945 82.1865 193.924 82.4117 193.724C86.3001 195.393 90.2521 196.908 94.2736 198.217C97.0318 199.013 99.7858 199.835 102.597 200.424C104.782 200.864 106.998 201.138 109.221 201.318C109.227 201.412 109.236 201.504 109.234 201.594C109.334 202.183 108.849 203.304 109.737 203.398C110.427 203.388 110.374 202.696 110.241 202.205C110.206 202.064 110.155 201.723 110.073 201.385C110.798 201.436 111.525 201.479 112.25 201.516C112.475 201.522 112.7 201.524 112.927 201.524C115.026 201.524 117.119 201.299 119.201 201.052C120.09 200.954 120.983 200.849 121.822 200.532C123.62 199.929 125.295 198.976 126.556 197.53C127.089 196.9 127.244 196.06 127.474 195.291C127.57 195.008 127.658 194.722 127.748 194.438C127.791 194.336 127.834 194.235 127.875 194.133C129.46 190.484 130.359 186.599 131.379 182.766C132.933 176.15 133.866 169.396 134.393 162.625C134.817 156.086 135.099 149.536 135.169 142.985C135.165 137.539 135.122 132.092 135.038 126.648C135.154 126.544 135.234 126.398 135.236 126.235L135.23 126.231ZM88.0877 84.4924C88.1164 84.517 88.141 84.5436 88.1696 84.5661C88.6733 84.9444 89.2057 85.1939 89.7606 85.5191C90.8541 86.0918 91.9864 86.6113 93.1617 86.9978C93.1515 87.0305 93.1413 87.0653 93.1351 87.1001C93.1208 87.1778 93.1044 87.2534 93.088 87.3291C92.959 87.9386 92.8014 88.5399 92.6191 89.135C92.5352 89.0471 92.4451 88.9673 92.3591 88.8998C91.8902 88.5194 91.2575 88.4867 90.68 88.4622C90.4835 88.454 90.2828 88.3865 90.1743 88.2106C89.7463 87.2248 89.1955 86.0591 87.9874 85.9302C87.8461 85.8995 87.7069 85.8934 87.5697 85.9077C87.7765 85.4475 87.9608 84.9792 88.0857 84.4924H88.0877ZM83.2144 100.913C82.8499 101.122 82.4793 101.322 82.1025 101.51C81.3285 101.887 80.534 102.218 79.7232 102.502C79.5307 102.568 79.3362 102.629 79.1416 102.688C79.1416 102.68 79.1396 102.674 79.1376 102.666C79.0413 102.31 79.0495 101.938 78.9881 101.576C78.8611 100.774 78.4168 100.034 77.8025 99.5123C76.5227 98.5838 76.5453 97.9743 77.0531 96.5488C77.2456 96.0028 77.4769 95.471 77.7349 94.9515C77.8578 94.6468 78.1649 94.1866 78.1527 93.8103C78.7076 93.6692 79.2563 93.5056 79.7989 93.3236C80.2248 93.4708 80.5729 93.751 80.491 94.2828C80.2392 95.3667 79.2686 96.3689 79.6925 97.5428C80.7552 100.204 83.7836 97.414 83.2144 100.881C83.2144 100.891 83.2185 100.901 83.2185 100.911L83.2144 100.913ZM72.3149 102.77C72.2309 102.02 71.031 101.281 72.1408 100.754C73.6438 100.107 74.8375 99.3712 73.7687 97.6287C73.1974 96.7329 72.1654 96.2257 71.6023 95.334C71.6432 94.835 72.0098 94.4546 72.4357 94.2112C72.8493 94.2541 73.267 94.2828 73.6847 94.2909C73.9305 94.3053 74.1741 94.3134 74.4198 94.3134C75.4006 94.3134 76.3733 94.1969 77.3336 93.9985C76.3958 95.4649 75.1406 97.1706 75.7385 98.9663C76.0129 99.8416 76.9609 100.197 77.4401 100.93C77.7226 101.328 77.8046 101.805 77.8332 102.282C77.866 102.515 77.8742 102.791 77.9663 103.018C77.6469 103.098 77.3275 103.173 77.006 103.239C76.0886 103.415 75.1672 103.531 74.2355 103.59C73.5946 103.623 72.9537 103.627 72.3128 103.607C72.3824 103.32 72.3845 103.006 72.319 102.772L72.3149 102.77ZM71.0228 102.789C71.1293 102.979 71.1702 103.214 71.0863 103.421C71.0699 103.453 71.0556 103.488 71.0433 103.523C70.2877 103.445 69.5383 103.333 68.793 103.179C67.9227 102.989 67.0689 102.75 66.2273 102.459C65.8649 102.331 65.5086 102.189 65.1543 102.042C65.2014 101.907 65.2055 101.758 65.1482 101.619C65.1216 101.568 65.1379 101.51 65.1359 101.455C65.2239 100.987 65.4226 100.467 65.8239 100.185C66.4116 99.8559 67.1876 99.997 67.7077 99.5205C68.4612 98.7413 68.4387 97.3955 67.8633 96.5161C67.6586 96.1725 67.3494 95.8739 67.2531 95.4772C67.1364 94.5261 67.7548 93.5792 68.6865 93.3358C69.5424 93.6508 70.4229 93.8942 71.3197 94.0578C71.0638 94.2664 70.8529 94.5282 70.7095 94.8411C70.0871 96.2686 71.9688 97.1563 72.665 98.1482C72.8063 98.3609 72.9763 98.6308 72.9435 98.8906C72.5524 99.3201 71.9361 99.4367 71.4569 99.7414C70.2038 100.418 70.1874 101.762 71.0228 102.795V102.789ZM60.67 87.6298C60.8277 87.8609 60.9936 88.0879 61.1676 88.3067C60.971 88.3803 60.7847 88.4785 60.6414 88.5665C59.6769 89.2168 59.8018 90.5544 59.2756 91.4911C58.7985 92.6466 57.2833 92.1271 56.4417 92.8041C56.0588 93.0781 55.7619 93.5076 55.6452 93.9719C55.2868 93.3931 54.9531 92.8 54.648 92.1905C54.3162 91.5136 54.0214 90.8223 53.7593 90.1188C54.2466 90.581 54.8793 90.9082 55.4629 90.9573C56.4847 91.0555 57.0191 90.0656 57.2075 89.2046C57.3734 88.6524 57.3856 87.9611 57.8812 87.5848C58.2559 87.3966 58.6511 87.64 59.0196 87.7341C59.4599 87.869 59.9349 87.9345 60.3834 87.8036C60.498 87.775 60.5943 87.7116 60.668 87.6277L60.67 87.6298ZM59.9779 83.6212C60.1151 83.5537 60.7622 77.1441 60.7663 75.3136C60.8338 75.3791 60.9014 75.4466 60.9731 75.51C65.2977 79.1934 71.0208 80.9809 76.6599 81.0074C77.0756 81.0115 77.4933 81.0156 77.9131 81.0156C80.059 81.0156 82.2377 80.9052 84.185 79.9235C85.1842 79.3508 86.0708 78.5982 86.9922 77.911C87.1131 77.821 87.2359 77.729 87.3608 77.639C87.2134 78.8354 86.9472 80.0176 86.8694 81.2242C86.7199 82.7663 86.7199 84.3615 86.2121 85.8402C86.1773 85.9486 86.1363 86.0591 86.0913 86.1654C84.963 88.3292 83.2492 90.2885 81.1053 91.4993C78.6256 92.6037 75.8941 93.2684 73.1687 93.0434C71.9627 92.9534 70.7607 92.7489 69.6079 92.3746C68.4244 91.9819 67.2245 91.3336 66.0921 90.7834C64.626 90.0697 63.3831 88.9755 62.2406 87.8281C61.1963 86.6215 60.4038 85.1633 59.9841 83.6212H59.9779ZM56.757 93.8717C57.2505 93.4463 57.9528 93.5383 58.5528 93.4013C59.3739 93.2909 60.0414 92.7305 60.3813 91.9901C60.7233 91.3275 60.8625 90.5912 61.1021 89.8917C61.1451 89.7711 61.2045 89.6565 61.3191 89.587C61.5014 89.4725 61.7143 89.4295 61.9211 89.3804C61.9764 89.3682 62.0256 89.3457 62.0726 89.3191C62.6112 89.857 63.1988 90.3499 63.8213 90.7957C63.6207 90.8591 63.4568 90.9348 63.3811 91.0023C62.732 91.4113 62.4637 92.3173 63.0105 92.9227C63.6759 93.6897 64.1715 94.3482 63.3524 95.2542C63.1947 95.424 62.9777 95.4997 62.7586 95.4056C62.3757 95.2829 61.9887 95.1561 61.5812 95.1479C60.7089 95.0722 59.9124 95.6755 59.5827 96.4588C59.3964 96.9252 59.3411 97.4324 59.1794 97.9068C59.1077 97.9437 59.0401 97.9887 58.9766 98.0357C58.4852 97.5694 58.0163 97.0847 57.5679 96.5754C57.099 96.0294 56.6567 95.4608 56.239 94.8697C56.3311 94.5016 56.4581 94.1273 56.7591 93.8758L56.757 93.8717ZM60.2462 98.5102C60.4755 98.048 60.5267 97.5183 60.6782 97.0274C60.8154 96.5632 61.2741 96.2564 61.7532 96.3954C62.2385 96.4875 62.7033 96.7472 63.2111 96.6593C64.1387 96.4977 64.7898 95.606 64.9516 94.7204C65.2117 93.6569 64.5134 92.8286 63.8664 92.0821C64.0036 91.6874 64.4008 91.5688 64.7735 91.4256C65.3509 91.7774 65.9488 92.0924 66.5549 92.3664C66.86 92.5321 67.1712 92.6875 67.4866 92.8327C66.9992 93.1293 66.5958 93.5588 66.3788 94.0967C65.3447 96.465 67.3269 96.6572 67.0259 98.2566C66.9788 98.3956 66.9808 98.6022 66.8109 98.6452C66.4218 98.7536 66.0102 98.7781 65.6294 98.9274C64.6834 99.228 63.9217 100.435 63.9196 101.48C63.85 101.445 63.7804 101.414 63.7107 101.38C62.9327 100.977 62.1791 100.533 61.4563 100.04L61.3662 99.9786C60.8973 99.6514 60.412 99.2812 59.9308 98.8844C60.0619 98.774 60.1745 98.6452 60.2462 98.5143V98.5102ZM82.6329 97.7575C81.7688 97.6737 80.4419 97.7555 80.8617 96.467C81.1852 95.5835 81.7954 94.657 81.4309 93.6835C81.3224 93.3952 81.1299 93.1272 80.8801 92.9411C80.8842 92.9411 80.8903 92.937 80.8944 92.935C81.7176 92.5873 82.4854 92.1271 83.1919 91.5852C83.1509 92.076 83.2533 92.573 83.3598 93.0516C83.5051 93.6385 83.8962 94.1621 84.4307 94.4525C85.4811 94.9884 86.7568 95.2951 86.6257 96.7493C86.6933 97.144 86.7281 97.7616 86.9636 98.1625C86.7957 98.3179 86.6257 98.4734 86.4537 98.6247C85.8312 99.1585 85.1801 99.6555 84.5023 100.118C84.5085 99.4101 84.3324 98.7086 83.7529 98.2382C83.4437 97.9559 83.0424 97.8107 82.6308 97.7596L82.6329 97.7575ZM85.6756 93.7347C85.1371 93.522 84.531 93.3154 84.2873 92.7386C84.0867 92.256 83.8696 91.7733 83.7427 91.2661C83.7324 91.2313 83.7242 91.1966 83.714 91.1618C84.1952 90.7487 84.6477 90.2967 85.0675 89.8161C85.1678 89.8161 85.262 89.8079 85.3316 89.7895C86.0196 89.679 87.0639 89.3109 87.3731 90.1985C87.5328 90.765 87.5246 91.3745 87.7355 91.9288C88.0427 92.6425 88.743 93.2315 89.5436 93.2336C89.8999 93.2765 90.3995 93.115 90.5674 93.5547C90.5674 93.6038 90.5756 93.6528 90.5899 93.6999C90.3708 94.066 90.1415 94.4259 89.8999 94.7777C89.431 95.4547 88.874 96.1643 88.272 96.8372C88.1655 96.9558 88.0529 97.0765 87.9382 97.1951C87.9301 97.1644 87.9219 97.1338 87.9157 97.1031C87.7949 96.4813 87.8953 95.8105 87.5472 95.2481C87.1909 94.4771 86.4292 94.0476 85.6756 93.7326V93.7347ZM89.3102 91.9697C88.4891 91.4952 88.7942 90.3887 88.3805 89.6565C88.0529 88.8937 87.1929 88.5194 86.3943 88.6217C86.2244 88.6749 86.0544 88.7321 85.8845 88.7935C86.034 88.591 86.1773 88.3865 86.3165 88.1779C86.421 88.049 86.5233 87.9181 86.6196 87.7832C86.7813 87.5439 86.9185 87.2964 87.0414 87.0428C87.7499 86.7892 88.3887 87.1921 88.6918 87.8875C88.9498 88.5112 89.2078 89.2271 89.8774 89.5113C90.5346 89.8508 91.4602 89.4582 91.9025 90.1863C91.9844 90.2803 92.0908 90.3356 92.2075 90.3601C91.9495 91.0411 91.6424 91.7549 91.2902 92.4482C91.2861 92.4564 91.282 92.4646 91.2779 92.4728C91.2185 92.4135 91.1592 92.3582 91.0998 92.3092C90.5756 91.9185 89.904 92.1046 89.3122 91.9717L89.3102 91.9697ZM51.9 36.8477C50.8742 33.0682 50.4769 29.1026 50.8762 25.2003C51.0728 22.3002 51.7137 19.4165 53.1655 16.8744C56.325 10.7736 63.3237 5.25359 70.2529 4.43756C75.0648 4.08578 81.1483 5.18814 85.3111 7.67305C87.8318 9.1824 90.0637 11.1417 92.6457 12.5508C94.5295 13.5509 96.6366 13.9681 98.7354 14.2279C101.502 14.6349 104.309 14.9253 106.989 15.7515C110.028 16.543 112.643 18.4062 114.766 20.6825C117.961 24.0325 119.832 28.7549 118.683 33.3668C118.047 35.9151 117.182 38.4388 115.827 40.7008C114.639 42.8626 113.259 44.7892 111.539 46.5889C110.479 47.7015 109.303 48.7016 108.193 49.7631C107.862 50.0698 107.466 50.4339 107.077 50.7959C107.008 50.8634 106.934 50.9247 106.852 51.0004C105.445 49.127 103.463 49.6669 101.639 50.8041C101.623 50.8123 101.606 50.8204 101.59 50.8286C101.614 50.9206 101.618 51.0168 101.604 51.1129C101.373 51.0311 101.1 51.0761 100.928 51.3215C100.214 52.5445 100.163 54.1316 99.1981 55.2217C99.4193 49.309 101.537 43.4659 100.879 37.4817C100.715 35.1584 100.032 32.473 97.4761 31.8063C95.0312 30.89 92.3632 31.1805 89.8814 31.7818C88.2925 32.0988 86.6728 32.2112 85.0552 32.1683C81.4575 32.201 77.8639 31.1866 74.8805 29.166C74.0246 28.4972 73.3039 27.6709 72.5831 26.8631C72.2043 26.5052 71.6392 25.7443 71.1129 26.0409C70.4495 25.4008 69.5608 24.9856 68.666 24.7954C67.4088 24.5397 66.0962 24.7258 64.8881 25.1226C62.9531 25.8221 61.4911 27.538 60.5963 29.3418C60.1458 30.2295 59.8776 31.1907 59.6667 32.1581C59.4374 33.107 59.1323 34.0396 58.9377 34.9968C58.1596 38.8356 57.9692 42.7542 57.8197 46.6585C57.7808 47.6156 57.7337 48.5707 57.6928 49.5279C57.6211 50.8 57.6825 52.0925 57.3344 53.3299C57.0375 53.2501 56.7468 53.1519 56.454 53.0579C56.3659 52.3748 56.1509 51.7162 56.0506 51.0352C55.9933 50.0412 55.8499 49.0575 55.7189 48.0717C55.6841 47.7833 55.6124 47.4949 55.5162 47.2229C55.5039 47.1861 55.4875 47.1534 55.4691 47.1207C55.3708 46.4764 55.1783 45.8424 54.9715 45.2289C54.1197 42.3738 52.6351 39.7498 51.9041 36.8538L51.9 36.8477ZM58.0798 68.2598C57.1358 65.8567 57.0662 63.2409 56.54 60.7335C56.3475 59.8479 56.3086 58.8969 55.9195 58.0706C55.4813 57.6309 55.553 58.6208 55.5448 58.9296C55.5346 59.6536 55.5776 60.3756 55.6288 61.0955C55.6472 61.2489 55.6636 61.4002 55.682 61.5536C55.0698 61.4084 54.4923 61.12 53.9477 60.801C53.1921 60.3326 52.7969 59.5023 52.3567 58.7619C52.1273 58.3529 51.8857 57.9356 51.6973 57.4939C51.0749 55.7064 50.6387 53.5528 51.1875 51.6958C51.4291 51.3972 51.5888 50.9268 51.7895 50.663C52.2195 50.0433 52.6822 49.4461 53.1921 48.8877C53.2167 48.8714 53.2412 48.853 53.2658 48.8366C53.2617 48.8305 53.2576 48.8243 53.2535 48.8182C53.2986 48.7691 53.3436 48.718 53.3887 48.6689C53.704 48.3887 54.0705 48.174 54.4309 47.9531C54.6643 48.99 54.6992 50.0658 54.8261 51.1211C53.6446 50.8552 52.7601 52.0823 52.5307 53.1049C52.2563 54.6531 52.6618 57.1073 54.5742 57.275C55.4957 57.4489 56.1796 56.6635 56.0014 55.7698C55.8213 54.876 54.5988 55.1849 54.7933 56.0663C53.6385 56.0377 53.575 54.1234 53.6897 53.2726C53.9559 52.2337 54.5968 51.8451 55.0432 52.2746C55.1353 52.6918 55.2213 53.111 55.2909 53.5344C55.4138 54.015 55.9175 54.1848 56.3434 54.3013C56.7693 54.4384 57.2014 54.5856 57.6477 54.6368C57.6662 54.6368 57.6846 54.6368 57.701 54.6368C58.2313 54.6368 58.4463 54.0743 58.518 53.6203C58.7064 52.9147 58.819 52.1887 58.8395 51.4585C58.9091 49.5279 59.0115 47.5972 59.079 45.6665C59.2654 41.3451 59.5131 36.9745 60.756 32.8064C61.1533 30.751 61.9682 28.7262 63.5674 27.311C64.7079 26.1697 66.3501 25.73 67.9289 25.7157C68.3814 25.73 68.838 25.7873 69.2741 25.9161C69.7779 26.09 70.3471 26.2066 70.7792 26.5338C70.7566 26.998 71.3975 27.3048 71.7088 27.6361C72.6998 28.7446 73.6724 29.9206 74.9809 30.6671C77.4216 32.0599 80.1245 33.0825 82.9461 33.2809C84.8627 33.4138 86.8059 33.4793 88.7143 33.2011C89.992 33.058 91.2308 32.6837 92.5044 32.5201C94.6954 32.3299 98.1313 32.381 99.0896 34.7698C100.273 38.7824 99.6998 43.106 98.9831 47.1575C98.6514 49.2579 98.291 51.3215 98.0556 53.4485C98.0331 54.3525 97.5396 56.2893 98.7149 56.594C98.7763 56.6001 98.8378 56.6042 98.8971 56.6042C99.5606 56.6042 100.042 56.2095 100.41 55.6757C100.597 55.8557 100.953 55.868 101.07 55.5121C101.36 55.0703 102.818 53.8391 103.297 54.2768C103.537 55.6328 103.125 57.0214 102.489 58.2158C102.298 58.5901 101.575 59.7497 101.258 58.9153C101.244 58.7742 101.272 58.631 101.285 58.4899C101.326 58.1647 101.111 57.8579 100.781 57.8068C100.068 57.7209 99.9844 58.6085 100.05 59.1259C100.171 59.8009 100.773 60.4185 101.475 60.4471C104.297 60.6578 106.412 51.2213 102.13 53.4301C101.762 53.6755 101.414 53.9618 101.098 54.2809C101.184 54.0518 101.262 53.8309 101.334 53.6305C101.524 53.0395 101.723 52.4464 101.977 51.8798C101.997 51.8267 102.007 51.7735 102.014 51.7224C102.616 51.3767 103.263 51.1027 103.926 50.9206C105.161 50.5709 106.176 51.6855 106.404 52.8104C106.549 53.5549 106.43 54.3177 106.291 55.054C105.667 57.8211 104.092 60.2753 102.196 62.3512C101.485 63.067 100.793 63.8053 99.968 64.3923C99.7223 64.5539 99.3599 64.832 99.022 64.9527C98.8173 65.0222 98.6002 65.0325 98.3873 65.0672C98.7067 64.3207 99.0671 63.3002 99.2186 62.8421C99.4193 62.2326 99.6138 61.6231 99.8206 61.0137C99.8145 61.0321 99.8083 61.0525 99.8022 61.0709L99.8309 60.9789C99.8247 60.9973 99.8186 61.0177 99.8124 61.0362C99.8616 60.8828 99.9087 60.7273 99.9578 60.5739C99.7817 60.3694 99.4807 60.2672 99.2186 60.4062C99.0732 60.4778 98.9709 60.6005 98.9115 60.7498C98.674 61.3409 98.4528 61.936 98.205 62.521C96.5956 66.64 93.7883 70.1107 90.7374 73.2664C90.1005 73.9209 89.4187 74.5221 88.7082 75.0927C88.702 75.0968 88.6979 75.1009 88.6918 75.1071C88.6918 75.1071 88.6897 75.1071 88.6877 75.1091C88.4399 75.3075 88.1881 75.4997 87.9342 75.6899C87.7929 75.7247 87.6659 75.8167 87.582 75.9804C87.5001 76.0438 87.4161 76.101 87.324 76.1481C87.3158 76.1522 87.3096 76.1542 87.3035 76.1562C87.1479 76.2687 86.9922 76.3792 86.8366 76.4896C85.776 77.2566 84.7767 78.1155 83.6587 78.8027C82.1476 79.5635 80.4378 79.7619 78.7669 79.766C76.8749 79.8192 74.9665 79.7517 73.0786 79.5206C68.8421 78.8804 64.6404 77.187 61.4543 74.2788C59.81 72.6058 58.8231 70.444 58.0716 68.2516L58.0798 68.2598ZM55.6022 84.2184C55.2602 84.5436 54.9571 84.9301 54.7012 85.3903C54.4412 85.6991 53.919 85.6112 53.6139 85.4169C53.4706 85.288 53.3436 85.1346 53.2126 84.9894C53.5545 84.8974 55.1783 84.3329 55.6001 84.2204L55.6022 84.2184ZM53.0201 86.1879C53.317 86.4783 53.7409 86.6194 54.1463 86.6624C55.121 86.8424 55.725 86.0427 56.1898 85.3228C56.6649 84.7808 57.3304 84.4147 58.0245 84.2368C58.3664 84.1345 58.7821 84.155 59.1241 84.0302C59.1916 84.3166 59.2715 84.5804 59.3145 84.7563C59.4988 85.4107 59.7506 86.0345 60.0619 86.6256C59.982 86.6399 59.9022 86.6562 59.8223 86.6562C59.1118 86.5642 58.4258 86.1204 57.6948 86.3658C56.3291 86.7237 56.2574 88.321 55.9277 89.4479C55.7353 90.3028 54.7524 89.8652 54.2671 89.5257C53.8924 89.2782 53.6037 88.9285 53.2699 88.6319C53.1061 88.0593 52.9628 87.4825 52.844 86.8976C52.7703 86.5131 52.7068 86.1265 52.6474 85.74C52.7621 85.8975 52.8788 86.0509 53.0181 86.1879H53.0201ZM133.199 161.999C132.824 167.312 132.132 172.609 131.155 177.847C130.365 182.216 129.159 186.507 127.871 190.75C127.664 191.3 127.453 191.849 127.236 192.395C127.126 192.46 127.036 192.558 126.997 192.685C126.868 193.092 126.745 193.501 126.622 193.908C126.362 194.534 126.094 195.158 125.815 195.777C125.733 195.957 125.758 196.158 125.85 196.319C125.834 196.36 125.819 196.399 125.801 196.44C125.318 197.227 124.517 197.773 123.755 198.275C122.811 198.896 121.736 199.297 120.651 199.6C119.029 199.882 117.385 200.019 115.747 200.179C113.138 200.4 110.53 200.238 107.931 199.96C104.872 199.69 101.852 199.095 98.9012 198.252C95.9178 197.452 92.9508 196.591 90.0739 195.454C86.552 194.106 83.0321 192.748 79.6106 191.157C76.5453 189.754 73.5148 188.253 70.4781 186.783C67.1364 185.222 63.8643 183.519 60.7376 181.563C58.4873 180.197 56.2369 178.819 53.9661 177.469C54.0603 176.986 54.1156 176.493 54.2302 176.015C54.5231 174.487 54.8097 172.971 55.293 171.47C56.6874 166.705 58.9214 162.081 62.3778 158.465C62.4576 158.432 62.5231 158.391 62.5805 158.348C66.7699 159.479 70.9552 160.668 75.2553 161.298C80.0569 162.032 84.916 162.175 89.7484 162.578C91.7857 162.795 93.8313 162.932 95.8728 163.108C97.4802 163.306 99.0896 163.502 100.709 163.568C102.177 163.717 103.68 163.997 105.183 164.187C105.308 164.394 105.536 164.453 105.789 164.453C106.052 164.453 106.338 164.39 106.561 164.363C106.606 164.355 106.654 164.349 106.699 164.341C106.713 164.341 106.725 164.343 106.74 164.345C106.758 164.345 106.774 164.345 106.791 164.345C106.899 164.345 106.991 164.32 107.071 164.283C107.393 164.241 107.716 164.204 108.038 164.159C108.679 164.03 109.348 164.014 109.967 163.789C110.712 163.486 111.406 163.073 112.102 162.678C114.631 160.901 117.59 159.905 120.231 158.318C121.833 157.418 124.728 155.182 122.529 153.571C122.828 153.542 123.127 153.511 123.426 153.471C124.771 153.303 126.255 153.329 127.41 152.526C129.028 151.2 128.727 149.378 127.089 148.666C127.38 148.527 127.646 148.345 127.873 148.1C128.61 147.427 129.204 146.413 128.385 145.554C127.019 144.036 124.804 143.838 122.879 143.756C122.49 143.731 122.103 143.735 121.718 143.758C122.457 143.153 123.024 142.228 122.949 141.341C122.564 139.825 120.622 139.948 119.375 139.762C117.062 139.674 111.82 140.171 111.664 140.171C111.644 140.171 110.059 140.404 109.293 140.549C108.003 140.805 106.692 141.032 105.464 141.51C104.915 141.766 104.411 142.11 103.922 142.465C103.717 139.079 103.768 135.675 103.742 132.284C104.039 129.832 105.273 127.566 106.477 125.445C106.735 125.077 106.995 124.703 107.299 124.37C107.858 123.789 106.998 122.946 106.428 123.502C105.452 124.644 104.461 126.339 103.715 128.075C103.787 126.584 103.895 125.098 103.973 123.607C104.014 123.087 104.272 122.255 103.535 122.13C103.203 122.085 102.892 122.324 102.845 122.654C102.687 124.226 102.591 128.006 102.534 132.021C102.483 132.769 102.452 141.656 102.448 143.598C99.9906 145.592 97.7955 147.908 95.795 150.354C95.3056 150.963 94.7527 151.607 94.1856 152.162C93.5815 153.509 93.0696 154.898 92.5761 156.289C92.1216 157.516 91.796 158.784 91.4786 160.052C91.4335 160.391 91.1592 161.034 91.2083 161.48C88.6877 161.265 86.1671 161.058 83.6423 160.907C79.2625 160.643 74.8867 160.152 70.6092 159.158C67.847 158.577 65.1379 157.778 62.4105 157.052C58.3746 156.003 54.2999 155.121 50.2189 154.272C49.2811 154.055 48.3433 153.839 47.4014 153.636C47.3707 153.624 47.3379 153.612 47.3011 153.604C46.8772 153.516 46.4697 153.436 46.0746 153.36C46.0664 153.36 46.0582 153.356 46.05 153.354C46.0459 153.354 46.0438 153.354 46.0397 153.354C44.0433 152.976 42.3397 152.732 40.4333 152.509C37.4971 152.235 34.528 152.346 31.5958 152.64C31.432 152.657 31.2702 152.679 31.1085 152.704C31.1207 152.605 31.1228 152.503 31.1289 152.407C31.1617 151.924 31.1822 151.399 31.2027 150.887C31.2723 150.012 31.2518 148.129 31.2457 148.067C31.3624 146.701 31.8395 140.993 31.8169 139.5C31.9214 137.921 32.0115 136.338 32.0749 134.749C32.0872 132.957 32.2633 131.231 32.3596 129.425C32.3944 128.701 32.3964 128.002 32.292 127.329C32.3104 127.171 32.3329 127.016 32.3678 126.861C32.5234 126.251 32.724 125.654 32.8182 125.03C32.9431 124.292 33.0496 123.549 33.2196 122.819C33.3793 122.128 33.6639 121.474 33.8093 120.778C34.1205 119.41 34.5771 118.207 35.1075 116.88C35.2959 116.363 35.5027 115.853 35.7525 115.363C35.8938 115.066 35.7279 114.679 35.4269 114.559C34.6222 114.272 34.442 115.352 34.1738 115.878C33.7908 116.915 33.3445 117.931 33.0291 118.993C32.5172 120.878 31.8702 122.735 31.6818 124.693C31.6552 124.924 31.6204 125.159 31.5856 125.394C31.5671 125.364 31.5487 125.333 31.5282 125.302C30.6477 123.68 29.8533 121.944 28.8827 120.338C28.7025 120.06 28.2766 120.156 28.1886 120.457C28.1169 121.024 28.467 121.559 28.6308 122.089C29.0977 123.159 29.6035 124.212 30.1277 125.255C30.486 125.969 30.9631 126.658 31.0921 127.452C30.9938 128.74 30.6088 136.461 30.6232 139.038C30.5863 139.606 30.5495 140.177 30.5085 140.745C30.4676 141.128 30.4368 141.51 30.4082 141.893C30.3877 142.038 30.3816 142.193 30.3754 142.347C30.3631 142.514 30.3529 142.682 30.3406 142.852C30.3365 142.87 30.3345 142.891 30.3304 142.909C30.1891 144.2 29.5093 151.254 29.4519 153.499C29.2431 158.357 29.3782 163.218 29.9167 168.051C30.015 169.237 30.0232 169.93 31.4197 170.037C32.8367 170.112 34.2557 170.098 35.6706 170.231C37.7551 170.464 39.7986 170.896 41.8483 171.337C45.0118 173.192 48.114 175.129 51.1895 177.135C55.2233 179.547 59.1794 182.087 63.2418 184.451C66.5488 186.357 70.0461 187.895 73.4636 189.589C75.8491 190.765 78.2591 191.898 80.6958 192.975C80.5934 193.002 80.489 193.027 80.3866 193.051C78.9246 193.444 77.4298 193.683 75.9453 193.971C72.749 194.683 69.5219 195.272 66.2826 195.773C61.9948 196.328 57.7092 196.898 53.4173 197.418C46.4984 198.113 39.557 198.54 32.6196 199.021C28.94 199.262 25.2482 199.144 21.5645 199.021C17.2542 198.89 12.8047 198.733 8.75863 197.094C6.28715 196.088 4.30914 193.941 3.74195 191.307C3.22595 189.202 2.97205 187.044 2.72224 184.897C2.11614 179.242 1.64314 173.565 1.47114 167.879C1.3708 157.24 2.12433 146.613 2.87376 136.005C2.97819 134.628 3.07852 133.25 3.18091 131.867C3.69281 129.339 4.42176 126.854 5.09543 124.365C5.93086 121.083 7.10825 117.905 8.49244 114.816C9.3545 112.792 10.2165 110.767 11.2547 108.824C13.4416 104.613 15.4298 100.222 18.4849 96.5488C19.4104 95.514 20.4158 94.5364 21.5112 93.6692C21.7795 93.4586 22.058 93.2622 22.3385 93.072C24.1404 92.5034 25.9628 91.9881 27.7708 91.4584C31.1801 90.5053 34.5894 89.5195 38.0438 88.7444C39.3583 88.5051 40.675 88.2658 41.9834 87.9979C42.8557 87.8404 43.7218 87.642 44.5818 87.4171C45.9128 87.0898 47.2335 86.7156 48.5317 86.2615C49.1808 86.0611 49.8299 85.8586 50.479 85.6643C50.7022 85.5887 50.9274 85.5191 51.1527 85.4496C51.2817 85.4169 51.4107 85.3882 51.5417 85.3596C51.5499 85.4987 51.5581 85.6357 51.5724 85.7727C51.6728 86.8362 51.8775 87.8997 52.1539 88.9305C52.4283 89.9511 52.7785 90.9491 53.2003 91.9185C54.0828 93.9494 55.2971 95.8208 56.7509 97.4896C57.6047 98.4652 58.5528 99.3671 59.5766 100.173C61.2946 101.529 63.2214 102.637 65.269 103.413C67.2757 104.173 69.3745 104.64 71.5143 104.797C72.0262 104.834 72.5401 104.852 73.0541 104.852C74.7126 104.852 76.3733 104.66 77.9847 104.282C80.1204 103.781 82.1742 102.961 84.0641 101.848C85.9316 100.748 87.6475 99.3651 89.0993 97.7555C90.4957 96.2073 91.6772 94.4791 92.5843 92.6016C93.3911 90.9327 93.9808 89.1596 94.3391 87.3393C94.7712 87.4539 95.2073 87.5664 95.6496 87.6727C99.2985 89.1637 102.958 90.6526 106.539 92.2989C109.176 93.4974 111.775 94.8002 114.533 95.7062C116.742 96.5713 119.027 97.2156 121.278 97.9559C121.378 98.0377 121.478 98.1216 121.581 98.2014C122.484 99.0194 123.446 99.7537 124.277 100.654C125.883 102.363 127.087 104.351 128.369 106.311C129.536 108.061 130.588 109.883 131.381 111.835C132.259 113.921 133.242 116.019 133.52 118.285C133.572 118.578 133.617 118.872 133.658 119.165C133.66 119.22 133.662 119.273 133.664 119.328C133.834 127.077 133.926 134.825 133.93 142.576C133.893 149.055 133.594 155.532 133.199 162.001V161.999ZM53.319 177.086C52.8706 176.823 52.4242 176.555 51.9738 176.293C50.0695 175.107 48.1672 173.906 46.2158 172.798C45.8534 172.595 45.491 172.391 45.1265 172.188C45.0835 172.1 45.0446 172.016 45.018 171.939C44.8337 171.084 44.803 170.208 44.8357 169.337C45.1224 170.071 45.663 170.722 46.4964 170.644C47.3052 170.47 47.8744 169.805 48.5174 169.335C49.1091 168.928 50.0039 169.161 50.2026 169.885C50.5609 171.317 50.2947 173.485 52.2481 173.747C52.5102 173.771 52.7744 173.769 53.0365 173.763C53.2699 173.745 53.489 173.734 53.6549 173.916C53.5689 174.456 53.4951 175 53.4296 175.544C53.3641 176.054 53.2924 176.573 53.315 177.086H53.319ZM43.7382 170.482C43.6829 170.472 43.6297 170.46 43.5785 170.448C43.0195 170.331 42.4584 170.217 41.8974 170.102C41.1705 169.454 40.7139 168.568 40.4477 167.64C40.3269 167.245 40.2716 166.842 40.2265 166.437C41.4694 165.672 42.4298 164.478 42.7492 163.026C43.1751 161.586 42.9069 159.868 42.1431 158.453C42.2475 158.264 42.3274 158.056 42.4175 157.898C42.7615 157.117 43.2017 156.375 43.8058 155.765C44.1989 155.346 44.6187 154.951 45.1142 154.655C45.3579 154.477 45.706 154.415 45.9046 154.186C47.3379 154.565 48.7692 154.962 50.2067 155.326C48.5768 156.583 47.3891 158.299 46.3735 160.079C45.2391 161.995 44.4405 164.095 44.0945 166.298C43.8365 167.668 43.6215 169.094 43.7382 170.48V170.482ZM39.6532 168.149C39.7474 168.797 39.8805 169.296 40.1139 169.738C38.9447 169.501 37.7489 169.261 36.5715 169.098C36.5081 169.006 36.4118 168.93 36.2767 168.889C35.8876 168.797 35.6931 168.433 35.474 168.12C35.388 168.02 35.3245 167.762 35.257 167.488C35.4064 167.531 35.5579 167.57 35.7115 167.595C35.9368 167.636 36.162 167.654 36.3852 167.654C37.3803 167.654 38.3448 167.29 39.2642 166.92C39.3583 166.881 39.4525 166.84 39.5467 166.799C39.5262 167.251 39.5856 167.711 39.6532 168.149ZM38.1584 166.022C37.5953 166.263 37.0097 166.423 36.3934 166.423C34.9109 166.445 34.1717 165.447 33.582 164.234C32.939 162.701 33.1192 160.952 33.9137 159.506C34.5751 158.363 35.5498 157.248 36.938 157.048C37.2841 156.929 37.6199 156.874 37.9434 156.874C39.1454 156.874 40.1815 157.633 40.8736 158.706C41.2258 159.379 41.5616 160.081 41.6844 160.835C41.8646 162.181 41.4613 163.635 40.5398 164.643C39.8866 165.304 39.0328 165.731 38.1584 166.024V166.022ZM37.0752 155.765C33.6639 156.174 31.391 160.23 32.0811 163.443C32.2265 164.394 32.6872 165.234 33.2114 166.028C33.5308 166.511 33.971 166.891 34.4707 167.165C34.4543 167.294 34.4522 167.427 34.442 167.548C34.3847 168.016 34.4891 168.513 34.7164 168.942C34.2393 168.912 33.7622 168.887 33.2871 168.869C32.6032 168.846 31.9111 168.891 31.2354 168.771C30.6518 163.881 30.4512 158.958 30.6334 154.037C32.3268 153.728 34.0591 153.673 35.775 153.595C36.9094 153.55 38.0458 153.552 39.1782 153.597C38.353 154.182 37.6424 154.945 37.0752 155.765ZM40.5685 153.679C41.2749 153.73 41.9793 153.798 42.6837 153.886C43.0809 153.927 43.4802 153.955 43.8795 153.98C43.4045 154.366 43.0625 154.849 42.612 155.434C42.1226 156.086 41.8298 156.857 41.6292 157.647C40.8654 156.628 39.8088 155.876 38.5598 155.688C39.1556 154.949 39.8129 154.254 40.5685 153.677V153.679ZM52.5717 156.992C53.1266 156.982 53.704 156.884 54.2036 156.645C54.3347 156.571 54.4063 156.45 54.4268 156.324C55.7721 156.641 57.1154 156.96 58.4565 157.289C58.4893 158.25 58.7965 159.271 59.7015 159.751C59.4885 160.042 59.2756 160.33 59.0565 160.61C58.5692 161.293 58.1187 161.999 57.6969 162.721C57.6703 162.713 57.6457 162.705 57.6191 162.698C57.0539 162.424 56.7734 161.809 56.6321 161.228C56.3495 160.126 55.4097 159.16 54.2323 159.111C53.2904 159.056 52.3096 159.103 51.4639 159.561C50.8762 159.825 50.3377 160.379 49.662 160.353C49.1091 160.095 48.587 159.49 48.5727 158.86C49.0989 158.117 49.6845 157.422 50.3479 156.796C50.5998 156.61 50.8394 156.407 51.081 156.205C51.2714 156.769 51.9942 156.958 52.5676 156.99L52.5717 156.992ZM51.5479 155.833C51.6093 155.786 51.6728 155.739 51.7362 155.694C52.0741 155.771 52.414 155.851 52.7519 155.931C52.5737 155.966 52.3915 155.984 52.2092 155.96C51.9881 155.968 51.7014 156.009 51.5479 155.833ZM59.249 157.487C59.8141 157.628 60.3772 157.768 60.9403 157.911C61.0099 157.929 61.0816 157.947 61.1512 157.966C60.8809 158.242 60.627 158.539 60.3854 158.845C60.3096 158.766 60.2114 158.694 60.0803 158.645C59.6442 158.381 59.464 157.921 59.2469 157.487H59.249ZM57.0949 163.813C56.4458 165.046 55.8827 166.327 55.3933 167.634C55.0739 167.439 54.6684 167.406 54.3019 167.37C53.2474 166.993 53.5259 165.568 52.973 164.785C51.8796 163.101 49.4982 163.774 48.0792 164.65C47.2683 165.157 46.6766 164.059 46.3223 163.474C46.265 163.388 46.2322 163.281 46.1995 163.177C46.2506 163.05 46.3018 162.925 46.3551 162.801C46.8629 161.717 47.4198 160.635 48.0669 159.618C48.2635 160.582 49.0989 161.539 50.094 161.414C50.9356 161.347 51.5909 160.741 52.3628 160.465C52.8931 160.289 53.4603 160.316 54.0112 160.316C54.2528 160.336 54.5067 160.361 54.7114 160.5C55.467 160.936 55.4302 161.884 55.8253 162.566C56.1182 163.081 56.5502 163.566 57.0928 163.815L57.0949 163.813ZM51.724 171.663C51.5438 170.779 51.6236 169.808 51.1404 169.012C50.737 168.339 49.9978 167.897 49.2033 167.93C47.9543 167.854 47.2786 169.047 46.2875 169.566C45.6835 169.394 45.2903 168.58 45.018 167.967C45.2043 166.713 45.4439 165.462 45.8206 164.255C46.0848 164.858 46.4513 165.406 47.0431 165.723C48.3638 166.58 49.8053 164.326 51.6277 165.13C52.0946 165.39 52.113 166.003 52.2461 166.464C52.3382 166.844 52.4693 167.227 52.6863 167.554C52.9525 167.985 53.3457 168.343 53.8289 168.511C54.1852 168.646 54.5824 168.552 54.9121 168.756C54.9367 168.767 54.9613 168.775 54.9858 168.781C54.6705 169.711 54.392 170.654 54.1442 171.601C54.0521 171.939 53.9722 172.278 53.8985 172.62C53.0242 172.317 51.9533 173.035 51.726 171.66L51.724 171.663ZM98.7333 153.734C98.9299 153.923 99.2534 153.939 99.4643 153.763C100.273 153.102 101.08 152.444 101.838 151.726C103.091 150.658 104.405 149.662 105.689 148.632C108.04 146.707 110.845 145.46 113.912 145.21C115.325 145.114 116.734 144.961 118.141 144.801C118.616 144.742 119.095 144.691 119.568 144.611C121.894 144.605 124.224 144.674 126.399 145.56C126.788 145.73 127.134 145.979 127.425 146.29C127.486 146.372 127.611 146.468 127.55 146.578C127.279 147.016 126.9 147.433 126.423 147.642C124.748 148.102 122.998 148.131 121.28 148.309C118.397 148.595 115.512 149.045 112.702 149.757C111.236 150.213 109.782 150.742 108.412 151.438C107.127 152.149 105.92 153 104.782 153.929C104.198 154.397 103.601 154.845 102.986 155.276C102.605 155.489 102.218 155.855 102.485 156.317C102.597 156.514 102.794 156.604 102.999 156.604C103.166 156.604 103.34 156.542 103.474 156.43C104.074 156.021 104.663 155.593 105.23 155.141C106.492 154.111 107.815 153.139 109.26 152.38C111.212 151.483 113.249 150.769 115.37 150.415C117.86 149.945 120.369 149.579 122.897 149.397C123.172 149.376 123.448 149.354 123.723 149.329C123.763 149.333 123.804 149.329 123.843 149.317C124.392 149.266 124.939 149.2 125.479 149.104C126.225 149.122 126.958 149.56 127.312 150.215C127.504 150.916 126.831 151.611 126.202 151.82C125.324 152.113 124.39 152.145 123.477 152.25C122.179 152.421 120.87 152.464 119.57 152.655C117.733 153.049 115.95 153.657 114.166 154.238C112.305 154.773 110.722 155.896 108.967 156.673C107.638 157.238 106.416 157.995 105.259 158.854C104.85 159.242 103.603 159.682 103.998 160.383C104.129 160.569 104.28 160.641 104.44 160.641C104.821 160.641 105.255 160.242 105.585 160.06C106.144 159.694 106.697 159.322 107.253 158.952C108.554 158.091 110.055 157.6 111.4 156.819C113.079 155.749 115.014 155.221 116.883 154.585C117.922 154.278 118.96 153.929 120.035 153.777C120.567 153.728 121.102 153.693 121.636 153.655C121.904 153.882 122.093 154.213 122.287 154.512C122.615 155.33 121.038 156.342 120.473 156.794C118.184 158.236 115.665 159.248 113.274 160.494C112.268 161.079 111.336 161.784 110.288 162.298C109.229 162.928 107.853 162.915 106.647 163.116C104.766 162.962 102.906 162.6 101.035 162.373C99.3415 162.289 97.6604 162.114 95.9793 161.895C94.679 161.79 93.3808 161.678 92.0826 161.567C92.1236 161.457 92.1523 161.338 92.1789 161.236C92.3161 160.747 92.486 160.273 92.6355 159.776C93.0778 158.264 93.6081 156.782 94.1753 155.313C94.4907 154.499 94.8121 153.691 95.1766 152.9C96.2864 151.836 97.1608 150.548 98.203 149.419C99.5585 147.906 100.998 146.464 102.53 145.13C103.66 144.216 104.778 143.218 106.099 142.59C109.025 141.701 112.084 141.263 115.131 141.062C117.068 140.97 119.025 140.839 120.942 141.216C121.2 141.285 121.718 141.306 121.736 141.639C121.497 142.339 120.989 142.975 120.266 143.204C116.972 144.026 113.454 143.629 110.218 144.734C108.077 145.368 106.217 146.644 104.487 148.024C103.179 149.096 101.799 150.082 100.566 151.241C100.113 151.773 97.9552 152.998 98.7333 153.743V153.734Z" fill="black"/>
<path d="M161.923 203.615C144.016 201.165 143.755 205.04 146.987 188.293C146.798 180.307 141.895 174.865 138.729 167.915C136.596 161.747 135.635 154.748 133.87 148.266C127.735 126.533 117.804 109.48 147.217 102.342C175.494 93.3515 158.209 98.2526 180.822 102.571C186.373 103.953 192.857 100.715 195.828 96.0522C206.631 97.2416 217.917 98.0578 228.805 99.8685C239.606 105.863 244.813 116.942 250.085 127.866C253.516 134.976 257.521 141.556 261.244 148.217C265.869 156.493 265.541 165.34 258.842 171.865C253.721 176.581 247.981 184.876 240.117 181.835C238.005 181.281 237.233 189.449 235.681 192.798C233.087 198.388 237.019 201.351 227.253 201.96C203.589 203.437 183.435 206.558 161.925 203.615H161.923Z" fill="#FDC82E"/>
<path d="M208.134 60.697C207.145 64.2959 207.946 68.8627 204.182 71.059C202.716 72.2873 203.115 74.1821 202.445 75.9519C200.634 80.3895 196.842 84.056 193.182 86.9905C200.552 101.411 184.553 105.03 173.686 100.482C161.211 95.2608 168.423 97.7564 170.585 89.3488C173.332 83.3198 163.769 87.13 162.888 70.048C157.359 73.2491 156.341 52.2504 163.069 61.382C164.931 60.9226 164.284 58.2465 164.533 56.7865C164.449 51.545 168.727 45.7252 173.698 42.1735C175.771 40.7791 178.108 41.7511 180.327 42.2432C183.292 42.0464 185.879 40.3115 188.926 40.7668C192.956 40.4571 193.052 44.7532 196.734 45.4976C200.4 45.7929 203.747 48.43 204.266 52.2668C204.468 53.1158 205.283 58.265 203.523 57.4365C203.745 63.9145 206.705 54.9532 208.134 60.6929V60.697Z" fill="#9E616A"/>
<path d="M183.34 154.135C183.72 157.568 183.707 162.454 183.707 162.454L174.438 157.147C174.438 157.147 181.416 153.803 183.34 154.137V154.135Z" fill="#9E616A"/>
<path d="M245.265 142.895C252.22 131.253 237.826 144.753 243.754 136.776C245.961 129.908 237.372 138.613 236.41 140.775C240.545 131.493 230.796 145.003 229.772 147.439C227.483 152.25 241.801 147.041 245.162 148.633C249.246 141.267 243.437 145.341 245.267 142.895H245.265Z" fill="#9E616A"/>
<path d="M229.038 53.0972C229.809 60.6969 219.23 60.496 217.111 67.0212C217.645 71.8976 211.586 76.2778 208.055 78.2382C207.538 78.5253 205.891 77.5226 204.528 78.4597C198.104 82.8707 202.795 76.9545 203.01 75.5826C204.014 73.8375 202.891 71.2168 205.103 70.5729C208.763 68.2331 208.408 64.425 208.092 60.9594C207.562 55.1786 203.403 63.1495 204.407 56.5382C205.193 51.3501 202.713 46.4777 196.833 45.032C196.344 44.911 195.874 44.706 195.476 44.3984C194.899 43.9513 194.426 43.451 193.981 42.9527C192.265 41.0291 189.669 40.1289 187.136 40.6129C181.981 41.5992 182.157 42.0093 174.349 41.4536C161.322 49.9413 166.318 60.4878 163.753 61.103C161.932 61.5418 161.236 57.9122 159.902 58.9723C155.251 62.6717 159.158 71.6761 162.831 70.5155C163.146 73.4602 163.564 77.6763 165.014 80.2868C166.433 82.5118 152.529 84.9705 150.125 79.2759C144.491 75.839 149.045 71.389 149.047 68.0075C145.739 60.2991 132.571 61.0558 132.532 50.7328C129.631 41.632 131.522 35.3734 139.169 29.9413C141.266 20.0407 148.564 8.95488 158.532 5.61437C172.391 0.969641 173.434 6.68071 180.582 3.82825C182.352 2.16312 191.517 1.08243 194.051 1.28134C208.071 2.37844 207.014 10.2386 211.43 10.864C219.729 12.037 232.875 15.5908 230.068 29.7239C228.177 39.2471 223.283 41.6197 229.038 53.0952V53.0972Z" fill="#6F479F"/>
<path d="M209.586 76.8029C209.424 76.7373 209.303 76.5958 209.262 76.4276C209.061 76.2861 209.098 75.9949 209.285 75.8596C209.449 75.6976 209.601 75.4946 209.808 75.39C210.25 74.9388 210.705 74.541 211.182 74.137C211.27 74.0653 211.371 74.0263 211.475 74.0161C211.711 73.8459 211.989 73.5875 212.29 73.7679C212.58 73.9279 212.567 74.3011 212.409 74.5513C212.003 75.1562 211.428 75.632 210.884 76.1098C210.496 76.3764 210.11 76.9731 209.582 76.8029H209.586Z" fill="#6F479F"/>
<path d="M162.122 142.739C161.946 141.572 161.787 140.397 161.619 139.222C161.646 139.271 161.675 139.323 161.701 139.372C161.872 139.679 162.048 139.983 162.212 140.293C162.364 140.578 162.518 140.863 162.666 141.15C162.744 141.299 162.82 141.447 162.898 141.597C162.948 141.693 162.997 141.79 163.046 141.886C163.079 141.947 163.099 142.015 163.134 142.075C163.186 142.167 163.239 142.249 163.317 142.319C163.362 142.741 163.325 143.174 162.818 143.258C162.771 143.264 162.724 143.266 162.676 143.262C162.403 143.235 162.155 143.022 162.12 142.737L162.122 142.739Z" fill="black"/>
<path d="M229.403 148.639C229.179 148.537 229.097 148.225 229.251 148.03C229.557 147.474 229.906 146.943 230.24 146.406C231.411 144.323 232.283 142.071 233.686 140.119C233.761 140.006 233.837 139.893 233.915 139.78C233.961 139.735 234.006 139.69 234.049 139.643C234.172 139.508 234.291 139.374 234.406 139.235C234.513 139.108 234.614 138.975 234.716 138.843C234.895 138.616 235.065 138.382 235.25 138.158C235.437 137.931 235.628 137.705 235.821 137.482C236.127 137.168 236.453 136.877 236.843 136.672C237.525 136.264 238.399 136.409 238.562 137.283C238.707 137.988 238.397 138.671 238.096 139.294C237.502 140.488 236.847 141.69 235.942 142.674C235.445 143.129 234.679 142.467 235.055 141.909C235.954 140.627 236.909 139.307 237.354 137.791C236.498 138.384 235.833 139.274 235.186 140.063C234.072 141.532 233.129 143.119 232.267 144.747C231.641 146.045 230.819 147.22 229.976 148.385C229.928 148.578 229.723 148.691 229.532 148.672C229.487 148.668 229.444 148.656 229.403 148.637V148.639Z" fill="black"/>
<path d="M236.664 147.113C235.939 146.555 236.935 145.606 237.31 145.116C237.657 144.65 237.992 144.175 238.341 143.711C239.649 142.054 240.825 140.303 242.043 138.578C242.913 137.373 243.979 136.075 244.032 134.528C242.675 134.627 240.359 137.559 239.407 138.605C238.259 139.885 237.144 141.189 236.015 142.483C235.202 143.354 234.428 144.269 233.791 145.276C233.594 145.717 232.948 145.374 233.21 144.966C235.009 142.22 236.986 139.622 239.109 137.124C240.248 135.869 241.909 133.776 243.566 133.347C246.133 132.83 245.215 135.986 244.426 137.25C243.815 138.371 242.958 139.337 242.267 140.41C241.326 141.73 240.419 143.078 239.402 144.343C238.902 145.001 238.45 145.696 237.906 146.318C237.608 146.732 237.29 147.486 236.666 147.111L236.664 147.113Z" fill="black"/>
<path d="M242.524 146.392C241.834 145.883 242.628 145.198 242.944 144.72C243.842 143.492 244.815 142.323 245.698 141.084C246.127 140.445 248.089 138.039 246.211 138.191C244.901 138.509 243.926 139.575 242.942 140.434C242.082 141.249 241.304 142.141 240.53 143.033C240.101 143.496 239.421 142.83 239.887 142.399C240.427 141.997 240.832 141.449 241.286 140.957C242.511 139.631 243.733 138.214 245.33 137.328C246.418 136.698 248.184 137.108 248.196 138.566C248.188 140.279 246.398 142.052 245.468 143.443C244.93 144.148 244.367 144.835 243.852 145.559C243.532 145.979 243.162 146.781 242.524 146.39V146.392Z" fill="black"/>
<path d="M245.468 148.171C244.692 147.734 245.476 146.922 245.698 146.373C246.002 145.659 246.456 144.905 246.414 144.109C245.883 143.807 244.871 144.398 244.333 144.585C244.164 144.888 243.645 144.572 243.914 144.3C244.573 143.846 245.269 143.399 246.047 143.182C246.696 143.026 247.427 143.434 247.482 144.131C247.57 145.167 247.098 146.16 246.683 147.082C246.417 147.554 246.187 148.483 245.466 148.171H245.468Z" fill="black"/>
<path d="M232.764 149.943C232.548 149.593 233.014 149.41 233.329 149.435C233.895 149.326 234.398 148.959 234.946 148.76C236.006 148.364 237.082 147.997 238.18 147.804C240.387 147.489 242.617 147.706 244.83 147.79C246.185 147.827 247.538 147.93 248.891 147.755C249.815 147.704 249.92 149.379 248.986 149.486C246.807 149.705 244.623 149.449 242.446 149.291C240.714 149.201 238.876 149 237.168 149.322C236.182 149.484 236.408 149.535 235.252 149.693C234.901 149.802 233.559 149.888 233.203 149.945C233.132 149.937 232.819 150.019 232.764 149.945V149.943Z" fill="black"/>
<path d="M241.099 148.354C239.985 147.441 241.354 146.605 241.962 145.928C242.845 145.124 243.777 143.305 245.074 143.357C245.267 143.414 245.308 143.674 245.173 143.808C245.179 143.843 245.177 143.879 245.167 143.914C245.126 144.035 244.99 144.089 244.883 144.035C243.906 145.081 243.253 146.631 242.504 147.802C242.298 148.372 241.629 148.721 241.099 148.354Z" fill="black"/>
<path d="M234.707 139.828C234.457 139.774 234.323 139.62 234.262 139.407C234.311 139.352 234.36 139.294 234.407 139.237C234.514 139.11 234.615 138.977 234.717 138.845C234.896 138.618 235.067 138.384 235.251 138.16C235.395 137.986 235.539 137.814 235.684 137.642C235.631 138.058 235.567 138.472 235.492 138.886C235.492 139.331 235.292 139.887 234.777 139.838C234.754 139.836 234.732 139.832 234.707 139.828Z" fill="black"/>
<path d="M182.796 54.9795C182.779 54.9878 182.763 54.994 182.746 54.9982C182.763 54.992 182.779 54.9857 182.796 54.9795Z" fill="black"/>
<path d="M171.059 53.4866C171.061 53.4889 171.065 53.4912 171.068 53.4934C171.065 53.4912 171.061 53.4866 171.059 53.4844V53.4866Z" fill="black"/>
<path d="M171.047 53.4741C171.047 53.4741 171.055 53.4822 171.059 53.4842C171.055 53.4802 171.051 53.4761 171.047 53.4741Z" fill="black"/>
<path d="M191.17 55.7568C191.17 55.7568 191.183 55.7611 191.189 55.7611C191.183 55.7611 191.176 55.7568 191.168 55.7568H191.17Z" fill="black"/>
<path d="M191.17 55.7568C191.17 55.7568 191.153 55.7526 191.145 55.7505C191.153 55.7505 191.161 55.7547 191.17 55.7568Z" fill="black"/>
<path d="M201.799 54.8789C201.79 54.8935 201.78 54.908 201.77 54.9205C201.78 54.9059 201.788 54.8935 201.799 54.8789Z" fill="black"/>
<path d="M201.934 54.7829L201.943 54.7783C201.943 54.7783 201.938 54.7806 201.936 54.7829H201.934Z" fill="black"/>
<path d="M234.578 193.71C235.034 191.863 235.693 190.081 236.465 188.344C237.159 186.326 237.72 184.247 238.136 182.151C237.176 181.052 239.243 181.052 239.243 182.506C238.824 184.62 238.29 186.728 237.59 188.768C236.642 190.86 235.972 193.05 235.424 195.277C234.997 196.825 234.743 198.404 234.541 199.994C234.5 200.006 234.459 200.018 234.42 200.028C234.196 200.098 233.969 200.162 233.743 200.221C233.628 200.25 233.511 200.279 233.398 200.316C233.349 200.332 233.299 200.35 233.25 200.369C233.511 198.115 233.946 195.89 234.578 193.708V193.71Z" fill="black"/>
<path d="M191.238 55.7671C191.238 55.7671 191.253 55.7671 191.26 55.7692C191.253 55.7692 191.245 55.7671 191.238 55.7671Z" fill="black"/>
<path d="M191.17 55.7568C191.17 55.7568 191.183 55.7611 191.189 55.7632C191.183 55.7611 191.176 55.759 191.168 55.7568H191.17Z" fill="black"/>
<path d="M191.17 55.757C191.17 55.757 191.153 55.7528 191.145 55.7485C191.153 55.7506 191.161 55.7528 191.17 55.757Z" fill="black"/>
<path d="M191.17 55.7568C191.17 55.7568 191.183 55.7611 191.189 55.7632C191.183 55.7611 191.176 55.759 191.168 55.7568H191.17Z" fill="black"/>
<path d="M191.17 55.757C191.17 55.757 191.153 55.7528 191.145 55.7485C191.153 55.7506 191.161 55.7528 191.17 55.757Z" fill="black"/>
<path d="M201.799 54.8809C201.79 54.8954 201.78 54.9079 201.77 54.9224C201.78 54.9079 201.788 54.8954 201.799 54.8809Z" fill="black"/>
<path d="M201.934 54.7809C201.934 54.7809 201.938 54.7786 201.943 54.7764C201.94 54.7764 201.938 54.7764 201.936 54.7809H201.934Z" fill="black"/>
<path d="M201.396 54.6104C201.396 54.6104 201.417 54.6166 201.426 54.6208C201.415 54.6166 201.407 54.6125 201.396 54.6104Z" fill="black"/>
<path d="M201.799 54.8809C201.79 54.8954 201.78 54.9079 201.77 54.9224L201.799 54.8809Z" fill="black"/>
<path d="M182.796 54.9795C182.779 54.9878 182.763 54.994 182.746 54.9982C182.763 54.992 182.779 54.9857 182.796 54.9795Z" fill="black"/>
<path d="M171.059 53.4866C171.061 53.4889 171.065 53.4912 171.068 53.4934C171.065 53.4912 171.061 53.4866 171.059 53.4844V53.4866Z" fill="black"/>
<path d="M171.047 53.4741C171.047 53.4741 171.055 53.4822 171.059 53.4842C171.055 53.4802 171.051 53.4761 171.047 53.4741Z" fill="black"/>
<path d="M230.447 146.408C229.837 141.638 228.338 135.976 226.585 131.526C225.866 129.88 224.99 128.305 224.193 126.695C223.505 125.37 222.559 124.152 222.119 122.713C221.738 121.419 223.641 121.788 223.054 122.674C223.594 123.918 224.427 125.005 225.084 126.189C226.334 128.512 227.661 130.809 228.513 133.315C229.451 135.878 230.202 138.503 230.81 141.162C231.001 142.034 231.167 142.912 231.293 143.793C231.356 144.24 231.436 144.681 231.484 145.13C231.502 145.299 231.477 145.456 231.377 145.596C231.089 146.029 230.508 146.931 230.449 146.408H230.447Z" fill="black"/>
<path d="M182.596 153.827C182.268 153.54 182.196 153.081 182.083 152.681C182.017 152.414 182.213 152.129 182.463 152.049C183.206 151.86 183.159 152.683 183.422 153.12C183.773 153.63 183.046 154.254 182.598 153.827H182.596Z" fill="black"/>
<path d="M182.986 154.444C182.76 154.022 182.261 152.916 182.576 152.498C182.719 152.334 182.97 152.566 182.82 152.722C182.937 153.169 183.157 153.605 183.475 153.944C183.563 154.02 183.635 154.114 183.639 154.233C183.67 154.582 183.167 154.748 182.988 154.444H182.986Z" fill="black"/>
<path d="M177.356 102.933C177.358 102.895 177.393 102.866 177.43 102.868C177.468 102.872 177.497 102.906 177.495 102.943C177.493 102.981 177.458 103.01 177.42 103.008C177.383 103.003 177.353 102.97 177.356 102.933Z" fill="black"/>
<path d="M193.682 98.7963C193.684 98.7591 193.719 98.7282 193.756 98.7323C193.793 98.7364 193.822 98.7695 193.82 98.8066C193.818 98.8438 193.783 98.8747 193.746 98.8706C193.709 98.8665 193.68 98.8334 193.682 98.7963Z" fill="black"/>
<path d="M161.571 66.1145C161.495 66.1411 161.417 66.1637 161.335 66.1596C161.084 66.176 160.988 65.9197 160.906 65.729C160.475 64.599 160.331 63.1882 160.709 62.0316C160.957 62.21 161.105 62.4787 161.255 62.735C161.314 62.9216 161.493 63.061 161.704 63.0528C161.986 63.0426 162.197 62.7637 162.127 62.491C161.992 61.5128 161.068 60.2988 160.017 61.0124C158.715 61.8778 159.321 67.0188 161.029 67.2075C161.532 67.3244 162.446 67.0455 162.189 66.3852C162.082 66.1555 161.815 66.0365 161.573 66.1124L161.571 66.1145Z" fill="black"/>
<path d="M204.396 64.4042C204.413 64.476 204.431 64.5437 204.472 64.6073C204.526 64.6913 204.6 64.757 204.684 64.8041C205.129 65.0543 205.626 64.6073 205.53 64.1336C205.536 63.7214 205.144 63.4671 205.078 63.0775C205.164 62.9544 205.164 62.8437 205.117 62.7596C205.3 62.4766 205.526 62.1116 205.885 62.0501C206.187 62.9729 205.807 65.4767 205.275 66.2847C205.08 66.2847 204.926 66.4754 204.932 66.662C204.938 66.8466 205.082 66.984 205.261 67.0086C206.172 67.105 206.753 65.1199 206.883 64.4063C207.108 63.3953 207.377 62.1752 206.72 61.2688C206.158 60.6146 205.156 61.0863 204.803 61.7322C204.674 61.9394 204.378 62.5505 204.407 62.9216C204.056 63.2415 204.327 64.0003 204.392 64.4042C204.392 64.4042 204.392 64.4042 204.394 64.4042H204.396Z" fill="black"/>
<path d="M195.281 74.9346C195.562 74.7521 195.636 74.3563 195.451 74.0815C195.117 73.5914 194.591 73.8785 194.213 74.141C193.614 74.4712 193.021 74.8136 192.39 75.0823C188.935 76.4644 184.972 76.6756 181.338 75.8533C179.528 75.5108 177.756 75.0105 176.05 74.3112C175.725 74.2128 175.341 73.8826 175.013 73.7432C174.263 73.5094 174.04 74.6393 174.766 74.7501C176.805 76.1301 179.326 76.6244 181.698 77.1493C186.27 78.068 191.308 77.4815 195.279 74.9367L195.281 74.9346Z" fill="black"/>
<path d="M191.237 60.0181C191.543 60.1719 191.952 60.0017 192.05 59.6715C194.144 58.8902 196.6 58.8759 198.624 59.8725C198.809 59.9545 198.994 60.0325 199.172 60.1288C199.636 60.3811 200.209 59.8623 200.02 59.3762C199.788 58.7857 197.598 58.1356 196.943 58.0269C195.7 57.8178 194.421 57.8793 193.181 58.0884C192.325 58.2525 189.859 58.8738 191.239 60.0181H191.237Z" fill="black"/>
<path d="M176.647 58.3899C177.423 58.5027 178.187 58.7016 178.922 58.9763C179.546 59.1486 180.425 60.1124 180.915 59.2696C181.211 58.5806 180.412 58.3612 179.954 58.1007C178.721 57.5163 177.347 57.1902 175.982 57.1615C175.224 57.0651 170.108 57.5594 171.284 58.9723C171.44 59.1076 171.67 59.1384 171.857 59.0461C171.995 58.9599 172.103 58.8451 172.264 58.7979C173.668 58.3324 175.183 58.2566 176.649 58.3899H176.647Z" fill="black"/>
<path d="M190.966 55.3035C190.992 55.443 191.019 55.5803 191.048 55.7198C191.068 55.7259 191.087 55.7341 191.107 55.7403C191.114 55.7423 191.122 55.7444 191.128 55.7464C191.153 55.7526 191.175 55.7567 191.2 55.7608C191.214 55.7608 191.226 55.7608 191.241 55.7629C191.407 55.7629 191.575 55.7526 191.744 55.7341C191.803 55.7239 191.861 55.7095 191.92 55.6952C192.173 55.6173 192.421 55.5291 192.668 55.4286C192.9 55.322 193.123 55.2051 193.345 55.08C193.739 54.8421 194.121 54.5858 194.522 54.3561C194.735 54.2331 194.951 54.1141 195.172 54.0013C195.392 53.8906 195.62 53.8024 195.852 53.7163C196.092 53.6281 196.332 53.5461 196.581 53.4784C196.823 53.4128 197.078 53.3759 197.328 53.3472C197.846 53.2877 198.367 53.3144 198.872 53.4436C199.316 53.5563 199.741 53.7122 200.151 53.9111C200.506 54.0834 200.839 54.3007 201.184 54.4935C201.28 54.5448 201.381 54.5919 201.482 54.635C201.492 54.6391 201.502 54.6411 201.51 54.6452C201.627 54.6863 201.744 54.7252 201.864 54.7601C201.87 54.7396 201.876 54.7211 201.88 54.7027C201.88 54.7006 201.88 54.6986 201.88 54.6965C201.88 54.6924 201.88 54.6904 201.88 54.6863C201.882 54.6165 201.884 54.5468 201.884 54.475C201.884 54.4033 201.884 54.3335 201.884 54.2618C201.855 54.2187 201.82 54.1756 201.777 54.1346C200.506 52.8919 198.915 51.8297 197.063 51.8912C195.916 51.9753 194.842 52.4305 193.785 52.853C193.329 53.0929 191.834 53.7245 191.276 54.4033C191.105 54.4668 190.962 54.6145 190.908 54.8729C190.914 54.8913 190.918 54.9077 190.925 54.9241C190.96 55.0472 190.97 55.1743 190.968 55.2994L190.966 55.3035Z" fill="black"/>
<path d="M171.261 53.616C171.261 53.616 171.261 53.616 171.263 53.616C171.265 53.616 171.267 53.616 171.269 53.616C171.279 53.616 171.292 53.616 171.302 53.616C171.403 53.6078 171.503 53.5976 171.602 53.5832C171.704 53.5627 171.805 53.5401 171.906 53.5114C172.076 53.4581 172.244 53.4007 172.417 53.3638C172.598 53.3248 172.782 53.3023 172.965 53.2735C173.402 53.1956 173.829 53.0828 174.265 52.9926C174.55 52.9311 174.837 52.8901 175.127 52.8593C175.406 52.8306 175.694 52.8388 175.973 52.8511C176.484 52.8757 176.991 52.9413 177.496 53.0254C177.73 53.0644 177.966 53.1054 178.198 53.1587C178.455 53.2161 178.71 53.292 178.962 53.372C179.219 53.454 179.467 53.5545 179.718 53.6509C179.814 53.6878 179.913 53.7267 180.009 53.7637C180.059 53.7821 180.106 53.8026 180.155 53.8211C180.282 53.8723 180.408 53.9236 180.531 53.981C180.779 54.0979 181.017 54.2374 181.258 54.3665C181.496 54.4937 181.734 54.6208 181.974 54.7398C181.978 54.7398 181.982 54.7439 181.986 54.7459C182.157 54.8259 182.325 54.91 182.5 54.9776C182.528 54.9879 182.557 54.9961 182.586 55.0043C182.6 55.0063 182.615 55.0105 182.631 55.0125C182.635 55.0125 182.637 55.0125 182.641 55.0125C182.66 55.0125 182.678 55.0105 182.699 55.0084C182.707 55.0084 182.717 55.0043 182.728 55.0023C182.754 54.9899 182.779 54.9797 182.803 54.9653C182.838 54.9448 182.871 54.9223 182.906 54.8997C182.951 54.8628 182.994 54.8259 183.04 54.7869C183.064 54.7623 183.089 54.7377 183.114 54.7111C183.118 54.707 183.124 54.7008 183.128 54.6967C183.157 54.6598 183.185 54.6208 183.214 54.5819C183.226 54.5614 183.239 54.5409 183.251 54.5203C183.251 54.5121 183.255 54.5039 183.255 54.4957C183.259 54.4055 183.261 54.3153 183.263 54.2251C182.992 53.452 182.122 52.9495 181.405 52.5968C180.305 52.0678 179.153 51.592 177.958 51.3234C176.761 51.0609 175.531 51.1819 174.339 51.4259C174.059 51.5202 173.784 51.6207 173.513 51.7397C173.429 51.7827 173.343 51.8258 173.261 51.875C173.255 51.8791 173.246 51.8832 173.24 51.8873C173.23 51.8955 173.22 51.9017 173.209 51.9078C173.199 51.914 173.191 51.9201 173.181 51.9242C173.185 51.9242 173.189 51.9201 173.193 51.9181C173.144 51.9529 173.094 51.996 173.041 52.0227C172.984 52.0514 172.928 52.0739 172.869 52.0965C172.782 52.1293 172.696 52.16 172.61 52.1949C172.532 52.2257 172.452 52.2564 172.374 52.2872C172.345 52.3015 172.316 52.3159 172.288 52.3303C172.195 52.3897 172.103 52.4492 172.01 52.5087C171.821 52.6317 171.643 52.7609 171.468 52.9044C171.378 52.9885 171.294 53.0746 171.21 53.1628C171.21 53.1628 171.208 53.1628 171.206 53.1628C171.148 53.2243 171.091 53.2879 171.035 53.3515C171.035 53.3617 171.035 53.372 171.035 53.3802C171.035 53.4027 171.035 53.4253 171.039 53.4479C171.039 53.4397 171.039 53.4315 171.037 53.4253C171.039 53.4376 171.041 53.4479 171.043 53.4602C171.062 53.4745 171.078 53.4909 171.099 53.5053C171.15 53.5401 171.201 53.5709 171.255 53.6017C171.257 53.6017 171.259 53.6037 171.261 53.6058V53.616Z" fill="black"/>
<path d="M264.267 155.332C263.996 153.544 263.14 151.936 262.629 150.218C261.972 147.8 260.929 145.549 259.647 143.4C256.539 138.23 253.558 132.982 250.618 127.714C248.895 124.573 248.058 120.922 246.311 117.762C244.253 113.901 241.346 110.622 238.591 107.257C236.285 104.476 233.627 102.003 230.738 99.8335C229.662 99.1055 228.309 98.9906 227.061 98.7569C224.901 98.2668 222.706 97.9735 220.499 97.7869C217.177 97.4198 213.861 96.9933 210.544 96.6262C208.365 96.5709 206.199 96.3925 204.031 96.1874C201.303 95.6194 198.471 95.9454 195.763 95.3302C195.595 94.5981 195.49 93.8558 195.361 93.1155C195.028 91.4668 194.622 89.8324 194.326 88.1755C194.265 87.9397 194.24 87.4988 194.156 87.101C196.741 85.4276 198.714 83.5267 200.356 81.1971C200.371 81.2012 200.383 81.2094 200.397 81.2135C201.397 81.6134 202.816 79.9544 203.803 79.5525C205.064 78.7917 206.52 79.2736 207.885 79.2121C209.049 79.1936 209.534 78.0801 210.262 77.3747C211.548 76.2633 212.917 75.2502 214.169 74.0998C219.641 69.3013 215.886 67.0415 220.027 64.2874C223.439 61.6811 228.346 59.329 229.332 54.7868C229.923 47.6895 224.295 48.3375 228.213 38.0411C229.685 33.7696 231.508 29.3669 231.157 24.7652C230.475 19.2387 226.219 14.4053 221.092 12.4121C219.608 11.8277 218.042 11.4975 216.471 11.2391C214.406 10.8228 212.157 10.8782 210.283 9.81596C208.569 8.64504 207.671 6.64565 206.097 5.30863C201.726 1.28935 195.79 0.266073 190.037 0.444479C187.619 0.518303 185.231 0.994054 182.946 1.77945C180.289 2.62637 177.68 3.98596 174.824 3.87727C172.492 3.74193 170.184 3.32975 167.852 3.19235C161.779 2.92372 155.849 5.55881 150.951 8.96904C147.813 11.3498 144.966 14.2515 142.995 17.6782C141.732 20.0651 140.952 22.6653 140.277 25.2697C139.852 26.8343 139.359 28.4379 138.31 29.7093C135.977 32.1947 132.877 34.1593 131.594 37.4567C130.21 40.8915 130.149 44.6565 130.816 48.2595C131.274 50.8434 131.76 53.4969 133.058 55.8121C134.978 58.9332 138.437 60.7316 141.591 62.3947C144.582 63.8958 148.955 66.0797 148.204 70.0867C147.894 72.2993 146.475 74.471 147.138 76.739C148.333 80.0036 151.62 82.0461 154.833 82.9812C158.319 84.2341 161.774 82.4726 165.242 82.1773C165.394 82.3783 165.56 82.4726 165.716 82.489C165.911 82.7125 166.119 82.9299 166.341 83.1411C167.523 84.39 168.899 85.3866 170.389 86.1843C170.311 86.2622 170.252 86.3586 170.227 86.4734C170.1 87.0968 170.003 87.7325 169.831 88.3457C169.463 89.4182 169.196 90.5153 168.936 91.6165C168.398 93.2139 167.367 94.5879 166.189 95.7896C166.168 95.8203 166.143 95.849 166.123 95.8777C166.08 95.9352 166.037 95.9926 165.987 96.0438C165.987 96.0438 165.987 96.0438 165.985 96.0459C165.942 96.089 165.895 96.1279 165.844 96.1628C165.84 96.1648 165.836 96.1669 165.831 96.1689C165.801 96.1874 165.77 96.2058 165.737 96.2202C165.712 96.2325 165.686 96.2448 165.661 96.2571C165.616 96.2817 165.575 96.3084 165.53 96.3289C165.482 96.3514 165.431 96.374 165.38 96.3945C165.38 96.3945 165.38 96.3945 165.378 96.3945C165.378 96.3945 165.376 96.3945 165.374 96.3966C165.374 96.3966 165.374 96.3966 165.372 96.3966C165.306 96.4294 165.24 96.4642 165.172 96.495C165.139 96.5093 165.105 96.5237 165.07 96.536C165.066 96.536 165.061 96.5401 165.055 96.5422C165.016 96.5545 164.975 96.5647 164.934 96.5709C164.897 96.577 164.86 96.5791 164.823 96.5811C160.282 97.8095 155.757 99.1034 151.174 100.176C148.854 100.801 146.567 101.527 144.294 102.309C139.646 103.758 135.019 105.745 131.498 109.197C129.943 110.675 128.535 112.355 127.574 114.28C126.669 116.222 126.044 118.341 126.001 120.492C125.973 122.965 126.396 125.421 126.97 127.819C127.295 129.027 127.747 130.195 128.087 131.399C128.601 133.271 129.292 135.084 129.968 136.901C130.563 138.601 131.062 140.334 131.524 142.075C131.964 143.765 132.38 145.463 132.789 147.16C133.3 149.894 133.949 152.773 134.655 155.5C135.548 158.966 136.259 162.493 137.404 165.887C138.564 169.232 139.946 172.527 141.816 175.539C142.609 176.938 143.551 178.236 144.549 179.491C144.73 180.918 145.463 182.608 145.59 183.322C146.029 185.044 146.321 186.818 146.171 188.602C146.064 189.623 145.764 190.614 145.613 191.627C145.459 192.548 145.319 193.485 145.142 194.405C144.956 195.472 144.734 196.532 144.494 197.59C144.35 198.211 144.19 198.841 144.296 199.481C144.362 200.006 145.112 200.166 145.399 199.735C145.625 199.417 145.424 199.013 145.52 198.656C146.245 195.603 146.662 192.49 147.271 189.414C147.614 187.193 147.126 184.952 146.438 182.844C146.27 182.302 146.109 181.759 145.96 181.214C145.996 181.257 146.031 181.3 146.068 181.345C147.551 183.17 148.957 185.081 150.811 186.556C153.244 188.459 155.749 190.339 158.574 191.623C163.349 193.934 168.427 195.798 173.738 196.31C173.789 196.315 173.838 196.321 173.89 196.325C176.719 196.571 179.567 196.579 182.402 196.448C185.289 196.237 188.171 195.917 191.066 195.855C194.71 195.738 198.377 195.863 201.97 195.135C204.421 194.731 206.899 194.397 209.221 193.481C214.913 191.508 220.592 189.377 226.244 187.277C228.933 186.127 231.541 184.788 234.197 183.566C235.23 183.035 236.154 182.3 237.156 181.714C238.739 182.272 240.338 182.776 241.962 183.203C246.67 184.154 250.561 180.818 253.718 177.781C256.738 175.142 260.268 172.839 262.033 169.102C262.848 167.571 263.836 166.086 264.257 164.384C264.969 161.429 264.801 158.295 264.257 155.326L264.267 155.332ZM195.562 96.5606C196.396 96.8272 197.693 96.8292 198.287 96.8949C199.658 96.9154 201.017 97.0507 202.374 97.2045C202.34 97.2845 202.305 97.3665 202.27 97.4485C201.949 98.1376 201.582 98.804 201.18 99.45C200.763 100.104 200.307 100.73 199.816 101.328C199.738 101.285 199.652 101.248 199.547 101.224C198.215 100.648 196.983 99.8745 195.708 99.1875C195.273 98.9435 194.844 98.64 194.388 98.4205C194.87 97.8648 195.197 97.1943 195.564 96.5606H195.562ZM183.355 103.363C183.346 103.338 183.334 103.309 183.32 103.279C185.02 103.143 186.705 102.805 188.303 102.241C188.74 103.229 189.536 104.043 190.241 104.853C190.863 105.573 191.431 106.342 191.965 107.13C191.612 107.283 191.257 107.433 190.896 107.573C189.986 107.915 188.982 108.225 187.962 108.477C186.933 108.719 185.896 108.899 184.847 109.024C184.823 108.94 184.798 108.858 184.777 108.774C184.597 107.905 184.549 107.015 184.262 106.168C184.007 105.218 183.716 104.277 183.355 103.363ZM183.613 109.139C182.741 109.197 181.868 109.213 180.993 109.191C180.973 109.191 180.954 109.191 180.934 109.191C179.817 109.15 178.657 109.035 177.501 108.852C177.596 107.486 177.803 106.133 177.883 104.765C177.941 104.177 177.918 103.584 177.938 102.993C177.938 102.989 177.938 102.987 177.938 102.983C178.526 103.108 179.121 103.207 179.723 103.264C179.747 103.266 179.77 103.268 179.794 103.27C180.759 103.35 181.737 103.367 182.71 103.318C182.71 104.556 183.125 105.78 183.328 106.996C183.451 107.433 183.461 108.37 183.613 109.137V109.139ZM191.415 104.421C190.625 103.605 189.828 102.793 189.062 101.954C190.647 101.312 192.134 100.438 193.448 99.3126C193.68 99.4336 193.969 99.4787 194.181 99.6509C195.733 100.596 197.291 101.556 198.956 102.296C198.679 102.59 198.393 102.875 198.098 103.153C197.468 103.736 196.804 104.277 196.112 104.784L196.108 104.788C196.108 104.788 196.096 104.796 196.09 104.8C195.345 105.333 194.554 105.827 193.735 106.275C193.526 106.387 193.314 106.494 193.103 106.601C192.903 106.301 192.678 106.016 192.448 105.737C192.134 105.276 191.805 104.825 191.415 104.425V104.421ZM158.767 82.1609C154.782 82.4542 150.177 80.3317 148.407 76.6406C147.653 74.2495 149.46 71.9446 149.513 69.5412C149.786 65.2779 145.413 62.8971 142.108 61.2771C139.193 59.7206 135.924 58.0801 134.119 55.1866C132.951 53.0704 132.504 50.6609 132.072 48.3088C131.389 44.7365 131.409 40.9715 132.875 37.59C135.589 32.2521 140.227 32.1394 141.543 25.3045C142.27 22.5505 143.11 19.7739 144.623 17.3357C148.902 10.9192 155.775 6.36881 163.31 4.7611C168.162 3.49995 173.128 5.91562 177.959 4.757C180.759 4.01672 183.394 2.7248 186.239 2.13422C190.411 1.35702 194.792 1.51697 198.896 2.62637C201.531 3.50815 204.058 4.89439 205.98 6.92249C207.269 8.26567 208.154 10.0497 209.829 10.9766C211.718 11.9897 213.917 12.0389 215.988 12.4039C219.193 12.8448 222.357 13.9234 224.854 16.0335C227.408 18.3098 229.522 21.3488 229.931 24.8185C230.424 30.9479 226.849 36.3883 225.769 42.2573C224.308 48.8194 231.124 51.9897 226.677 57.4526C225.406 58.9045 223.85 60.0795 222.296 61.2156C220.351 62.7495 217.573 63.8137 216.777 66.3483C216.387 68.1324 216.28 70.0518 214.978 71.4729C213.266 73.6261 210.864 75.0534 208.936 76.981C208.653 77.2537 208.505 77.6597 208.172 77.8771C207.936 78.0022 207.665 78.0063 207.404 78.0022C204.696 77.5265 203.358 78.2811 201.377 79.6325C201.943 78.6871 202.473 77.6782 202.976 76.5872C203.748 74.9488 204.216 73.1832 204.491 71.395C204.721 71.3068 204.949 71.194 205.144 71.1366C206.343 70.7162 207.055 69.7094 207.489 68.5651C208.027 67.2834 208.361 65.9239 208.486 64.5397C208.63 63.2088 208.899 61.8554 208.657 60.5224C208.478 59.6735 208.109 58.7261 207.3 58.2995C206.347 57.8299 205.23 58.2483 204.598 59.0439C204.438 57.428 205.146 55.8429 205.052 54.2228C204.998 53.1791 204.612 52.1968 204.38 51.1858C204.154 50.2938 204.003 49.3484 203.483 48.5692C202.596 47.2773 201.301 46.2027 199.829 45.6491C198.628 45.2082 197.328 45.0851 196.156 44.5663C194.881 44.0311 194.242 42.7597 193.478 41.7016C192.409 40.4404 190.356 39.8088 188.734 39.8416C186.775 39.8314 184.948 40.627 183.086 41.1274C181.726 41.517 180.318 41.478 178.94 41.2094C178.101 41.0617 177.288 40.7624 176.429 40.7213C174.943 40.5901 173.691 41.2668 172.549 42.1445C171.054 43.3031 169.691 44.636 168.455 46.0653C166.858 47.9335 165.322 49.9821 164.585 52.3526C164.199 53.7307 164.152 55.1784 164.07 56.5995C164.033 57.5531 163.945 58.4985 163.803 59.4417C163.729 59.7534 163.715 60.1144 163.513 60.3748C163.245 60.7008 162.971 60.6229 162.702 60.342C162.429 60.0549 162.199 59.7268 161.959 59.4089C161.951 59.372 161.941 59.3392 161.933 59.3105C161.82 59.1321 161.672 58.9845 161.503 58.8614C161.444 58.7999 161.382 58.7404 161.317 58.683C161.317 58.683 161.317 58.6851 161.317 58.6871C161.255 58.6358 161.183 58.6276 161.115 58.644C160.317 58.3057 159.274 58.4472 158.705 59.1013C157.141 61.2012 157.169 64.0496 157.713 66.5042C158.184 68.6348 159.186 70.4784 161.386 71.1838C161.711 71.2474 162.045 71.2186 162.368 71.1407C162.885 74.4443 163.015 78.0965 164.676 81.0105C162.838 81.1089 160.224 82.1056 158.767 82.163V82.1609ZM166.981 82.0235C165.084 80.1246 164.47 77.4629 164.129 74.8873C163.883 73.1237 163.596 71.3683 163.372 69.6027C163.347 69.4182 163.325 69.2336 163.275 69.0552C163.123 68.5138 162.319 68.4995 162.13 69.0203C162.093 69.3197 162.134 69.6253 162.187 69.9308C161.516 70.1359 160.908 69.6232 160.387 69.2193C159.662 68.6123 159.366 67.79 159.073 66.8959C158.541 65.0462 158.323 63.0078 158.904 61.1438C159.186 60.4302 159.42 59.4376 160.346 59.3905C160.668 59.3782 160.92 59.4294 161.232 59.5607C161.245 59.5668 161.257 59.573 161.269 59.5791C161.386 59.7904 161.506 60.0036 161.631 60.2333C161.926 60.7849 162.255 61.4268 162.932 61.558C163.998 61.7938 164.766 60.748 164.879 59.7945C165.111 58.6646 165.211 57.5141 165.271 56.3637C165.382 54.7683 165.462 53.1237 166.135 51.6472C167.152 49.5494 168.583 47.6833 170.17 45.9854C171.586 44.5561 173.027 43.0591 174.851 42.1568C175.945 41.7323 177.111 42.0338 178.199 42.3147C179.404 42.5423 180.636 42.7515 181.862 42.6079C184.332 42.327 186.603 40.9592 189.13 41.07C189.565 41.0802 189.99 41.1725 190.405 41.2976C191.117 41.5437 191.877 41.7795 192.407 42.3434C193.033 43.0939 193.419 44.029 194.185 44.6668C195.776 46.3852 198.35 46.1228 200.276 47.2137C201.266 47.8802 202.276 48.6779 202.738 49.8119C203.12 51.2104 203.536 52.6069 203.801 54.0321C203.949 55.8859 203.06 57.6987 203.413 59.5545C203.446 60.463 204.12 60.8321 204.939 60.4589C205.411 60.2271 205.692 59.7637 205.984 59.3495C206.033 59.2756 206.062 59.1957 206.074 59.1116C206.437 59.0583 206.817 59.1342 207.033 59.4541C207.838 60.6598 207.569 62.1671 207.398 63.539C207.199 65.4768 206.83 67.468 205.801 69.1762C205.532 69.5761 205.097 69.8262 204.66 70.0047C204.651 70.0088 204.643 70.0108 204.635 70.0149C204.74 69.2111 205.006 68.0832 204.191 67.9663C203.142 67.9786 203.598 69.41 203.413 70.099C203.21 72.0471 202.775 73.9993 201.982 75.7978C200.41 79.0952 198.492 82.4111 195.482 84.591C193.018 86.5596 190.148 88.3477 186.896 88.6389C183.4 88.8871 179.922 88.0442 176.561 87.1727C173.036 86.2581 169.459 84.8083 166.979 82.0235H166.981ZM167.679 95.8777C168.5 94.9857 169.223 93.9993 169.732 92.8981C170.28 91.7908 170.391 90.5419 170.794 89.3833C171.091 88.5713 171.268 87.6239 171.432 86.7564C171.436 86.738 171.436 86.7195 171.438 86.7011C172.171 87.0374 172.925 87.3327 173.695 87.587C176.189 88.3765 178.727 89.1085 181.318 89.492C185.194 90.2487 189.378 90.1011 192.797 87.9315C192.949 87.8433 193.101 87.7572 193.248 87.6669C193.32 88.3006 193.363 88.9404 193.491 89.5679C193.92 91.6431 194.185 93.7512 194.626 95.8203C194.228 96.2469 194.043 96.8251 193.714 97.3009C192.735 98.4964 191.372 99.3105 190.087 100.143C185.773 102.323 180.367 102.84 175.822 101.078C172.732 99.8786 169.556 98.64 166.854 96.6918C167.215 96.3699 167.527 96.0356 167.679 95.8736V95.8777ZM172.217 101.306C171.408 102.889 170.461 104.439 169.685 106.057C169.656 106.117 169.623 106.178 169.589 106.244C168.966 105.92 168.344 105.567 167.737 105.188C166.854 104.622 166.004 104.007 165.195 103.34C165.131 103.287 165.066 103.227 165.002 103.172C165.125 103.051 165.242 102.926 165.347 102.829C166.408 101.757 167.548 100.769 168.587 99.6735C168.691 99.5771 168.81 99.4766 168.911 99.3659C170.024 99.9032 171.147 100.463 172.284 100.986C172.227 101.082 172.196 101.191 172.217 101.306ZM171.151 105.842C171.732 104.628 172.395 103.453 172.917 102.212C173.009 101.966 173.083 101.716 173.155 101.464C173.163 101.439 173.169 101.412 173.177 101.386C174.45 101.939 175.746 102.43 177.076 102.78C176.883 103.313 176.891 104.166 176.799 104.534C176.622 105.893 176.39 107.253 176.284 108.62C175.518 108.458 174.76 108.268 174.009 108.044H174.001C174.001 108.044 173.98 108.036 173.972 108.032C173.949 108.024 173.902 108.009 173.857 107.997C172.781 107.657 171.726 107.253 170.691 106.785C170.843 106.469 171.001 106.158 171.151 105.842ZM165.092 97.467C165.142 97.4424 165.193 97.4178 165.244 97.3932C165.306 97.4342 165.374 97.4588 165.447 97.467C165.56 97.4772 165.69 97.4485 165.825 97.3973C166.458 97.8874 167.117 98.3631 167.809 98.7774C167.788 98.8163 167.77 98.8553 167.757 98.9004C166.622 99.9708 165.452 101.002 164.339 102.099C164.259 102.171 164.166 102.251 164.074 102.337C163.661 101.95 163.255 101.542 162.861 101.121C162.481 100.711 162.074 100.244 161.68 99.7637C161.493 99.5382 161.31 99.3064 161.13 99.0768C161.074 99.005 161.017 98.9312 160.959 98.8594C162.36 98.4575 163.75 98.0268 165.094 97.469L165.092 97.467ZM263.175 163.658C262.869 165.239 262 166.613 261.243 168.007C260.465 169.525 259.569 170.993 258.338 172.187C256.671 173.85 254.759 175.242 252.995 176.796C250.09 179.512 246.705 182.752 242.385 182.038C236.649 180.6 231.284 178.023 225.852 175.757C221.905 174.641 218.118 173.021 214.106 172.141C211.591 171.641 209.063 171.192 206.62 170.394C205.087 169.884 201.453 168.824 201.204 168.754C201.459 167.63 201.732 166.504 201.732 165.342C201.781 162.495 201.358 159.657 200.839 156.864C200.467 155.051 200.375 153.208 200.137 151.379C200.015 150.843 200.036 149.773 199.726 149.117C200.04 149.072 200.356 149.035 200.668 148.994C203.403 148.746 206.132 149.211 208.862 149.307C211.505 149.394 214.163 149.414 216.808 149.576C218.506 149.701 220.197 149.9 221.899 149.972C224.486 150.099 227.073 150.232 229.664 150.202C230.962 150.22 232.444 150.195 233.752 149.962C234.583 149.818 235.413 149.666 236.244 149.533C236.78 149.465 236.928 148.698 236.482 148.417C236.082 148.18 235.61 148.428 235.185 148.467C233.425 148.801 231.647 149.029 229.851 148.973C227.434 148.992 224.854 148.895 222.39 148.764C220.236 148.694 218.101 148.399 215.949 148.309C213.426 148.2 210.903 148.198 208.38 148.132C205.596 148.05 202.742 147.62 200.007 148.335C199.863 148.381 199.541 148.475 199.223 148.6C199.1 148.555 198.954 148.541 198.786 148.565C193.885 149.234 188.964 149.896 184.174 151.165C183.545 151.36 181.936 151.801 182.209 152.691C182.307 152.888 182.455 152.931 182.609 152.898C182.628 152.956 182.646 153.013 182.665 153.07C181.521 153.499 180.373 153.913 179.222 154.323C178.152 154.686 177.086 155.066 176.029 155.457C175.508 155.673 174.92 155.808 174.461 156.142C174.286 155.966 174.116 155.785 173.949 155.599C171.913 153.394 170.475 150.745 168.617 148.403C167.049 146.416 164.986 144.849 163.505 142.791C162.52 141.488 162.025 139.889 161.148 138.511C160.684 137.916 159.114 134.467 158.274 135.261C157.605 135.806 158.43 136.464 158.738 136.975C159.099 137.494 159.387 137.965 159.728 138.519C160.701 140.004 161.296 141.708 162.267 143.184C163.768 145.393 165.926 147.044 167.605 149.107C169.652 151.713 171.25 154.662 173.602 157.03C176.649 160.137 180.735 161.862 184.691 163.498C187.428 164.972 190.282 166.147 193.216 167.173C198.408 169.373 206.043 171.479 207.784 172.008C210.24 172.732 212.794 173.017 215.262 173.692C217.38 174.176 219.401 174.959 221.444 175.687C222.942 176.183 224.492 176.53 225.967 177.104C229.192 178.521 232.428 179.961 235.735 181.197C235.425 181.386 235.121 181.591 234.641 181.864C233.723 182.512 232.678 182.93 231.664 183.4C229.5 184.378 227.41 185.526 225.188 186.373C221.123 187.856 217.073 189.371 213.009 190.86C210.587 191.631 208.263 192.66 205.774 193.232C203.263 193.673 200.757 194.161 198.219 194.416C195.831 194.563 193.439 194.543 191.05 194.625C188.132 194.684 185.231 195.006 182.324 195.22C179.103 195.355 175.857 195.359 172.654 194.947C167.603 194.252 162.82 192.357 158.272 190.111C155.72 188.805 153.412 187.056 151.187 185.262C149.474 183.793 148.171 181.942 146.74 180.215C141.595 174.373 138.593 166.964 136.903 159.432C135.969 155.585 134.93 151.848 134.208 147.936C133.436 144.359 132.538 140.799 131.415 137.313C130.676 135.166 129.806 133.064 129.221 130.866C128.796 129.418 128.227 128.009 127.933 126.525C127.486 124.287 127.108 122.011 127.27 119.723C127.786 114.481 131.132 110.599 135.306 107.671C139.757 104.726 145.007 103.35 150.045 101.759C152.521 101.027 155.065 100.541 157.543 99.815C158.461 99.5423 159.385 99.29 160.309 99.0296C160.331 99.0788 160.354 99.126 160.376 99.1711C160.465 99.3433 160.557 99.5135 160.656 99.6796C160.855 100.01 161.062 100.334 161.282 100.65C162.31 102.128 163.575 103.426 164.961 104.57C165.741 105.216 166.575 105.809 167.437 106.352L167.501 106.393C168.1 106.773 168.751 107.134 169.422 107.474C169.484 107.536 169.564 107.591 169.671 107.638C169.72 107.657 169.767 107.667 169.816 107.671C170.012 107.767 170.207 107.862 170.406 107.952C170.974 108.214 171.57 108.458 172.173 108.684C173.847 109.312 175.582 109.755 177.343 110.048C177.349 110.048 177.366 110.052 177.382 110.054C177.382 110.054 177.394 110.054 177.407 110.058C177.7 110.105 177.992 110.146 178.288 110.185C178.579 110.224 178.873 110.257 179.168 110.286C179.768 110.343 180.371 110.38 180.975 110.396C181.872 110.421 182.771 110.413 183.667 110.351C183.901 110.335 184.133 110.316 184.367 110.294C184.451 110.304 184.535 110.294 184.615 110.267C186.095 110.115 187.559 109.849 188.996 109.461C190.659 109.01 192.277 108.387 193.811 107.603C195.361 106.812 196.819 105.846 198.151 104.728C199.484 103.611 200.672 102.315 201.678 100.896C202.463 99.7863 203.124 98.5908 203.649 97.3378C204.462 97.4321 205.277 97.5224 206.095 97.588C210.685 97.8156 215.243 98.3795 219.807 98.9353C221.951 99.1444 224.104 99.3392 226.207 99.8273C228.178 100.145 229.908 100.375 231.356 101.882C234.614 104.378 237.271 107.515 239.825 110.702C241.474 112.57 242.958 114.59 244.276 116.704C246.692 120.385 247.573 124.78 249.702 128.606C251.786 132.359 253.977 136.046 256.05 139.807C258.132 143.27 260.444 146.66 261.467 150.62C261.863 152.031 262.561 153.335 262.889 154.764C263.509 157.658 263.758 160.728 263.171 163.644L263.175 163.658ZM186.414 154.247C187.855 154.135 189.296 154.042 190.731 153.876C192.123 153.739 193.499 153.413 194.893 153.185C196.279 152.995 197.654 152.74 199.026 152.461C199.176 153.831 199.295 155.207 199.525 156.569C196.93 156.737 194.335 156.881 191.733 156.961C189.352 157.098 186.931 157.051 184.586 157.516C184.58 157.266 184.564 157.012 184.527 156.757C184.424 156.013 184.274 155.277 184.085 154.549C184.857 154.504 185.615 154.338 186.414 154.247ZM183.975 154.03C183.858 153.487 183.708 152.898 183.424 152.418C184.771 151.928 186.221 151.776 187.617 151.463C191.273 150.759 194.977 150.341 198.66 149.818C198.747 150.29 198.818 150.763 198.88 151.239C197.948 151.395 197.006 151.639 196.069 151.776C194.844 151.965 193.624 152.174 192.413 152.445C190.263 152.91 188.052 153.015 185.909 153.493C185.266 153.653 184.613 153.835 183.973 154.03H183.975ZM184.564 158.948C184.57 158.652 184.584 158.343 184.588 158.025C184.664 158.037 184.74 158.045 184.808 158.062C187.851 158.207 190.918 158.111 193.967 158.06C195.581 158.021 197.199 157.967 198.804 157.82C199.092 157.764 199.432 157.803 199.755 157.797C200.063 159.606 200.362 161.443 200.463 163.285C196.698 163.094 192.996 162.272 189.294 161.611C187.795 161.203 186.27 160.92 184.73 160.738C184.708 160.621 184.636 160.557 184.552 160.533C184.566 160.006 184.57 159.477 184.562 158.948H184.564ZM184.525 161.281C184.593 161.31 184.658 161.335 184.712 161.351C185.773 161.802 186.826 161.987 187.945 162.348C189.391 162.838 190.9 163.071 192.39 163.383C194.254 163.748 196.131 164.076 198.014 164.329C198.839 164.425 199.67 164.478 200.5 164.515C200.5 165.27 200.461 166.024 200.369 166.777C200.288 167.378 200.087 167.966 199.968 168.561C197.35 167.573 194.725 166.545 192.123 165.485C189.532 164.632 187.143 163.301 184.679 162.153C184.611 162.126 184.543 162.097 184.478 162.071C184.496 161.806 184.512 161.544 184.525 161.279V161.281ZM183.274 161.574C180.408 160.365 177.571 158.956 175.253 156.893C175.327 156.866 175.399 156.842 175.471 156.823C176.068 156.626 176.668 156.436 177.265 156.235C179.162 155.609 181.061 154.978 182.936 154.282C183.059 155.166 183.254 156.038 183.346 156.926C183.422 157.645 183.357 158.367 183.342 159.087C183.365 159.918 183.316 160.746 183.277 161.574H183.274Z" fill="black"/>
<path d="M179.942 66.7134C180.322 66.5596 180.701 66.3525 180.502 65.8603C180.174 65.2697 179.636 65.6327 179.252 65.9423C178.983 66.1187 178.581 66.414 178.712 66.7544C178.544 67.0476 178.622 67.4496 179.162 67.6177C180.636 69.0778 182.66 69.9493 184.695 70.2754C186.902 70.4907 189.298 70.1093 191.043 68.6594C191.443 68.276 192.546 67.7141 192.54 67.0907C192.71 66.8528 192.714 66.496 192.359 66.2725C191.938 66.0818 191.681 65.5876 191.209 65.5117C190.753 65.4932 190.675 66.0203 190.955 66.2992C191.072 66.4817 191.205 66.6519 191.349 66.8118C190.994 67.1338 190.622 67.4393 190.236 67.7244C188.897 68.844 187.093 69.1291 185.393 69.1044C183.43 68.9486 181.482 68.1201 180.026 66.7954C179.997 66.7646 179.971 66.738 179.942 66.7113V66.7134Z" fill="black"/>
</svg>
