<svg width="486" height="364" viewBox="0 0 486 364" fill="none" xmlns="http://www.w3.org/2000/svg">
<path d="M407.18 52.1401C407.34 52.1101 407.5 52.0801 407.65 52.0301C407.77 51.9901 407.86 51.9301 407.95 51.8501C407.95 51.8501 407.97 51.8301 407.98 51.8201C408.04 51.7801 408.09 51.7501 408.13 51.7001C408.16 51.6601 408.18 51.6101 408.18 51.5601C408.18 51.5101 408.17 51.4601 408.13 51.4201C408.13 51.4201 408.12 51.4201 408.12 51.4001C408.12 51.4001 408.11 51.3901 408.1 51.3801C408.06 51.3501 408.02 51.3201 407.98 51.2901C407.97 51.2901 407.96 51.2701 407.95 51.2601C407.87 51.1901 407.78 51.1301 407.68 51.0901C407.52 51.0301 407.36 51.0001 407.19 50.9701C406.84 50.9101 406.52 51.2101 406.52 51.5601C406.52 51.8701 406.79 52.1601 407.1 52.1601C407.13 52.1601 407.16 52.1601 407.19 52.1601L407.18 52.1401Z" fill="black"/>
<path d="M406.759 51.5499C406.759 51.4899 406.709 51.4399 406.649 51.4399C406.589 51.4399 406.539 51.4899 406.539 51.5499C406.539 51.6099 406.589 51.6599 406.649 51.6599C406.709 51.6599 406.759 51.6099 406.759 51.5499Z" fill="black"/>
<path d="M106.619 69.94C106.639 72.46 107.009 75.7 105.029 76.42C99.5394 74.31 97.4394 75.67 96.7694 79.71C95.0094 81.68 91.4494 75.97 90.8594 77.78C89.3894 82.29 87.9094 82.68 83.8094 82.39C82.3694 69.23 79.4894 54.89 80.2094 48.71C83.1694 46.4 83.2094 49.07 88.0794 44.04C93.6194 47.92 99.9794 63.61 106.629 69.94H106.619Z" fill="#E1CBF1"/>
<path d="M80.8609 47.92C78.5409 45.22 77.4109 37.3 79.0509 34.23C83.8909 36.65 94.1509 46.39 80.8609 47.92ZM81.1709 45.26C81.1709 45.26 81.2009 45.21 81.2109 45.18C81.1509 45.18 81.1609 45.21 81.1709 45.26Z" fill="#5D2B9D"/>
<path d="M183.66 302.17C182.87 306.87 172.4 305.2 172.4 305.2C172.4 305.2 114.99 159.19 96.9704 116.56C92.1204 105.86 87.5804 94.7599 83.9004 83.1499C85.7104 80.7999 90.7904 83.7699 90.4804 79.2399C98.3704 69.9199 111.06 124.91 116.29 132.32C138.6 188.65 161.42 245.84 183.65 302.18L183.66 302.17Z" fill="#5D2B9D"/>
<path d="M193.14 293.45C193.33 293.93 193.14 302.25 189.83 294.73C181.1 274.97 172.84 254.97 166.47 234.31C145.67 182.59 124.72 130.13 106.12 77.59C105.29 77.07 105.59 71.73 107.12 71.49C108.65 71.25 110.65 75.38 111.1 75.87C114.03 79.02 161.36 207.94 165.22 218.15C175.17 243.02 184.33 268.21 193.14 293.45Z" fill="#5D2B9D"/>
<path d="M190.661 298.7C191.021 299.55 183.651 303.55 183.651 303.55C183.651 303.55 164.501 251.91 158.191 235.96C138.231 185.25 117.531 133.96 97.7808 83.1598C95.8908 80.1298 97.7607 77.9698 99.5907 75.4798C102.381 74.5298 104.251 75.7098 105.471 77.7598C133.081 151.09 163.101 225.44 190.661 298.7Z" fill="#FDC82E"/>
<path d="M179.419 316.65C175.719 316.87 172.169 309.34 172.649 305.85C178.319 308.15 188.709 302.83 193.859 296.21C196.819 295.56 199.159 304.76 198.019 306.88C193.709 314.87 184.869 316.85 179.419 316.65Z" fill="#FDC82E"/>
<path d="M179.871 317.14C187.291 317.75 194.011 312.52 198.311 306.88C210.551 320.63 192.361 329.39 181.421 327.55C181.421 327.55 173.801 312.31 179.871 317.14Z" fill="#E1CBF1"/>
<path d="M203.891 321.92C206.751 330.6 193.121 338.53 183.501 332.87C181.641 331.78 181.401 326.48 182.501 327.92C195.211 331.08 203.171 314.41 203.891 321.91V321.92Z" fill="#5D2B9D"/>
<path d="M204.64 319.14C204.44 318.55 204.17 317.99 203.9 317.43C203.9 317.29 203.88 317.15 203.83 317.01C203.63 316.47 203.42 315.93 203.22 315.39C200.95 309.4 198.68 303.41 196.41 297.42C193.2 288.94 189.99 280.47 186.78 272C183.49 263.31 180.2 254.63 176.91 245.94C174.07 238.45 171.23 230.95 168.39 223.46C165.36 215.45 162.32 207.44 159.29 199.43C156.28 191.47 153.26 183.52 150.25 175.57C147.29 167.77 144.34 159.97 141.38 152.17C137.92 143.06 134.48 133.94 131.02 124.83C127.72 116.13 124.43 107.42 121.11 98.7302C119.39 94.2402 117.66 89.7402 115.89 85.2702C115.08 83.2102 114.26 81.1602 113.42 79.1202C113.01 78.1202 112.6 77.1002 112.15 76.1102C111.97 75.7202 111.8 75.3302 111.6 74.9602C111.53 74.8402 111.46 74.7202 111.38 74.6002C110.72 73.4602 109.87 72.4402 108.83 71.6302C108.61 71.1302 108.13 70.7202 107.85 70.2602C106.93 69.0702 106.03 67.8602 105.19 66.6102C103.39 64.1202 101.57 61.6902 99.9197 59.1002C98.1397 56.5702 96.2497 54.1202 94.5197 51.5502C92.4097 48.4002 90.5297 45.1502 88.3097 42.0602C86.3597 39.5502 84.1797 37.2302 82.2697 34.6902C82.0697 34.4402 81.8097 34.1802 81.4997 33.9502C81.0097 33.5002 80.4597 33.1302 79.8597 32.8602C78.7997 32.3902 77.5197 32.9902 77.2497 34.1302C77.0297 35.5602 77.4797 36.9602 77.8097 38.3602C77.8797 39.0302 77.9597 39.7102 78.0297 40.3802C78.2497 42.3902 78.4697 44.3902 78.6997 46.3902C78.9197 48.3602 79.1397 50.3402 79.3597 52.3102C79.5997 54.4502 79.8397 56.5902 80.0897 58.7302C80.3397 60.9402 80.5997 63.1502 80.8597 65.3502C81.1297 67.5702 81.3997 69.7902 81.6697 72.0102C81.9397 74.2702 82.2197 76.5302 82.5197 78.7802C82.6597 79.8602 82.8097 80.9502 82.9797 82.0302C83.0597 82.5702 83.1497 83.1002 83.2597 83.6302C83.3097 83.9002 83.3697 84.1602 83.4497 84.4202C83.4497 84.4402 83.4697 84.4702 83.4797 84.4902C83.5397 84.7702 83.6097 85.0502 83.6897 85.3202C83.9497 86.1602 84.2497 86.9802 84.5397 87.8102C85.0897 89.3402 85.6397 90.8602 86.2197 92.3802C88.5597 98.5302 90.9897 104.65 93.4197 110.76C95.9097 117.03 98.4097 123.3 100.9 129.58C103.75 136.74 106.6 143.9 109.45 151.06C112.6 158.97 115.75 166.89 118.9 174.81C121.82 182.14 124.73 189.46 127.64 196.79C131.05 205.36 134.46 213.94 137.88 222.51C141.04 230.47 144.21 238.42 147.37 246.38C150.73 254.83 154.09 263.28 157.46 271.73C160.64 279.72 163.82 287.7 166.99 295.69C169.75 302.62 172.5 309.55 175.26 316.48C176.51 319.64 177.77 322.8 179.03 325.96C179.03 325.99 179.05 326.02 179.06 326.06C179.52 327.32 180.24 328.7 180.84 329.91C181.43 331.23 182.14 332.46 182.99 333.64C185.04 335.27 187.82 335.93 190.41 336C192.44 336.1 194.45 335.64 196.34 334.89C197.5 334.51 198.62 334 199.59 333.25C200.42 332.67 201.18 331.98 201.87 331.23C203.08 329.89 204.35 328.55 205.1 326.9C206.39 324.41 205.4 321.65 204.6 319.17L204.64 319.14ZM181.19 325.9C180.65 324.55 179.87 322.6 179.42 321.47C178.82 319.96 178.22 318.45 177.62 316.94C178.07 317.15 178.53 317.32 179.02 317.42C179.74 317.57 180.48 317.63 181.22 317.63C181.56 317.63 181.9 317.62 182.24 317.59C183.61 317.5 184.97 317.21 186.28 316.81C187.48 316.45 188.66 315.99 189.79 315.44C192.27 314.23 194.61 312.67 196.52 310.67C197.22 309.94 197.88 309.13 198.42 308.26C199.53 311.18 200.64 314.11 201.74 317.04C201.75 317.24 201.8 317.46 201.88 317.68C201.61 317.95 201.46 318.39 201.29 318.79C200.71 319.64 199.87 320.3 199.15 321.02C196.41 323.52 193.07 325.48 189.39 326.19C186.42 326.8 183.66 327.41 181.19 325.9ZM107.48 73.0302C107.48 73.0302 107.58 73.0102 107.62 73.0302C107.62 73.0302 107.64 73.0302 107.66 73.0302C107.78 73.0502 107.89 73.1402 107.99 73.2002C108.12 73.2902 108.25 73.3702 108.38 73.4702C108.51 73.5702 108.64 73.6702 108.76 73.7802C108.89 73.9002 109.03 74.0002 109.17 74.1102C109.44 74.3202 109.69 74.5602 109.91 74.8302C110.03 74.9802 110.13 75.1402 110.23 75.3002C110.32 75.4302 110.4 75.5602 110.49 75.6902C110.69 76.0102 110.9 76.3202 111.08 76.6602C111.09 76.6802 111.11 76.7102 111.12 76.7302C111.23 76.9302 111.33 77.1402 111.37 77.3702C111.4 77.5202 111.43 77.6802 111.45 77.8302C111.54 78.1002 111.63 78.3702 111.73 78.6502C113.23 83.0002 114.81 87.3302 116.41 91.6402C118.02 95.9702 119.64 100.3 121.27 104.62C124.66 113.61 128.07 122.6 131.48 131.59C134.85 140.5 138.23 149.41 141.61 158.32C144.5 165.94 147.38 173.56 150.27 181.18C153.29 189.14 156.3 197.1 159.32 205.06C162.32 212.99 165.32 220.91 168.33 228.84C171.2 236.42 174.07 244.01 176.95 251.59L187.02 278.18C189.02 283.47 191.03 288.75 193.03 294.04C192.95 294.25 192.86 294.46 192.77 294.66C192.64 294.95 192.51 295.24 192.37 295.52C192.35 295.55 192.34 295.58 192.32 295.61C192.05 296.09 191.76 296.57 191.46 297.03C191.28 296.57 191.11 296.12 190.93 295.66C188.11 288.38 185.28 281.1 182.46 273.82C179.21 265.44 175.96 257.06 172.71 248.68C169.41 240.15 166.11 231.63 162.8 223.11C159.52 214.67 156.26 206.23 152.98 197.78C149.71 189.35 146.44 180.92 143.18 172.49C139.97 164.21 136.77 155.94 133.56 147.67C130.36 139.41 127.15 131.15 123.95 122.88C120.79 114.75 117.64 106.62 114.48 98.4802C112.87 94.3302 111.25 90.1902 109.63 86.0502C108.93 84.2602 108.23 82.4702 107.52 80.6902C107.18 79.8202 106.83 78.9502 106.49 78.0902C106.34 77.7102 106.18 77.3302 106.03 76.9502C106.03 76.9302 106.02 76.9002 106.01 76.8802C106.04 76.8302 106.07 76.7902 106.09 76.7302C106.58 75.5202 106.72 74.1702 107.48 73.0802C107.48 73.0602 107.49 73.0402 107.51 73.0302H107.48ZM184.46 302.52C184.46 302.52 184.46 302.43 184.44 302.39C182.93 298.56 181.43 294.71 179.93 290.88C176.89 283.12 173.84 275.36 170.8 267.6C167.58 259.4 164.37 251.2 161.15 243C158 234.96 154.84 226.92 151.69 218.88C148.55 210.86 145.41 202.85 142.26 194.84C138.98 186.47 135.69 178.09 132.41 169.72C129.28 161.74 126.15 153.75 123.02 145.77C119.82 137.61 116.62 129.45 113.42 121.29C110.44 113.7 107.46 106.11 104.47 98.5202C102.98 94.7502 101.5 90.9802 99.9897 87.2202C99.2797 85.4502 98.5697 83.6902 97.8297 81.9402C97.6397 81.4902 97.4497 81.0402 97.2397 80.6002C97.5097 80.1502 97.7297 79.6402 97.9097 79.2302C98.4197 78.0802 98.8897 76.8702 99.6697 75.8702C101.08 76.1102 102.39 76.7902 103.68 77.3902C103.94 77.5702 104.2 77.6702 104.44 77.7302C104.52 77.9502 104.6 78.1802 104.68 78.4002C104.97 79.1702 105.26 79.9402 105.55 80.7102C108.61 88.7902 111.74 96.8402 114.85 104.9C117.99 113.02 121.14 121.14 124.28 129.26C127.48 137.51 130.67 145.75 133.87 154C137.09 162.3 140.31 170.61 143.53 178.91C146.79 187.33 150.06 195.75 153.32 204.17C156.62 212.67 159.92 221.18 163.21 229.68C166.45 238.04 169.69 246.4 172.93 254.77C176.17 263.13 179.41 271.49 182.65 279.85C184.94 285.75 187.67 292.78 189.99 298.75C189.97 298.77 189.95 298.79 189.93 298.82C189.62 299.13 189.3 299.42 188.98 299.71C188.59 300.05 188.19 300.37 187.77 300.66C187.37 300.91 186.97 301.15 186.57 301.4C186.13 301.66 185.69 301.93 185.24 302.17C184.98 302.3 184.72 302.41 184.46 302.54V302.52ZM80.7597 46.9502C80.7297 46.7102 80.7097 46.4702 80.6797 46.2302C80.4597 44.2402 80.2397 42.2602 80.0197 40.2702C79.8297 38.5902 79.6497 36.9102 79.4597 35.2302C79.4497 35.1202 79.4097 35.0302 79.3597 34.9402C79.6097 35.0002 79.8297 35.1102 80.0397 35.2502C80.2097 35.4002 80.3497 35.5302 80.4197 35.5902C80.7797 35.8902 81.1297 36.4702 81.5297 36.8902C82.1297 37.6702 82.7197 38.4402 83.3697 39.1802C84.6197 40.6602 85.9297 42.1102 87.0597 43.6902C86.8797 43.9202 86.7297 44.2102 86.5997 44.4802C85.8097 45.4202 84.8197 46.1802 83.7197 46.7202C82.8797 47.1702 81.8997 47.1902 80.9697 47.0202C80.8997 47.0002 80.8297 46.9802 80.7697 46.9602L80.7597 46.9502ZM84.2597 81.1402C84.1997 80.3102 84.1297 79.4902 84.0597 78.6702C83.8597 76.4302 83.6397 74.1902 83.4097 71.9402C83.1797 69.6802 82.9597 67.4302 82.7197 65.1802C82.4897 62.9802 82.2597 60.7902 82.0297 58.5902C81.7997 56.4402 81.5697 54.3002 81.3297 52.1502C81.2097 51.0802 81.0897 50.0102 80.9797 48.9502C81.4097 49.0402 81.8597 49.0602 82.2897 49.0702C84.1797 48.9902 85.9197 47.8802 87.2697 46.6102C87.5597 46.3402 87.9597 45.9302 88.2797 45.4902C90.1897 48.4102 92.0397 51.4902 94.0697 54.3302C95.3797 56.2402 96.7897 58.0702 98.1297 59.9602C99.7397 62.4902 101.5 64.9002 103.27 67.3102C104.22 68.6802 105.18 70.0602 106.22 71.3702C106.24 71.3902 106.25 71.4102 106.27 71.4402C105.26 72.3502 104.72 74.3902 104.39 75.5402C97.8997 72.3702 98.3097 73.8902 95.5397 79.5502C93.9997 78.7302 90.8997 75.9402 89.4497 78.0102C88.8797 79.1302 88.6297 80.3902 88.0197 81.4902C86.9397 81.2202 85.0797 80.0402 84.2597 81.1502V81.1402ZM164.48 283.95C161.17 275.63 157.86 267.31 154.55 258.99C151.25 250.69 147.95 242.39 144.64 234.1C141.4 225.95 138.15 217.79 134.91 209.64C131.67 201.49 128.42 193.34 125.18 185.19C122.32 177.99 119.45 170.79 116.59 163.6C113.24 155.17 109.88 146.74 106.53 138.32C104.1 132.22 101.68 126.13 99.2497 120.03C96.7997 113.89 94.3597 107.74 91.8997 101.6C90.6397 98.4702 89.3797 95.3302 88.0797 92.2102C87.4097 90.6102 86.7297 89.0102 86.0297 87.4202C85.6597 86.5702 85.2897 85.7302 84.8897 84.9002C84.8097 84.7302 84.7097 84.5702 84.6097 84.4002C84.9997 83.8502 85.3397 82.9902 85.5297 82.7102C86.1497 82.9102 86.7697 83.1102 87.3797 83.3502C87.7897 83.5602 88.2697 83.7102 88.7197 83.5102C89.2897 83.2702 89.6197 82.7002 89.8897 82.1802C90.3397 81.2402 90.6897 80.2502 91.0397 79.2702C92.5997 79.7902 93.8097 80.9902 95.3097 81.6202C95.5597 81.6802 95.7697 81.6702 95.9697 81.6302C96.2697 82.5002 96.5797 83.3602 96.8997 84.2102C97.8097 86.6502 98.7497 89.0802 99.6897 91.5102C102.62 99.0902 105.58 106.66 108.55 114.23C111.72 122.32 114.89 130.4 118.06 138.49C121.16 146.41 124.27 154.32 127.37 162.24C130.64 170.59 133.92 178.94 137.19 187.29C140.35 195.34 143.5 203.38 146.66 211.43C149.85 219.56 153.03 227.69 156.22 235.82C159.38 243.87 162.54 251.93 165.69 259.98C168.85 268.04 172.01 276.1 175.17 284.15C177.65 290.49 180.13 296.82 182.62 303.16L182.69 303.34C181.9 303.7 181.1 304.03 180.28 304.33C179.87 304.46 179.46 304.58 179.03 304.67C178.52 304.77 178.02 304.86 177.5 304.92C177.08 304.94 176.66 304.94 176.23 304.92C175.43 304.85 174.64 304.74 173.86 304.59C173.42 304.49 172.99 304.37 172.57 304.24C169.88 297.48 167.19 290.72 164.5 283.96L164.48 283.95ZM174.01 307.89C173.8 307.37 173.6 306.85 173.39 306.33C173.77 306.43 174.15 306.52 174.54 306.6C175.14 306.72 175.74 306.79 176.35 306.83C176.59 306.85 176.82 306.86 177.06 306.86C177.42 306.86 177.78 306.84 178.14 306.79C178.6 306.72 179.07 306.65 179.52 306.55C179.97 306.45 180.41 306.33 180.86 306.19C181.31 306.04 181.76 305.86 182.19 305.69C182.62 305.52 183.04 305.34 183.46 305.14C184.33 304.74 185.21 304.35 186.06 303.92C186.49 303.71 186.9 303.47 187.3 303.22C187.69 302.99 188.09 302.76 188.47 302.52C188.88 302.26 189.28 301.98 189.66 301.69C190.02 301.4 190.36 301.09 190.7 300.78C191.05 300.47 191.37 300.14 191.69 299.8C192 299.47 192.31 299.15 192.59 298.79C192.88 298.41 193.15 298.03 193.39 297.62C193.6 297.29 193.81 296.95 193.99 296.61C194.74 298.6 195.5 300.59 196.25 302.57C196.65 303.63 197.05 304.69 197.45 305.75C197.34 306.03 197.23 306.3 197.1 306.56C196.91 306.94 196.68 307.3 196.45 307.65C196.13 308.1 195.78 308.54 195.41 308.95C194.92 309.49 194.4 310 193.85 310.47C193.2 311.03 192.46 311.58 191.7 312.09C190.8 312.68 189.88 313.2 188.92 313.67C188.11 314.06 187.16 314.45 186.2 314.79C185.35 315.07 184.49 315.31 183.61 315.48C182.94 315.6 182.27 315.7 181.59 315.75C181.52 315.75 181.46 315.75 181.4 315.75C181.01 315.77 180.5 315.77 179.99 315.73C179.53 315.69 179.08 315.63 178.63 315.53C178.28 315.45 177.94 315.35 177.6 315.23C177.4 315.15 177.21 315.06 177 314.98C176.95 314.96 176.89 314.94 176.83 314.93C175.89 312.57 174.95 310.22 174.02 307.86L174.01 307.89ZM201.48 328.72C200.29 330.1 198.93 331.5 197.28 332.37C195.63 333.09 193.9 333.72 192.11 333.95C190.24 334.07 188.35 333.95 186.58 333.29C185.78 332.93 184.76 332.7 184.25 331.95C183.44 330.75 182.74 329.44 181.91 328.23C182.11 328.31 182.32 328.38 182.54 328.44C184.76 329.17 187.1 328.6 189.32 328.2C194.52 327.33 199.09 324.21 202.58 320.36C202.66 320.25 202.76 320.12 202.85 319.98C202.85 320 202.86 320.02 202.86 320.03C204.15 323.99 204.39 325.43 201.48 328.73V328.72Z" fill="black"/>
<path d="M182.33 125.87C181.65 94.3099 178.71 98.7899 161.85 91.3199C156.58 96.9999 143.77 98.7899 136.65 89.4199C128.35 90.9899 121.84 92.5999 117.11 97.9899C107.92 109.49 103.81 136.17 107.55 150.76C117.7 153.02 119.44 147.3 118.05 160.47C118.73 171.6 117.1 172.18 116.66 187.52C132.89 200.01 158.31 197.64 175.07 192.09C177.45 178.54 177.77 163.56 178.27 149.49C178.72 136.87 181.95 138.53 182.31 125.86L182.33 125.87ZM170.32 184.57C170.32 184.57 170.34 184.55 170.35 184.53C170.35 184.55 170.35 184.57 170.35 184.59C170.35 184.59 170.33 184.58 170.32 184.57Z" fill="#FDC82E"/>
<path d="M407.8 324.51C407.8 324.51 278.85 324.13 216.78 324.13C215.51 300.59 216.02 71.51 217.01 50.96C230.69 50.96 407.5 51.69 407.5 51.69L407.8 324.52V324.51Z" fill="#6F479F"/>
<path d="M392.669 297.49C376.079 299.23 256.419 297.49 232.309 297.49C232.309 258.43 232.249 112.11 231.939 68.75C265.789 68.75 388.139 69.1 391.659 69.21C391.779 74.89 395.229 231.04 392.669 297.49Z" fill="white"/>
<path d="M310.98 82.7398C310.74 82.6998 310.69 82.3298 310.95 82.2698C311.53 82.1298 312.11 81.9698 312.71 81.8798C312.3 81.6098 312.19 81.0098 312.45 80.5898C310.6 80.6298 308.74 80.6998 306.89 80.6898C306.45 80.6898 306.08 80.3298 306.08 79.8898C306.08 79.4498 306.45 79.0698 306.88 79.0798C311.84 78.9198 316.8 78.6198 321.77 78.5898C323.51 78.5898 325.25 78.6299 326.99 78.7299C327.8 78.7999 328.75 78.6698 329.41 79.2098C331.28 79.2298 333.14 79.3498 335.01 79.4998C335.63 79.5398 336.34 79.5898 336.8 80.0798C337.36 80.6098 337.01 81.6698 336.23 81.7398C330.88 82.1198 325.52 82.3498 320.15 82.2598C317.08 82.0198 314.04 82.6498 310.99 82.7498L310.98 82.7398Z" fill="white"/>
<path d="M253.461 110.73C253.461 110.67 253.511 110.62 253.561 110.62C253.611 110.62 253.661 110.67 253.661 110.73C253.661 110.79 253.611 110.84 253.561 110.84C253.511 110.84 253.461 110.79 253.461 110.73Z" fill="#E1CBF1"/>
<path d="M217.02 52.1298C216.86 52.0998 216.7 52.0698 216.55 52.0198C216.43 51.9798 216.34 51.9198 216.25 51.8398C216.25 51.8398 216.23 51.8198 216.22 51.8098C216.16 51.7698 216.11 51.7398 216.07 51.6898C216.04 51.6498 216.02 51.5998 216.02 51.5498C216.02 51.4998 216.03 51.4498 216.07 51.4098C216.07 51.4098 216.07 51.4098 216.08 51.3898C216.08 51.3898 216.09 51.3798 216.1 51.3698C216.14 51.3398 216.18 51.3098 216.22 51.2798C216.22 51.2798 216.24 51.2598 216.25 51.2498C216.33 51.1798 216.42 51.1198 216.52 51.0798C216.68 51.0198 216.84 50.9898 217.01 50.9598C217.36 50.8998 217.68 51.1998 217.68 51.5498C217.68 51.8598 217.41 52.1498 217.1 52.1498C217.07 52.1498 217.04 52.1498 217.01 52.1498L217.02 52.1298Z" fill="black"/>
<path d="M217.439 51.5402C217.439 51.4802 217.489 51.4302 217.549 51.4302C217.609 51.4302 217.659 51.4802 217.659 51.5402C217.659 51.6002 217.609 51.6502 217.549 51.6502C217.489 51.6502 217.439 51.6002 217.439 51.5402Z" fill="black"/>
<path d="M407.231 51.8602H359.251C357.971 51.8302 357.951 49.9202 359.251 49.8902C371.571 49.8902 383.891 49.8902 396.221 49.8902C400.131 49.8902 404.041 49.8702 407.941 49.8902C408.561 49.9502 408.971 50.6802 408.711 51.2502C408.471 51.8602 407.791 51.8902 407.221 51.8502L407.231 51.8602Z" fill="black"/>
<path d="M408.09 50.3802C407.54 49.8402 406.57 50.0702 405.85 49.9802C402.37 49.8702 398.88 49.9002 395.39 49.8902C384.97 49.8902 374.54 49.8902 364.12 49.8902C363.94 49.8602 363.75 49.8602 363.57 49.8902H348.44C328.71 49.8902 308.98 49.8902 289.25 49.8902H265.15C263.71 49.8902 262.27 49.8902 260.82 49.8902C260.65 49.8602 260.47 49.8602 260.29 49.8902C249.59 49.8902 238.88 49.8902 228.17 49.8902C224.26 49.8902 220.35 49.8702 216.45 49.8902C215.87 49.9502 215.48 50.5802 215.64 51.1302C215.63 51.1902 215.6 51.2502 215.6 51.3102V324.2C215.56 324.77 216.01 325.27 216.59 325.27C216.63 325.27 216.66 325.25 216.69 325.25C216.88 325.27 217.07 325.28 217.24 325.26C218.23 325.26 219.21 325.25 220.19 325.24C258.35 325.29 296.51 325.24 334.67 325.26C335.41 325.26 336.16 325.26 336.9 325.26H407.62C407.62 325.26 407.69 325.26 407.72 325.25C407.75 325.25 407.77 325.27 407.79 325.27C408.25 325.27 408.62 324.94 408.73 324.51C408.76 324.43 408.76 324.34 408.77 324.25C408.77 324.23 408.77 324.21 408.77 324.19V324.17V51.3102C408.77 50.8702 408.47 50.5102 408.07 50.3802H408.09ZM404.77 323.3H370.07C360.59 323.3 351.12 323.3 341.64 323.3C339.4 323.3 337.15 323.3 334.91 323.3C334.63 323.27 334.33 323.3 334.05 323.29H328.4C292.43 323.3 256.46 323.27 220.48 323.31C219.52 323.31 218.55 323.31 217.58 323.3V51.8602H252.78C252.86 51.8602 252.94 51.8602 253.02 51.8602H260.29C260.4 51.8702 260.5 51.8802 260.61 51.8602H363.78C363.89 51.8802 363.99 51.8702 364.1 51.8602H371.37C380.1 51.8602 388.83 51.8602 397.56 51.8502C399.92 51.8502 402.29 51.8502 404.66 51.8002C405.38 51.7802 406.1 51.7602 406.82 51.7202V323.3C406.14 323.3 405.45 323.34 404.77 323.31V323.3Z" fill="black"/>
<path d="M393.709 68.7499C393.709 68.4499 393.559 68.1699 393.329 67.9899C393.279 67.9399 393.209 67.8999 393.129 67.8699C393.129 67.8699 393.119 67.8699 393.109 67.8599C392.799 67.7199 392.459 67.7899 392.139 67.7699H239.999C237.339 67.7699 234.679 67.7699 232.029 67.7699C231.919 67.7699 231.809 67.7699 231.699 67.7699C231.419 67.7699 231.149 67.8499 231.059 68.0099C231.019 68.0399 230.979 68.0699 230.939 68.1099C230.739 68.3099 230.689 68.5599 230.709 68.8099C230.669 69.1599 230.729 69.5399 230.709 69.8899V298.47C230.709 299.01 231.159 299.46 231.699 299.46C231.699 299.46 231.709 299.46 231.719 299.46C231.719 299.46 231.729 299.46 231.739 299.46H392.689C392.689 299.46 392.699 299.46 392.709 299.46C392.709 299.46 392.719 299.46 392.729 299.46C393.269 299.46 393.719 299.01 393.719 298.47V69.9199C393.689 69.5799 393.739 69.2099 393.719 68.8699C393.719 68.8299 393.729 68.7999 393.729 68.7599L393.709 68.7499ZM391.729 70.0699V297.49H232.669V70.0399C232.669 69.9399 232.659 69.8399 232.669 69.7399H391.739C391.739 69.8499 391.739 69.9599 391.739 70.0699H391.729Z" fill="black"/>
<path d="M291.119 33.6502C291.139 33.7602 290.969 33.7702 290.959 33.6702C290.959 33.5402 290.9 33.2002 291.07 33.1802C291.21 33.2102 291.099 33.4002 291.109 33.4902C291.109 33.5502 291.109 33.6002 291.109 33.6502H291.119Z" fill="#FDC82E"/>
<path d="M365.24 78.1402C359.93 78.1402 281.65 78.1402 259.55 77.7402C260.17 56.3102 258.48 47.0002 259.33 41.7402C265.54 41.3102 272.63 41.4702 291.42 41.5602C291.59 37.6802 289.09 31.5002 291.08 28.4802C300.26 29.0602 324.63 27.7202 333.82 28.6702C334.83 32.4502 334.55 35.6102 335.21 41.2602C351.59 40.6902 365.19 41.9402 365.19 41.9402C365.19 41.9402 365.24 72.5502 365.24 78.1402Z" fill="#FDC82E"/>
<path d="M366.18 41.74C366.18 41.74 366.18 41.71 366.17 41.69C366.17 41.6 366.14 41.51 366.11 41.43C366.11 41.41 366.11 41.39 366.09 41.37C366.05 41.28 365.98 41.19 365.89 41.12C365.69 40.93 365.38 40.86 365.09 40.89C364.63 40.86 364.12 40.9 363.72 40.89H335.54V29.24C335.54 29.01 335.54 28.78 335.54 28.55C335.54 28.48 335.54 28.41 335.54 28.35C335.54 28.35 335.54 28.34 335.54 28.33C335.54 28.3 335.51 28.29 335.51 28.27C335.51 28.25 335.49 28.24 335.49 28.23C335.35 27.99 334.85 28.05 334.51 28.04H290.55C290.55 28.04 290.51 28.04 290.49 28.04C290.26 28 289.98 28.09 289.98 28.32V40.89H259.23C258.72 40.86 258.18 41.13 258.17 41.72V78.18C258.2 78.86 258.87 79.11 259.42 78.98C259.46 78.98 259.49 79 259.53 79H363.24C363.79 78.95 364.62 79.07 365.26 78.98C365.31 78.98 365.35 78.97 365.4 78.96C365.44 78.96 365.48 78.94 365.52 78.93C365.59 78.91 365.66 78.88 365.73 78.84C365.79 78.81 365.85 78.77 365.91 78.72C365.97 78.67 366.02 78.62 366.06 78.56C366.07 78.54 366.09 78.52 366.1 78.5C366.16 78.39 366.21 78.28 366.2 78.15V52.58C366.2 49.74 366.2 46.9 366.2 44.06C366.2 43.44 366.2 42.82 366.2 42.2C366.2 42.06 366.2 41.92 366.2 41.77C366.2 41.77 366.2 41.76 366.2 41.75L366.18 41.74ZM291.77 29.6H333.73V40.67C333.54 40.65 333.32 40.67 333.15 40.66H291.76V29.6H291.77ZM363.71 77.29H260.12V42.59H363.22C363.5 42.56 363.85 42.59 364.21 42.59C364.2 50.28 364.21 57.96 364.21 65.65V77.28C364.04 77.28 363.87 77.28 363.72 77.28L363.71 77.29Z" fill="black"/>
<path d="M362.649 114.12C363.099 114.17 363.419 114.62 363.349 115.06C363.279 115.52 362.859 115.82 362.409 115.76C361.289 115.59 360.169 115.3 359.139 114.8C358.299 114.4 357.539 113.84 356.609 113.75C355.309 113.78 354.179 114.57 352.919 114.82C351.579 115.1 350.199 115.02 348.849 114.88C347.329 114.77 345.919 114.11 344.419 113.92C343.369 113.79 342.479 114.39 341.589 114.84C340.359 115.5 339.029 116.13 337.609 116.02C336.499 115.98 335.499 115.47 334.489 115.1C332.299 114.22 330.119 115.54 328.099 116.29C324.779 117.43 321.299 116.16 318.069 115.28C316.609 114.89 315.089 114.9 313.649 115.31C311.029 116.03 308.489 117.59 305.679 116.98C303.569 116.62 301.649 115.2 299.449 115.46C297.839 115.84 296.349 116.65 294.689 116.87C292.449 117.24 290.209 116.68 288.109 115.92C287.119 115.59 286.079 115.31 285.039 115.52C283.769 115.79 282.619 116.41 281.499 117.03C281.029 117.25 280.409 117.75 279.979 117.75C279.809 117.75 279.669 117.67 279.579 117.47C279.529 117.31 279.599 117.19 279.679 117.07C279.729 116.88 279.889 116.71 280.099 116.78C284.499 113.13 286.779 113.92 289.359 114.72C291.139 115.27 293.069 115.82 295.949 114.91C299.749 113.39 300.669 113.47 304.469 114.93C305.979 115.54 307.669 115.62 309.209 115.09C312.729 113.78 315.499 112.6 319.269 113.9C321.889 114.62 324.709 115.59 327.409 114.77C328.619 114.35 329.759 113.72 331.019 113.43C332.589 112.96 334.259 113.12 335.729 113.82C336.489 114.14 337.279 114.43 338.109 114.38C341.499 113.8 342.299 111.29 346.389 112.67C348.289 113.26 350.309 113.53 352.299 113.27C353.139 113.1 353.919 112.75 354.729 112.47C356.519 111.68 358.149 112.33 359.699 113.25C360.609 113.72 361.619 113.99 362.639 114.14L362.649 114.12Z" fill="black"/>
<path d="M361.55 107.34C362.15 107.69 362.01 108.68 361.32 108.83C361.1 108.88 360.89 108.84 360.7 108.73C360.1 108.4 359.5 108.08 358.93 107.72C358.13 107.23 357.41 106.59 356.59 106.12C355.03 105.38 353.58 106.74 352.19 107.27C351.41 107.6 350.57 107.75 349.73 107.75C348.24 107.75 346.82 107.23 345.43 106.76C343.9 106.27 342.26 105.47 340.64 105.97C339.2 106.44 337.88 107.26 336.4 107.59C334.8 107.97 333.18 107.5 331.67 106.99C328.45 105.83 326.78 106.01 323.76 107.56C320.99 109.05 318.66 109.49 315.79 107.94C314.77 107.44 313.74 106.87 312.58 106.75C309.4 106.84 306.69 109.06 303.48 108.96C302.68 108.96 301.9 108.7 301.21 108.3C300.51 107.84 299.82 107.39 298.97 107.26C297.51 106.83 296.24 107.59 294.99 108.34C293.99 108.94 292.99 109.55 291.92 109.55C291.52 109.55 291.11 109.47 290.68 109.27C289.65 108.77 288.75 108 287.67 107.6C285.62 106.99 283.65 108.35 281.76 108.97C280.81 109.3 279.79 109.4 278.79 109.45C278.56 109.45 278.33 109.4 278.14 109.25C277.87 109.03 277.86 108.62 278.11 108.38C278.54 108.11 279.08 108.04 279.57 107.91C281.7 107.62 283.49 106.25 285.61 105.92C287.35 105.49 288.98 106.27 290.39 107.22C290.94 107.52 291.51 108.03 292.18 107.91C293.31 107.59 294.23 106.77 295.29 106.29C297.6 104.98 300.09 105.46 302.17 106.96C303.31 107.58 304.71 107.31 305.9 106.97C307.59 106.36 309.23 105.61 311.01 105.31C312.15 105.01 313.35 105.08 314.44 105.53C315.77 105.99 316.95 106.84 318.33 107.17C319.98 107.61 321.58 106.81 323.03 106.1C324.44 105.43 325.9 104.75 327.47 104.61C328.79 104.49 330.12 104.8 331.37 105.19C333.04 105.71 334.82 106.48 336.57 105.86C338.83 105.05 340.87 103.6 343.37 104.4C346.12 105.01 348.98 106.99 351.8 105.67C355.01 103.93 356.32 103.58 359.32 106.04C360.05 106.52 360.8 106.95 361.55 107.38V107.36V107.34Z" fill="black"/>
<path d="M267.459 106.83C274.339 115.74 258.949 120.93 257.179 112.11C256.069 106.6 263.739 102.02 267.459 106.83Z" fill="#E1CBF1"/>
<path d="M262.109 117.99C256.179 117.39 253.649 109.91 258.019 105.85C262.069 101.98 268.949 104.3 269.819 109.84C270.609 114.36 266.659 118.53 262.109 117.99ZM262.849 116.06C266.799 116.14 269.329 111.5 267.129 108.22C265.009 104.86 259.819 105.26 258.229 108.89C256.689 112.15 259.249 116.12 262.849 116.06Z" fill="black"/>
<path d="M171.311 304.78C171.311 304.72 171.361 304.67 171.421 304.67C171.481 304.67 171.531 304.72 171.531 304.78C171.531 304.84 171.481 304.89 171.421 304.89C171.361 304.89 171.311 304.84 171.311 304.78Z" fill="black"/>
<path d="M171.24 304.7C171.24 304.64 171.29 304.59 171.35 304.59C171.41 304.59 171.46 304.64 171.46 304.7C171.46 304.76 171.41 304.81 171.35 304.81C171.29 304.81 171.24 304.76 171.24 304.7Z" fill="black"/>
<path d="M178.089 136.62C177.539 136.03 177.959 135.04 177.919 134.31C178.029 130.8 178.459 127.31 179.059 123.85C178.829 121.46 178.709 119.06 178.769 116.66C178.819 115.91 178.629 114.85 179.539 114.56C179.309 112.62 178.949 110.7 178.709 108.76C178.529 108.65 178.399 108.46 178.369 108.24C178.189 106.99 178.009 105.75 177.799 104.51C177.659 103.69 177.519 102.88 177.369 102.07C177.309 102.02 177.239 101.98 177.159 101.97C176.869 102.39 176.859 103.11 177.079 103.55C177.209 103.76 176.879 103.96 176.759 103.74C176.439 103.23 176.399 101.45 177.249 101.46C177.199 101.2 177.149 100.94 177.099 100.68C176.959 99.58 178.539 99.25 178.859 100.32C179.749 103.45 180.399 106.63 180.759 109.86C181.049 111.78 181.439 113.69 181.549 115.63C181.749 118.2 181.549 120.77 181.549 123.33C181.529 124.33 181.489 125.33 181.419 126.33C181.439 126.9 181.099 127.5 180.479 127.54C180.189 129.43 180.039 131.34 179.939 133.25C179.899 134.19 179.809 135.13 179.709 136.07C179.639 136.84 178.599 137.18 178.079 136.62H178.089Z" fill="#FDC82E"/>
<path d="M174.63 174.35C174.12 174.07 174.03 173.43 174.21 172.92C174.46 171.31 174.73 169.7 175 168.09C175.33 165.1 175.3 162.07 175.76 159.09C175.89 158.09 177.36 157.98 177.62 158.97C177.71 159.32 177.76 159.68 177.76 160.04C178.4 163.15 177.64 166.28 176.89 169.29C176.76 169.74 176.84 170.29 176.52 170.67C176.36 171.58 176.26 172.5 176.09 173.4C176.21 174.17 175.29 174.76 174.64 174.35H174.63Z" fill="#FDC82E"/>
<path d="M132.52 192.51C133.42 193.21 132.59 194.62 131.53 194.2C131.2 194.07 130.89 193.93 130.57 193.79C130.11 194.16 129.52 193.91 129.04 193.7C128.8 193.6 128.57 193.51 128.34 193.41C128.16 193.33 127.97 193.25 127.78 193.17C124.36 191.73 121.66 189.07 119.16 186.4C119.19 186.53 119.22 186.66 119.25 186.78C119.22 186.74 119.2 186.71 119.17 186.67C119.07 186.25 119.15 185.77 119.1 185.37C119.1 185.33 119.09 185.29 119.08 185.25C119.24 184.96 119.54 184.74 119.89 184.74C120.24 184.17 121.08 184.44 121.33 184.98C121.68 185.44 122.07 185.9 122.27 186.45C123.03 187.32 124.13 187.87 124.78 188.83C125.6 188.95 126.35 189.36 127.12 189.64C127.44 189.64 127.69 189.86 127.95 190.02C129.51 190.75 131.05 191.57 132.49 192.51H132.52Z" fill="#FDC82E"/>
<path d="M167.03 36.7601C175.12 35.1001 173.28 55.5401 169.59 53.2301C158.58 46.3101 151.47 42.3801 152.23 60.5701C152.09 62.3401 153 68.8701 150.09 68.3901C148.06 66.2401 148.91 61.3601 144.84 60.6901C140.39 59.0601 142.31 65.4701 142.26 68.5801C141.98 87.1901 135.3 65.0301 132.45 59.2701C119.7 39.5801 153.11 31.3401 167.02 36.7801L167.03 36.7601Z" fill="#3F3D56"/>
<path d="M123.65 134.1C122.43 133.86 122.36 132.54 122.86 131.62C123.19 130.85 123.68 129.87 124.62 129.8C124.65 129.77 124.67 129.73 124.71 129.7C124.83 129.2 125.33 128.83 125.85 128.87C126.11 128.29 126.95 128.14 127.39 128.6C128.14 129.38 128.9 130.15 129.72 130.86C130.02 131.12 130.36 131.33 130.65 131.6C131.53 132.51 130.23 133.84 129.28 133C129.13 133.5 128.56 133.74 128.08 133.57C127.92 133.64 127.76 133.69 127.59 133.72C127.24 133.78 126.87 133.74 126.53 133.62C126.32 133.71 126.08 133.74 125.85 133.71C125.64 133.68 125.45 133.61 125.29 133.51C124.83 133.88 124.27 134.21 123.66 134.1H123.65Z" fill="#9E616A"/>
<path d="M164.07 137.03C164.11 137.89 163.97 138.76 164.03 139.62C164.12 140.22 164.14 140.98 163.75 141.37C163.58 141.55 163.31 141.65 162.93 141.62C162.59 141.57 162.31 141.36 162 141.25C162 141.25 161.98 141.25 161.97 141.24C161.38 141.08 161.01 141.04 160.46 140.9C159.25 140.51 157.97 140.57 156.72 140.54C154.14 140.36 151.45 140.8 149.42 142.48C149.36 143.09 148.75 143.58 148.14 143.4C146.96 143.26 146.81 142.41 147.2 141.42C147.47 140.54 147.73 139.65 147.8 138.72C147.86 136.86 147.1 135.13 146.34 133.47C146.31 133.41 146.28 133.34 146.26 133.28C146.12 132.97 146.17 132.64 146.33 132.38C146.52 132.06 146.89 131.85 147.3 131.91C148.02 132.1 148.76 132.09 149.49 132.06C150.66 131.99 151.78 131.61 152.92 131.42C154.33 131.2 155.77 131.25 157.2 131.24C158.76 131.26 160.43 131.27 161.77 132.17C163.34 133.22 164.1 135.2 164.09 137.04L164.07 137.03Z" fill="#9E616A"/>
<path d="M133.26 126.8C133.15 126.78 133.17 126.6 133.29 126.61C133.4 126.63 133.38 126.81 133.26 126.8Z" fill="#FDC82E"/>
<path d="M130.109 136.44C128.779 136.38 125.599 136.21 125.019 134.82C124.849 134.15 125.399 133.46 126.069 133.38C127.569 133.25 129.089 133.36 130.599 133.19C129.919 132.13 129.159 131.15 128.369 130.17C127.749 129.83 127.199 129.38 126.619 128.99C126.399 128.78 126.109 128.74 125.829 128.66C125.029 128.41 124.179 128.07 123.619 127.43C123.169 126.87 123.369 125.84 124.109 125.63C124.249 124.46 125.699 124.42 126.569 124.76C127.949 125.25 128.899 126.42 129.929 127.4C130.679 128.14 131.439 128.86 132.199 129.57C132.809 130.17 133.499 130.75 133.809 131.56C134.369 132.13 134.939 132.91 134.149 133.57C134.699 136.07 132.019 136.62 130.109 136.46V136.44Z" fill="#FDC82E"/>
<path d="M180.16 138.2C179.5 137.73 179.73 136.85 179.78 136.17C179.73 135.52 179.7 134.88 179.66 134.23C179.56 133.19 179.58 131.94 179.61 130.94C179.54 130.36 179.76 129.64 180.44 129.58C180.54 129.22 180.38 127.58 181.02 127.89C181.08 127.93 181.13 127.99 181.12 128.07C181.02 128.6 181.12 129.14 181.07 129.68C182.11 130.4 181.67 135.03 181.58 136.29C181.57 136.55 181.54 136.81 181.53 137.07C181.69 137.37 181.64 137.76 181.43 138.02C181.13 138.4 180.53 138.5 180.15 138.18L180.16 138.2Z" fill="#FDC82E"/>
<path d="M161.791 325.41C162.051 327 162.421 328.87 161.351 330.24C160.031 331.5 157.581 332.59 155.741 332.34C154.371 332.11 152.581 331.73 152.241 330.15C151.941 328.45 151.931 326.72 152.171 325.02C152.501 322.49 152.381 319.94 152.621 317.41C152.541 317.08 152.551 316.81 152.621 316.6C152.911 315.74 154.301 315.76 155.531 315.85C156.181 315.9 156.781 315.96 157.161 315.92C157.721 315.85 158.151 315.39 158.701 315.29C159.181 315.21 159.651 315.54 159.791 316.01C159.871 316.33 159.791 316.66 159.801 316.98C159.781 317.71 159.851 318.43 159.991 319.15C160.411 320.59 161.151 321.93 161.451 323.4C161.571 324.07 161.681 324.73 161.791 325.4V325.41Z" fill="#5D2B9D"/>
<path d="M117.341 318.56C119.171 318.21 122.041 319.03 121.641 321.36C121.601 322.76 121.741 324.35 120.771 325.48C118.441 327.8 115.381 329.32 112.351 330.52C110.861 331.1 109.341 331.95 107.701 331.82C106.291 331.66 105.421 330.17 106.041 328.88C106.161 328.53 106.401 328.25 106.641 327.97C107.601 326.87 108.501 325.68 109.741 324.89C111.141 324.14 112.291 323.03 113.261 321.79C113.811 321.18 114.261 320.71 114.521 319.96C114.361 319.59 114.471 319.18 114.731 318.9C114.791 318.82 114.861 318.74 114.941 318.68C114.971 318.63 115.001 318.57 115.031 318.52C115.141 318.35 115.371 318.37 115.461 318.52C116.081 318.51 116.791 318.12 117.331 318.57L117.341 318.56Z" fill="#5D2B9D"/>
<path fill-rule="evenodd" clip-rule="evenodd" d="M172.749 65.1899C173.069 65.9799 174.699 67.2699 174.829 68.1599C174.959 69.0499 173.609 69.5299 173.549 70.4699C173.209 76.2399 169.209 82.2999 161.159 81.8399C149.169 81.8799 159.999 87.2899 160.329 91.2199C160.489 93.1399 157.759 95.3799 149.859 96.0299C146.819 96.2799 138.119 94.6699 136.429 89.4899C135.969 88.0799 140.849 87.1899 140.849 87.1899C140.849 87.1899 143.459 69.6399 141.229 64.1899C142.999 55.4899 151.169 65.6999 148.879 67.7299C158.829 72.4199 141.589 33.7199 168.219 53.7699C171.999 50.2199 173.319 61.5399 172.739 65.1899H172.749Z" fill="#9E616A"/>
<path d="M141.409 77.1898C141.409 77.0898 141.409 76.9898 141.399 76.8898C141.249 76.7098 141.009 76.5898 140.999 76.3098C140.999 76.0098 140.909 75.7298 140.879 75.4498C140.879 74.8198 140.799 74.1898 140.779 73.5498C140.779 73.4898 140.809 73.4398 140.849 73.4298C140.859 73.3598 140.889 73.3098 140.939 73.2598C140.869 71.8698 140.839 70.4498 141.199 69.0898C141.369 68.5998 141.659 67.2798 142.369 67.8898C142.539 67.9498 142.639 68.1198 142.619 68.2998C142.619 68.3298 142.619 68.3598 142.619 68.3998V68.4198C143.479 68.7198 143.119 70.1998 143.179 70.9198C143.289 72.0298 143.159 73.1298 143.069 74.2398C142.979 75.2398 142.939 76.2298 142.729 77.1998C142.669 77.5198 142.409 77.7698 142.079 77.7698C141.769 77.7698 141.449 77.5198 141.429 77.1998L141.409 77.1898Z" fill="#3E3C55"/>
<path d="M176.709 163.8C176.219 163.73 175.819 163.25 175.909 162.74C176.109 161.64 176.289 160.54 176.399 159.43C176.399 159 176.519 158.56 176.469 158.13C176.399 157.5 176.069 156.59 176.639 156.13C176.719 155.49 176.739 154.63 177.479 154.41C178.029 154.24 178.669 154.64 178.659 155.24C178.589 157.16 178.409 159.02 178.159 160.93C178.199 160.96 178.249 160.98 178.299 161C178.479 161.12 178.299 161.33 178.119 161.19C178.049 161.51 178.049 161.85 177.919 162.15C177.839 162.88 177.709 163.93 176.719 163.8H176.709Z" fill="#FDC82E"/>
<path d="M176.18 190.61C173.36 190.95 173.74 196.64 146.05 196.14C126 195.78 115.46 185.65 115.97 188.59C113.29 222.73 113.06 255.41 111.66 289.63C110.59 310.21 105.68 318.85 122.05 317.72C130.34 318.24 127.86 306.84 128.87 301.31C132.6 272.63 134.67 244.64 143.46 215.36C146.67 237.12 146.1 294.05 147.14 306.08C144.39 320.49 162.27 315.59 163.78 311.67C166.5 302.13 165.58 291.93 167.16 282.08C168.98 248.97 173.21 225.93 176.18 190.61Z" fill="#3F3D56"/>
<path d="M153.669 316.55C153.109 316.52 152.549 316.47 151.989 316.39C151.399 316.31 150.829 316.16 150.249 316.02C149.639 315.87 149.049 315.7 148.459 315.5C147.889 315.3 147.329 315.01 146.849 314.64C146.679 314.51 146.519 314.32 146.439 314.11C146.389 313.97 146.349 313.83 146.329 313.69C146.299 313.5 146.279 313.31 146.259 313.12C146.209 312.7 146.159 312.27 146.109 311.84C146.219 311.89 146.339 311.93 146.469 311.96C146.749 312.03 147.029 312 147.289 311.9C147.409 311.99 147.529 312.08 147.659 312.15C147.829 312.26 147.989 312.36 148.169 312.45C148.199 312.7 148.229 312.96 148.259 313.21C148.369 313.28 148.479 313.34 148.589 313.4C148.839 313.52 149.099 313.62 149.349 313.72C150.169 313.98 151.009 314.19 151.839 314.37C152.359 314.46 152.879 314.52 153.399 314.56C154.179 314.61 154.949 314.62 155.719 314.58C156.209 314.54 156.699 314.47 157.189 314.39C157.519 314.31 157.859 314.22 158.189 314.11C158.379 314.04 158.569 313.97 158.759 313.89C158.959 313.81 159.159 313.71 159.349 313.61C159.869 313.35 160.369 313.07 160.859 312.75C161.289 312.46 161.739 312.19 162.179 311.9C162.389 311.76 162.609 311.6 162.809 311.44C162.849 311.36 162.879 311.28 162.909 311.2C163.039 310.75 163.149 310.29 163.219 309.96C163.329 309.4 163.439 308.85 163.539 308.29C163.639 307.74 163.709 307.17 163.789 306.61C163.929 305.55 164.039 304.48 164.119 303.41C164.189 302.19 164.219 300.96 164.259 299.74C164.279 299.1 164.299 298.46 164.329 297.81C164.349 297.2 164.369 296.59 164.419 295.99C164.529 294.73 164.659 293.47 164.769 292.2C164.819 291.57 164.869 290.94 164.929 290.32C164.989 289.7 165.059 289.08 165.119 288.47C165.379 285.96 165.679 283.45 165.959 280.94C166.249 278.36 166.579 275.79 166.839 273.21C167.129 270.41 167.409 267.62 167.609 264.85C167.609 264.83 167.609 264.8 167.609 264.79V264.75C167.759 262.48 167.899 260.21 168.029 257.94C168.169 255.57 168.279 253.21 168.439 250.84C168.459 250.57 168.539 250.33 168.729 250.14C168.909 249.96 169.169 249.85 169.429 249.85C169.689 249.85 169.939 249.95 170.129 250.14C170.309 250.32 170.439 250.58 170.419 250.84C170.259 253.37 170.129 255.9 169.979 258.43C169.899 259.72 169.819 261.01 169.739 262.3C169.659 263.52 169.589 264.75 169.499 265.97C169.299 268.57 169.029 271.16 168.759 273.76C168.499 276.27 168.179 278.78 167.899 281.29C167.619 283.84 167.309 286.38 167.049 288.93C166.989 289.52 166.929 290.12 166.869 290.71C166.809 291.32 166.759 291.93 166.709 292.55C166.609 293.79 166.469 295.02 166.369 296.26C166.299 297.49 166.269 298.73 166.229 299.96C166.189 301.19 166.179 302.42 166.079 303.64C165.979 304.96 165.829 306.27 165.649 307.58C165.569 308.19 165.459 308.8 165.339 309.41C165.229 310.02 165.099 310.64 164.939 311.24C164.809 311.74 164.679 312.25 164.359 312.67C164.169 312.92 163.889 313.11 163.629 313.3C163.199 313.61 162.739 313.89 162.289 314.18C162.059 314.33 161.829 314.49 161.599 314.64C161.349 314.8 161.079 314.95 160.819 315.09C160.539 315.24 160.259 315.38 159.979 315.52C159.719 315.65 159.459 315.77 159.189 315.86C158.899 315.97 158.599 316.07 158.309 316.15C157.949 316.25 157.599 316.32 157.229 316.39C156.649 316.5 156.049 316.53 155.459 316.57C155.269 316.58 155.079 316.59 154.889 316.59C154.489 316.59 154.099 316.57 153.699 316.55H153.689H153.669Z" fill="black"/>
<path d="M143.859 221.18C143.479 220.01 143.159 218.82 142.869 217.62C142.559 216.35 142.299 215.07 142.079 213.77C141.869 212.54 141.699 211.31 141.569 210.07C141.499 209.44 141.439 208.81 141.379 208.18C141.319 207.55 141.239 206.92 141.159 206.29C141.079 205.7 140.979 205.12 140.879 204.53C140.769 203.88 140.669 203.23 140.559 202.58C140.459 201.97 140.359 201.36 140.259 200.76C140.159 200.19 140.059 199.61 139.989 199.04C139.929 198.59 139.879 198.14 139.829 197.69C139.819 197.56 139.809 197.43 139.789 197.29C139.809 197.29 139.829 197.29 139.849 197.29C140.139 197.26 140.429 197.22 140.719 197.18C140.759 197.31 140.789 197.45 140.829 197.58C140.999 198.23 141.169 198.89 141.339 199.54C141.489 200.11 141.649 200.67 141.799 201.24C141.949 201.81 142.079 202.39 142.199 202.97C142.479 204.22 142.779 205.46 142.979 206.73C143.179 207.99 143.329 209.26 143.499 210.53C143.699 211.95 143.929 213.36 144.199 214.77C144.289 215.22 144.389 215.66 144.489 216.11C144.509 216.29 144.539 216.48 144.539 216.67C144.539 216.79 144.559 216.92 144.559 217.05C144.559 217.27 144.579 217.5 144.589 217.72C144.589 217.84 144.589 217.97 144.609 218.09C144.609 218.21 144.629 218.33 144.649 218.45C144.689 218.8 144.729 219.15 144.749 219.51C144.749 219.62 144.749 219.73 144.749 219.83C144.749 219.96 144.759 220.1 144.769 220.23C144.769 220.33 144.779 220.42 144.789 220.52C144.679 221.33 144.569 222.15 144.429 222.96C144.229 222.36 144.029 221.76 143.829 221.16L143.859 221.18Z" fill="black"/>
<path d="M114.619 317.48C114.639 316.51 116.069 316.52 116.089 317.48C116.079 317.96 115.709 318.2 115.349 318.2C114.989 318.2 114.629 317.96 114.609 317.48H114.619Z" fill="black"/>
<path d="M122.939 319.88H122.919H122.909H122.899H122.889H122.879H122.869H122.859H122.839H122.829H122.799H121.279C121.309 319.45 121.349 319.01 121.449 318.59C121.499 318.23 121.749 317.94 122.099 317.83C123.159 317.65 123.059 319.02 123.029 320V319.95L122.939 319.88Z" fill="black"/>
<path d="M144.34 61.6401C144.34 61.6401 144.38 61.5601 144.43 61.5601C144.48 61.5601 144.51 61.6001 144.51 61.6501C144.51 61.7001 144.47 61.7301 144.43 61.7301C144.39 61.7301 144.35 61.6901 144.35 61.6401H144.34Z" fill="black"/>
<path d="M171.23 76.3502C171.33 76.1302 171.43 75.9002 171.5 75.6702C171.5 75.6702 171.51 75.6302 171.52 75.6002C171.52 75.6002 171.52 75.6202 171.52 75.6302C171.56 75.4902 171.6 75.3502 171.64 75.2102C171.68 75.0802 171.7 74.9402 171.72 74.8002C171.74 74.6802 171.76 74.5702 171.77 74.4502C172.04 74.5002 172.26 74.6602 172.43 75.0402C172.73 75.9502 171.9 76.3202 171.15 76.5402C171.18 76.4802 171.21 76.4202 171.24 76.3602L171.23 76.3502Z" fill="black"/>
<path d="M177.17 162.38C177.17 162.38 177.23 162.31 177.27 162.26C177.24 162.31 177.21 162.35 177.17 162.39V162.37V162.38Z" fill="black"/>
<path d="M177.109 160.63C177.109 160.63 177.139 160.59 177.159 160.57C177.139 160.59 177.129 160.61 177.109 160.63Z" fill="black"/>
<path d="M114.24 317.28L114.26 317.3H114.28L114.3 317.33H114.32L114.34 317.35H114.36L114.38 317.37H114.4L114.42 317.39H114.44L114.46 317.41H114.47L114.48 317.43H114.5L114.51 317.45H114.52L114.53 317.47H114.54L114.55 317.49H114.56L114.57 317.51H114.58L114.59 317.53H114.6L114.61 317.55H114.62L114.63 317.57H114.64L114.65 317.59H114.66L114.67 317.61H114.68L114.69 317.63H114.7L114.71 317.65H114.72L114.73 317.67H114.74L114.75 317.69H114.76L114.77 317.71H114.78L114.79 317.73C114.58 317.59 114.38 317.44 114.19 317.28H114.18H114.24Z" fill="black"/>
<path d="M152.18 316.18C152.05 316.2 152.03 316 152.16 316.01C152.29 315.99 152.31 316.19 152.18 316.18Z" fill="black"/>
<path d="M155.29 333.5C149.07 332.93 150.15 325.96 150.8 321.51C151.04 319.99 151.2 318.45 151.34 316.91C151.41 316.4 151.22 315.72 151.67 315.35C151.85 315.22 152.1 315.25 152.25 315.39C153.57 317.09 152.97 319.61 152.77 321.61C152.56 324.21 151.17 329.71 154.03 331.15C156.7 332.23 160.5 331.29 161.67 328.47C162.4 325.05 160.24 321.89 159.43 318.68C159.11 317.3 159.15 315.87 159.43 314.5C159.5 313.88 160.07 313.38 160.7 313.56C161.36 313.74 161.54 314.45 161.33 315.04C161.2 315.74 161.14 316.46 161.19 317.17C161.26 318.36 161.71 319.47 162.15 320.56C162.81 322.37 163.53 324.19 163.72 326.13C164.59 331.02 159.69 334.04 155.28 333.51L155.29 333.5Z" fill="black"/>
<path d="M106.889 332.93C104.539 332.5 104.469 330.01 105.189 328.17C106.059 326.04 108.099 324.84 109.829 323.47C111.709 322.18 112.919 320.13 113.649 318.02C113.789 317.65 113.879 317.17 114.289 317.01C114.899 316.85 115.009 317.61 115.009 318.06C115.089 320.77 113.369 323.28 111.269 324.85C110.149 325.84 108.769 326.54 107.799 327.7C107.119 328.53 106.529 329.65 106.829 330.74C106.889 330.92 107.119 330.93 107.269 331C107.669 331.11 108.089 331.19 108.509 331.12C110.839 330.74 112.939 329.71 115.049 328.73C117.399 327.77 119.229 326.01 120.979 324.23C121.359 323.48 121.289 322.57 121.239 321.75C121.199 320.74 121.169 319.73 121.119 318.73C121.159 317.88 122.319 317.5 122.849 318.16C123.039 318.38 123.099 318.67 123.079 318.96C123.219 319.68 123.149 320.42 123.189 321.16C123.349 322.97 123.369 325.1 121.729 326.26C120.809 327.2 119.849 328.11 118.789 328.9C117.459 329.86 115.929 330.5 114.459 331.2C113.539 331.66 112.549 331.95 111.589 332.34C110.119 332.91 108.449 333.38 106.889 332.94V332.93Z" fill="black"/>
<path d="M125.6 128.22C125.6 128.22 125.5 128.18 125.47 128.15C125.41 128.14 125.36 128.12 125.32 128.08C125.17 128.25 124.87 128.11 124.91 127.89C124.93 127.76 124.94 127.63 124.95 127.49C124.76 127.43 124.71 127.07 124.92 127C124.99 126.82 124.92 126.53 125.11 126.44C125.14 126.41 125.17 126.38 125.21 126.37C125.21 126.34 125.23 126.32 125.24 126.3C125.28 126.02 125.16 125.58 125.43 125.4C125.46 125.1 125.91 125.07 125.98 125.36C126.01 125.44 126.01 125.54 126.02 125.62C126 126.11 126.41 128.39 125.61 128.23L125.6 128.22Z" fill="black"/>
<path d="M147.43 189.29C147.43 189.23 147.48 189.18 147.54 189.18C147.6 189.18 147.65 189.23 147.65 189.29C147.65 189.35 147.6 189.4 147.54 189.4C147.48 189.4 147.43 189.35 147.43 189.29Z" fill="black"/>
<path d="M144.041 215.79C143.971 215.66 144.191 215.6 144.261 215.51C144.301 215.46 144.361 215.42 144.411 215.47C144.501 215.62 144.231 215.7 144.151 215.8C144.121 215.83 144.061 215.82 144.031 215.79H144.041Z" fill="black"/>
<path d="M147.141 313.74C146.881 313.74 146.631 313.63 146.441 313.45C146.251 313.26 146.161 313.02 146.151 312.75C146.061 310.11 145.971 307.47 145.881 304.83C145.751 301.07 145.631 297.31 145.501 293.56C145.371 289.67 145.241 285.79 145.111 281.89C144.981 278.04 144.851 274.18 144.721 270.33C144.601 266.58 144.471 262.83 144.341 259.08C144.211 255.23 144.081 251.39 143.961 247.54C143.831 243.65 143.701 239.76 143.581 235.87C143.461 232 143.331 228.13 143.281 224.26C143.261 222.59 143.241 220.92 143.281 219.26C143.301 218.48 143.311 217.7 143.361 216.93C143.391 216.56 143.411 216.19 143.451 215.82C143.461 215.65 143.481 215.48 143.501 215.31C143.521 215.15 143.551 214.99 143.621 214.84C143.701 214.69 143.911 214.68 144.021 214.79C144.041 214.81 144.051 214.82 144.061 214.84C144.151 214.99 144.181 215.18 144.221 215.35C144.261 215.57 144.301 215.8 144.331 216.02C144.401 216.46 144.461 216.9 144.511 217.34C144.621 218.29 144.701 219.25 144.781 220.21C144.941 222.22 145.041 224.23 145.141 226.24C145.321 230.11 145.451 233.98 145.591 237.86C145.731 241.75 145.861 245.65 145.991 249.54C146.131 253.38 146.251 257.23 146.381 261.07C146.511 264.86 146.641 268.65 146.761 272.44L147.151 283.99C147.281 287.86 147.411 291.72 147.541 295.59C147.661 299.31 147.791 303.03 147.921 306.76C147.991 308.76 148.051 310.76 148.121 312.76C148.141 313.3 147.651 313.74 147.131 313.74H147.141Z" fill="black"/>
<path d="M362.649 143.71C363.099 143.76 363.419 144.21 363.349 144.65C363.279 145.11 362.859 145.41 362.409 145.35C361.289 145.18 360.169 144.89 359.139 144.39C358.299 143.99 357.539 143.43 356.609 143.34C355.309 143.37 354.179 144.16 352.919 144.41C351.579 144.69 350.199 144.61 348.849 144.47C347.329 144.36 345.919 143.7 344.419 143.51C343.369 143.38 342.479 143.98 341.589 144.43C340.359 145.09 339.029 145.72 337.609 145.61C336.499 145.57 335.499 145.06 334.489 144.69C332.299 143.81 330.119 145.13 328.099 145.88C324.779 147.02 321.299 145.75 318.069 144.87C316.609 144.48 315.089 144.49 313.649 144.9C311.029 145.62 308.489 147.18 305.679 146.57C303.569 146.21 301.649 144.79 299.449 145.05C297.839 145.43 296.349 146.24 294.689 146.46C292.449 146.83 290.209 146.27 288.109 145.51C287.119 145.18 286.079 144.9 285.039 145.11C283.769 145.38 282.619 146 281.499 146.62C281.029 146.84 280.409 147.34 279.979 147.34C279.809 147.34 279.669 147.26 279.579 147.06C279.529 146.9 279.599 146.78 279.679 146.66C279.729 146.47 279.889 146.3 280.099 146.37C284.499 142.72 286.779 143.51 289.359 144.31C291.139 144.86 293.069 145.41 295.949 144.5C299.749 142.98 300.669 143.06 304.469 144.52C305.979 145.13 307.669 145.21 309.209 144.68C312.729 143.37 315.499 142.19 319.269 143.49C321.889 144.21 324.709 145.18 327.409 144.36C328.619 143.94 329.759 143.31 331.019 143.02C332.589 142.55 334.259 142.71 335.729 143.41C336.489 143.73 337.279 144.02 338.109 143.97C341.499 143.39 342.299 140.88 346.389 142.26C348.289 142.85 350.309 143.12 352.299 142.86C353.139 142.69 353.919 142.34 354.729 142.06C356.519 141.27 358.149 141.92 359.699 142.84C360.609 143.31 361.619 143.58 362.639 143.73L362.649 143.71Z" fill="black"/>
<path d="M361.55 136.93C362.15 137.28 362.01 138.27 361.32 138.42C361.1 138.47 360.89 138.43 360.7 138.32C360.1 137.99 359.5 137.67 358.93 137.31C358.13 136.82 357.41 136.18 356.59 135.71C355.03 134.97 353.58 136.33 352.19 136.86C351.41 137.19 350.57 137.34 349.73 137.34C348.24 137.34 346.82 136.82 345.43 136.35C343.9 135.86 342.26 135.06 340.64 135.56C339.2 136.03 337.88 136.85 336.4 137.18C334.8 137.56 333.18 137.09 331.67 136.58C328.45 135.42 326.78 135.6 323.76 137.15C320.99 138.64 318.66 139.08 315.79 137.53C314.77 137.03 313.74 136.46 312.58 136.34C309.4 136.43 306.69 138.65 303.48 138.55C302.68 138.55 301.9 138.29 301.21 137.89C300.51 137.43 299.82 136.98 298.97 136.85C297.51 136.42 296.24 137.18 294.99 137.93C293.99 138.53 292.99 139.14 291.92 139.14C291.52 139.14 291.11 139.06 290.68 138.86C289.65 138.36 288.75 137.59 287.67 137.19C285.62 136.58 283.65 137.94 281.76 138.56C280.81 138.89 279.79 138.99 278.79 139.04C278.56 139.04 278.33 138.99 278.14 138.84C277.87 138.62 277.86 138.21 278.11 137.97C278.54 137.7 279.08 137.63 279.57 137.5C281.7 137.21 283.49 135.84 285.61 135.51C287.35 135.08 288.98 135.86 290.39 136.81C290.94 137.11 291.51 137.62 292.18 137.5C293.31 137.18 294.23 136.36 295.29 135.88C297.6 134.57 300.09 135.05 302.17 136.55C303.31 137.17 304.71 136.9 305.9 136.56C307.59 135.95 309.23 135.2 311.01 134.9C312.15 134.6 313.35 134.67 314.44 135.12C315.77 135.58 316.95 136.43 318.33 136.76C319.98 137.2 321.58 136.4 323.03 135.69C324.44 135.02 325.9 134.34 327.47 134.2C328.79 134.08 330.12 134.39 331.37 134.78C333.04 135.3 334.82 136.07 336.57 135.45C338.83 134.64 340.87 133.19 343.37 133.99C346.12 134.6 348.98 136.58 351.8 135.26C355.01 133.52 356.32 133.17 359.32 135.63C360.05 136.11 360.8 136.54 361.55 136.97V136.95V136.93Z" fill="black"/>
<path d="M267.459 136.42C274.339 145.33 258.949 150.52 257.179 141.7C256.069 136.19 263.739 131.61 267.459 136.42Z" fill="#E1CBF1"/>
<path d="M262.109 147.58C256.179 146.98 253.649 139.5 258.019 135.44C262.069 131.57 268.949 133.89 269.819 139.43C270.609 143.95 266.659 148.12 262.109 147.58ZM262.849 145.65C266.799 145.73 269.329 141.09 267.129 137.81C265.009 134.45 259.819 134.85 258.229 138.48C256.689 141.74 259.249 145.71 262.849 145.65Z" fill="black"/>
<path d="M362.649 173.3C363.099 173.35 363.419 173.8 363.349 174.24C363.279 174.7 362.859 175 362.409 174.94C361.289 174.77 360.169 174.48 359.139 173.98C358.299 173.58 357.539 173.02 356.609 172.93C355.309 172.96 354.179 173.75 352.919 174C351.579 174.28 350.199 174.2 348.849 174.06C347.329 173.95 345.919 173.29 344.419 173.1C343.369 172.97 342.479 173.57 341.589 174.02C340.359 174.68 339.029 175.31 337.609 175.2C336.499 175.16 335.499 174.65 334.489 174.28C332.299 173.4 330.119 174.72 328.099 175.47C324.779 176.61 321.299 175.34 318.069 174.46C316.609 174.07 315.089 174.08 313.649 174.49C311.029 175.21 308.489 176.77 305.679 176.16C303.569 175.8 301.649 174.38 299.449 174.64C297.839 175.02 296.349 175.83 294.689 176.05C292.449 176.42 290.209 175.86 288.109 175.1C287.119 174.77 286.079 174.49 285.039 174.7C283.769 174.97 282.619 175.59 281.499 176.21C281.029 176.43 280.409 176.93 279.979 176.93C279.809 176.93 279.669 176.85 279.579 176.65C279.529 176.49 279.599 176.37 279.679 176.25C279.729 176.06 279.889 175.89 280.099 175.96C284.499 172.31 286.779 173.1 289.359 173.9C291.139 174.45 293.069 175 295.949 174.09C299.749 172.57 300.669 172.65 304.469 174.11C305.979 174.72 307.669 174.8 309.209 174.27C312.729 172.96 315.499 171.78 319.269 173.08C321.889 173.8 324.709 174.77 327.409 173.95C328.619 173.53 329.759 172.9 331.019 172.61C332.589 172.14 334.259 172.3 335.729 173C336.489 173.32 337.279 173.61 338.109 173.56C341.499 172.98 342.299 170.47 346.389 171.85C348.289 172.44 350.309 172.71 352.299 172.45C353.139 172.28 353.919 171.93 354.729 171.65C356.519 170.86 358.149 171.51 359.699 172.43C360.609 172.9 361.619 173.17 362.639 173.32L362.649 173.3Z" fill="black"/>
<path d="M361.55 166.52C362.15 166.87 362.01 167.86 361.32 168.01C361.1 168.06 360.89 168.02 360.7 167.91C360.1 167.58 359.5 167.26 358.93 166.9C358.13 166.41 357.41 165.77 356.59 165.3C355.03 164.56 353.58 165.92 352.19 166.45C351.41 166.78 350.57 166.93 349.73 166.93C348.24 166.93 346.82 166.41 345.43 165.94C343.9 165.45 342.26 164.65 340.64 165.15C339.2 165.62 337.88 166.44 336.4 166.77C334.8 167.15 333.18 166.68 331.67 166.17C328.45 165.01 326.78 165.19 323.76 166.74C320.99 168.23 318.66 168.67 315.79 167.12C314.77 166.62 313.74 166.05 312.58 165.93C309.4 166.02 306.69 168.24 303.48 168.14C302.68 168.14 301.9 167.88 301.21 167.48C300.51 167.02 299.82 166.57 298.97 166.44C297.51 166.01 296.24 166.77 294.99 167.52C293.99 168.12 292.99 168.73 291.92 168.73C291.52 168.73 291.11 168.65 290.68 168.45C289.65 167.95 288.75 167.18 287.67 166.78C285.62 166.17 283.65 167.53 281.76 168.15C280.81 168.48 279.79 168.58 278.79 168.63C278.56 168.63 278.33 168.58 278.14 168.43C277.87 168.21 277.86 167.8 278.11 167.56C278.54 167.29 279.08 167.22 279.57 167.09C281.7 166.8 283.49 165.43 285.61 165.1C287.35 164.67 288.98 165.45 290.39 166.4C290.94 166.7 291.51 167.21 292.18 167.09C293.31 166.77 294.23 165.95 295.29 165.47C297.6 164.16 300.09 164.64 302.17 166.14C303.31 166.76 304.71 166.49 305.9 166.15C307.59 165.54 309.23 164.79 311.01 164.49C312.15 164.19 313.35 164.26 314.44 164.71C315.77 165.17 316.95 166.02 318.33 166.35C319.98 166.79 321.58 165.99 323.03 165.28C324.44 164.61 325.9 163.93 327.47 163.79C328.79 163.67 330.12 163.98 331.37 164.37C333.04 164.89 334.82 165.66 336.57 165.04C338.83 164.23 340.87 162.78 343.37 163.58C346.12 164.19 348.98 166.17 351.8 164.85C355.01 163.11 356.32 162.76 359.32 165.22C360.05 165.7 360.8 166.13 361.55 166.56V166.54V166.52Z" fill="black"/>
<path d="M267.459 166.01C274.339 174.92 258.949 180.11 257.179 171.29C256.069 165.78 263.739 161.2 267.459 166.01Z" fill="#E1CBF1"/>
<path d="M262.109 177.17C256.179 176.57 253.649 169.09 258.019 165.03C262.069 161.16 268.949 163.48 269.819 169.02C270.609 173.54 266.659 177.71 262.109 177.17ZM262.849 175.24C266.799 175.32 269.329 170.68 267.129 167.4C265.009 164.04 259.819 164.44 258.229 168.07C256.689 171.33 259.249 175.3 262.849 175.24Z" fill="black"/>
<path d="M362.649 202.89C363.099 202.94 363.419 203.39 363.349 203.83C363.279 204.29 362.859 204.59 362.409 204.53C361.289 204.36 360.169 204.07 359.139 203.57C358.299 203.17 357.539 202.61 356.609 202.52C355.309 202.55 354.179 203.34 352.919 203.59C351.579 203.87 350.199 203.79 348.849 203.65C347.329 203.54 345.919 202.88 344.419 202.69C343.369 202.56 342.479 203.16 341.589 203.61C340.359 204.27 339.029 204.9 337.609 204.79C336.499 204.75 335.499 204.24 334.489 203.87C332.299 202.99 330.119 204.31 328.099 205.06C324.779 206.2 321.299 204.93 318.069 204.05C316.609 203.66 315.089 203.67 313.649 204.08C311.029 204.8 308.489 206.36 305.679 205.75C303.569 205.39 301.649 203.97 299.449 204.23C297.839 204.61 296.349 205.42 294.689 205.64C292.449 206.01 290.209 205.45 288.109 204.69C287.119 204.36 286.079 204.08 285.039 204.29C283.769 204.56 282.619 205.18 281.499 205.8C281.029 206.02 280.409 206.52 279.979 206.52C279.809 206.52 279.669 206.44 279.579 206.24C279.529 206.08 279.599 205.96 279.679 205.84C279.729 205.65 279.889 205.48 280.099 205.55C284.499 201.9 286.779 202.69 289.359 203.49C291.139 204.04 293.069 204.59 295.949 203.68C299.749 202.16 300.669 202.24 304.469 203.7C305.979 204.31 307.669 204.39 309.209 203.86C312.729 202.55 315.499 201.37 319.269 202.67C321.889 203.39 324.709 204.36 327.409 203.54C328.619 203.12 329.759 202.49 331.019 202.2C332.589 201.73 334.259 201.89 335.729 202.59C336.489 202.91 337.279 203.2 338.109 203.15C341.499 202.57 342.299 200.06 346.389 201.44C348.289 202.03 350.309 202.3 352.299 202.04C353.139 201.87 353.919 201.52 354.729 201.24C356.519 200.45 358.149 201.1 359.699 202.02C360.609 202.49 361.619 202.76 362.639 202.91L362.649 202.89Z" fill="black"/>
<path d="M361.55 196.11C362.15 196.46 362.01 197.45 361.32 197.6C361.1 197.65 360.89 197.61 360.7 197.5C360.1 197.17 359.5 196.85 358.93 196.49C358.13 196 357.41 195.36 356.59 194.89C355.03 194.15 353.58 195.51 352.19 196.04C351.41 196.37 350.57 196.52 349.73 196.52C348.24 196.52 346.82 196 345.43 195.53C343.9 195.04 342.26 194.24 340.64 194.74C339.2 195.21 337.88 196.03 336.4 196.36C334.8 196.74 333.18 196.27 331.67 195.76C328.45 194.6 326.78 194.78 323.76 196.33C320.99 197.82 318.66 198.26 315.79 196.71C314.77 196.21 313.74 195.64 312.58 195.52C309.4 195.61 306.69 197.83 303.48 197.73C302.68 197.73 301.9 197.47 301.21 197.07C300.51 196.61 299.82 196.16 298.97 196.03C297.51 195.6 296.24 196.36 294.99 197.11C293.99 197.71 292.99 198.32 291.92 198.32C291.52 198.32 291.11 198.24 290.68 198.04C289.65 197.54 288.75 196.77 287.67 196.37C285.62 195.76 283.65 197.12 281.76 197.74C280.81 198.07 279.79 198.17 278.79 198.22C278.56 198.22 278.33 198.17 278.14 198.02C277.87 197.8 277.86 197.39 278.11 197.15C278.54 196.88 279.08 196.81 279.57 196.68C281.7 196.39 283.49 195.02 285.61 194.69C287.35 194.26 288.98 195.04 290.39 195.99C290.94 196.29 291.51 196.8 292.18 196.68C293.31 196.36 294.23 195.54 295.29 195.06C297.6 193.75 300.09 194.23 302.17 195.73C303.31 196.35 304.71 196.08 305.9 195.74C307.59 195.13 309.23 194.38 311.01 194.08C312.15 193.78 313.35 193.85 314.44 194.3C315.77 194.76 316.95 195.61 318.33 195.94C319.98 196.38 321.58 195.58 323.03 194.87C324.44 194.2 325.9 193.52 327.47 193.38C328.79 193.26 330.12 193.57 331.37 193.96C333.04 194.48 334.82 195.25 336.57 194.63C338.83 193.82 340.87 192.37 343.37 193.17C346.12 193.78 348.98 195.76 351.8 194.44C355.01 192.7 356.32 192.35 359.32 194.81C360.05 195.29 360.8 195.72 361.55 196.15V196.13V196.11Z" fill="black"/>
<path d="M267.459 195.6C274.339 204.51 258.949 209.7 257.179 200.88C256.069 195.37 263.739 190.79 267.459 195.6Z" fill="#E1CBF1"/>
<path d="M262.109 206.76C256.179 206.16 253.649 198.68 258.019 194.62C262.069 190.75 268.949 193.07 269.819 198.61C270.609 203.13 266.659 207.3 262.109 206.76ZM262.849 204.83C266.799 204.91 269.329 200.27 267.129 196.99C265.009 193.63 259.819 194.03 258.229 197.66C256.689 200.92 259.249 204.89 262.849 204.83Z" fill="black"/>
<path d="M362.649 232.48C363.099 232.53 363.419 232.98 363.349 233.42C363.279 233.88 362.859 234.18 362.409 234.12C361.289 233.95 360.169 233.66 359.139 233.16C358.299 232.76 357.539 232.2 356.609 232.11C355.309 232.14 354.179 232.93 352.919 233.18C351.579 233.46 350.199 233.38 348.849 233.24C347.329 233.13 345.919 232.47 344.419 232.28C343.369 232.15 342.479 232.75 341.589 233.2C340.359 233.86 339.029 234.49 337.609 234.38C336.499 234.34 335.499 233.83 334.489 233.46C332.299 232.58 330.119 233.9 328.099 234.65C324.779 235.79 321.299 234.52 318.069 233.64C316.609 233.25 315.089 233.26 313.649 233.67C311.029 234.39 308.489 235.95 305.679 235.34C303.569 234.98 301.649 233.56 299.449 233.82C297.839 234.2 296.349 235.01 294.689 235.23C292.449 235.6 290.209 235.04 288.109 234.28C287.119 233.95 286.079 233.67 285.039 233.88C283.769 234.15 282.619 234.77 281.499 235.39C281.029 235.61 280.409 236.11 279.979 236.11C279.809 236.11 279.669 236.03 279.579 235.83C279.529 235.67 279.599 235.55 279.679 235.43C279.729 235.24 279.889 235.07 280.099 235.14C284.499 231.49 286.779 232.28 289.359 233.08C291.139 233.63 293.069 234.18 295.949 233.27C299.749 231.75 300.669 231.83 304.469 233.29C305.979 233.9 307.669 233.98 309.209 233.45C312.729 232.14 315.499 230.96 319.269 232.26C321.889 232.98 324.709 233.95 327.409 233.13C328.619 232.71 329.759 232.08 331.019 231.79C332.589 231.32 334.259 231.48 335.729 232.18C336.489 232.5 337.279 232.79 338.109 232.74C341.499 232.16 342.299 229.65 346.389 231.03C348.289 231.62 350.309 231.89 352.299 231.63C353.139 231.46 353.919 231.11 354.729 230.83C356.519 230.04 358.149 230.69 359.699 231.61C360.609 232.08 361.619 232.35 362.639 232.5L362.649 232.48Z" fill="black"/>
<path d="M361.55 225.69C362.15 226.04 362.01 227.03 361.32 227.18C361.1 227.23 360.89 227.19 360.7 227.08C360.1 226.75 359.5 226.43 358.93 226.07C358.13 225.58 357.41 224.94 356.59 224.47C355.03 223.73 353.58 225.09 352.19 225.62C351.41 225.95 350.57 226.1 349.73 226.1C348.24 226.1 346.82 225.58 345.43 225.11C343.9 224.62 342.26 223.82 340.64 224.32C339.2 224.79 337.88 225.61 336.4 225.94C334.8 226.32 333.18 225.85 331.67 225.34C328.45 224.18 326.78 224.36 323.76 225.91C320.99 227.4 318.66 227.84 315.79 226.29C314.77 225.79 313.74 225.22 312.58 225.1C309.4 225.19 306.69 227.41 303.48 227.31C302.68 227.31 301.9 227.05 301.21 226.65C300.51 226.19 299.82 225.74 298.97 225.61C297.51 225.18 296.24 225.94 294.99 226.69C293.99 227.29 292.99 227.9 291.92 227.9C291.52 227.9 291.11 227.82 290.68 227.62C289.65 227.12 288.75 226.35 287.67 225.95C285.62 225.34 283.65 226.7 281.76 227.32C280.81 227.65 279.79 227.75 278.79 227.8C278.56 227.8 278.33 227.75 278.14 227.6C277.87 227.38 277.86 226.97 278.11 226.73C278.54 226.46 279.08 226.39 279.57 226.26C281.7 225.97 283.49 224.6 285.61 224.27C287.35 223.84 288.98 224.62 290.39 225.57C290.94 225.87 291.51 226.38 292.18 226.26C293.31 225.94 294.23 225.12 295.29 224.64C297.6 223.33 300.09 223.81 302.17 225.31C303.31 225.93 304.71 225.66 305.9 225.32C307.59 224.71 309.23 223.96 311.01 223.66C312.15 223.36 313.35 223.43 314.44 223.88C315.77 224.34 316.95 225.19 318.33 225.52C319.98 225.96 321.58 225.16 323.03 224.45C324.44 223.78 325.9 223.1 327.47 222.96C328.79 222.84 330.12 223.15 331.37 223.54C333.04 224.06 334.82 224.83 336.57 224.21C338.83 223.4 340.87 221.95 343.37 222.75C346.12 223.36 348.98 225.34 351.8 224.02C355.01 222.28 356.32 221.93 359.32 224.39C360.05 224.87 360.8 225.3 361.55 225.73V225.71V225.69Z" fill="black"/>
<path d="M267.459 225.19C274.339 234.1 258.949 239.29 257.179 230.47C256.069 224.96 263.739 220.38 267.459 225.19Z" fill="#E1CBF1"/>
<path d="M262.109 236.34C256.179 235.74 253.649 228.26 258.019 224.2C262.069 220.33 268.949 222.65 269.819 228.19C270.609 232.71 266.659 236.88 262.109 236.34ZM262.849 234.41C266.799 234.49 269.329 229.85 267.129 226.57C265.009 223.21 259.819 223.61 258.229 227.24C256.689 230.5 259.249 234.47 262.849 234.41Z" fill="black"/>
<path d="M362.649 262.08C363.099 262.13 363.419 262.58 363.349 263.02C363.279 263.48 362.859 263.78 362.409 263.72C361.289 263.55 360.169 263.26 359.139 262.76C358.299 262.36 357.539 261.8 356.609 261.71C355.309 261.74 354.179 262.53 352.919 262.78C351.579 263.06 350.199 262.98 348.849 262.84C347.329 262.73 345.919 262.07 344.419 261.88C343.369 261.75 342.479 262.35 341.589 262.8C340.359 263.46 339.029 264.09 337.609 263.98C336.499 263.94 335.499 263.43 334.489 263.06C332.299 262.18 330.119 263.5 328.099 264.25C324.779 265.39 321.299 264.12 318.069 263.24C316.609 262.85 315.089 262.86 313.649 263.27C311.029 263.99 308.489 265.55 305.679 264.94C303.569 264.58 301.649 263.16 299.449 263.42C297.839 263.8 296.349 264.61 294.689 264.83C292.449 265.2 290.209 264.64 288.109 263.88C287.119 263.55 286.079 263.27 285.039 263.48C283.769 263.75 282.619 264.37 281.499 264.99C281.029 265.21 280.409 265.71 279.979 265.71C279.809 265.71 279.669 265.63 279.579 265.43C279.529 265.27 279.599 265.15 279.679 265.03C279.729 264.84 279.889 264.67 280.099 264.74C284.499 261.09 286.779 261.88 289.359 262.68C291.139 263.23 293.069 263.78 295.949 262.87C299.749 261.35 300.669 261.43 304.469 262.89C305.979 263.5 307.669 263.58 309.209 263.05C312.729 261.74 315.499 260.56 319.269 261.86C321.889 262.58 324.709 263.55 327.409 262.73C328.619 262.31 329.759 261.68 331.019 261.39C332.589 260.92 334.259 261.08 335.729 261.78C336.489 262.1 337.279 262.39 338.109 262.34C341.499 261.76 342.299 259.25 346.389 260.63C348.289 261.22 350.309 261.49 352.299 261.23C353.139 261.06 353.919 260.71 354.729 260.43C356.519 259.64 358.149 260.29 359.699 261.21C360.609 261.68 361.619 261.95 362.639 262.1L362.649 262.08Z" fill="black"/>
<path d="M361.55 255.29C362.15 255.64 362.01 256.63 361.32 256.78C361.1 256.83 360.89 256.79 360.7 256.68C360.1 256.35 359.5 256.03 358.93 255.67C358.13 255.18 357.41 254.54 356.59 254.07C355.03 253.33 353.58 254.69 352.19 255.22C351.41 255.55 350.57 255.7 349.73 255.7C348.24 255.7 346.82 255.18 345.43 254.71C343.9 254.22 342.26 253.42 340.64 253.92C339.2 254.39 337.88 255.21 336.4 255.54C334.8 255.92 333.18 255.45 331.67 254.94C328.45 253.78 326.78 253.96 323.76 255.51C320.99 257 318.66 257.44 315.79 255.89C314.77 255.39 313.74 254.82 312.58 254.7C309.4 254.79 306.69 257.01 303.48 256.91C302.68 256.91 301.9 256.65 301.21 256.25C300.51 255.79 299.82 255.34 298.97 255.21C297.51 254.78 296.24 255.54 294.99 256.29C293.99 256.89 292.99 257.5 291.92 257.5C291.52 257.5 291.11 257.42 290.68 257.22C289.65 256.72 288.75 255.95 287.67 255.55C285.62 254.94 283.65 256.3 281.76 256.92C280.81 257.25 279.79 257.35 278.79 257.4C278.56 257.4 278.33 257.35 278.14 257.2C277.87 256.98 277.86 256.57 278.11 256.33C278.54 256.06 279.08 255.99 279.57 255.86C281.7 255.57 283.49 254.2 285.61 253.87C287.35 253.44 288.98 254.22 290.39 255.17C290.94 255.47 291.51 255.98 292.18 255.86C293.31 255.54 294.23 254.72 295.29 254.24C297.6 252.93 300.09 253.41 302.17 254.91C303.31 255.53 304.71 255.26 305.9 254.92C307.59 254.31 309.23 253.56 311.01 253.26C312.15 252.96 313.35 253.03 314.44 253.48C315.77 253.94 316.95 254.79 318.33 255.12C319.98 255.56 321.58 254.76 323.03 254.05C324.44 253.38 325.9 252.7 327.47 252.56C328.79 252.44 330.12 252.75 331.37 253.14C333.04 253.66 334.82 254.43 336.57 253.81C338.83 253 340.87 251.55 343.37 252.35C346.12 252.96 348.98 254.94 351.8 253.62C355.01 251.88 356.32 251.53 359.32 253.99C360.05 254.47 360.8 254.9 361.55 255.33V255.31V255.29Z" fill="black"/>
<path d="M267.459 254.79C274.339 263.7 258.949 268.89 257.179 260.07C256.069 254.56 263.739 249.98 267.459 254.79Z" fill="#E1CBF1"/>
<path d="M262.109 265.94C256.179 265.34 253.649 257.86 258.019 253.8C262.069 249.93 268.949 252.25 269.819 257.79C270.609 262.31 266.659 266.48 262.109 265.94ZM262.849 264.01C266.799 264.09 269.329 259.45 267.129 256.17C265.009 252.81 259.819 253.21 258.229 256.84C256.689 260.1 259.249 264.07 262.849 264.01Z" fill="black"/>
<path d="M182.11 112.48C181.95 110.6 181.7 108.73 181.47 106.86C181.14 104.21 180.77 101.33 179.08 99.1699C177.44 97.3899 175.09 96.4899 172.99 95.4099C171.83 94.8099 170.65 94.2599 169.48 93.6799C167.8 92.8399 166.22 91.7799 164.46 91.1299C164.32 91.0899 164.17 91.0299 164.03 90.9899C162.93 90.5599 161.18 89.4199 160.46 88.9099C159.52 88.3499 158.65 87.6799 157.87 86.9199C156.75 85.8499 156.7 84.1399 156.56 82.6799C157.52 82.8499 158.46 82.9399 159.35 82.9599C159.73 82.9899 160.1 82.9999 160.47 82.9999C163.74 82.9999 166.99 81.9999 169.87 80.4899C173.47 78.6899 174.03 74.5499 173.75 70.9199C174.35 70.6199 175.03 70.3799 175.51 69.8899C176.33 68.8199 175.2 66.5699 174.33 65.4499C174.56 64.7699 174.46 63.7899 174.52 63.1799C174.52 59.9299 173.37 56.8099 172.05 53.8999C171.89 53.5399 171.75 53.1399 171.56 52.7799C173.32 50.9499 173.67 48.1099 174.14 45.7099C174.67 42.8599 174.19 39.5899 172.1 37.4399C170.08 35.6399 167.17 35.9599 164.68 35.4199C161.26 34.6999 157.92 33.3699 154.38 33.3799C151.54 33.3499 148.74 34.0199 146.18 35.2599C144.08 36.3199 141.83 36.9899 139.61 37.7399C132.38 40.0999 127.38 46.3799 128.49 54.1699C129.1 56.9199 130.46 59.4499 132.05 61.7499C134.1 64.6399 134.14 68.3899 135.93 71.4099C136.86 73.0999 138.34 74.3799 139.35 76.0099C139.78 76.5899 140.1 77.3999 140.76 77.7399C140.76 77.8399 140.74 77.9499 140.74 78.0499C140.58 80.0099 140.42 81.9699 140.38 83.9299C140 86.0399 137.87 87.4099 131.46 89.7899C129.46 90.3699 127.49 91.0399 125.56 91.8399C122.97 92.8099 120.42 93.8999 118.09 95.4199C117.16 96.0199 116.35 96.7999 115.7 97.6999C112.95 101.77 111.18 106.36 109.63 111.01C107.78 116.26 106.89 121.76 106.09 127.25C105.12 133.38 105.37 139.64 106.07 145.78C106.27 147.49 106.26 149.3 106.91 150.91C107.9 152.47 109.99 152.86 111.71 152.96H111.7C112.15 152.98 112.61 152.98 113.06 152.98C114.61 152.98 116.15 152.91 117.69 152.79C117.57 154.18 117.45 155.56 117.34 156.95C117.14 160.49 116.84 164.25 116.72 167.83C116.54 171.29 116.6 174.75 116.37 178.2C116.33 179.53 116.2 180.88 116.41 182.21C116.42 182.26 116.44 182.31 116.45 182.36C116.25 183.22 116.07 184.09 115.85 184.93C114.39 191.23 114.42 197.71 113.85 204.12C113.28 212.87 112.79 221.63 112.68 230.4C112.52 237.93 112.01 245.45 111.75 252.98C111.65 257.46 111.41 261.95 111.18 266.42C110.97 271.01 110.9 275.6 110.58 280.19C110.01 289.64 109.33 299.09 109.05 308.55C108.99 309.96 108.94 311.38 108.96 312.79C108.98 313.35 108.9 313.96 109.17 314.48C109.61 315.15 110.15 315.74 110.76 316.26H110.78L110.8 316.29L110.82 316.31L110.84 316.33L110.86 316.35L110.88 316.37L110.9 316.39L110.92 316.41L110.94 316.43L110.96 316.45L110.98 316.47L111 316.49L111.02 316.51L111.04 316.53L111.06 316.55L111.08 316.57L111.1 316.59L111.12 316.61L111.14 316.63L111.16 316.65L111.18 316.67L111.2 316.69L111.22 316.71L111.24 316.73L111.26 316.75L111.28 316.77L111.3 316.79L111.32 316.81L111.34 316.83H111.36L111.38 316.86H111.4L111.42 316.89H111.44L111.46 316.92L111.48 316.94H111.5L111.52 316.97L111.54 316.99H111.56L111.58 317.02L111.6 317.04H111.62L111.64 317.07C114.44 318.93 118.27 319.58 121.42 319.8H121.62C123.21 319.8 126.36 319.14 127.13 317.78C128.66 314.3 128.88 310.44 129.38 306.71L130.05 300.11C130.51 295.61 131.45 291.17 131.92 286.67C132.92 277.78 133.82 268.88 135.38 260.07C136.91 250.58 138.12 241.02 140.32 231.65C141.47 226.73 143.11 221.93 144.32 217.02C144.6 215.63 142.75 215.37 142.42 216.5C142.24 217.12 142.09 217.75 141.93 218.37C141.03 221.82 139.97 225.23 139.02 228.67C138.27 231.54 137.7 234.46 137.08 237.36C135.16 247.66 133.75 258.06 132.08 268.4C130.81 277.37 130.22 286.43 128.68 295.36C127.79 301.18 127.54 307.08 126.56 312.88C126.33 313.99 126.03 315.08 125.68 316.15C125.54 316.44 125.53 316.85 125.18 316.97C123.93 317.55 122.54 317.92 121.16 317.83C117.64 317.47 113.17 316.72 110.91 313.74C110.95 301.36 112.08 289.01 112.73 276.65C113.03 267.61 113.55 258.59 113.82 249.56C114.09 243.56 114.45 237.56 114.59 231.56C114.71 222.56 115.18 213.58 115.74 204.6C116.21 199.28 116.23 194.06 116.93 188.75C117.2 188.96 117.48 189.17 117.73 189.39C118.92 190.3 120.14 191.17 121.48 191.85C124.06 193.12 126.69 194.3 129.36 195.38C134.15 197.11 139.28 197.61 144.35 197.55C145.8 197.57 147.25 197.55 148.69 197.46C151.61 197.41 154.53 197.51 157.43 197.15C159.57 196.86 161.73 196.67 163.84 196.24C165.23 195.92 166.61 195.63 168.01 195.38C170.29 194.86 172.72 194.57 174.8 193.45C174.5 206.28 171.69 217.75 170.33 230.64C169.64 237.08 168.96 243.53 168.48 249.99C168.41 250.52 168.79 251.03 169.32 251.1C169.32 251.1 169.4 251.1 169.44 251.1C169.92 251.1 170.4 250.74 170.43 250.25C170.66 246.88 171 243.52 171.32 240.15C171.9 233.86 172.65 227.58 173.52 221.32C174.99 210.94 176.56 200.54 176.88 190.04C176.89 189.86 176.88 189.67 176.89 189.49C177.72 186.72 177.98 183.8 178.36 180.93C178.58 179.22 178.75 177.5 178.9 175.78C179.38 171.28 179.04 166.77 179.06 162.26C179 159.67 178.99 157.07 178.92 154.48C178.87 152.9 179.02 151.27 178.6 149.73C180.34 144.34 181.86 138.84 182.46 133.19C183.01 126.33 182.46 119.42 182.05 112.57L182.11 112.48ZM161.79 91.6899C161.79 91.6899 161.81 91.6399 161.82 91.6099C162.36 91.9299 162.91 92.2199 163.48 92.4799C163.55 92.5299 163.6 92.5599 163.61 92.5599C163.62 92.5599 163.63 92.5599 163.65 92.5599C163.89 92.6699 164.12 92.7799 164.36 92.8799C164.65 93.0399 164.93 93.1999 165.21 93.3599C164.72 93.8799 164.21 94.3699 163.66 94.8299C163.02 95.3699 162.34 95.8599 161.64 96.3199C161.23 96.5799 160.81 96.8299 160.39 97.0599C160.07 96.1899 159.4 95.4399 158.98 94.5899C160.12 93.7599 161.09 92.7799 161.78 91.6799L161.79 91.6899ZM139.44 88.3199C141.07 87.4899 142.21 85.7299 142.37 83.9199C142.37 83.3599 142.4 82.7999 142.44 82.2399C142.48 80.5099 142.74 78.7999 142.77 77.0699C142.77 76.9199 142.75 76.7899 142.7 76.6699C142.66 76.6199 142.63 76.5599 142.59 76.5099C142.59 76.5099 142.59 76.5099 142.6 76.5199C142.53 76.4299 142.46 76.3399 142.4 76.2399C142.33 76.1799 142.26 76.1199 142.21 76.0499C142.18 76.0199 142.17 75.9799 142.16 75.9399C142.12 75.8999 142.08 75.8599 142.04 75.8199C141.88 75.6699 141.72 75.5199 141.56 75.3699C141.56 75.3699 141.55 75.3699 141.55 75.3599C141.43 75.2499 141.3 75.1399 141.18 75.0299C141.15 75.0099 141.12 74.9799 141.09 74.9499C141.05 74.9199 141.02 74.8799 140.98 74.8499C140.98 74.8599 140.98 74.8799 140.98 74.8899C140.96 74.8499 140.93 74.8099 140.91 74.7699C140.88 74.7299 140.84 74.6999 140.83 74.6499C140.83 74.6499 140.83 74.6399 140.83 74.6299C139.77 73.0299 138.29 71.7399 137.44 70.0099C136.35 67.9299 136.06 65.5499 135.16 63.3899C134.63 61.9599 133.77 60.6999 132.9 59.4599C131.84 57.5699 130.78 55.6299 130.4 53.4799C129.77 45.7499 134.98 40.9899 141.99 39.0499C144.22 38.4299 146.29 37.3699 148.42 36.4699C151.99 34.9799 155.99 35.1499 159.65 36.1799C161.46 36.6499 163.25 37.1999 165.1 37.4999C167.07 37.9399 169.54 37.5699 171.03 39.1499C172.86 41.5499 172.49 44.7099 171.83 47.4699C171.36 48.9399 171.21 50.9199 169.7 51.7299C167.4 52.5899 165.09 50.0399 163.27 48.9199C161.24 47.6799 158.89 46.1199 156.42 46.7799C150.1 48.5299 152.38 56.5099 151.95 61.3799C151.85 62.2499 151.68 63.1199 151.68 64.0099C151.67 64.9299 151.71 65.8399 151.63 66.7499C151.62 67.2499 151.4 67.6799 151.01 67.9899C149.28 68.2599 149.69 65.9599 149.38 64.5199C149.42 64.4199 149.41 64.2799 149.31 64.0799C148.95 61.7299 147.05 60.5399 145.35 60.1399C145.18 60.0899 145 60.0599 144.81 60.0499C144.79 60.0499 144.79 60.0299 144.77 60.0299C142 59.5499 140.53 61.8599 140.32 63.3499C139.91 66.1299 142.22 69.6999 145.02 70.2699C145.2 70.3099 145.38 70.3299 145.57 70.3299C146.31 70.3299 147.02 69.9999 146.86 69.0999C146.75 68.6299 146.29 68.2899 145.81 68.3399C143.55 68.3999 141.45 64.6199 142.39 62.6299C142.45 62.4499 142.55 62.2999 142.67 62.1699C143.11 62.0299 143.53 61.8099 144 61.7799C144.82 61.7599 145.63 62.1799 146.25 62.6999C146.75 63.1199 147 63.7099 147.34 64.2499C147.57 65.3799 148.21 67.4099 148.32 67.8899C148.71 69.2399 150.27 70.2299 151.64 69.7199C154.1 68.6499 153.51 65.6399 153.63 63.4599C154.37 59.5699 153.42 55.6699 154.13 51.7699C154.39 50.0499 155.84 48.5999 157.62 48.5599C158.76 48.5999 159.79 49.2199 160.8 49.6999C163.69 51.2899 167.04 55.0299 170.43 53.5099C170.43 53.6099 170.43 53.6999 170.45 53.7799C170.92 56.1299 171.91 58.3399 172.34 60.6999C172.55 61.9099 172.63 63.1299 172.5 64.3599C172.45 64.6299 172.42 64.9099 172.44 65.1699C172.42 65.1699 172.42 65.1999 172.44 65.2799C172.47 65.5299 172.56 65.7499 172.73 65.9199C173.18 66.7799 173.94 67.9899 173.97 68.6199C173.47 68.8999 172.95 69.1199 172.43 69.3499C171.32 70.0799 171.94 71.6099 171.81 72.7899C171.81 73.1099 171.81 73.4399 171.78 73.7599C171.48 73.7499 171.18 73.7599 170.92 73.7299C169.61 73.5999 168.29 73.3599 167.04 72.9299C166.5 72.5099 165.8 72.4899 165.41 73.1099C164.5 75.1699 168.99 75.2699 170.21 75.7199C170.53 75.7899 170.97 75.8499 171.41 75.8499C171.35 76.0199 171.29 76.1799 171.22 76.3399C171.17 76.4499 171.11 76.5599 171.06 76.6699C171.03 76.7199 171.01 76.7799 170.98 76.8199C170.95 76.8799 170.92 76.9299 170.86 76.9599C170.86 76.9599 170.84 76.9599 170.83 76.9599C170.74 77.1099 170.65 77.2699 170.55 77.4099C169.89 78.2299 168.92 78.7299 168 79.1999C164.41 80.8399 160.39 81.4299 156.5 80.6399C153.37 79.8999 149.87 78.4599 148.61 75.2499C148.38 74.7499 148.06 74.2799 147.9 73.7399C147.87 73.4099 147.88 73.0599 147.63 72.8099C147.08 72.1799 145.98 72.5899 145.96 73.4299C145.83 74.5899 146.61 75.5399 147.05 76.5499C148.44 79.5699 151.68 81.4199 155.02 82.2899C154.95 82.8199 154.9 83.3499 154.93 83.8799C155.02 85.4699 155.26 87.1699 156.52 88.2799C157.49 89.2899 158.67 90.0399 159.82 90.8199C159.85 90.8399 159.88 90.8599 159.91 90.8799C159.9 90.8999 159.89 90.9199 159.88 90.9499C158.02 93.3599 155.09 94.7299 152.15 95.3799C149.29 95.8299 146.37 95.2299 143.62 94.4199C141.02 93.5299 138.46 91.9999 137.23 89.4399C137.23 89.4299 137.21 89.3999 137.2 89.3899C137.95 89.0399 138.7 88.6999 139.42 88.2699L139.44 88.3199ZM158.68 97.9199C157.99 98.2299 157.23 98.5299 156.44 98.7899C155.48 99.0999 154.49 99.3499 153.5 99.5499C153.03 99.6399 152.56 99.7099 152.09 99.7699C152.06 99.0599 152.04 98.3599 152.03 97.6499C152.03 97.5799 152.03 97.5099 152.03 97.4399C153.8 97.1899 155.67 96.5599 157.34 95.6499C157.69 96.3199 158.15 96.9199 158.54 97.5699C158.6 97.6799 158.64 97.7999 158.68 97.9299V97.9199ZM150.27 99.9299C149.31 99.9699 148.34 99.9599 147.38 99.8899C146.43 99.8099 145.5 99.6799 144.56 99.4799C144.43 99.4499 144.31 99.4199 144.19 99.3899C144.31 98.9599 144.39 98.4999 144.5 98.1699C144.62 97.7299 144.76 97.2999 144.9 96.8699C146.64 97.2799 148.43 97.4799 150.12 97.5499C150.12 97.5899 150.12 97.6299 150.12 97.6699C150.15 98.4299 150.2 99.1899 150.26 99.9499L150.27 99.9299ZM143.03 96.3199C142.95 96.6399 142.88 96.9599 142.78 97.2199C142.64 97.7599 142.52 98.3099 142.37 98.8499C142.28 98.8199 142.19 98.7999 142.1 98.7599C141.33 98.4699 140.58 98.1499 139.84 97.7599C139.31 97.4799 138.7 97.0999 138.1 96.6899C137.85 96.5099 137.62 96.2999 137.38 96.1099C137.63 95.8199 137.87 95.5099 138.11 95.3099C138.42 94.9599 138.76 94.6199 139.06 94.2599C140.24 95.1499 141.59 95.8199 143.03 96.3099V96.3199ZM133.33 90.8699C133.98 90.6699 135.12 90.2599 135.92 89.9699C136.11 90.6699 136.47 91.3599 136.78 91.9599C137.05 92.3399 137.35 92.6899 137.67 93.0199C137.52 93.1899 137.38 93.3699 137.24 93.5099C136.85 93.9199 136.41 94.3699 135.96 94.8199C135.8 94.6499 135.65 94.4899 135.49 94.3099C135.08 93.8199 134.71 93.3099 134.36 92.7699C134.06 92.2899 133.78 91.7999 133.52 91.2999C133.45 91.1599 133.39 91.0199 133.32 90.8799C133.32 90.8799 133.33 90.8799 133.34 90.8799L133.33 90.8699ZM122.19 185.92C121.91 187.11 121.6 188.3 121.34 189.5C121.31 189.6 121.29 189.71 121.26 189.82C120.45 189.43 119.65 189.01 118.87 188.54C118.29 188.2 117.7 187.86 117.13 187.5C117.22 186.89 117.32 186.28 117.42 185.66C117.43 185.46 117.45 185.27 117.46 185.07C117.49 184.7 117.54 184.32 117.59 183.96C117.61 183.77 117.66 183.58 117.69 183.39C117.73 183.18 117.78 182.97 117.83 182.76C117.85 182.67 117.88 182.59 117.9 182.5C119.21 183.32 120.63 183.97 122.07 184.51C122.2 184.56 122.34 184.6 122.47 184.65C122.38 185.07 122.28 185.49 122.18 185.92H122.19ZM130.99 191.09C130.96 191.67 130.59 192.68 130.45 193.59C128.49 192.91 126.58 192.08 124.67 191.3C124.15 191.09 123.64 190.88 123.12 190.66C123.12 190.63 123.13 190.61 123.13 190.58C123.42 189.03 123.83 187.5 124.15 185.96C124.17 185.74 124.23 185.5 124.29 185.26C126.79 186.06 129.33 186.7 131.9 187.21C131.68 188.52 131.22 189.77 130.99 191.07V191.09ZM138.79 190.79C138.7 192.28 138.42 193.74 138.24 195.22C136.78 195.07 135.33 194.87 133.89 194.56C133.38 194.45 132.88 194.33 132.38 194.19C132.38 194.15 132.38 194.1 132.38 194.06C132.57 192.96 132.84 191.88 133.04 190.78C133.12 190.16 133.61 188.75 133.75 187.58C135.48 187.89 137.21 188.14 138.95 188.36C139.03 188.37 139.11 188.38 139.19 188.4C139.02 189.19 138.87 189.99 138.77 190.8L138.79 190.79ZM146.3 190.21C146.18 191.72 146.14 193.23 146.12 194.74C146.1 194.97 146.07 195.22 146.06 195.47C144.11 195.51 142.15 195.49 140.2 195.38C140.39 193.87 140.62 192.35 140.65 190.82C140.68 190.1 140.83 189.37 140.86 188.65C142.71 188.92 144.56 189.12 146.42 189.21C146.38 189.54 146.33 189.88 146.3 190.21ZM149.29 195.36C148.88 195.38 148.47 195.39 148.06 195.41C148.12 194.76 148.05 194.03 148.1 193.56C148.22 192.12 148.23 190.68 148.4 189.25C148.58 189.25 148.76 189.26 148.94 189.26C151.06 189.32 153.18 189.33 155.29 189.28C155.58 191.23 155.56 193.21 155.7 195.19C153.58 195.35 151.45 195.42 149.28 195.36H149.29ZM162.39 194.42C160.81 194.66 159.23 194.85 157.66 195.01C157.57 193.24 157.48 191.46 157.29 189.7C157.26 189.55 157.23 189.39 157.21 189.23C157.78 189.21 158.36 189.18 158.93 189.15C160.44 189.03 161.94 188.81 163.43 188.55C163.49 190.07 163.6 191.6 163.78 193.11C163.85 193.42 163.87 193.76 163.92 194.09C163.41 194.2 162.9 194.31 162.39 194.43V194.42ZM165.86 193.7C165.7 192.85 165.59 191.99 165.52 191.13C165.45 190.16 165.32 189.19 165.2 188.22C166.79 187.9 168.38 187.54 169.95 187.14C170.09 187.1 170.31 187.04 170.56 186.96C170.83 188.82 170.9 190.71 171.1 192.58C169.38 193.04 167.62 193.36 165.86 193.7ZM175.39 187.6C175.18 188.56 175.03 189.73 174.74 190.72C174.44 191.16 174.07 191.54 173.61 191.79C173.42 191.86 173.22 191.92 173.02 191.99C172.91 190.11 172.7 188.22 172.47 186.35C173.59 185.97 174.85 185.48 175.86 184.94C175.71 185.83 175.57 186.71 175.38 187.6H175.39ZM177.1 174.37C176.86 177.03 176.6 179.68 176.26 182.31C175.98 182.46 175.76 182.7 175.48 182.85C174.49 183.48 173.42 183.95 172.3 184.31C166.47 186.33 160.29 187.34 154.13 187.34C150.39 187.34 146.62 187.36 142.9 186.96C138.53 186.27 134.24 185.83 129.91 184.82C126.74 184.06 123.59 183.21 120.51 182.13C119.78 181.87 119.07 181.55 118.36 181.25C118.32 181.23 118.27 181.21 118.23 181.19C118.23 181.14 118.23 181.09 118.23 181.04C118.23 181.02 118.23 181.01 118.23 180.99C118.23 180.96 118.24 180.92 118.25 180.89C118.25 180.66 118.27 180.43 118.28 180.2C118.28 179.8 118.3 179.39 118.31 178.99V179.01C118.31 179.01 118.31 178.92 118.31 178.87C118.31 178.81 118.32 178.75 118.32 178.69C118.32 178.62 118.33 178.53 118.34 178.44C118.35 178.31 118.36 178.17 118.37 178.03C118.37 177.87 118.38 177.7 118.39 177.54C118.39 177.47 118.39 177.4 118.4 177.34C118.4 177.34 118.39 177.34 118.38 177.34C118.46 175.58 118.55 173.83 118.53 172.07C118.59 167.84 118.79 163.61 118.94 159.38C118.87 158.46 119.23 154.86 119.06 152.72C122.44 152.41 125.81 151.88 129.15 151.31C131.58 150.93 133.98 150.51 136.36 149.82C136.55 150.58 138.7 151.14 139.31 151.51C142.97 153.08 146.81 154.74 150.64 155.96C153.36 156.83 156.15 157.4 158.92 158.04C161.74 158.77 164.62 159.23 167.52 159.33H167.53C167.86 159.35 168.18 159.36 168.51 159.36C169.6 159.36 170.69 159.26 171.77 159.2C173.26 159.15 174.86 158.76 175.84 157.55C176.23 157.14 176.86 155.96 177.24 154.79C177.24 155.01 177.22 155.23 177.22 155.46C177.14 158.13 177.18 160.8 177.2 163.48C177.14 167 177.44 170.8 177.11 174.38L177.1 174.37ZM180.31 134.8C179.77 138.72 178.77 142.57 177.62 146.36C177.62 146.37 177.61 146.39 177.61 146.41C177.52 146.74 177.42 147.06 177.32 147.39C177.24 147.65 177.16 147.91 177.07 148.17C177.03 148.39 177 148.62 176.96 148.84C176.93 149.05 176.9 149.26 176.86 149.47C176.86 149.47 176.84 149.55 176.84 149.58V149.53C176.8 149.8 176.75 150.07 176.69 150.34C176.64 150.6 176.57 150.86 176.49 151.11C176.49 151.09 176.5 151.06 176.5 151.06L176.47 151.15C176.47 151.15 176.48 151.12 176.48 151.1C176.35 151.56 176.18 152.02 176.03 152.48C175.88 152.94 175.75 153.41 175.58 153.86C175.57 153.89 175.56 153.91 175.55 153.94L175.54 153.96C175.54 153.96 175.54 153.97 175.54 153.98C175.44 154.22 175.33 154.46 175.2 154.7C175.2 154.7 175.2 154.71 175.2 154.72C175.17 154.78 175.14 154.84 175.1 154.9C174.87 155.47 174.55 155.99 174.16 156.45C173.11 157.38 171.58 157.16 170.28 157.31C165.45 157.7 160.73 156.47 156.07 155.4C150.81 154.34 145.84 152.28 140.83 150.41C139.8 150.01 138.73 149.71 137.65 149.45C139.98 148.78 142.19 147.8 144.27 146.55C146.82 145.1 149.33 143.53 152.06 142.46C154.17 141.79 156.43 141.82 158.62 141.87C159.82 141.96 161.03 142.09 162.21 142.32C162.59 142.39 163 142.55 163.38 142.5C163.5 142.54 163.62 142.57 163.73 142.57C164.38 142.57 165.02 141.97 165.26 141.33C165.34 141.12 165.4 140.9 165.43 140.69V140.46C165.43 140.46 165.43 140.41 165.43 140.38C165.43 140.23 165.41 140.08 165.4 139.92C165.4 139.9 165.4 139.88 165.4 139.86C165.39 139.75 165.38 139.65 165.37 139.55C165.37 139.55 165.37 139.55 165.37 139.54C165.35 139.36 165.34 139.19 165.31 139.01C165.27 138.7 165.23 138.4 165.19 138.09V138.07C165.14 137.74 165.08 137.41 165.02 137.08C164.96 136.74 164.89 136.41 164.85 136.06C164.83 135.9 164.81 135.74 164.79 135.58C164.79 135.56 164.79 135.55 164.79 135.53C164.77 135.39 164.76 135.25 164.74 135.11C164.72 134.95 164.7 134.79 164.68 134.63C164.66 134.46 164.63 134.28 164.6 134.11C164.6 134.11 164.58 134.03 164.58 133.99C164.55 133.84 164.51 133.68 164.48 133.51C164.45 133.35 164.42 133.2 164.38 133.05C164.38 133.02 164.38 132.99 164.41 132.97C164.36 132.38 164.41 131.78 164.42 131.18C164.73 128.09 165.55 125.08 165.97 122C166.59 118.52 166.75 114.95 166.41 111.42C166.38 111.13 166.35 110.24 165.88 110.58C165.71 110.95 165.75 111.39 165.69 111.79C165.48 113.39 165.33 114.99 165.14 116.59C164.8 119.39 164.16 122.07 163.62 124.85C163.26 126.81 162.65 128.87 162.47 130.9C161.67 130.33 160.68 129.97 159.44 129.84C156.35 129.5 153.25 129.99 150.21 130.5C145.94 131.14 141.63 131.48 137.33 131.88C135.56 132.09 133.78 132.19 131.99 132.3C131.44 131.57 130.75 130.93 130.08 130.31C129.32 129.62 128.46 129.06 127.56 128.56C126.93 128.23 126.3 127.76 125.59 127.64C125.48 127.59 125.37 127.55 125.26 127.51C125.31 127.31 125.36 127.12 125.4 126.92C125.73 126.81 126.01 126.52 126.03 126.07C126.03 123.68 125.23 121.45 124.65 119.14C124.25 117.07 123.6 115.03 123.39 112.93C123.34 112.15 123.49 111.34 123.29 110.58C123.12 110.05 122.33 110.04 122.12 110.53C122 110.77 121.98 111.05 121.95 111.31C121.51 113.5 122.06 115.66 122.44 117.81C122.86 120.61 123.95 123.26 124.13 126.1C123.66 127.25 123.27 128.56 123.12 128.88C122.59 130.22 122.14 131.58 121.71 132.95C121.43 133.54 121.46 134.34 122.14 134.62C122.25 134.67 122.38 134.7 122.51 134.7C122.56 134.7 122.6 134.69 122.65 134.68C123.31 134.81 124.01 134.75 124.68 134.74C126.06 134.66 127.58 134.52 129.01 134.38C131.45 134.29 133.88 134.13 136.31 133.94C136.32 137.32 136.92 140.67 137.47 144C137.66 145.09 137.92 146.16 138.17 147.24C134.36 148.54 130.36 149.13 126.36 149.77C122.55 150.46 118.7 150.89 114.82 151.01C112.84 151.06 110.67 151.33 108.9 150.26C108.54 150.03 108.55 149.55 108.46 149.17C108.23 147.83 108.12 146.47 108 145.11C107.62 141.92 107.43 138.72 107.46 135.51C107.4 131.53 108.05 127.61 108.67 123.69C109.28 119.23 110.41 114.86 111.88 110.61C113.29 106.53 114.92 102.42 117.36 98.8299C118.11 97.7499 119.21 97.0099 120.34 96.3699C121.89 95.4699 123.53 94.7099 125.2 94.0499C127.11 93.2799 129 92.4499 130.94 91.7599C131.32 91.6299 131.69 91.4999 132.07 91.3699C132.11 91.5399 132.16 91.7099 132.21 91.8699C132.4 92.4999 132.64 93.1199 132.95 93.6999C133.58 94.9099 134.44 95.9899 135.42 96.9399C136.41 97.8999 137.54 98.7299 138.74 99.3899C141.1 100.69 143.72 101.48 146.39 101.79H146.4C147.33 101.9 148.27 101.95 149.2 101.95C150.63 101.95 152.06 101.83 153.46 101.57C155.76 101.16 157.98 100.46 160.09 99.4599C160.48 99.2699 160.95 99.0399 161.41 98.7799C163.47 97.6199 165.36 96.1599 166.94 94.4099C167.56 94.7799 168.17 95.1399 168.81 95.4699C170.5 96.3199 172.18 97.1799 173.87 98.0299C175.29 98.8099 176.91 99.4999 177.88 100.86C178.61 102.16 179.01 103.65 179.24 105.12C179.6 107.84 179.96 110.57 180.19 113.31C180.47 118.08 180.79 122.85 180.75 127.63C180.8 130.04 180.69 132.45 180.3 134.83L180.31 134.8ZM138.78 137.65C140.54 137.44 142.29 137.16 144.03 136.83C144.74 136.71 145.46 136.62 146.17 136.5C146.27 137.31 146.33 138.1 146.33 138.92C144.38 139.5 142.39 139.93 140.41 140.42C140 140.56 139.41 140.64 138.9 140.81C138.73 139.78 138.56 138.75 138.4 137.72C138.53 137.71 138.65 137.69 138.77 137.66L138.78 137.65ZM138.12 135.74C138.03 135.09 137.92 134.44 137.84 133.79C140.26 133.59 142.67 133.36 145.09 133.13C145.12 133.13 145.15 133.13 145.18 133.12C145.39 133.61 145.64 134.08 145.82 134.58C145.67 134.61 145.53 134.64 145.39 134.65C143.95 134.81 142.54 135.13 141.11 135.34C140.31 135.42 139.35 135.6 138.52 135.72C138.39 135.72 138.26 135.73 138.13 135.75L138.12 135.74ZM146.33 138.92C146.32 138.92 146.31 138.92 146.29 138.92C146.3 138.92 146.31 138.92 146.33 138.91V138.92ZM145.71 143.43C143.87 144.49 142.05 145.58 140.13 146.47C140.09 146.49 140.06 146.5 140.02 146.51C139.83 145.7 139.63 144.9 139.47 144.08C139.39 143.64 139.32 143.19 139.24 142.74C139.69 142.66 140.18 142.46 140.57 142.39C142.16 141.97 143.81 141.63 145.42 141.2C145.67 141.14 145.91 141.06 146.15 140.99C146.07 141.42 145.97 141.85 145.87 142.28C145.84 142.42 145.78 142.64 145.7 142.87C145.64 143.06 145.66 143.25 145.72 143.43H145.71ZM163.48 139.18C163.51 139.29 163.53 139.4 163.54 139.51C163.54 139.54 163.55 139.57 163.55 139.6C163.55 139.62 163.55 139.63 163.55 139.65V139.67C163.56 139.73 163.57 139.78 163.57 139.83C163.59 140 163.61 140.17 163.6 140.35C163.6 140.38 163.58 140.41 163.56 140.44V140.49C163.56 140.49 163.53 140.56 163.5 140.57C163.5 140.57 163.5 140.59 163.49 140.6C163.3 140.54 163.1 140.5 162.91 140.46C162.04 140.27 161.15 140.14 160.26 140.05C157.36 139.77 154.32 139.71 151.51 140.57C150.26 141.03 149.07 141.61 147.89 142.24C147.91 142.16 147.92 142.09 147.94 142.02C148.53 139.69 148.26 137.23 147.74 134.92C147.55 134.21 147.22 133.55 146.83 132.94C148.11 132.78 149.39 132.62 150.66 132.44C153.56 132.02 159.48 130.77 161.78 132.85C162.87 134.42 162.93 136.48 163.36 138.29C163.43 138.5 163.46 138.74 163.49 138.98C163.49 138.98 163.49 138.98 163.49 138.99C163.47 139.02 163.46 139.04 163.45 139.07C163.46 139.12 163.48 139.17 163.49 139.21L163.48 139.18ZM128.83 132.53C127.87 132.63 126.91 132.75 125.96 132.93C125.17 133.07 124.38 133.21 123.6 133.38C123.67 133.12 123.73 132.85 123.81 132.59C124.18 131.29 124.58 130.01 124.94 128.71C125.24 128.98 125.59 129.22 125.87 129.48C126.96 130.39 127.97 131.4 128.83 132.53Z" fill="black"/>
<path d="M160.359 60.5601C160.359 60.5601 160.399 60.6201 160.469 60.6901C160.449 60.6601 160.419 60.6301 160.399 60.6001C160.449 60.6801 160.519 60.7501 160.579 60.8101C161.119 61.3301 161.799 60.9301 162.339 60.6401C163.439 60.2601 164.589 60.0201 165.739 59.8301C166.749 59.6701 167.729 59.3901 168.719 59.1801C169.049 59.1401 169.359 59.0701 169.609 58.8301C170.449 57.9801 170.229 55.7001 168.819 55.6001C166.589 55.6301 164.399 56.2201 162.299 56.9201C160.739 57.4801 159.229 58.3401 160.079 60.2201C160.149 60.3501 160.289 60.4101 160.359 60.5401V60.5601Z" fill="black"/>
<path d="M169.04 61.0698C168.06 61.0698 167.07 61.4398 166.1 61.6298C165.49 61.8498 164.9 61.9998 164.25 62.2098C163.66 62.4398 162.85 62.3798 162.83 63.4198C162.94 64.9198 164.29 64.2298 165.06 63.9798C166.3 63.5398 167.65 63.3498 168.85 62.7398C169.52 62.4498 169.85 61.3698 169.04 61.0698Z" fill="black"/>
</svg>
