<svg width="486" height="364" viewBox="0 0 486 364" fill="none" xmlns="http://www.w3.org/2000/svg">
<g clip-path="url(#clip0_1827_5498)">
<path d="M81.2742 272.277C70.2461 277.405 49.7861 281.272 36.3211 284.718C26.3945 281.779 9.10883 282.074 2.21094 276.658C15.6638 271.943 33.0254 270.049 46.4297 265.596C57.6429 266.922 70.0458 271.816 81.2742 272.28V272.277Z" fill="#E1CBF1"/>
<path d="M116.772 279.275C107.546 286.512 82.8588 287.653 70.1889 293.482C62.9117 292.067 37.7539 285.24 37.7539 285.24C37.7539 285.24 67.7368 277.22 81.1199 273.058C92.8036 275.061 104.672 277.9 116.775 279.275H116.772Z" fill="#A37AD4"/>
<path d="M142.108 296.797C127.483 304.158 102.065 312.054 83.7867 318.687C73.9026 318.295 51.728 309.182 34.2754 305.457C56.2285 296.123 78.479 292.207 93.8983 287.158C109.169 290.239 126.998 293.239 142.108 296.794V296.797Z" fill="#FDC82E"/>
<path d="M189.441 280.206C191.632 282.304 158.954 289.705 143.231 296.123C128.752 295.91 113.986 289.323 96.6816 287.049C108.332 282.295 130.13 279.156 141.762 273.61C156.614 275.966 174.959 278.983 189.441 280.206Z" fill="#E1CBF1"/>
<path d="M213.661 296.535C221.429 298.542 185.511 311.811 182.992 314.904C171.976 313.456 144.123 307.634 125.863 303.979C140.154 297.467 156.107 293.488 162.859 289.538C179.729 291.135 196.681 295.236 213.661 296.538V296.535Z" fill="#A37AD4"/>
<path d="M276.085 305.424C268.974 310.099 252.126 321.225 243.513 327.045C224.658 323.745 202.581 319.801 183.095 315.369C182.306 312.625 212.981 299.584 217.621 296.645C245.082 300.212 258.195 303.664 276.085 305.424Z" fill="#FDC82E"/>
<path d="M289.737 296.438C291.118 299.18 355.311 302.716 355.214 304.571C350.137 309.547 339.61 321.595 335.091 325.836C312.124 324.491 285.03 318.071 261.523 316.492C281.595 301.587 280.915 301.997 289.737 296.442V296.438Z" fill="#E1CBF1"/>
<path d="M335.1 325.788C328.308 335.836 315.732 347.059 307.123 355.264C283.649 349.059 253.172 344.642 228.09 338.686C234.824 331.889 257.46 319.628 260.009 316.744C283.115 319.179 311.059 322.979 335.1 325.788Z" fill="#A37AD4"/>
<path d="M392.089 339.603C384.817 364.791 329.103 360.483 312.943 350.923C324.418 337.059 342.386 320.375 351.612 308.305C367.993 312.015 390.307 319.899 392.089 339.603Z" fill="#FDC82E"/>
<path d="M48.9623 278.561C44.653 276.536 40.019 275.061 35.3547 274.165C33.7705 274.174 33.7918 272.071 35.3334 272.313C40.1465 273.197 44.8715 274.687 49.3234 276.721C49.7513 275.683 49.9729 271.831 51.6389 272.459C52.9226 273.406 51.1594 275.279 51.2171 276.606C50.9257 277.866 50.6314 279.481 48.9653 278.561H48.9623Z" fill="black"/>
<path d="M83.2193 286.837C79.7112 285.662 78.2181 282.778 78.8342 279.199C75.238 280.795 71.3081 281.533 67.6361 282.978C66.7135 283.136 65.1173 284.271 64.5892 283.03C64.4223 282.58 64.653 282.01 65.1264 281.861C70.0639 280.07 75.3048 278.998 79.957 276.582C81.1284 276.558 81.0799 277.723 80.8189 278.552C78.8008 284.447 85.7563 287.617 89.3464 282.996C89.4162 281.533 91.1308 282.665 90.4601 283.713C89.3039 286.296 85.8565 287.438 83.2224 286.837H83.2193Z" fill="black"/>
<path d="M112.468 301.739C108.025 300.075 103.354 298.387 98.6384 297.689C96.2804 299.076 93.6766 300.005 91.261 301.289C89.3582 301.056 78.2269 296.265 78.0236 298.263C77.7322 299.501 79.3164 299.535 80.1357 299.799C83.1492 300.561 86.0989 301.55 89.0851 302.403C87.8227 303.05 86.5632 303.703 85.3099 304.368C84.4663 304.993 81.8443 305.327 82.4725 306.775C83.1098 308.496 90.1199 303.566 91.6919 303.123C94.411 303.864 97.203 304.413 99.8674 305.293C102.556 304.034 94.6295 302.485 93.795 302.057C95.5733 301.253 97.382 300.497 99.0845 299.529C101.904 300.136 104.677 300.968 107.427 301.83C108.644 302.112 113.599 304.811 112.468 301.742V301.739Z" fill="black"/>
<path d="M154.199 288.303C152.624 287.963 151.024 286.988 150.624 285.331C146.078 289.098 136.082 288.758 135.502 281.533C135.408 279.645 136.458 277.638 138.424 277.25C140.797 276.409 140.992 278.983 138.609 279.08C137.025 279.709 137.041 281.994 137.848 283.242C140.658 287.535 148.409 286.393 150.773 282.174C151.185 281.606 152.202 281.691 152.423 282.389C152.645 283.445 151.923 284.666 152.751 285.592C154.912 287.62 159.704 286.46 160.056 283.315C158.338 282.401 160.644 280.534 161.561 282.337C162.887 286.338 157.613 289.074 154.196 288.3L154.199 288.303Z" fill="black"/>
<path d="M177.851 309.052C175.818 307.473 183.359 303.12 184.615 302.255C181.999 301.144 179.153 300.855 176.47 299.951C174.664 307.704 152.268 308.089 157.315 298.797C158.811 296.408 162.204 295.109 164.881 296.056C165.342 296.238 165.536 296.821 165.339 297.258C164.929 298.172 164.019 297.571 163.312 297.553C161.127 297.519 158.022 299.146 158.365 301.642C158.347 301.602 158.344 301.578 158.316 301.532C161.442 305.904 173.287 304.346 174.959 298.922C175.335 298.032 176.33 297.908 177.141 298.248C179.08 299.104 186.934 300.096 187.48 301.79C187.268 303.578 181.635 305.734 180.151 307.698C179.438 308.19 178.855 309.616 177.851 309.046V309.052Z" fill="black"/>
<path d="M242.835 318.985C242.55 318.842 242.362 318.554 242.344 318.238C242.331 318.035 242.395 317.816 242.52 317.646C242.174 314.407 238.001 311.177 235.47 309.395C235.412 310.737 234.672 311.924 233.734 312.834C232.165 314.571 229.986 315.482 227.701 315.797C224.603 316.189 220.946 315.105 218.879 312.698C217.247 310.451 218.63 307.838 220.806 306.602C221.783 305.871 222.985 305.685 224.166 305.561C226.463 305.112 228.788 305.115 231.076 305.619C234.984 306.371 238.28 308.928 240.999 311.72C242.392 313.217 243.849 314.926 244.137 317.021C244.24 318.019 244.167 319.431 242.832 318.985H242.835ZM226.284 314.073C228.223 313.997 230.293 313.53 231.765 312.191C232.887 311.235 234.132 309.847 233.458 308.281C229.962 306.724 225.765 306.693 222.175 307.892C216.746 310.958 222.694 314 226.281 314.073H226.284Z" fill="black"/>
<path d="M392.96 337.384C392.899 335.72 392.511 334.078 391.943 332.518C391.667 331.759 391.33 331.012 390.951 330.296C390.556 329.543 390.122 328.808 389.646 328.104C388.684 326.68 387.588 325.353 386.399 324.115C384.083 321.702 381.419 319.622 378.615 317.807C375.799 315.985 372.831 314.41 369.772 313.041C368.266 312.364 366.731 311.751 365.186 311.177C363.654 310.606 362.103 310.078 360.54 309.604C358.971 309.131 357.39 308.697 355.794 308.32C355.005 308.135 354.216 307.962 353.421 307.804C353.648 307.549 353.879 307.297 354.103 307.042C354.543 306.544 354.98 306.04 355.414 305.536C355.581 305.342 355.742 305.145 355.9 304.947C356.033 304.85 356.137 304.717 356.2 304.565C356.249 304.495 356.297 304.425 356.337 304.352C356.413 304.213 356.489 304.07 356.467 303.903C356.434 303.621 356.185 303.405 355.897 303.454C355.891 303.454 355.888 303.457 355.882 303.457C355.776 303.381 355.651 303.326 355.515 303.311C355.466 303.305 355.42 303.299 355.375 303.296C355.351 303.296 355.323 303.29 355.299 303.29C354.604 303.214 353.909 303.129 353.214 303.047C350.544 302.738 347.876 302.434 345.209 302.124C342.456 301.806 339.701 301.49 336.945 301.171C334.193 300.852 331.44 300.537 328.685 300.218C325.944 299.902 323.204 299.589 320.461 299.274C317.696 298.955 314.928 298.639 312.161 298.324C309.429 298.011 306.695 297.704 303.961 297.395C301.193 297.085 298.429 296.769 295.658 296.484C294.487 296.363 293.206 296.232 291.922 296.135C291.34 296.089 290.754 296.023 290.168 296.026C290.129 296.026 290.092 296.026 290.053 296.026C289.968 295.953 289.846 295.907 289.683 295.901C288.089 296.296 286.818 297.504 285.443 298.357C282.976 299.963 280.597 301.69 278.178 303.369C277.35 303.903 276.524 304.444 275.699 304.978C275.598 304.92 275.486 304.878 275.38 304.844C275.028 304.732 274.658 304.659 274.297 304.586C273.477 304.419 272.655 304.277 271.832 304.137C267.45 303.387 263.059 302.713 258.665 302.042C254.237 301.365 249.813 300.697 245.382 300.039C240.906 299.371 236.426 298.715 231.947 298.05C227.416 297.379 222.886 296.718 218.355 296.05C213.754 295.373 209.153 294.696 204.553 294.022C200.007 293.354 195.461 292.686 190.912 292.018C186.266 291.335 181.62 290.658 176.973 289.972C174.791 289.651 172.613 289.332 170.431 289.01C169.966 288.943 169.502 288.873 169.038 288.807C171.99 287.811 174.94 286.803 177.878 285.762C181.962 284.311 186.247 283.427 190.241 281.73C190.617 281.667 190.936 281.366 190.997 280.971C191.07 280.486 190.724 280.006 190.232 279.936C188.281 279.66 186.329 279.378 184.378 279.101C182.324 278.81 180.266 278.516 178.209 278.224C176.142 277.93 174.075 277.638 172.009 277.344C169.936 277.049 167.863 276.755 165.791 276.467C163.715 276.178 161.642 275.884 159.566 275.598C157.488 275.31 155.409 275.028 153.333 274.742C151.291 274.463 149.248 274.193 147.203 273.929C146.153 273.792 145.103 273.658 144.05 273.537C143.516 273.476 142.982 273.419 142.445 273.376C142.211 273.358 141.974 273.346 141.74 273.346C141.486 273.346 141.197 273.346 140.982 273.498C140.921 273.54 140.879 273.601 140.848 273.665C140.551 273.619 140.229 273.737 139.929 273.78C138.903 274.056 137.895 274.393 136.873 274.688C130.897 276.272 124.91 277.817 118.968 279.517C111.63 281.752 104.204 283.752 96.7873 285.738C87.8167 287.984 78.8036 290.079 69.9453 292.735C68.8073 292.75 67.7148 292.443 66.6071 292.225C63.2021 291.542 59.8852 290.498 56.5288 289.62C51.3698 288.312 46.1592 287.14 40.9577 285.993C40.457 285.865 39.9532 285.735 39.4525 285.607C40.1232 285.422 40.7938 285.234 41.4645 285.048C43.6829 284.429 45.9043 283.813 48.1227 283.2C50.426 282.562 52.7294 281.919 55.0327 281.281C57.2207 280.674 59.4118 280.061 61.5968 279.451C63.8667 278.816 66.1337 278.179 68.4006 277.541C70.6706 276.901 72.9375 276.251 75.1953 275.571C76.3121 275.234 77.4228 274.888 78.5305 274.518C79.0646 274.342 79.5956 274.156 80.1237 273.965C80.409 273.862 80.7003 273.762 80.9855 273.646C82.6789 273.998 84.3723 274.351 86.0687 274.7C88.4327 275.185 90.7937 275.677 93.1547 276.166C95.4672 276.643 97.7827 277.119 100.095 277.599C102.089 278.012 105.245 278.707 107.239 279.12C107.29 279.132 107.342 279.135 107.394 279.135C107.821 279.135 108.213 278.78 108.277 278.358C108.313 278.118 108.252 277.869 108.107 277.675C107.961 277.477 107.752 277.368 107.515 277.32C106.726 277.156 104.778 276.709 103.992 276.545C101.643 276.063 99.294 275.574 96.9481 275.091C94.6266 274.615 92.305 274.135 89.9804 273.655C87.5527 273.158 85.1249 272.657 82.6941 272.159C80.2147 271.652 77.7354 271.142 75.256 270.635C72.7676 270.128 70.2821 269.621 67.7967 269.117C65.3052 268.613 62.8167 268.103 60.3252 267.608C58.3678 267.22 56.4074 266.837 54.447 266.461C54.447 266.461 54.444 266.461 54.4409 266.461C53.9493 266.367 53.4607 266.273 52.9691 266.178C51.7431 265.945 50.5201 265.714 49.291 265.489C48.6962 265.38 48.0984 265.277 47.5005 265.189C47.2122 265.146 46.9209 265.113 46.6296 265.092C46.4596 265.08 46.2654 265.067 46.0924 265.113C46.0894 265.113 46.0864 265.113 46.0803 265.113C45.0424 265.453 44.0046 265.681 42.9546 266.005C40.4509 266.792 37.8927 267.405 35.3678 268.118C27.8356 269.946 20.1882 271.272 12.6803 273.209C9.63951 273.968 6.57749 274.633 3.52153 275.331C2.85693 275.471 2.19536 275.613 1.5338 275.762C0.766016 275.902 -0.259719 275.987 -0.0958449 277.037C-0.0533589 277.238 0.055891 277.401 0.198522 277.523C0.213696 277.553 0.225836 277.581 0.247079 277.611C0.456474 277.939 0.829742 278.069 1.1848 278.182C1.99507 278.446 2.81444 278.68 3.63382 278.91C5.2847 279.384 6.94469 279.812 8.60467 280.249C12.5468 281.378 16.5738 282.155 20.5978 282.933C25.4898 283.998 30.3878 285.067 35.2221 286.375C35.3071 286.399 35.389 286.418 35.474 286.442C35.6045 286.518 35.7532 286.563 35.908 286.563C35.911 286.563 35.9171 286.563 35.9201 286.563C41.5495 288.081 47.1971 289.18 52.875 290.583C57.1024 291.56 61.2357 292.914 65.4691 293.852C65.5935 293.876 65.7149 293.901 65.8393 293.925C61.9792 295.103 58.1372 296.484 54.3408 297.838C48.1075 299.911 41.8469 301.842 35.471 303.448C34.1478 303.757 34.5879 303.618 33.2799 303.982C32.4605 304.176 31.9325 304.17 32.2269 305.303C32.4089 305.7 32.6244 305.864 32.8641 305.91C35.2616 306.62 37.6681 307.303 40.0716 307.986C42.4447 308.663 44.8209 309.328 47.1971 309.996C49.5975 310.673 52.0041 311.344 54.4076 312.018C56.7868 312.686 59.166 313.347 61.5482 314.012C63.9365 314.68 66.3249 315.345 68.7132 316.013C71.0803 316.674 73.4473 317.336 75.8144 318.001C76.9615 318.323 78.1056 318.645 79.2527 318.966C79.8232 319.127 80.3968 319.285 80.9673 319.449C81.2526 319.528 81.5379 319.61 81.8231 319.689C82.072 319.759 83.4528 320.038 83.6227 320.038C83.7198 320.038 83.82 320.023 83.9171 319.986C83.9231 319.986 83.9292 319.98 83.9323 319.977C83.9596 319.971 83.9869 319.965 84.0112 319.956C84.7152 319.692 85.4253 319.44 86.1324 319.182C90.3871 317.588 94.7085 316.17 98.9814 314.628C107.715 311.59 116.255 308.041 124.91 304.79C124.943 304.777 124.977 304.765 125.01 304.753C125.456 304.859 125.902 304.963 126.345 305.069C126.94 305.206 127.538 305.342 128.139 305.47C129.356 305.734 130.576 305.989 131.796 306.244C134.272 306.757 136.748 307.27 139.225 307.774C144.144 308.776 149.066 309.756 153.989 310.74C158.908 311.72 163.824 312.698 168.743 313.675C173.684 314.656 178.624 315.633 183.565 316.608C188.633 317.606 193.698 318.608 198.763 319.607C204.013 320.642 209.26 321.677 214.51 322.712L229.365 325.645C231.808 326.128 234.251 326.607 236.69 327.09C237.886 327.327 239.082 327.56 240.277 327.797C240.617 327.864 240.96 327.931 241.3 327.995C237.989 330.189 234.685 332.39 231.51 334.776C230.199 335.684 228.903 336.622 227.629 337.584C227.322 337.797 226.952 338.061 226.724 338.371C226.551 338.383 226.388 338.431 226.269 338.556C226.13 338.708 226.072 338.905 226.142 339.102C226.215 339.306 226.391 339.43 226.579 339.512C226.664 339.548 226.755 339.579 226.843 339.606C227.043 339.767 227.316 339.84 227.571 339.8C227.884 339.879 228.196 339.952 228.509 340.025L228.63 340.052C231.759 340.787 234.997 341.452 238.235 342.123C241.698 342.845 245.16 343.559 248.626 344.269C252.131 344.985 255.636 345.702 259.141 346.415C262.567 347.113 265.997 347.812 269.423 348.51C272.87 349.214 276.315 349.918 279.759 350.62C283.115 351.303 286.472 351.989 289.825 352.672L299.627 354.663C302.076 355.161 304.528 355.65 306.977 356.151C307.011 356.16 307.044 356.169 307.078 356.175C307.15 356.19 307.223 356.205 307.296 356.221C307.305 356.221 307.317 356.224 307.326 356.227C307.703 356.303 308.079 356.381 308.455 356.457C308.507 356.466 308.558 356.473 308.61 356.473C309.041 356.473 309.429 356.139 309.502 355.711C309.523 355.586 309.517 355.462 309.49 355.349C310.325 354.445 311.165 353.546 312.003 352.641C312.243 352.383 312.482 352.125 312.722 351.867C312.755 351.883 312.789 351.898 312.822 351.913C312.834 351.919 312.847 351.922 312.859 351.928C313.499 352.213 314.142 352.496 314.792 352.763C317.438 353.862 320.142 354.833 322.882 355.668C325.814 356.561 328.785 357.313 331.786 357.93C334.869 358.564 337.983 359.059 341.112 359.399C344.301 359.745 347.503 359.958 350.711 359.994C351.093 359.997 351.472 360 351.855 360C354.577 360 357.299 359.885 360.009 359.636C363.198 359.344 366.37 358.853 369.492 358.142C371.061 357.787 372.615 357.359 374.148 356.87C375.671 356.384 377.167 355.829 378.633 355.188C380.117 354.539 381.568 353.81 382.954 352.972C384.369 352.116 385.71 351.154 386.957 350.067C388.144 349.032 389.209 347.86 390.125 346.579C390.602 345.911 391.021 345.21 391.391 344.481C391.752 343.771 392.062 343.027 392.295 342.268C392.529 341.51 392.717 340.735 392.817 339.946C392.872 339.518 392.92 339.084 392.936 338.65C392.951 338.228 392.948 337.809 392.936 337.387L392.96 337.384ZM35.9292 284.696C31.4955 283.567 27.0557 282.468 22.5734 281.551C20.0789 281.008 17.5601 280.586 15.0565 280.088C11.1053 279.247 7.22388 278.197 3.30303 277.241C3.37587 277.225 3.45173 277.21 3.52457 277.192C7.10856 276.388 10.6956 275.595 14.2583 274.688C19.7056 273.315 25.2227 272.253 30.7034 271.023C34.8033 270.079 38.885 269.017 42.8514 267.602C43.258 267.384 45.4552 266.822 46.5325 266.172C46.7146 266.233 46.8966 266.291 47.0787 266.342C47.5825 266.485 48.0923 266.61 48.6021 266.728C49.6916 266.983 50.7871 267.226 51.8827 267.469C52.0739 267.511 52.3348 267.569 52.5928 267.627C52.6201 267.633 52.7385 267.66 52.8598 267.684C53.1269 267.745 53.4273 267.809 53.7278 267.875C53.746 267.878 53.8613 267.906 53.9766 267.93C53.9827 267.93 53.9857 267.93 53.9918 267.933C54.0252 267.939 54.0555 267.948 54.0889 267.954C54.1041 267.957 54.1223 267.96 54.1375 267.963C54.18 267.976 54.2255 267.985 54.268 267.994C54.9963 268.155 55.7246 268.316 56.4529 268.473C58.9111 269.011 61.3722 269.533 63.8364 270.052C66.3279 270.577 68.8164 271.096 71.3079 271.618C73.7205 272.122 76.133 272.626 78.5456 273.127C77.4622 273.361 76.3849 273.619 75.3106 273.889C73.0407 274.463 70.7798 275.07 68.519 275.683C66.249 276.3 63.979 276.922 61.7121 277.547C59.5423 278.148 57.3725 278.746 55.2026 279.347C52.9114 279.982 50.6172 280.619 48.326 281.254C46.0924 281.873 43.8619 282.492 41.6314 283.112C39.7317 283.64 37.832 284.165 35.9322 284.693L35.9292 284.696ZM286.966 299.265C287.828 298.585 288.708 297.923 289.549 297.219C289.722 297.273 289.901 297.316 290.077 297.355C290.654 297.486 291.242 297.556 291.828 297.647C293.148 297.853 294.471 298.02 295.797 298.187C297.163 298.357 298.529 298.524 299.894 298.688C302.613 299.013 305.33 299.334 308.052 299.653C310.831 299.978 313.611 300.303 316.388 300.625C319.153 300.943 321.914 301.265 324.676 301.584C327.422 301.903 330.172 302.218 332.918 302.537C335.665 302.853 338.411 303.169 341.157 303.487C343.867 303.803 346.58 304.113 349.293 304.425C350.604 304.577 351.915 304.729 353.226 304.881C353.512 304.914 353.797 304.947 354.085 304.981C354.037 305.029 353.985 305.078 353.936 305.13C353.293 305.782 352.65 306.432 352.019 307.097C351.982 307.133 351.921 307.197 351.858 307.261C349.934 309.249 348.046 311.268 346.152 313.284C344.262 315.299 342.374 317.321 340.49 319.343C338.717 321.246 336.945 323.15 335.173 325.053C335.143 325.053 335.109 325.047 335.079 325.05C335.018 325.044 334.957 325.038 334.897 325.029C331.383 324.567 327.862 324.13 324.345 323.687C320.661 323.222 316.977 322.758 313.293 322.294C309.621 321.832 305.946 321.368 302.274 320.906C298.526 320.436 294.778 319.962 291.03 319.492C287.231 319.015 283.434 318.538 279.638 318.059C275.938 317.591 272.239 317.127 268.543 316.662C266.497 316.404 264.452 316.146 262.407 315.888C265.375 313.854 268.361 311.845 271.404 309.923C276.824 306.739 281.892 302.965 286.973 299.271L286.966 299.265ZM99.6399 286.843C111.196 283.746 122.622 280.206 134.129 276.943C136.439 276.327 138.681 275.501 140.845 274.484C140.961 274.433 141.079 274.387 141.167 274.302C141.3 274.369 141.446 274.417 141.586 274.457C141.831 274.527 142.083 274.587 142.335 274.639C142.83 274.742 143.328 274.83 143.825 274.915C144.839 275.088 145.852 275.249 146.866 275.407C148.905 275.729 150.945 276.042 152.984 276.348C155.06 276.658 157.136 276.967 159.211 277.274C161.29 277.584 163.369 277.887 165.448 278.188C167.514 278.491 169.584 278.789 171.651 279.089C173.714 279.387 175.781 279.684 177.844 279.982C179.893 280.279 181.944 280.571 183.996 280.865C185.404 281.069 186.812 281.269 188.22 281.472C185.015 282.338 181.783 283.1 178.597 284.038C171.347 286.308 164.124 288.67 156.896 291.008C152.383 292.686 147.874 294.368 143.361 296.047C141.637 295.689 139.914 295.333 138.19 294.978C136.102 294.547 134.017 294.116 131.932 293.688C129.802 293.251 127.675 292.811 125.544 292.374C123.408 291.933 121.268 291.496 119.132 291.059C116.95 290.616 114.765 290.17 112.583 289.726C110.389 289.283 108.195 288.849 105.998 288.406C103.834 287.969 101.661 287.565 99.4942 287.149C99.2909 287.11 99.0876 287.073 98.8843 287.034C99.1362 286.967 99.388 286.903 99.6369 286.836L99.6399 286.843ZM122.085 303.912C113.445 307.267 104.826 310.685 96.0711 313.733C92.8786 314.862 89.6618 315.912 86.4905 317.112C85.4617 317.491 84.4269 317.855 83.4012 318.241C83.3769 318.25 83.3557 318.262 83.3344 318.274C83.2373 318.214 83.1281 318.171 83.0067 318.153C82.9976 318.153 82.9885 318.15 82.9824 318.147C82.2419 317.952 81.5045 317.743 80.7671 317.543C78.4516 316.908 76.1361 316.28 73.8236 315.645C71.4596 314.996 69.0986 314.352 66.7376 313.702C64.3037 313.032 61.8669 312.364 59.433 311.696C57.0599 311.046 54.6867 310.394 52.3136 309.744C49.8828 309.079 47.452 308.414 45.0242 307.752C42.6359 307.103 40.2446 306.456 37.8562 305.813C37.134 305.618 36.4087 305.427 35.6864 305.236C36.8275 304.963 37.398 304.866 39.0034 304.413C43.4947 303.159 47.9618 301.821 52.4077 300.406C55.7519 299.313 59.0537 298.087 62.3737 296.921C65.2536 295.944 68.1093 295.185 71.0499 294.304C79.2527 291.827 87.6953 289.915 96.0256 287.787C96.3837 287.869 96.7387 287.954 97.0968 288.033C98.1833 288.281 99.2697 288.524 100.353 288.767C102.48 289.244 104.608 289.72 106.738 290.182C108.92 290.652 111.102 291.12 113.287 291.587C115.457 292.049 117.627 292.51 119.796 292.969C121.945 293.424 124.094 293.879 126.245 294.329C128.385 294.772 130.521 295.221 132.658 295.673C134.736 296.114 136.815 296.545 138.897 296.979C139.37 297.079 139.78 297.164 140.165 297.246C134.145 299.486 128.124 301.714 122.088 303.912H122.085ZM181.805 313.815C181.805 313.815 181.786 313.824 181.78 313.827C181.574 313.93 181.365 314.033 181.158 314.137C181.158 314.137 181.155 314.137 181.152 314.137C181.146 314.14 181.14 314.143 181.134 314.146C181.079 314.173 181.025 314.209 180.976 314.246C176.163 313.299 171.35 312.358 166.534 311.411C161.648 310.451 156.759 309.504 151.87 308.548C146.93 307.582 141.989 306.626 137.043 305.691C134.576 305.224 132.111 304.759 129.641 304.31C129.007 304.195 128.376 304.079 127.741 303.97C127.605 303.946 127.468 303.924 127.329 303.903C132.078 302.173 136.8 300.37 141.558 298.658C147.033 296.666 152.432 294.471 157.915 292.504C160.358 291.697 162.798 290.889 165.238 290.076C165.305 290.085 165.375 290.097 165.442 290.106C165.463 290.109 165.487 290.112 165.508 290.112C166.513 290.255 167.517 290.409 168.522 290.555C172.986 291.211 177.453 291.867 181.92 292.522C186.545 293.199 191.17 293.879 195.798 294.559C200.398 295.236 204.999 295.91 209.6 296.584C211.345 296.839 213.086 297.097 214.831 297.352C212.868 298.324 210.905 299.298 208.944 300.276C205.752 301.863 202.562 303.457 199.373 305.045C196.18 306.635 192.988 308.229 189.795 309.823C187.134 311.149 184.475 312.485 181.808 313.806L181.805 313.815ZM227.231 323.362C222.121 322.357 217.01 321.349 211.9 320.342C206.865 319.352 201.834 318.356 196.802 317.367C192.49 316.52 188.178 315.67 183.868 314.82C185.929 313.794 187.986 312.764 190.044 311.735C193.221 310.148 196.402 308.563 199.579 306.975C202.781 305.372 205.985 303.776 209.187 302.176C212.088 300.725 214.986 299.271 217.881 297.808C219.629 298.063 221.374 298.321 223.122 298.576C227.735 299.253 232.345 299.926 236.958 300.6C241.394 301.25 245.831 301.897 250.268 302.531C254.644 303.156 259.023 303.776 263.402 304.38C265.602 304.683 267.805 304.975 270.009 305.26C271.107 305.403 272.209 305.542 273.31 305.658C273.687 305.697 274.063 305.734 274.436 305.764C272.949 306.647 271.456 307.522 270.015 308.478C262.1 313.672 254.28 319.006 246.553 324.473C245.528 325.174 244.493 325.867 243.458 326.556C243.449 326.556 243.443 326.556 243.434 326.553C242.884 326.449 242.335 326.334 241.789 326.228C236.933 325.275 232.081 324.315 227.228 323.359L227.231 323.362ZM312.185 349.788C310.737 351.345 309.293 352.909 307.842 354.466C307.694 354.436 307.542 354.405 307.393 354.375C307.378 354.372 307.36 354.369 307.345 354.366C307.178 354.332 307.008 354.296 306.838 354.263C303.739 353.634 300.641 353.006 297.542 352.377C294.238 351.709 290.93 351.039 287.625 350.371C284.241 349.685 280.855 349.005 277.471 348.319C274.008 347.62 270.546 346.919 267.083 346.221C263.639 345.526 260.194 344.831 256.75 344.132C253.26 343.428 249.767 342.721 246.274 342.023C242.821 341.333 239.37 340.641 235.914 339.964C234.223 339.633 232.533 339.312 230.84 338.996C230.345 338.905 229.847 338.82 229.349 338.732C229.541 338.604 229.732 338.48 229.923 338.352C232.214 336.847 234.502 335.338 236.754 333.775C242.469 329.716 248.104 325.53 253.976 321.699C256.037 320.281 258.091 318.854 260.149 317.43C260.203 317.436 260.261 317.445 260.316 317.452C263.399 317.84 266.485 318.226 269.569 318.617C273.237 319.079 276.909 319.54 280.578 320.005L291.974 321.437C295.737 321.911 299.5 322.385 303.263 322.858C306.947 323.323 310.631 323.784 314.318 324.249C317.972 324.707 321.623 325.168 325.277 325.627C327.076 325.851 328.873 326.076 330.672 326.301C331.534 326.407 332.393 326.516 333.255 326.619C333.392 326.638 333.528 326.653 333.662 326.671C332.117 328.332 330.572 329.995 329.028 331.656C327.119 333.705 325.219 335.763 323.307 337.812C321.435 339.819 319.571 341.834 317.702 343.847C315.863 345.826 314.024 347.809 312.185 349.788ZM391.103 339.215C391.045 339.725 390.966 340.231 390.857 340.732C390.726 341.267 390.572 341.789 390.386 342.308C390.192 342.818 389.968 343.316 389.722 343.805C389.412 344.384 389.069 344.943 388.696 345.486C388.256 346.1 387.783 346.682 387.276 347.241C386.669 347.888 386.029 348.495 385.352 349.068C384.429 349.827 383.461 350.519 382.454 351.163C381.206 351.934 379.886 352.632 378.53 353.258C376.612 354.12 374.639 354.836 372.627 355.446C370.115 356.184 367.556 356.752 364.974 357.177L364.94 357.183C364.925 357.183 364.91 357.189 364.892 357.192C364.506 357.253 364.1 357.313 363.693 357.374C360.686 357.808 357.648 358.048 354.61 358.145C353.688 358.169 352.762 358.185 351.836 358.185C348.653 358.176 345.473 358.009 342.304 357.696C341.13 357.574 339.956 357.438 338.787 357.277C335.746 356.864 332.727 356.306 329.738 355.616C328.754 355.386 327.768 355.143 326.785 354.882C324.02 354.144 321.286 353.288 318.6 352.298C318.6 352.298 318.585 352.292 318.57 352.286C318.549 352.277 318.524 352.271 318.503 352.262C317.016 351.706 315.529 351.096 314.051 350.45C315.198 349.214 316.346 347.979 317.493 346.743C319.365 344.724 321.237 342.706 323.11 340.687C324.991 338.659 326.87 336.631 328.751 334.603C330.654 332.554 332.554 330.502 334.454 328.45C336.381 326.367 338.311 324.288 340.235 322.205C342.116 320.172 343.998 318.138 345.873 316.098C347.737 314.076 349.594 312.045 351.445 310.011C351.809 309.61 352.17 309.201 352.534 308.797C352.883 308.897 353.235 308.997 353.584 309.094C355.181 309.541 356.771 309.999 358.352 310.494C359.906 310.979 361.447 311.505 362.977 312.06C363.059 312.091 363.18 312.136 363.305 312.182C363.32 312.188 363.338 312.194 363.353 312.2C364.892 312.78 366.418 313.393 367.923 314.058C369.435 314.725 370.922 315.442 372.391 316.195C373.595 316.829 374.782 317.494 375.95 318.195C377.058 318.86 378.135 319.574 379.194 320.314C379.871 320.797 380.593 321.34 381.31 321.902C381.998 322.442 382.66 323.019 383.316 323.602C383.416 323.693 383.516 323.787 383.619 323.878C384.111 324.34 384.596 324.807 385.06 325.296C385.525 325.782 385.974 326.282 386.414 326.792C387.133 327.664 387.816 328.565 388.426 329.515C388.456 329.564 388.487 329.613 388.517 329.661C388.52 329.667 388.526 329.676 388.532 329.682C388.547 329.71 388.566 329.737 388.581 329.761C388.799 330.126 389.03 330.511 389.239 330.909C389.437 331.285 389.625 331.668 389.804 332.053C390.113 332.761 390.38 333.477 390.605 334.215C390.757 334.758 390.896 335.374 391.002 336.003C391.084 336.564 391.136 337.126 391.157 337.691C391.163 338.201 391.145 338.705 391.103 339.211V339.215Z" fill="black"/>
<path d="M299.464 338.629C294.663 338.425 289.862 337.044 285.847 334.37C280.755 336.413 262.926 340.523 262.152 332.172C262.037 330.195 263.287 327.682 265.232 327.017C272.024 325.202 281.143 327.673 286.393 332.217C292.287 330.038 298.996 328.298 305.257 329.558C315.135 332.633 305.299 339.342 299.464 338.629ZM299.561 336.828C304.234 337.238 312.464 332.427 303.354 331C298.037 330.763 292.566 331.777 287.604 333.711C287.604 333.741 287.604 333.768 287.604 333.799C291.322 335.72 295.427 336.625 299.558 336.828H299.561ZM270.828 335.241C275.365 335.21 279.963 334.667 284.214 333.031C284.175 332.903 284.172 332.764 284.208 332.636C279.295 329.503 273.144 327.782 267.32 328.332C264.756 328.429 263.126 331.34 264.452 333.568C265.991 335.368 268.677 335.104 270.828 335.238V335.241Z" fill="black"/>
<path d="M333.84 308.943C332.663 307.576 328.663 314.103 327.468 315.026C321.274 313.135 315.077 311.268 308.88 309.383C309.666 308.232 313.289 306.383 312.373 304.957C312.066 304.592 311.453 304.504 311.089 304.841C309.681 306.153 308.276 307.461 306.868 308.773C302.295 307.385 297.721 305.995 293.145 304.611C292.028 304.246 291.461 305.998 292.59 306.347C296.835 307.634 301.078 308.924 305.323 310.211C304.531 311.089 301.275 313.129 303.77 313.833C305.175 313.293 306.121 311.738 307.335 310.822C314.245 312.698 321.098 315.424 328.047 316.869C329.816 315.484 331.049 313.405 332.614 311.769C333.146 310.955 334.809 309.969 333.834 308.943H333.84Z" fill="black"/>
<path d="M367.277 343.152C361.945 340.523 342.168 340.01 341.649 333.65C341.637 333.498 341.649 333.343 341.683 333.195C342.62 328.608 347.327 326.896 349.894 323.359C350.677 322.485 352.046 323.711 351.242 324.582C349.26 327.527 345.54 329.033 343.995 332.138C343.734 332.663 343.722 333.283 343.983 333.808C346.016 337.915 356.106 338.31 362.142 339.679C363.308 339.943 364.428 339.066 364.415 337.87C364.382 333.993 368.603 330.444 372.603 331.905C372.682 331.935 372.761 331.968 372.837 332.005C378.827 335.053 381.674 348.291 367.474 343.234C367.408 343.21 367.341 343.182 367.277 343.149V343.152ZM372.503 342.545C378.582 342.457 375.064 333.271 370.576 333.407C370.491 333.407 370.403 333.419 370.318 333.435C366.364 334.096 365.01 338.003 367.644 340.993C367.726 341.085 367.814 341.17 367.911 341.242C369.04 342.071 370.661 342.123 372.027 342.478C372.181 342.517 372.342 342.545 372.503 342.545Z" fill="black"/>
<path d="M140.266 198.102C139.543 221.916 130.445 246.275 128.101 268.743C127.559 275.847 119.519 276.16 113.891 276.311C83.4966 280.466 105.593 243.919 107.505 228.636C112.296 217.595 110.151 192.668 103.415 178.815C94.5372 190.685 88.6078 198.239 81.3703 207.237C69.718 214.204 53.8351 212.903 42.5218 212.733C34.5251 208.969 33.5523 192.967 41.3536 188.138C53.9162 187.784 62.5246 190.342 63.2506 173.717C65.8191 164.641 66.2208 175.616 69.8064 173.677C70.783 174.69 72.0691 174.679 73.7347 173.997C90.9074 193.9 119.876 152.536 126.918 137.3C128.816 135.556 130.957 133.348 131.786 133.831C133.846 135.029 132.313 148.621 133.577 152.565C135.497 167.782 140.089 182.708 140.262 198.102H140.266Z" fill="#3F3D56"/>
<path d="M143.46 38.3405C144.064 39.9994 139.697 42.7641 138.415 41.3007C130.013 46.7822 133.399 59.1351 135.028 67.7389C138.964 94.6232 134.814 129.182 121.526 146.302C113.555 156.572 98.8919 181.657 84.741 180.046C72.7128 176.961 72.7128 173.359 73.5235 168.81C77.7541 159.222 78.8891 154.74 81.9367 153.431C84.4425 152.838 90.2466 158.905 87.4717 148.27C83.676 138.28 73.2177 138.752 68.2354 147.916C65.6079 151.109 62.7593 163.948 62.7593 163.948C62.7593 163.948 59.3027 162.142 57.4196 159.296C55.0685 149.785 63.4742 140.072 67.4947 131.774C67.4173 124.641 66.883 117.375 68.8987 110.438C74.4596 89.5619 90.8178 71.499 100.156 52.3264C103.115 50.7966 119.326 43.9732 128.299 45.127C130.558 40.6334 140.991 33.4562 143.46 38.3442V38.3405Z" fill="#714898"/>
<path d="M211.2 132.637C213.116 133.838 211.612 136.397 210.326 135.195C194.687 133.812 210.426 145.631 205.786 146.527C204.419 146.195 201.486 148.819 200.203 148.289C185.746 139.069 175.436 115.385 161.439 103.986C157.53 109.553 146.839 147.127 142.855 143.718C147.701 119.322 155.024 94.1772 156.608 69.4788C156.623 69.0217 156.457 68.3766 157.014 68.2071C161.557 68.1923 165.143 64.8673 168.069 61.6602C172.826 64.2111 172.126 77.5261 175.458 83.45C187.224 101.745 198.173 117.836 211.2 132.633V132.637Z" fill="#714898"/>
<path d="M129.298 129.879C129.648 130.609 128.878 131.549 128.594 132.264C128.339 132.792 128.067 133.319 127.849 133.864C127.691 134.543 127.381 135.457 126.512 135.302C126.427 135.571 126.283 135.94 126.044 136.08C125.918 136.154 125.767 136.165 125.579 136.065C125.027 135.693 125.605 134.978 125.716 134.498C125.642 133.507 126.232 132.611 126.593 131.723C126.865 131.129 127.134 130.536 127.37 129.927C127.448 129.728 127.584 129.573 127.75 129.463C128.037 129.094 128.656 129.087 128.948 129.47C129.121 129.596 129.235 129.736 129.301 129.883L129.298 129.879Z" fill="#6F479F"/>
<path d="M152.572 109.911C152.617 110.106 152.668 110.298 152.701 110.497C152.628 113.387 151.717 116.218 151.087 119.027C150.505 120.94 150.03 122.879 149.632 124.837C149.189 126.105 149.068 129.89 147.295 129.758C147.107 131.31 146.993 132.873 146.724 134.414C146.923 134.27 147.17 134.211 147.41 134.233C147.531 134.237 147.531 134.432 147.41 134.425C147.27 134.417 147.129 134.414 147.001 134.469C146.544 134.609 146.636 135.132 146.503 135.501C146.437 135.667 146.352 136.22 146.098 135.966C146.433 133.772 146.514 131.476 146.503 129.231C146.47 129.168 146.448 129.105 146.426 129.043C146.227 128.431 146.477 127.734 146.625 127.129C146.765 125.883 146.89 124.641 147.071 123.403C147.498 120.092 148.066 116.775 149.164 113.615C149.37 113.144 149.554 112.664 149.716 112.178C149.72 112.163 149.724 112.152 149.727 112.137C150.055 111.404 150.236 110.57 150.671 109.9C150.763 109.756 150.87 109.619 150.988 109.494C151.456 108.982 152.41 109.232 152.561 109.911H152.572Z" fill="#6F479F"/>
<path d="M155.849 71.8012C155.454 93.3883 152.094 118.798 132.463 132.95C130.233 135.615 126.368 136.179 129.36 131.877C137.021 113.648 136.498 93.0971 136.089 73.6702C136.413 64.1005 126.578 44.5041 140.894 42.1743C141.797 45.116 138.075 48.7728 137.04 51.7624C135.96 61.3137 145.634 74.8646 155.845 71.8012H155.849Z" fill="#FDC82E"/>
<path d="M180.875 38.5213C180.319 50.1774 168.427 66.1613 156.62 67.5842C156.443 68.6938 156.491 71.0899 155.112 71.4291C148.804 71.8751 143.025 67.6985 139.963 62.2538C131.178 48.9573 145.262 45.7354 142.988 35.5206C140.578 24.2368 150.886 27.4292 149.662 31.3883C151.261 44.3678 157.85 32.0002 165.32 25.5897C171.5 20.2851 178.638 19.216 180.875 38.5176V38.5213Z" fill="#9E616A"/>
<path d="M222.833 159.875C222.663 159.669 222.549 159.418 222.512 159.153C222.494 159.001 222.475 158.85 222.457 158.699C222.428 158.677 222.402 158.651 222.376 158.625C222.361 159.683 221.248 160.557 220.353 159.731C219.671 159.027 219.62 157.958 219.31 157.066C218.868 157.741 217.814 157.752 217.408 157.033C217.022 156.439 216.837 155.739 216.509 155.116C215.787 153.829 215.127 152.491 214.785 151.046C214.604 150.069 214.202 149.166 213.871 148.237C212.865 148.348 212.29 147.29 211.424 146.984C211.081 146.763 210.827 146.438 210.576 146.125C209.655 145.709 208.841 145.111 208.056 144.477C207.599 144.47 207.337 144.024 207.116 143.681C206.018 142.708 204.964 141.683 203.958 140.614C203.342 139.869 202.532 139.224 202.174 138.31C201.946 137.635 202.583 136.883 203.276 136.954C203.995 135.357 205.716 134.476 207.403 134.333C208.892 134.292 210.285 135.085 211.453 135.932C212.069 136.412 212.666 136.92 213.252 137.44C213.712 137.75 214.199 138.126 214.317 138.686C214.339 138.697 214.357 138.708 214.379 138.723C214.412 138.741 214.446 138.76 214.475 138.778C215.64 138.834 216.428 139.899 217.291 140.559C217.847 141.082 218.757 141.462 218.897 142.28C219.129 142.531 219.369 142.774 219.623 143.003C220.957 141.882 221.738 143.707 222.044 144.787C222.534 146.158 222.796 147.592 223.091 149.011C223.378 150.103 223.898 151.113 224.362 152.141C224.801 152.901 225.151 153.988 224.101 154.416C224.499 155.78 225.833 159.595 224.001 160.266C223.574 160.384 223.113 160.225 222.833 159.875Z" fill="#9E616A"/>
<path d="M88.3895 153.029C89.0049 154.43 86.7238 155.388 85.7804 154.471C78.1523 150.22 77.9127 162.322 74.1134 167.859C72.5398 170.325 73.9991 176.043 69.9271 173.717C67.7529 176.371 64.4363 168.615 63.5224 167.55C58.0647 150.534 82.9097 126.204 88.3895 153.029Z" fill="#9E616A"/>
<path d="M88.0437 157.807C87.8668 157.792 87.6641 157.696 87.5241 157.59C87.4246 157.512 87.3361 157.427 87.2624 157.328C86.2748 157.169 86.1643 156.082 86.776 155.426C87.3582 154.64 87.8447 153.789 88.4343 153.007C88.4122 152.923 88.3901 152.838 88.368 152.749C88.1137 152.569 87.981 152.244 88.0179 151.931C88.04 151.4 88.0252 150.869 88.0252 150.342C88.0658 149.686 87.8852 148.964 88.1616 148.348C88.4269 147.78 89.2229 147.651 89.5067 148.274C89.7536 148.812 89.7462 149.432 89.7388 150.018C89.8457 149.981 89.9526 149.94 90.0594 149.904C90.1958 149.859 90.2547 150.073 90.1184 150.117C89.9673 150.165 89.8273 150.217 89.6835 150.283C89.6725 150.32 89.6541 150.361 89.6356 150.398C89.6062 150.449 89.5693 150.497 89.5325 150.541C89.5509 150.821 89.5656 151.098 89.5914 151.378C89.8236 151.592 89.9341 151.883 90.0299 152.178C90.8628 152.377 90.9844 153.358 90.896 154.058C90.8038 154.725 90.9844 155.743 90.1479 155.968C90.0005 157 89.1345 157.892 88.0547 157.814L88.0437 157.807Z" fill="#6F479F"/>
<path d="M137.914 173.85C133.617 161.998 134.034 147.762 132.287 133.798C135.246 131.818 145.34 116.616 146.803 120.645C142.874 137.271 139.783 156.727 137.911 173.854L137.914 173.85Z" fill="#A37AD4"/>
<path d="M122.804 289.431C116.437 289.733 109.984 288.056 104.165 286.401C97.4066 287.204 98.7922 279.459 99.2823 274.98C102.492 273.454 106.325 277.424 109.84 277.354C111.171 277.067 114.439 275.828 113.308 278.534C116.193 281.951 137.176 288.749 122.804 289.431Z" fill="#6F479F"/>
<path d="M33.9745 218.76C26.2505 217.171 33.4623 173.673 43.1689 187.695C26.2874 191.607 44.7129 213.581 33.9745 218.76Z" fill="#6F479F"/>
<path d="M187.884 14.2579C189.955 17.1443 190.088 21.1587 187.523 23.7612C184.523 28.3949 188.201 34.658 185.621 39.3249C179.799 42.6831 181.502 32.5273 180.027 29.663C167.163 5.96737 153.303 51.545 150.351 31.2887C144.278 18.6336 142.218 36.855 139.915 33.5079C125.222 14.844 147.403 -1.64119 166.205 2.14466C173.545 5.30752 181.225 9.73479 187.877 14.2579H187.884Z" fill="#3F3D56"/>
<path d="M142.752 41.4631C142.004 40.888 142.428 39.8485 143.047 39.3509C143.224 38.9822 143.401 38.6099 143.611 38.2597C143.537 37.7768 143.382 37.316 143.261 36.8442C143.062 36.258 142.609 35.5355 143.154 35.0084C143.147 34.5992 142.87 33.9541 143.412 33.7808C144.013 33.6444 144.046 34.4038 144.178 34.8056C144.805 35.13 144.978 35.9447 145.199 36.5677C145.35 36.9289 145.181 37.3123 145.291 37.6699C145.487 38.3445 145.627 39.0744 145.284 39.7232C145.125 40.1176 144.871 40.4494 144.565 40.7443C144.341 41.4852 143.423 41.9829 142.752 41.4594V41.4631Z" fill="#9E616A"/>
<path d="M125.753 46.3176C125.664 46.1185 125.163 45.8863 125.642 45.8052C125.686 45.6467 125.826 45.5177 125.981 45.4587C126.578 45.2412 127.186 45.0569 127.816 44.9389C128.62 44.7841 128.866 45.9969 128.063 46.1701C127.466 46.2881 126.891 46.4909 126.283 46.5498C126.084 46.5498 125.9 46.4945 125.756 46.3213L125.753 46.3176Z" fill="#714898"/>
<path d="M110.18 159.665C110.246 159.551 110.375 159.477 110.504 159.422C110.552 159.374 110.603 159.322 110.651 159.274C110.515 158.913 110.703 158.541 110.92 158.257C111.189 157.896 111.366 157.383 111.849 157.273C112.383 156.609 112.818 155.857 113.411 155.245C113.909 154.751 114.775 155.359 114.465 155.993C113.835 157.284 112.954 158.441 112.081 159.573C111.808 159.93 111.222 159.982 110.902 159.669C110.74 159.794 110.578 159.971 110.356 159.982C110.202 159.982 110.091 159.809 110.176 159.665H110.18Z" fill="#714898"/>
<path d="M210.776 135.619C208.823 133.828 207.249 131.704 205.749 129.529C204.139 127.461 202.816 125.202 201.353 123.03C199.54 120.24 197.41 117.7 195.335 115.105C194.499 114.01 193.887 112.705 193.132 111.592C192.063 109.763 190.582 108.13 189.767 106.176C189.708 105.911 190.018 105.716 190.231 105.885C190.383 106.003 190.534 106.121 190.685 106.239C190.909 106.479 192.03 107.172 191.488 107.492C193.279 109.395 194.9 111.437 196.441 113.542C197.889 115.212 199.389 116.845 200.775 118.566C203.236 121.681 205.186 125.146 207.585 128.305C208.97 130.329 210.441 132.283 212.235 133.96C213.241 134.952 211.9 136.496 210.772 135.615L210.776 135.619Z" fill="#714898"/>
<path d="M131.516 135.976C131.317 135.752 131.406 135.416 131.424 135.147C131.402 134.852 131.597 134.539 131.925 134.583C132.069 134.476 132.298 134.598 132.298 134.778C132.441 134.929 132.456 135.176 132.32 135.346C132.272 135.405 132.213 135.446 132.146 135.471C132.047 135.763 131.929 136.297 131.516 135.976Z" fill="#3F3D56"/>
<path d="M69.6367 146.164C69.6367 146.164 69.6474 146.15 69.651 146.143C69.6474 146.15 69.6403 146.157 69.6367 146.168V146.164Z" fill="black"/>
<path d="M146.775 127.844C146.775 127.866 146.767 127.891 146.764 127.912C146.735 128.016 146.71 128.12 146.682 128.227C146.714 128.098 146.742 127.973 146.775 127.844Z" fill="black"/>
<path d="M150.557 111.986C150.527 112.17 150.494 112.351 150.465 112.535C150.431 112.649 150.402 112.764 150.372 112.878C150.313 113.084 150.258 113.291 150.199 113.497C150.317 112.992 150.439 112.491 150.557 111.986Z" fill="black"/>
<path d="M150.472 112.502C150.472 112.502 150.472 112.516 150.469 112.527C150.469 112.527 150.469 112.513 150.476 112.502H150.472Z" fill="black"/>
<path d="M153.287 109.007C153.287 109.007 153.294 109.007 153.297 109.007C153.287 109.057 153.272 109.107 153.262 109.157C153.269 109.107 153.28 109.061 153.287 109.011V109.007Z" fill="black"/>
<path d="M156.619 72.7044L156.652 72.6896L156.689 72.6749L156.73 72.6602L156.77 72.6454L156.814 72.6307L156.859 72.6159L156.899 72.6012L156.94 72.5864L156.98 72.568L157.021 72.5532L157.061 72.5385L157.102 72.5238L157.124 72.5127C157.12 72.6823 157.117 72.8482 157.113 73.0177C157.113 73.0472 157.106 73.0767 157.106 73.1062C156.943 72.9735 156.785 72.8371 156.623 72.7044H156.619Z" fill="black"/>
<path d="M137.693 172.865C137.693 172.865 137.693 172.872 137.697 172.876C137.697 172.876 137.697 172.869 137.693 172.865Z" fill="black"/>
<path d="M146.234 120.11C146.234 120.11 146.234 120.117 146.23 120.121V120.11H146.234Z" fill="black"/>
<path d="M165.673 82.665C165.662 82.7056 165.651 82.7461 165.64 82.783C165.489 83.3286 165.345 83.8778 165.194 84.4234C165.176 84.464 165.161 84.5045 165.143 84.5487C165.312 83.9184 165.489 83.2917 165.673 82.665Z" fill="black"/>
<path d="M166.491 80.0327C166.654 79.4687 166.783 78.901 166.889 78.3296C166.889 78.3628 166.889 78.3959 166.889 78.4291C166.889 78.4291 166.889 78.4476 166.889 78.4623V78.4476C166.889 78.5028 166.886 78.5581 166.882 78.6171C166.882 78.595 166.882 78.5729 166.882 78.5508C166.875 78.7203 166.864 78.8862 166.849 79.0558C166.786 79.2549 166.724 79.4502 166.657 79.6493C166.517 80.0622 166.37 80.4713 166.219 80.8805C166.307 80.5967 166.399 80.3165 166.491 80.0364V80.0327Z" fill="black"/>
<path d="M189.795 102.934C189.795 102.934 189.766 102.899 189.752 102.881C189.798 102.938 189.809 102.956 189.823 102.974C189.827 102.981 189.834 102.988 189.838 102.991C189.823 102.974 189.809 102.952 189.791 102.934H189.795Z" fill="black"/>
<path d="M131.18 41.4556H131.188H131.21H131.236L131.261 41.4629H131.284L131.309 41.4703H131.335L131.361 41.4777H131.383L131.405 41.4887L131.427 41.4961H131.449L131.471 41.5072L131.494 41.5145L131.512 41.5219L131.53 41.5293L131.549 41.5367L131.567 41.544L131.586 41.5514L131.604 41.5588L131.626 41.5662L131.645 41.5772L131.663 41.5883L131.682 41.5993L131.704 41.6104L131.722 41.6251L131.744 41.6362L131.763 41.6509L131.785 41.6657L131.803 41.6804L131.822 41.6952L131.84 41.7099L131.862 41.7247L131.88 41.7394L131.899 41.7542L131.917 41.7689L131.936 41.7873L131.954 41.8058L131.965 41.8168C131.903 41.8611 131.844 41.9053 131.785 41.9532C131.715 42.0085 131.648 42.0675 131.578 42.1228C131.438 41.9053 131.298 41.6841 131.158 41.4666L131.18 41.4556Z" fill="black"/>
<path d="M141.35 35.7536L141.325 35.7143L141.3 35.6751L141.289 35.6572C141.314 35.6858 141.335 35.7215 141.357 35.7643L141.35 35.7536Z" fill="black"/>
<path d="M166.433 64.5059C166.433 64.5059 166.455 64.4987 166.466 64.4951C166.466 64.4951 166.462 64.4951 166.459 64.4951C166.459 64.4951 166.451 64.4951 166.448 64.4987C166.448 64.4987 166.441 64.4987 166.437 64.4987H166.43L166.433 64.5059Z" fill="black"/>
<path d="M142.987 30.1494C142.987 30.1494 142.98 30.1637 142.977 30.1708C142.98 30.1637 142.984 30.1565 142.987 30.1494Z" fill="black"/>
<path d="M144.797 27.9121C144.797 27.9121 144.791 27.919 144.787 27.9225C144.791 27.9225 144.794 27.9156 144.797 27.9121Z" fill="black"/>
<path d="M144.848 27.8677C144.848 27.8677 144.841 27.8711 144.838 27.8746C144.838 27.8746 144.845 27.8711 144.848 27.8677Z" fill="black"/>
<path d="M144.883 27.8414C144.883 27.8414 144.89 27.8345 144.893 27.8311C144.893 27.8311 144.886 27.8345 144.883 27.838V27.8414Z" fill="black"/>
<path d="M144.953 27.7793C144.932 27.7971 144.91 27.815 144.893 27.8328C144.914 27.815 144.932 27.7971 144.953 27.7793Z" fill="black"/>
<path d="M142.008 32.203C142.008 32.203 142.012 32.1883 142.015 32.1846C142.107 31.9044 142.218 31.6316 142.339 31.3662C142.218 31.6648 142.115 31.9745 142.023 32.2878C142.019 32.262 142.015 32.2325 142.008 32.2067V32.203Z" fill="black"/>
<path d="M193.271 19.4333C193.286 19.4978 193.304 19.5624 193.318 19.627C193.314 19.6306 193.311 19.6342 193.307 19.6377C193.297 19.5696 193.286 19.4978 193.271 19.4297V19.4333Z" fill="black"/>
<path d="M162.983 45.5253C163.068 45.5511 163.153 45.5658 163.241 45.5658C163.706 45.5658 164.148 45.1935 164.207 44.718C164.299 44.1282 163.809 43.6268 163.234 43.5936C161.893 43.2471 160.551 42.8748 159.151 42.8453C159.077 42.8453 158.981 42.8453 158.878 42.8379C158.421 42.8232 157.773 42.8048 157.729 43.2803C157.729 43.4388 157.857 43.5383 157.99 43.5899C158.045 43.6416 158.123 43.7005 158.197 43.6895C159.125 44.047 160.12 44.2129 161.03 44.6295C161.694 44.906 162.287 45.3262 162.983 45.5253Z" fill="black"/>
<path d="M175.038 46.3106C174.449 46.0673 170.915 44.8656 171.294 46.259C171.453 46.6866 171.932 46.8193 172.315 46.9815C172.934 47.2395 173.542 47.5418 174.08 47.9473C174.286 48.0911 174.485 48.1501 174.673 48.1501C175.55 48.1501 176.092 46.8082 175.034 46.3106H175.038Z" fill="black"/>
<path d="M163.908 57.9152C162.412 57.8452 161.211 56.7909 160.164 55.8214C160.164 55.8214 160.164 55.8214 160.164 55.8287C159.766 55.5633 159.228 56.0315 159.368 56.4775C159.542 57.0821 160.01 57.5502 160.441 57.9889C161.31 58.8405 162.276 59.6478 163.521 59.821C163.621 59.8468 163.713 59.8579 163.802 59.8579C164.903 59.8579 165.154 58.1179 163.912 57.9152H163.908Z" fill="black"/>
<path d="M170.936 47.1953C170.833 46.6018 170.037 46.6128 169.879 47.1842C169.576 49.7352 170.004 52.334 169.879 54.896C168.85 54.7854 167.922 54.1329 167.196 53.4252C166.157 52.4262 164.653 53.9302 165.644 54.9771C166.51 55.836 167.597 56.518 168.773 56.8608C169.079 56.953 169.418 57.0083 169.757 57.0083C170.476 57.0083 171.19 56.7613 171.577 56.1125C172.171 54.9771 171.622 53.6427 171.541 52.4446C171.353 50.6936 171.109 48.9463 170.933 47.1953H170.936Z" fill="black"/>
<path d="M160.002 39.5758C160.187 39.6016 160.356 39.5832 160.54 39.5426C162.136 39.1187 163.85 39.1703 165.42 39.679C165.508 39.7085 165.596 39.7233 165.685 39.7233C166.153 39.7233 166.602 39.3399 166.661 38.857C166.72 37.6442 165.501 37.6479 164.476 37.6516C164.174 37.6516 163.89 37.6516 163.658 37.6258C162.368 37.5815 161.082 37.9391 159.932 38.5068C159.932 38.5068 159.932 38.5068 159.936 38.5068C159.372 38.6432 159.428 39.5058 160.002 39.5758Z" fill="black"/>
<path d="M179.892 43.5603C179.892 43.5603 179.892 43.5603 179.892 43.564C179.892 43.5603 179.895 43.5566 179.899 43.553C179.899 43.553 179.899 43.5566 179.899 43.5603C179.906 43.5456 179.914 43.5308 179.921 43.5161C179.483 42.4065 178.281 41.1642 177.644 40.8509C175.798 39.9699 175.02 42.9373 177.073 42.9705C177.5 43.4608 177.799 44.0432 178.071 44.6294C178.256 45.0385 178.657 45.2855 179.074 45.2855C179.085 45.2855 179.096 45.2855 179.107 45.2855C179.151 45.1934 179.195 45.1012 179.24 45.0091C179.416 44.6109 179.593 44.2128 179.778 43.8184C179.818 43.7336 179.859 43.6488 179.903 43.564L179.892 43.5603Z" fill="black"/>
<path d="M139.04 49.3365C139.04 49.3365 139.047 49.3258 139.047 49.3223C139.044 49.3294 139.037 49.3401 139.033 49.3472C139.033 49.3436 139.037 49.3401 139.04 49.3329V49.3365Z" fill="black"/>
<path d="M167.169 66.231C167.169 66.231 167.166 66.2238 167.162 66.2202C167.162 66.2274 167.169 66.231 167.169 66.2383C167.169 66.2383 167.169 66.2383 167.169 66.2346V66.231Z" fill="black"/>
<path d="M166.433 64.506C166.433 64.506 166.455 64.5024 166.462 64.4951C166.462 64.4951 166.462 64.4951 166.459 64.4951C166.459 64.4951 166.451 64.4951 166.448 64.4987C166.448 64.4987 166.441 64.4987 166.437 64.4987H166.43L166.433 64.506Z" fill="black"/>
<path d="M149.906 35.1813C149.906 35.1813 149.906 35.1884 149.906 35.192C149.906 35.1955 149.906 35.1991 149.906 35.2027C149.906 35.1955 149.906 35.1849 149.902 35.1777L149.906 35.1813Z" fill="black"/>
<path d="M225.373 151.975C224.831 149.892 224.168 147.839 223.346 145.848C222.93 144.861 222.565 143.758 221.68 143.087C219.746 141.535 217.944 140.02 215.998 138.428C215.751 138.225 215.5 138.019 215.25 137.809C215.283 137.657 215.264 137.488 215.154 137.333C214.8 136.835 214.398 136.367 214.082 135.84C212.711 133.639 211.24 131.494 209.84 129.315C206.369 124.383 202.706 119.587 199.087 114.765C195.973 110.821 192.855 106.947 189.793 102.94C187.32 99.869 184.966 96.5993 182.581 93.4032C181.527 92.0983 180.569 90.7233 179.729 89.2745C178.38 86.6536 177.684 83.664 176.663 80.8955C175.616 77.6368 174.467 74.4039 173.59 71.0973C173.122 69.4053 172.55 67.7391 171.99 66.0765C171.423 64.6241 171.121 63.0021 170.232 61.7119C170.133 61.5976 170.008 61.5129 169.879 61.4354C171.003 60.3369 172.049 59.1536 172.978 57.8892C174.176 56.0903 175.207 54.1881 176.25 52.2971C176.936 51.0474 181.546 42.7495 182.028 41.1828C182.047 41.0722 182.054 40.958 182.069 40.8474C182.338 40.9727 182.64 41.0612 182.979 41.1054C186.572 41.0427 188.5 36.9915 188.533 33.8065C188.743 31.392 187.578 28.9442 188.363 26.585C188.606 25.9841 189.491 24.1373 189.646 23.905C190.744 22.0914 191.271 19.9644 190.983 17.8484C190.736 15.327 189.277 12.964 187.342 11.3642C185.253 9.64636 182.474 9.392 179.987 8.57364C176.545 7.27974 173.962 4.5408 170.844 2.69027C167.141 0.371578 162.553 0.113535 158.322 0.692287C156.019 1.03511 153.668 1.21574 151.46 1.98987C146.143 4.15743 140.98 7.22813 137.38 11.7844C135.677 13.9667 134.045 16.5103 133.849 19.3045C133.853 19.393 133.857 19.4815 133.864 19.5662C133.89 19.9754 133.916 20.3883 133.941 20.7975C133.953 20.9818 133.967 21.1698 133.993 21.3541C134.023 21.5495 134.056 21.7412 134.078 21.9365C134.1 22.1467 134.122 22.3568 134.148 22.5632C134.148 22.5706 134.148 22.5743 134.148 22.578C134.188 22.8286 134.233 23.0793 134.277 23.3263C134.317 23.5512 134.362 23.776 134.417 24.0009C134.483 24.2884 134.546 24.5759 134.616 24.8635C134.69 25.1694 134.767 25.4754 134.841 25.7777C134.877 25.9251 134.914 26.0689 134.955 26.2127C135.202 27.0163 135.5 27.7978 135.876 28.5535C136.786 30.3782 137.7 32.2361 139.06 33.777C139.757 34.5253 140.346 35.4064 141.12 36.0773C139.399 36.1252 137.826 36.6708 136.223 37.4265C134.763 38.0531 133.359 38.8051 132.04 39.6899C130.89 40.4419 129.84 41.3376 128.948 42.3809C128.506 42.9449 128.137 43.5752 127.813 44.2277C126.52 44.5595 125.171 44.6553 123.837 44.836C121.858 45.1382 119.879 45.4405 117.896 45.7244C114.613 46.2478 111.444 47.2984 108.241 48.161C105.621 48.9609 102.88 49.5139 100.337 50.5055C98.2917 52.404 97.0056 55.0213 95.6605 57.4395C93.7184 60.8309 91.8574 64.2739 89.8196 67.6137C86.5325 72.5534 83.1901 77.4931 80.2383 82.6502C77.2755 87.5493 74.3053 92.4706 71.8657 97.6572C70.9444 99.6405 70.1743 101.69 69.2382 103.666C68.6597 104.857 67.8305 105.948 67.5357 107.256C66.6071 112.163 66.5076 117.202 66.2349 122.182C66.1501 124.87 66.1022 127.572 66.1169 130.274C65.2767 131.328 65.0261 132.747 64.4071 133.934C64.2007 134.417 64.0017 134.9 63.8064 135.387C62.0559 138.937 60.5082 142.575 58.8278 146.154C57.6043 149.247 55.8318 152.37 55.7102 155.746C55.7839 157.873 57.21 159.528 58.603 160.996C59.727 162.219 60.9394 163.34 62.0523 164.568C62.1112 166.256 62.3692 167.918 63.0251 169.474C62.6124 170.753 62.3544 172.077 62.0965 173.393C61.7685 175.195 61.3337 176.979 61.1089 178.8C60.9541 180.905 60.5745 183.025 59.4911 184.864C54.203 185.816 48.9443 186.686 43.6193 187.309C43.6378 186.785 43.5088 186.169 43.3724 185.985C42.5249 184.02 40.4944 183.254 38.486 183.795C34.5282 184.241 33.4816 188.672 32.3171 191.821C30.4008 196.056 30.176 200.675 29.9439 205.25C29.6675 207.97 29.5385 210.768 29.8554 213.503C29.9181 216.53 30.9352 219.534 34.366 219.892C34.5024 219.907 34.6313 219.914 34.7566 219.914C38.1064 219.914 38.5302 214.48 38.6297 211.786C39.1346 212.667 39.7315 213.481 40.5681 214.034C41.2867 214.403 42.1305 214.185 42.8971 214.134C44.5222 213.95 46.1326 214.362 47.754 214.373C48.1889 214.373 48.6274 214.377 49.0659 214.377C57.398 214.377 65.9327 213.806 73.981 211.635C76.9438 210.695 80.6989 210.031 82.7884 207.569C89.3884 198.154 96.5265 189.137 103.429 179.947C103.749 181.606 104.18 183.239 104.671 184.857C105.824 188.942 107.269 192.897 108.124 197.074C109.085 201.092 109.399 205.412 109.203 209.589C108.713 218.827 105.787 227.641 103.572 236.558C101.52 244.188 99.2129 251.749 98.1295 259.605C97.6983 263.158 96.9687 266.723 96.9208 270.31C96.836 270.922 96.6849 271.563 96.9871 272.127C97.4662 272.975 98.0705 273.694 98.7597 274.317C98.5828 274.851 98.4575 275.404 98.3174 275.95C97.9305 277.435 97.6062 278.932 97.4994 280.465C97.3667 281.855 97.2598 283.304 97.7684 284.635C98.1221 285.497 98.6233 286.375 99.4156 286.902C101.148 287.764 103.119 288.07 105.006 288.435C108.429 289.128 111.912 289.361 115.357 289.917C118.468 290.219 120.399 290.784 123.531 290.857C123.616 290.857 123.701 290.857 123.785 290.857C124.489 290.857 124.172 290.96 124.869 290.857C124.88 290.857 124.887 290.854 124.894 290.85C126.188 290.776 128.031 289.302 128.458 288.483C128.779 287.986 128.797 287.355 128.565 286.817C128.082 285.516 127.26 284.307 125.982 283.68C123.546 282.585 121.08 281.56 118.545 280.716C116.128 280.016 114.455 279.913 114.082 277.505C115.608 277.421 117.126 277.269 118.637 277.011C118.645 277.011 118.652 277.011 118.659 277.011C118.947 277.011 119.242 276.971 119.518 276.967C121.442 276.801 123.373 276.263 125.09 275.382C126.608 274.483 128.056 273.233 128.41 271.423C129.236 268.651 129.788 265.809 130.389 262.981C131.553 257.065 133.157 251.24 134.177 245.294C135.832 236.307 137.634 227.349 139.112 218.333C140.11 212.375 140.984 206.382 141.234 200.34C141.411 197.427 141.22 194.515 140.733 191.64C140.313 188.197 139.768 184.614 139.266 181.163C139.001 179.449 139.598 170.532 140.062 168.365C140.534 166.293 140.844 164.192 141.249 162.109C141.606 160.616 141.824 159.082 141.934 157.541C142.097 156.716 142.285 155.894 142.513 155.083C143.254 152.406 144.216 149.8 145.159 147.19C146.334 143.884 147.433 140.496 148.837 137.245C153.362 126.517 158.307 115.952 162.107 104.938C164.436 108.388 167.365 111.381 169.728 114.81C175.926 123.281 182.025 131.837 189.122 139.6C191.68 142.494 194.337 145.318 197.289 147.813C198.092 148.392 198.803 149.35 199.857 149.398C200.539 149.391 201.228 149.317 201.902 149.233C203.892 148.853 205.598 147.647 207.353 146.7C207.599 146.538 207.758 146.339 207.854 146.132C209.556 147.393 211.432 148.422 213.488 148.901C213.514 148.908 213.54 148.908 213.562 148.915C213.555 149.273 217.236 158.238 218.124 158.282C218.353 158.293 218.537 158.194 218.662 158.065C219.093 159.053 219.716 159.912 220.729 160.413C220.951 160.502 221.153 160.542 221.334 160.542C221.835 160.542 222.178 160.229 222.333 159.783C222.694 160.174 223.136 160.491 223.7 160.487C223.729 160.487 223.759 160.487 223.792 160.487C224.418 160.487 224.934 159.997 225.192 159.451C225.642 158.485 225.222 157.412 224.931 156.461C224.838 156.192 224.735 155.938 224.625 155.687C226.784 156.358 225.509 152.812 225.369 151.975H225.373ZM177.706 47.2394C177.706 47.2394 174.33 53.7568 172.923 55.7475C168.434 62.1064 164.878 63.8979 161.2 65.7558C158.831 67.0165 156.126 67.1271 153.554 65.7853C149.213 63.6251 147.171 58.42 145.553 54.1181C144.798 51.3313 144.761 48.4338 145.878 45.7317C146.047 45.2415 146.073 44.648 145.616 44.4526C144.341 43.9807 143.939 45.6359 143.574 46.5243C143.132 47.774 143.121 49.1231 143.154 50.4355C143.147 52.7394 143.644 54.9991 144.639 57.0782C146.338 61.5092 149.076 66.0139 153.653 67.8718C154.324 68.1261 155.009 68.2736 155.702 68.3399C155.614 69.1841 155.529 70.0246 155.444 70.8687C155.385 70.8687 155.322 70.8687 155.26 70.8835C153.325 71.5286 151.357 70.9314 149.496 70.2826C145.037 68.5242 141.592 64.5983 139.816 60.2116C139.23 59.0357 138.736 57.8229 138.382 56.5695C138.205 56.1456 138.039 55.7217 137.896 55.283C137.796 54.977 137.715 54.6711 137.638 54.3577C137.56 54.0554 137.531 53.7384 137.527 53.4288C137.527 53.2187 137.549 53.0159 137.582 52.8058C137.608 52.6436 137.656 52.4851 137.708 52.3266C137.756 52.1865 137.807 52.0464 137.855 51.91C137.94 51.6704 138.05 51.4382 138.146 51.2022C138.271 50.9 138.411 50.6014 138.559 50.3065C138.717 49.9821 138.865 49.654 139.038 49.3406C139.042 49.3333 139.049 49.3222 139.053 49.3148C139.056 49.3075 139.06 49.3001 139.067 49.2927C139.115 49.2116 139.163 49.1305 139.211 49.0531C139.447 48.6107 139.672 48.1573 139.882 47.7039C139.882 47.6965 139.889 47.6892 139.893 47.6818C139.893 47.6855 139.889 47.6929 139.886 47.6965C139.893 47.6818 139.9 47.667 139.908 47.6523C139.908 47.656 139.904 47.6597 139.9 47.667C140.225 46.9372 140.553 46.2073 140.881 45.4774C141.238 44.6848 141.629 43.907 142.03 43.1366C142.027 43.1439 142.023 43.1513 142.019 43.155C142.111 42.9744 142.196 42.7864 142.277 42.5984C142.296 42.5504 142.318 42.5025 142.336 42.4583C142.369 42.3772 142.402 42.2998 142.436 42.2187C142.576 41.8795 142.738 41.5478 142.893 41.216C142.893 41.2123 142.896 41.2049 142.9 41.2012C142.9 41.2012 142.9 41.2012 142.9 41.2049C143.051 40.8621 143.206 40.5193 143.335 40.1654C143.335 40.1654 143.519 39.7525 143.703 39.3102C143.788 39.3876 143.873 39.465 143.961 39.5387C144.168 39.7009 144.389 39.7673 144.599 39.7673C145.306 39.7673 145.929 38.9931 145.638 38.2891C145.491 38.1895 145.354 38.0642 145.225 37.9462C144.982 37.7287 144.757 37.4928 144.54 37.2532C144.437 37.1463 144.33 37.0431 144.241 36.9214C144.134 36.7703 144.035 36.6081 143.939 36.4496C143.722 36.092 143.526 35.7049 143.409 35.3031C143.409 35.2958 143.409 35.2921 143.405 35.2847C143.394 35.2515 143.386 35.2184 143.375 35.1815C143.151 34.3963 142.996 33.5853 143.036 32.7706C143.036 32.778 143.036 32.7854 143.036 32.7928C143.036 32.7817 143.036 32.7706 143.036 32.7596C143.036 32.7559 143.036 32.7522 143.036 32.7485C143.036 32.6969 143.04 32.6453 143.047 32.5974C143.047 32.6084 143.047 32.6195 143.047 32.6306C143.047 32.5974 143.051 32.5605 143.055 32.5273C143.055 32.5273 143.055 32.5237 143.055 32.52C143.055 32.5126 143.055 32.5089 143.055 32.5015C143.058 32.4315 143.069 32.3651 143.077 32.2951C143.088 32.1956 143.095 32.096 143.11 32.0002C143.117 31.9375 143.132 31.8712 143.143 31.8085C143.158 31.709 143.173 31.6131 143.195 31.5136C143.21 31.4472 143.228 31.3846 143.246 31.3182C143.272 31.2224 143.291 31.1302 143.32 31.0344C143.342 30.9607 143.372 30.8943 143.397 30.8243C143.427 30.7432 143.453 30.6584 143.49 30.5773C143.652 30.2013 143.877 29.8621 144.138 29.5488C144.308 29.3497 144.518 29.1765 144.75 29.0327C144.982 28.8926 145.236 28.782 145.487 28.7083C146.077 28.5314 146.802 28.5166 147.333 28.8668C147.75 29.1359 148.081 29.5709 148.332 29.9985C148.498 30.275 148.638 30.5662 148.763 30.8574C148.815 30.9791 148.862 31.1007 148.91 31.2261C148.932 31.2814 148.955 31.3403 148.977 31.3956C149.014 31.4989 149.047 31.6021 149.08 31.7053C149.106 31.779 149.131 31.8564 149.157 31.9302C149.157 31.9302 149.157 31.9375 149.157 31.9412C149.161 31.956 149.165 31.967 149.172 31.9818C149.275 32.3098 149.367 32.6379 149.456 32.9697C149.456 32.9697 149.456 32.9697 149.456 32.966C149.456 32.966 149.456 32.966 149.456 32.9697V32.9771C149.456 32.9771 149.456 32.9697 149.456 32.966C149.456 32.9808 149.463 32.9918 149.467 33.0066C149.529 33.2499 149.585 33.4932 149.636 33.7401C149.651 33.8102 149.666 33.8802 149.681 33.9503C149.728 34.1862 149.773 34.4221 149.817 34.658C149.846 34.8276 149.876 34.9935 149.905 35.1631C149.905 35.152 149.905 35.1409 149.902 35.1299L149.92 35.2331C149.935 35.3068 149.95 35.3842 149.961 35.458C150.005 35.6017 150.053 35.7455 150.101 35.8856C150.252 37.4007 150.83 38.8273 152.555 38.971C152.57 38.971 152.584 38.971 152.599 38.971C154.117 38.971 155.201 37.7545 155.79 36.457C155.989 36.3722 156.188 36.28 156.395 36.1657C158.938 34.9198 160.784 32.7301 162.405 30.4704C164.086 28.3323 165.254 25.5934 167.833 24.3695C170.999 22.836 175.145 24.2589 177.378 26.8099C179.699 29.1765 179.714 31.9375 179.777 35.0451C179.814 36.1657 179.913 37.5813 180.348 38.7609C180.392 38.7683 180.425 38.8051 180.425 38.8494C180.433 38.9084 180.444 38.971 180.451 39.0337C180.521 39.1922 180.599 39.3433 180.68 39.4908C180.315 41.7763 179.478 44.5705 177.702 47.2321L177.706 47.2394ZM164.959 78.5732C164.959 79.3694 164.509 80.103 164.296 80.8624C163.706 82.6023 163.021 84.3054 162.243 85.9679C159.243 92.559 156.653 99.3382 153.657 105.933C152.522 108.436 151.265 111.013 150.02 113.556C150.318 112.314 150.62 111.072 150.915 109.829C151.026 109.177 151.144 108.528 151.276 107.879L151.247 108.027C151.405 107.245 151.56 106.46 151.707 105.675C151.844 104.952 152.017 104.234 152.19 103.515C152.533 102.11 152.898 100.709 153.307 99.3234C153.38 98.9806 153.454 98.6341 153.524 98.2913C153.716 97.1338 153.955 95.9873 154.217 94.8446C155.12 89.481 156.122 84.1211 156.664 78.7095C156.815 77.1502 156.966 75.5799 157.047 74.0095C157.047 74.0095 157.047 74.0058 157.047 74.0021C157.04 73.8067 157.058 73.6114 157.077 73.4123C157.147 71.7277 157.124 70.043 156.94 68.3731C157.099 68.3657 157.257 68.3547 157.419 68.3399C160.887 67.975 162.866 66.6885 164.845 65.4167C164.852 65.4167 164.856 65.4093 164.86 65.4056C164.896 65.3798 164.933 65.354 164.97 65.3245C165.036 65.2729 165.103 65.2139 165.169 65.1623C165.195 65.1439 165.228 65.1291 165.258 65.1328C165.265 65.1328 165.269 65.1328 165.276 65.1328C165.305 65.1144 165.335 65.0923 165.364 65.0702C165.372 65.1291 165.379 65.1844 165.39 65.2434C165.398 65.2618 165.405 65.2803 165.412 65.2987C165.42 65.3319 165.423 65.3651 165.431 65.3982C165.438 65.4277 165.442 65.4572 165.449 65.4867C165.449 65.5051 165.457 65.5236 165.457 65.5457C165.464 65.5789 165.471 65.6084 165.479 65.6379C165.939 67.4663 166.518 69.3094 167.424 70.9646C166.426 71.7129 165.431 72.4649 164.439 73.2243C163.909 73.5081 163.393 73.862 163.452 74.5403C163.68 75.9522 164.568 77.2018 164.966 78.5732H164.959ZM136.326 72.5239C135.968 67.4773 135.132 62.4824 134.347 57.4911C134.015 55.6 133.824 53.6979 133.724 51.7847C133.916 49.2153 134.597 46.7381 135.998 44.4047C136.374 44.1245 136.768 43.8665 137.181 43.6416C138.249 43.0886 139.395 42.709 140.615 42.6315C140.7 42.6205 140.792 42.6205 140.884 42.6205C140.033 44.1687 139.207 45.7354 138.345 47.2763C137.862 48.22 137.431 49.1858 136.923 50.1185C136.738 50.3839 136.613 50.6935 136.569 50.9958C136.359 51.4529 136.189 51.9248 136.145 52.0685C135.578 54.7743 136.407 57.6607 137.8 60.2779C137.932 60.6208 138.069 60.9636 138.201 61.3027C138.721 62.6151 139.255 63.9348 140.088 65.0923C143.106 69.5933 147.949 73.1837 153.528 73.3754C153.539 73.3754 153.55 73.3754 153.557 73.3754C154.117 73.3754 154.674 73.2907 155.216 73.1543C154.902 76.2545 154.567 79.3547 154.081 82.4364C153.108 88.2497 152.249 94.0815 150.93 99.8285C149.927 104.58 148.767 109.291 147.624 114.01C147.407 114.459 147.23 114.924 146.965 115.348C144.967 118.26 142.738 120.988 140.269 123.513C138.235 125.577 136.274 127.715 134.229 129.765C132.6 131.394 130.986 133.204 128.97 134.347C131.557 129.031 133.765 123.524 134.398 117.604C136.09 107.75 136.628 97.7457 136.602 87.7558C136.621 82.6723 136.65 77.5926 136.318 72.5165L136.326 72.5239ZM138.437 28.9479C137.623 27.3702 136.989 25.704 136.632 23.953C136.315 22.2904 135.821 20.4288 136.153 18.652C136.565 16.5287 137.899 14.7667 139.171 13.0709C142.535 8.87223 147.333 6.06325 152.26 4.04684C153.977 3.45334 155.794 3.29851 157.581 3.01835C161.248 2.44329 165.202 2.34007 168.622 3.98417C172.038 5.72411 174.706 8.63999 178.214 10.2325C180.573 11.3421 183.34 11.3716 185.562 12.7871C188.194 14.6339 190.228 18.5341 188.444 21.3025C186.712 23.9898 185.887 27.1158 185.843 27.5029C185.655 29.6926 186.421 31.8306 186.252 34.0203C186.123 35.9482 185.286 38.2817 183.237 38.8383C181.708 38.3038 182.169 34.1235 181.962 32.708C181.896 30.8906 181.56 28.9037 180.573 27.3112C179.18 25.0367 177.116 23.083 174.559 22.2204C173.28 21.7338 171.972 21.4831 170.689 21.4831C168.268 21.4831 165.95 22.3863 164.126 24.3105C162.14 26.4744 159.973 30.6694 157.257 32.9513C156.712 32.9328 154.869 34.7797 153.764 35.7787C153.347 36.1584 152.684 36.0146 152.459 35.4985C152.021 34.4921 151.667 33.2572 151.376 32.3762C150.867 31.0159 150.591 29.5046 149.633 28.3692C149.338 27.9858 148.354 26.4339 145.981 26.4891C143.607 26.5444 141.975 28.9037 141.533 31.0233C141.36 31.5652 141.271 32.1403 141.267 32.7117C140.269 31.5025 139.314 30.2492 138.441 28.9479H138.437ZM127.264 47.4606C127.352 47.3058 127.445 47.1546 127.54 47.0072C127.577 46.9519 127.61 46.8966 127.647 46.8376C127.806 46.587 127.986 46.3547 128.163 46.1188C128.163 46.1188 128.174 46.1077 128.178 46.104C128.392 45.8128 128.598 45.5179 128.823 45.2341C129.037 44.9576 129.247 44.6774 129.453 44.3973C129.471 44.3715 129.486 44.3494 129.505 44.3272C129.505 44.3272 129.505 44.3272 129.505 44.3236C129.604 44.1872 129.707 44.0471 129.807 43.9144C129.917 43.7706 130.039 43.6379 130.161 43.5015C130.4 43.2361 130.665 42.9891 130.923 42.7421C131.074 42.5984 131.226 42.4546 131.377 42.3108C131.384 42.3035 131.388 42.2998 131.395 42.2924C131.528 42.1671 131.668 42.0528 131.808 41.9385C131.951 41.8205 132.103 41.721 132.261 41.6215C132.427 41.5109 132.593 41.4003 132.759 41.2897C133.403 40.8621 134.074 40.4714 134.748 40.0917C134.911 39.9995 135.076 39.911 135.242 39.8226C135.419 39.7267 135.603 39.6456 135.788 39.5645C136.141 39.4097 136.495 39.2512 136.86 39.1185C137.229 38.9858 137.604 38.8678 137.98 38.7535C138.341 38.6429 138.706 38.5287 139.078 38.4513C139.414 38.3812 139.757 38.3222 140.103 38.2891C140.243 38.2743 140.387 38.2669 140.527 38.2596C141.057 38.149 141.577 38.0716 142.082 38.0347C142.325 38.1269 142.557 38.1305 142.767 38.0752C142.885 38.2927 143.022 38.4992 143.169 38.6946C143.136 38.7498 143.099 38.8051 143.066 38.8641C143.073 38.9157 142.598 39.6714 142.48 39.8447C142.34 40.0732 142.211 40.3092 142.074 40.5377C140.626 40.1396 137.744 41.1607 136.915 41.6915C135.592 42.3882 134.491 43.4094 133.676 44.6295C133.676 44.6185 133.676 44.6074 133.676 44.5963C133.65 44.648 133.625 44.6959 133.595 44.7475C133.569 44.7954 133.543 44.8433 133.518 44.8913C133.518 44.8913 133.503 44.9171 133.496 44.9318C133.488 44.9429 133.484 44.9539 133.477 44.965C133.462 44.9982 133.444 45.0313 133.426 45.0682C133.426 45.0608 133.433 45.0571 133.437 45.0498C133.433 45.0571 133.429 45.0645 133.426 45.0719C133.426 45.0645 133.433 45.0608 133.437 45.0535C133.352 45.2304 133.278 45.4073 133.208 45.588C130.92 49.3075 131.318 54.6747 131.977 58.903C132.228 60.8493 132.821 62.6519 133.477 64.4767C133.897 67.1714 134.273 69.8734 134.457 72.6013C134.918 79.5242 134.87 86.4656 134.782 93.4032C134.616 99.9501 134.336 106.519 133.138 112.97C132.611 115.326 132.445 117.733 132.051 120.107C131.553 117.055 130.654 114.076 129.833 111.094C128.679 107.02 127.544 102.94 126.431 98.8553C125.44 95.5228 124.419 92.1941 123.689 88.7916C122.65 83.8483 121.349 78.9565 120.24 74.0279C120.174 73.6003 120.004 73.1469 120.096 72.7156C121.228 71.3959 122.661 70.3858 124.04 69.2578C124.964 68.6348 125.127 67.8275 124.146 67.1419C123.284 66.4599 122.378 65.8369 121.548 65.1144C122.764 60.6834 124.165 56.2967 125.602 51.9284C126.092 50.089 126.579 48.6697 127.246 47.4938C127.253 47.4827 127.26 47.468 127.268 47.4569L127.264 47.4606ZM68.328 129.312C68.3206 124.811 68.4791 120.313 68.7887 115.82C69.0982 112.856 69.0282 109.756 69.9642 106.91C71.7441 103.743 73.0155 100.341 74.578 97.0674C79.6229 87.483 85.3164 78.2451 91.3747 69.2726C93.1952 66.5152 94.6655 63.5477 96.357 60.7166C97.971 57.9113 99.3456 54.9365 101.446 52.4482C103.447 51.6114 105.684 51.1617 107.773 50.4981C111.024 49.5581 114.241 48.4965 117.539 47.726C119.698 47.2947 122.005 46.8819 124.183 46.2773C124.953 46.0856 125.731 45.916 126.494 45.7022C126.343 45.9013 126.199 46.1077 126.066 46.3215C124.858 48.3674 123.903 50.5792 123.104 52.8131C121.906 56.5142 120.34 60.4512 119.78 64.3587C119.754 64.8232 119.676 65.3245 119.897 65.7558C120.049 66.036 120.31 66.2461 120.561 66.4378C121.349 67.0497 122.142 67.658 122.982 68.1998C121.666 69.0698 120.325 69.9361 119.219 71.0678C118.291 71.7719 118.07 72.9441 118.383 74.0242C118.991 76.73 119.603 79.4394 120.207 82.1452C121.055 85.4887 121.648 88.8948 122.503 92.2383C123.328 95.5597 124.419 98.8 125.3 102.107C127.047 108.565 129.302 114.887 130.724 121.427C130.791 121.644 130.916 121.784 131.063 121.869C131.189 122.245 131.273 122.647 131.384 123.034C129.604 129.083 126.741 134.738 123.671 140.219C122.477 142.66 121.43 145.189 120.037 147.526C117.801 151.124 115.214 154.504 112.586 157.822C108.275 163.185 103.115 167.738 97.9379 172.235C94.8571 174.893 91.4742 177.411 87.649 178.933C84.9994 179.84 82.1066 178.871 79.8292 177.444C77.8209 175.962 75.9267 174.288 73.782 173.013C73.782 173.013 73.7783 173.013 73.7746 173.013C74.0989 171.73 74.1689 170.285 74.1652 169.47C74.1652 169.231 74.0584 169.058 73.9073 168.947C76.2915 166.267 78.7016 160.417 79.1291 158.78C79.4755 157.578 79.8845 156.38 80.6326 155.359C81.0527 154.791 81.6128 154.345 82.1251 153.863C82.5673 154.762 83.2711 155.499 84.3214 155.868C84.8447 156.056 85.3532 156.144 85.8286 156.144C88.3345 156.144 90.026 153.759 88.5851 151.098C88.3087 150.394 88.5261 149.667 88.5003 148.934C88.4193 147.909 87.8812 147.017 87.1958 146.276C86.8052 145.804 86.3961 145.362 85.9871 144.92C85.8139 142.317 86.2487 139.641 86.5804 137.046C87.6122 132.224 88.3234 127.218 89.2263 122.341C90.1439 117.766 90.8846 113.118 92.3586 108.672C92.7677 107.091 93.8658 105.845 94.6176 104.418C98.0079 98.4166 101.594 92.5259 105.544 86.8821C106.557 85.4371 107.538 83.9478 108.157 82.2853C108.684 80.8624 109.052 79.3841 109.424 77.9133C109.612 77.1539 109.767 76.3872 109.94 75.6241C109.999 75.3624 109.977 75.1043 109.841 74.8721C109.461 74.1754 108.389 74.2749 108.098 74.9827C107.821 75.5725 107.63 76.1844 107.457 76.8111C106.893 78.7943 106.48 80.8439 105.566 82.7055C104.107 85.3597 102.154 87.7005 100.599 90.2956C98.0927 94.0852 95.7379 97.9669 93.5121 101.926C92.6792 103.342 91.9017 104.794 90.9656 106.147C90.6524 106.707 90.5234 107.349 90.295 107.946C88.3198 114.268 87.2732 120.955 86.3187 127.505C86.0313 130.617 85.449 133.691 85.2021 136.806C84.9921 139.309 85.1284 141.856 85.4822 144.356C85.0547 143.876 84.642 143.382 84.2661 142.829C83.1569 140.356 80.0577 140.511 77.784 140.861C75.8678 141.152 73.911 141.528 72.2748 142.623C71.2245 143.283 70.0969 143.858 69.2161 144.75C68.6744 139.622 68.2654 134.484 68.3317 129.319L68.328 129.312ZM67.7458 149.262C67.7531 149.218 67.7679 149.177 67.7789 149.137C67.8047 149.059 67.8416 148.978 67.8784 148.904C67.9005 148.857 67.9227 148.809 67.9484 148.761C68.0074 148.639 68.0737 148.517 68.1364 148.392C68.3243 148.038 68.5344 147.699 68.7555 147.364C68.9324 147.094 69.124 146.833 69.334 146.589C69.3414 146.578 69.3451 146.571 69.3525 146.564C69.452 146.42 69.5515 146.276 69.6547 146.132C69.6731 146.11 69.6915 146.092 69.7136 146.077C69.8315 145.896 69.9531 145.727 70.0895 145.613C72.249 143.685 75.0902 142.59 77.8946 142.004C79.4681 141.823 82.0551 141.285 83.1016 142.789C83.8718 144.079 84.8852 145.332 85.7991 146.542C87.1442 148.149 87.3174 148.528 87.2068 150.619C87.2474 151.455 87.7928 152.174 87.8554 153C87.1147 154.316 85.1763 154.253 84.0598 153.472C82.8658 152.484 82.4604 150.947 82.1398 149.472C82.0956 149.373 82.1398 149.155 82.0182 149.078C81.9482 149.022 81.8524 149.03 81.7823 149.078C81.5133 149.343 81.6239 149.826 81.5649 150.173C81.5023 150.796 81.5097 151.448 81.6018 152.086C81.4691 152.123 81.3365 152.189 81.2149 152.307C80.6105 153 79.9398 153.63 79.3981 154.371C78.3331 155.794 77.9609 157.538 77.4118 159.193C76.7006 161.235 75.7204 163.089 74.6738 164.992C74.0289 166.179 73.3213 167.347 72.3927 168.339C72.5806 165.869 73.0781 163.447 73.3619 160.996C73.5867 159.248 73.6198 157.486 73.7156 155.731C73.8667 155.532 73.5977 155.249 73.3914 155.4C73.2108 155.562 73.2034 155.838 73.1297 156.056C72.7244 157.744 72.3706 159.444 71.9652 161.132C71.4567 163.347 70.9997 165.637 70.797 167.93C70.7454 168.7 70.4396 169.784 71.2982 170.215C71.4493 170.278 71.6078 170.307 71.7662 170.307C72.1016 170.307 72.4553 170.171 72.8165 169.939C72.7244 171.376 72.448 172.862 71.6078 174.041C70.856 173.699 70.4875 172.961 70.2185 172.165C69.9679 169.507 69.2088 166.879 69.452 164.195C69.6473 162.765 69.7763 161.125 70.0047 159.661C70.1153 158.894 68.9729 158.662 68.7665 159.399C68.2654 161.913 67.9116 164.527 68.2322 167.085C68.3059 168.549 69.4851 172.497 68.4238 173.463C67.1525 172.906 66.9498 170.989 66.5481 169.765C66.0248 167.723 65.7705 165.618 65.9253 163.513C66.0801 161.762 66.3749 160.033 66.5886 158.293C66.5886 157.988 66.854 157.32 66.3712 157.291C66.2717 157.306 66.198 157.376 66.1685 157.468C64.8677 161.121 63.8653 165.128 64.7203 168.965C63.9833 167.259 63.8322 165.408 63.8432 163.55C63.8469 161.851 63.9869 160.188 64.3297 158.507C65.122 155.304 66.4855 152.303 67.7495 149.266L67.7458 149.262ZM62.2807 159.503C62.1886 160.586 62.0965 161.7 62.0596 162.809C61.8348 162.463 61.6027 162.12 61.3632 161.781C57.011 156.425 57.0184 156.296 59.3437 149.793C60.8251 145.845 62.4576 141.948 64.2633 138.14C64.3112 138.063 64.3555 137.982 64.4034 137.901C65.004 136.817 65.6084 135.737 66.2128 134.653C66.3565 138.874 66.6955 143.08 67.3404 147.235C66.1796 149.38 65.0667 151.555 64.1122 153.8C63.3384 155.639 62.5387 157.505 62.2807 159.499V159.503ZM36.3891 213.511C36.2933 214.724 36.1754 215.959 35.63 217.064C35.4384 217.359 35.3168 217.805 34.9704 217.945C34.0307 217.971 33.172 217.544 32.6045 216.795C31.7127 215.535 31.8933 213.868 31.6943 212.401C31.3663 208.855 31.8712 205.309 31.9596 201.755C32.0702 200.141 32.1918 198.438 32.4977 196.838C32.903 195.053 33.6216 193.476 34.2739 191.732C34.9151 190.051 35.4642 188.271 36.695 186.914C37.2994 186.088 38.2796 185.834 39.234 185.65C39.8421 185.521 40.4833 185.476 41.0545 185.757C41.762 186.121 42.3517 186.697 42.6944 187.419C41.8505 187.511 41.0029 187.6 40.1553 187.681C38.8582 187.979 37.9701 189.185 37.0856 190.106C34.1633 193.487 33.8612 198.39 34.8045 202.588C35.2357 204.748 36.028 206.816 37.0414 208.77C36.3081 209.913 36.5107 212.575 36.3855 213.511H36.3891ZM117.325 282.25C118.781 282.836 120.244 283.415 121.677 284.052C123.446 285.04 125.845 285.272 126.479 287.488C126.147 287.864 125.768 288.199 125.318 288.428C125.042 288.542 124.718 288.649 124.434 288.786C121.843 289.033 121.114 288.664 118.453 288.137C116.352 287.845 114.259 287.481 112.151 287.234C110.04 287.049 107.947 286.758 105.868 286.367C104.497 286.157 103.134 285.903 101.804 285.512C101.085 285.339 100.318 285.184 99.9536 284.465C99.0139 283.05 99.2387 281.258 99.2645 279.647C99.3235 278.254 99.4156 276.864 99.5814 275.482C99.5814 275.378 99.6036 275.209 99.6367 275.006C102.238 276.857 105.743 277.531 108.875 277.598C109.31 277.601 109.741 277.605 110.176 277.605C111.175 277.605 112.173 277.59 113.172 277.55C113.039 278.501 113.253 279.481 113.876 280.23C114.672 281.398 116.069 281.8 117.333 282.25H117.325ZM135.559 225.786C134.579 231.828 133.26 237.804 132.198 243.831C131.214 249.788 129.645 255.616 128.436 261.525C127.633 265.001 127.157 268.61 125.864 271.939C124.773 273.215 123.291 273.893 121.711 274.331C121.408 274.18 121.077 274.206 120.763 274.306C120.174 274.46 119.584 274.593 118.987 274.715C116.091 275.279 113.135 275.389 110.191 275.415C106.27 275.437 101.535 274.866 99.084 271.456C99.1024 271.371 99.1171 271.279 99.1171 271.183C99.095 270.472 99.1171 269.76 99.1687 269.053C99.2535 268.271 99.3309 267.49 99.4082 266.704C99.434 266.487 99.4635 266.269 99.4893 266.052C99.751 263.932 100.035 261.816 100.355 259.704C101.232 254.812 102.39 249.972 103.55 245.143C103.735 244.41 103.923 243.68 104.114 242.946C104.814 240.391 105.522 237.833 106.178 235.268C106.543 233.911 106.9 232.551 107.246 231.187C109.966 221.396 112.402 211.281 111.094 201.077C110.552 197.232 109.553 193.457 108.437 189.745C107.608 187.607 106.977 185.443 106.159 183.283C105.603 181.849 105.054 180.415 104.578 178.952C104.593 178.812 104.556 178.657 104.486 178.509C108.164 173.511 111.639 168.368 115.431 163.451C117.075 161.209 118.773 158.979 120.056 156.498C120.881 154.836 121.747 153.192 122.514 151.5C122.558 151.422 122.658 151.223 122.742 151.131C122.879 150.958 122.82 150.692 122.628 150.585C122.385 150.442 122.131 150.637 122.05 150.866C120.531 152.93 119.083 155.042 117.613 157.14C113.275 162.912 108.768 168.556 104.671 174.51C104.671 174.539 104.671 174.572 104.656 174.602C104.615 174.72 104.538 174.823 104.475 174.93C104.42 175.022 104.357 175.107 104.302 175.195C104.258 175.262 104.203 175.328 104.158 175.391C104.144 175.409 104.133 175.427 104.118 175.446C104.063 175.545 104 175.641 103.937 175.737C103.86 175.855 103.771 175.969 103.687 176.087C103.595 176.216 103.499 176.345 103.407 176.474C103.359 176.544 103.281 176.585 103.204 176.592C103.189 176.611 103.171 176.629 103.16 176.648C103.086 176.736 103.012 176.825 102.939 176.913C95.8411 186.472 88.364 195.754 81.5465 205.519C80.6805 207.06 78.9706 207.694 77.3934 208.269C74.4711 209.283 71.4677 210.094 68.4201 210.632C65.4978 211.085 62.5792 211.579 59.6348 211.83C56.4472 211.948 53.2596 212.151 50.072 212.184C48.1152 212.254 46.1731 212.051 44.2274 211.878C43.3245 211.837 42.4364 212.011 41.5372 212.036C40.3506 210.709 39.7352 209.08 38.884 207.521C36.4665 202.677 35.0736 195.887 38.895 191.393C40.4538 189.45 40.7597 189.8 43.0813 189.576C46.409 189.321 49.8251 188.72 53.1417 188.208C55.5186 187.799 57.9065 187.423 60.2724 186.958C61.7169 186.427 62.1997 184.164 62.7008 182.848C63.2204 181.149 63.1836 179.346 63.5116 177.606C63.9869 175.133 64.4771 172.663 65.0519 170.215C65.0593 170.245 65.0704 170.274 65.0777 170.304C65.6489 171.844 65.9843 173.809 67.4952 174.712C67.8158 174.9 68.1143 174.981 68.3907 174.981C68.9803 174.981 69.4593 174.605 69.7799 174.075C70.1079 174.904 70.6791 175.538 71.7109 175.627C72.3706 175.575 72.8533 175.136 73.2108 174.502C75.6466 176.327 77.7287 178.675 80.441 180.091C81.8082 180.677 83.2122 181.315 84.7157 181.403C84.97 181.425 85.2242 181.436 85.4711 181.436C88.1465 181.436 90.6156 180.131 92.8672 178.756C96.6186 176.478 99.8689 173.529 103.123 170.609C107.862 166.518 112.255 162.009 116.035 157.011C118.213 154.11 120.436 151.223 122.256 148.079C123.704 145.531 124.732 142.778 126.022 140.153C126.641 138.962 127.264 137.761 127.876 136.555C129.059 136.655 130.488 135.918 131.959 134.812C131.959 134.944 131.977 135.077 131.977 135.199C132.055 136.692 132.128 138.181 132.169 139.678C132.265 142.704 133.86 157.073 134.435 161.243C135.36 168.741 136.3 176.294 137.417 183.777C137.958 187.275 138.382 190.792 138.872 194.298C139.042 195.496 139.067 196.705 139.082 197.91C138.95 207.303 137.192 216.574 135.556 225.797L135.559 225.786ZM143.342 135.601C143.35 135.556 143.357 135.516 143.361 135.475C143.346 135.582 143.327 135.685 143.313 135.788C143.32 135.748 143.327 135.704 143.331 135.663C142.926 138.387 142.491 141.108 141.905 143.799C141.337 146.42 140.799 149.048 140.328 151.688C140.213 152.325 140.107 152.963 139.985 153.597V153.579C139.985 153.619 139.974 153.656 139.967 153.697V153.722H139.963C139.963 153.73 139.963 153.741 139.959 153.748C139.959 153.756 139.959 153.763 139.956 153.767V153.774V153.781V153.789C139.956 153.796 139.956 153.8 139.956 153.807C139.956 153.818 139.952 153.833 139.948 153.844C139.948 153.844 139.948 153.848 139.948 153.851C139.948 153.855 139.948 153.855 139.948 153.859V153.881H139.944C139.867 154.298 139.79 154.714 139.712 155.131C139.55 156.082 139.425 157.036 139.285 157.991C139.292 157.943 139.3 157.895 139.307 157.847C139.296 157.914 139.289 157.98 139.277 158.046C139.285 157.999 139.292 157.951 139.3 157.903C139.259 158.172 139.222 158.437 139.182 158.706C139.134 159.101 139.09 159.495 139.042 159.89C138.916 160.922 138.824 161.954 138.769 162.994C138.743 163.513 138.725 164.033 138.706 164.557C138.688 165.098 138.647 165.637 138.599 166.175C138.507 167.181 138.375 168.184 138.279 169.19C138.198 170.042 138.117 170.89 138.047 171.741C138.047 171.741 138.047 171.745 138.047 171.749C138.039 171.881 138.032 172.021 138.025 172.158C138.025 172.265 138.025 172.372 138.025 172.475C138.025 172.504 138.025 172.537 138.025 172.567C138.021 172.692 138.013 172.818 137.999 172.943C137.999 172.961 137.999 172.983 137.991 173.006C137.984 173.072 137.929 173.105 137.873 173.105C137.833 173.105 137.792 173.087 137.77 173.046C137.77 173.039 137.767 173.031 137.763 173.028C137.744 172.991 137.733 172.954 137.719 172.913C137.719 172.902 137.711 172.891 137.711 172.884C137.711 172.884 137.711 172.88 137.711 172.877C137.638 172.659 137.56 172.445 137.49 172.228C137.413 171.984 137.35 171.737 137.288 171.491C137.166 171.004 137.052 170.521 136.952 170.031C136.849 169.537 136.735 169.043 136.643 168.545C136.55 168.044 136.503 167.531 136.444 167.026C136.326 166.005 136.186 164.984 136.042 163.967C135.968 163.447 135.895 162.927 135.832 162.404C135.769 161.873 135.721 161.338 135.673 160.804C135.578 159.753 135.522 158.695 135.467 157.641C135.412 156.561 134.358 147.301 134.1 145.509C133.757 142.38 133.532 138.959 132.98 135.796C132.884 135.534 132.876 134.635 132.593 134.34C135.305 132.139 138.05 128.902 139.539 127.483C141.835 125.08 144.223 122.735 146.261 120.107V120.114C146.261 120.114 146.261 120.118 146.261 120.122C146.261 120.122 146.261 120.122 146.261 120.125C146.246 120.177 146.235 120.229 146.22 120.28C146.22 120.288 146.217 120.299 146.213 120.306C146.209 120.324 146.205 120.339 146.198 120.358C146.198 120.35 146.202 120.339 146.205 120.332L146.172 120.472C146.18 120.446 146.187 120.42 146.191 120.394C146.158 120.523 146.128 120.649 146.095 120.778C146.095 120.778 146.095 120.778 146.095 120.774C146.095 120.774 146.095 120.778 146.095 120.782C146.088 120.807 146.084 120.829 146.077 120.855C146.084 120.829 146.091 120.804 146.095 120.774C145.771 122.123 145.461 123.476 145.174 124.833C145.034 125.485 144.886 126.138 144.757 126.794C144.632 127.439 144.532 128.091 144.415 128.74C144.315 129.275 144.212 129.806 144.123 130.34C144.031 130.904 143.954 131.468 143.88 132.032C143.725 133.23 143.549 134.425 143.368 135.619L143.342 135.601ZM202.558 146.763C201.803 147.094 200.974 147.102 200.181 147.282C196.515 144.529 193.415 141.115 190.372 137.68C187.283 134.185 184.243 130.687 181.428 126.956C175.458 119.451 170.28 111.027 163.12 104.536C162.892 104.341 162.674 104.134 162.453 103.931C162.737 103.091 163.017 102.247 163.286 101.399C163.341 101.229 163.389 101.056 163.441 100.886C163.599 100.54 163.754 100.193 163.89 99.8358C164.812 97.3513 165.313 94.7413 165.685 92.1277C165.947 90.7343 166.076 89.3188 166.319 87.918C166.492 86.5872 164.568 86.2001 164.189 87.483C164.034 88.3751 163.89 89.2672 163.754 90.1629C163.168 92.6881 162.619 95.2243 162.04 97.7531C160.22 104.455 157.637 110.939 154.947 117.361C152.566 123.259 149.865 129.024 147.418 134.893C147.436 135.003 147.418 135.11 147.366 135.217C147.252 135.46 147.142 135.704 147.024 135.943C146.957 136.083 146.884 136.223 146.814 136.36C146.486 137.163 146.165 137.967 145.848 138.774C145.848 138.782 145.844 138.789 145.841 138.793C145.782 138.996 145.715 139.195 145.653 139.394C145.638 139.438 145.612 139.482 145.583 139.515C145.524 139.696 145.461 139.873 145.398 140.054C145.273 140.407 145.129 140.758 144.997 141.108C144.923 141.303 144.853 141.502 144.768 141.694C144.742 141.757 144.713 141.819 144.684 141.882C144.684 141.882 144.684 141.882 144.684 141.886C144.625 142.011 144.566 142.136 144.51 142.262C144.426 142.483 144.359 142.708 144.267 142.925C144.245 142.981 144.193 143.003 144.146 143.003C144.072 143.003 143.998 142.951 144.002 142.863C144.002 142.807 144.02 142.752 144.035 142.697V142.715C144.075 142.512 144.12 142.313 144.168 142.111V142.129C144.201 141.945 144.241 141.76 144.263 141.576C144.286 141.381 144.308 141.185 144.33 140.99C144.352 140.806 144.381 140.621 144.407 140.433C144.433 140.253 144.459 140.072 144.496 139.891C144.558 139.556 144.625 139.224 144.695 138.889C144.706 138.8 144.72 138.712 144.731 138.62C144.842 137.875 144.953 137.13 145.067 136.389C145.31 134.845 145.59 133.308 145.885 131.77C145.966 131.354 146.047 130.934 146.135 130.521C146.194 130.237 146.257 129.953 146.323 129.673C146.401 129.356 146.478 129.043 146.559 128.726C146.662 128.239 146.766 127.756 146.869 127.269C146.917 126.963 146.972 126.658 147.027 126.352C147.16 125.629 147.322 124.914 147.473 124.195C147.797 122.676 148.129 121.161 148.498 119.653C148.531 119.524 148.564 119.395 148.597 119.263C148.601 119.252 148.608 119.241 148.612 119.233C149.526 117.475 150.381 115.687 151.25 113.907C154.25 107.931 156.996 101.992 159.638 95.8067C161.396 91.5379 163.422 87.3835 165.243 83.1479C166.732 79.0008 167.804 78.6764 165.239 74.5366C166.518 73.6224 168.01 72.9257 169.153 71.853C169.37 71.5581 169.425 71.1858 169.344 70.8282C169.289 69.984 168.88 69.2689 168.486 68.5427C168.309 68.1851 168.121 67.8312 167.929 67.4773C167.922 67.4626 167.911 67.4515 167.903 67.4368C167.786 67.2598 167.668 67.0866 167.553 66.9096C167.417 66.6921 167.295 66.4747 167.177 66.2498C167.177 66.2498 167.17 66.2387 167.166 66.2314C167.166 66.2314 167.166 66.2277 167.163 66.224C167.056 66.0249 166.945 65.8259 166.846 65.6268C166.798 65.531 166.754 65.4314 166.717 65.3319C166.684 65.2324 166.654 65.1365 166.617 65.037C166.54 64.8527 166.437 64.6794 166.363 64.4914C166.337 64.4804 166.323 64.4546 166.323 64.4177C166.323 64.3956 166.33 64.3808 166.337 64.3698C166.356 64.3403 166.385 64.3218 166.415 64.3218C167.144 63.791 167.83 63.2491 168.46 62.7294C168.489 62.7699 168.523 62.8141 168.57 62.8694C169.23 64.4287 169.683 66.0765 170.243 67.6764C171.08 70.0909 171.699 72.5681 172.436 75.0122C174.087 79.9076 175.48 84.9099 177.441 89.6911C179.508 93.4548 182.401 96.6877 184.862 100.19C190.501 107.614 196.522 114.799 202.024 122.385C204.519 125.754 207.076 129.076 209.582 132.438C210.231 133.282 210.824 134.174 211.443 135.044C210.312 134.41 209.103 133.949 207.791 133.82C206.634 133.746 205.488 133.953 204.478 134.539C204.467 134.543 204.456 134.55 204.445 134.554C203.597 135.147 200.185 138.14 200.867 145.443C200.896 145.749 201.239 145.896 201.475 145.896C201.692 145.896 201.891 145.756 201.947 145.439C201.976 145.329 202.138 141.521 202.617 140.017C203.037 141.543 204.032 142.826 205.304 144.002C205.606 144.282 205.919 144.562 206.236 144.835C205.02 145.45 203.826 146.18 202.555 146.759L202.558 146.763ZM223.95 158.802C221.857 156.251 220.269 153.328 218.371 150.648C218.312 150.582 218.213 150.574 218.15 150.641C218.073 150.725 218.106 150.818 218.157 150.91C218.187 150.969 218.238 151.101 218.323 151.105C219.281 152.897 220.062 154.692 220.685 156.649C220.855 157.328 221.08 157.991 221.426 158.592C221.374 158.762 221.363 158.961 221.334 159.123C220.416 158.305 219.978 157.048 219.443 155.96C218.883 154.552 218.279 153.162 217.594 151.813C217.428 151.581 216.93 150.202 216.599 150.549C216.532 150.869 216.779 151.208 216.845 151.529C217.122 152.406 217.358 153.295 217.582 154.183C217.807 155.072 217.999 156.074 218.29 157.029C218.275 157.029 218.26 157.022 218.242 157.018C217.498 155.879 216.904 154.644 216.352 153.391C216.3 153.228 216.245 153.063 216.201 152.9C215.766 151.536 215.18 150.22 214.502 148.96C215.508 148.809 216.341 148.057 216.079 146.873C215.78 145.808 215.121 144.89 214.55 143.946C215.67 144.905 216.868 145.837 217.638 147.098C218.408 148.562 219.3 149.948 220.199 151.33C221.024 152.602 221.923 153.944 223.143 154.873C223.538 155.901 224.551 158.083 223.95 158.806V158.802ZM222.856 151.754C221.478 149.822 220.269 147.765 218.839 145.878C217.991 145.096 216.934 144.577 215.954 143.983C215.331 143.703 214.76 143.169 214.078 143.08C214.052 143.08 214.034 143.091 214.012 143.102C213.216 141.871 212.759 140.654 212.073 139.346C211.546 138.712 210.511 139.372 210.872 140.116C211.145 140.621 211.432 141.119 211.712 141.62C212.692 143.463 214.118 145.015 214.903 146.973C215.036 148.337 213.079 147.334 212.486 146.999C210.492 145.801 208.672 144.363 206.932 142.815C206.092 142.044 205.234 141.266 204.519 140.378C204.058 139.725 203.343 137.211 205.049 135.855C205.919 135.162 207.146 135.073 208.266 135.269C210.419 135.733 212.184 137.237 213.897 138.542C216.09 140.297 218.389 142.022 220.615 143.817C221.271 144.267 221.474 145.071 221.78 145.76C222.13 146.678 222.517 147.681 222.863 148.698C223.383 150.206 223.803 151.747 224.208 153.291C224.223 153.332 224.234 153.376 224.249 153.416C223.744 152.897 223.265 152.318 222.86 151.761L222.856 151.754Z" fill="black"/>
<path d="M144.539 37.2422C144.539 37.2422 144.539 37.2422 144.539 37.2458C144.553 37.26 144.568 37.2743 144.582 37.2886C144.568 37.2743 144.553 37.2565 144.539 37.2422Z" fill="black"/>
<path d="M139.89 47.6852V47.6923C139.89 47.6923 139.882 47.703 139.879 47.7066C139.879 47.6994 139.886 47.6923 139.89 47.6816V47.6852Z" fill="black"/>
<path d="M166.617 65.0259C166.617 65.0259 166.617 65.0367 166.624 65.0439C166.624 65.0367 166.617 65.0295 166.617 65.0259Z" fill="black"/>
</g>
<defs>
<clipPath id="clip0_1827_5498">
<rect width="486" height="364" fill="white"/>
</clipPath>
</defs>
</svg>
