<svg width="573" height="337" viewBox="0 0 573 337" fill="none" xmlns="http://www.w3.org/2000/svg">
<g clip-path="url(#clip0_6493_73307)">
<path d="M520.334 122.837C520.294 122.359 520.266 121.875 520.246 121.391C520.219 120.988 520.191 120.695 519.714 120.661C519.285 120.559 518.808 120.647 518.406 120.477C514.282 120.259 510.145 120.334 506.022 120.245C503.03 120.266 500.024 120.341 497.032 120.279C495.805 120.204 494.62 120.122 493.4 120.156C489.76 120.375 486.114 120.416 482.467 120.402C475.291 120.586 468.107 120.75 460.93 120.716C459.213 120.709 457.502 120.879 455.791 120.988C454.946 121.029 454.101 121.009 453.27 121.173C453.052 121.248 452.745 121.248 452.629 121.473C452.377 122.919 452.5 124.344 452.684 125.776C452.704 126.602 452.745 127.427 452.82 128.252C452.84 129.309 452.718 130.366 452.827 131.423C453.024 133.122 452.738 132.999 454.49 133.422C456.016 133.674 457.577 133.661 459.124 133.626C462.034 133.626 464.945 133.599 467.855 133.633C471.515 133.715 475.168 133.633 478.828 133.463C482.488 133.422 486.148 133.395 489.808 133.156C494.913 132.951 500.024 132.781 505.122 132.508C507.951 132.44 510.779 132.365 513.608 132.365C516.041 132.256 518.508 132.44 520.914 131.983C521.173 131.103 521.084 130.162 521.064 129.261C521.091 127.093 520.518 124.985 520.348 122.823L520.334 122.837Z" fill="#BFC9E7"/>
<path d="M462.814 152.851C462.875 150.839 462.507 148.861 462.534 146.849C461.689 146.44 460.564 146.671 459.733 146.706C458.656 146.747 457.579 146.862 456.502 146.951C455.759 147.012 455.017 146.978 454.267 146.924C452.209 146.822 450.15 146.924 448.092 146.876C442.299 146.937 436.506 146.706 430.719 146.849C426.405 146.828 422.104 147.244 417.797 147.081C410.443 147.169 403.075 146.146 395.756 147.094C396.049 147.961 395.81 148.929 395.81 149.829C395.803 152.162 395.558 154.487 395.51 156.82C395.49 157.359 395.483 157.904 395.463 158.443C395.442 159.303 395.299 160.23 395.762 161.001C396.642 161.212 397.575 161.144 398.475 161.144C402.053 160.912 405.638 160.967 409.223 161.021C412.099 160.864 414.982 160.892 417.865 160.769C421.505 160.708 425.151 160.667 428.79 160.694C432.491 160.899 436.199 160.994 439.907 160.98C442.796 160.926 445.686 160.817 448.583 160.803C452.025 160.864 455.46 160.912 458.895 160.776C460.374 160.783 461.859 160.714 463.318 160.442C463.059 157.918 462.589 155.401 462.814 152.857V152.851Z" fill="#BFC9E7"/>
<path d="M522.502 127.372C522.304 125.981 521.848 124.637 521.643 123.246C521.364 120.756 521.575 119.324 518.488 119.57C515.843 119.099 513.165 119.058 510.473 119.024C508.053 119.003 505.64 118.956 503.221 118.997C501.088 118.997 498.961 119.099 496.828 119.044C494.899 118.901 492.95 118.956 491.028 119.106C487.45 119.406 483.851 119.16 480.266 119.29C473.09 119.474 465.913 119.365 458.743 119.638C457.598 119.72 456.453 119.863 455.308 119.917C454.183 120.027 452.479 119.863 451.689 120.79C451.13 121.595 451.239 122.666 451.13 123.6C451.089 125.224 451.273 126.854 451.212 128.484C451.075 129.984 450.987 131.498 451.375 132.971C451.45 133.387 451.593 133.803 451.9 134.11C454.367 135.993 459.22 135.215 462.26 135.406C466.649 135.406 471.031 135.236 475.42 135.147C478.317 135.099 481.22 135.188 484.117 135.092C487.818 135.031 491.512 134.704 495.206 134.499C498.116 134.295 501.033 134.295 503.943 134.063C507.487 133.872 511.032 133.653 514.589 133.728C516.975 133.647 519.496 134.015 521.773 133.169C522.843 132.344 522.591 130.659 522.597 129.452C522.563 128.77 522.577 128.074 522.502 127.392V127.372ZM520.9 132.003C518.495 132.46 516.034 132.276 513.594 132.385C510.766 132.385 507.937 132.46 505.109 132.528C500.004 132.794 494.899 132.971 489.794 133.176C486.141 133.415 482.475 133.442 478.815 133.483C475.161 133.653 471.502 133.735 467.842 133.653C464.931 133.619 462.021 133.64 459.111 133.647C457.564 133.681 456.01 133.694 454.476 133.442C452.732 133.012 453.011 133.142 452.813 131.444C452.704 130.387 452.827 129.329 452.807 128.272C452.732 127.447 452.691 126.622 452.67 125.796C452.486 124.364 452.357 122.932 452.616 121.493C452.732 121.268 453.038 121.268 453.256 121.193C454.088 121.029 454.94 121.05 455.778 121.009C457.489 120.9 459.2 120.729 460.917 120.736C468.094 120.77 475.277 120.606 482.454 120.422C486.1 120.436 489.747 120.395 493.386 120.177C494.606 120.136 495.792 120.224 497.019 120.299C500.004 120.361 503.017 120.286 506.009 120.265C510.139 120.354 514.269 120.286 518.392 120.497C518.794 120.668 519.272 120.579 519.701 120.681C520.178 120.722 520.205 121.009 520.233 121.411C520.253 121.895 520.28 122.373 520.321 122.857C520.498 125.012 521.064 127.12 521.037 129.295C521.057 130.202 521.146 131.144 520.887 132.017L520.9 132.003Z" fill="black"/>
<path d="M520.334 122.837C520.294 122.359 520.266 121.875 520.246 121.391C520.219 120.988 520.191 120.695 519.714 120.661C519.285 120.559 518.808 120.647 518.406 120.477C514.282 120.259 510.145 120.334 506.022 120.245C503.03 120.266 500.024 120.341 497.032 120.279C495.805 120.204 494.62 120.122 493.4 120.156C489.76 120.375 486.114 120.416 482.467 120.402C475.291 120.586 468.107 120.75 460.93 120.716C459.213 120.709 457.502 120.879 455.791 120.988C454.946 121.029 454.101 121.009 453.27 121.173C453.052 121.248 452.745 121.248 452.629 121.473C452.377 122.919 452.5 124.344 452.684 125.776C452.704 126.602 452.745 127.427 452.82 128.252C452.84 129.309 452.718 130.366 452.827 131.423C453.024 133.122 452.738 132.999 454.49 133.422C456.016 133.674 457.577 133.661 459.124 133.626C462.034 133.626 464.945 133.599 467.855 133.633C471.515 133.715 475.168 133.633 478.828 133.463C482.488 133.422 486.148 133.395 489.808 133.156C494.913 132.951 500.024 132.781 505.122 132.508C507.951 132.44 510.779 132.365 513.608 132.365C516.041 132.256 518.508 132.44 520.914 131.983C521.173 131.103 521.084 130.162 521.064 129.261C521.091 127.093 520.518 124.985 520.348 122.823L520.334 122.837Z" fill="#FDC82E"/>
<path d="M463.997 161.134L462.825 146L395.61 146.6L394.67 161.666L463.997 161.134Z" fill="#FDC82E"/>
<path d="M522.502 127.372C522.304 125.981 521.848 124.637 521.643 123.246C521.364 120.756 521.575 119.324 518.488 119.57C515.843 119.099 513.165 119.058 510.473 119.024C508.053 119.003 505.64 118.956 503.221 118.997C501.088 118.997 498.961 119.099 496.828 119.044C494.899 118.901 492.95 118.956 491.028 119.106C487.45 119.406 483.851 119.16 480.266 119.29C473.09 119.474 465.913 119.365 458.743 119.638C457.598 119.72 456.453 119.863 455.308 119.917C454.183 120.027 452.479 119.863 451.689 120.79C451.13 121.595 451.239 122.666 451.13 123.6C451.089 125.224 451.273 126.854 451.212 128.484C451.075 129.984 450.987 131.498 451.375 132.971C451.45 133.387 451.593 133.803 451.9 134.11C454.367 135.993 459.22 135.215 462.26 135.406C466.649 135.406 471.031 135.236 475.42 135.147C478.317 135.099 481.22 135.188 484.117 135.092C487.818 135.031 491.512 134.704 495.206 134.499C498.116 134.295 501.033 134.295 503.943 134.063C507.487 133.872 511.032 133.653 514.589 133.728C516.975 133.647 519.496 134.015 521.773 133.169C522.843 132.344 522.591 130.659 522.597 129.452C522.563 128.77 522.577 128.074 522.502 127.392V127.372ZM520.9 132.003C518.495 132.46 516.034 132.276 513.594 132.385C510.766 132.385 507.937 132.46 505.109 132.528C500.004 132.794 494.899 132.971 489.794 133.176C486.141 133.415 482.475 133.442 478.815 133.483C475.161 133.653 471.502 133.735 467.842 133.653C464.931 133.619 462.021 133.64 459.111 133.647C457.564 133.681 456.01 133.694 454.476 133.442C452.732 133.012 453.011 133.142 452.813 131.444C452.704 130.387 452.827 129.329 452.807 128.272C452.732 127.447 452.691 126.622 452.67 125.796C452.486 124.364 452.357 122.932 452.616 121.493C452.732 121.268 453.038 121.268 453.256 121.193C454.088 121.029 454.94 121.05 455.778 121.009C457.489 120.9 459.2 120.729 460.917 120.736C468.094 120.77 475.277 120.606 482.454 120.422C486.1 120.436 489.747 120.395 493.386 120.177C494.606 120.136 495.792 120.224 497.019 120.299C500.004 120.361 503.017 120.286 506.009 120.265C510.139 120.354 514.269 120.286 518.392 120.497C518.794 120.668 519.272 120.579 519.701 120.681C520.178 120.722 520.205 121.009 520.233 121.411C520.253 121.895 520.28 122.373 520.321 122.857C520.498 125.012 521.064 127.12 521.037 129.295C521.057 130.202 521.146 131.144 520.887 132.017L520.9 132.003Z" fill="black"/>
<path d="M464.531 160.183C464.517 159.221 464.463 158.26 464.299 157.312C463.911 154.822 464.319 152.299 464.183 149.796C464.026 148.664 464.394 147.279 463.972 146.167C462.99 144.66 460.905 145.069 459.371 145.151C458.301 145.185 457.238 145.322 456.168 145.41C453.953 145.431 451.731 145.274 449.509 145.349C440.826 145.403 432.15 145.117 423.481 145.656C419.937 145.799 416.386 145.792 412.842 145.601C411.131 145.601 409.441 145.594 407.73 145.492C403.668 145.472 399.545 145.103 395.537 145.949C395.006 146.092 394.597 146.515 394.597 147.081C394.597 147.156 394.447 148.534 394.283 150.335C393.936 152.715 393.827 155.156 393.772 157.557C393.765 159.126 393.459 160.838 394.535 162.154C395.421 163 396.791 162.802 397.923 162.863C399.96 162.843 401.998 162.652 404.043 162.693C406.244 162.652 408.446 162.795 410.647 162.659C412.303 162.522 413.994 162.515 415.663 162.42C417.115 162.29 418.765 162.195 420.257 162.161C426.452 162.181 432.655 162.031 438.85 162.181C443.157 162.222 447.465 162.106 451.772 162.134C453.919 162.154 456.059 162.127 458.206 162.059C459.242 162.059 460.271 162.127 461.307 162.059C462.193 162.065 463.072 161.929 463.917 161.656C464.64 161.445 464.613 160.783 464.524 160.169L464.531 160.183ZM458.894 160.769C455.459 160.906 452.024 160.851 448.582 160.797C445.693 160.804 442.796 160.92 439.906 160.974C436.199 160.988 432.491 160.892 428.79 160.688C425.151 160.66 421.504 160.701 417.865 160.763C414.989 160.885 412.106 160.858 409.223 161.015C405.638 160.967 402.06 160.906 398.475 161.138C397.575 161.138 396.641 161.206 395.762 160.995C395.292 160.224 395.435 159.296 395.462 158.437C395.483 157.898 395.49 157.353 395.51 156.814C395.558 154.481 395.803 152.156 395.81 149.823C395.81 149.148 395.946 148.438 395.885 147.756C395.851 147.375 396.151 147.04 396.532 146.999C403.593 146.215 410.709 147.163 417.797 147.081C422.111 147.245 426.412 146.822 430.719 146.849C436.512 146.706 442.299 146.938 448.092 146.877C450.15 146.931 452.208 146.815 454.267 146.924C455.412 147.013 456.563 147.034 457.715 146.768C458.26 146.645 458.819 146.665 459.378 146.699C460.223 146.754 461.566 146.372 462.534 146.843C462.5 148.855 462.868 150.832 462.813 152.844C462.588 155.395 463.059 157.905 463.318 160.428C461.859 160.694 460.373 160.769 458.894 160.763V160.769Z" fill="black"/>
<path d="M560.499 96.4522C560.56 94.4402 560.192 92.4623 560.22 90.4504C559.374 90.0411 558.25 90.273 557.418 90.3071C556.342 90.3481 555.265 90.464 554.188 90.5527C553.445 90.614 552.702 90.5799 551.952 90.5254C549.894 90.4231 547.836 90.5254 545.778 90.4776C539.984 90.539 534.191 90.3071 528.405 90.4504C524.091 90.4299 519.79 90.8459 515.483 90.6822C508.129 90.7709 500.761 89.7479 493.441 90.6959C493.734 91.5621 493.496 92.5305 493.496 93.4308C493.489 95.7633 493.244 98.089 493.196 100.422C493.175 100.96 493.169 101.506 493.148 102.045C493.128 102.904 492.985 103.832 493.448 104.602C494.327 104.814 495.261 104.746 496.161 104.746C499.739 104.514 503.324 104.568 506.909 104.623C509.785 104.466 512.668 104.493 515.551 104.37C519.19 104.309 522.836 104.268 526.476 104.295C530.177 104.5 533.884 104.596 537.592 104.582C540.482 104.527 543.372 104.418 546.268 104.405C549.71 104.466 553.145 104.514 556.58 104.377C558.059 104.384 559.545 104.316 561.003 104.043C560.744 101.52 560.274 99.003 560.499 96.459V96.4522Z" fill="#BFC9E7"/>
<path d="M561.687 104.75L560.521 89.6094L493.307 90.2096L492.359 105.275L561.687 104.75Z" fill="#FDC82E"/>
<path d="M562.216 103.792C562.203 102.831 562.148 101.869 561.985 100.921C561.596 98.4316 562.005 95.9081 561.869 93.4051C561.712 92.2729 562.08 90.8884 561.657 89.7767C560.676 88.2694 558.59 88.6787 557.057 88.7605C555.987 88.7946 554.924 88.931 553.854 89.0196C551.639 89.0401 549.417 88.8832 547.195 88.9583C538.512 89.0128 529.836 88.7264 521.166 89.2652C517.622 89.4084 514.071 89.4016 510.527 89.2106C508.817 89.2106 507.126 89.2038 505.416 89.1015C501.354 89.081 497.23 88.7127 493.223 89.5585C492.691 89.7017 492.282 90.1245 492.282 90.6906C492.282 90.7656 492.132 92.1433 491.969 93.9439C491.621 96.3241 491.512 98.7658 491.458 101.167C491.451 102.735 491.144 104.447 492.221 105.763C493.107 106.609 494.477 106.411 495.608 106.473C497.646 106.452 499.684 106.261 501.729 106.302C503.93 106.261 506.131 106.404 508.333 106.268C509.989 106.132 511.679 106.125 513.349 106.029C514.801 105.9 516.45 105.804 517.943 105.77C524.138 105.791 530.34 105.641 536.535 105.791C540.843 105.832 545.15 105.716 549.458 105.743C551.605 105.763 553.745 105.736 555.892 105.668C556.927 105.668 557.957 105.736 558.993 105.668C559.879 105.675 560.758 105.538 561.603 105.265C562.325 105.054 562.298 104.393 562.209 103.779L562.216 103.792ZM556.58 104.379C553.145 104.515 549.71 104.461 546.268 104.406C543.378 104.413 540.482 104.529 537.592 104.583C533.884 104.597 530.177 104.502 526.476 104.297C522.836 104.27 519.19 104.311 515.55 104.372C512.674 104.495 509.791 104.468 506.908 104.624C503.323 104.577 499.745 104.515 496.16 104.747C495.261 104.747 494.327 104.815 493.448 104.604C492.977 103.833 493.121 102.906 493.148 102.046C493.168 101.508 493.175 100.962 493.196 100.423C493.243 98.0906 493.489 95.7649 493.495 93.4324C493.495 92.7571 493.632 92.0478 493.57 91.3658C493.536 90.9839 493.836 90.6497 494.218 90.6088C501.279 89.8244 508.394 90.7725 515.482 90.6906C519.796 90.8543 524.097 90.4315 528.405 90.4587C534.198 90.3155 539.984 90.5474 545.777 90.486C547.836 90.5406 549.894 90.4246 551.952 90.5337C553.097 90.6224 554.249 90.6429 555.401 90.3769C555.946 90.2541 556.505 90.2746 557.064 90.3087C557.909 90.3632 559.252 89.9813 560.219 90.4519C560.185 92.4639 560.553 94.4418 560.499 96.4537C560.274 99.0045 560.744 101.514 561.003 104.038C559.545 104.304 558.059 104.379 556.58 104.372V104.379Z" fill="black"/>
<path d="M385.416 179.297C385.416 179.297 385.424 179.328 385.431 179.343C385.431 179.343 385.424 179.312 385.416 179.297Z" fill="black"/>
<path d="M361.643 163.34C343.425 162.242 328.24 173.359 312.476 180.452C322.931 161.594 332.691 142.647 337.407 122.173C337.318 115.823 330.094 117.664 325.882 118.708C307.746 124.062 300.596 143.602 292.111 158.75C291.893 150.497 296.875 140.71 294.169 132.703C275.726 126.613 268.979 151.738 267.698 165.597C246.29 165.488 247.674 194.72 239.127 208.244C218.946 214.587 194.485 216.695 173.841 211.525C174.1 211.388 174.373 211.272 174.645 211.15C198.357 207.521 228.556 199.569 235.576 173.065C236.449 164.11 232.68 152.38 221.87 152.912C196.537 155.803 173.903 169.983 149.523 176.878C129.799 181.168 108.848 181.884 90.5146 191.453C64.418 204.793 49.5806 233.077 20.4647 240.484C0.87693 247.345 -67.7554 245.408 -84.6442 247.038C-85.0941 247.822 -112.908 370.975 -103.087 372.278C-22.6162 366.263 53.2951 329.931 133.446 320.71C231.262 317.689 236.333 279.734 263.37 255.181C265.96 252.828 269.136 248.729 272.285 246.424C273.804 245.312 279.189 244.433 280.831 243.314C284.45 240.845 285.132 241.534 289.419 239.017C307.344 228.514 317.008 219.129 330.912 210.515C347.371 201.09 421.108 168.455 361.643 163.347V163.34Z" fill="white"/>
<path d="M225.939 162.056C231.637 170.636 213.91 187.714 205.949 188.253C205.281 180.791 204.048 170.84 197.805 165.446C207.292 160.303 219.573 156.136 225.946 162.056H225.939Z" fill="#E1CBF1"/>
<path d="M294.905 135.789C295.586 138.974 294.884 147.547 292.294 149.811C290.325 149.982 288.232 152.001 286.372 151.114C285.445 145.842 290.052 137.706 294.905 135.796V135.789Z" fill="#E1CBF1"/>
<path d="M323.571 138.279C323.844 124.359 338.116 121.051 337.121 121.242C336.773 127.196 335.355 131.8 332.384 138.034C323.428 136.594 323.483 143.06 323.571 138.272V138.279Z" fill="#E1CBF1"/>
<path d="M371.772 176.828C359.967 180.415 354.835 184.889 364.431 191.498C370.647 190.993 393.725 170.246 371.772 176.828Z" fill="#E1CBF1"/>
<path d="M116.814 234.445C116.814 234.445 116.836 234.467 116.844 234.474C116.836 234.467 116.822 234.453 116.814 234.445Z" fill="black"/>
<path d="M254.452 203.242C254.452 203.242 254.437 203.242 254.429 203.242C254.429 203.242 254.429 203.242 254.422 203.242C254.422 203.242 254.422 203.242 254.414 203.242C254.429 203.242 254.445 203.234 254.46 203.227L254.452 203.242Z" fill="black"/>
<path d="M287.801 145.453L287.814 145.467C287.801 145.658 287.787 145.856 287.773 146.048C287.78 145.849 287.787 145.651 287.801 145.453Z" fill="black"/>
<path d="M294.988 135.352C294.988 135.352 294.974 135.352 294.959 135.359C294.966 135.359 294.974 135.359 294.988 135.352Z" fill="black"/>
<path d="M226.502 164.031C226.502 164.031 226.509 164.052 226.516 164.059C226.42 164.072 226.317 164.079 226.221 164.093C226.221 164.093 226.214 164.093 226.207 164.093C226.303 164.072 226.399 164.052 226.502 164.031Z" fill="black"/>
<path d="M200.123 166.533C200.178 166.499 200.239 166.472 200.294 166.438C200.253 166.485 200.219 166.526 200.178 166.574C200.157 166.561 200.144 166.547 200.123 166.533Z" fill="black"/>
<path d="M227.328 162.038C226.789 160.545 223.736 158.321 217.105 158.621C211.782 158.819 206.554 160.156 201.736 162.284C199.493 163.32 197.074 164.193 195.172 165.762C191.696 169.159 191.369 174.383 192.112 178.836C192.494 181.012 193.189 183.147 194.15 185.159C195.145 187.403 196.978 189.517 199.616 189.981C200.427 190.117 201.245 190.179 202.056 190.179C211.005 190.179 219.619 182.363 224.404 175.911C227.226 171.962 229.107 166.717 227.335 162.045L227.328 162.038ZM196.685 186.352C195.281 184.252 194.429 181.844 193.87 179.423C193.039 175.229 193.025 170.018 196.413 166.765C196.638 166.587 196.883 166.424 197.128 166.267C197.258 166.369 197.401 166.458 197.517 166.567C202.213 170.714 206.731 181.462 204.564 187.942C204.523 188.085 204.482 188.242 204.441 188.405C203.848 188.508 203.255 188.596 202.649 188.644C200.277 188.78 198.089 188.296 196.678 186.346L196.685 186.352ZM226.06 168.599C225.208 172.541 222.673 175.87 219.913 178.836C216.225 182.71 211.632 186.482 206.268 188.003C208.497 179.157 203.692 169.731 198.525 165.482C199.098 165.196 199.684 164.923 200.263 164.644C205.75 162.025 211.891 160.149 218.1 160.149C218.393 160.149 222.659 160.04 225.092 161.69C226.783 162.836 226.503 166.833 226.053 168.606L226.06 168.599Z" fill="black"/>
<path d="M385.44 171.12C385.147 170.322 384.213 169.421 383.879 169.237C377.998 165.125 370.834 163.065 363.78 162.178C345.726 160.5 330.139 170.54 314.477 178.329C316.351 175.716 318.028 172.961 319.534 170.124C324.427 160.494 328.524 150.454 332.62 140.462C334.555 134.952 340.798 122.818 337.207 117.662C336.518 116.837 334.337 116.871 332.708 116.919C326.929 117.083 322.935 118.215 318.11 121.243C315.131 122.982 312.337 125.056 309.904 127.511C302.993 134.802 298.992 144.186 294.146 152.855C293.935 153.23 293.703 153.598 293.485 153.967C294.146 150.857 294.787 147.747 295.271 144.602C295.639 142.058 296.143 139.508 296.02 136.93C295.932 134.126 295.168 131.33 291.917 131.064C290.077 130.873 288.183 131.016 286.404 131.542C281.497 132.96 277.128 136.179 274.299 140.435C272.193 143.825 270.83 147.617 269.597 151.395C268.588 154.471 267.709 157.8 267.293 161.046C267.164 161.967 266.945 164.258 266.911 164.483C263.872 163.324 257.206 168.037 255.468 169.79C251.57 173.316 248.659 177.913 247.133 182.939C246.887 183.771 246.669 184.603 246.458 185.449C246.165 186.533 245.885 187.618 245.558 188.688C245.197 189.855 244.809 191.014 244.386 192.167C242.655 196.818 240.787 201.422 239.397 206.189C239.227 206.789 239.056 207.396 238.92 208.003C237.489 208.406 236.057 208.801 234.619 209.183C222.883 212.3 210.663 212.389 198.613 213.255C191.702 214.053 184.648 213.603 177.942 211.734C185.241 210.145 192.649 208.986 199.744 206.571C206.485 204.375 212.919 201.245 218.869 197.391C220.838 196.075 222.665 194.554 224.376 192.917C227.129 190.291 229.665 187.399 231.621 184.119C234.013 180.211 235.942 175.907 236.221 171.276C236.637 165.745 236.051 159.396 231.648 155.494C225.834 150.031 217.226 151.859 210.268 153.707C195.982 157.506 182.528 163.747 168.638 168.692C167.664 169.026 166.689 169.36 165.715 169.708C164.242 170.287 162.068 171.365 160.589 171.931C153.297 174.727 145.493 176.555 137.771 177.824C90.8528 184.126 81.0521 192.828 48.1536 224.822C41.8697 230.244 34.5294 234.364 26.7937 237.331C16.1683 241.204 4.9091 242.971 -6.35015 243.796C-10.3304 244.028 -14.3175 244.117 -18.3046 244.164C-19.1633 244.178 -24.4522 244.28 -25.9107 244.321C-28.1462 244.383 -30.3817 244.451 -32.6172 244.512C-35.1525 244.587 -37.6879 244.662 -40.2233 244.731C-42.7178 244.799 -45.2122 244.874 -47.7067 244.949C-50.1126 245.017 -52.5185 245.085 -54.9244 245.16C-57.3848 245.228 -59.8384 245.303 -62.2988 245.372C-64.7864 245.44 -67.2741 245.515 -69.7618 245.59C-72.2767 245.665 -74.7984 245.733 -77.3134 245.808C-79.4875 245.869 -81.6548 245.931 -83.829 245.999C-84.2447 246.013 -84.5855 246.347 -84.5855 246.763C-84.5855 247.165 -84.2447 247.52 -83.8426 247.52C-83.8358 247.52 -83.829 247.52 -83.8222 247.52C-82.8135 247.486 -81.8048 247.465 -80.8029 247.431C-78.2198 247.356 -75.6367 247.281 -73.0468 247.206C-70.6069 247.138 -68.1737 247.063 -65.7338 246.995C-63.2393 246.927 -60.738 246.852 -58.2435 246.777C-55.8445 246.708 -53.4454 246.64 -51.0463 246.572C-48.6132 246.497 -46.1801 246.429 -43.7469 246.361C-41.1298 246.286 -38.5194 246.211 -35.9023 246.135C-33.5577 246.067 -31.2132 245.999 -28.8686 245.931C-26.8785 245.876 -19.1565 245.794 -17.9842 245.706C-17.6503 245.692 -17.3095 245.651 -17.0164 245.672C-13.3906 245.617 -9.76472 245.528 -6.13886 245.31C4.87502 244.512 15.9298 242.759 26.378 239.111C42.265 233.579 51.7317 224.031 63.2568 212.478C77.2559 198.489 93.8585 187.72 113.467 183.662C129.729 179.843 146.801 179.331 162.389 172.859C163.779 172.306 165.128 171.57 166.519 171.038C167.657 170.635 168.802 170.233 169.94 169.844C185.793 164.231 201.114 156.674 217.765 153.632C220.702 153.278 223.926 153.189 226.761 154.239C229.685 155.351 232.132 157.65 233.42 160.5C235.117 164.777 235.117 169.974 234.204 174.468C233.222 178.54 231.164 182.182 228.772 185.681C225.95 189.486 222.549 192.89 218.698 195.659C208.55 202.581 196.759 206.592 184.737 208.781C181.492 209.449 178.221 210.084 174.99 210.847C174.779 210.82 174.595 210.854 174.466 210.97C170.928 211.823 167.446 212.846 164.092 214.285C158.899 216.542 153.971 219.346 148.771 221.596C141.39 224.809 133.518 227.162 125.932 229.917C122.961 230.974 120.003 232.058 117.093 233.273C117.031 233.361 116.943 233.436 116.861 233.504C116.82 233.545 116.772 233.586 116.725 233.627C116.697 233.675 116.663 233.723 116.636 233.77C116.615 233.811 116.595 233.852 116.581 233.9C116.581 233.907 116.581 233.92 116.575 233.927C116.575 233.989 116.581 234.057 116.595 234.118C116.602 234.166 116.615 234.22 116.629 234.268C116.643 234.282 116.656 234.302 116.663 234.316C116.704 234.357 116.745 234.398 116.786 234.439C116.847 234.493 116.909 234.541 116.977 234.589C117.045 234.63 117.113 234.671 117.181 234.712C117.181 234.712 117.188 234.712 117.195 234.712C117.297 234.732 117.392 234.739 117.495 234.752C127.711 230.476 138.466 227.605 148.676 223.288C155.955 220.259 162.641 215.929 170.233 213.664C171.842 213.194 173.471 212.771 175.099 212.389C176.251 213.044 178.085 213.262 179.434 213.685C183.394 214.558 187.442 215.192 191.504 215.192C191.852 215.192 192.2 215.192 192.554 215.178C196.207 215.056 199.847 214.64 203.493 214.414C209.654 213.992 215.863 213.998 221.99 213.091C231.661 211.809 241.142 209.34 250.336 206.107C250.356 206.107 250.37 206.101 250.391 206.094C251.706 205.766 252.987 205.309 254.248 204.812C270.81 199.383 286.942 192.808 302.734 185.442C315.179 180.218 326.752 173.207 339.156 167.9C350.954 163.194 363.262 161.755 375.305 166.516C377.943 167.43 380.437 168.712 382.734 170.301C384.486 171.474 383.763 173.077 383.552 173.609C383.266 174.298 382.857 174.925 382.414 175.532C381.855 175.355 380.819 175.253 379.033 174.925C371.775 173.95 361.852 178.11 358.376 184.74C357.101 187.181 356.351 189.868 356.086 192.603C356.072 192.924 355.997 193.313 356.017 193.66C355.888 194.595 355.874 195.632 356.052 196.361C354.136 197.412 352.214 198.448 350.292 199.485C345.978 201.831 341.684 204.225 337.404 206.626C332.313 209.47 327.208 212.314 322.424 215.649C318.43 218.391 314.6 221.351 310.715 224.242C300.784 231.554 290.459 238.64 278.893 243.107C267.62 247.615 255.55 250.043 244.059 253.924C236.664 256.4 229.419 259.353 222.392 262.75C221.206 263.329 220.027 263.916 218.862 264.53C218.494 264.7 218.317 265.178 218.501 265.546C218.623 265.812 218.91 265.982 219.203 265.982C219.496 265.982 219.707 265.791 219.952 265.675C221.193 265.034 222.454 264.414 223.708 263.8C227.743 261.836 231.893 260.117 236.057 258.446C246.703 254.102 257.99 251.564 268.97 248.168C268.779 248.345 268.581 248.529 268.39 248.707C268.22 248.911 267.3 249.812 266.482 250.603C265.862 251.21 265.276 251.776 265.03 252.035C261.336 256.154 257.656 260.417 254.098 264.537C247.317 272.38 240.304 280.496 232.909 288.019C224.88 296.469 216.947 302.423 208.645 306.222C194.047 313.144 177.751 315.463 163.622 317.1C160.855 317.421 158.081 317.735 155.307 318.048C133.879 320.476 111.722 322.993 90.3076 327.515C73.0779 331.116 55.9165 336.136 39.3207 340.992C27.7343 344.381 15.7594 347.88 3.85268 350.874C-25.8698 358.506 -55.8376 364.903 -85.2194 369.882C-85.9418 370.005 -86.6643 370.135 -87.3799 370.257C-90.2833 370.769 -93.2889 371.294 -96.2537 371.696C-97.5009 371.853 -98.5096 371.915 -99.4297 371.901C-99.4502 371.901 -99.4638 371.901 -99.4842 371.901C-99.9 371.901 -100.241 372.065 -100.411 372.337C-100.541 372.549 -100.547 372.788 -100.432 372.999C-100.248 373.333 -99.7909 373.524 -99.1775 373.531C-95.9265 373.435 -92.6755 372.849 -89.5336 372.283C-88.3204 372.065 -87.0664 371.84 -85.8328 371.642C-54.6381 366.363 -23.1709 359.604 7.68983 351.556C18.6015 348.739 29.5949 345.527 40.2271 342.424C52.0861 338.959 64.3541 335.379 76.547 332.33C93.9539 327.958 112.881 324.678 137.914 321.69C142.508 321.124 147.21 320.599 151.756 320.094C160.501 319.126 169.538 318.116 178.323 316.739C188.867 315.054 197.816 312.619 205.688 309.298C211.453 306.904 216.183 304.319 220.164 301.386C224.526 298.283 228.574 294.812 232.2 291.074C237.646 285.591 243.255 279.507 250.384 271.343C252.578 268.84 254.787 266.269 256.927 263.779C260.075 260.11 263.333 256.318 266.618 252.656C266.945 252.287 270.994 248.434 272.2 247.438C272.275 247.377 272.371 247.302 272.466 247.227C272.595 247.131 272.732 247.029 272.861 246.913C275.274 246.108 277.666 245.249 280.031 244.301C294.61 238.565 307.075 228.826 319.541 219.557C329.089 212.491 339.735 207.137 350.061 201.347C360.127 195.891 370.521 190.578 378.584 182.25C380.581 180.231 382.509 178.117 384.104 175.764C384.629 174.952 386.033 172.763 385.433 171.126L385.44 171.12ZM329.969 142.856C329.914 142.829 329.866 142.795 329.805 142.775C329.328 142.645 328.864 142.474 328.421 142.256C326.956 141.54 325.804 140.51 325.055 139.289C327.236 138.914 329.41 138.437 331.672 138.676C331.107 140.067 330.534 141.458 329.969 142.85V142.856ZM332.245 137.23C331.986 137.148 331.693 137.127 331.448 137.127C330.807 137.032 326.343 137.196 324.428 137.959C323.848 136.268 323.971 134.352 324.993 132.469C326.602 129.359 328.755 126.447 331.734 124.524C333.001 123.664 334.365 122.941 335.809 122.423C336.048 122.3 336.402 122.246 336.75 122.184C336.668 126.952 333.71 133.253 332.238 137.237L332.245 137.23ZM294.514 138.553C294.221 142.004 293.655 145.407 292.988 148.797C291.045 148.988 289.184 149.799 287.596 150.911C287.447 151.034 287.222 151.198 286.983 151.389C286.99 151.116 286.997 150.843 287.01 150.577C287.235 147.14 288.114 143.682 290.03 140.783C290.854 139.603 291.802 138.498 292.872 137.53C293.369 137.093 293.894 136.725 294.466 136.377C294.521 137.161 294.501 137.939 294.501 138.56L294.514 138.553ZM292.674 150.365C292.395 151.743 292.102 153.121 291.815 154.505C291.658 155.242 291.488 155.972 291.325 156.708C289.811 156.436 288.223 155.822 287.283 154.546C287.065 154.212 287.058 153.789 287.031 153.394C287.215 153.223 287.392 153.032 287.556 152.889C288.578 151.989 289.764 151.273 291.045 150.809C291.577 150.631 292.129 150.468 292.681 150.372L292.674 150.365ZM252.081 204C251.992 204.034 251.897 204.068 251.808 204.109C251.733 204.136 251.651 204.164 251.576 204.191C251.529 204.205 251.481 204.218 251.433 204.232C248.053 205.33 244.659 206.373 241.244 207.356C241.23 207.356 241.224 207.362 241.217 207.362C241.087 207.403 240.965 207.444 240.835 207.478C240.76 207.499 240.678 207.519 240.603 207.54C240.61 207.506 240.617 207.471 240.631 207.444C241.23 205.228 241.973 203.052 242.75 200.897C244.42 196.177 246.458 191.573 247.705 186.711C247.957 185.735 248.244 184.774 248.482 183.798C248.557 183.526 248.632 183.253 248.721 182.98C250.179 178.492 252.756 174.359 256.225 171.16C258.842 168.685 262.004 166.598 265.589 165.813C266.053 165.752 266.414 165.813 266.639 166.113C265.78 171.01 263.872 175.635 261.759 180.109C258.358 186.888 255.325 193.865 252.892 201.054C252.571 202.022 252.278 202.997 252.081 203.993V204ZM255.318 202.731C254.814 202.936 254.303 203.134 253.791 203.332C253.914 202.868 254.05 202.397 254.2 201.927C256.129 196.239 258.399 190.632 260.968 185.197C263.313 180.429 265.794 175.45 267.252 170.281C267.804 168.269 268.186 166.216 268.513 164.156C268.554 163.726 268.963 160.193 269.181 158.979C269.903 155.099 271.212 151.177 272.595 147.453C273.468 145.25 274.361 143.204 275.649 141.158C277.591 138.28 280.372 135.879 283.487 134.297C285.32 133.424 287.344 132.653 289.403 132.537C290.609 132.469 291.897 132.408 293.028 132.899C293.71 133.322 294.078 134.065 294.282 134.924C293.042 135.225 291.113 137.066 290.568 137.714C287.133 141.315 285.634 146.335 285.477 151.232C285.484 152.521 285.361 153.912 285.872 155.126C286.908 156.865 288.898 157.779 290.847 158.168C288.142 162.246 285.211 166.209 282.533 170.308C279.05 175.566 275.635 180.872 271.716 185.831C268.349 190.264 264.758 194.533 260.948 198.591C260.532 199.164 258.78 200.651 258.269 201.606C257.274 201.947 256.293 202.329 255.318 202.738V202.731ZM311.492 179.774C310.51 180.238 309.529 180.695 308.547 181.132C292.865 188.423 276.957 195.297 260.668 201.074C262.631 199.001 264.574 196.921 266.427 194.752C272.241 188.013 277.516 180.825 282.314 173.336C285.804 168.016 289.539 162.867 293.056 157.568C299.599 147.46 303.504 135.409 312.555 127.088C314.756 125.124 317.21 123.48 319.773 122.027C322.015 120.752 324.305 119.429 326.874 118.938C328.817 118.522 331.011 118.222 332.988 118.324C337.377 118.556 336.505 119.19 336.675 120.663C334.957 120.772 331.979 122.546 331.141 123.091C327.167 125.615 323.037 130.914 322.519 135.675C322.369 139.712 325.641 143.225 329.403 144.234C325.654 153.414 321.831 162.581 317.121 171.31C315.479 174.23 313.632 177.039 311.546 179.665C311.519 179.699 311.505 179.734 311.485 179.761L311.492 179.774ZM357.824 195.372C357.878 194.54 357.878 193.708 357.912 192.876C358.083 191.253 358.403 189.637 358.934 188.088C358.969 187.972 359.009 187.863 359.05 187.754C359.268 187.856 359.493 187.959 359.684 188.109C359.698 188.122 359.718 188.129 359.732 188.143C360.127 188.416 360.495 188.729 360.843 189.064C361.511 189.732 362.097 190.475 362.581 191.301C362.744 191.573 362.888 191.86 363.017 192.153C363.037 192.215 363.058 192.269 363.078 192.324C361.354 193.374 359.602 194.39 357.83 195.379L357.824 195.372ZM376.968 181.705C373.261 185.435 369.096 188.518 364.714 191.294C364.605 191.048 364.496 190.803 364.366 190.564C364.087 190.039 363.746 189.561 363.358 189.132C362.697 188.238 361.913 187.44 361.02 186.779C360.659 186.554 360.229 186.22 359.78 186.015C361.368 182.905 364.142 180.538 367.324 179.051C369.901 177.797 372.675 176.814 375.551 176.644C376.825 176.562 378.113 176.583 379.374 176.842C380.09 176.958 380.642 177.108 381.092 177.23C379.804 178.792 378.427 180.279 376.982 181.698L376.968 181.705Z" fill="black"/>
<path d="M394.144 25.6591C394.662 32.2611 389.72 33.0864 384.37 33.0386C385.87 37.0626 381.814 36.0532 379.293 37.3149C378.638 37.8946 377.384 38.1606 377.35 36.9466C377.18 27.3233 372.941 31.4563 371.809 24.4587C371.38 19.8551 376.812 19.2208 379.013 22.6855C378.454 13.4713 383.784 9.7952 387.867 10.791C391.124 14.8285 395.043 17.7749 394.151 25.6591H394.144Z" fill="white"/>
<path d="M368.875 83.3047C370.783 87.7924 366.421 93.5487 367.369 98.5071C367.116 101.065 369.884 113.423 365.699 112.311C365.924 113.955 365.181 117.413 363.354 114.801C362.039 115.442 360.942 113.784 360.471 112.755C359.422 112.782 358.979 111.575 358.57 110.797C356.845 110.408 357.656 106.814 357.99 105.6C359.36 97.8523 359.572 89.8999 360.948 82.1657C360.655 81.395 361.528 80.6925 362.25 81.0199C364.268 82.3362 366.742 82.3362 368.888 83.3115L368.875 83.3047Z" fill="white"/>
<path d="M424.68 86.9387C425.866 89.5645 425.879 95.1435 422.853 90.3216C422.771 91.2014 421.831 93.1179 420.734 92.4222C420.236 91.9107 421.115 90.6217 420.788 90.117C418.832 91.0854 418.975 84.8244 417.264 87.8322C419.043 90.3488 419.309 92.0675 418.743 92.2858C417.912 92.1903 413.366 88.7188 408.295 85.9839C403.94 82.7784 400.232 79.1841 400.232 79.1841L406.837 71.75C411.826 79.6956 420.352 81.5371 424.687 86.9523L424.68 86.9387Z" fill="white"/>
<path d="M368.186 171.132C364.539 171.132 362.399 170.211 363.415 166.105C363.496 165.764 366.1 166.105 366.1 166.105C366.1 166.105 370.142 171.091 368.186 171.132Z" fill="white"/>
<path d="M401.855 146.023C399.899 144.556 395.68 144.85 395.394 141.848C395.278 141.078 394.473 139.332 395.837 139.345C397.132 139.25 398.536 139.891 398.502 141.494C399.77 142.305 405.713 145.464 401.855 146.023Z" fill="white"/>
<path d="M375.867 39.8504C378.314 39.3116 382.022 41.0508 384.421 39.9937C384.884 39.2162 385.327 36.3858 383.385 36.5972C380.972 37.286 377.353 36.9314 375.874 39.8573L375.867 39.8504Z" fill="#6F479F"/>
<path d="M406.202 67.8012C404.887 66.2803 402.89 63.1361 400.621 64.3501C399.516 63.2794 395.25 57.6322 395.25 57.6322C395.25 57.6322 392.974 45.6353 389.6 41.6182C388.584 39.8177 387.058 43.0437 386.008 43.6711C381.912 46.672 369.637 42.689 369.637 42.689C369.637 42.689 368.199 44.3736 367.497 46.0923C364.58 53.3491 358.869 79.0341 361.397 80.6983C373.113 86.5432 371.164 81.8577 374.722 80.9233C376.644 80.4186 381.169 81.469 391.188 85.3565C393.825 74.942 391.188 72.9232 397.724 77.9906C400.396 81.5508 409.856 70.1473 406.202 67.8012Z" fill="#6F479F"/>
<path d="M388.734 38.7194C387.814 37.901 384.086 34.9342 384.843 38.2283C386.247 44.312 370.844 37.4986 365.63 39.9675C358.507 36.9052 347.03 30.3168 341.871 35.9163C340.521 37.3826 343.813 36.7074 344.836 36.4346C351.958 38.7876 358.351 41.4475 366.182 40.5541C371.982 45.1373 389.702 47.5789 388.727 38.7126L388.734 38.7194Z" fill="#FDC82E"/>
<path d="M388.593 22.4858C385.335 22.8542 383.951 15.0782 387.196 15.0237C390.393 14.9759 391.654 22.138 388.593 22.4858Z" fill="#E1CBF1"/>
<path d="M394.753 19.0684C392.456 19.123 389.089 11.5653 393.247 12.7317C394.331 13.407 397.193 19.0207 394.753 19.0684Z" fill="#E1CBF1"/>
<path d="M417.142 102.758C416.372 108.821 408.738 131.076 400.696 139.833C398.617 139.833 395.107 139.055 392.81 136.886C391.461 126.595 401.589 116.18 400.348 105.507C391.802 104.579 382.655 103.433 382.655 103.433C382.655 103.433 380.713 108.398 379.609 113.895C376.883 127.543 376.944 143.448 371.478 157.231C363.061 175.83 358.119 161.378 361.813 148.522C363.558 137.507 360.416 124.637 361.316 114.318C363.231 115.43 366.639 117.401 365.944 112.436C368.152 112.34 368.179 107.252 367.579 103.467C366.271 97.1108 367.518 89.9222 369.563 84.1318C370.081 82.6723 371.239 84.5274 371.519 80.6058C376.971 78.7848 384.795 84.0568 390.827 85.1208C398.167 84.8821 416.617 97.861 417.135 102.758H417.142Z" fill="#3F3D56"/>
<path d="M370.248 83.3583C370.248 83.3583 370.201 83.3786 370.181 83.3854C370.161 83.3854 370.14 83.3921 370.12 83.3989C370.12 83.3989 370.106 83.3989 370.1 83.3989C370.147 83.3921 370.201 83.3786 370.255 83.3516L370.248 83.3583Z" fill="black"/>
<path d="M370.221 83.3583C370.221 83.3583 370.194 83.3651 370.181 83.3719C370.161 83.3719 370.14 83.3854 370.12 83.3854C370.12 83.3854 370.106 83.3854 370.1 83.3854C370.14 83.3854 370.181 83.3651 370.221 83.3516V83.3583Z" fill="black"/>
<path d="M416.911 80.7754C416.911 80.7754 416.917 80.7754 416.924 80.7823C416.631 80.5777 416.338 80.3662 416.052 80.148L416.065 80.1616C416.004 80.1139 415.943 80.0729 415.881 80.0252C412.794 77.5222 409.891 74.8009 407.294 71.8C407.226 71.7181 407.219 71.6022 407.273 71.5067C408.2 69.9312 407.444 68.424 406.142 67.3054C406.142 67.3054 406.135 67.3054 406.128 67.2986C404.929 66.1187 402.932 63.1315 401.146 63.5611C401.092 63.5748 401.024 63.5679 400.976 63.5475C398.454 62.2653 397.084 59.469 395.271 57.3683C395.237 57.3274 395.217 57.2865 395.217 57.2319C394.999 54.5584 394.556 51.8985 393.772 49.3341C393.772 49.3341 393.772 49.3204 393.772 49.3136C392.62 46.2786 391.237 43.2709 389.301 40.6451C389.26 40.5905 389.246 40.5223 389.26 40.4541C389.744 38.0602 386.691 37.4191 385.389 36.1915C385.355 36.1642 385.28 36.0482 385.225 35.9868C385.198 35.9527 385.184 35.9186 385.178 35.8777C385.143 35.6731 385.123 35.4617 385.082 35.2571C385.007 34.6978 384.953 34.159 384.891 33.6066C384.871 33.4429 385.021 33.3065 385.178 33.3406C392.954 34.7319 396.287 30.8307 394.358 22.9533C394.045 21.828 395.367 20.9141 394.842 19.8774C394.781 19.7478 394.842 19.591 394.978 19.5432C398.284 18.4793 392.75 7.56685 390.453 13.3572C390.419 13.3027 390.391 13.2481 390.351 13.1936C390.351 13.1936 390.351 13.2004 390.357 13.2072C390.201 12.9207 389.846 12.7434 389.723 12.4433C389.717 12.4229 389.703 12.3956 389.689 12.3819C389.294 11.9045 388.878 11.4408 388.442 10.9974C388.36 10.9156 388.354 10.786 388.415 10.6905C390.541 7.58731 389.083 4.18401 386.622 2.81314C385.689 2.4653 385.43 1.44226 384.85 0.732956C382.642 -2.49984 378.975 -0.481051 376.324 0.944382C376.311 0.951202 376.297 0.958022 376.276 0.964842C375.07 1.36724 373.973 0.507885 372.882 0.112311C368.541 -1.80418 365.058 2.19249 362.645 5.29571C362.325 5.65718 361.937 5.95045 361.466 6.09368C361.453 6.09368 361.439 6.10049 361.425 6.10049C355.448 6.92574 356.075 11.6385 356.798 16.3036C356.798 16.3377 356.798 16.365 356.798 16.3991C354.426 25.5587 364.663 33.2519 373.134 32.8359C373.162 32.8359 373.196 32.8359 373.223 32.8427C373.707 32.9996 374.314 33.286 374.702 33.3269C379.609 33.4224 375.609 30.5784 375.602 30.5716C377.244 32.4471 376.379 35.5231 377.306 37.6646C377.346 37.7601 377.326 37.8829 377.244 37.9511C376.256 38.7831 374.634 39.1924 373.407 39.1173C370.797 38.9332 368.159 39.1651 365.617 39.7653C365.556 39.7789 365.494 39.7653 365.44 39.738C363.341 38.5171 361.262 37.2554 359.06 36.2187C359.067 36.2187 359.074 36.2256 359.088 36.2324C359.088 36.2324 359.095 36.2324 359.101 36.2324C354.146 33.8521 349.28 32.7609 343.821 33.8657C343.371 33.7293 342.028 35.107 341.299 36.1778C341.286 36.1914 341.279 36.2051 341.265 36.2187C340.454 37.2213 340.604 37.7942 340.611 37.842C340.788 39.0491 341.674 44.6486 342.819 44.4235C344.475 44.0006 345.423 42.1251 346.554 40.9452C347.236 40.1813 347.038 38.9946 347.004 37.9988C347.004 37.8283 347.167 37.6987 347.331 37.7533C353.22 39.7653 359.17 42.6707 365.494 40.8224C365.556 40.8019 365.624 40.8088 365.685 40.8429C366.673 41.4021 367.655 41.975 368.677 42.4593C368.813 42.5275 368.861 42.6911 368.773 42.8139C363.082 50.9505 362.393 63.6702 360.942 73.5596C360.43 76.6151 360.076 78.9544 360.417 79.9775C360.519 80.3935 360.71 80.6527 360.826 80.7823C360.88 80.8368 360.894 80.9118 360.88 80.9937C359.66 86.9 358.911 98.74 358.917 98.7332C359.054 101.338 355.878 110.103 358.488 111.057C358.577 111.091 358.638 111.166 358.645 111.255C358.733 112.196 359.244 113.049 360.328 113.308C360.437 113.335 360.512 113.424 360.526 113.533C361.337 124.391 361.16 135.146 360.88 145.998C360.88 146.004 360.88 146.011 360.88 146.018C361.228 150.281 358.086 164.671 362.87 166.288C362.993 166.329 363.054 166.465 363.02 166.588C362.741 167.474 362.38 168.879 362.68 169.698C362.693 169.725 362.707 169.752 362.727 169.78C363.797 171.096 365.74 171.635 367.341 171.969C368.527 172.119 370.081 171.164 369.584 169.855C369.577 169.827 369.556 169.8 369.543 169.78C368.739 168.757 367.437 168.177 366.932 166.881C366.769 166.602 366.38 166.533 366.108 166.683C366.08 166.697 366.053 166.724 366.033 166.752C365.269 167.727 366.912 169.268 367.859 170.08C368.016 170.209 367.955 170.469 367.757 170.51C366.571 170.755 365.174 169.909 364.124 169.425C364.104 169.411 364.083 169.398 364.063 169.384C363.381 168.784 363.913 167.652 363.64 166.827C363.586 166.656 363.722 166.486 363.906 166.513C370.006 167.311 371.553 159.583 372.528 154.932C374.273 146.284 377.544 137.793 377.531 128.885C377.531 128.885 377.531 128.879 377.531 128.872C377.98 120.435 381.92 112.558 382.663 104.176C382.676 104.026 382.819 103.923 382.969 103.964C388.319 105.397 393.888 105.376 399.333 106.249C399.463 106.27 399.551 106.385 399.538 106.515C398.72 115.129 394.31 123.02 392.545 131.484C392.545 131.484 392.545 131.498 392.545 131.504C391.734 134.117 390.95 137.786 393.949 139.177C394.031 139.211 394.085 139.286 394.092 139.375C394.324 141.844 393.724 144.354 396.846 145.09C396.853 145.09 396.859 145.09 396.866 145.09C398.7 145.725 404.322 148.35 403.777 144.518C403.77 144.463 403.743 144.415 403.709 144.374C402.468 143.113 400.492 142.635 399.074 141.523C399.027 141.489 398.993 141.435 398.979 141.373C398.938 141.148 398.924 140.923 398.918 140.691C398.918 140.541 399.047 140.425 399.19 140.446C400.349 140.61 401.576 140.064 401.971 138.925C401.978 138.904 401.991 138.884 402.005 138.864C409.039 129.724 419.194 113.165 417.722 101.379C417.722 101.352 417.708 101.325 417.701 101.304C414.907 95.1116 398.761 86.3135 391.898 84.2265C391.755 84.1856 391.686 84.0355 391.741 83.8991C392.463 82.194 393.383 77.6381 393.69 76.1513C393.731 75.9603 393.963 75.8921 394.099 76.0285C395.68 77.5904 397.316 80.2503 399.81 79.3773C399.899 79.3432 399.994 79.3636 400.063 79.4318C403.389 82.6851 406.899 85.802 410.961 88.1004C410.961 88.1004 410.974 88.1004 410.981 88.1072C412.501 88.8574 414.28 89.2666 415.384 90.6784C416.161 91.6401 419.119 94.2318 419.378 91.7424C419.378 91.7219 419.378 91.7015 419.378 91.681C419.221 90.1465 417.558 89.0893 417.756 87.4797C417.769 87.357 417.885 87.2683 418.008 87.2683C418.069 87.2683 418.124 87.282 418.185 87.2888C418.226 87.2956 418.267 87.3161 418.301 87.3433C419.242 88.1481 418.792 90.8012 420.216 90.542C420.393 90.5079 420.543 90.658 420.502 90.8285C419.882 93.5975 421.886 93.3656 422.799 91.2513C422.888 91.0536 423.167 91.0536 423.249 91.2513C423.467 91.797 423.685 92.3903 424.128 92.7518C424.149 92.7723 424.176 92.7859 424.203 92.7927C425.028 93.1337 425.58 92.022 425.532 91.2854C426.152 84.4857 421.525 83.9332 416.938 80.7618L416.911 80.7754ZM363.095 40.2086C360.09 40.611 357.05 40.3109 354.194 39.281C352.34 38.6536 350.48 37.992 348.612 37.3645C346.765 36.7234 344.789 36.1642 342.819 36.4984C342.635 36.5256 342.451 36.5529 342.267 36.5802C342.73 35.8641 343.296 35.1684 343.964 34.6228C349.355 33.6748 353.799 34.616 358.713 36.969C358.699 36.9621 358.686 36.9553 358.665 36.9417C360.594 37.8488 362.427 38.94 364.268 40.0244C363.872 40.0995 363.484 40.1608 363.082 40.2018L363.095 40.2086ZM384.85 36.969C384.959 36.9485 386.97 37.9715 387.045 37.9988C387.079 38.0125 387.113 38.0261 387.147 38.0466C387.222 38.0807 387.304 38.1148 387.379 38.1557C387.611 38.2785 387.836 38.4353 388.006 38.6399C388.197 38.8718 388.347 39.1651 388.422 39.4515C388.422 39.4652 388.422 39.4788 388.429 39.4925C388.435 39.5334 388.449 39.5743 388.456 39.6152C388.463 39.6561 388.469 39.6902 388.476 39.7312C388.476 39.738 388.476 39.7516 388.476 39.7584C388.476 39.7925 388.476 39.8198 388.483 39.8539C388.483 39.8676 388.483 39.8812 388.483 39.9017C388.483 39.929 388.483 39.9562 388.483 39.9835C388.483 40.004 388.483 40.0176 388.483 40.0381C388.483 40.0585 388.483 40.0858 388.476 40.1063C388.476 40.1267 388.469 40.1472 388.463 40.1677C388.463 40.1881 388.313 40.8838 388.04 41.2725C387.965 41.3748 387.883 41.4703 387.781 41.5385C387.761 41.5522 387.727 41.5658 387.699 41.5726C387.174 40.7883 386.384 40.1881 385.58 39.7039C385.525 39.6698 385.423 39.6016 385.314 39.5334C385.314 39.4925 384.98 37.9238 384.939 37.7874C384.898 37.651 384.837 36.9621 384.857 36.9553L384.85 36.969ZM391.577 13.289C391.904 12.7298 392.716 12.2455 393.431 13.2072C395.476 15.9421 396.028 18.7793 394.488 18.7793C393.09 18.7793 391.755 15.2942 391.755 15.2942C391.482 14.6122 391.373 13.6437 391.577 13.289ZM381.388 17.5994C381.708 17.1902 382.008 16.7537 382.335 16.3445C382.363 16.1263 382.397 15.9012 382.431 15.6761C382.513 15.1646 382.669 14.6667 382.888 14.1961C383.14 13.6437 383.48 13.1185 383.917 12.6889C384.244 12.3683 384.619 12.1296 385.021 11.9182C385.327 11.7613 385.661 11.659 385.995 11.5703C386.241 11.5021 387.249 11.2498 387.345 11.2157C387.433 11.1884 387.59 11.127 387.658 11.2293C387.665 11.243 389.083 12.7843 389.969 13.9574C390.01 14.0188 390.057 14.0734 390.098 14.1347C390.173 14.2439 390.255 14.3462 390.323 14.4553C390.364 14.5167 390.398 14.5713 390.439 14.6326C390.473 14.694 390.514 14.7554 390.548 14.8236C390.603 14.9054 390.657 14.9873 390.712 15.0623C390.712 15.0623 390.719 15.0759 390.725 15.0828C390.514 15.1782 390.33 15.3829 390.201 15.7102C390.126 15.9489 390.085 16.2081 390.078 16.4605C389.894 16.174 389.689 15.9012 389.478 15.6284C389.451 15.5806 389.39 15.4988 389.308 15.4033C389.083 15.0555 388.776 14.769 388.394 14.5849C386.22 13.6846 384.844 15.2737 384.741 17.3744C384.741 17.463 384.741 17.5517 384.741 17.6472C383.48 17.9268 382.22 18.2337 381.006 18.6975C380.87 18.7589 380.741 18.8203 380.604 18.8816C380.829 18.4315 381.129 18.0087 381.388 17.5926V17.5994ZM389.165 22.244C386.854 23.4785 384.039 17.6131 386.629 15.5261C388.469 14.0393 391.945 20.7504 389.165 22.244ZM377.217 31.4377C377.224 31.3627 377.217 31.2877 377.183 31.199C376.856 30.1419 375.833 29.5894 374.818 29.303C374.736 29.2757 374.661 29.228 374.607 29.1598C373.625 27.8844 372.657 26.5681 372.378 24.9517C372.228 23.9286 372.289 22.7487 373.107 22.0121C373.53 21.6848 373.973 21.2824 374.498 21.1596C374.62 21.1323 374.743 21.1119 374.872 21.1187C374.9 21.1187 374.934 21.1187 374.961 21.1323C375.683 21.296 376.447 21.5211 376.992 22.0394C377.83 22.6669 378.369 23.7036 379.378 24.0923C379.943 24.2696 380.618 24.1605 381.041 23.7172C381.524 23.2125 381.497 22.4486 381.211 21.8553C381 21.3506 380.611 20.9141 380.393 20.4162C380.529 20.1707 380.57 20.1025 380.707 19.8501C380.727 19.8501 380.741 19.8501 380.761 19.8433C381.449 19.7274 382.145 19.6046 382.819 19.4341C382.833 19.4341 382.84 19.4341 382.853 19.4273C383.358 19.2568 383.869 19.0931 384.387 18.9294C384.625 18.8544 384.878 19.0044 384.919 19.2568C385.246 21.3438 386.5 23.3012 388.517 23.3012C388.681 23.3012 388.851 23.2875 389.021 23.2603C389.151 23.2603 389.267 23.2466 389.383 23.2193C389.867 23.1034 390.269 22.7487 390.541 22.3327C391.339 21.1937 391.414 19.666 390.984 18.2815C390.964 18.2201 390.95 18.1587 390.964 18.0973C390.991 17.8995 390.923 17.6199 390.916 17.4903C390.903 17.3471 390.882 17.1902 390.875 17.0265C390.862 16.6105 391.4 16.4332 391.625 16.781C391.87 17.1629 392.095 17.579 392.116 17.6131C392.143 17.6608 392.511 18.4247 392.627 18.6634C392.647 18.7043 392.675 18.7452 392.716 18.7793C392.852 18.9089 393.54 19.6046 393.861 20.1639C393.935 20.3003 393.915 20.4708 393.82 20.5935C393.186 21.4324 392.886 22.0394 392.968 22.9533C392.927 22.9806 392.886 23.0079 392.852 23.042C391.993 24.0173 390.991 24.0991 389.778 23.8809C389.764 23.8809 389.751 23.8809 389.73 23.8809C389.465 23.8673 389.171 23.7922 388.933 23.9355C388.299 24.6448 391.012 25.3063 391.468 25.1495C392.116 25.0881 392.702 24.7948 393.186 24.3856C393.288 24.2969 393.438 24.256 393.567 24.2969C393.629 24.3174 393.697 24.3242 393.765 24.3242C393.779 24.3242 393.792 24.3242 393.806 24.3242C394.058 26.3703 394.031 28.5255 393.233 30.2919C393.227 30.3124 393.213 30.3329 393.199 30.3533C392.252 31.9152 390.166 32.0925 388.503 32.2562C388.49 32.2562 388.483 32.2562 388.469 32.2562C387.236 32.2834 385.982 32.2562 384.775 31.9561C384.155 31.8197 383.549 31.656 382.928 31.5332C382.492 31.4377 382.042 31.4514 381.606 31.3764C381.381 31.3627 380.877 31.1513 380.863 31.5264C380.87 31.5946 380.918 31.656 380.979 31.6833C381.627 32.0106 382.281 32.3244 382.969 32.5563C383.201 32.6449 383.433 32.7404 383.664 32.8427C383.794 32.8973 383.883 33.0132 383.91 33.1496C383.937 33.2928 383.964 33.4292 383.998 33.5725C384.005 33.6066 384.005 33.6407 384.005 33.6748C383.971 34.4045 384.046 35.0184 384.244 35.7209C384.21 35.7209 384.176 35.7209 384.142 35.7209C382.744 35.5572 381.381 36.0073 380.086 36.4847C379.548 36.6961 379.003 36.9008 378.491 37.1667C378.192 36.9962 378.198 36.9962 377.899 36.8257C377.858 36.0823 377.83 35.3116 377.728 34.575C377.605 33.3065 377.483 32.3107 377.224 31.4514L377.217 31.4377ZM384.632 39.1037C383.508 38.8991 382.37 39.0628 381.252 38.7627C380.543 38.6195 379.882 38.3057 379.207 38.067C380.461 37.7874 382.922 36.8598 384.292 36.9826C384.292 37.0235 384.298 37.0713 384.312 37.1054C384.414 37.7738 384.537 38.4353 384.639 39.1037H384.632ZM377.537 38.4149C377.728 38.4421 377.926 38.408 378.117 38.3535C378.86 38.5308 379.562 38.8445 380.277 39.1105C381.047 39.3833 381.852 39.5606 382.669 39.6357C383.208 39.7039 383.753 39.6971 384.285 39.8266C381.613 40.2904 378.928 39.7925 376.249 39.4174C376.754 39.1514 377.265 38.8309 377.544 38.4149H377.537ZM366.803 40.5155C367.975 40.2768 369.161 40.0994 370.354 40.0381C370.865 40.0108 371.369 40.004 371.88 40.0108C371.894 40.0108 371.908 40.0108 371.915 40.0108C371.921 40.0108 371.935 40.004 371.942 40.004C371.989 40.004 372.037 40.004 372.085 40.004C372.133 40.004 372.187 40.0176 372.235 40.0244C372.248 40.0244 372.269 40.0244 372.283 40.0244C372.31 40.0244 372.337 40.0244 372.364 40.0244C372.378 40.0244 372.385 40.0244 372.398 40.0244C372.419 40.0244 372.433 40.0244 372.453 40.0244C372.494 40.0244 372.528 40.0244 372.569 40.0244C372.589 40.0244 372.61 40.0244 372.623 40.0313C372.719 40.0449 372.814 40.0653 372.916 40.079C372.916 40.079 372.937 40.079 372.951 40.079C372.951 40.079 372.964 40.079 372.978 40.079C372.978 40.079 372.971 40.079 372.964 40.079C373.094 40.0926 373.223 40.0994 373.353 40.0994C373.414 40.0994 373.475 40.0994 373.537 40.0994C373.605 40.0994 373.68 40.0994 373.748 40.0994C373.782 40.0994 373.823 40.0994 373.857 40.0994C374.082 40.0994 374.307 40.0926 374.532 40.0994C374.593 40.0994 374.648 40.1063 374.709 40.1131C374.723 40.1131 374.743 40.1131 374.757 40.1131C374.818 40.1199 374.886 40.1336 374.947 40.1404C375.077 40.1608 375.213 40.1813 375.343 40.2086C375.486 40.2359 375.629 40.2768 375.772 40.3177C375.786 40.3177 375.806 40.3245 375.827 40.3314C376.031 40.3586 376.236 40.3927 376.447 40.4268C379.003 40.8224 381.715 41.2384 384.244 40.4541C384.401 40.3995 384.755 40.2768 384.946 40.1199C384.987 40.1608 385.034 40.2017 385.089 40.229C385.552 41.0884 386.166 41.9068 387.072 42.2956C387.12 42.3228 387.181 42.3433 387.236 42.357C384.407 44.4985 381.081 44.5599 377.558 44.0484C375.411 43.7005 373.284 43.2709 371.233 42.5616C371.192 42.5547 371.158 42.5479 371.117 42.5411C371.117 42.5411 371.131 42.5411 371.138 42.5411C371.063 42.5275 370.981 42.507 370.906 42.4797C370.763 42.4388 370.626 42.3774 370.483 42.3229C370.401 42.2956 370.32 42.2615 370.245 42.2206C370.163 42.1865 370.088 42.1387 370.013 42.0978C369.945 42.0637 369.877 42.0364 369.809 41.9955C369.788 41.9819 369.768 41.975 369.74 41.9682C369.679 41.9477 369.618 41.9341 369.556 41.9068C369.536 41.9 369.515 41.8932 369.495 41.8795C369.331 41.8113 369.175 41.7363 369.011 41.6613C368.268 41.293 367.532 40.8906 366.81 40.4882L366.803 40.5155ZM361.085 78.9135C361.35 77.5154 361.589 76.1104 361.821 74.7054C363.668 74.9987 365.467 75.5716 367.341 75.7967C368.18 75.9535 371.519 76.0899 371.581 76.5401C371.819 78.1769 371.138 82.5282 370.647 83.0943C369.938 83.9128 365.079 82.2827 363.17 81.2051C362.55 80.8846 361.868 80.5913 361.385 80.073C361.255 79.8956 361.166 79.7047 361.105 79.5001C361.051 79.3091 361.044 79.1113 361.085 78.9135ZM360.533 112.38C360.492 112.367 360.451 112.36 360.41 112.353C360.042 112.176 359.701 111.889 359.613 111.473C359.531 109.584 359.708 107.702 359.872 105.819C359.872 105.71 359.885 105.601 359.919 105.499C359.919 105.417 359.851 105.369 359.776 105.376C359.674 105.383 359.653 105.499 359.64 105.581C359.531 106.726 358.87 108.459 358.672 110.021C358.645 110 358.617 109.98 358.597 109.952C357.322 108.343 359.769 101.148 359.449 98.7604C359.442 98.7127 359.585 97.4305 359.653 96.8508C359.926 94.1568 360.151 91.456 360.526 88.7688C360.785 86.7636 361.051 84.7585 361.248 82.7465C361.289 82.2486 361.337 81.7507 361.35 81.2529C361.78 81.5598 362.271 81.7917 362.741 82.0304C364.751 83.1762 366.966 83.6399 369.209 84.0969C369.141 84.4311 369.12 84.7721 369.038 85.1063C368.084 89.2462 367.225 93.4611 366.714 97.6828C366.605 98.7945 366.646 99.9131 366.83 101.018C367.219 102.743 367.675 104.483 367.512 106.27C367.444 106.863 367.403 107.463 367.307 108.056L367.321 108.295C367.341 108.438 367.355 108.575 367.348 108.718C367.348 108.752 367.348 108.786 367.348 108.82C367.348 108.936 367.355 109.045 367.362 109.161C367.382 109.175 367.403 109.182 367.423 109.195C367.45 109.216 367.478 109.243 367.498 109.27C367.396 110.655 367.164 112.06 366.38 112.094C366.401 111.992 366.333 111.917 366.251 111.896C366.251 111.876 366.251 111.855 366.251 111.835C366.299 111.664 366.374 111.507 366.448 111.357C366.448 111.317 366.448 111.269 366.442 111.228C366.442 111.187 366.442 111.139 366.442 111.098C366.421 111.03 366.408 110.955 366.387 110.887C366.346 110.723 366.312 110.553 366.285 110.382C366.271 110.28 366.258 110.184 366.251 110.082C366.251 109.966 366.271 109.85 366.299 109.734C366.299 109.714 366.312 109.693 366.319 109.673C366.319 109.646 366.319 109.611 366.319 109.584C366.319 109.55 366.319 109.516 366.319 109.489C365.937 108.363 365.351 107.286 365.229 106.099C365.31 106.017 365.256 105.867 365.14 105.86C364.711 105.813 364.963 107.415 364.956 107.729C365.024 108.623 365.283 109.461 365.603 110.3C365.685 110.464 365.733 110.669 365.808 110.853C364.997 112.053 365.297 113.724 365.092 115.115C365.065 115.279 364.942 115.402 364.84 115.518C364.84 115.518 364.84 115.525 364.833 115.525C364.663 115.429 364.404 115.511 364.274 115.354C364.172 114.686 364.295 114.126 364.254 113.397C364.22 112.08 364.077 110.778 363.968 109.468C363.954 109.223 363.927 108.977 363.934 108.732C363.954 108.623 363.859 108.52 363.75 108.52C363.641 108.52 363.545 108.623 363.566 108.732C363.579 109.434 363.531 110.13 363.436 110.825C363.341 111.726 362.823 113.397 362.918 114.645C362.666 114.508 362.427 114.352 362.209 114.154C361.732 113.758 361.821 113.138 361.828 112.585C361.807 111.262 361.828 109.939 361.889 108.616C361.916 108.166 361.889 107.715 361.923 107.265C361.95 107.163 361.896 107.047 361.787 107.013C361.425 106.972 361.535 107.477 361.48 107.709C361.432 108.254 361.289 108.773 361.153 109.298C360.935 110.178 360.621 111.323 360.56 112.401L360.533 112.38ZM398.979 142.628C399.647 143.003 400.233 143.392 400.935 143.808C401.473 144.19 402.257 144.34 402.673 144.859C401.923 145.5 399.804 144.402 398.897 144.17C398.147 143.904 397.405 143.631 396.675 143.324C396.28 143.16 395.823 142.956 395.81 142.458C395.708 141.585 395.762 140.698 395.626 139.825C396.382 140.037 397.18 140.18 397.943 140.282C397.936 140.33 397.732 141.51 397.923 141.748C398.188 142.137 398.577 142.403 398.986 142.621L398.979 142.628ZM393.172 72.823C392.968 74.0643 392.77 75.3056 392.552 76.5469C392.525 76.6833 392.525 76.6901 392.504 76.8129C392.218 78.4156 391.891 80.0116 391.468 81.5871C391.291 82.2418 391.087 82.9034 390.868 83.5513C390.828 83.6672 390.834 83.7968 390.882 83.9059C389.723 83.5308 388.558 83.183 387.358 82.9647C385.532 82.6305 383.801 81.9826 382.022 81.4643C381.115 81.1983 380.202 80.9391 379.282 80.7686C379.044 80.6799 378.805 80.5981 378.566 80.5094C377.053 79.9911 375.452 80.0252 373.884 80.1343C373.612 80.1207 372.705 79.9434 372.862 80.4481C373.019 80.7481 373.332 80.8982 373.612 81.0551C373.85 81.2188 374.089 81.362 374.368 81.437C375.056 81.6553 375.772 81.4643 376.467 81.4234C377.524 81.3484 378.71 81.5325 379.718 81.9076C381.156 82.385 382.601 82.8624 384.053 83.3194C384.673 83.5513 385.3 83.7764 385.934 83.9537C386.418 84.0696 386.909 84.1924 387.399 84.3288C387.468 84.3492 387.529 84.3697 387.59 84.3834C387.617 84.3834 387.638 84.397 387.665 84.397C389.226 84.8267 390.8 85.3382 392.307 85.8702C394.747 86.6477 397.098 87.6503 399.299 88.9666C401.153 89.9828 403.048 90.924 404.779 92.1516C405.883 92.8473 406.967 93.5634 408.037 94.3068C409.114 95.0161 410.259 95.6231 411.295 96.4006C412.433 97.2668 413.251 98.4808 414.355 99.3811C416.945 101.352 416.583 103.862 416.038 106.726C414.191 114.931 410.375 122.536 406.347 129.861C405.283 131.614 404.084 133.285 402.905 134.956C402.182 136.013 401.385 137.022 400.758 138.141C400.642 138.352 400.662 138.611 400.778 138.809C400.649 138.925 400.526 139.041 400.397 139.109C399.558 139.375 398.638 139.014 397.793 138.891C396.546 138.638 395.258 138.325 394.229 137.534C393.622 137.07 393.247 136.279 393.37 135.522C393.608 133.769 394.065 132.105 394.528 130.4C395.714 126.171 396.975 121.963 398.488 117.844C399.517 114.931 400.533 111.992 400.928 108.916C401.037 107.797 401.303 106.576 400.86 105.506C400.656 105.049 400.178 104.844 399.708 104.776C399.074 104.667 398.434 104.592 397.807 104.489C396.464 104.312 395.108 104.169 393.765 103.992C392.286 103.801 390.821 103.507 389.355 103.262C389.342 103.262 389.335 103.262 389.321 103.262C388.919 103.153 388.517 103.044 388.115 102.941C386.316 102.532 384.503 102.211 382.717 101.755C379.425 100.909 376.031 99.7562 372.753 98.7673C372.276 98.6309 371.792 98.5013 371.308 98.4126C371.165 98.3853 370.96 98.3649 370.851 98.4876C370.742 98.6104 370.817 98.815 370.967 98.8491C371.676 99.2379 372.351 99.7153 373.025 100.165C373.898 100.691 374.832 101.107 375.752 101.55C377.817 102.382 379.936 103.119 382.09 103.719C381.852 104.38 381.633 105.049 381.456 105.738C380.693 108.5 379.8 111.221 378.982 113.97C377.708 117.85 376.733 121.813 375.99 125.83C375.404 128.49 375.684 131.238 375.315 133.926C374.654 138.195 373.768 142.424 372.848 146.645C372.235 149.292 371.676 151.952 371.069 154.598C370.34 157.428 369.924 160.402 368.221 162.857C367.539 164.064 366.401 164.944 365.017 165.169C364.179 165.251 363.368 164.985 362.55 164.835C362.414 164.712 362.271 164.569 362.209 164.392C361.896 163.573 361.773 162.7 361.644 161.841C361.132 157.483 361.794 153.125 362.087 148.773C362.605 139.116 362.72 129.417 361.984 119.76C361.828 118.239 361.719 116.718 361.637 115.197C361.916 115.368 362.257 115.491 362.68 115.552C362.857 115.552 362.993 115.47 363.075 115.347C363.279 115.845 363.681 116.173 364.411 116.2C364.554 116.2 364.69 116.2 364.82 116.138C364.854 116.125 364.881 116.104 364.901 116.084C364.949 116.111 364.997 116.138 365.051 116.145C365.733 116.098 366.094 115.347 366.087 114.727C366.142 114.031 366.149 113.335 366.183 112.64C366.237 112.687 366.305 112.728 366.367 112.749C366.714 112.858 367.048 112.667 367.328 112.476C367.784 112.155 367.887 111.562 367.927 111.037C368.016 110.253 368.05 109.461 368.077 108.677C368.132 108.411 368.173 108.138 368.207 107.865C368.52 105.731 368.459 103.541 367.941 101.441C367.621 99.613 367.641 97.7306 367.934 95.8755C368.268 91.9402 369.509 88.114 369.577 84.1515C369.911 84.2197 370.245 84.2879 370.579 84.3629C370.585 84.3629 370.599 84.3629 370.606 84.3629C371.267 84.3629 371.472 83.599 371.574 83.067C371.846 81.7507 372.092 80.4208 372.323 79.0977C372.453 78.136 372.705 77.1607 372.698 76.1854C372.555 75.7898 372.262 75.5307 371.894 75.3465C372.378 72.9935 372.937 70.661 373.53 68.3353C374.661 64.1818 376.188 60.1783 377.708 56.1475C378.13 55.0426 378.43 53.8968 378.716 52.7442C378.75 52.6078 378.785 52.4714 378.819 52.335C379.521 51.6939 380.045 50.8686 380.325 49.9547C380.373 49.7978 380.311 49.6273 380.168 49.5455C379.746 49.3204 379.48 49.9138 379.187 50.1252C379.105 50.1934 379.023 50.2685 378.955 50.3503C378.955 50.3162 378.962 50.2821 378.969 50.2412C378.935 49.4841 379.064 48.7475 379.098 47.9905C379.098 47.6222 378.56 47.5335 378.464 47.8882C378.103 48.768 378.178 49.7569 377.912 50.6777C377.864 50.8959 377.81 51.1278 377.762 51.3597C377.755 51.3597 377.742 51.3733 377.735 51.3801C377.721 51.3938 377.708 51.4006 377.694 51.4143C377.524 52.0554 377.347 52.6964 377.162 53.3376C376.965 53.9991 376.726 54.647 376.495 55.3018C376.222 56.0929 376.004 56.9114 375.765 57.7162C375.711 57.9003 375.649 58.0845 375.595 58.2686C375.568 58.3436 375.547 58.4186 375.52 58.4937C375.452 58.7051 375.377 58.9097 375.295 59.1211C375.288 59.1416 375.281 59.1621 375.275 59.1825C375.022 59.8304 373.325 64.8911 373.114 65.7027C372.91 66.487 372.698 67.2713 372.494 68.0625C372.269 68.9355 372.044 69.8153 371.812 70.6883C371.683 71.1862 371.553 71.6909 371.41 72.1887C371.26 72.7275 370.885 74.7054 370.824 75.0191C370.688 74.9919 367.225 74.6236 365.747 74.3098C364.54 74.0916 363.266 73.7574 362.012 73.6551C362.012 73.6551 362.005 73.6483 361.998 73.6415C363.266 65.689 364.261 57.6548 367.035 50.0638C367.873 47.6768 368.589 45.0441 370.279 43.1276C372.78 44.0756 375.425 44.6417 378.083 44.9282C378.083 44.9282 378.089 44.9282 378.096 44.9282C378.219 44.9282 378.342 44.935 378.464 44.9487C378.594 44.9623 378.723 44.9759 378.846 44.9896C378.839 44.9896 378.832 44.9896 378.825 44.9896C378.9 44.9964 378.975 45.0032 379.05 45.01C379.228 45.0237 379.405 45.0237 379.575 45.0373C379.65 45.0373 379.718 45.051 379.793 45.0578C379.882 45.0714 379.964 45.0714 380.052 45.0782C380.141 45.0782 380.236 45.0782 380.325 45.0782C380.379 45.0782 380.441 45.0782 380.495 45.0919H380.502C383.256 45.0919 385.839 44.3553 387.87 42.3842C387.89 42.3842 387.911 42.3842 387.924 42.3842C388.251 42.3842 388.531 42.0091 388.742 41.6681C390.064 43.5641 390.889 45.7671 391.72 47.9155C392.784 50.5685 393.295 53.4058 393.567 56.243C393.786 58.255 393.901 60.1919 393.813 62.238C393.813 65.7777 393.867 69.331 393.158 72.8162L393.172 72.823ZM395.162 69.1605C395.374 67.5169 395.401 62.0948 395.408 61.4605C395.401 60.4852 395.367 59.5031 395.312 58.521C395.319 58.5346 395.333 58.5551 395.339 58.5687C395.694 59.0461 396.041 59.5235 396.389 60.0078C396.375 60.0146 396.362 60.0214 396.348 60.0282C396.375 60.0555 396.396 60.0896 396.423 60.1237C396.525 60.2533 396.628 60.3761 396.73 60.5056C396.962 60.7989 397.2 61.0854 397.432 61.3718C397.868 61.9174 398.338 62.429 398.815 62.9337C398.918 63.036 399.013 63.1451 399.108 63.2542C399.108 63.2542 399.095 63.2406 399.088 63.2337C399.211 63.3702 399.333 63.5134 399.442 63.6634C399.497 63.7384 400.247 64.4887 399.933 64.7478C399.804 64.8911 399.667 65.0275 399.524 65.1571C399.517 65.1639 399.504 65.1707 399.49 65.1843C399.347 65.3276 399.204 65.4776 399.061 65.6208C397.854 66.9167 397.105 68.5604 396.151 70.0335C395.517 71.0702 394.917 72.1342 394.331 73.1982C394.658 71.8614 394.978 70.5246 395.155 69.1605H395.162ZM398.454 78.2588C398.359 78.2315 395.633 76.4241 394.699 75.6466C394.194 75.2306 394.072 74.5076 394.413 73.9416C395.401 72.2911 397.541 69.7539 398.515 68.2535C399.04 67.4214 401.76 64.3454 401.78 64.3113C401.923 64.2772 402.066 64.2704 402.223 64.3386C402.503 64.4341 402.7 64.7478 402.918 64.9456C403.477 65.5526 405.924 68.1307 406.462 68.8264C406.701 69.1333 406.796 69.522 406.721 69.904C406.626 70.3745 406.442 70.8179 406.442 70.8179C406.435 70.8451 406.422 70.8724 406.415 70.8929C406.387 70.9679 406.353 71.0429 406.312 71.1111C406.312 71.118 406.306 71.1316 406.299 71.1384C406.292 71.1521 406.278 71.1725 406.272 71.1862C406.272 71.1862 406.272 71.1862 406.272 71.193C406.237 71.2748 405.951 71.7181 405.835 71.8409C405.801 71.875 402.789 74.9441 402.25 75.4147C401.753 75.8444 399.422 78.6543 398.475 78.2451L398.454 78.2588ZM420.584 89.5258C420.332 89.5872 420.291 89.9487 419.991 89.9419C419.964 89.9419 419.93 89.935 419.909 89.9214C419.705 89.6691 419.705 89.3008 419.61 89.0007C419.507 88.4073 419.173 87.9162 418.792 87.4729C419.201 87.6298 419.603 87.8208 419.991 88.0322C420.284 88.496 420.53 88.9666 420.666 89.519C420.639 89.519 420.611 89.519 420.584 89.5258ZM421.252 92.0561C421.129 91.2309 421.606 90.4397 421.504 89.6213C421.402 89.2735 421.238 88.9393 421.041 88.6256C421.252 88.7483 421.457 88.8643 421.668 88.9734C421.961 89.1984 422.213 89.4713 422.424 89.7645C422.206 90.5898 421.865 91.456 421.252 92.0493V92.0561ZM424.51 92.0016C423.924 90.9376 423.726 89.6486 422.84 88.7551C422.322 88.1481 421.606 87.8071 420.911 87.4456C419.937 86.9273 418.839 86.3339 417.701 86.5658C416.699 86.8591 416.999 88.1209 417.279 88.8574C417.653 89.8805 418.601 90.7398 418.608 91.872C418.608 91.8856 418.608 91.8993 418.608 91.9197C416.767 91.2309 415.895 89.2257 414.15 88.3664C409.011 87.2138 401.835 80.0525 400.478 78.8862C401.433 78.1224 402.823 76.8265 403.539 76.1922C404.302 75.4966 406.531 72.7275 406.585 72.7139C406.585 72.7139 406.592 72.7139 406.599 72.7139C406.633 72.7139 406.667 72.7139 406.701 72.7412C406.824 72.8026 406.933 72.9049 407.035 72.9935C407.144 73.0822 407.239 73.1845 407.342 73.28C407.573 73.5119 407.805 73.7301 408.044 73.9552C408.091 74.0029 408.139 74.0439 408.187 74.0916C408.187 74.0916 408.194 74.0984 408.2 74.1052C408.221 74.1257 408.241 74.1461 408.268 74.1666C408.268 74.1666 408.275 74.1734 408.282 74.1802C408.282 74.1802 408.289 74.1803 408.296 74.1871C408.364 74.2485 408.432 74.3098 408.5 74.3712C408.493 74.3644 408.48 74.3576 408.473 74.3439C408.998 74.8145 409.502 75.2988 410.013 75.783C410.245 76.0081 410.484 76.2332 410.729 76.4378C410.988 76.656 411.254 76.8811 411.506 77.0993C411.574 77.1607 411.649 77.2221 411.717 77.2835C411.704 77.2698 411.69 77.2562 411.676 77.2494C411.717 77.2835 411.758 77.3244 411.806 77.3585C411.819 77.3721 411.833 77.379 411.84 77.3926L411.819 77.3721C411.819 77.3721 411.833 77.3858 411.84 77.3926C411.847 77.3994 411.86 77.4062 411.867 77.4199C412.208 77.7063 412.549 77.9791 412.889 78.2656C413.244 78.5725 413.612 78.8589 413.98 79.159L413.939 79.1181C413.973 79.1454 414.014 79.1795 414.048 79.2068C414.055 79.2136 414.069 79.2204 414.075 79.2272C414.089 79.2341 414.096 79.2477 414.109 79.2545C414.123 79.2613 414.13 79.275 414.143 79.2818C414.15 79.2818 414.157 79.2954 414.171 79.3023C414.171 79.3023 414.157 79.2886 414.15 79.2886C414.198 79.3296 414.246 79.3636 414.293 79.4046C414.3 79.4046 414.307 79.4182 414.314 79.425C414.314 79.425 414.314 79.425 414.321 79.4318C414.321 79.4318 414.334 79.4387 414.334 79.4455C414.859 79.8683 415.377 80.298 415.888 80.7413C415.977 80.8232 416.072 80.8982 416.168 80.98C416.59 81.3347 417.013 81.6894 417.449 82.0372C417.613 82.1668 417.783 82.3032 417.953 82.4259C418.008 82.4669 418.069 82.5078 418.124 82.5487C418.117 82.5487 418.11 82.5419 418.103 82.5351C418.376 82.7192 418.649 82.8965 418.928 83.067C419.214 83.2444 419.5 83.4081 419.794 83.5649C419.93 83.6399 420.073 83.7218 420.209 83.8036C420.911 84.1174 421.613 84.4243 422.281 84.8267C423.358 85.5701 424.517 86.5249 424.585 87.9367C424.694 88.7892 424.701 89.6486 424.735 90.5148C424.708 90.9649 424.823 91.606 424.524 92.0152L424.51 92.0016ZM377.694 26.7045C377.571 26.418 377.244 26.2748 376.938 26.343C376.829 26.3703 376.713 26.3498 376.604 26.343C375.568 25.9747 374.348 24.4197 375.118 23.3967C375.166 23.3557 375.261 23.2739 375.336 23.2807C375.711 23.3216 375.758 22.7828 375.384 22.7692C374.634 22.6464 374.034 23.3285 373.871 23.9764C373.503 25.2108 374.17 26.609 375.247 27.3183C375.52 27.5093 376.038 27.6525 376.529 27.6661C376.556 27.6661 376.576 27.6661 376.597 27.6661C376.767 27.6661 376.931 27.6525 377.074 27.6184C377.456 27.5297 377.735 27.3183 377.721 26.9227C377.721 26.8613 377.708 26.7863 377.694 26.7113V26.7045Z" fill="black"/>
</g>
<defs>
<clipPath id="clip0_6493_73307">
<rect width="572.365" height="337" fill="white" transform="translate(0.634766)"/>
</clipPath>
</defs>
</svg>
