<svg width="202" height="176" viewBox="0 0 202 176" fill="none" xmlns="http://www.w3.org/2000/svg">
<path d="M201.548 93.8037C203.624 119.015 177.967 138.523 154.984 141.273C144.081 142.29 135.034 133.615 124.224 138.331C123.046 138.842 121.846 139.302 120.599 139.598C92.1818 146.279 66.6412 124.167 38.6937 123.853C22.6409 125.428 13.9591 114.387 14.7885 100.316C15.1306 94.4956 13.8431 88.6928 10.984 83.6109C5.38758 73.6682 -2.40686 63.6209 0.713234 53.6142C6.93022 33.6706 23.2208 28.9493 56.324 28.9493C78.2922 28.9493 91.9789 7.97656 117.259 7.97656C151.916 7.97656 153.783 39.7177 165.597 63.0685C168.212 68.2433 172.672 72.2553 178.106 74.2439C188.632 78.093 200.782 80.3956 201.548 93.8095V93.8037Z" fill="#E1CBF1"/>
<path d="M146.027 80.3794C146.038 80.4259 146.05 80.4666 146.067 80.5132C146.038 80.4899 146.003 80.4725 145.974 80.4492C145.963 80.4259 145.951 80.4085 145.945 80.3852C145.957 80.3213 145.957 80.2573 145.957 80.1875C145.963 80.1875 145.969 80.1875 145.98 80.1875C145.998 80.2515 146.009 80.3154 146.027 80.3794Z" fill="#E1CBF1"/>
<path d="M174.44 34.1163C179.445 33.2441 180.309 36.884 179.219 39.5063C177.584 43.4311 174.87 45.9836 172.306 48.1931C163.758 55.5542 151.585 56.2054 141.372 66.404C138.751 69.0205 136.176 69.0786 142.619 71.5788C156.839 67.3633 155.702 77.7421 154.925 79.1609C155.963 81.4925 159.988 88.1907 147.67 96.203C149.224 100.837 151.266 106.07 142.312 109.6C143.808 121.269 127.297 118.751 124.647 118.682C110.015 133.415 99.2566 129.479 87.3446 133.823C75.4325 138.166 60.7426 149.574 49.9614 159.831C33.5258 175.471 34.6161 178.78 18.7315 166.587C9.42342 159.441 -3.52091 141.213 3.24702 129.77C20.2452 122.967 38.6236 116.757 52.4494 103.512C53.5107 102.494 72.3008 96.1274 86.9444 81.0854C98.3577 69.3635 115.443 57.4148 138.664 47.1756C150.274 42.0589 166.391 35.5234 174.44 34.1221V34.1163Z" fill="white"/>
<path d="M124.48 102.546C124.156 102.546 118.727 102.371 117.904 101.993C117.451 101.766 115.369 99.6499 117.486 99.1615C119.33 98.3649 121.494 97.8242 123.483 98.5568C126.835 99.7895 125.13 102.563 124.486 102.546H124.48Z" fill="#E1CBF1"/>
<path d="M81.0702 30.3516C82.636 31.0726 77.9849 35.4334 77.5093 37.0963C77.086 41.1606 80.0205 39.6256 81.7893 38.0673C83.7147 36.3753 89.8969 35.1776 89.0444 34.9159C85.2226 43.498 84.8282 46.6553 81.3891 54.7315L63.6719 33.189L81.0702 30.3516Z" fill="#FFE496"/>
<path d="M124.614 102.801C124.498 102.801 124.382 102.76 124.284 102.696C124.208 102.644 124.145 102.574 124.104 102.498C123.657 102.335 123.826 101.737 123.773 101.37C123.773 100.946 123.773 100.527 123.831 100.114C123.843 99.9864 123.872 99.8584 123.947 99.7538C123.93 99.341 124.301 99.0328 124.672 99.2886C124.951 99.5328 124.968 99.9515 125.078 100.283C125.171 100.213 125.299 100.178 125.426 100.207C126.169 100.44 125.333 101.463 125.519 101.998C125.502 102.277 125.368 102.603 125.084 102.69C124.916 102.708 124.777 102.795 124.609 102.806L124.614 102.801Z" fill="#A37AD4"/>
<path d="M59.3363 80.9004C57.9271 80.1387 56.744 78.1211 55.1607 77.9641C50.7764 72.9927 55.8509 84.4123 52.0696 82.5866C49.6977 82.9064 50.9271 79.6386 49.6745 78.6792C47.5403 78.4699 43.5387 74.4928 42.2976 74.6615C41.7988 74.7312 41.7698 76.5453 42.4426 77.8827C46.4094 85.7554 39.1485 94.291 44.9595 103.257C45.4351 103.99 46.3166 103.6 46.6008 102.78C48.3406 97.6402 50.9735 83.3134 50.092 83.0866C50.8401 83.2785 53.2469 83.7436 53.8327 85.081C55.4681 88.8545 55.0157 96.0063 57.9386 95.4365C60.8616 94.8667 61.2675 83.3134 59.3421 80.8946L59.3363 80.9004Z" fill="#A37AD4"/>
<path d="M91.6819 47.4867C91.2064 46.097 90.1393 44.3004 90.928 42.8293C92.1691 40.5268 90.1103 33.9913 86.0623 34.2414C86.6074 35.2763 83.4003 34.9042 80.7268 42.7421C78.9812 47.8588 82.0549 46.8006 84.1601 47.9402C84.0789 48.3414 83.0756 49.1089 83.4351 49.1787C87.9761 50.0915 91.8269 48.3414 91.6761 47.4809L91.6819 47.4867Z" fill="#A37AD4"/>
<path d="M142.836 41.3684C139.757 40.4613 143.254 34.3562 141.363 34.1294C140.957 33.5945 141.728 32.6409 142.337 32.0827C142.807 31.6524 142.076 26.3439 146.774 31.007C148.096 32.6816 144.24 41.9731 142.836 41.3684Z" fill="#A37AD4"/>
<path d="M142.046 13.1771C142.15 13.4155 141.959 13.712 141.767 13.8807C141.419 14.1481 141.141 14.497 140.822 14.8052C140.752 14.8866 140.66 14.9563 140.544 14.9563C140.503 14.9563 140.468 14.9563 140.433 14.9389C140.3 15.1075 140.167 15.2761 140.033 15.4389C139.152 16.5786 138.108 17.5728 137.128 18.6194C135.411 20.387 133.526 21.986 131.931 23.8699C130.429 25.6084 128.91 27.3353 127.321 28.9924C127.008 29.3297 126.706 29.6727 126.445 30.0507C126.41 30.2774 126.149 30.3007 126.028 30.1728C125.952 30.1611 125.871 30.1262 125.796 30.0623C124.624 29.0506 123.435 28.1261 122.2 27.2074C120.391 26.0154 118.546 24.87 116.737 23.6664C115.844 23.0675 115.02 22.3698 114.15 21.7418C114.092 21.7767 114.029 21.7999 113.953 21.7999C113.698 21.8116 113.565 21.6081 113.536 21.3929C113.489 21.3639 113.437 21.329 113.391 21.2941C113.309 21.2301 113.321 21.0964 113.391 21.0324C113.454 20.9801 113.53 20.9859 113.611 20.9976C113.739 20.7533 113.947 20.5498 114.133 20.3463C114.464 20.0498 114.835 19.1486 115.357 19.2997C116.29 18.4799 117.178 17.6077 118.111 16.7879C117.827 16.3344 118.419 16.0146 118.697 15.7471C119.103 15.3575 119.457 14.9215 119.845 14.5144C121.98 12.177 124.427 10.1594 126.503 7.76968C128.498 5.94394 130.337 3.94377 132.413 2.20525C133.242 1.35053 133.787 1.00748 134.472 2.25177C134.988 3.02509 135.492 3.80423 135.933 4.62407C136.264 4.72291 136.351 5.11829 136.6 5.33343C137.145 5.85673 137.702 6.46725 138.108 7.09521C139.592 8.92094 140.729 10.9851 141.964 12.9736C142.011 13.0434 142.034 13.119 142.034 13.1887L142.046 13.1771Z" fill="#5D2B9D"/>
<path d="M48.3964 57.5855C48.234 57.5622 48.0774 57.4692 47.9672 57.3471C47.7526 57.2947 47.5961 57.1029 47.4453 56.9517C47.2829 56.8994 47.1611 56.7773 47.0509 56.6493C46.413 55.8121 45.978 54.7422 45.9606 53.684C44.128 53.9398 43.3161 50.8 44.9573 50.0499C45.1487 49.4452 45.8562 48.9917 46.4478 49.358C46.6798 49.358 46.9407 49.3987 47.1321 49.5383C47.2191 49.6197 47.3293 49.6836 47.4163 49.7592C47.6715 49.9802 47.9556 50.2418 48.0078 50.5907C48.0542 50.6721 48.1006 50.7651 48.118 50.8582C48.147 50.8233 48.1818 50.7884 48.2224 50.7651C48.292 50.7186 48.3674 50.7012 48.4486 50.7012C48.5646 50.5151 48.8023 50.5093 48.9937 50.4453C49.4345 50.2593 49.9042 50.3058 50.3334 50.5035C50.6988 49.922 51.8123 50.6081 52.2356 50.864C52.456 51.0151 52.7576 51.0675 52.9199 51.2884C53.0997 51.3873 53.3085 51.521 53.3085 51.7536C53.3201 52.0501 53.0127 52.2652 52.7344 52.1722C52.4966 52.3059 52.2472 52.4281 51.9978 52.5385C51.905 52.8467 51.7949 53.1665 51.6673 53.4514C51.6151 53.5793 51.5339 53.7014 51.4063 53.7712C51.4527 54.1549 51.5745 54.5503 51.5281 54.9399C51.4469 55.3295 50.8553 55.3295 50.7742 54.9399C50.6988 54.8934 50.6292 54.7771 50.5944 54.7131C50.4436 54.3352 49.9912 54.3759 49.6549 54.3992C49.4461 54.7015 49.1909 54.969 48.9531 55.2539C49.0169 55.7074 49.1329 56.19 49.0169 56.6435C49.0807 57.0622 48.9067 57.6494 48.3848 57.5913L48.3964 57.5855Z" fill="#5D2B9D"/>
<path d="M87.913 26.5517C90.1168 27.4704 87.5244 28.8368 88.2667 30.1683C86.6023 30.2148 87.4316 30.366 87.5592 32.1278C87.6926 34.0175 86.6777 33.9361 86.1152 34.3954C85.6628 34.7675 85.6106 35.3257 85.7904 36.4944C85.657 38.0992 83.401 37.6747 81.3132 38.2446C80.4665 38.4771 79.44 40.1982 78.7209 39.6924C76.7433 38.2911 79.1268 34.8606 81.6322 31.0695C82.3455 29.988 83.691 27.4995 85.28 26.4122C86.2485 25.7493 87.1359 26.1621 87.913 26.5575V26.5517Z" fill="#5D2B9D"/>
<path d="M48.3155 58.3267C47.3353 58.3442 44.2558 57.1115 43.6179 57.5999C38.7464 44.8256 16.5056 53.7217 25.6049 67.6066C29.3397 73.3047 36.6122 73.0605 40.9792 69.4846C43.9369 69.8044 48.849 70.1882 47.5151 66.2518C46.2567 67.1531 45.12 67.7287 42.5566 67.8799C44.2906 65.6762 45.091 62.7283 44.1457 59.3501C44.1051 59.1814 44.0587 59.0128 44.0181 58.85C44.0587 58.9023 44.0935 58.9489 44.1399 59.0012C45.1722 59.0942 49.1912 60.1583 48.3155 58.3325V58.3267Z" fill="#A37AD4"/>
<path d="M88.5459 43.5925C88.3313 43.4007 88.3835 43.0983 88.4299 42.8483C88.5053 42.4471 88.5517 42.0401 88.5575 41.6331C88.5459 41.0923 88.4531 40.5574 88.3487 40.0283C88.3197 39.8364 88.2443 39.6213 88.3487 39.441C88.0413 38.877 87.8152 38.22 87.4382 37.7025C87.2178 37.3769 86.9104 37.1327 86.6437 36.8536C86.4639 36.6617 86.2957 36.464 86.0869 36.3012C85.9999 36.2838 85.9651 36.1849 85.8897 36.1442C85.7564 36.0221 85.7506 35.7954 85.8723 35.6674C85.8839 35.4116 85.7158 35.1558 85.8201 34.9116C85.7737 34.7197 85.9825 34.5452 86.1623 34.6325C86.5683 34.5511 86.9046 35.243 87.154 35.4988C87.618 36.1035 88.0877 36.714 88.4357 37.3885C88.8243 37.8246 89.0504 38.4351 89.3114 38.9584C89.5724 39.5399 89.5956 40.1853 89.6884 40.8074C89.7928 41.5051 90.0885 42.1971 90.0421 42.9122C89.9899 43.1855 89.6594 43.3425 89.4216 43.203C89.265 43.5169 88.9054 43.9181 88.5517 43.5983L88.5459 43.5925Z" fill="#FDC82E"/>
<path d="M145.357 20.0925C145.838 20.5693 147.526 22.9823 147.369 23.1102C146.552 23.7731 136.542 18.5052 139.07 17.1156C140.52 16.2201 144.342 18.6389 145.357 20.0925Z" fill="#5D2B9D"/>
<path d="M131.768 25.449C131.809 25.5187 131.82 25.5943 131.791 25.6816C131.75 25.827 131.629 25.9258 131.513 26.0073C131.344 26.1352 131.153 26.2457 131.025 26.4202C130.996 26.4667 130.967 26.5132 130.938 26.5656C130.927 26.6004 130.909 26.6295 130.886 26.6528C130.822 26.7168 130.718 26.7342 130.637 26.6877C130.521 26.6237 130.503 26.4725 130.579 26.3795C130.579 26.3795 130.579 26.3911 130.573 26.3911C130.648 26.2282 130.741 26.0712 130.846 25.92C130.904 25.827 130.967 25.7397 131.037 25.6525C131.049 25.6409 131.06 25.6234 131.066 25.6118C131.136 25.5071 131.194 25.3792 131.31 25.3152C131.472 25.2047 131.687 25.2919 131.768 25.449Z" fill="#5D2B9D"/>
<path d="M142.287 25.1899C142.508 25.3469 142.734 25.6027 142.618 25.8876C142.589 25.9516 142.554 26.0097 142.502 26.0504C142.438 26.0853 142.374 26.1202 142.311 26.1551C142.015 26.2249 141.638 26.3528 141.383 26.4342C140.71 26.6668 140.043 26.9226 139.37 27.1377C138.738 27.2598 138.094 27.3471 137.456 27.4052C136.337 27.4982 135.201 27.7017 134.075 27.5389C133.843 27.5099 133.611 27.475 133.385 27.4343C132.614 27.2017 131.901 26.7831 131.089 26.6784C131.019 26.6668 130.95 26.6551 130.886 26.6493C130.845 26.6435 130.81 26.6377 130.77 26.6319C130.631 26.6203 130.613 26.4051 130.752 26.376C130.787 26.3644 130.822 26.3528 130.857 26.3586C130.781 26.2074 130.787 26.0563 130.845 25.9167C130.886 25.8179 130.95 25.7248 131.037 25.6492C131.17 25.5271 131.338 25.4457 131.506 25.4341C131.593 25.4341 131.68 25.4341 131.767 25.4457C132.405 25.4864 133.043 25.6376 133.693 25.6667C134.957 25.876 136.233 25.8411 137.503 25.7306C137.857 25.7074 138.187 25.5737 138.529 25.5155C139.098 25.4748 139.654 25.3353 140.165 25.0852C140.623 24.9166 141.087 24.8817 141.545 24.7422C141.858 24.7422 142.055 25.0271 142.287 25.1841V25.1899Z" fill="#5D2B9D"/>
<path d="M101.66 55.8337C102.338 58.142 101.695 60.526 101.126 62.782C100.999 63.8925 101.022 65.038 100.668 66.1078C100.599 66.2764 100.477 66.4334 100.309 66.509C100.007 66.573 99.7055 66.6137 99.4098 66.7183C99.114 66.7707 98.7776 66.9974 98.5398 66.7009C98.4645 66.6137 98.4239 66.4974 98.4297 66.3811C98.3601 66.0148 98.2963 65.6485 98.2151 65.2822C97.9193 63.9507 97.4901 62.6482 97.2002 61.3109C96.974 60.4736 96.9334 59.5666 96.5506 58.7758C95.9997 57.892 95.1472 57.1768 94.2019 56.7524C93.3958 56.4035 92.549 56.2872 91.7139 56.0895C91.6733 57.9327 91.6965 59.7759 91.8647 61.6133C91.9633 62.5785 92.1257 63.5378 92.1837 64.5089C92.2069 65.602 92.0735 66.6951 91.9691 67.7824C91.8183 68.9395 91.7835 70.1023 91.7951 71.2652C91.7081 72.4688 92.0097 74.9167 90.3162 75.0097C89.5565 75.0446 88.6808 74.9458 88.1589 74.3236C87.3238 73.1956 87.2368 71.7246 87.028 70.3814C86.7728 68.3696 86.6858 66.3462 86.6278 64.317C86.5176 62.3924 86.2219 60.4562 85.7115 58.5956C85.207 56.8628 84.1225 55.3744 83.5483 53.6765C83.3221 53.0253 83.2583 52.3392 83.2178 51.6531C83.1076 50.9961 83.1946 50.3042 83.3395 49.6646C83.3801 49.5657 83.4671 49.4843 83.5831 49.4611C83.6353 49.4494 83.6875 49.4611 83.7397 49.4727C83.7803 49.0192 84.2964 48.9785 84.6096 49.1936C85.1258 49.3331 85.6013 49.368 86.1175 49.4494C86.8946 49.5192 87.6833 49.4204 88.443 49.2576C89.255 49.0599 89.9973 48.6761 90.7454 48.3331C92.2997 47.5481 91.8241 48.6005 92.7868 49.3041C93.6567 49.8797 94.4107 50.5949 95.2052 51.2694C96.0229 51.9496 96.9682 52.4381 97.8845 52.973C98.6036 53.38 99.2996 53.8161 100.024 54.2056C100.715 54.572 101.474 55.008 101.66 55.8279V55.8337Z" fill="#5D2B9D"/>
<path d="M52.5014 61.8554C53.1393 66.2046 53.7193 71.9435 53.1104 76.031C48.8652 75.0368 50.4078 76.5601 49.6713 78.6882C49.6713 78.6882 44.5098 77.0776 42.5902 74.1878C42.0044 73.3099 42.0914 70.5247 42.2422 69.891C42.3698 69.3502 49.5379 70.3678 47.5197 66.2395C47.5197 66.2395 45.0201 68.1466 42.4046 67.885C42.4046 67.885 43.3151 64.8964 44.1038 62.6869C45.3101 59.297 51.2719 55.9421 52.5072 61.8554H52.5014Z" fill="#FDC82E"/>
<path d="M152.978 28.7025C153.077 28.8536 153.234 28.9699 153.257 29.1444C153.373 30.0572 152.259 30.3131 152.219 30.2898C151.21 31.1387 144.958 27.2663 143.821 26.365C143.288 30.2026 141.745 32.9993 139.332 35.7554C139.095 36.7555 136.38 34.6565 136.235 34.1971C134.844 33.1738 130.221 30.6561 132.071 27.4523C135.464 27.4233 139.831 27.8826 143.038 25.7138C142.539 25.3417 142.035 24.9754 141.588 24.5393C137.424 26.2022 133.173 25.7022 133.063 25.5161C132.564 24.6614 135.064 21.7135 136.682 20.2192C138.3 18.7249 139.06 17.4224 141.351 18.8063C144.703 20.5273 145.764 21.9635 148.959 25.2603C150.009 26.3418 152.567 28.0745 152.973 28.6966L152.978 28.7025Z" fill="#FDC82E"/>
<path d="M137.818 35.6449C137.308 36.7205 136.739 40.8023 136.757 42.0756C136.206 44.4886 126.753 53.1289 125.117 50.9776C125.007 50.8322 125.169 50.4019 125.256 50.1984C127.083 45.9713 129.942 44.2154 131.381 40.6802C132.639 36.6449 130.882 32.2201 132.053 31.0921C132.361 30.8014 134.112 32.6737 137.812 35.6449H137.818Z" fill="#A37AD4"/>
<path d="M88.4991 75.0113C88.4991 75.0113 88.4295 77.6627 89.4038 77.5929C90.3781 77.5231 91.944 76.6684 92.147 76.4707C92.35 76.273 93.533 75.1973 93.533 75.1973C93.533 75.1973 93.4229 74.2903 92.5587 74.8775C91.6946 75.4648 90.7609 76.0346 90.3143 75.0055C90.1056 74.5171 88.4991 75.0055 88.4991 75.0055V75.0113Z" fill="#FDC82E"/>
<path d="M98.7839 66.9951C98.7839 66.9951 98.5229 68.6638 99.0158 68.6638C99.5088 68.6638 101.95 68.315 102.438 67.844C102.925 67.373 103.731 66.0822 102.629 66.5183C101.527 66.9544 100.715 67.5416 100.529 66.6869L98.7839 67.0009V66.9951Z" fill="#FDC82E"/>
<path d="M148.785 13.2191C148.982 13.5854 149.533 14.0622 149.104 14.4459C148.884 14.6204 148.571 14.5273 148.437 14.2948C147.828 14.1785 147.213 13.9691 146.581 14.0215C146.431 14.475 146.123 14.8529 145.642 14.975C145.752 15.6786 145.155 16.4054 144.778 15.4635C144.662 15.5042 144.528 15.4925 144.412 15.446C144.412 15.446 144.412 15.446 144.407 15.446C144.783 17.4636 142.197 17.7485 142.783 16.1728C142.783 16.0333 142.8 15.8879 142.841 15.7542C141.223 11.8352 146.721 10.0211 148.785 13.2191Z" fill="#FFE496"/>
<path d="M149.424 17.2174C148.716 16.415 149.661 15.1417 148.96 14.5951C148.629 14.3334 146.304 13.3682 146.391 14.5544C145.573 14.6823 145.393 15.2405 145.579 16.0429C145.422 16.1417 145.306 16.0429 145.144 16.0545C144.123 14.4148 144.697 16.8104 144.106 17.1593C142.893 16.7523 141.229 17.1593 142.638 17.8337C143.415 18.0198 143.676 18.6768 144.297 19.0199C144.755 19.1013 144.842 18.5315 144.964 18.2117C145.26 19.2292 146.808 19.5257 147.817 19.4676C148.403 19.2234 148.322 18.0489 148.815 17.6768C149.116 17.8396 149.545 17.5953 149.429 17.2232L149.424 17.2174Z" fill="#9E616A"/>
<path d="M157.136 32.3818C156.776 32.2539 156.498 32.1434 156.156 32.0213C156.016 32.0969 155.802 32.0039 155.686 31.9574C155.077 31.7306 154.468 31.498 153.894 31.1899C153.621 31.0852 153.337 31.0038 153.047 30.9282C152.914 30.8933 152.78 30.8526 152.693 30.7363C152.612 30.6317 152.612 30.4689 152.682 30.3584C152.751 30.2537 152.879 30.213 152.943 30.0967C153.018 29.9979 153.076 29.8991 153.122 29.7886C153.198 29.6723 153.343 29.6025 153.482 29.6316C153.702 29.6607 153.882 29.8002 154.085 29.8932C154.509 30.027 155.007 30.1491 155.274 30.5328C155.442 30.591 155.605 30.6433 155.773 30.7014C156.098 30.62 156.428 30.6607 156.759 30.684C157.431 30.7421 158.203 30.7538 158.725 31.2364C159.235 31.5155 158.812 32.2481 158.313 31.9516C158.313 31.9516 158.313 31.9516 158.319 31.9516C158.33 31.9574 158.348 31.9632 158.359 31.9748C158.296 31.9341 158.226 31.9225 158.162 31.8876C158.023 31.8178 157.936 31.6899 157.779 31.6492C157.745 31.7073 157.692 31.7597 157.629 31.7946C157.791 32.1027 157.466 32.4981 157.13 32.376L157.136 32.3818Z" fill="#9E616A"/>
<path d="M88.8242 35.9246C87.9021 35.6804 84.318 33.8139 87.2004 33.9244C87.8963 33.9535 87.7165 32.1743 87.7165 32.1743C86.603 30.9416 86.6146 29.7613 88.337 30.1218C87.5077 28.7438 88.3196 27.9355 89.0968 27.4297C89.0968 27.4297 90.9236 28.3716 91.5035 28.8193C91.7819 29.0345 91.5615 29.8485 91.7993 30.3137C92.7562 32.1801 89.6071 32.6743 89.5375 33.1802C89.4331 33.9186 90.0537 36.3432 88.8242 35.9304V35.9246Z" fill="#DCA567"/>
<path d="M88.8851 47.07C88.5661 46.9304 88.5951 46.5409 88.7343 46.2792C88.4791 45.9594 88.6125 45.5233 88.4385 45.1861C87.8296 45.0756 88.0036 44.0174 88.6241 44.1511C88.6299 44.1453 88.6357 44.1395 88.6415 44.1337C88.7285 43.6976 89.1113 43.2383 89.5984 43.3662C89.9406 43.2441 90.2596 43.4418 90.5495 43.5929C90.9207 43.7034 90.9961 44.1511 91.1295 44.4651C91.2281 44.7965 91.4948 45.2384 91.1759 45.5233C91.1063 45.8664 90.9961 46.2327 90.6829 46.4362C90.2886 46.7153 89.8362 46.9246 89.3606 47.0002C89.2273 47.1049 89.0359 47.1514 88.8793 47.0758L88.8851 47.07Z" fill="#DCA567"/>
<path d="M51.1319 58.2392C51.0043 58.7858 47.0607 60.3964 49.1311 56.082C48.8933 54.0703 50.2852 53.9656 50.8187 54.6168C51.1319 55.0006 51.5378 55.7623 51.4219 54.1982C51.7988 52.4073 52.7383 51.7794 53.3125 52.1922C53.643 52.4306 54.0084 53.9423 54.1766 53.8086C55.0059 53.169 55.2205 54.7505 54.9247 55.0994C54.3274 55.8204 54.4318 56.1576 54.5187 56.5705C54.5187 56.5705 53.5908 59.6928 51.1319 58.2276V58.2392Z" fill="#FFCBAE"/>
<path d="M53.4727 80.1088C52.2201 76.184 53.6583 75.3584 49.1348 75.8991C50.2367 77.7307 49.8945 83.2544 52.0693 82.5915C52.1853 82.5566 52.4056 82.2194 52.539 82.7776C53.6351 82.7602 53.6293 80.917 53.4727 80.1146V80.1088Z" fill="#FFCBAE"/>
<path d="M40.9662 83.6351C40.8328 83.0652 41.1228 82.5012 41.204 81.9314C40.943 82.4257 40.4849 83.6874 39.8933 83.7804C39.4178 83.7223 39.6439 83.1815 39.7599 82.9024C39.8411 82.6582 39.9281 82.414 40.0209 82.1698C39.7135 82.5187 39.6961 83.0304 39.383 83.3676C39.209 83.5013 38.9248 83.3327 38.977 83.1118C39.2496 82.3733 39.4584 81.6116 39.8527 80.9255C40.1717 80.2394 40.4791 79.5533 40.8444 78.8905C41.0822 78.3555 41.3026 78.1869 41.8419 78.53C42.1609 78.53 42.3581 78.844 42.5785 79.03C42.7118 79.1289 42.8626 79.2219 42.9264 79.3789C43.1468 79.594 43.3208 79.9603 43.054 80.2103C43.17 80.8209 43.141 81.4546 42.9844 82.0535C42.909 82.2977 42.8974 82.6292 42.59 82.6873C42.3929 82.7338 42.1609 82.6117 42.1087 82.4082C42.0391 82.7047 41.9521 82.9955 41.8013 83.2629C41.7317 83.4374 41.6853 83.6351 41.5404 83.763C41.3722 83.92 41.0532 83.8676 40.9836 83.6292L40.9662 83.6351Z" fill="#FFCBAE"/>
<path d="M41.8015 76.8438L41.0996 78.2744L42.5672 79.0246L41.8015 76.8438Z" fill="#FDC82E"/>
<path d="M45.6016 103.802C45.9437 105.843 47.7474 107.703 48.7507 106.331C48.9072 106.116 50.7515 105.005 48.5187 105.18C45.6074 105.226 47.6372 102.744 45.6074 103.802H45.6016Z" fill="#5D2B9D"/>
<path d="M57.3203 95.6572C57.4827 96.4247 57.964 97.9248 58.3758 98.5877C58.9036 98.3202 61.5191 97.9772 60.4462 97.0876C58.1902 97.605 59.0833 95.1572 57.3203 95.663V95.6572Z" fill="#5D2B9D"/>
<path d="M124.998 51.1928C124.998 51.1928 124.024 52.6987 125.433 53.0883C126.842 53.4779 128.547 52.0126 128.547 52.0126C128.547 52.0126 127.422 51.9196 126.935 51.6463C126.448 51.373 125.74 51.1172 125.74 51.1172L124.998 51.1928Z" fill="#5D2B9D"/>
<path d="M142.232 41.3047L141.982 43.2293C141.982 43.2293 142.104 43.7409 143.177 43.9444C144.25 44.148 144.708 44.241 145.207 44.1131C145.706 43.9851 146.228 43.2293 145.346 43.0258C144.465 42.8223 143.305 42.7699 143.351 41.4093L142.238 41.3047H142.232Z" fill="#5D2B9D"/>
<path d="M33.5446 175.87C33.4228 175.759 33.4112 175.573 33.5214 175.451C34.1883 174.678 34.8378 173.899 35.4874 173.114C36.7574 171.526 38.2595 170.16 39.7441 168.776C41.2926 167.311 42.8526 165.857 44.4011 164.392C45.5784 163.281 46.7441 162.165 47.9155 161.049C49.7887 159.264 51.6678 157.479 53.5642 155.717C55.9361 153.676 58.3951 151.728 60.8773 149.815C63.4406 147.925 66.0967 146.158 68.6775 144.286C70.8059 142.791 73.0155 141.425 75.1786 139.995C78.2929 138.087 81.3724 136.093 84.7361 134.645C85.6814 134.227 86.6209 133.796 87.5778 133.413C89.4974 132.68 91.5098 132.192 93.5338 131.837C95.3723 131.505 97.2455 131.354 99.1013 131.151C101.056 130.808 103.016 130.459 104.936 129.982C107.099 129.482 109.134 128.61 111.141 127.668C115.183 125.86 118.79 123.377 122.195 120.586C122.844 120.028 123.523 119.493 124.155 118.917C124.178 118.894 124.207 118.871 124.23 118.842C123.337 118.58 122.537 118.121 121.586 117.312C120.536 116.429 119.718 115.306 119.005 114.144C118.268 112.998 117.549 111.841 116.935 110.626C116.314 109.288 115.247 107.346 115.798 105.852C115.572 105.625 115.369 105.381 115.206 105.108C115.183 105.073 115.154 105.038 115.131 105.003C115.108 104.974 115.102 104.939 115.096 104.91C115.067 104.846 115.032 104.782 115.009 104.713C114.986 104.631 114.963 104.544 114.945 104.457C114.893 104.521 114.841 104.579 114.789 104.637C114.65 104.788 114.499 104.928 114.354 105.067C114.139 105.259 113.925 105.451 113.71 105.643C113.379 105.934 113.055 106.224 112.73 106.515C112.73 106.515 112.724 106.515 112.724 106.521C112.655 106.591 112.579 106.655 112.504 106.724C111.982 107.201 111.454 107.678 110.921 108.149C110.41 108.597 109.882 109.027 109.36 109.463C108.833 109.899 108.293 110.318 107.737 110.713C106.681 111.457 105.579 112.143 104.448 112.76C103.283 113.393 102.076 113.957 100.841 114.446C99.6928 114.894 98.5156 115.272 97.3151 115.568C96.7409 115.708 96.161 115.83 95.5752 115.929C94.9025 116.045 94.224 116.132 93.5396 116.184C92.2174 116.295 90.8835 116.289 89.567 116.15C88.268 116.016 86.9747 115.76 85.7278 115.359C85.0667 115.149 84.4171 114.894 83.7908 114.603C83.1471 114.306 82.5207 113.963 81.906 113.603C81.4362 113.324 80.9781 113.021 80.5373 112.702C80.3691 112.579 80.2068 112.446 80.0444 112.318C79.9342 112.225 79.8182 112.138 79.708 112.05C79.6848 112.033 79.6616 112.015 79.6442 111.992C79.505 111.911 79.4586 111.707 79.5688 111.574C79.5688 111.545 79.5804 111.515 79.6036 111.486C79.6674 111.405 79.7892 111.399 79.8646 111.469C79.8646 111.469 79.8704 111.469 79.8704 111.475C79.882 111.486 79.8936 111.498 79.911 111.504C79.9284 111.515 79.9458 111.527 79.9632 111.539C79.969 111.545 79.9806 111.55 79.9922 111.562C80.0212 111.562 80.0444 111.562 80.0734 111.574C80.1198 111.585 80.1546 111.614 80.1894 111.643C80.2822 111.725 80.3807 111.795 80.4851 111.864C80.6475 111.981 80.8099 112.097 80.9723 112.213L80.9839 112.225C81.1173 112.312 81.2506 112.399 81.384 112.486C81.703 112.684 82.022 112.87 82.3525 113.05C82.3641 113.05 82.3699 113.062 82.3815 113.068C82.4395 113.103 82.4975 113.132 82.5613 113.161C82.6193 113.19 82.6773 113.219 82.7353 113.248C82.7527 113.26 82.7701 113.266 82.7875 113.277C82.8049 113.289 82.8223 113.295 82.8397 113.3C82.8977 113.33 82.9615 113.359 83.0253 113.388C83.4544 113.597 83.8778 113.777 84.2954 113.946L84.3359 113.963C85.1769 114.295 86.0352 114.574 86.8877 114.789L86.9283 114.801H86.9341C87.7634 115.01 88.5985 115.161 89.4452 115.26C90.3268 115.359 91.2083 115.399 92.0666 115.382C93.0525 115.365 94.0326 115.277 95.0069 115.132C96.0972 114.963 97.1759 114.719 98.2372 114.411C99.4667 114.045 100.673 113.603 101.827 113.085C102.975 112.574 104.095 111.992 105.185 111.353C105.469 111.184 105.753 111.015 105.985 110.87C106.53 110.533 107.058 110.184 107.592 109.829C108.172 109.445 108.74 109.056 109.308 108.649C109.552 108.474 109.79 108.288 110.027 108.102C110.288 107.899 110.544 107.695 110.793 107.498C111.326 107.062 111.848 106.602 112.347 106.125C112.602 105.887 112.846 105.643 113.095 105.399C113.171 105.323 113.246 105.247 113.327 105.172C113.611 104.87 113.89 104.567 114.18 104.271C114.284 104.166 114.394 104.067 114.505 103.968C114.557 103.922 114.615 103.875 114.673 103.829C114.719 103.794 114.771 103.765 114.818 103.73C114.835 103.718 114.853 103.707 114.87 103.695C114.882 103.683 114.893 103.672 114.905 103.666C114.957 102.544 115.554 101.34 116.668 101.172C116.25 100.578 116.041 99.8342 116.036 99.1074C116.007 99.0086 116.181 98.1829 116.198 98.1189C116.198 98.1131 116.198 98.1073 116.204 98.1015C116.407 97.5608 117.027 96.706 117.735 96.2234C118.036 95.9967 118.361 95.7874 118.669 95.5955C118.785 95.5373 118.901 95.4734 119.017 95.4152C119.115 95.3513 119.214 95.2815 119.312 95.2175C121.029 94.1128 122.949 93.3511 124.926 92.8511C126.933 92.2638 128.963 91.7754 131.027 91.4614C133.718 91.0021 136.409 90.5485 139.071 89.9845C140.921 89.5426 142.73 88.8042 144.511 88.1646C145.619 87.7169 146.732 87.2808 147.805 86.7517C149.029 86.0598 150.235 85.2632 151.302 84.362C152.259 83.4665 153.077 82.4025 153.599 81.1931C154.016 80.3558 154.416 79.5069 154.625 78.594C155.106 76.4892 154.492 74.2971 153.338 72.5179C152.659 71.733 151.662 71.2446 150.635 71.0701C150.577 71.0469 150.519 71.0294 150.461 71.012C150.368 70.9829 150.275 70.9538 150.183 70.948C150.055 70.948 149.927 70.9655 149.8 70.9829C148.205 70.8376 146.674 71.0934 145.126 71.4364C143.426 71.7388 141.762 72.1284 140.121 72.6633C138.276 73.3494 136.426 73.9832 134.553 74.5472C134.536 74.5472 134.518 74.5472 134.495 74.5588C134.455 74.5704 134.408 74.5821 134.368 74.5995C134.344 74.6111 134.315 74.6228 134.292 74.6344C134.263 74.6402 134.234 74.6518 134.205 74.6576C134.205 74.6576 134.176 74.6635 134.159 74.6693C134.159 74.6693 134.124 74.6809 134.107 74.6809C134.107 74.6809 134.083 74.6867 134.066 74.6925C134.025 74.6983 133.991 74.71 133.956 74.7216C133.944 74.7216 133.933 74.7274 133.921 74.7332C132.541 75.1402 131.155 75.5066 129.751 75.8205C127.785 76.3148 125.86 76.7915 123.859 77.0765C122.85 77.1927 121.841 77.2974 120.826 77.3788C120.785 77.3904 120.739 77.3962 120.693 77.3904C119.712 77.466 118.732 77.5125 117.752 77.53C115.102 77.5823 112.452 77.3207 109.801 77.2625C108.351 77.2451 106.907 77.1811 105.457 77.123C104.994 77.1055 104.535 77.0881 104.071 77.059C103.619 77.059 103.184 77.152 102.738 77.1579C102.714 77.1695 102.674 77.1695 102.656 77.1462C102.633 77.1172 102.645 77.0706 102.68 77.0532C104.112 76.5183 105.649 76.5241 107.157 76.5473C108.647 76.5706 110.172 76.6578 111.651 76.7101C113.032 76.809 114.441 76.873 115.815 76.9253C117.265 76.9253 118.715 76.8788 120.165 76.8032C119.84 76.1578 119.591 75.1693 119.434 74.7565C119.133 73.7971 118.912 72.8145 118.854 71.8086C118.796 71.1341 118.866 70.4422 118.779 69.7793C118.819 69.634 119.011 69.6805 119.022 69.82C119.225 70.9829 119.469 72.1574 119.741 73.3029C119.944 74.1402 120.113 74.9542 120.42 75.7624C120.542 76.0473 120.658 76.338 120.809 76.6113C120.832 76.6636 120.867 76.7102 120.901 76.7625C121.162 76.745 121.423 76.7276 121.684 76.7101C121.684 76.5706 121.852 76.4776 121.968 76.3962C122.299 76.1171 122.595 75.8031 122.914 75.5124C124.004 74.4716 125.048 73.3785 126.04 72.2388C126.48 71.733 126.985 71.2562 127.316 70.6689C127.472 70.4771 127.803 70.634 127.756 70.8783C127.594 71.2097 127.362 71.5178 127.165 71.8318C125.895 73.6052 124.543 75.4077 122.676 76.5939C122.653 76.6055 122.624 76.6171 122.595 76.6404C124.845 76.4776 127.049 75.8729 129.224 75.3438C130.847 74.96 132.448 74.4948 134.037 74.0064C134.159 73.8262 134.281 73.6401 134.414 73.4599C134.884 72.8145 135.383 72.1865 135.875 71.5644C137.998 68.7618 140.619 66.3837 143.438 64.2905C145.914 62.4473 148.414 60.6274 151.047 59.0168C154.283 57.1155 157.85 55.8828 161.3 54.4234C163.121 53.6035 164.977 52.9174 166.699 51.9057C168.265 50.9638 169.686 49.8125 171.066 48.6205C171.994 47.8123 172.963 47.0506 173.862 46.2134C174.447 45.661 174.998 45.0796 175.578 44.533C176.24 43.969 176.843 43.3352 177.353 42.6317C178.055 41.6432 178.82 40.6722 179.18 39.4977C179.58 38.3581 179.766 37.0498 179.081 35.9858C178.472 34.945 177.463 34.5205 176.321 34.3112C174.517 33.9391 172.713 34.4333 171.014 35.0031C168.921 35.7008 166.815 36.3463 164.716 37.0207C162.187 37.8696 159.584 38.4743 157.101 39.4512C154.938 40.2187 152.804 41.0792 150.676 41.9397C149.145 42.6433 147.608 43.3352 146.059 44.0039C143.966 44.8586 141.936 45.8529 139.894 46.8239C136.548 48.2659 133.353 50.0102 130.088 51.615C127.75 52.7546 125.402 53.871 123.065 55.0164C121.568 55.7258 120.043 56.3712 118.576 57.1387C115.827 58.4877 113.298 60.1332 110.793 61.8775C109.094 63.1334 107.371 64.3544 105.672 65.6104C105.231 65.8953 104.791 66.1918 104.361 66.5C103.503 67.4303 102.436 68.1745 101.427 68.9188C99.6464 70.3724 97.953 71.9307 96.219 73.4366C95.3491 74.175 94.4444 74.867 93.586 75.6112C92.7741 76.3438 91.9796 77.0939 91.1503 77.8091C88.6217 79.9546 86.1628 82.1757 83.7386 84.4375C79.4702 88.3449 75.1555 92.2638 70.2027 95.2989C69.2284 95.9327 68.2657 96.5781 67.2566 97.1479C65.7198 98.0201 64.1017 98.7469 62.4837 99.4679C59.6594 100.642 56.8757 101.904 54.2021 103.398C52.5435 104.369 51.0066 105.544 49.4524 106.678C47.6256 108.062 45.9089 109.591 44.0705 110.969C42.6787 111.981 41.223 112.893 39.7557 113.789C36.8096 115.556 33.7417 117.109 30.6332 118.574C27.1942 120.127 23.6739 121.563 20.1943 123.011C18.64 123.668 17.0626 124.284 15.4909 124.9C12.5796 126.162 9.6799 127.447 6.75699 128.674C5.48112 129.162 4.24584 129.744 2.98156 130.25C2.69159 130.354 2.39582 130.465 2.10005 130.564C2.00726 130.581 1.90867 130.529 1.86227 130.441C1.81008 130.331 1.86227 130.197 1.96666 130.145C2.98736 129.674 4.00806 129.209 5.02876 128.738C7.17455 127.837 9.30874 126.895 11.4545 125.988C12.539 125.534 13.5945 125.028 14.6732 124.557C16.0651 123.958 17.4163 123.458 18.7792 122.854C22.4444 121.237 26.1503 119.725 29.8039 118.08C35.6961 115.237 41.5826 112.172 46.5585 107.876C48.8318 106.032 51.1632 104.23 53.6686 102.707C56.4523 101.125 59.381 99.8284 62.3329 98.5899C64.4845 97.6363 66.6245 96.6304 68.5905 95.3222C69.7156 94.5779 70.8581 93.8744 71.9832 93.1301C75.341 90.7462 78.5075 88.0948 81.5464 85.3155C83.6922 83.4375 85.722 81.4315 87.8678 79.5534C90.6631 77.1404 93.4585 74.7391 96.3872 72.4947C97.2455 71.7911 98.1038 71.0992 98.9737 70.4131C99.3681 70.0584 99.7392 69.6805 100.145 69.3316C101.496 68.1745 102.859 67.0175 104.269 65.9302C105.243 65.2382 106.2 64.5463 107.133 63.8137C108.601 62.7671 110.051 61.6972 111.524 60.6565C113.026 59.6796 114.522 58.6795 116.076 57.7841C117.254 57.098 118.489 56.5224 119.707 55.9119C121.632 55.0223 123.569 54.1733 125.471 53.2372C125.361 53.2023 125.251 53.1616 125.152 53.1209C124.062 52.7546 124.427 51.7022 124.886 50.9521C124.862 50.83 125.036 50.7661 125.1 50.8707C125.123 50.9056 125.123 50.9521 125.106 50.987C125.077 51.1324 125.042 51.2778 125.013 51.4231C124.978 51.5859 124.944 51.7487 124.897 51.8825C124.874 52.0336 124.764 52.1964 124.822 52.3476C124.886 52.4697 125.042 52.5511 125.152 52.6093C125.454 52.743 125.767 52.8651 126.086 52.9232C126.086 52.9232 126.098 52.9232 126.103 52.9232C126.782 52.5976 127.466 52.2837 128.151 51.9639C127.762 51.929 127.379 51.8766 127.002 51.7894C126.62 51.7487 126.318 51.6266 126.393 51.1789C126.417 51.0742 126.573 51.0626 126.602 51.1673C126.614 51.2312 126.62 51.301 126.649 51.3592C126.817 51.4754 127.089 51.3882 127.287 51.4696C127.901 51.5278 128.516 51.5568 129.131 51.4987C129.595 51.2778 130.059 51.051 130.517 50.8126C133.73 49.1206 136.983 47.4984 140.312 46.0447C142.835 44.7772 145.416 43.6259 148.014 42.5561C150.2 41.5386 152.427 40.6141 154.671 39.7244C156.324 39.0965 157.977 38.4685 159.665 37.9452C161.364 37.4045 163.092 36.9568 164.78 36.387C167.268 35.6253 169.75 34.8461 172.226 34.0437C173.427 33.7007 174.685 33.4623 175.938 33.6367C177.336 33.7995 178.669 34.1309 179.505 35.3752C180.444 36.5905 180.299 38.2243 179.795 39.5965C179.435 40.8059 178.722 41.8409 178.014 42.8759C177.452 43.7132 176.761 44.44 176.002 45.1028C175.445 45.6319 174.94 46.1901 174.389 46.7192C173.415 47.6379 172.365 48.4752 171.362 49.3532C169.332 51.1382 167.1 52.7197 164.617 53.8187C161.074 55.4351 157.397 56.7491 153.871 58.3946C151.882 59.3075 150.032 60.482 148.228 61.7205C146.088 63.1683 144.076 64.7963 142.081 66.4302C140.95 67.4128 139.778 68.378 138.729 69.4421C139.094 69.5816 139.442 69.7968 139.784 69.9538C140.445 70.2852 141.089 70.5585 141.785 70.7969C142.255 70.9538 142.748 71.0294 143.212 71.1981C143.658 71.105 144.111 71.0178 144.557 70.9364C145.584 70.7213 146.61 70.4945 147.648 70.3724C150.032 70.1805 153.425 70.5178 154.405 73.0703C154.845 73.9948 155.222 74.96 155.356 75.9833C155.46 76.9602 155.437 77.9719 155.217 78.9313C155.327 79.001 155.425 79.1173 155.472 79.2336C155.889 80.036 156.011 80.9024 156.318 81.7338C156.62 82.8269 157.061 83.9201 157.003 85.0771C157.032 86.1295 156.521 87.0657 156.115 88.0076C155.402 89.4961 154.474 90.8741 153.303 92.0428C152.421 92.8743 151.511 93.6767 150.583 94.45C149.765 95.1652 148.918 95.8339 148.06 96.4909C148.211 96.7467 148.292 97.0316 148.356 97.3165C148.385 97.3805 148.402 97.4328 148.42 97.4561C149.359 100.067 149.846 103.893 148.048 106.224C148.031 106.253 148.008 106.282 147.99 106.312C147.903 106.428 147.811 106.532 147.712 106.637C147.092 107.335 146.32 107.864 145.561 108.376C144.563 109.015 143.484 109.527 142.365 109.916C142.406 110.114 142.411 110.335 142.435 110.451C142.603 112.039 142.33 113.673 141.669 115.115C141.431 115.702 141.043 116.196 140.573 116.603C140.48 116.702 140.382 116.801 140.283 116.894C139.993 117.15 139.668 117.353 139.32 117.528C139.222 117.592 139.117 117.655 139.013 117.714C138.508 117.987 137.928 118.121 137.372 118.237C136.31 118.464 135.238 118.656 134.165 118.801C133.341 118.888 132.518 118.981 131.694 119.01C130.076 119.132 128.446 119.394 126.817 119.243C126.022 119.202 125.35 119.144 124.735 119.01C124.619 119.22 124.445 119.4 124.306 119.58C123.998 119.923 123.662 120.249 123.331 120.574C122.792 121.103 122.235 121.615 121.649 122.092C118.402 124.761 114.829 127.046 110.973 128.732C109.627 129.343 108.276 129.97 106.855 130.389C105.608 130.755 104.35 131.087 103.068 131.331C101.868 131.552 100.673 131.808 99.4725 132.011C96.8801 132.325 94.2762 132.506 91.7418 133.122C89.7816 133.558 87.8736 134.186 86.0584 135.046C83.3616 136.174 80.7925 137.582 78.3103 139.128C76.5299 140.192 74.7785 141.309 73.0561 142.46C70.6377 143.972 68.3237 145.629 66.004 147.28C61.8806 150.083 57.937 153.141 54.1557 156.386C52.5725 157.862 50.995 159.351 49.4234 160.839C45.5088 164.537 41.6116 168.253 37.6795 171.933C36.7052 172.91 35.8353 173.992 34.8784 174.992C34.571 175.317 34.2463 175.62 33.9215 175.922C33.8809 175.957 33.8345 175.98 33.7823 175.992C33.6953 176.009 33.5967 175.98 33.533 175.922L33.5446 175.87ZM116.308 106.887C116.384 107.41 116.5 107.928 116.668 108.434C116.952 109.097 117.248 109.759 117.549 110.416C118.083 111.562 118.756 112.626 119.48 113.661C120.211 114.673 120.936 115.673 121.881 116.493C122.734 117.237 123.61 118.08 124.775 118.254C126.434 118.702 128.162 118.516 129.85 118.4C131.108 118.318 132.378 118.179 133.608 118.039C135.035 117.911 136.438 117.603 137.841 117.307C138.526 117.132 139.204 116.894 139.784 116.493C140.289 116.074 140.811 115.603 141.089 115.004C141.478 114.149 141.594 113.196 141.791 112.283C141.826 111.963 141.884 111.649 141.93 111.329C141.959 110.893 141.965 110.451 141.971 110.015C141.692 110.103 141.408 110.184 141.124 110.26C140.689 110.289 140.26 110.347 139.831 110.411C139.349 110.504 138.862 110.585 138.375 110.655C136.838 110.841 135.296 110.957 133.747 111.033C132.912 111.085 132.077 111.132 131.248 111.126C130.349 111.155 129.456 111.3 128.557 111.341C127.176 111.376 125.802 111.463 124.422 111.405C123.308 111.422 122.403 110.754 121.475 110.23C120.872 109.864 120.258 109.521 119.695 109.097C118.866 108.445 118.065 107.753 117.236 107.102C116.923 106.817 116.581 106.544 116.256 106.259C116.256 106.468 116.297 106.684 116.331 106.899L116.308 106.887ZM124.306 110.748C126.933 110.69 129.571 110.51 132.193 110.376C135.823 110.23 139.523 110.103 142.968 108.864C144.563 108.288 146.019 107.329 147.266 106.189C147.909 105.445 148.234 104.48 148.35 103.515C148.483 102.823 148.559 102.125 148.472 101.427C148.408 100.642 148.362 99.8516 148.211 99.0783C148.112 98.5899 147.99 98.1015 147.822 97.6305C147.701 97.3863 147.596 97.1305 147.556 96.8572V96.8456C146.923 97.3224 146.297 97.7933 145.671 98.2759C145.207 98.6481 144.696 98.9679 144.203 99.2935C143.461 99.7877 142.754 100.328 142.005 100.811C141.257 101.253 140.532 101.736 139.738 102.084C138.938 102.41 138.097 102.619 137.244 102.759C136.467 102.881 135.69 102.91 134.907 102.898C134.501 102.916 134.095 102.922 133.689 102.916C132.402 103.032 131.114 103.114 129.815 103.119C128.394 103.096 126.973 102.997 125.547 103.015C123.963 103.038 122.398 102.875 120.832 102.712C120.211 102.602 119.515 102.584 118.906 102.48C118.761 102.445 118.616 102.398 118.471 102.352C118.019 102.259 117.59 102.102 117.225 101.794C117.12 101.706 117.022 101.613 116.929 101.509C116.906 101.567 116.865 101.619 116.795 101.648C115.705 102.09 115.264 103.422 115.589 104.503C115.74 104.939 116.088 105.3 116.413 105.608C116.935 106.073 117.462 106.527 118.007 106.963C118.176 107.091 118.338 107.219 118.506 107.358C118.506 107.358 118.506 107.358 118.512 107.364C119.162 107.858 119.811 108.341 120.443 108.841C120.727 109.062 121.023 109.283 121.319 109.486C121.481 109.585 121.644 109.69 121.812 109.789C122.015 109.899 122.206 110.015 122.403 110.137C122.624 110.236 122.844 110.347 123.07 110.44C123.094 110.451 123.117 110.457 123.146 110.469C123.244 110.51 123.656 110.707 124.317 110.748H124.306ZM127.252 102.265C127.466 102.276 127.681 102.288 127.895 102.294C128.04 102.294 128.185 102.294 128.33 102.294C128.481 102.294 128.638 102.294 128.789 102.305C129.102 102.311 129.409 102.305 129.722 102.317C129.873 102.317 130.024 102.323 130.175 102.323C130.325 102.323 130.482 102.323 130.633 102.305C130.795 102.294 130.952 102.288 131.114 102.282C131.265 102.282 131.422 102.282 131.572 102.282C131.746 102.282 131.926 102.276 132.1 102.27C132.251 102.27 132.402 102.282 132.552 102.282C132.889 102.282 133.225 102.282 133.562 102.282C133.822 102.282 134.089 102.294 134.356 102.3C134.762 102.253 135.168 102.207 135.574 102.154H135.672C135.777 102.143 135.887 102.143 135.991 102.137C136.148 102.125 136.305 102.102 136.461 102.079C136.554 102.067 136.653 102.05 136.745 102.038C137.024 102.015 137.302 101.997 137.581 101.974C138.271 101.811 138.943 101.596 139.61 101.358C141.101 100.608 142.394 99.5202 143.78 98.6074C144.969 97.8108 146.111 96.9444 147.248 96.0839C148.553 95.1245 149.829 94.1302 151.029 93.0429C152.943 91.5195 154.718 89.6938 155.617 87.3797C155.942 86.5947 156.324 85.7981 156.318 84.9318C156.388 84.1177 156.156 83.3212 155.907 82.5537C155.855 82.3792 155.802 82.2048 155.744 82.0304C155.541 81.571 155.327 81.1117 155.153 80.6465C155.072 80.3849 154.985 80.1174 154.921 79.8558C153.975 82.042 152.7 84.1875 150.716 85.5656C149.423 86.5249 148.13 87.4669 146.633 88.0774C145.497 88.5716 144.325 88.9496 143.189 89.3798C142.249 89.752 141.31 90.1473 140.341 90.4381C137.969 91.1183 135.516 91.4963 133.063 91.8742C130.766 92.2289 128.464 92.5836 126.225 93.1883C125.129 93.4848 124.01 93.7232 122.937 94.107C121.325 94.7582 119.741 95.5083 118.292 96.4735C117.903 96.77 117.509 97.0665 117.196 97.4154C116.958 97.7468 116.772 98.1073 116.714 98.5085C116.703 98.6888 116.708 98.8632 116.72 99.0434C117.201 98.7353 117.845 98.5376 118.292 98.3864C118.669 98.2643 119.051 98.1713 119.44 98.1073C120.066 98.0027 120.704 97.9561 121.336 97.9445C121.754 97.9329 122.171 97.9678 122.572 98.0492C123.447 98.148 124.329 98.4271 124.938 99.0667C125.158 99.2586 125.344 99.4911 125.489 99.7528C125.628 99.9447 125.755 100.142 125.842 100.357C126.028 100.811 126.109 101.323 126.092 101.811C126.063 101.916 126.057 102.044 126.04 102.166C126.04 102.166 126.051 102.166 126.057 102.166C126.057 102.172 126.069 102.183 126.08 102.183C126.086 102.183 126.098 102.183 126.109 102.183C126.144 102.183 126.179 102.183 126.208 102.189C126.272 102.189 126.335 102.206 126.399 102.212C126.463 102.218 126.527 102.224 126.591 102.23C126.805 102.241 127.014 102.247 127.229 102.259L127.252 102.265ZM125.257 102.241C125.257 102.241 125.257 102.241 125.263 102.241C125.286 102.236 125.309 102.218 125.315 102.195C125.315 102.183 125.315 102.172 125.315 102.166C125.315 102.166 125.326 102.166 125.332 102.166C125.332 102.096 125.338 102.026 125.35 101.962C125.35 101.759 125.361 101.555 125.361 101.346C125.303 101.09 125.234 100.834 125.141 100.596C124.926 100.177 124.659 99.747 124.323 99.4039C124.265 99.5725 124.201 99.747 124.161 99.9214C124.021 100.491 123.969 101.038 124.068 101.613C124.108 101.799 124.091 101.98 124.097 102.148C124.097 102.183 124.097 102.218 124.085 102.247C124.097 102.247 124.103 102.247 124.114 102.247C124.114 102.247 124.114 102.247 124.12 102.247C124.143 102.253 124.161 102.253 124.184 102.259C124.219 102.259 124.253 102.259 124.288 102.259C124.358 102.259 124.427 102.259 124.497 102.265C124.567 102.265 124.642 102.265 124.712 102.265C124.758 102.265 124.799 102.265 124.845 102.265C124.897 102.265 124.944 102.265 124.996 102.253C124.996 102.253 125.031 102.253 125.042 102.253C125.042 102.253 125.094 102.247 125.118 102.241C125.147 102.241 125.181 102.241 125.21 102.236C125.222 102.236 125.234 102.236 125.245 102.236L125.257 102.241ZM117.393 99.3167C117.196 99.3923 116.998 99.4795 116.807 99.5609C116.923 100.096 117.143 100.608 117.451 101.055C117.781 101.456 118.303 101.637 118.773 101.823C119.451 102.067 120.194 102.026 120.896 102.137C120.994 102.148 121.093 102.154 121.191 102.16C121.945 102.206 122.699 102.23 123.453 102.241C123.453 102.23 123.441 102.218 123.441 102.212C123.25 101.689 123.221 101.131 123.326 100.584C123.36 100.369 123.424 100.16 123.499 99.9563C123.534 99.7121 123.702 99.2935 123.923 99.0551C123.836 98.9911 123.743 98.933 123.644 98.8806C123.621 98.8748 123.604 98.8632 123.581 98.8574C123.273 98.7353 122.954 98.6539 122.63 98.5957C122.386 98.5608 122.142 98.5318 121.893 98.5143C121.116 98.4736 120.327 98.555 119.579 98.6888C119.544 98.6946 119.509 98.7004 119.475 98.7062C118.761 98.8283 118.071 99.0667 117.398 99.3225L117.393 99.3167ZM138.01 70.1921C137.082 71.2097 136.229 72.3493 135.394 73.4308C135.342 73.4948 135.296 73.5645 135.243 73.6343C135.951 73.4075 136.658 73.1808 137.36 72.9598C138.497 72.611 139.581 72.1051 140.73 71.7853C141.147 71.6516 141.565 71.5411 141.988 71.4364C141.791 71.3841 141.594 71.326 141.402 71.2736C140.735 71.0643 140.068 70.8434 139.454 70.5003C139.048 70.3259 138.665 70.1107 138.311 69.8491C138.207 69.9596 138.108 70.07 138.01 70.1863V70.1921Z" fill="black"/>
<path d="M151.905 74.7441C151.905 74.7441 151.906 74.7328 151.9 74.7271C151.9 74.7158 151.888 74.7045 151.883 74.6875C151.883 74.6932 151.883 74.6988 151.894 74.7045C151.894 74.7101 151.9 74.7215 151.905 74.7271C151.905 74.7271 151.905 74.7271 151.905 74.7328C151.905 74.7328 151.905 74.7328 151.905 74.7271C151.905 74.7271 151.905 74.7215 151.905 74.7158C151.905 74.7215 151.911 74.7328 151.917 74.7385L151.905 74.7441Z" fill="black"/>
<path d="M53.1656 51.7924C51.5823 49.3038 48.41 51.2284 47.9287 50.4028C47.0762 47.5828 43.034 50.5365 44.0547 52.5541C44.4084 53.246 46.1425 53.7752 46.1425 53.7752C46.0381 55.0543 47.1632 57.008 48.323 57.4034C49.9005 57.9383 47.9287 52.3622 51.2112 55.1706C51.6461 51.9785 52.951 52.9902 53.1656 51.7866V51.7924ZM51.1126 51.5773C51.1126 51.5773 51.0952 51.618 51.0836 51.6413C51.0604 51.5889 51.0372 51.5308 51.1126 51.5773Z" fill="#3F3D56"/>
<path d="M143.875 74.9047C143.875 74.9047 143.875 74.8809 143.875 74.875C143.893 74.875 143.911 74.875 143.928 74.875C143.958 74.875 143.988 74.8809 144.017 74.8869C144.017 74.9225 143.994 74.9521 143.958 74.9581C143.922 74.9581 143.881 74.9403 143.875 74.8987V74.9047Z" fill="black"/>
<path d="M144.007 75.2396C143.844 75.2396 143.92 75.0535 144.018 74.8906C144.076 74.8964 144.134 74.9139 144.192 74.9197C144.152 74.9837 144.117 75.0476 144.082 75.1116C144.111 75.1581 144.082 75.2221 144.024 75.2337H144.013L144.007 75.2396Z" fill="black"/>
<path d="M146.197 82.2123C139.441 78.4853 144.289 72.2406 149.897 72.0312C154.739 76.0548 152.246 83.3462 146.197 82.2123Z" fill="#E1CBF1"/>
<path d="M145.087 81.7602C143.261 80.1845 141.805 76.94 144.055 75.2422C146.508 75.9981 147.198 80.1903 145.087 81.7602Z" fill="#A37AD4"/>
<path d="M150.102 81.8438C150.096 81.8438 150.091 81.849 150.086 81.8542C150.091 81.8542 150.102 81.849 150.107 81.8438H150.102Z" fill="black"/>
<path d="M152.976 76.8033C152.866 75.7276 152.35 74.7682 151.822 73.8495C151.375 73.0297 150.807 72.1575 149.937 71.7505C149.583 71.5935 149.195 71.6342 148.818 71.6924C148.313 71.7505 147.832 71.9075 147.368 72.111C146.417 72.5703 145.524 73.175 144.718 73.8553C142.386 75.8148 142.467 77.6231 143.024 79.2744C143.291 80.0652 143.674 80.821 144.225 81.4548C144.764 82.0828 145.431 82.4142 146.167 82.5538C146.179 82.5538 146.191 82.5596 146.202 82.5654C146.231 82.5712 146.26 82.577 146.283 82.577C148.516 82.8968 150.378 82.0886 151.352 81.1583C151.764 80.7687 152.129 80.3326 152.402 79.8326C153.011 78.943 153.063 77.8557 152.976 76.8091V76.8033ZM145.211 81.4839C145.211 81.4839 143.419 80.0535 143.268 77.8673C143.221 77.2161 143.326 76.5707 143.633 75.9544C144.051 75.2334 144.544 75.745 144.544 75.745C147.385 77.9371 145.292 81.3618 145.211 81.4839ZM152.106 78.6813C151.219 81.6816 148.052 82.0363 148.046 82.0363H148.041C148.041 82.0363 148.041 82.0363 148.035 82.0363C147.594 82.1467 147.159 82.1177 146.713 82.0246C146.428 81.9781 146.144 81.9025 145.86 81.7979C145.912 81.6583 145.959 81.5188 146.011 81.3792C146.185 81.0536 146.312 80.6931 146.365 80.5303C146.469 80.2047 146.55 79.8675 146.602 79.5302C146.66 79.2453 146.695 78.9546 146.689 78.6581C146.684 78.5069 146.666 78.3615 146.637 78.2162C146.614 78.0359 146.585 77.8615 146.544 77.6871C146.278 76.5532 145.402 75.3671 144.422 75.0066C144.451 74.9775 145.605 73.8612 147.014 73.0239C147.872 72.5122 148.557 72.2389 149.415 72.1982C150.047 72.1691 150.708 73.2332 150.9 73.5123C151.891 74.995 152.634 76.8963 152.112 78.6755L152.106 78.6813Z" fill="black"/>
<path d="M133.599 23.3107C133.042 23.8979 132.485 24.4852 131.928 25.0725C132.183 25.0899 132.473 25.1422 132.7 25.1771C132.949 24.5259 133.268 23.9154 133.599 23.3049V23.3107ZM137.461 35.6373C135.489 34.3523 133.744 32.7359 132.067 31.0962C132.421 44.8009 130.618 40.254 125.178 50.7025V50.6851C125.178 50.6851 125.178 50.6851 125.178 50.6793C125.178 50.7025 125.184 50.7316 125.189 50.7549C125.218 50.7665 125.236 50.7956 125.247 50.8421C128.994 51.1968 135.089 44.8707 135.93 43.3996C137.618 40.4517 136.469 38.2015 137.467 35.6431L137.461 35.6373ZM138.859 18.223C138.737 18.1882 138.621 18.1475 138.493 18.1126C138.25 18.38 138 18.6417 137.751 18.9033C138.105 18.6475 138.464 18.4091 138.853 18.2172L138.859 18.223ZM142.443 25.7876C142.129 25.5144 141.84 25.212 141.573 24.8864C138.487 26.1656 134.724 26.4098 131.511 25.5202C131.227 25.8225 130.937 26.1132 130.652 26.4156C134.468 27.7704 138.806 27.6134 142.443 25.7876ZM143.637 26.9563C143.661 26.8517 143.678 26.7412 143.713 26.6365C143.458 26.5144 143.22 26.3691 142.988 26.2121C139.682 27.7646 135.796 28.3402 132.218 27.468C131.888 27.9855 131.731 28.8286 131.818 29.3984C132.073 31.102 137.072 34.8 138.569 35.6896C138.87 35.8699 139.259 35.8001 139.479 35.5327C141.538 33.0499 143.034 30.1543 143.643 26.9563H143.637ZM141.909 13.4145C141.909 13.4145 141.955 13.368 141.973 13.3447C139.247 9.44904 136.376 5.66383 133.697 1.73327C131.644 3.71599 129.562 5.68128 127.492 7.63493C122.69 11.99 118.387 16.8857 113.509 21.1593C117.702 24.148 122.04 26.9389 126.1 30.1078C126.106 30.1078 126.111 30.1194 126.117 30.1194C131.221 24.4038 136.574 18.915 141.892 13.4029L141.909 13.4145ZM142.39 15.3449C142.361 14.903 142.286 14.4437 142.303 13.9959C141.445 14.9204 140.598 15.8507 139.74 16.7752C140.25 16.7811 140.656 16.8392 141.161 16.9729C141.637 17.1009 142.153 16.9613 142.466 16.5834C142.466 16.5834 142.466 16.5834 142.472 16.5776C142.501 16.5427 142.541 16.5194 142.582 16.5078C142.39 16.1531 142.39 15.7403 142.396 15.3449H142.39ZM147.001 22.7641C146.589 21.7117 145.029 19.6476 143.823 18.7231C142.448 17.6707 140.72 17.0078 139.526 17.0078C139.201 17.0078 138.905 17.5835 138.685 17.8218C139.85 17.9323 141.955 18.7696 143.458 19.886C145.244 21.2175 146.995 22.7641 146.995 22.7641H147.001ZM146.937 32.2591C146.653 30.195 144.919 30.0147 143.69 29.2937C142.959 30.9858 142.431 32.451 141.37 33.9046C141.515 33.9569 141.7 34.0325 141.822 34.1256C141.811 33.8872 142.1 32.7417 142.147 33.3697C141.927 36.0676 141.648 37.4921 141.584 39.4342C141.903 41.6262 143.255 41.6611 144.061 40.3354C145.041 38.719 147.175 33.9802 146.937 32.2533V32.2591ZM147.941 14.0541C150.771 15.2112 147.871 11.5422 146.172 11.8388C143.597 11.3155 142.193 13.6354 143.034 15.9147C143.092 16.2287 143.104 16.4555 142.883 16.6648C142.889 16.688 142.889 16.7229 142.883 16.752C143.892 17.1532 144.235 16.6938 144.2 15.6996C144.426 14.9728 145.157 15.2402 145.325 15.8449C145.429 15.1821 145.244 14.5658 146.154 14.5483C146.357 13.7575 147.279 13.6994 147.935 14.0483L147.941 14.0541ZM151.554 27.5029C148.59 25.9272 144.948 19.6185 139.473 18.3917C136.608 19.8162 134.416 22.3048 133.181 25.2585C135.878 25.7237 138.69 25.369 141.277 24.5085C138.708 21.4791 151.211 32.8638 153.073 29.5903C153.143 29.4682 153.137 29.317 153.073 29.1891C152.899 28.7995 152.435 27.9739 151.554 27.5029ZM157.428 32.2359C157.713 32.1719 157.457 31.8405 157.469 31.6544C157.347 31.5672 156.698 31.4742 157.092 31.3521C157.701 31.2009 158.263 31.5149 158.785 31.7823C157.626 29.6368 156.599 32.0672 153.496 29.7066C153.293 30.0554 153.079 30.2997 152.847 30.5439C154.413 30.9916 155.816 31.9626 157.428 32.2417V32.2359ZM159.122 31.6079C159.47 32.4917 158.374 32.0905 157.939 31.9161C158.09 33.7592 153.264 31.166 152.342 30.8578C149.379 30.9334 146.856 28.2588 144.287 26.9622C144.281 27.5552 144.061 28.2879 143.8 28.9972C147.888 29.9624 147.964 32.9859 146.322 36.2246C145.516 38.0212 144.925 40.2889 143.446 41.6029C143.4 43.0217 146.276 42.2774 145.975 43.5857C145.632 43.7078 145.435 43.1554 145.052 43.138C144.264 42.9577 143.098 42.6263 143.255 41.6669C142.965 41.7309 142.657 41.6669 142.385 41.5681C142.396 43.231 141.625 43.4577 143.637 43.7717C144.235 43.9055 144.815 43.981 145.389 43.7485C145.859 44.9288 142.245 44.2078 141.915 43.574C141.683 42.8996 141.996 42.1146 142.124 41.4401C140.372 39.7656 141.782 36.7537 141.758 34.6082C141.544 34.55 141.364 34.3872 141.115 34.2709C140.291 35.3699 139.369 37.2363 137.89 35.9222C137.159 38.0271 137.763 40.3005 137.009 42.3995C135.06 46.6499 130.531 49.278 126.697 51.4003C127.324 51.7899 128.17 51.627 128.878 51.5922C129.777 52.2666 126.32 52.2085 126.454 51.3887C126.048 51.5922 125.584 51.4061 125.184 51.2724C124.488 52.569 125.561 53.2784 126.744 52.7085C126.819 52.6678 126.918 52.6969 126.97 52.7667C126.755 53.79 123.339 53.3132 124.923 51.0514C125.224 47.7314 128.507 45.2544 130.177 42.4925C132.497 38.4806 131.412 31.9975 131.748 30.7183C130.995 29.7356 131.261 28.3809 131.812 27.3692C131.267 27.2006 130.855 27.061 130.322 26.7761C129.156 27.6773 127.121 30.7415 125.908 30.7881C121.495 27.939 117.378 24.6596 113.103 21.6129C112.813 21.4908 112.593 21.0372 113.011 20.9209C119.599 14.1006 126.784 7.80937 133.459 1.05298C133.657 0.791327 134.016 0.930873 134.12 1.20997C137.02 5.08239 139.705 9.1118 142.547 13.0249C143.742 10.1177 150.405 11.4608 149.222 14.6413C149.443 15.1414 149.257 15.6879 149.286 16.1996C149.477 16.8799 150.005 18.037 148.781 17.88C148.845 20.9151 144.293 19.7755 144.519 17.4613C144.519 17.1939 144.948 16.7578 145.006 17.223C144.171 18.6475 147.581 20.2232 148.12 18.8684C147.651 18.8917 146.879 18.6417 146.902 18.0893C147.32 18.0893 147.836 18.4789 148.335 18.3858C148.416 18.2289 148.393 18.0602 148.48 17.8916C147.03 17.6532 148.834 17.5486 149.24 17.5718C149.431 17.1648 148.909 16.8043 148.909 16.3857C148.799 15.8391 148.961 15.2809 148.938 14.7286C148.196 14.7576 147.349 13.8389 146.67 14.3797C146.833 14.9902 146.166 15.0077 145.795 15.1298C145.946 15.5717 145.893 16.531 145.226 16.3682C144.867 16.2345 145.012 15.717 144.681 15.5658C144.229 16.9206 144.907 17.7288 142.657 17.1532C142.541 17.252 142.39 17.3334 142.234 17.3799C142.825 17.6474 143.875 18.1649 144.467 18.7638C146.786 21.0896 148.08 24.3515 150.776 26.3749C151.786 27.3168 153.067 27.9564 153.572 29.3403C155.88 31.2067 158.066 29.6833 159.122 31.6195V31.6079Z" fill="black"/>
<path d="M148.265 15.5022C148.398 15.5836 148.358 15.8046 148.207 15.8279C147.783 15.8046 147.418 16.0198 147.012 16.1187C146.565 16.043 147.221 15.4557 147.435 15.444C147.702 15.3626 148.01 15.3684 148.265 15.5022Z" fill="black"/>
<path d="M148.078 16.0156C148.275 16.0912 148.165 16.4052 147.968 16.3704C147.678 16.318 147.811 15.9167 148.078 16.0156Z" fill="black"/>
<path d="M89.7221 77.8191C88.655 78.0517 88.5796 76.9527 88.4056 76.1968C88.3418 75.8305 88.307 75.4584 88.3012 75.0805C87.8605 74.8595 87.5241 74.4583 87.3327 73.7373C87.1587 73.1908 87.0022 72.6326 86.892 72.0686C86.3758 69.2835 86.3294 66.4344 86.0395 63.6202C85.8887 62.0445 85.7379 60.4513 85.2739 58.9279C84.694 56.9219 83.5921 55.0322 83.2383 52.9681C83.1223 52.4157 83.1165 51.8517 83.1339 51.2877C83.0295 51.5319 82.9252 51.782 82.815 52.0262C82.728 52.2297 82.6352 52.439 82.5482 52.6425C82.4554 52.8518 82.3626 53.0553 82.2814 53.2705C82.1654 53.6019 82.0552 53.9333 81.9451 54.2647C81.8929 54.4275 81.8407 54.5903 81.7827 54.7531C81.7479 54.8694 81.7015 54.9799 81.6725 55.102C81.6667 55.1311 81.6667 55.1543 81.6551 55.1834C81.5971 55.3462 81.4753 55.4741 81.3071 55.5032H81.2897C81.1215 55.5265 80.9765 55.4451 80.8722 55.323C80.849 55.2939 80.82 55.259 80.7968 55.2299C80.646 55.0439 80.4894 54.8636 80.3386 54.6776C79.9616 54.2066 79.5789 53.7414 79.2019 53.2705C78.332 52.1948 77.4621 51.1191 76.598 50.0434C75.7281 48.962 74.8524 47.8863 73.9824 46.8048C73.1125 45.7233 72.2426 44.6476 71.3669 43.5661C70.5144 42.5137 69.6619 41.4555 68.8093 40.4031C67.951 39.339 67.0869 38.275 66.2344 37.2051C65.4109 36.1818 64.5816 35.1643 63.7812 34.1177C63.6304 33.9142 63.4739 33.7165 63.3405 33.4955C63.2593 33.385 63.1781 33.2746 63.2013 33.1234C63.2187 32.9897 63.3289 32.8734 63.4623 32.8443C63.5087 32.8385 63.5609 32.8327 63.613 32.8269C63.7986 32.8036 63.9842 32.7687 64.1698 32.7396C64.2452 32.728 64.3264 32.7106 64.4018 32.6989C64.9701 32.6059 65.5327 32.5187 66.0952 32.4257C67.3537 32.2163 68.6122 31.9954 69.8706 31.7919C71.2161 31.5709 72.5674 31.3558 73.9186 31.1523C75.2467 30.9488 76.569 30.7511 77.8971 30.5534C78.5118 30.4604 79.1265 30.3732 79.7413 30.2918C80.066 30.2452 80.3908 30.2045 80.7156 30.1638C81.0113 30.1289 81.3013 30.0941 81.6029 30.0824C81.6029 30.0824 81.6029 30.0824 81.6087 30.0824C81.7247 29.844 81.8813 29.6231 82.119 29.4835C82.351 29.3324 82.6468 29.2742 82.8208 29.0416C83.1281 28.6812 83.4181 28.2974 83.6269 27.8671C83.9401 27.1868 84.2358 26.4542 84.8738 26.0065C85.6973 25.4134 86.863 25.4658 87.7387 25.9193C88.1446 26.0937 88.5912 26.303 88.8174 26.7042C88.9102 26.8554 88.9566 27.0182 88.9798 27.1868C89.7453 27.338 90.3194 27.9195 90.9168 28.3846C91.2009 28.4893 91.5315 28.559 91.7287 28.8091C91.9375 29.0998 91.8331 29.4777 91.8157 29.8092C92.0013 30.1406 92.2506 30.4313 92.2564 30.8441C92.4014 32.1873 90.9516 33.2281 89.6989 33.0711C89.6815 33.2455 89.6351 33.4199 89.6467 33.5885C89.6235 34.9259 89.8613 36.333 90.5166 37.5017C90.8704 38.1703 91.3923 38.7227 91.5895 39.4611C91.9085 40.5077 91.6301 41.6009 91.2763 42.5951C91.1719 42.8568 91.1024 43.0835 90.9748 43.3103C91.4445 43.8104 91.8041 44.7 91.8737 45.2872C91.8795 45.7698 91.5663 46.1303 91.2125 46.4327C91.3633 46.6536 91.5141 46.9618 91.5721 47.0199C91.9085 47.4735 92.2158 47.9561 92.5754 48.3921C93.1148 48.9794 93.7353 49.4969 94.3616 49.9911C96.1131 51.2296 98.0617 52.1657 99.8131 53.41C100.277 53.7589 100.799 54.0322 101.217 54.4334C101.976 55.1718 102.127 56.4626 102.226 57.4743C102.417 59.5152 101.988 61.5386 101.652 63.5388C101.507 64.3412 101.425 65.1552 101.333 65.9634C101.309 66.2192 101.286 66.5797 101.06 66.7077C101.031 66.7832 100.973 66.8472 100.898 66.8995C101.043 66.8763 101.182 66.7832 101.315 66.7309C101.878 66.5565 102.719 65.9983 103.241 66.4809C103.49 66.6728 103.554 67.0682 103.345 67.3124C103.078 67.5391 102.742 67.667 102.434 67.8415C102.295 67.8938 101.97 68.1903 101.698 68.359C101.646 68.3938 101.599 68.4287 101.553 68.4578C101.135 68.7136 100.654 68.8881 100.155 68.8764C99.8247 68.8823 99.5115 68.8532 99.1868 68.8474C98.9606 68.8474 98.688 68.8183 98.5894 68.5799C98.4618 68.1322 98.4966 67.6612 98.5662 67.2019C98.4502 67.167 98.3459 67.1147 98.2415 67.0333C98.0095 66.7891 97.9283 66.4344 97.8297 66.1204C97.6035 65.3296 97.5049 64.4982 97.3657 63.69C97.2034 62.748 97.0236 61.8061 96.751 60.8874C96.4378 59.9745 96.345 58.9047 95.6201 58.2244C94.6516 57.6836 93.7005 57.1138 92.79 56.48C92.7204 56.4161 92.558 56.3347 92.4246 56.2416C92.4246 56.323 92.4246 56.4103 92.4246 56.4917C92.3782 58.2883 92.3144 60.085 92.2274 61.8758C92.181 64.754 92.5638 67.6438 92.2043 70.5103C91.9955 71.8476 92.2564 74.6386 90.7312 75.1619C90.7602 75.1851 90.7892 75.1968 90.8182 75.2026C91.2299 75.2142 91.6069 75.0281 91.9839 74.8479C92.4188 74.6328 92.8596 74.4234 93.3467 74.5165C93.5323 74.5513 93.6483 74.7607 93.5555 74.9293C93.4743 75.0805 93.2887 75.1212 93.1496 75.0281C93.109 74.9991 93.0742 74.97 93.0162 74.9758C92.3202 75.1328 91.7519 75.6852 91.0212 75.7375C90.563 75.7724 90.4064 75.4817 90.3948 75.2316C90.3658 75.2316 90.3368 75.2316 90.3078 75.2375C89.7047 75.2898 89.1595 75.313 88.6898 75.1968C88.829 75.7259 88.916 76.2666 89.1132 76.7725C89.2929 77.2202 89.2697 77.3016 89.7801 77.1911C90.3716 76.9992 90.9226 76.6969 91.4967 76.4527C91.6185 76.4003 91.7635 76.4352 91.8389 76.5515C92.0477 76.9411 91.3517 77.1446 91.1024 77.2958C90.679 77.4644 90.273 77.697 89.8207 77.7784C89.7859 77.7842 89.7453 77.79 89.7105 77.7958H89.7221V77.8191ZM83.3891 50.6772C83.3891 50.6772 83.3775 50.7063 83.3717 50.7237C83.4181 51.561 83.5979 52.3809 83.8531 53.1774C84.491 55.323 85.6683 57.2708 86.2134 59.4512C87.0486 63.3585 87.0544 67.4112 87.6285 71.3476C87.7445 72.0628 87.9243 72.7663 88.1388 73.4582C88.307 74.0687 88.5912 74.5688 89.3045 74.5688C89.8149 74.5979 90.4644 74.72 90.8588 74.3362C91.1314 74.0164 91.2125 73.5745 91.2647 73.1675C91.3053 72.621 91.3575 72.0744 91.3807 71.5336C91.5025 69.8765 91.6765 68.2194 91.6533 66.5507C91.6533 64.3063 91.5083 62.0735 91.5431 59.8292C91.5431 58.4686 91.5605 57.1138 91.6069 55.7532C91.6533 54.2298 91.7751 52.689 91.5837 51.1714V51.1598C91.5953 51.0959 91.6069 51.0319 91.6243 50.9679C91.6359 50.9156 91.6475 50.8633 91.6649 50.8109V50.8051V50.7935C91.6649 50.7877 91.6765 50.7819 91.6823 50.7761L91.6997 50.7644C91.6997 50.7644 91.6997 50.7644 91.7055 50.7644C91.7055 50.7644 91.7229 50.7644 91.7287 50.7644C91.7345 50.7644 91.7461 50.7644 91.7519 50.7644C91.7519 50.7644 91.7577 50.7644 91.7635 50.7644C91.7635 50.7644 91.7635 50.7644 91.7693 50.7644C91.7867 50.7761 91.8041 50.7935 91.8215 50.8109C91.8389 50.8226 91.8505 50.84 91.8679 50.8517C91.8737 50.8575 91.8853 50.8633 91.8911 50.8749C91.9085 50.9156 91.9259 50.9563 91.9433 50.997C91.9781 51.0842 92.0071 51.1714 92.0361 51.2645C92.0651 51.3517 92.0999 51.4389 92.1231 51.5261C92.1405 51.5843 92.1521 51.6424 92.1637 51.7006C92.181 51.7878 92.1926 51.8808 92.21 51.968C92.2564 52.282 92.2738 52.596 92.3086 52.9158C92.3086 52.9507 92.3144 52.9856 92.3202 53.0204C92.3202 53.0379 92.3202 53.0495 92.3202 53.0611C92.3202 53.1425 92.326 53.2298 92.3318 53.3112C92.3376 53.4682 92.3434 53.6251 92.3492 53.7821C92.3492 53.7763 92.3492 53.7705 92.3492 53.7647C92.3492 53.7821 92.3492 53.7938 92.3492 53.8112C92.3492 53.8054 92.3492 53.7996 92.3492 53.7938C92.3492 53.9566 92.3608 54.1136 92.3724 54.2764C92.3782 54.4392 92.384 54.602 92.3898 54.759C92.3898 54.759 92.3898 54.7473 92.3898 54.7415C92.3898 54.8229 92.3898 54.9043 92.3898 54.9857C92.3898 55.0555 92.3956 55.1311 92.3956 55.2067C92.3956 55.2532 92.3956 55.2997 92.3956 55.3404C92.3956 55.3695 92.3956 55.3986 92.4014 55.4276C92.4014 55.4625 92.4014 55.4974 92.4014 55.5381C92.4014 55.5555 92.4014 55.5788 92.4014 55.6021C92.4014 55.6893 92.3956 55.7707 92.3956 55.8579C92.935 55.8812 93.4511 56.1835 93.9325 56.4045C94.669 56.8173 95.4577 57.172 96.1247 57.6894C96.7626 58.3581 96.9656 59.2826 97.2034 60.1431C97.6441 61.6375 97.8123 63.1841 98.1023 64.7075C98.2241 65.2482 98.3285 65.789 98.4676 66.3239C98.5372 66.667 98.7286 66.6204 98.9606 66.5681C99.0302 66.5507 99.1114 66.5332 99.1868 66.5274C99.3955 66.4809 99.6043 66.4635 99.8131 66.4518C100.022 66.4344 100.225 66.4169 100.428 66.3762C100.416 66.2367 100.439 66.0855 100.463 65.9518C100.526 65.411 100.59 64.8703 100.66 64.3295C100.822 62.9341 101.118 61.5619 101.263 60.1722C101.408 58.7884 101.628 55.8404 100.457 54.8927C98.4212 53.3926 96.2291 52.125 94.0891 50.7935C93.1496 50.1481 92.1927 49.3515 91.5605 48.3805C90.998 49.0841 89.2349 49.6248 88.5158 49.6655C87.7851 49.7295 87.0428 49.6655 86.3062 49.6655C85.6335 49.6364 84.955 49.5841 84.317 49.3632C84.2532 49.3399 84.1082 49.2876 83.9633 49.2236C83.7487 49.7178 83.5399 50.2121 83.3311 50.7121L83.3891 50.6772ZM99.1346 68.3706C99.8073 68.3415 100.457 68.1438 101.106 67.9985C101.246 67.9694 101.414 67.8589 101.57 67.824C102.017 67.5566 102.458 67.2775 102.875 66.9635C102.858 66.9053 102.829 66.853 102.777 66.8123C102.231 66.8472 101.768 67.167 101.251 67.3124C101.095 67.3647 100.921 67.4054 100.758 67.3414C100.648 67.3007 100.521 67.2077 100.445 67.0914C100.335 67.1205 100.231 67.1379 100.149 67.1496C99.7899 67.1554 99.3897 67.26 99.0128 67.2658C99.0824 67.7019 99.094 68.2601 99.1346 68.3706ZM64.396 33.6583C64.6047 33.9025 64.8135 34.1526 65.0165 34.3968C65.4399 34.9084 65.8632 35.4259 66.2808 35.9376C67.1333 36.99 67.9858 38.0424 68.8383 39.089C69.6909 40.1414 70.5434 41.1997 71.3959 42.2521C72.26 43.3219 73.1183 44.386 73.9824 45.4558C74.8697 46.5548 75.7629 47.6537 76.6502 48.7526C77.5085 49.8167 78.3726 50.8807 79.2309 51.9448C79.8515 52.7123 80.4778 53.4798 81.0925 54.2531C81.2317 53.8345 81.3651 53.4216 81.5043 53.0088C81.6087 52.7006 81.7421 52.3983 81.8639 52.1018C81.9856 51.8052 82.1074 51.5145 82.2292 51.218C82.6816 50.1365 83.1397 49.055 83.5979 47.9735C83.6327 47.8921 83.6675 47.8049 83.7023 47.7235C82.7164 47.6537 81.6725 47.6595 80.7794 47.206C78.6336 45.7873 80.2574 42.63 81.1969 40.9089C81.5797 40.2635 81.9509 39.6007 82.2988 38.9378C82.3916 38.7692 82.4786 38.589 82.583 38.4204C81.9683 38.4262 81.3767 38.5018 80.878 38.9088C80.3502 39.4321 79.9211 40.2461 79.0801 40.2461C77.2939 40.2403 77.1431 37.8505 77.6303 36.5714C77.8797 35.8504 78.2276 35.1643 78.651 34.5305C79.2947 33.5304 80.1878 32.7338 80.8664 31.7628C81.0635 31.4663 81.2201 31.1407 81.3419 30.8092C81.0809 30.8674 80.82 30.9139 80.559 30.9604C79.9269 31.0767 79.2947 31.1756 78.6626 31.2802C77.3519 31.4895 76.0412 31.693 74.7248 31.8965C73.3909 32.1001 72.0512 32.2977 70.7174 32.4896C69.4125 32.6815 68.1018 32.8501 66.7969 33.0304C66.2576 33.1059 65.7124 33.1815 65.1673 33.2571C64.8889 33.2978 64.6163 33.3385 64.338 33.3734C64.28 33.3792 64.222 33.3909 64.164 33.3967C64.2394 33.4839 64.3148 33.5653 64.3844 33.6525L64.396 33.6583ZM86.2308 49.1596C86.5034 49.1771 86.776 49.1887 87.0427 49.2062C87.2225 49.2178 87.4023 49.2236 87.5821 49.2178C87.7735 49.212 87.9649 49.1945 88.1562 49.1655C88.2432 49.1538 88.3302 49.1364 88.423 49.1248C88.5042 49.1131 88.5796 49.0957 88.6608 49.0841C88.8464 49.0492 89.0262 49.0085 89.2059 48.9503C89.1943 48.9503 89.1827 48.9561 89.1712 48.962C89.3683 48.9038 89.5539 48.8282 89.7453 48.7526C89.8613 48.7061 89.9657 48.648 90.0817 48.5956C90.1628 48.5608 90.2498 48.5201 90.331 48.4735C90.3252 48.4735 90.3194 48.4794 90.3136 48.4852C90.4238 48.4328 90.534 48.3805 90.6442 48.3166C90.7022 48.2817 90.7544 48.2468 90.8066 48.2119C90.8588 48.177 90.9168 48.1479 90.9748 48.1189C90.969 48.1189 90.9632 48.1247 90.9516 48.1305C91.0038 48.1014 91.056 48.0782 91.1024 48.0491C91.1024 48.0491 91.1024 48.0491 91.1082 48.0491C91.143 48.0316 91.172 48.0142 91.201 47.9909C91.1952 47.9909 91.1893 48.0026 91.1835 48.0026C91.2067 47.9851 91.2357 47.9735 91.2531 47.9561C91.2705 47.9386 91.2879 47.9212 91.2995 47.9037C91.2995 47.9037 91.2995 47.9037 91.2995 47.8979C91.2995 47.8979 91.3053 47.8921 91.3111 47.8863C91.3227 47.8688 91.3343 47.8514 91.3517 47.834C91.3575 47.8223 91.3691 47.8165 91.3749 47.8049C91.3865 47.7816 91.3807 47.7642 91.3749 47.7409C91.3749 47.7118 91.3575 47.6828 91.3517 47.6595C91.3517 47.6595 91.3517 47.6537 91.3517 47.6479C91.3517 47.6363 91.3459 47.6246 91.3401 47.613C91.3343 47.5956 91.3285 47.5781 91.3169 47.5607C91.3169 47.5607 91.3169 47.5665 91.3169 47.5723C91.3111 47.549 91.2995 47.5316 91.2937 47.5083C91.2821 47.4793 91.2763 47.456 91.2647 47.4269C91.2531 47.4037 91.2415 47.3862 91.2357 47.363C91.2125 47.3223 91.2009 47.2816 91.1777 47.2409C91.1777 47.2409 91.1777 47.2409 91.1777 47.2351C91.1777 47.2292 91.1661 47.2176 91.1661 47.206C91.143 47.1537 91.1256 47.0955 91.1082 47.0432C91.1082 47.0432 91.1082 47.0432 91.1082 47.049C91.1024 47.0257 91.0908 46.9967 91.0792 46.9676C91.0676 46.9443 91.0618 46.9211 91.056 46.9036C91.056 46.9036 91.056 46.9036 91.056 46.9095C91.0386 46.8629 91.0212 46.8164 91.0038 46.7641C91.0038 46.7641 90.998 46.7234 90.998 46.7118C90.998 46.7001 90.9922 46.6943 90.9922 46.6827C90.9922 46.6827 90.9632 46.6536 90.9458 46.6594C90.9342 46.6594 90.9226 46.6769 90.9226 46.6885C90.882 46.7234 90.8356 46.7525 90.795 46.7874C90.447 47.0781 90.0179 47.2583 89.5713 47.3165C89.2407 47.3397 88.916 47.4386 88.5912 47.3921C88.5854 47.3921 88.5796 47.3921 88.568 47.3921C88.2374 47.7235 87.3907 47.706 86.979 47.77C86.1728 47.8049 85.3725 47.7991 84.5664 47.7758C84.5548 47.77 84.5432 47.7642 84.5316 47.7758C84.5258 47.7758 84.52 47.7874 84.5142 47.7932C84.5142 47.7991 84.5142 47.8049 84.5142 47.8165C84.5142 47.8165 84.5142 47.8223 84.5142 47.8281C84.5142 47.8514 84.5084 47.8688 84.5026 47.8921C84.491 47.927 84.4794 47.9619 84.4678 47.9968C84.4562 48.0258 84.4446 48.0549 84.433 48.0898C84.4214 48.113 84.4098 48.1363 84.404 48.1654C84.3924 48.1886 84.3866 48.2119 84.3808 48.2351C84.3808 48.2526 84.3692 48.2642 84.3692 48.2817C84.3692 48.2817 84.3518 48.334 84.3402 48.3631C84.3344 48.3805 84.3228 48.4038 84.317 48.427C84.2938 48.4794 84.2648 48.5317 84.2416 48.584C84.2184 48.6363 84.2068 48.6887 84.1952 48.741C84.1952 48.741 84.1952 48.741 84.1952 48.7468C84.1952 48.7584 84.1894 48.7759 84.1836 48.7875V48.7992C84.1778 48.8224 84.1836 48.8457 84.201 48.8631C84.2126 48.8806 84.23 48.8864 84.2532 48.8864C84.2532 48.8864 84.2648 48.8922 84.2706 48.8922C84.2764 48.8922 84.288 48.8922 84.2938 48.8922C84.4794 48.9038 84.6592 48.9445 84.8448 48.9736C84.9492 48.991 85.0478 49.0201 85.1463 49.0434C85.2449 49.0666 85.3493 49.0782 85.4479 49.1015H85.4305C85.6973 49.1596 85.9757 49.1655 86.2482 49.1829L86.2308 49.1596ZM82.7802 39.4611C82.2698 40.4031 81.6087 41.2636 81.1447 42.2346C80.6692 43.3219 79.7123 45.2756 80.6634 46.2989C81.1273 46.8455 81.8639 46.8978 82.5192 47.0432C83.4761 47.2292 84.4504 47.2874 85.4247 47.3107C86.37 47.3339 87.3269 47.3339 88.2258 47.0316C88.4288 46.6187 88.2838 46.1478 88.1852 45.7233C88.1272 45.5024 88.0635 45.2814 87.9707 45.0721C87.8547 45.107 87.7155 45.1012 87.5995 45.1012C86.9384 45.107 86.2888 45.0372 85.6335 44.9732C85.3087 44.9035 84.9724 44.9732 84.6592 44.8918C84.404 44.8453 84.3402 44.5197 84.5548 44.386C84.7694 44.1883 85.013 43.9325 85.2159 43.7464C86.0395 42.9207 86.718 41.9381 87.0427 40.8101C87.1413 40.4438 87.1877 40.0426 87.2283 39.6705C87.2747 39.2983 87.3617 38.932 87.4081 38.5599C87.0775 37.9436 86.6542 37.3505 86.1438 36.74C86.109 36.6935 86.08 36.647 86.0452 36.6004C86.0278 37.2807 85.6335 37.9087 84.9956 38.1761C84.4388 38.4436 83.8183 38.4436 83.1977 38.432C83.1107 38.8157 82.8498 39.3216 82.7802 39.4553V39.4611ZM89.2871 43.8569C88.9914 44.0139 88.7014 44.2348 88.4868 44.5081C88.4578 44.5895 88.423 44.6593 88.365 44.6883C88.3418 44.7232 88.3244 44.7581 88.307 44.793C88.3128 44.8104 88.3186 44.8221 88.3244 44.8395C88.3592 44.9035 88.3824 44.9674 88.4114 45.0256C88.4984 45.2349 88.5854 45.45 88.655 45.6652C88.7768 46.0838 88.8696 46.5315 88.771 46.956C89.1306 46.8571 89.4959 46.7699 89.8497 46.6478C90.0759 46.549 90.273 46.4094 90.447 46.2524C90.7196 46.0082 91.143 45.7989 91.201 45.4093C91.1894 45.1593 91.0792 44.9267 91.0038 44.6942C90.9052 44.4325 90.8472 44.136 90.65 43.9266C90.3484 43.758 89.9715 43.7057 89.6235 43.7638C89.5075 43.7813 89.3973 43.8162 89.2871 43.8569ZM87.8547 39.9263C87.5705 41.659 86.5498 43.2115 85.2797 44.4034C85.8655 44.3685 86.457 44.3569 87.037 44.3744C87.3791 44.3627 87.7387 44.386 88.0519 44.5313C88.0751 44.543 88.0982 44.5604 88.1214 44.5779C88.1214 44.572 88.1214 44.5662 88.1214 44.5604C88.0866 44.4209 88.162 44.229 88.162 44.1011C88.1968 43.6766 88.2838 43.258 88.2954 42.8335C88.3534 41.595 88.2084 40.531 87.8431 39.5484C87.8431 39.6763 87.8489 39.7984 87.8431 39.9263H87.8547ZM86.0047 34.984C85.9409 35.3445 85.9989 35.705 86.0278 36.0655C86.8398 36.676 87.5589 37.4493 87.9997 38.368C88.5506 39.6763 88.9218 41.0659 88.8174 42.4963C88.8 42.8335 88.7478 43.1591 88.6956 43.4906C88.7884 43.3743 88.8986 43.2696 89.0088 43.1824C89.2465 43.0138 89.5655 42.9149 89.8845 42.8975C89.8845 42.3219 89.7453 41.7753 89.6525 41.2113C89.3973 40.0251 89.1537 38.8041 88.5158 37.7575C88.0171 37.0598 87.5531 36.333 86.95 35.7225C86.6484 35.3968 86.4338 34.9724 86.0916 34.6991C86.051 34.7747 86.0221 34.8677 86.0105 34.9898L86.0047 34.984ZM86.2714 34.5072C86.3236 34.5421 86.37 34.577 86.4048 34.6003C86.6716 34.7631 86.8398 35.0305 87.0544 35.2399C87.7271 35.7748 88.2374 36.4609 88.7188 37.1703C89.7859 38.7227 90.2904 40.6415 90.244 42.5137C90.244 42.6533 90.2324 42.787 90.2324 42.9207C90.3658 42.944 90.4934 42.9789 90.6152 43.037C90.6558 42.8742 90.7022 42.7056 90.7428 42.5486C91.1024 41.252 91.4909 39.7344 90.5688 38.5773C90.2904 38.118 89.9193 37.7168 89.6989 37.2226C89.2523 36.1818 89.1364 35.0073 89.2697 33.8909C89.2813 33.7921 89.3857 33.3095 89.5017 33.0245C89.1827 32.9024 88.6376 32.6175 88.7768 32.4257C88.9276 32.2687 89.1073 32.5303 89.2639 32.5768C89.5713 32.6699 89.9309 32.7164 90.2324 32.6059C90.6558 32.4489 91.0908 32.2222 91.3517 31.8442C91.4561 31.6814 91.5373 31.5012 91.6011 31.3093C91.4039 31.4081 91.1893 31.4605 91.0676 31.4488C90.8066 31.4663 90.5746 31.35 90.3484 31.2279C90.2614 31.1639 90.1396 31.129 90.0875 31.036C90.0701 30.9662 90.1628 30.9197 90.2092 30.972C90.6268 31.1058 91.0676 31.0244 91.4503 30.8151C91.5315 30.7569 91.6069 30.6697 91.6939 30.6115C91.6765 30.408 91.6243 30.2045 91.5141 30.0243C91.3633 29.6754 91.7345 29.1347 91.2879 28.937C91.056 28.8207 90.7718 28.8265 90.5572 28.6637C90.2498 28.4544 89.9483 28.2334 89.6235 28.0532C89.5307 28.0009 89.2523 27.8497 89.0262 27.6869C89.0262 27.6985 89.0262 27.7101 89.0262 27.7276C89.0494 27.809 89.0436 27.9195 88.9392 27.9369C88.7768 28.3555 88.2606 28.5416 88.1794 29.0126C88.1968 29.3149 88.4752 29.5184 88.5622 29.8033C88.6608 30.0301 88.5912 30.3499 88.3418 30.4371C88.0519 30.5534 87.7619 30.4139 87.4835 30.3732C87.3153 30.4371 87.1877 30.6232 87.1413 30.7976C87.1239 31.3616 87.7851 31.5884 88.0519 32.0012C88.2026 32.3094 87.9765 32.5245 87.8605 32.7862C87.7155 33.1292 87.7851 33.4955 87.7213 33.8502C87.5125 34.4549 87.1123 34.4607 86.7528 34.4607C86.6368 34.4607 86.5324 34.4607 86.4338 34.4782C86.3758 34.4898 86.3236 34.5014 86.2772 34.5247L86.2714 34.5072ZM82.0726 30.6115C82.0726 30.6115 82.0726 30.6232 82.0726 30.6348C81.8929 31.2511 81.6609 31.8326 81.2897 32.3559C80.1182 33.9316 78.5814 35.3678 78.1522 37.3621C77.984 38.1296 78.0826 39.6995 79.1845 39.5425C79.6311 39.4204 79.9037 38.9902 80.211 38.6704C80.4662 38.3797 80.7852 38.1413 81.1505 38.0075C81.6725 37.7517 82.3278 37.7517 82.9716 37.7517C83.7951 37.7517 84.607 37.7517 85.1463 37.2342C85.7031 36.4551 85.0999 35.4259 85.4421 34.5712C85.5233 34.1874 85.8307 33.9083 86.2076 33.8153C86.4338 33.7455 86.66 33.7572 86.892 33.7514C86.9732 33.7514 87.0601 33.6816 87.0601 33.5944C87.0659 33.0943 87.1413 32.5361 87.5067 32.1582C86.6658 31.5535 86.1264 30.6464 87.2225 29.9603C87.5067 29.7801 87.8199 29.9778 88.1214 29.9778C88.0287 29.7626 87.8547 29.594 87.7735 29.3731C87.5705 28.9428 87.8489 28.4951 88.1446 28.1811C88.2548 28.059 88.394 27.966 88.481 27.8264C88.539 27.6869 88.5448 27.5299 88.568 27.3845C88.4172 27.0415 88.0345 26.8263 87.7039 26.7101C87.3443 26.5938 86.9906 26.4251 86.6078 26.4077C85.3087 26.2914 84.8564 27.1636 84.4214 28.2102C84.1082 28.8323 83.6733 29.4428 83.0933 29.8382C82.8382 29.9661 82.583 30.0185 82.3916 30.1464C82.4322 30.1871 82.4554 30.2394 82.4612 30.2976C82.4728 30.408 82.4206 30.5127 82.3278 30.565C82.264 30.5999 82.1886 30.6116 82.119 30.5941C82.1074 30.5941 82.0958 30.5999 82.0842 30.6057L82.0726 30.6115Z" fill="black"/>
<path d="M89.2162 28.9303C89.4193 28.8722 89.5933 29.128 89.4599 29.2909C89.3207 29.4479 89.2394 29.6514 89.2162 29.855C89.2104 29.8783 89.1814 29.8957 89.1582 29.8899C88.8856 29.7387 88.9204 29.035 89.2162 28.9303Z" fill="black"/>
<path d="M90.031 29.479C90.2398 29.6477 90.0368 30.0141 89.7874 29.8512C89.5437 29.7 89.7932 29.3104 90.031 29.479Z" fill="black"/>
<path d="M42.9823 80.4029C42.9939 80.3506 43.0229 80.3157 43.0576 80.2866C42.9069 80.0192 42.7387 79.7633 42.5937 79.4959C42.2109 78.7284 41.9094 77.8969 41.7702 77.048C41.399 78.1004 40.8307 79.0889 40.3377 80.0831C39.897 81.1588 39.3634 82.217 39.1488 83.3625C39.752 82.9031 39.9608 82.1066 40.4189 81.5309C40.5349 81.3623 40.8017 81.5309 40.7031 81.7054C40.6277 81.8449 40.5465 81.9845 40.4653 82.124C40.3551 82.2868 40.2217 82.5543 40.0593 82.8217C40.0593 82.8276 40.0593 82.8334 40.0535 82.845C39.9086 83.4032 39.7984 84.0021 40.3899 83.2055C40.6219 82.8624 40.7785 82.4787 40.9641 82.1124C41.0626 81.9321 41.1496 81.7461 41.225 81.5542C41.2598 81.4728 41.3468 81.4321 41.428 81.4612C41.5092 81.4902 41.5498 81.5833 41.5208 81.6647C41.4396 81.8449 41.3352 82.124 41.2076 82.4264C41.1728 82.8101 41.0742 83.1997 41.1496 83.5776C41.5614 83.2055 41.6716 82.6124 41.9384 82.1414C41.9384 82.1356 41.9442 82.1298 41.95 82.124C41.95 82.0659 41.9384 82.0077 41.9384 81.9554C41.921 81.8042 41.9094 81.653 41.8514 81.5193C41.8224 81.3972 41.9964 81.3216 42.0717 81.4205C42.2457 81.7461 42.2167 82.1996 42.5299 82.4496C42.8605 81.8217 42.8199 81.0832 42.9881 80.4029H42.9823ZM49.4892 105.422C49.4892 105.422 49.4544 105.382 49.4312 105.37C49.0369 105.248 48.6135 105.312 48.2133 105.359C47.9234 105.37 47.616 105.405 47.3434 105.283C47.123 105.138 46.9317 104.928 46.7925 104.701C46.6301 104.411 46.5199 104.103 46.3865 103.8C46.2241 103.864 46.0502 103.87 45.8762 103.917C45.8414 103.928 45.8008 103.934 45.766 103.946C45.882 104.405 46.0618 104.835 46.2299 105.271C46.3633 105.614 46.5083 106.01 46.8447 106.196C47.0825 106.33 47.3492 106.405 47.616 106.469C47.6914 106.487 47.7436 106.556 47.7378 106.638C47.7378 106.678 47.7146 106.713 47.6798 106.742C47.6798 106.742 47.6798 106.742 47.6856 106.742C47.964 106.626 48.2539 106.533 48.5207 106.388C48.9035 106.155 49.3036 105.824 49.4892 105.417V105.422ZM27.7935 53.6914C27.405 54.0112 27.0454 54.36 26.7323 54.6915C26.3901 55.0636 26.0711 55.4473 25.7753 55.8543C25.4796 56.273 25.2128 56.7149 24.9692 57.1684C24.772 57.5347 24.5981 57.9127 24.4473 58.3022C24.3081 58.6802 24.1863 59.0639 24.0877 59.4477C24.0007 59.814 23.9311 60.1861 23.8905 60.564C23.8499 60.9478 23.8383 61.3315 23.8441 61.7153C23.8557 62.1921 23.8963 62.6747 23.9717 63.1515C24.0471 63.5992 24.1399 64.0353 24.2675 64.4713C24.4067 64.9307 24.5749 65.3842 24.7662 65.8087L24.7778 65.8377C24.9576 66.2215 25.1548 66.5994 25.3752 66.9599C25.6014 67.3204 25.8507 67.6635 26.1175 67.9949C26.3843 68.3147 26.6685 68.6171 26.9758 68.9078L27.0106 68.9427C27.3296 69.2334 27.6602 69.5067 28.0139 69.7625C28.4025 70.0358 28.8084 70.2858 29.226 70.5126C29.574 70.6986 29.9277 70.8614 30.2931 71.001C30.6933 71.1521 31.105 71.2743 31.5226 71.3731C31.9459 71.4719 32.3751 71.5475 32.7637 71.5882C33.2276 71.6406 33.6916 71.658 34.1555 71.6522C34.6079 71.6406 35.0544 71.6057 35.4952 71.5359C35.9069 71.4719 36.3071 71.3673 36.7073 71.251C37.09 71.1347 37.4554 70.9952 37.815 70.8382C37.815 70.8382 37.8266 70.8382 37.8324 70.8324H37.8498C38.2267 70.6521 38.5921 70.466 38.9401 70.2509C39.3518 69.9951 39.7462 69.7043 40.1173 69.3962C40.4479 69.1229 40.7611 68.8264 41.0568 68.5124C41.3178 68.2275 41.5614 67.9309 41.7876 67.6228C42.0601 67.239 42.3037 66.832 42.5067 66.4541L42.5357 66.4017C42.7213 66.0529 42.8837 65.6924 43.0229 65.3319C43.0229 65.3261 43.0229 65.3203 43.0287 65.3086V65.297C43.2142 64.8086 43.365 64.3085 43.4926 63.8027C43.5796 63.4247 43.655 63.0468 43.7014 62.6572C43.742 62.2619 43.7536 61.8607 43.7478 61.4769C43.7478 61.4653 43.7478 61.4537 43.7478 61.4362C43.7362 61.0001 43.7014 60.5699 43.6434 60.1861C43.6434 60.1628 43.6376 60.1396 43.6318 60.128V60.1105V60.0931H43.626C43.568 59.7268 43.4868 59.3663 43.3882 59.0407C43.3882 59.029 43.3824 59.0174 43.3766 59.0058C43.3012 58.7674 43.22 58.5348 43.133 58.3022C43.046 58.058 42.9475 57.8138 42.8547 57.6161C42.6749 57.2265 42.4777 56.8428 42.2515 56.4765C42.0021 56.0811 41.718 55.7148 41.428 55.3659L41.4106 55.3485C41.1728 55.0578 40.9061 54.7961 40.6335 54.5345C40.2855 54.2147 39.9202 53.9239 39.5432 53.6507C39.1778 53.389 38.8009 53.1564 38.4123 52.9471C38.0469 52.7552 37.67 52.575 37.3278 52.4413C36.8291 52.2494 36.3245 52.0866 35.8258 51.9645C35.4662 51.8773 35.1066 51.8191 34.7413 51.7784C34.3933 51.7435 34.0395 51.7203 33.709 51.7261C33.6974 51.7261 33.68 51.7261 33.6684 51.7261C33.216 51.7377 32.7637 51.7842 32.3345 51.8482H32.2939C31.7836 51.9354 31.2848 52.0575 30.7977 52.2029C30.5367 52.2785 30.2815 52.3657 30.0263 52.4529C29.7538 52.5517 29.4812 52.6448 29.2492 52.7494M45.592 60.2791C45.824 60.0349 46.0734 59.8082 46.3401 59.5988C45.5514 59.5233 44.8033 59.25 44.0436 59.0523C44.1363 59.4244 44.2117 59.7965 44.2697 60.1745C44.3451 60.6803 44.3857 61.1862 44.3857 61.692C44.3857 61.692 44.3857 61.6979 44.3857 61.7037C44.7047 61.1687 45.1222 60.692 45.5978 60.2733L45.592 60.2791ZM47.3724 66.6111C47.3724 66.6111 47.3318 66.6343 47.3144 66.6518C47.123 66.7855 46.9433 66.9425 46.7345 67.053C46.0502 67.4251 45.3368 67.7914 44.5597 67.9251C43.8406 68.0356 43.1156 68.0065 42.3907 68.0007C42.3791 68.0356 42.3501 68.0298 42.3211 68.0182C42.1819 68.1984 42.0427 68.3787 41.892 68.5531C41.747 68.7217 41.5962 68.8845 41.4454 69.0415C41.3816 69.1055 41.3178 69.1694 41.2598 69.2334C42.1703 69.2392 43.0808 69.3671 43.9914 69.3322C45.1744 69.309 46.3575 69.088 47.4014 68.5124C47.4304 68.5008 47.4652 68.4949 47.4884 68.4949C47.4768 68.3554 47.471 68.2159 47.4652 68.0763C47.4652 67.5879 47.4188 67.0937 47.3724 66.6111ZM49.5124 78.5191C49.4776 78.3795 49.4428 78.2458 49.4022 78.112C49.1065 76.9201 48.7063 75.7746 48.4221 74.5885C47.993 72.7569 47.674 70.9021 47.5174 69.0299C47.4362 69.088 47.355 69.1345 47.268 69.181C46.3401 69.6811 45.2846 69.9369 44.2465 70.0648C43.6144 70.1521 42.9707 70.123 42.3501 70.0009C42.3269 70.5184 42.3385 71.0359 42.3269 71.5533C42.3037 72.0185 42.2979 72.4778 42.3095 72.9372C42.2921 73.3616 42.2921 73.8326 42.5705 74.1815C42.9707 74.6466 43.5216 74.9432 44.0088 75.3037C45.1164 76.0712 46.3169 76.6991 47.4768 77.3852C48.0162 77.705 49.4544 78.5016 49.5124 78.5191ZM49.8662 80.7925C49.8488 80.2343 49.7676 79.6761 49.6516 79.1296C49.6516 79.1296 49.6458 79.1296 49.64 79.1237C49.5994 79.083 46.8969 77.6643 46.4097 77.3969C45.0642 76.6584 43.7188 75.8793 42.5299 74.9141C42.4313 74.8385 42.3501 74.7571 42.2747 74.6699C42.2109 75.0013 42.1703 75.3095 42.1529 75.6409C42.1065 76.8387 42.5473 77.9609 43.0982 78.99C43.626 79.7692 44.1421 80.6006 44.1537 81.5774C44.2581 83.1473 43.8406 84.694 43.742 86.2523C43.4346 89.113 43.0402 91.9795 43.0808 94.8576C43.0808 96.2182 43.1852 97.573 43.4056 98.9161C43.626 100.509 44.0609 102.376 45.534 103.265C45.8356 103.207 46.1487 103.213 46.3981 103.015C46.5373 100.521 47.413 98.1602 47.9872 95.7531C48.4395 93.7238 48.8339 91.683 49.234 89.6421C49.6458 87.0198 49.8894 84.3509 49.8778 81.7054C49.8778 81.6298 49.9068 81.5658 49.959 81.5309C49.9242 81.2577 49.9126 80.9902 49.8836 80.7983L49.8662 80.7925ZM47.3956 58.9069C47.5406 58.8255 47.7088 58.7558 47.8886 58.6918C47.6856 58.6336 47.4884 58.5464 47.2912 58.4941C46.4967 58.2557 45.6964 58.0231 44.8787 57.8836C44.4263 57.7905 43.9856 57.651 43.539 57.5347C43.6086 57.7033 43.6782 57.8661 43.742 58.0406C43.829 58.279 43.8986 58.5174 43.9624 58.7616C43.974 58.8023 43.9856 58.8372 43.9914 58.8779C44.7743 58.8546 45.5804 58.8255 46.3401 59.0407C46.4735 59.1046 46.6649 59.1221 46.7461 59.2674C46.7461 59.279 46.7577 59.2849 46.7577 59.2907C46.9607 59.1511 47.1752 59.0232 47.3956 58.9127V58.9069ZM47.6276 50.9877C47.7378 50.8888 47.8538 50.8016 47.9756 50.7202C47.7146 50.1446 47.268 49.6154 46.6417 49.441C45.6732 49.2433 44.6177 50.1853 44.2117 51.0109C43.9102 51.604 44.1421 52.3017 44.4553 52.8425C44.8149 53.2553 45.389 53.4588 45.9284 53.5053C46.1835 52.5285 46.9259 51.5691 47.6218 50.9877H47.6276ZM51.5944 64.1399C51.8612 62.5933 52.3135 60.7501 51.2406 59.407C51.2058 59.3488 51.1363 59.2965 51.0783 59.2442C50.2663 58.8779 49.2804 58.9651 48.4511 59.2442C46.8563 59.8721 45.795 61.3141 44.6583 62.5293C44.5307 62.6805 44.4089 62.8375 44.3161 63.0061C44.3161 63.0352 44.3103 63.0643 44.3045 63.0933C44.2639 63.4945 44.2001 63.8899 44.1073 64.2853C44.0146 64.6807 43.8928 65.0702 43.7478 65.454C43.568 65.9308 43.3418 66.3901 43.0982 66.8436C42.9069 67.1925 42.6923 67.5239 42.4545 67.8437C43.9508 67.5297 45.5572 67.4018 46.8273 66.4657C46.9723 66.3494 47.123 66.2389 47.2854 66.1459C47.297 66.1401 47.3144 66.1343 47.326 66.1285C47.2738 65.5586 47.2216 64.983 47.2158 64.4132C47.1346 63.5585 47.3086 62.7154 47.3434 61.8607C47.2854 61.692 47.442 61.5118 47.616 61.5467C47.7668 61.5699 47.8654 61.7502 47.7958 61.8897C47.8074 62.0118 47.8248 62.1339 47.8364 62.256C48.0336 63.4771 47.9466 64.7097 47.9408 65.9424C48.0626 68.1344 48.2481 70.3556 48.6657 72.5069C49.0369 74.5827 49.6748 76.5945 50.1677 78.6411C50.4287 79.6354 50.4693 80.6588 50.5853 81.6705C50.6897 81.3216 50.8289 80.9495 50.7999 80.5774C50.8057 80.339 50.6549 79.8971 51.0203 79.8796C51.1479 79.8796 51.2464 79.9959 51.2464 80.1238C51.2348 80.525 51.2 80.9553 51.1015 81.3449C51.1537 81.6414 51.2406 81.9321 51.3334 82.2054C51.5422 81.6123 51.5944 80.9611 51.5422 80.339C51.5248 80.0773 51.9192 80.0366 51.9482 80.3041C51.983 80.5657 51.9714 81.4146 51.8148 82.0426C51.8148 82.2461 51.8148 82.4264 51.8612 82.4671C51.9308 82.4496 51.983 82.3508 52.012 82.3043C52.3309 81.7635 52.3889 81.1239 52.3425 80.5134C52.3483 80.2343 52.7833 80.2227 52.8007 80.5018C52.8239 81.0309 52.7253 81.56 52.5281 82.0484C52.5571 82.0949 52.5571 82.1473 52.5107 82.1938C52.5107 82.2054 52.5107 82.217 52.5107 82.2229C52.5223 82.4089 52.6383 82.7229 52.8587 82.6182C53.2298 82.3333 53.2704 81.7751 53.3342 81.3623C53.4618 80.5308 53.1197 79.7343 53.0211 78.9202C52.8935 77.9144 52.5455 76.9724 52.1744 76.0363C52.0816 75.9898 51.9946 75.9374 51.9656 75.8328C51.9482 75.7688 51.9656 75.6932 52.012 75.6409C51.8728 75.292 51.7336 74.949 51.606 74.5943C51.1073 73.1581 50.5563 71.6813 50.5679 70.1462C50.7651 68.1345 51.1247 66.1343 51.5828 64.1632L51.5944 64.1399ZM52.8065 68.5938C52.7195 66.7681 52.7427 64.9074 52.4295 63.105C52.3019 64.0702 52.0526 65.0179 51.8496 65.9657C51.5828 67.1402 51.403 68.3321 51.2638 69.5241C51.0667 70.9138 51.519 72.2627 51.9946 73.5477C52.2729 74.2919 52.5049 75.0536 52.7311 75.8153C52.7949 75.8502 52.8529 75.8851 52.9109 75.92C52.8355 74.9606 52.8413 74.0012 52.8587 73.036C52.8587 71.5533 52.8239 70.0707 52.8065 68.5938ZM59.6324 97.323C59.2497 97.323 58.7973 97.2997 58.5479 96.9625C58.4377 96.8811 58.2696 96.2415 58.2638 95.8345C58.1246 95.8635 57.6258 95.8926 57.5388 95.8868C57.6722 96.5089 57.6896 97.6718 58.4725 98.3172C58.6001 98.4626 58.9829 98.0672 59.2555 97.9916C59.6498 97.8405 60.4269 97.8753 60.4269 97.4741C60.4269 97.0729 59.8934 97.323 59.6266 97.323H59.6324ZM52.5629 52.0691C52.7195 51.9935 52.9109 51.9645 53.0385 51.854C52.6151 51.2319 51.8786 50.8132 51.1537 50.662C50.5041 50.6097 49.8256 50.5516 49.1876 50.7027C47.7842 51.1214 46.6707 52.3482 46.3169 53.7553C46.1023 55.0578 47.2854 57.2033 48.7121 57.2673C48.9615 57.1219 48.9499 56.837 48.9267 56.587C48.8745 56.1392 48.7817 55.6915 48.8281 55.238C48.8571 54.7438 49.2514 54.36 49.7096 54.2263C49.9706 54.1333 50.2895 54.0751 50.5389 54.2379C50.8173 54.4182 50.9855 54.7031 51.1131 54.9996C51.316 54.5345 51.2 54.0286 51.3102 53.5518C51.4552 52.8832 51.9308 52.325 52.5687 52.0808L52.5629 52.0691ZM53.6764 54.5461C53.6648 54.4879 53.6532 54.424 53.6358 54.3658C53.6184 54.3077 53.601 54.2554 53.5778 54.203C53.5546 54.1565 53.5314 54.11 53.5024 54.0635C53.4792 54.0286 53.456 53.9937 53.4328 53.9646C53.4038 53.9356 53.3748 53.9007 53.3458 53.8716C53.3226 53.8484 53.2994 53.8309 53.2762 53.8135C53.2588 53.8018 53.2356 53.7902 53.2183 53.7728C53.1951 53.7611 53.1719 53.7495 53.1429 53.7379C53.1255 53.7321 53.1023 53.7263 53.0849 53.7204C53.0675 53.7204 53.0443 53.7146 53.0269 53.7088C53.0095 53.7088 52.9921 53.7088 52.9747 53.7088C52.9457 53.7088 52.9225 53.7088 52.9051 53.7146H52.8993C52.8993 53.7146 52.8587 53.7204 52.8529 53.7263C52.8355 53.7263 52.8239 53.7263 52.8123 53.7321C52.8065 53.7321 52.7949 53.7321 52.7891 53.7437C52.7891 53.7437 52.7543 53.7728 52.7311 53.7786C52.7311 53.7786 52.7079 53.796 52.7021 53.8018C52.6673 53.8309 52.6383 53.86 52.6093 53.8891C52.5803 53.9181 52.5513 53.953 52.5281 53.9879C52.4991 54.0286 52.4701 54.0693 52.4469 54.1158C52.4237 54.1623 52.4005 54.2147 52.3773 54.2612C52.3541 54.3193 52.3367 54.3833 52.3193 54.4414C52.3019 54.5112 52.2903 54.5868 52.2787 54.6566C52.2671 54.7438 52.2671 54.8252 52.2671 54.9066C52.2671 54.9822 52.2729 55.0578 52.2845 55.1334C52.2961 55.1915 52.3077 55.2496 52.3193 55.3078C52.3367 55.3659 52.3599 55.4241 52.3831 55.4764C52.4005 55.5171 52.4237 55.5578 52.4411 55.5927C52.4701 55.6334 52.4991 55.6799 52.5281 55.7206C52.5513 55.7497 52.5745 55.7729 52.6035 55.802C52.6267 55.8195 52.6499 55.8427 52.6673 55.8602C52.6847 55.8718 52.7079 55.8892 52.7311 55.9009C52.7543 55.9125 52.7717 55.9241 52.7949 55.9357C52.8181 55.9416 52.8413 55.9532 52.8645 55.959C52.8819 55.959 52.9051 55.9706 52.9225 55.9706C52.9399 55.9706 52.9573 55.9706 52.9747 55.9706C52.9921 55.9706 53.0153 55.9706 53.0385 55.9706C53.0617 55.9706 53.0849 55.959 53.1081 55.9532C53.1313 55.9474 53.1545 55.9357 53.1777 55.9299C53.1951 55.9183 53.2125 55.9125 53.2356 55.9009C53.253 55.8892 53.2704 55.8718 53.2878 55.8602C53.3168 55.8369 53.3458 55.8078 53.3574 55.802C53.3922 55.7671 53.4212 55.7264 53.456 55.6857C53.4792 55.6508 53.5024 55.6159 53.5256 55.5869C53.5546 55.5345 53.5778 55.488 53.5952 55.4357C53.6184 55.3776 53.6358 55.3194 53.6532 55.2613C53.6706 55.1973 53.6822 55.1275 53.6938 55.0578C53.7054 54.9764 53.7054 54.9008 53.7054 54.831C53.7054 54.831 53.7054 54.8252 53.7054 54.8194C53.7054 54.738 53.6996 54.6508 53.688 54.5693L53.6764 54.5461ZM53.8852 54.0693C53.8852 53.9705 53.8852 53.8716 53.8736 53.7728C53.7692 53.203 53.5256 52.6971 53.282 52.1912C53.0211 52.4122 52.5397 52.5575 52.3135 52.7378C51.9772 53.0053 51.751 53.4065 51.7046 53.8309C51.7046 54.0868 51.7278 54.3426 51.7046 54.5926C51.809 54.5926 51.9192 54.5926 52.0062 54.61C52.0352 54.4414 52.0874 54.2728 52.1628 54.1158C52.2671 53.9123 52.4121 53.7146 52.6151 53.6042C52.6151 53.6042 52.6209 53.5925 52.6267 53.5867C52.6441 53.5693 52.6673 53.5634 52.6905 53.5576C52.7253 53.5402 52.7543 53.5227 52.7891 53.5053C52.8761 53.4646 52.9747 53.453 53.0675 53.453C53.369 53.453 53.6242 53.6449 53.7866 53.8891C53.8214 53.9472 53.8562 53.9995 53.8852 54.0635V54.0693ZM54.4129 55.5694C54.8363 55.302 54.8885 54.7845 54.7783 54.331C54.7377 54.0926 54.6855 53.7263 54.3897 53.6914C54.2911 53.7146 54.2215 53.7728 54.1578 53.8425C54.1636 54.1565 54.1462 54.5112 54.1578 54.988C54.1578 55.2089 54.2679 55.3892 54.3839 55.5752C54.3955 55.5752 54.4071 55.5694 54.4187 55.5694H54.4129ZM60.108 84.4847C60.0558 83.7811 60.0036 83.0776 59.818 82.3973C59.76 82.188 59.731 81.967 59.673 81.7577C59.5976 81.6123 59.4874 81.4844 59.3888 81.3565C58.8031 80.6471 58.0782 80.0773 57.3474 79.5366C56.5935 78.9726 55.8338 78.4144 55.0567 77.8795C54.5347 77.5248 54.007 77.1875 53.4792 76.8445C53.5198 77.3969 53.5024 77.9492 53.4734 78.5016C53.4734 78.5714 53.4734 78.6877 53.4676 78.7749C53.5024 78.9784 53.5314 79.1819 53.5604 79.3854C53.6184 79.7982 53.7924 80.1878 53.8272 80.6064C53.8968 81.3042 53.6938 83.3857 52.6383 83.0427C52.4353 82.9497 52.3483 82.7462 52.3077 82.5368C52.2034 82.7229 52.0526 82.8741 51.8206 82.8741C51.6582 82.8683 51.5596 82.781 51.5074 82.6589C51.3972 82.7578 51.2696 82.7927 51.1073 82.7229C50.9913 82.5892 50.9217 82.3973 50.8811 82.1822C50.8463 82.2577 50.8057 82.3275 50.7419 82.3915C50.6433 82.4903 50.5041 82.5601 50.3649 82.5019C50.3649 82.6473 50.3591 82.7869 50.3533 82.9322C50.7071 82.9904 51.2522 83.2753 51.3972 83.3043C54.9987 84.3858 54.1462 84.7289 54.9117 87.9501C55.3466 89.6537 55.7294 91.3748 56.1412 93.0842C56.3093 93.6831 56.3731 94.346 56.7385 94.8693C57.1155 95.1832 57.678 95.1542 58.142 95.1542C58.2464 95.1542 58.3507 95.1367 58.4435 95.1018C58.5711 95.0379 58.6291 94.9042 58.6987 94.7879C58.9307 94.2994 59.1569 93.7936 59.2961 93.2703C59.6904 91.6074 59.905 89.9037 60.0964 88.2117C60.2066 86.9733 60.2472 85.7348 60.1022 84.4963L60.108 84.4847ZM60.1196 81.4088C60.6067 82.4496 60.7401 83.6125 60.7981 84.7521C60.8851 86.2523 60.8213 87.764 60.6241 89.2467C60.3052 91.0375 60.1892 92.8982 59.4468 94.5785C59.2323 95.1658 58.9887 95.5437 58.5537 95.7356C58.9945 97.3869 59.992 96.2124 60.8735 97.102C61.3607 97.6835 60.5545 98.23 60.0268 98.3521C59.5396 98.4684 59.0641 98.6428 58.5827 98.7475C58.3333 98.7766 57.8694 98.2707 57.8172 98.2416C57.5852 98.137 57.2547 96.5206 57.2663 95.8519C56.8313 95.7821 56.4021 95.5786 56.1702 95.2123C55.712 94.4274 55.6192 93.4912 55.3524 92.6365C54.9001 90.9445 54.4187 89.2583 54.0418 87.5489C53.4792 84.8277 54.1114 85.1999 51.4784 84.0079C51.0783 83.8218 50.7187 83.5485 50.3359 83.3218C50.2605 85.7348 50.1098 88.142 49.7212 90.5259C49.3558 92.3923 49.0369 94.2704 48.6193 96.131C48.3119 97.3637 47.9524 98.5847 47.6044 99.8057C47.3608 100.823 47.0129 101.829 46.9317 102.882C46.9201 103.056 46.9723 103.254 46.8331 103.393C46.7519 103.475 46.6649 103.55 46.5779 103.626C46.6069 103.667 46.6359 103.707 46.6591 103.742C46.9085 104.172 47.1984 104.603 47.6102 104.888C48.109 105.004 48.6135 104.829 49.1181 104.893C50.9159 105.05 48.9673 106.818 48.1669 107.004C47.9756 107.051 47.6798 107.254 47.5522 107.01C47.5116 106.928 47.5348 106.812 47.6102 106.754C47.587 106.766 47.5638 106.766 47.5348 106.766C46.8563 106.684 46.2183 106.376 45.998 105.684C45.7892 105.138 45.5804 104.562 45.505 103.981C45.4934 103.981 45.476 103.981 45.4644 103.981C44.9019 103.928 44.4553 103.463 44.1015 103.056C43.394 102.19 43.075 101.108 42.8605 100.027C42.3211 97.509 42.2167 94.9332 42.3443 92.3691C42.4719 90.1596 42.7213 87.9617 42.9765 85.7638C43.046 85.1243 43.1272 84.4905 43.2084 83.8509C43.3418 82.8624 43.5216 81.8217 43.2664 80.839C43.1736 81.6705 43.1736 83.1415 42.4081 82.9962C42.2515 82.9555 42.1413 82.8566 42.0717 82.7345C41.8804 83.2462 41.718 84.0021 41.0916 84.0777C40.6567 84.037 40.6741 83.6358 40.7553 83.2695C40.5233 83.6532 40.2507 83.9439 39.9434 83.9614C39.6418 83.9265 39.5838 83.6881 39.636 83.3916C39.433 83.63 39.2068 83.7986 38.9691 83.7753C38.0179 83.5427 39.5142 81.2228 39.7114 80.6762C40.3087 79.3098 41.1322 78.0423 41.689 76.6584C41.6484 76.2689 41.6542 75.8735 41.7006 75.4781C41.718 75.2746 41.8688 74.6292 42.0427 74.3268C41.8166 73.8849 41.7586 73.3558 41.776 72.8616C41.7296 72.0592 41.7528 71.251 41.7934 70.4486C41.805 70.3381 41.8224 70.0997 41.8688 69.873C41.7412 69.8381 41.6194 69.8032 41.4918 69.7567C41.2772 69.6985 41.0626 69.652 40.8539 69.5939C40.7089 69.7218 40.5581 69.8497 40.4073 69.9718C40.0477 70.2625 39.665 70.5184 39.2706 70.751C38.8879 70.9777 38.4993 71.187 38.0933 71.3673C37.2698 71.7336 36.3999 71.9952 35.5126 72.158C35.4662 72.1639 35.4198 72.1755 35.3734 72.1813C34.5151 72.3267 33.6452 72.3674 32.7753 72.2976C32.2591 72.2569 31.7372 72.1755 31.2326 72.0534C30.7513 71.9371 30.2757 71.7859 29.8175 71.6057C29.4406 71.4603 29.0636 71.2917 28.7041 71.1056C28.2981 70.8963 27.9153 70.6637 27.5674 70.4137C27.5558 70.4079 27.55 70.4021 27.5384 70.3905C27.5384 70.3905 27.5326 70.3846 27.5268 70.3846C26.7265 69.809 26.0073 69.1287 25.3926 68.3554C25.0794 67.9658 24.7952 67.553 24.5343 67.1227C24.2849 66.7099 24.0703 66.2796 23.8789 65.8377C23.676 65.3726 23.5136 64.89 23.386 64.4016C23.2584 63.9132 23.1656 63.4131 23.1134 62.9131C23.0612 62.4188 23.0438 61.9246 23.0612 61.4246C23.0844 60.9129 23.1366 60.4012 23.2178 59.8896C23.3802 58.8779 23.6876 57.8836 24.1167 56.9591C24.5517 56.0346 25.149 55.1915 25.8507 54.4531C26.5351 53.7321 27.3528 53.1332 28.2227 52.6564C28.2691 52.6331 28.3155 52.6041 28.3619 52.5808C28.6693 52.3831 28.9824 52.2029 29.3072 52.0342C29.6958 51.8307 30.0901 51.6563 30.5019 51.5168C30.5831 51.4877 30.6643 51.4644 30.6991 51.4528C31.6502 51.1679 32.6477 51.0342 33.6452 51.04C34.0917 51.04 34.5325 51.0632 34.9732 51.1098C35.4198 51.1621 35.8664 51.2319 36.3071 51.3307C37.2582 51.5458 38.1745 51.9063 39.0212 52.3889C39.8796 52.8715 40.6741 53.4879 41.3468 54.203C41.6832 54.5635 42.0138 54.9357 42.2979 55.3369C42.5705 55.7264 42.8257 56.1334 43.0576 56.5521C43.1504 56.7149 43.2316 56.8835 43.3128 57.0405C43.8174 57.0812 44.3161 57.1277 44.8149 57.2149C45.4702 57.2789 46.1139 57.4242 46.7403 57.6277C46.8853 57.6684 47.6914 57.9359 48.1553 58.215C48.1553 58.0406 48.1843 57.8603 48.2191 57.6859C46.9201 57.4068 46.0618 55.6043 45.8472 54.4298C45.824 54.2496 45.8298 54.0635 45.8472 53.8774C45.8298 53.8774 45.8124 53.8832 45.795 53.8832C45.2382 53.8949 44.6641 53.6216 44.2581 53.2495C43.8754 52.8076 43.6724 52.1331 43.6666 51.5516C43.7478 50.5341 44.5713 49.6852 45.4296 49.2142C46.6301 48.5281 47.819 49.3829 48.2945 50.5109C48.9151 50.1911 49.64 50.0632 50.3243 50.162C51.4668 50.1155 52.6093 50.6272 53.3168 51.5226C53.4502 51.7028 53.4734 51.8482 53.4212 51.9703C53.949 52.6855 54.0998 53.1041 54.1346 53.61C54.3143 53.4413 54.5695 53.4123 54.7841 53.6856C55.1959 54.2263 55.2249 55.1334 54.6797 55.5985C54.6333 55.645 54.5579 55.7206 54.4883 55.7729C54.7087 56.1974 54.8537 56.8428 54.3375 56.9998C54.4651 57.9941 53.34 58.9534 52.3947 58.9825C51.7916 58.9825 51.229 58.6453 50.8695 58.1743C50.8521 58.1569 50.8521 58.122 50.8753 58.1103C50.9449 58.0987 51.0261 58.1918 51.0899 58.215C51.5886 58.465 52.186 58.5929 52.7427 58.465C53.3574 58.2731 53.8562 57.7382 54.036 57.1219C54.0418 57.0986 54.0476 57.0696 54.0476 57.0405C53.9722 57.0463 53.8968 57.0521 53.8214 57.0463C53.6822 57.0405 53.6126 56.8544 53.7112 56.7556C53.862 56.6335 54.0824 56.7439 54.2563 56.68C54.4013 56.6742 54.3665 56.523 54.3433 56.4242C54.2911 56.0811 54.0592 55.8136 53.9142 55.5113C53.9142 55.5229 53.9084 55.5287 53.9026 55.5404C53.8736 55.6101 53.8446 55.6799 53.804 55.7439C53.7402 55.8602 53.659 55.9706 53.5604 56.0578C53.4618 56.1451 53.3458 56.2206 53.224 56.2672C53.1835 56.2788 53.1429 56.2904 53.1023 56.3021C53.0153 56.3195 52.9225 56.3195 52.8355 56.3021C52.6905 56.2788 52.5571 56.209 52.4469 56.116C52.2787 55.9764 52.1628 55.7846 52.0874 55.5811C52.0062 55.3776 51.9714 55.1566 51.9714 54.9415C51.8554 54.9415 51.7452 54.9008 51.6408 54.8543C51.635 54.8833 51.6234 54.9124 51.6118 54.9415C51.5306 55.1741 51.4378 55.5055 51.1421 55.5171C51.0493 55.5287 50.9565 55.4648 50.8927 55.4008C50.6665 55.1333 50.6085 54.7031 50.2663 54.5403C50.1735 54.5054 50.0692 54.5345 49.9764 54.5519C49.7328 54.6159 49.5182 54.6973 49.3616 54.8891C48.8455 55.645 49.8082 56.8021 49.0079 57.4359C48.9441 57.5987 48.7759 57.6743 48.6077 57.7033C48.6077 57.9882 48.5381 58.3487 48.5207 58.4883C49.4776 58.2848 50.5969 58.3429 51.2174 58.9476C52.012 59.4767 52.3483 60.3256 52.4527 61.2269C52.6209 61.7793 52.7775 62.3374 52.8935 62.9015C53.1255 64.012 53.1545 65.1516 53.2356 66.2796C53.3516 68.3263 53.4154 70.373 53.3922 72.4139C53.3922 73.6814 53.3226 74.949 53.4154 76.2107C54.0128 76.5712 54.6101 76.9492 55.1901 77.3387C56.1702 78.0074 57.1213 78.7226 58.0724 79.4261C58.8321 79.9843 59.5628 80.6181 60.108 81.3914L60.1196 81.4088Z" fill="black"/>
<path d="M51.9835 76.1677C51.305 76.2491 50.6149 76.2666 49.9421 76.1387C49.6638 76.098 49.4086 75.9119 49.136 75.9061C49.0838 75.9061 49.0374 75.8596 49.0316 75.8072C49.02 75.6096 49.281 75.6677 49.4028 75.6619C49.7798 75.691 50.2205 75.6503 50.5801 75.6851C51.2064 75.7026 51.8038 75.7607 52.4127 75.6328C52.5925 75.6503 52.6795 75.877 52.5577 76.0049C52.4069 76.1445 52.1749 76.127 51.9893 76.1619L51.9835 76.1677Z" fill="black"/>
<path d="M51.5562 74.2694C50.9066 74.2868 50.2571 74.2926 49.6133 74.2054C49.422 74.1938 49.2306 74.1415 49.045 74.1705C48.9986 74.1705 48.9464 74.1705 48.9116 74.1531C48.8014 74.095 48.9 73.9205 49.0044 73.9961C49.422 73.9089 49.8453 73.9787 50.2629 73.9961C50.5877 73.9787 50.924 73.9961 51.2372 73.9787C51.4054 73.9787 51.591 73.8682 51.7475 73.9554C51.9157 74.1008 51.7475 74.2868 51.562 74.2636L51.5562 74.2694Z" fill="black"/>
<path d="M51.6275 74.2955C50.92 74.3246 50.2009 74.3478 49.4933 74.2781C49.3136 74.2432 49.1164 74.2025 48.954 74.1327C48.9018 74.1153 48.8496 74.0804 48.8496 74.0164C48.8554 73.7082 49.9805 73.9815 50.2473 73.9292C50.688 73.9292 51.1404 73.9466 51.5753 73.8885C51.6623 73.8769 51.7551 73.8594 51.8363 73.8885C52.0103 73.9466 52.0045 74.2141 51.8247 74.2664C51.7609 74.2839 51.6913 74.2839 51.6217 74.2897L51.6275 74.2955Z" fill="black"/>
<path d="M51.2426 75.2872C50.7844 75.3512 50.796 74.4963 51.2194 74.6417C51.6429 74.5021 51.6197 75.2872 51.2426 75.2872ZM51.2716 75.1069C51.5791 74.9557 51.2716 74.6766 51.1266 74.7871C51.0338 74.8569 51.0106 75.2174 51.2716 75.1069Z" fill="black"/>
<path d="M42.9386 79.4577C42.3701 79.1437 41.8249 78.7715 41.2796 78.4167C41.1926 78.3644 40.9896 78.2771 41.1172 78.1608C41.1578 78.1376 41.2042 78.1492 41.2274 78.1783C41.6508 78.3644 42.1149 78.4458 42.5267 78.6493C42.7472 78.7715 43.4142 79.0681 43.217 79.3879C43.1532 79.481 43.0314 79.5042 42.9328 79.4577H42.9386Z" fill="black"/>
</svg>
