<svg width="194" height="342" viewBox="0 0 194 342" fill="none" xmlns="http://www.w3.org/2000/svg">
<g clip-path="url(#clip0_6780_20817)">
<path d="M133.5 27.7784C127.73 25.0484 122.43 22.8084 116.82 26.8184C109.76 23.4484 110.88 15.7484 117.14 14.7884C120.99 8.20835 124.04 -3.34165 142.97 2.91835C152.11 8.36835 154.36 21.0484 150.67 26.6584C147.78 24.7384 140.72 28.4184 133.51 27.7784H133.5Z" fill="#A8616A"/>
<path d="M140.561 53.4444C135.111 60.3444 121.471 46.8644 121.471 46.8644L123.071 41.7344L139.911 45.4244L140.551 53.4444H140.561Z" fill="#A8616A"/>
<path d="M182.71 113.919C182.39 118.889 174.32 131.309 165.67 128.339C171.44 140.529 168.48 156.799 169.44 168.829C166.55 168.989 161.52 165.559 158.31 166.209C152.03 155.649 147.45 121.169 147.45 121.169C147.45 121.169 140.65 116.949 135.11 115.029C133.51 133.959 136.71 160.429 126.61 164.439C104.79 159.309 93.5097 173.589 93.3497 163.169C91.5897 152.099 88.7497 129.789 93.3997 123.699C96.7697 118.729 96.9297 112.949 95.4897 106.379C92.5997 92.9089 84.8997 76.8889 92.1197 58.2789C99.9797 53.7889 106.24 51.8389 111.85 50.3989C112.81 50.0789 116.66 45.1089 119.39 45.4289C125.81 52.3289 138.96 59.5489 142.49 53.9289C155.96 64.3589 171.65 63.4989 172.01 75.2589C181.96 93.7089 174.58 94.0289 160.94 97.7189C156.29 112.799 166.51 110.239 182.71 113.929V113.919Z" fill="#6F479F"/>
<path d="M182.43 105.264C181.15 99.9738 175.85 97.4037 176.66 92.5938C170.4 95.0038 158.69 94.0338 159.66 104.784C160.15 109.624 163.54 110.764 172.15 111.524C180.69 113.754 186.77 112.034 182.44 105.264H182.43Z" fill="#A8616A"/>
<path d="M103.99 114.563C100.78 112.643 98.6995 109.273 96.2895 106.383C85.0595 111.513 89.3895 121.943 97.7295 126.913C99.8195 123.703 111.04 117.453 103.99 114.563Z" fill="#A8616A"/>
<path d="M142.65 96.9191C141.21 96.7591 136 96.8891 134.88 95.2891C132.31 84.2191 134.29 65.8791 128.84 54.2891C131.89 56.6991 141.69 52.9691 141.05 57.4591C139.93 71.8991 142.01 85.6891 142.65 96.9191Z" fill="white"/>
<path d="M165.429 171.028C170.559 182.258 90.8389 180.648 97.2589 167.498C107.049 163.968 118.429 166.538 128.379 165.088C137.679 151.618 135.439 135.088 135.759 119.688C134.959 117.598 137.199 116.318 138.969 117.598C147.629 119.518 147.789 123.048 149.079 130.908C152.289 142.298 149.719 158.818 158.059 167.638C161.429 168.758 166.239 164.908 165.439 171.008L165.429 171.028Z" fill="white"/>
<path d="M120.67 24.1169C128.05 21.8669 127.57 30.0169 144.25 27.1269C160.35 22.9669 144.74 46.3369 134.31 45.2169C122.12 44.0969 110.01 29.3669 120.67 24.1169Z" fill="white"/>
<path d="M117.139 321.968C116.659 321.968 116.339 321.648 115.859 321.168C115.539 320.528 115.539 319.728 115.539 319.078C116.659 319.398 116.819 320.838 117.139 321.968Z" fill="#0079D0"/>
<path d="M116.011 338.831C113.281 336.741 112.831 333.351 112.671 330.301C112.511 328.211 112.791 323.741 112.471 321.651C112.151 320.531 113.461 319.081 114.901 318.921C116.991 318.761 116.661 321.491 117.311 322.771C121.701 316.731 128.421 323.811 129.381 323.161C132.971 324.811 132.341 332.991 132.021 335.881C127.681 342.271 118.091 340.111 116.011 338.831Z" fill="#3F3D56"/>
<path d="M157.19 318.082C158.94 316.872 171.7 321.622 176.01 317.492C178.79 319.062 188.76 325.252 189.7 325.882C198.41 331.702 183.63 338.402 179.1 336.412C175.06 334.642 170.39 332.382 166.33 331.732C158 330.402 151.95 329.722 157.19 318.092V318.082Z" fill="#3F3D56"/>
<path d="M124.839 305.929C124.839 305.929 119.549 302.239 117.299 305.929C114.729 308.659 115.789 314.909 114.189 318.919C116.279 322.609 118.929 322.679 121.629 318.449C130.449 324.709 124.839 305.939 124.839 305.939V305.929Z" fill="white"/>
<path d="M175.531 317.708C173.121 315.788 170.581 308.008 170.581 308.008L157.761 308.368C157.761 308.368 156.731 315.978 158.281 317.478C165.191 324.158 173.521 320.128 175.541 317.708H175.531Z" fill="white"/>
<path d="M171.361 254.436C174.411 273.366 171.521 305.926 171.521 305.926C171.521 305.926 159.271 309.456 155.581 306.406C152.351 303.176 150.641 290.466 146.951 264.956C132.831 165.666 127.251 245.126 131.581 295.016C131.421 307.846 124.201 306.276 109.441 303.226C103.061 267.956 106.071 224.366 96.8809 172.906C120.451 177.436 128.531 183.056 165.581 176.636C167.831 182.086 167.831 205.666 171.351 254.436H171.361Z" fill="#3F3D56"/>
<path d="M140.561 50.2381C140.561 50.0781 140.721 50.0781 140.721 50.0781C140.881 50.0781 140.881 50.2381 140.881 50.2381L140.721 50.3981C140.721 50.3981 140.561 50.3981 140.561 50.2381Z" fill="black"/>
<path d="M130.209 30.7768C130.209 30.2968 130.819 29.8468 131.259 30.3368C132.689 31.9468 134.729 31.9668 136.389 31.2968C136.929 31.0768 137.509 31.1368 137.829 31.6168C138.469 33.2168 136.549 33.5368 135.099 33.5368C132.159 33.5368 130.519 32.3668 130.199 30.7668L130.209 30.7768Z" fill="black"/>
<path d="M134.97 25.1138C133.23 24.8138 132.31 24.4838 130.67 22.7038C130.45 22.4638 130.63 21.4638 131.45 21.9838C131.94 22.2938 133.51 23.7938 135.41 23.8538C137.13 23.9038 138.41 23.4038 139.37 23.0838C139.85 23.0838 140.08 23.3638 139.92 23.8438C139.28 24.9638 136.23 25.3338 134.97 25.1138Z" fill="black"/>
<path d="M140.85 15.5777C138.44 15.7377 138.28 13.0077 140.69 12.6877C143.41 11.9577 151.57 15.6777 147.12 17.0077C145.58 17.4677 143.14 15.5677 140.85 15.5677V15.5777Z" fill="black"/>
<path d="M175.051 316.996C175.051 316.676 175.211 316.516 175.531 316.516C175.851 316.516 176.011 316.676 176.011 316.996C176.011 317.316 175.851 317.476 175.531 317.476C175.211 317.476 175.051 317.316 175.051 316.996Z" fill="black"/>
<path d="M190.83 325.41C189.05 324.15 178.51 317.93 175.37 314.75C170.99 309.33 172.49 301.08 172.8 294.06C173.3 282.91 173.76 271.76 173.6 260.53C173.12 237.59 170.71 214.81 168.47 192.03C168.15 188.02 167.67 184.17 167.51 180.16C167.51 178.88 167.35 177.27 167.19 175.99V175.83C167.99 174.23 167.67 171.82 167.19 169.89C167.67 170.05 167.99 170.37 168.47 170.53C171.52 170.53 170.3 163.46 170.3 161.53C170.14 157.84 170.55 155.13 170.71 151.44C170.87 144.22 168.95 137.32 167.34 130.27C167.34 130.11 167.18 129.95 167.18 129.63C167.98 129.95 168.78 130.11 169.43 130.11C173.12 130.11 176.49 127.06 178.57 123.85C179.85 121.93 181.46 120.16 182.58 118.08C182.9 116.96 184.67 113.91 184.34 112.14C184.5 111.66 184.66 111.18 184.66 110.54C184.98 109.26 184.66 108.29 184.18 107.01C184.02 106.21 184.18 105.41 183.86 104.76C183.7 104.44 183.54 104.12 183.54 103.64C183.7 103 182.86 102.44 182.7 101.8C183.34 99.2297 181.29 96.8997 179.05 95.7797C180.81 93.8597 179.69 90.9697 177.29 90.6497C177.13 89.0497 176.49 87.4397 176.33 85.8397C175.21 79.4197 173.12 73.1697 170.07 67.2297C167.5 62.5797 161.73 62.4197 157.24 61.2897C156.76 61.2897 156.28 61.1297 155.96 60.9697C155 60.6497 154.04 60.1697 153.07 59.6897C150.66 58.0897 148.26 56.3197 146.01 54.3997C144.09 52.9597 143.44 51.8297 141.68 50.3897C141.52 50.2297 141.52 47.0197 141.36 45.2597C150.66 41.0897 153.87 25.8497 152.59 16.5497C151.47 -0.930304 130.06 -5.7103 120.11 7.7697C120.11 7.7697 117.56 10.7397 116.65 13.6397C109.3 13.3397 108.78 26.4997 115.99 27.2997C115.35 32.9097 117.61 38.3697 121.46 41.5697C121.46 41.5697 120.82 45.2597 120.66 45.5797C120.66 45.7397 119.7 45.0997 119.22 44.7797C118.9 44.6197 118.58 44.6197 118.26 44.7797C105.89 53.1597 93.8401 52.7897 89.8301 60.6497C85.8301 72.5797 91.3101 102.84 93.8801 106.21C93.9868 106.423 94.1468 106.583 94.3601 106.69C92.9201 107.17 92.2701 108.13 90.6701 109.58C89.2301 111.02 87.4601 112.31 87.7801 114.55C87.7801 115.83 88.2201 118 89.2201 119.04C89.5401 120.64 90.3401 122.25 91.3101 123.37C90.9901 124.49 90.8301 125.78 90.6701 126.1C89.3901 131.71 89.5501 137.49 89.8701 143.1C89.8701 147.91 90.5101 152.72 91.1501 157.54C91.4701 161.07 92.7501 164.6 93.7201 167.97C93.8801 168.45 94.2001 168.61 94.5201 168.77C94.6801 168.77 94.8401 168.93 95.0001 168.93H95.4801C95.3201 169.73 94.5901 171.21 94.5201 171.66C94.1701 173.91 95.1601 177.27 95.6401 180.16C96.6001 183.85 97.7301 187.54 98.2101 191.23C99.3301 196.2 99.9701 201.34 100.78 206.47C102.06 214.97 103.19 223.47 103.19 232.14C103.51 244.33 104.31 256.36 105.11 268.55C105.59 276.09 105.75 283.79 106.39 291.33C106.71 295.18 106.87 299.19 108.15 302.88C108.31 303.36 108.47 304 108.95 304.32C109.27 304.8 109.91 304.8 110.39 304.96C111.67 305.6 112.8 305.92 114.08 306.08C113.92 308.17 114.4 310.25 114.24 312.34C114.08 313.46 113.44 315.07 112.8 316.67C111.04 320.52 111.36 324.69 111.52 329.18C111.71 336.13 113.96 341.65 123.53 341.87C136.5 342.17 133.18 329.02 132.05 324.85C130.93 321.96 128.51 320.52 125.47 306.56C126.27 306.56 126.91 306.4 127.56 306.24C132.37 303.19 131.41 294.37 131.89 289.24C132.05 283.63 132.53 278.17 132.21 272.56C131.89 265.82 131.89 258.93 132.05 252.03C132.21 240.48 133.17 229.09 135.1 217.7C136.54 224.92 139.75 231.66 141.52 238.87C142.48 243.68 143.12 248.33 143.61 253.15C145.86 267.91 147.3 282.83 151.47 297.26C153.07 302.39 153.07 306.4 156.12 308.33C158.56 314.57 153.11 324.73 154.36 328.38C155.96 332.65 163.84 333.09 164 333.09C164.8 333.09 165.43 332.39 165.59 332.23C165.75 332.23 170.24 333.67 172.17 334.8C174.09 335.76 176.26 338.05 180.99 337.69C199.42 336.27 192.43 326.73 190.84 325.41H190.83ZM175.53 317.71C168.36 321.03 162.24 321.5 158.46 316.17C158.62 313.76 158.6 311.29 158.12 308.88C162.41 309.72 168.81 308.97 170.57 308.01C170.63 311.19 174.4 316.59 175.52 317.71H175.53ZM168.8 150.63C168.48 155.44 168.64 166.69 168.8 168.13C167.68 167.65 165.27 166.21 163.99 166.04C162.07 165.56 159.82 166.04 158.22 164.92C154.05 158.52 149.89 124.03 148.76 122.11C149.24 122.27 150.36 122.89 150.84 123.05C155.49 124.65 159.98 126.74 164.47 128.5C165.91 134.92 169.12 143.72 168.8 150.62V150.63ZM136.55 116.97C137.03 117.13 143.61 120.34 146.66 121.3C146.34 122.26 151.95 150.66 153.4 157.71C154.2 160.6 154.52 163.97 156.45 166.53C158.37 168.29 161.1 167.65 163.51 167.97C163.83 167.97 164.15 168.13 164.47 168.13C164.15 169.73 165.11 172.3 164.79 173.58C162.06 175.02 158.85 175.67 155.81 175.83C151.8 176.47 147.95 176.79 143.94 176.79C132.39 176.95 120.84 176.31 109.45 175.03C106.88 174.55 104.32 173.91 102.07 172.46C100.63 171.82 99.0201 170.86 98.3801 169.25C98.2201 168.77 98.0601 168.45 98.0601 167.97C98.8601 167.97 99.9901 167.33 101.11 167.17C107.37 165.57 113.78 165.08 120.2 165.73C121.16 165.73 122.29 165.89 123.25 165.89C125.5 166.21 127.74 166.53 129.67 164.93C130.63 163.81 131.27 162.2 131.92 160.92C134.49 156.27 137.26 142.54 136.57 116.97H136.55ZM169.33 127.88C167.73 127.4 140.72 116.49 140.24 116.33C141.52 116.01 156.93 113.97 161.66 110.76C162.94 111.24 181.46 114.44 182.26 114.28C180.98 116.2 170.77 128.36 169.33 127.88ZM175.61 96.4997C176.12 97.9097 177.62 98.3597 178.1 98.6797C179.06 99.4797 179.86 100.44 180.35 101.73C179.23 102.37 178.43 103.65 179.71 104.78C180.35 105.1 180.83 105.42 181.15 106.06V106.22C180.67 107.02 179.87 107.98 180.51 108.95C180.83 109.43 181.15 109.91 181.31 110.39C180.03 113.12 174.25 111.58 172.04 111.14C169.05 110.55 162.06 108.62 161.74 108.78C161.9 107.34 160.78 100.93 160.29 99.7997C160.77 99.4797 171.6 95.0397 176.41 93.5997C176.25 94.0797 175.4 95.9497 175.6 96.4997H175.61ZM152.66 61.9297C153.94 62.5697 161.93 64.8297 163.86 65.3097C167.84 66.4997 169.73 70.3797 171.02 74.1797C171.73 76.2997 175.45 90.3597 175.61 90.9997C174.49 91.3197 163.11 96.0797 160.14 97.2397C159.9 91.7997 163.83 87.4497 164.63 86.0097C164.95 85.5297 164.79 84.8897 164.15 84.5697C162.55 83.7697 161.42 87.1397 160.62 88.0997C160.46 87.4597 160.3 86.6597 160.14 86.1797C160.14 85.8597 159.82 85.6997 159.5 85.8597C158.7 86.1797 158.86 87.2997 158.7 87.9497C158.22 90.8397 156.94 93.8897 156.94 96.7697V97.4097C154.37 96.6097 151.81 96.4497 149.24 96.2897C147.15 96.2897 145.55 96.1297 143.46 95.9697C141.41 79.6997 141.7 76.2397 141.7 71.7497V67.4197C142.5 65.3297 142.66 62.4497 143.62 60.1997C143.62 60.0397 143.78 60.0397 143.94 60.1997C146.99 64.5297 150.75 69.4897 152.67 61.9497L152.66 61.9297ZM140.4 55.6397C140.34 57.3097 138.83 70.7697 140.08 83.4397C140.4 86.8097 140.88 90.0197 141.36 93.3897C141.52 94.0297 141.95 95.9797 141.95 95.9797C140.03 95.6597 137.52 95.2497 135.47 94.8197C132.82 84.0297 135.2 68.5297 130.86 58.2997C130.54 57.3397 130.22 56.2097 129.74 55.2497C130.7 55.7297 136.29 57.7897 140.41 55.6497L140.4 55.6397ZM122.76 46.3897C122.76 46.0697 122.92 45.5897 122.92 45.2697C123.08 44.3097 123.4 43.3497 123.4 42.3797C127.73 45.2697 135.53 47.0597 139.76 45.9097C139.76 47.5097 139.76 48.6397 139.76 50.2397C139.76 51.1997 140.08 51.9997 140.4 52.6497C140.08 52.8097 138.1 54.5297 134.95 54.2497C131.26 53.9297 125.59 50.3997 122.76 46.3897ZM141.53 55.2097C141.93 54.8997 142.25 54.4597 142.5 54.2897C142.66 54.4497 150.73 60.8897 150.89 61.0497C150.65 61.6397 150.33 63.4497 150.02 64.2497C149.93 64.4797 149.65 64.5397 149.48 64.3597C148.71 63.5697 146.65 61.4997 146.03 60.4997C145.39 59.3797 144.91 58.0897 143.62 58.0897C142.5 58.0897 141.86 60.9797 141.37 61.9397C141.37 60.4997 141.69 56.6497 141.53 55.1997V55.2097ZM113.86 16.7197C114.4 16.0897 115.45 15.1397 117.57 15.2997C122.72 2.4397 138.96 -2.3603 147.3 6.9197C152.27 12.3697 151.15 20.5497 150.67 25.0497C150.61 25.4797 150.52 25.8597 150.45 26.2697C150.11 26.1097 149.71 25.9697 149.22 25.8497C143.45 24.2497 138.15 29.3797 132.38 26.4897C129.01 25.2097 126.12 22.4797 122.43 22.6397C120.2 22.4997 117.86 24.0597 116.81 25.8497C111.67 24.8197 111.25 19.7597 113.85 16.7197H113.86ZM119.02 36.1497C118.19 34.8897 117.81 31.8797 117.73 30.3697C117.64 28.6397 117.6 26.2297 119.67 25.1497C120.71 24.6097 122.21 24.0497 123.36 24.2997C129.23 25.5997 134.01 30.9697 140.51 28.4597C142.76 27.6597 147.27 25.6397 150.33 27.7797C147.27 53.4797 124.81 44.9097 119.02 36.1397V36.1497ZM119.23 46.0597C119.39 46.2197 125.65 52.1597 125.97 52.3197C125.65 52.4797 119.71 58.0897 116.51 58.5797C114.26 58.5797 111.06 51.6797 111.06 51.1997C113.47 49.4397 116.83 47.6697 119.24 46.0697L119.23 46.0597ZM90.6701 63.2297C93.0801 54.8897 102.38 54.5697 109.44 51.3597C109.28 52.1597 109.76 53.1197 110.08 54.0897C110.24 54.4097 113.29 60.1897 115.69 60.6697C116.01 60.6697 116.49 60.8297 116.81 60.8297C118.25 60.8297 127.08 54.4097 127.24 54.2497C128.68 58.4197 130.13 62.7497 131.09 67.0797C132.37 76.0597 131.89 85.2097 133.5 94.1897C129.49 92.9097 125.64 91.2997 121.95 89.3797C119.06 87.1297 115.87 80.8197 115.87 80.8197C115.87 80.8197 111.52 73.3397 109.27 69.6497C109.27 69.3297 108.79 69.1697 108.63 69.4897C108.47 69.8097 108.79 70.1297 108.79 70.2897C110.23 73.9797 111.84 77.6697 113.44 81.3597C120.28 94.8497 128.56 95.3797 133.83 96.4097C137.11 97.0597 151.5 98.6697 156.47 99.5297C157.67 99.7397 158.61 100.63 158.9 101.81C159.6 104.67 159.94 108.85 159.97 109.08C160.29 111.99 135.5 115 122.34 115.96C119.69 115.96 111.98 116.26 106.28 113.69C101.3 111.44 96.4801 105.65 95.5901 103.85C94.4701 101.12 88.0701 83.6197 90.6701 63.2197V63.2297ZM94.6801 111.19C93.4001 111.99 92.4301 113.28 91.1501 114.24C90.8301 114.56 90.6701 114.88 90.5101 115.2C88.7101 112.85 91.7901 111.51 92.4301 110.87C93.3901 110.07 94.1901 109.11 95.1601 108.3C95.3201 108.14 95.6401 107.82 95.9601 107.66C96.9201 108.78 97.8801 109.75 98.8501 110.87C100.29 112.47 101.58 114.08 103.34 115.36C104.61 116.23 104.78 116.8 105.91 116.96C105.27 117.28 104.95 118.56 104.47 119.05C103.35 120.33 102.38 121.94 100.94 123.06C99.8201 123.7 99.1801 124.98 98.2101 125.79C97.8901 124.99 97.2501 124.35 97.0901 123.54C97.0901 121.62 98.8501 120.01 99.6601 118.25C99.8201 117.93 99.9801 117.61 99.9801 117.29C99.6601 116.65 99.1801 117.45 98.8601 117.61C97.2601 118.57 96.1301 120.02 95.3301 121.62C95.1701 121.94 95.1701 122.26 95.1701 122.58C94.8501 121.62 95.0101 120.49 94.6901 119.37C94.8501 118.25 95.4901 117.28 95.9701 116.32C96.1301 116 96.6101 115.36 95.9701 115.36C95.6501 115.52 95.3301 115.84 95.1701 116C94.3701 116.96 93.4101 117.76 93.0801 119.05C93.0801 119.53 92.9201 120.01 92.9201 120.49V120.97C92.6001 120.33 91.6401 118.75 91.3401 117.39C91.1801 116.11 93.8901 113.59 94.8501 112.79C95.0101 112.47 95.3301 112.31 95.4901 111.99C95.8101 111.51 95.1701 110.87 94.6901 111.19H94.6801ZM93.6601 157.77C92.2501 150.76 91.3301 150.49 92.9201 125.15C92.9201 125.15 93.0801 124.83 93.2401 124.35C93.5601 125.15 93.8801 125.79 94.5201 126.44C94.6801 126.6 94.8401 126.6 95.1601 126.6C95.4801 126.6 95.6401 126.44 95.9601 126.28C96.2801 127.08 96.6001 127.88 97.5601 128.04C99.4801 128.04 100.29 125.63 101.41 124.51C102.85 123.71 108.31 118.74 107.02 116.97H107.18C111.51 117.77 116 117.93 120.33 118.09C124.66 118.09 129.81 117.74 134.14 117.1C133.98 118.54 135.89 155.06 127.71 162.85C126.59 163.33 115.36 162.85 111.83 162.69C105.57 162.85 100.75 163.42 95.7601 166.22C94.9601 163.01 94.6601 162.82 93.6501 157.77H93.6601ZM129.98 324.54C131.42 327.91 132.71 332.08 131.1 335.77C127.83 340.25 122.79 341.72 116.34 337.21C112.91 334.82 113.6 330.65 113.6 327.44C113.6 326 113.45 321.16 113.61 320.68C113.93 321.8 116.66 323.41 118.1 323.41C119.86 323.41 120.19 321.32 121.63 320.68C123.88 321.64 125.16 323.73 127.57 324.05H128.05C128.53 324.05 129.01 323.89 129.33 323.73C129.49 324.05 129.81 324.37 129.97 324.53L129.98 324.54ZM126.77 319.41C126.93 319.73 128.97 322.35 129.13 322.67C128.97 322.51 121.4 315.35 118.27 321.34C117.47 321.5 114.36 319.41 114.2 318.93C115 316.52 115.73 315.42 116.06 312.57C116.15 311.76 116.31 308 115.83 306.23C116.63 306.23 122.73 306.39 124.05 306.42C124.05 310.91 124.85 315.4 126.78 319.41H126.77ZM155.08 304.05C154.12 301 153.64 298.23 152.76 295.15C149.75 284.64 149.59 278.34 147.98 267.59C146.86 259.41 145.46 247.93 143.85 239.91C142.25 233.01 136.7 216.49 136.06 215.05C136.86 210.24 138.79 203.26 139.92 198.45C140.56 194.76 141.2 191.23 141.68 187.54C141.84 186.26 140.08 186.1 139.76 187.22C137.19 198.45 134.63 209.36 132.86 220.75C130.94 229.73 129.97 239.04 129.81 248.18C129.81 256.36 129.65 264.54 129.97 272.56C130.13 278.01 129.81 283.63 129.81 289.08C129.49 292.29 129.97 302.52 127.24 304.28C124.35 304.28 121.3 304.12 118.42 304.12C116.17 304.12 111.62 303.6 109.7 302.48C108.45 298.06 106.39 247.07 104.2 217.19C102.18 189.59 100.52 189.86 98.5901 180.59C98.1901 178.66 97.5201 174.98 96.8801 172.9C102.33 176.91 110.56 178.4 117.14 178.56C125.96 179.52 134.95 179.68 143.93 180H146.02C150.03 180 153.88 179.52 157.73 179.04C159.98 178.88 162.22 178.08 164.31 177.28C164.47 178.56 164.63 180.01 164.63 181.29C165.43 189.15 166.23 197.17 167.04 205.03C168.16 216.1 169.13 227.17 170.09 238.24C170.73 249.63 171.44 252.75 171.6 264.14C171.92 271.68 171.51 287.37 171.19 294.77C171.06 297.8 170.94 301.91 170.87 305.1C170.86 305.77 169.93 306.28 169.28 306.45C167.18 307.02 164.96 306.97 162.78 307.12C161.15 307.23 155.58 306.46 155.1 304.05H155.08ZM189.28 333.14C186.32 334.77 182.33 335.25 178.82 335.08C175.93 334.94 173.19 332.71 170.49 331.36C168.26 330.25 165.58 328.76 163.65 331.01C162.53 330.85 155.35 330.24 156.19 326.28C156.68 323.96 157.46 320.75 158.02 318.38C159.78 320.95 163.19 322.23 166.76 322.59C168.09 322.72 175.57 319.99 176.86 319.19C177.34 319.67 198.1 328.3 189.28 333.15V333.14Z" fill="black"/>
<path d="M143.27 20.278C142.65 19.918 141.66 19.648 140.69 19.658C140.05 19.658 139.25 20.138 138.93 19.498C138.61 18.858 139.41 18.378 140.05 18.378C141.33 18.218 142.62 18.378 143.74 19.018C144.38 19.338 145.57 20.078 145.12 20.748C144.64 21.468 143.77 20.578 143.27 20.288V20.278Z" fill="black"/>
<path d="M125.91 18.3773C125.6 17.6373 126.91 17.1473 127.61 16.9573C128.84 16.5473 130.13 16.6473 131.35 17.0573C131.98 17.1873 132.67 17.8173 132.23 18.3773C131.79 18.9473 131.1 18.3273 130.47 18.1873C129.52 17.9873 128.5 18.0573 127.82 18.2873C127.27 18.4773 126.25 19.1773 125.91 18.3773Z" fill="black"/>
<path d="M125.39 14.4696C121.29 12.2996 130.01 10.2296 132.54 11.4796C134.84 12.2596 134.15 14.9096 131.82 14.2796C129.57 13.8396 126.81 15.2296 125.39 14.4696Z" fill="black"/>
<path fill-rule="evenodd" clip-rule="evenodd" d="M97.1003 106.568C99.4503 80.8576 91.5603 67.2476 75.7603 61.8776C62.4903 73.6376 61.9803 67.2576 54.4203 68.4276C44.1703 65.5676 39.6303 59.3576 39.6303 59.3576C39.6303 59.3576 17.2803 55.3276 7.3703 76.6676C-1.1897 94.9776 -0.179701 108.248 4.3603 119.338C8.0603 121.688 6.0403 124.878 13.9403 125.558C12.2603 138.998 12.0903 148.908 11.0803 164.368C50.0603 164.538 93.0703 161.848 93.0703 161.848C93.0703 161.848 93.0703 133.118 97.1003 106.568Z" fill="#FDC82E"/>
<path d="M73.7491 29.4516C79.7991 37.8516 59.4691 48.4416 67.0291 58.1816C67.6991 59.0216 67.0291 60.3616 66.0191 60.8716C52.5791 63.5616 60.6391 69.2716 52.7491 68.2616C49.2191 66.0816 52.4091 59.6916 47.2091 58.5116C45.1891 57.1716 49.2291 55.1516 47.8791 53.8116C41.4991 46.9216 35.1091 37.5116 36.4491 30.4616C45.5191 -5.6584 69.5491 22.0616 73.7491 29.4516Z" fill="#FFCBAE"/>
<path d="M18.3003 92.7971C3.3503 83.7271 14.4403 95.8171 9.0603 91.9571C7.5503 98.0071 23.6803 98.507 28.2103 99.017C28.3803 92.797 10.5703 80.0271 18.3003 92.7971Z" fill="#FFCBAE"/>
<path d="M76.2697 107.582C71.3997 100.192 47.0297 103.212 47.0297 103.212C47.0297 103.212 42.6597 109.932 44.6797 116.152C55.4297 112.792 69.5497 118.672 76.2697 107.582Z" fill="#FFCBAE"/>
<path d="M92.8996 164.54C94.7496 169.41 100.29 177.98 97.4396 181.01C94.9196 183.7 90.3796 191.09 86.5196 191.43C62.4896 193.11 11.2496 186.56 11.2496 186.56C11.2496 186.56 4.02964 175.81 12.2596 164.72C42.6696 164.38 77.6196 162.54 92.9096 164.55L92.8996 164.54Z" fill="white"/>
<path d="M67.7012 289.039C67.7012 289.039 63.8412 297.949 57.1112 298.449C54.7612 300.969 60.4712 307.359 60.3012 310.549C63.1612 313.739 78.9512 306.179 73.9112 293.079C70.7212 291.399 67.6912 289.049 67.6912 289.049L67.7012 289.039Z" fill="#FFCBAE"/>
<path d="M58.7904 314.254C55.9304 312.404 50.8904 312.234 47.7004 311.734C40.1404 319.634 61.4804 327.524 58.7904 314.254Z" fill="#FFCBAE"/>
<path d="M84.8405 295.092C83.1605 290.722 77.6205 289.712 74.4205 292.232C73.5805 296.262 75.4305 300.132 73.7505 304.162C67.0305 313.072 60.1405 311.552 60.1405 311.552C60.1405 311.552 58.6305 315.752 57.1205 321.462C50.4005 325.492 47.2105 313.562 41.4905 319.952C33.7605 327.342 38.6305 325.162 29.7305 335.242C31.2405 339.782 40.4805 343.472 51.2405 335.742C55.9405 327.842 61.4905 336.752 72.4105 326.162C77.2805 321.292 79.4705 307.342 83.3305 307.512C87.0305 300.622 88.0305 296.082 84.8405 295.082V295.092Z" fill="#6F479F"/>
<path d="M73.2395 60.2028C69.7095 56.3428 68.8695 60.0328 65.5095 61.3828C62.8195 62.8928 58.2895 61.3828 56.9395 66.9228C58.2795 72.1328 78.7795 65.0728 73.2395 60.2028Z" fill="white"/>
<path d="M48.3796 59.8571C46.1996 53.6371 38.6296 57.6771 39.8096 60.1971C44.8496 70.6171 55.4396 68.427 48.3796 59.8571Z" fill="white"/>
<path d="M74.9208 17.6871C67.8608 0.547135 39.3008 4.74713 34.7608 21.7171C31.4008 40.8671 30.7308 42.2171 41.1408 43.2271C41.1408 43.2271 40.4708 39.6971 40.6408 36.3371C37.1108 30.2871 40.4708 29.4471 41.1408 27.2671C45.5108 11.3071 61.9708 13.4871 68.8608 28.4471C69.8708 30.6271 68.8608 34.1571 72.0508 30.7971C76.7508 29.2871 76.0808 36.0071 74.4008 38.3571C71.3808 42.0571 66.0008 42.2171 73.3908 44.4071C84.1408 42.8971 80.7808 24.0771 74.9008 17.6871H74.9208Z" fill="#3F3D56"/>
<path d="M68.8791 33.8206C67.6991 32.6406 69.8891 32.1406 70.8991 32.1406C71.5691 32.1406 71.7391 32.8106 71.7391 33.3206C71.7391 34.1606 70.7291 34.3306 70.2291 34.1606C69.7291 34.1606 69.2191 34.1606 68.8891 33.8206H68.8791Z" fill="#FFCBAE"/>
<path d="M41.8204 37.8476C36.4404 35.4976 38.4604 25.2476 45.8504 27.5976C53.5804 29.9476 48.3704 40.7076 41.8204 37.8476Z" fill="#EAF5FF"/>
<path d="M58.459 37.0066C51.399 35.6666 53.589 24.5766 60.639 26.5866C67.359 28.4366 65.179 37.6766 58.459 37.0066Z" fill="#EAF5FF"/>
<path d="M47.6999 199.987C46.8599 203.847 37.6199 240.477 36.7799 246.027C40.1399 249.557 44.1699 253.087 47.0299 257.117C47.0299 257.117 47.8699 200.157 47.6999 199.987ZM90.0499 190.247C87.5299 198.817 79.1299 213.097 74.9299 233.427C70.8999 252.747 73.4199 267.027 69.8899 289.037C62.8299 291.217 60.1399 298.277 54.9399 297.947C58.4699 302.647 60.6499 309.707 58.6399 312.227C57.2999 313.907 53.5999 313.237 48.8899 309.367C49.2299 304.497 48.8899 298.947 47.3799 294.747C39.8199 279.287 22.5099 264.837 10.9199 247.197C9.73991 226.197 9.90991 214.267 14.1099 187.547C49.5599 188.217 78.2899 194.437 90.0599 190.237L90.0499 190.247Z" fill="#3F3D56"/>
<path d="M52.2397 31.6414C51.3997 31.3014 50.3897 31.8114 49.7197 31.4714C49.2197 31.1314 49.3797 30.6314 49.8897 30.4614C50.5597 30.1214 51.3997 29.7914 52.0697 29.7914C53.7497 29.4514 53.9197 31.8114 52.2397 31.6414Z" fill="black"/>
<path d="M80.9702 31.2988C77.4402 -7.0112 28.8902 -0.4512 32.0802 37.0088C31.5802 42.8888 35.1002 43.7288 40.1402 44.2288C40.8102 44.2288 40.9802 44.3988 41.3202 43.8888C43.0002 40.6988 35.1002 43.2188 34.4302 41.0288C30.2302 27.5888 37.6202 10.1088 52.0702 7.4288C49.7202 11.4588 53.7502 11.2888 53.7502 7.0888C61.6502 5.0688 69.3802 9.7788 73.7402 16.1588C79.1202 23.5488 80.4602 34.1388 76.2602 42.3688C75.9202 42.5388 75.5902 43.0388 75.5902 43.3788C68.2002 41.8688 68.0302 44.3888 75.2502 45.2288C75.2502 45.2288 76.2602 45.2288 76.7602 45.0588C77.6002 45.5588 81.3002 35.6488 80.9602 31.2788L80.9702 31.2988Z" fill="black"/>
<path d="M75.9305 30.4589C75.2605 28.7789 72.9105 28.7789 71.5605 29.7889C70.8905 30.2889 70.5505 31.1289 69.8805 31.4689C69.3805 28.2789 68.5405 24.9189 66.5205 22.2289C62.1505 17.0189 55.6005 13.4889 48.8805 15.8489C43.6705 17.0289 40.3105 21.8989 40.3105 27.6089C40.3105 28.2789 41.6505 27.9489 41.3205 27.6089C42.3305 22.9089 44.6805 17.8589 49.8905 17.1889C56.1105 15.6789 61.6505 18.5289 65.5205 23.4089C67.2005 25.5889 67.8705 28.4489 68.2105 31.1389C68.7105 34.1589 70.7305 32.9889 72.2405 31.3089C72.7405 30.8089 74.2605 30.1289 74.4205 31.1389C74.4205 31.8089 74.5905 32.8189 74.4205 33.4889C73.9205 35.6689 72.9105 37.5189 71.4005 39.1989C70.7305 38.8589 70.0605 37.8589 69.2205 38.0189C68.2105 38.1889 67.8805 39.5289 68.7205 40.0389C68.8905 40.0389 68.8905 40.2089 69.0605 40.2089V41.5489C65.8705 59.8589 41.3405 55.3289 41.5005 38.6889C41.6705 38.1889 41.1605 37.3489 40.8305 38.0189C39.4905 43.8989 42.5105 49.6089 47.3805 52.6389C47.3805 52.9789 47.2105 53.1389 47.2105 53.4789C46.8705 54.4889 46.3705 55.8289 46.7105 56.8389C47.0505 57.1789 47.3805 56.8389 47.5505 56.4989C48.2205 55.6589 48.8905 54.6489 49.0605 53.6389C50.9105 54.4789 52.9205 54.9789 54.9405 55.1489C58.4705 55.3189 61.8305 54.1389 64.6905 52.1289V52.7989C65.0305 55.4889 65.5305 58.3389 67.3805 60.5289C67.8805 61.0289 68.7205 60.3589 68.5605 59.6889C68.3905 59.1889 68.2205 58.8489 68.2205 58.5089C67.7205 56.1589 66.7105 53.8089 66.2005 51.4489V51.1089C69.0605 48.5889 70.9005 45.0589 71.0705 41.1989C74.6005 42.7089 77.1205 32.9689 75.9405 30.4489L75.9305 30.4589Z" fill="black"/>
<path d="M51.3995 46.7634C50.3895 46.5934 49.3795 46.2634 48.7095 45.5834C48.5395 45.4134 48.2095 45.0834 48.5395 44.9134C48.7095 44.7434 49.0395 44.9134 49.2095 44.9134C49.8795 45.0834 50.5495 45.2534 51.3895 45.2534C52.7295 45.2534 53.9095 45.0834 54.9195 44.5834C55.2595 44.4134 55.4195 44.2434 55.7595 44.0834C56.2595 43.5834 57.2695 43.7434 57.7795 44.0834C59.1195 45.0934 57.1095 46.1034 55.9295 46.6034C54.4195 47.1034 52.9095 47.1034 51.3895 46.7734L51.3995 46.7634Z" fill="black"/>
<path d="M52.0691 41.548C51.2291 41.378 50.0491 41.048 49.7191 40.208C49.5491 39.868 49.5491 39.368 49.8891 39.198C50.7291 38.858 51.5691 39.198 52.4091 39.198C53.0791 39.198 53.7491 39.368 53.9191 40.038C54.0891 41.048 52.9091 41.718 52.0691 41.548Z" fill="black"/>
<path d="M82.9899 212.929C85.5099 207.219 91.2199 192.429 91.7299 190.919C91.8999 190.419 93.4099 186.889 92.9099 186.379C92.2399 185.539 91.3999 187.389 91.0599 188.059C89.5499 190.579 87.8699 194.949 87.0299 197.809C85.3499 202.009 83.4999 206.379 81.8199 210.579C78.9599 218.139 75.2699 225.029 73.4199 232.929C71.7399 241.159 72.0799 250.399 71.9099 258.469C71.7399 266.699 71.2399 274.939 69.7299 282.659C69.5599 284.839 68.8899 286.859 68.5499 288.879C68.5499 288.879 68.3799 288.879 68.3799 288.709C68.2099 288.539 68.0399 288.539 68.0399 288.369C68.2099 287.869 68.3799 287.359 68.3799 286.859C68.5499 285.849 68.8799 284.839 68.7199 283.839C68.5499 283.499 68.3799 283.339 68.0499 283.339C67.8799 282.159 66.0299 280.479 65.5299 279.809C63.1799 276.949 60.8299 274.099 58.4699 271.239C54.4399 266.869 51.4099 261.659 47.7199 256.959C48.2199 256.619 48.2199 255.779 48.2199 255.109C48.0499 253.769 48.0499 252.759 48.0499 251.409C47.7099 246.709 47.8799 241.999 47.8799 237.299C47.8799 231.079 48.3799 225.029 48.8899 218.819C48.8899 215.289 49.0599 211.759 49.0599 208.069C48.8899 206.219 48.8899 204.369 48.8899 202.529C49.0599 201.859 49.0599 201.019 49.0599 200.349C49.2299 198.499 49.0599 196.649 48.3899 194.809C48.2199 194.469 48.0499 193.969 47.7199 193.969C47.5499 193.969 47.3799 194.139 47.2199 194.469C46.3799 195.979 46.5499 197.829 46.3799 199.679C46.3799 200.179 46.2099 201.019 46.2099 201.699C45.1999 205.559 44.1899 209.429 43.1899 213.289C42.3499 218.159 40.6699 222.699 39.8299 227.399C39.3299 229.919 38.9899 232.609 38.3199 235.129C37.3099 237.989 36.8099 240.839 36.4699 243.869C35.6299 243.199 34.4499 243.369 34.4499 244.539C34.4499 245.209 34.9499 245.549 35.4599 245.719C36.2999 246.389 37.1399 247.229 37.8099 248.239C39.8299 251.099 42.1799 253.779 44.3599 256.469C45.6999 257.809 47.2199 259.489 48.5599 261.169C51.5799 265.199 54.4399 269.229 57.9699 272.929C60.8299 276.789 63.8499 280.489 67.0399 284.019C67.0399 284.189 67.2099 284.189 67.3799 284.189C67.0399 285.529 66.8799 287.049 66.5399 288.389C66.1999 289.899 65.1999 291.079 64.0199 292.089C62.8399 293.269 61.9999 294.269 60.4899 295.279C59.6499 296.289 58.3099 296.459 57.2999 297.129C56.1199 297.629 54.7799 297.969 53.5999 297.469C52.9299 296.799 52.2599 296.129 51.5799 295.289C49.0599 292.099 46.3699 288.909 43.6799 285.879C42.1699 283.699 40.4899 281.679 38.8099 279.659C33.9399 273.779 28.8999 267.899 23.8599 262.349C20.3299 257.979 15.9599 253.949 13.4399 248.739C9.57993 241.519 11.5899 233.109 11.0899 225.219C11.4299 216.819 12.0999 208.419 13.1099 200.179C13.4499 197.829 13.7799 195.639 14.1199 193.289C14.2899 191.269 14.9599 189.089 14.6199 187.239C14.4499 187.069 14.2799 187.069 14.2799 187.069C13.9399 187.239 13.9399 187.569 13.9399 187.739C13.2699 191.769 12.2599 195.969 11.7599 200.009C10.9199 205.549 10.9199 210.929 10.2499 216.479C9.90993 221.019 9.57993 225.389 9.40993 230.089C8.90993 237.149 8.56993 244.709 12.4299 250.919C15.1199 255.789 18.9799 259.659 22.3399 263.859C27.3799 269.399 32.2499 275.119 36.9599 280.829C40.3199 284.859 43.1799 289.059 46.8699 292.929C47.0399 293.099 47.2099 293.269 47.3699 293.429C46.5299 298.639 47.3699 304.019 46.8699 309.389C46.6999 310.059 46.8699 310.399 47.3699 310.899C47.1999 311.069 47.1999 311.239 47.0299 311.399C46.0199 312.739 45.8499 314.259 45.0099 315.599L44.6699 315.939C43.1599 316.279 41.9799 317.279 40.9699 318.799C39.6299 320.819 38.2799 322.829 36.7699 324.849C36.4299 325.519 36.2699 326.029 35.9299 326.699C35.5899 327.199 35.2599 327.539 34.9199 328.039C33.0699 330.059 30.8899 331.899 29.3799 334.259C28.7099 335.269 29.7199 336.279 30.2199 337.279C31.0599 338.619 32.7399 339.299 34.0799 339.799C36.4299 340.639 38.7799 340.469 41.1399 340.809C45.5099 340.809 49.7099 338.789 52.8999 335.769C54.0799 334.589 55.4199 333.419 56.5999 332.239C56.9399 332.239 57.0999 332.069 57.4399 331.899C57.9399 333.079 59.1199 333.919 60.6299 333.749C65.8399 333.919 70.8799 331.569 73.7399 327.199C76.0899 323.839 77.9399 319.979 79.2799 316.279C80.1199 313.589 80.6199 310.739 82.2999 308.219C83.8099 308.719 85.6599 308.559 86.1599 306.709C87.1699 304.189 88.5099 301.839 88.3399 298.979C88.3399 297.799 87.8399 294.609 86.6599 293.269C84.9799 290.919 82.4599 290.249 79.4399 289.569C77.9299 289.399 76.2499 289.399 74.8999 289.909C74.5599 289.909 74.2299 290.579 72.7199 290.409C72.0499 290.239 71.3799 290.069 70.6999 289.909C71.7099 285.709 74.5599 264.709 74.5599 255.969C74.5599 247.909 74.3899 239.839 76.4099 231.939C78.0899 225.889 80.6099 219.509 82.9599 212.949L82.9899 212.929ZM45.8599 224.689C45.6899 231.579 45.6899 238.639 45.3599 245.519C45.1899 247.869 45.5299 250.059 45.6999 252.239V254.589C43.3499 251.569 41.3299 248.539 38.6399 245.849C39.1399 239.969 40.6599 234.259 41.6599 228.539C42.3299 225.179 43.1699 221.649 44.0099 218.459C44.8499 215.099 45.1899 211.569 46.3599 208.209C46.3599 207.869 46.6999 207.029 46.8599 206.029C46.6899 212.249 46.3599 218.459 45.8499 224.679L45.8599 224.689ZM46.5299 318.949C47.5399 319.619 48.5499 320.629 49.5499 321.299C50.8899 322.139 52.5699 322.809 54.2499 322.809C52.7399 325.159 51.3899 327.849 49.0399 329.529C45.8499 329.869 46.1799 324.829 46.1799 322.809C46.0099 321.469 46.3499 320.119 46.5199 318.949H46.5299ZM40.6499 321.979C41.8299 320.639 42.8299 318.449 44.8499 318.119H45.1899C44.8499 318.459 44.6899 318.959 44.5199 319.299C42.8399 321.479 41.1599 323.839 38.8099 325.349C38.4699 325.519 38.3099 325.689 37.9699 325.849C38.8099 324.509 39.8199 323.159 40.6599 321.989L40.6499 321.979ZM37.1199 326.849H37.2899C39.3099 327.019 40.9899 325.169 42.1599 323.829C42.4999 323.329 43.8399 322.149 44.8499 320.809C44.0099 324.169 43.6699 328.709 46.1899 330.889C47.0299 331.729 48.2099 331.559 49.2099 331.389C50.5499 331.049 51.3899 329.709 52.2299 328.699C53.5699 326.849 55.0899 324.839 55.9299 322.649C56.2699 322.479 56.7699 322.479 57.1099 322.309L57.2799 322.139C57.2799 321.969 57.4499 321.969 57.4499 321.799C57.6199 321.629 57.7899 321.629 57.9499 321.459C57.7799 322.129 57.7799 322.799 57.6099 323.479C57.1099 325.659 56.5999 327.849 55.5899 329.859C55.2499 329.859 54.9199 330.199 54.7499 330.359C51.7299 334.059 47.8599 337.579 42.9899 338.419C41.1399 338.759 39.2899 338.249 37.4499 338.079C34.9299 337.909 31.5699 337.239 30.0599 335.059C31.0699 333.549 32.4099 332.879 33.5899 331.529C34.0899 330.859 34.5999 330.019 35.0999 329.349C35.4399 328.679 35.5999 328.009 35.9399 327.329M55.9399 319.459C55.2699 319.959 54.5999 320.639 53.7599 320.639C51.4099 320.139 49.7299 318.289 47.8799 316.939C47.3799 316.599 46.8699 316.439 46.5399 316.269C47.0399 315.259 47.2099 314.089 47.3799 313.579C47.5499 312.909 47.7199 312.239 47.7199 311.729C48.0599 311.899 48.5599 312.069 48.8999 312.229C50.9199 313.569 53.4399 313.909 55.9599 314.249H58.1399C58.1399 315.429 58.3099 316.769 58.3099 317.949C57.4699 318.449 56.7999 318.789 55.9599 319.459H55.9399ZM58.1199 311.219V311.559C56.4399 311.729 54.9299 311.219 53.2499 310.719C51.7399 310.379 50.3899 309.539 48.8799 309.039C48.8799 305.849 49.0499 302.659 48.7099 299.459C48.7099 297.949 48.3699 296.439 48.0399 295.089C49.7199 297.269 51.3999 299.629 54.0899 299.959H55.2699C56.2799 302.819 58.1299 305.339 58.4599 308.529C58.4599 309.539 58.2899 310.379 58.1199 311.219ZM74.7599 302.989C76.2699 299.459 75.9399 295.929 74.7599 292.399C78.1199 290.719 82.3199 292.399 84.6699 295.419C85.0099 296.429 85.5099 297.439 85.6799 298.279C85.8499 299.289 85.6799 300.299 85.1799 301.299C84.5099 302.809 83.6699 304.319 82.9999 305.839C82.3299 306.009 81.6599 305.839 80.9799 306.009C80.3099 306.349 79.9699 306.849 79.6399 307.349C77.7899 310.539 77.4599 314.409 75.7799 317.769C73.5999 323.149 70.0699 328.359 64.5199 330.369C63.3399 330.709 62.1699 331.209 60.9899 331.209C60.1499 331.209 59.3099 331.379 58.6399 330.869C58.1399 330.369 58.6399 329.529 58.6399 329.019V328.349C58.6399 328.179 58.8099 328.009 58.8099 327.849C59.6499 326.169 59.9899 323.989 59.9899 322.139C60.1599 321.299 59.8199 320.799 59.6499 319.959V319.619L59.8199 319.449C59.8199 319.279 59.9899 319.279 59.9899 319.109C59.9899 318.939 60.1599 318.769 60.3299 318.769H60.8299C60.8299 318.099 60.6599 317.589 60.6599 316.919C61.1599 317.759 61.6699 318.599 62.3399 319.439C63.1799 320.109 64.1899 320.449 65.3599 320.779C70.3999 321.789 73.7599 317.419 74.2699 312.719C74.4399 310.539 73.5999 308.349 73.2599 306.169V305.999C73.7599 305.159 74.4399 304.149 74.7699 302.979L74.7599 302.989ZM60.3099 312.739V312.399C64.8499 313.069 69.0499 310.889 72.0699 307.699C72.9099 316.939 67.3699 323.999 60.4799 313.409C60.6499 313.069 60.6499 312.909 60.3099 312.739ZM71.8999 293.249C72.5699 297.949 72.9099 304.509 68.7099 307.699C66.5299 309.719 63.3299 310.719 60.4799 310.219C60.9799 307.699 60.8199 304.679 59.1399 302.489C58.2999 301.649 57.6299 300.639 56.7899 299.799C60.3199 298.959 63.1699 295.769 65.5299 292.909C66.3699 292.069 67.0399 290.889 67.5499 289.889C68.3899 291.739 69.8999 292.909 71.9199 293.249H71.8999Z" fill="black"/>
<path d="M98.4488 93.3028C97.9488 89.2728 97.4388 85.4028 96.7688 81.3728C96.4288 77.3428 94.9188 73.4728 91.8988 70.6228C89.5488 68.4428 87.0288 66.4228 84.1688 64.9128C82.1488 63.7328 80.1388 62.3928 77.9488 61.7228C77.6088 61.5528 77.2788 61.5528 76.7688 61.3828C76.4288 60.2028 74.4188 59.7028 73.5788 59.0328C72.5688 58.1928 71.8988 56.5128 70.3888 56.6828C68.7088 57.0228 67.6988 58.3628 66.5288 59.5428C65.6888 60.0428 64.8488 60.3828 63.8388 60.7228C62.1588 61.3928 60.4788 60.5528 58.7988 61.3928C56.7788 62.5728 56.2788 65.2528 55.9388 67.2728V67.6128C55.2688 67.6128 54.5988 67.4428 53.7588 67.2728C53.2588 67.1028 52.7488 67.1028 52.2488 66.9328C52.2488 66.4328 51.7488 65.9228 51.5788 65.5928C51.2388 64.5828 51.4088 63.5728 51.5788 62.5728C51.7488 59.5528 49.5588 59.0428 47.3788 57.7028C47.0388 57.3628 47.2088 56.8628 47.2088 56.3628C47.2088 55.6928 47.0388 54.8528 46.1988 54.6828C44.8588 54.3428 40.8188 57.3728 39.9788 58.0428H39.8088C39.6388 58.0428 34.4288 58.7128 32.2488 58.8828C20.8188 59.0528 14.2688 62.7428 8.72884 72.8328C3.17884 82.0428 -0.85116 92.9628 0.14884 103.893C0.31884 106.583 0.64884 109.273 1.15884 111.953C1.65884 114.473 1.99884 117.163 3.00884 119.513C4.01884 121.533 5.69884 123.043 7.54884 124.553C9.05884 125.563 10.7388 126.233 12.5888 126.733V127.073C11.5788 133.963 11.7488 141.023 11.5788 148.073C11.5788 149.923 11.5788 151.933 11.4088 153.783C11.4088 156.133 10.5688 165.883 10.5688 165.883C6.53884 172.263 5.69884 181.513 11.0688 187.393C21.8188 191.423 37.4488 190.923 46.1888 191.933C57.7788 193.273 85.8388 198.153 92.7288 187.733C99.7888 176.983 98.2688 173.783 94.5788 164.713C94.5788 164.213 94.9188 155.303 94.7488 151.443C94.5788 144.893 95.2488 138.333 95.2488 131.783C95.2488 128.923 95.4188 126.073 94.7488 123.383C96.2588 120.693 97.2688 117.673 97.6088 114.643C99.4588 107.583 99.2888 100.533 98.4488 93.3028ZM58.1188 66.5928C60.6388 59.2028 61.1388 66.5928 67.8688 61.0528C68.7088 60.3828 69.3788 59.2028 70.5588 58.8728C71.2288 59.3728 71.5688 60.2128 72.0688 60.7228C72.5688 61.2228 73.2488 61.5628 73.9188 61.9028L73.7488 62.0728L72.7388 63.0828C72.3988 63.4228 72.0688 63.7528 71.5588 63.9228C71.0588 64.2628 70.3788 64.5928 69.8788 64.9328C69.0388 65.2728 68.3688 65.7728 67.5288 66.1128C66.3488 66.6128 65.0088 66.9528 63.8288 67.2928C62.6488 67.6328 61.6488 67.6328 60.4688 67.7928C59.4588 67.9628 58.4488 67.9628 57.4488 67.9628C57.7888 67.4628 58.1188 66.9528 58.1188 66.6228V66.5928ZM45.1788 56.5028C44.5088 58.1828 46.0188 59.6928 47.5288 60.2028C48.8688 60.7028 49.7088 61.3828 49.3788 62.8928C49.2088 63.9028 49.2088 65.0728 49.5488 66.0828C49.0488 65.9128 48.5388 65.7428 48.0388 65.4128C47.3688 65.0728 46.6988 64.7428 46.0188 64.2328C45.5188 63.8928 44.6788 63.3928 44.1688 62.8928C43.4988 62.3928 42.9888 61.7128 42.4888 61.2128C42.3188 61.0428 41.9888 60.7128 41.6488 60.2028C41.3088 59.8628 41.1488 59.3628 40.8088 59.0228C40.3088 58.8528 43.8288 57.3428 45.1788 56.5028ZM95.4188 174.623C96.0888 177.813 92.7288 188.233 87.1888 189.743C75.2588 193.103 61.3088 189.573 48.5488 188.903C36.7888 188.233 20.8288 187.893 13.0988 185.713C9.90884 184.703 9.06884 179.663 8.89884 176.473C8.89884 172.943 11.5888 168.573 11.7588 165.383C12.2588 165.383 12.9388 165.213 13.2688 165.043C18.3088 166.223 32.5888 165.383 34.7788 166.223C48.2188 166.053 61.4988 165.723 74.7688 164.713C78.6288 164.373 87.8788 164.373 92.0788 163.373C92.0788 167.403 94.5988 170.763 95.4388 174.633L95.4188 174.623ZM14.2688 127.073C14.9388 127.243 15.6088 127.413 16.2888 127.413C21.1588 127.413 26.0388 125.733 30.7388 124.393C32.4188 124.053 33.9288 123.723 35.6088 123.213C35.6088 123.553 35.9488 123.713 36.2788 123.883C38.2988 125.063 40.1388 126.403 42.1588 127.583C46.1888 129.933 49.5488 132.283 53.7488 134.473C60.2988 137.833 67.3588 140.523 74.7488 140.693C78.4488 140.523 81.4688 138.003 84.1588 135.653C86.1788 133.803 88.5288 132.123 90.2088 130.113C91.5488 128.603 92.7288 127.093 93.9088 125.413C93.9088 126.083 93.7388 126.753 93.7388 126.923C92.7288 133.813 92.8988 140.873 92.7288 147.923V150.613C66.6888 152.123 39.7988 150.443 14.0988 153.133V151.453C13.9288 144.903 14.5988 138.343 14.5988 131.793C14.4288 129.443 14.5988 128.773 14.2588 127.093L14.2688 127.073ZM92.5688 160.853H91.3888C89.5388 161.023 87.6888 161.023 85.6788 161.193C85.5088 158.673 85.3388 154.473 85.3388 152.963C87.8588 152.963 90.2088 152.963 92.3988 152.793V153.803C92.3988 154.983 92.5688 158.173 92.5688 160.863V160.853ZM83.4888 161.353C81.1388 161.523 78.7888 161.523 76.5988 161.693C76.4288 159.343 76.2588 154.973 76.2588 153.123C78.7788 153.123 81.1288 152.953 83.4788 152.953C83.1388 155.133 83.3088 158.833 83.4788 161.353H83.4888ZM74.4188 161.693C72.0688 161.693 69.7188 161.863 67.5288 161.863C67.3588 159.683 67.1888 155.313 67.1888 153.293C69.5388 153.293 72.0588 153.123 74.4088 153.123C74.0688 155.473 74.2388 159.343 74.4088 161.693H74.4188ZM65.1788 162.023C62.8288 162.023 60.4788 162.193 58.1188 162.193C57.9488 160.173 57.7788 155.973 57.7788 153.793C60.1288 153.793 62.4788 153.623 64.8388 153.623C64.8388 155.803 65.0088 159.673 65.1788 162.023ZM56.1088 162.193C53.7588 162.193 51.4088 162.193 49.0488 162.363C48.8788 159.503 48.7088 155.473 48.7088 154.303C48.7088 154.189 48.6522 154.133 48.5388 154.133C50.8888 153.963 53.4088 153.963 55.7588 153.793C55.7588 156.143 55.9288 160.013 56.0988 162.193H56.1088ZM46.8588 162.363C44.5088 162.363 42.1588 162.363 39.9688 162.533C39.7988 159.843 39.6288 155.643 39.6288 154.473C41.9788 154.303 44.4988 154.303 47.0188 154.133C47.0188 154.303 46.8488 154.303 46.8488 154.473C46.5088 156.323 46.6788 159.683 46.8488 162.373L46.8588 162.363ZM37.6188 162.363C35.2688 162.363 32.9188 162.363 30.7288 162.533C30.5588 160.013 30.3888 156.313 30.3888 154.633C32.5688 154.463 35.0888 154.463 37.6088 154.293C37.2688 156.313 37.4388 159.833 37.6088 162.353L37.6188 162.363ZM28.5488 162.533C26.1988 162.533 23.8488 162.703 21.6588 162.703C21.4888 160.353 21.3188 156.823 21.3188 155.143C23.3388 154.973 25.8588 154.973 28.5388 154.803C28.1988 156.823 28.3688 160.183 28.5388 162.533H28.5488ZM13.9288 155.473C14.9388 155.473 16.7888 155.303 19.1388 155.303C18.9688 157.483 19.1388 160.683 19.3088 162.863C17.4588 162.863 15.6088 163.033 13.7688 163.033C13.7688 161.183 13.9388 158.163 13.9388 155.473H13.9288ZM96.2588 111.783C95.9188 114.973 95.4188 118.163 93.9088 121.023C91.7288 126.063 87.8588 130.263 83.6588 133.793C81.8088 135.303 79.9588 137.323 77.6088 138.163C72.7388 140.013 67.3588 137.323 62.4888 136.143C59.2988 134.803 55.9388 133.623 53.0788 131.603C49.2188 129.083 45.5188 126.063 41.3188 124.213C40.8188 124.043 39.2988 123.033 37.9588 122.533C39.6388 122.193 41.4888 121.693 42.8288 120.683C43.6688 119.843 44.1688 118.663 44.5088 117.493C45.1788 117.323 46.0188 117.153 46.6888 117.153C49.2088 116.813 51.5588 115.303 54.2488 115.303C55.9288 115.303 57.4388 116.143 59.1188 116.313C62.9788 116.813 66.6788 115.303 70.0388 113.293C71.5488 112.453 73.2288 112.283 74.5788 111.273C75.7588 110.263 77.0988 109.093 77.0988 107.413V106.913C77.0988 106.743 76.9288 106.743 76.9288 106.573C76.7588 105.563 76.5888 104.553 76.2588 103.713C76.4288 103.213 76.4288 102.703 76.5988 102.203C78.6188 95.4828 83.6588 89.7728 84.1588 82.7128C84.3288 82.7128 84.3288 82.3728 84.1588 82.3728C83.9888 82.2028 83.6588 82.3728 83.6588 82.5428C82.1488 84.7228 81.8088 87.5828 80.6388 89.7628C79.6288 91.7828 78.9588 93.7928 77.7788 95.8128C76.9388 97.3228 76.0988 98.8328 75.5988 100.353C75.0988 97.1628 75.9388 93.8028 75.9388 90.4428C75.9388 90.1028 76.7788 87.9228 75.7688 88.2628C73.2488 90.7828 73.2488 94.1428 73.5888 97.5028C73.7588 99.3528 73.9288 101.203 74.0888 103.043C74.0888 103.713 74.4288 104.383 74.5888 104.893C73.5788 104.223 72.4088 103.553 71.2288 103.213C68.0388 102.203 64.6788 102.373 61.4788 102.203C56.7788 101.703 51.8988 101.023 47.1988 102.543C47.1988 102.203 47.0288 102.043 46.8588 101.703C45.6788 100.363 43.6688 100.363 41.9888 100.023C40.4788 99.8528 38.9688 99.5228 37.4488 99.5228C34.5888 99.5228 31.7388 98.3428 28.7088 98.1828C28.2088 96.8428 26.0188 93.9828 24.5088 92.3028C24.6788 92.1328 27.6988 81.0428 26.8588 77.8528C25.6788 76.8428 24.5088 86.5928 24.1688 88.1028C23.8288 85.9228 22.6588 79.5328 21.9888 81.2128C21.8188 82.0528 22.1588 82.8928 22.1588 83.5628C22.4988 85.9128 22.8288 88.2628 23.1688 90.6228L22.9988 90.4528C21.4888 89.1128 19.6388 87.4328 17.6188 87.2628C16.9488 87.0928 16.1088 86.7628 15.5988 87.4328C14.7588 88.7728 16.0988 90.1228 16.9388 91.1328L17.1088 91.3028C16.6088 91.1328 13.9188 89.4528 12.4088 89.1228C10.8988 88.4528 8.37884 88.4528 9.21884 90.8028C9.38884 90.9728 9.38884 91.1428 9.55884 91.3028C8.21884 91.3028 6.86884 92.8128 7.70884 94.1628C8.88884 96.5128 11.4088 97.8628 13.7588 98.3628C14.2588 98.8628 15.4388 98.7028 16.1088 98.8628C18.2888 99.0328 20.6488 99.2028 22.8288 99.5328C25.8488 100.203 28.8788 100.203 31.8988 100.543C33.2388 100.883 34.5888 101.043 36.0988 101.213C38.4488 101.383 40.4688 101.383 42.8188 101.713C43.8288 101.883 45.3388 101.883 46.0088 102.723C45.1688 106.083 43.4888 109.273 42.9888 112.633C42.4888 115.153 43.4888 119.183 40.1288 119.853C35.7588 120.863 31.3888 121.703 27.1888 123.213C23.9988 124.053 20.6388 125.233 17.2788 125.563C15.2588 125.393 13.0788 124.893 11.2288 124.053C9.37884 123.383 8.03884 122.033 6.68884 120.523C5.17884 119.183 4.66884 117.333 4.16884 115.483C2.48884 108.423 1.64884 101.033 2.65884 93.6428C3.99884 83.5628 9.03884 74.1528 15.5988 66.7628C18.7888 63.4028 23.1588 61.7228 27.5288 61.2228C31.5588 60.8828 35.5888 60.7228 39.4588 59.7128V59.8828C39.6288 60.3828 39.7988 60.8928 39.9588 61.3928C40.4588 62.5728 41.2988 63.5728 42.3088 64.4128C42.9788 64.9128 43.6488 65.4228 44.3288 65.9228C44.9988 66.4228 45.8388 66.7628 46.6788 67.2628C47.3488 67.6028 48.1888 67.9328 49.0288 68.2728C49.8688 68.6128 50.7088 68.7728 51.5488 68.9428C53.2288 69.2828 54.9088 69.6128 56.4188 69.7828C57.4288 69.7828 58.4388 69.9528 59.4388 69.9528H61.6188C63.1288 69.7828 64.8088 69.6128 66.3188 69.2828C67.1588 69.1128 67.8288 68.7828 68.6688 68.6128C69.5088 68.2728 70.1788 68.1128 71.0188 67.6028C72.1988 66.9328 73.3688 66.2628 74.5488 65.4228C75.2188 64.9228 75.8888 64.2428 76.3988 63.5728C76.3988 63.5728 76.3988 63.4028 76.5688 63.4028H76.7388C79.0888 63.9028 80.9388 65.4228 82.7888 66.7628C84.9688 67.9428 86.8188 69.4528 88.6688 70.7928C93.8788 74.4928 94.5488 79.5328 95.2188 85.4128C96.2288 94.1528 97.7388 103.053 96.2288 111.793L96.2588 111.783ZM44.6788 115.983C44.8488 113.633 44.6788 111.113 45.5188 108.923C46.0188 107.243 46.5288 105.563 46.8588 103.883C46.8588 103.713 46.8588 103.543 47.0288 103.543C47.6988 103.373 48.3688 103.373 49.0488 103.373C51.3988 103.373 53.9188 103.033 56.2688 103.033C58.4488 103.203 60.8088 103.533 62.9888 103.373C68.3688 103.373 71.7288 103.713 75.7588 107.403C75.7588 107.743 75.4188 108.073 75.2588 108.583C74.2488 110.263 72.3988 111.103 70.5588 111.603C68.2088 112.273 66.3588 113.953 63.8388 114.293C60.6488 114.963 57.7888 113.623 54.7688 113.283C51.2388 113.113 47.7088 114.123 44.6888 115.973L44.6788 115.983ZM13.5988 93.3028C12.4188 92.4628 10.7388 91.6228 10.2388 90.1128C11.7488 90.1128 13.2588 90.7828 14.6088 91.4528C16.1188 91.9528 17.4688 92.7928 18.8088 93.6328C20.1488 94.9728 21.4988 96.3228 23.0088 97.6628C21.6688 97.4928 20.3188 97.3228 18.8088 97.1628C17.1288 95.6528 15.4488 94.4728 13.5988 93.3028ZM16.6188 96.6628C16.1188 96.4928 15.4388 96.4928 14.9388 96.4928H14.7688C12.7488 95.9928 10.2288 95.1528 9.38884 93.1328C9.72884 92.4628 10.7288 93.1328 11.5688 93.3028C13.0788 94.6428 14.9288 95.4828 16.6088 96.6628H16.6188ZM22.6688 95.4928C20.6488 93.1428 18.4688 90.9528 16.7888 88.2728C19.9788 88.7728 22.3288 91.4628 24.3488 93.8128C25.5288 95.1528 26.6988 96.5028 27.8788 98.0128C26.6988 97.8428 25.6988 97.6728 24.5188 97.5128C24.0188 97.0128 23.1788 96.0028 22.6688 95.4928Z" fill="black"/>
<path d="M65.18 30.4576C65.01 30.1176 65.35 29.9576 65.68 29.7876C66.02 29.6176 66.35 29.2876 66.52 29.6176C66.69 30.1176 65.68 29.9576 65.51 30.2876C65.51 30.4576 65.17 30.6276 65.17 30.4576H65.18Z" fill="black"/>
<path d="M65.1806 30.1305C64.3406 29.4605 66.0206 29.2905 66.5206 29.2905C66.8606 29.2905 67.3606 28.7905 67.7006 29.1205C67.8706 28.9505 68.2006 29.1205 68.0406 29.2905C67.7006 29.6305 67.3706 29.6305 67.0306 29.7905C66.5306 29.9605 65.8506 30.1305 65.1806 30.1305Z" fill="black"/>
<path d="M68.5404 30.6297C68.7104 30.4597 68.8804 30.1297 68.7104 29.7897C68.5404 29.4497 68.3704 29.2897 68.0404 29.1197C68.2104 29.1197 68.2104 28.9497 68.2104 28.7797C67.8704 28.6097 67.2004 28.7797 66.8704 28.7797C66.5404 28.7797 66.0304 28.9497 65.3604 28.9497C64.8604 27.6097 63.6804 26.4297 62.0004 25.5897C57.9704 23.9097 54.6104 26.2597 53.4304 29.4497C52.4204 28.7797 51.2504 29.1097 50.0704 29.4497C49.5704 28.1097 48.5604 26.9297 46.8804 26.2597C38.4804 22.3997 32.7704 36.6797 42.0104 39.0297C47.0504 40.3697 50.5804 35.8397 50.5804 31.8097C50.9204 31.8097 51.2504 31.6397 51.5904 31.6397C51.9304 31.6397 52.4304 31.6397 52.7704 31.8097C52.6004 34.4997 53.7804 37.1897 57.1404 38.3597C62.0104 39.6997 65.7104 35.6697 65.8804 31.6397C66.7204 31.2997 67.5604 31.1397 68.4004 30.9697C68.7404 31.1397 68.9004 30.7997 68.5704 30.6297H68.5404ZM44.8504 37.5197C38.3004 38.6997 37.2904 28.6097 42.8304 27.7697C48.8804 26.2597 51.7404 36.5097 44.8504 37.5197ZM59.4704 37.0097C53.2504 37.3497 52.4104 27.2597 58.9704 26.7597C65.0204 26.2597 66.8704 36.6697 59.4704 37.0097Z" fill="black"/>
</g>
<defs>
<clipPath id="clip0_6780_20817">
<rect width="193.46" height="341.88" fill="white"/>
</clipPath>
</defs>
</svg>
