<svg width="225" height="174" viewBox="0 0 225 174" fill="none" xmlns="http://www.w3.org/2000/svg">
<path d="M21.0484 173.047C17.5472 172.591 12.1648 174.146 12.9609 169.235C6.44627 168.3 2.1874 165.085 2.05502 158.023C-0.495084 132.241 -1.25454 102.753 15.8663 81.7184C18.1499 77.4478 23.2553 78.1578 27.3052 76.684C34.1664 74.1867 45.9049 71.7189 49.6987 71.2772C50.6898 71.0971 52.1721 77.3681 58.0126 78.9856C65.9173 81.1747 71.8152 78.3518 74.8078 71.7743C81.7735 73.5667 89.6868 77.8842 96.0307 80.6828C112.899 84.0634 114.993 101.88 114.266 116.525C113.653 133.197 114.583 152.272 107.088 166.291C103.85 171.607 99.3072 169.742 94.2523 170.414C92.3763 170.108 93.0852 171.268 92.5801 172.427C88.4727 173.284 40.4772 172.809 21.0501 173.05L21.0484 173.047Z" fill="#E1CBF1"/>
<path d="M84.3442 47.7575C82.2348 44.1189 86.3944 38.4108 85.3527 34.2354C86.1941 21.6917 71.585 31.4713 64.7551 26.4248C61.2086 23.8063 56.8958 18.7372 53.2762 23.569C49.2803 25.6922 49.9945 49.3733 47.7004 45.9633C47.5524 45.7416 47.4601 45.4888 47.4113 45.2273C45.4708 34.8138 39.0155 23.1205 45.6746 12.9633C55.8402 -2.3063 69.4407 3.85556 81.8429 12.0592C104.581 11.9397 108.347 32.985 90.3972 43.892C87.1625 41.3428 85.5165 45.5321 84.3477 47.754L84.3442 47.7575Z" fill="#3F3D56"/>
<path d="M62.2481 79.5984C56.4964 79.5603 52.1992 75.5234 50.5009 71.5142C52.1295 62.1675 49.5063 60.4893 49.5063 60.4893C49.5063 60.4893 47.6686 54.13 47.2279 53.1793C42.7112 51.9583 39.9747 43.9728 46.3692 40.5022C47.0798 40.6131 46.8395 45.8068 48.3671 45.9818C49.8947 46.1567 49.8111 38.6526 49.8982 37.2689C50.0375 29.1518 52.2288 18.4526 60.501 23.1077C77.1097 37.1962 89.754 14.0589 83.4867 47.8625C84.0911 50.4014 85.9184 41.3162 89.1652 43.6109C94.3037 46.6243 87.4164 52.8693 84.6241 55.6159C82.9694 56.3139 82.128 55.9623 81.1596 57.6127C80.9244 58.0128 79.4351 60.9812 79.0606 61.2565C75.6134 63.7937 73.9952 64.3911 74.6624 69.3702C73.0912 74.9172 71.271 80.0296 62.2498 79.6001L62.2481 79.5984Z" fill="#FFCBAE"/>
<path d="M92.8427 138.983C90.7734 138.497 80.411 138.424 77.793 137.362C79.993 126.211 89.791 116.052 103.834 120.105C104.945 120.425 102.684 121.889 102.075 122.195C105.602 122.011 112.066 124.407 106.382 126.324C109.706 126.525 109.359 129.697 103.193 130.039C107.058 133.514 95.1368 136.945 92.8427 138.983Z" fill="#FFCBAE"/>
<path d="M37.3039 145.553C33.7592 144.506 25.8998 143.873 25.8998 143.873C25.8998 143.873 24.3252 130.725 25.8841 130.16C31.5923 129.926 36.7134 129.937 43.1269 131.758C41.1952 134.202 38.4326 135.633 37.3056 145.554L37.3039 145.553Z" fill="#FFCBAE"/>
<path d="M33.2086 144.557C32.4282 143.984 31.1253 144.297 30.3989 143.57C29.8136 143.489 29.3433 141.897 30.378 142.268C31.4911 141.885 32.2836 142.443 33.1145 141.383C33.8269 141.4 35.7552 144.859 33.2086 144.557Z" fill="#5D2B9D"/>
<path d="M34.6936 133.783C34.1763 132.379 31.0148 133.771 32.7096 131.563C34.2006 129.62 37.653 130.747 37.653 130.747C37.653 130.747 35.2562 135.311 34.6936 133.783Z" fill="#5D2B9D"/>
<path d="M30.1242 141.606C26.8146 141.005 27.3407 135.429 30.0092 133.683C35.4491 130.124 39.2847 141.637 30.1242 141.606ZM33.5713 135.732C33.594 135.654 33.6253 135.591 33.5452 135.536C33.5557 135.6 33.5644 135.666 33.5713 135.732Z" fill="white"/>
<path d="M18.5228 78.3013C18.5228 78.3013 18.5316 78.2943 18.5368 78.2891C18.5298 78.2961 18.5246 78.3013 18.5176 78.3066C18.5193 78.3048 18.5211 78.3031 18.5246 78.3013H18.5228Z" fill="black"/>
<path d="M103.156 82.8594C103.156 82.8594 103.171 82.8722 103.178 82.8795C103.171 82.8722 103.164 82.8667 103.156 82.8594Z" fill="black"/>
<path d="M73.7359 71.3281V71.3316C73.7359 71.3316 73.7359 71.3421 73.7324 71.3474C73.7324 71.3404 73.7342 71.3351 73.7359 71.3281Z" fill="black"/>
<path d="M71.1981 28.4297C71.1981 28.4297 71.1981 28.4297 71.1934 28.4321H71.1957L71.1981 28.4297Z" fill="black"/>
<path d="M84.7676 13.6328C84.7712 13.6418 84.7766 13.6526 84.7802 13.6633C84.7766 13.6526 84.7712 13.6436 84.7676 13.6328Z" fill="black"/>
<path d="M87.1711 121.755C87.2338 119.479 86.9882 117.205 87.0962 114.933C87.1763 113.76 87.2077 112.583 87.3522 111.421C87.3819 111.272 87.4951 110.759 87.7041 111.002C87.7267 111.218 87.7407 111.445 87.7598 111.668C87.8626 114.01 87.8487 116.356 88.0978 118.691C88.1674 119.709 88.1866 120.735 88.1988 121.756C88.204 122.035 87.9619 122.267 87.6849 122.267C87.408 122.267 87.1728 122.035 87.1711 121.756V121.755Z" fill="black"/>
<path d="M23.2188 78.1558C23.2206 78.1226 23.2505 78.1016 23.2822 78.1016C23.3138 78.1016 23.3385 78.1331 23.3367 78.1646C23.3349 78.1978 23.305 78.2188 23.2734 78.2188C23.2417 78.2188 23.2171 78.1873 23.2188 78.1558Z" fill="black"/>
<path d="M16.2129 80.4529C16.2129 80.4529 16.2244 80.4433 16.2302 80.4375C16.2302 80.4375 16.2283 80.4394 16.2263 80.4413C16.2225 80.4452 16.2167 80.449 16.2129 80.4529Z" fill="black"/>
<path d="M70.8562 59.2809C69.1126 60.1468 67.1826 60.3027 65.2961 60.178C64.582 60.1208 63.8695 60.0256 63.1606 59.9303C62.0911 59.7294 61.0825 59.2913 60.0966 58.8168C59.8598 58.6955 59.6211 58.576 59.4173 58.3959C59.3024 58.2885 59.1822 58.1465 59.0271 58.1171C58.7955 58.0634 58.63 58.2989 58.6701 58.5345C58.6944 58.6869 58.8146 58.7631 58.8808 58.8895C59.3947 59.5805 60.2186 59.8853 60.938 60.2559C62.6729 61.1184 64.5924 61.2396 66.4824 61.3054C66.552 61.3054 66.6217 61.3054 66.6914 61.3054C68.2573 61.2915 69.8145 60.9833 71.2533 60.2854C71.8612 59.9909 71.4658 59.0021 70.8562 59.2809Z" fill="black"/>
<path d="M60.6506 41.528C58.9749 41.0968 57.1947 41.2007 55.5347 41.7047C55.202 41.6544 55.0522 42.2259 55.3814 42.3576C55.4964 42.4113 55.6218 42.4026 55.7472 42.4026C56.7976 42.3212 57.8532 42.2104 58.907 42.2571C59.9869 42.3905 61.0721 42.6399 62.0511 43.1629C62.1556 43.2547 62.2636 43.2928 62.3681 43.2928C62.7583 43.2893 63.0718 42.7299 62.7147 42.3489C62.1085 41.9142 61.3613 41.6977 60.6523 41.5298L60.6506 41.528Z" fill="black"/>
<path d="M78.3823 44.5779C77.5306 44.0808 76.5987 43.7812 75.6389 43.6479C74.0468 43.35 72.3607 43.4349 70.8087 43.9475C70.4586 44.041 70.199 44.4913 70.6049 44.7077C70.6902 44.7441 70.786 44.732 70.8627 44.6835C71.0787 44.6385 71.2964 44.6108 71.5141 44.59C73.6671 44.3389 75.9716 44.3839 77.9033 45.5373C77.9782 45.5789 78.0584 45.5979 78.1385 45.5979C78.3144 45.5979 78.4886 45.4957 78.5792 45.3139C78.7046 45.0593 78.6227 44.7112 78.3789 44.5813L78.3823 44.5779Z" fill="black"/>
<path d="M86.8997 42.8C86.9102 42.3549 86.8997 41.9029 86.837 41.4613C86.7133 40.6006 86.5008 39.7503 86.1368 38.9554C85.7553 38.1258 85.2693 37.3361 84.6475 36.6607C84.4977 36.4979 84.3513 36.3316 84.1894 36.181C84.0274 36.0303 83.8636 35.8848 83.6981 35.7411C83.355 35.4467 82.9787 35.1782 82.5886 34.9479C81.8309 34.4994 81.0157 34.1322 80.1587 33.9175C79.2947 33.7027 78.3994 33.5867 77.5093 33.63C76.6157 33.6733 75.7326 33.8239 74.8877 34.1184C74.0534 34.4058 73.2504 34.8059 72.5345 35.3237C72.1652 35.5904 71.8099 35.8779 71.4841 36.1983C71.1619 36.5135 70.8623 36.8495 70.5853 37.2045C70.0645 37.8747 69.643 38.6315 69.3364 39.4212C69.3329 39.4282 69.3312 39.4368 69.3277 39.4437C69.2058 39.7572 69.103 40.0776 69.0176 40.4014C68.8417 40.3581 68.6693 40.3079 68.4916 40.2733C68.0021 40.2283 67.5109 40.3304 67.0371 40.4707C66.9448 39.2238 66.5982 37.9977 66.0077 36.891C65.2099 35.393 64.0063 34.1305 62.5344 33.2732C61.0399 32.4038 59.3119 31.9605 57.5805 32.0211C56.72 32.0506 55.87 32.203 55.0513 32.4627C54.6402 32.5926 54.2326 32.7554 53.8459 32.9476C53.4732 33.1329 53.1074 33.3356 52.7642 33.5694C52.0536 34.0543 51.3969 34.6223 50.8499 35.2839C50.3082 35.9385 49.8396 36.6572 49.5 37.4365C49.3206 37.847 49.1673 38.2626 49.0453 38.6939C48.9199 39.1337 48.8346 39.5823 48.7754 40.036C48.69 40.701 48.683 41.3799 48.751 42.0467C48.7666 42.2008 48.8259 42.3411 48.9426 42.4467C48.9635 42.4658 48.9844 42.4831 49.0088 42.497C49.0088 42.497 49.0088 42.5004 49.0088 42.5022C49.0645 42.9161 49.1411 43.3265 49.2561 43.7283C49.3798 44.1561 49.5226 44.5855 49.716 44.9873C50.0922 45.7736 50.5486 46.5217 51.1338 47.1729C51.7452 47.8535 52.4472 48.4614 53.2415 48.9238C53.4331 49.0346 53.623 49.1507 53.8216 49.2459C54.0201 49.3412 54.2204 49.4329 54.4225 49.5213C54.8388 49.7014 55.2778 49.8451 55.7202 49.9508C56.5772 50.1551 57.4656 50.266 58.3487 50.2157C59.237 50.1655 60.1271 50.0114 60.965 49.7066C61.8046 49.4018 62.6023 48.9948 63.3235 48.4649C64.0341 47.9436 64.6804 47.3236 65.2099 46.617C65.4816 46.2533 65.736 45.874 65.9519 45.4722C66.1645 45.0757 66.3508 44.6669 66.5093 44.2461C66.8072 43.4529 66.9814 42.6061 67.0389 41.7609C67.0389 41.7523 67.0389 41.7453 67.0389 41.7367C67.0493 41.5791 67.0546 41.4232 67.0563 41.2656C67.4169 41.2154 67.7792 41.1756 68.1415 41.1894C68.3714 41.2241 68.5874 41.321 68.8104 41.3903C68.7198 41.9965 68.6902 42.6113 68.7233 43.2226C68.6797 43.5794 68.6414 43.9915 68.6135 44.5128C68.5299 46.7451 68.5073 48.9792 68.2425 51.1994C67.9464 52.8135 68.3383 54.7808 66.0094 53.4924C65.0305 52.8931 63.8774 52.481 62.9141 51.8402C62.719 51.7259 62.4961 51.6532 62.3411 51.4817C61.8446 51.0228 61.1496 51.712 61.6112 52.2073C61.7627 52.3788 61.9491 52.5191 62.1564 52.6161C62.8828 53.0317 63.63 53.4941 64.4243 53.8041C65.1071 54.1626 65.7569 54.5955 66.4937 54.8363C67.4186 55.1688 68.5421 54.767 68.88 53.811C69.0664 53.2205 69.1047 52.5866 69.1971 51.9753C69.42 50.1794 69.5507 48.3696 69.5646 46.5581C69.9548 47.3946 70.4686 48.1722 71.0974 48.8597C72.2628 50.1326 73.7817 51.0643 75.4521 51.5215C76.283 51.7484 77.1383 51.854 78.0005 51.8489C78.4325 51.8471 78.8697 51.8107 79.2964 51.7415C79.7075 51.6739 80.1169 51.5891 80.5157 51.4678C81.3379 51.215 82.1357 50.8669 82.8568 50.3958C83.5692 49.93 84.2329 49.3845 84.7886 48.7402C85.0829 48.4008 85.3529 48.0492 85.5985 47.6734C85.8494 47.2907 86.0653 46.8872 86.257 46.4715C86.5374 45.8619 86.7464 45.2159 86.8805 44.5596C86.9119 44.4072 86.898 44.2565 86.8161 44.1214C86.8022 44.0972 86.7865 44.0747 86.7691 44.0539C86.7691 44.0539 86.7691 44.0504 86.7691 44.0487C86.8387 43.6365 86.8892 43.2226 86.8997 42.8052V42.8ZM65.8248 42.1974C65.7725 42.5506 65.7029 42.8987 65.6123 43.2451C65.5078 43.6053 65.3841 43.9552 65.2413 44.3015C65.1124 44.5855 64.9748 44.8609 64.8215 45.1328C64.6159 45.4757 64.3912 45.803 64.1456 46.12C63.9262 46.3849 63.6962 46.636 63.4524 46.8802C63.1772 47.1365 62.8932 47.3738 62.5936 47.6007C62.3411 47.7773 62.0833 47.9418 61.8185 48.0977C61.4788 48.2813 61.1339 48.4441 60.7768 48.5913C60.4825 48.7004 60.1846 48.7956 59.8815 48.8805C59.6812 48.929 59.4809 48.9757 59.2771 49.0121C59.0959 49.045 58.913 49.0693 58.7302 49.0935C58.4253 49.1212 58.124 49.1403 57.8174 49.1437C57.6328 49.1403 57.4464 49.1351 57.2618 49.1229C57.0684 49.1091 56.8768 49.0866 56.6852 49.0641C56.3333 49.0086 55.9902 48.9342 55.6453 48.8459C55.4624 48.7922 55.2795 48.7385 55.1001 48.6727C54.9242 48.6069 54.7517 48.5376 54.581 48.4666C54.2866 48.3298 54.001 48.1843 53.717 48.0267C53.5463 47.9228 53.3774 47.8137 53.2102 47.7028C53.0604 47.6024 52.9158 47.4898 52.773 47.3807C52.4977 47.1539 52.2365 46.9201 51.9839 46.6689C51.754 46.423 51.5345 46.1702 51.3255 45.9052C51.2 45.7355 51.0746 45.5571 50.9562 45.3718C50.8377 45.19 50.7315 45.0012 50.6252 44.8107C50.4894 44.544 50.3413 44.2236 50.2072 43.8945C50.0957 43.5897 49.9964 43.2832 49.9093 42.9732C49.8623 42.7792 49.8187 42.5853 49.7822 42.3896C49.8797 42.2787 49.9354 42.1333 49.9198 41.9809C49.8902 41.6899 49.8762 41.3955 49.8762 41.1028C49.8814 40.7565 49.9058 40.4118 49.9494 40.0672C50.0016 39.7191 50.0713 39.3745 50.1619 39.0333C50.2594 38.6956 50.3744 38.3648 50.5085 38.041C50.6496 37.7188 50.8081 37.4071 50.984 37.1006C51.1809 36.7767 51.3969 36.4667 51.6303 36.1671C51.8376 35.9177 52.0553 35.677 52.2852 35.4484C52.5204 35.2233 52.8235 34.9635 53.1457 34.7228C53.4192 34.5288 53.6996 34.3504 53.9905 34.1842C54.2919 34.0231 54.5984 33.8776 54.9155 33.7477C55.236 33.6248 55.5617 33.5191 55.8944 33.4308C56.234 33.3494 56.5755 33.2853 56.9221 33.2386C57.2565 33.2022 57.591 33.1832 57.9271 33.1814C58.2633 33.1866 58.596 33.2091 58.9287 33.249C59.298 33.3009 59.6621 33.3754 60.0226 33.4707C60.3431 33.5624 60.6567 33.6698 60.965 33.7945C61.3168 33.9452 61.6565 34.1149 61.9875 34.3071C62.294 34.4942 62.5884 34.6968 62.8723 34.915C63.1475 35.1384 63.4088 35.3739 63.6562 35.6251C63.7485 35.7238 63.8373 35.8242 63.9262 35.9264C63.9087 35.9195 63.8913 35.9108 63.8739 35.9039C62.1163 35.483 60.3814 34.9098 58.5804 34.6725C57.7146 34.5929 56.8402 34.5738 55.971 34.5652C55.2917 34.586 54.3058 34.3279 53.8494 34.9341C53.4018 35.6632 53.2136 36.6607 54.3894 36.7681C54.6524 36.8027 54.9155 36.7975 55.1767 36.7733C55.1959 36.7888 55.2133 36.8062 55.2342 36.8217C55.6035 37.0469 56.0581 36.8339 56.464 36.9239C59.0524 37.3067 61.6408 37.6998 64.2345 38.0462C64.6421 38.1345 65.0497 37.7777 64.9417 37.3915C65.0845 37.6634 65.2169 37.9388 65.3336 38.2211C65.4538 38.5328 65.5583 38.8497 65.6436 39.1718C65.7255 39.5078 65.79 39.8455 65.8352 40.1902C65.8718 40.5209 65.891 40.8517 65.8945 41.186C65.8892 41.5254 65.8649 41.8614 65.8248 42.1974ZM86.0479 43.3265C86.0357 43.5257 86.0183 43.7231 85.9957 43.9205C85.8703 43.9967 85.7727 44.1197 85.7414 44.2704C85.6821 44.5578 85.6072 44.8419 85.5201 45.1207C85.4121 45.4497 85.285 45.7719 85.1404 46.087C84.9871 46.404 84.8164 46.7122 84.6283 47.0101C84.4332 47.3045 84.2259 47.5851 83.9995 47.8552C83.7678 48.1219 83.524 48.3731 83.2644 48.6121C82.9787 48.8632 82.6809 49.0952 82.3673 49.3117C82.0939 49.4884 81.8152 49.6529 81.5278 49.8036C81.2369 49.949 80.8693 50.1066 80.4896 50.2417C80.1709 50.3456 79.8486 50.4339 79.5211 50.5067C79.185 50.5725 78.8488 50.6193 78.5074 50.6504C78.1642 50.6729 77.8211 50.6781 77.4779 50.6643C77.1295 50.6418 76.7847 50.6019 76.4398 50.5431C76.1088 50.479 75.7848 50.3976 75.4626 50.3006C75.1438 50.1967 74.8338 50.0755 74.5272 49.9386C74.1893 49.7793 73.8653 49.6009 73.5483 49.4035C73.2696 49.2217 73.003 49.026 72.7452 48.8147C72.4544 48.567 72.1826 48.3038 71.9231 48.0232C71.6879 47.7531 71.4667 47.4742 71.2612 47.1816C71.0661 46.8872 70.8867 46.5841 70.7247 46.2706C70.5731 45.9606 70.4408 45.6454 70.3223 45.3216C70.2161 45.0064 70.1272 44.686 70.0541 44.3604C69.9826 44.0071 69.9321 43.6538 69.9008 43.2953C69.8799 42.9628 69.8746 42.6286 69.8886 42.2961C69.9095 41.9514 69.9513 41.6085 70.0088 41.2674C70.0732 40.94 70.1533 40.6197 70.2509 40.2993C70.3571 39.9771 70.4808 39.6637 70.6202 39.3537C70.7752 39.0316 70.9476 38.7198 71.1358 38.4168C71.1497 38.396 71.1654 38.3769 71.1793 38.3562C71.6374 38.4635 72.1896 38.5086 72.2349 38.4982C74.083 38.5674 75.9155 38.8636 77.72 39.2065C78.4377 39.3849 79.1431 39.6013 79.8469 39.8213C80.3276 40.0551 80.7979 40.3114 81.3066 40.4984C81.8221 40.7963 82.4283 40.5279 82.3813 40.0845C82.5293 39.8351 82.5154 39.4715 82.5015 39.1684C82.5293 38.7822 82.3952 38.3821 82.059 38.1172C81.4685 37.7032 80.6464 37.679 79.9514 37.4504C79.5891 37.3552 79.2233 37.2668 78.8575 37.1854C78.5736 37.0694 78.2792 36.9759 77.9778 36.9031C76.9449 36.555 75.8545 36.5256 74.7693 36.581C74.1039 36.5204 73.4472 36.4788 72.7836 36.5724C72.9821 36.4113 73.1842 36.2537 73.3932 36.1065C73.6824 35.9177 73.9768 35.7463 74.2816 35.587C74.6212 35.4242 74.9644 35.2804 75.3163 35.154C75.6106 35.0605 75.905 34.9791 76.2063 34.9081C76.5843 34.8336 76.9641 34.7799 77.349 34.7453C77.6626 34.7297 77.9761 34.7245 78.2896 34.7349C78.4952 34.747 78.7007 34.7626 78.9062 34.7868C79.0891 34.8094 79.2703 34.8388 79.4515 34.8717C79.7511 34.9341 80.0437 35.0068 80.3381 35.0934C80.514 35.1505 80.6899 35.2111 80.8624 35.2787C81.0418 35.348 81.2195 35.4259 81.3954 35.5056C81.7142 35.6632 82.0207 35.8363 82.3238 36.0216C82.4823 36.1273 82.6408 36.2312 82.7924 36.349C82.9404 36.4633 83.085 36.5793 83.2278 36.6988C83.4682 36.917 83.6981 37.1404 83.9211 37.3742C84.0535 37.5249 84.1824 37.6773 84.3078 37.8331C84.421 37.9734 84.5255 38.1224 84.6283 38.2713C84.8234 38.5692 85.0028 38.8705 85.1683 39.184C85.3146 39.487 85.447 39.7936 85.5672 40.1088C85.6351 40.3079 85.703 40.5157 85.7605 40.727C85.8197 40.9366 85.8633 41.1479 85.9086 41.3609C85.9591 41.6553 86.0044 42.0051 86.034 42.3601C86.0497 42.684 86.0532 43.0061 86.0427 43.3282L86.0479 43.3265Z" fill="black"/>
<path d="M32.9905 138.787C32.6125 138.302 32.2206 137.824 31.7799 137.392C31.8443 137.205 31.8321 136.999 31.705 136.828C31.8164 136.584 31.9401 136.324 32.0551 136.097C32.2537 135.714 32.4557 135.333 32.6613 134.954C32.9138 134.403 32.0917 134.015 31.8252 134.557C31.7067 134.928 31.2765 135.823 31.0849 136.535C30.5083 136.587 30.1321 137.453 30.787 137.808C30.8654 137.851 30.9438 137.877 31.0204 137.889C31.5412 138.598 32.0429 139.332 32.6525 139.961C32.7431 140.018 32.8407 140.044 32.9347 140.044C33.2483 140.044 33.5287 139.756 33.4347 139.405C33.3423 139.138 33.1681 139.022 32.9922 138.785L32.9905 138.787Z" fill="black"/>
<path d="M16.2246 80.4286C16.2246 80.4286 16.235 80.4183 16.2418 80.4148C16.2453 80.4114 16.2487 80.408 16.2505 80.4062C16.2418 80.4131 16.2332 80.4217 16.2246 80.4303V80.4286Z" fill="black"/>
<path d="M114.836 107.36C114.809 106.179 114.781 105 114.77 103.818C114.749 102.421 114.499 101.042 114.288 99.6638C114.077 98.5727 113.662 97.5319 113.262 96.4997C112.649 95.0363 112.046 93.5608 111.278 92.1684C110.802 91.3527 110.29 90.5613 109.775 89.7716C108.461 87.7678 107.174 85.6515 105.31 84.0929C104.991 83.8348 102.988 82.1446 102.213 82.1498C102.19 82.1359 102.17 82.1186 102.147 82.1047C102.102 82.077 102.055 82.0493 102.008 82.0216C102.001 82.0182 101.994 82.013 101.985 82.0095C100.604 81.5783 99.2171 81.1557 97.8671 80.6361C95.0018 79.6958 92.321 78.312 89.5689 77.1015C87.726 76.2771 85.8535 75.5238 83.9792 74.7722C82.8313 74.3253 81.7078 73.811 80.5338 73.4421C80.5059 73.4387 80.4798 73.4335 80.4519 73.43C80.3422 73.4144 80.2324 73.3919 80.1245 73.3711C80.067 73.3607 80.0095 73.3503 79.952 73.3382C79.4834 73.1893 79.0097 73.0473 78.5585 72.8498C77.3827 72.4117 76.2697 71.7138 75.073 71.3189C74.9946 71.2946 74.7891 71.215 74.5801 71.1561C74.6079 70.8894 74.6306 70.6227 74.6532 70.3577C74.7246 69.2926 74.7821 68.2293 74.9075 67.1452C74.9668 66.5945 74.9424 66.0299 75.1009 65.4947C75.7175 65.0445 76.3272 64.5786 76.8759 64.0625C78.6369 62.4294 80.2063 60.5971 81.6312 58.6696C82.1346 58.008 82.5753 57.3084 82.9776 56.5862C83.1083 56.5931 83.2389 56.6001 83.3713 56.6001C83.6866 56.6001 84.0036 56.5706 84.3032 56.4771C85.1741 56.1532 85.9092 55.5246 86.5781 54.8959C88.4628 53.1139 90.0688 50.9595 90.9014 48.4899C91.302 47.2482 91.6417 45.7969 91.1871 44.543C91.4257 44.4426 91.6487 44.1863 91.8438 44.0096C92.4203 43.478 93.0073 42.9359 93.5926 42.3904C95.2892 40.8837 96.8743 39.2194 98.1093 37.3126C98.9523 35.9705 99.7867 34.6093 100.414 33.151C101.034 31.5474 101.621 29.9125 101.929 28.2188C102.635 24.3412 101.058 20.3996 98.4402 17.542C95.0174 13.7528 91.7096 12.6098 86.7697 11.8928C84.3677 11.4754 81.9238 11.4373 79.6524 10.4415C77.1528 9.24484 75.0957 7.3277 72.7041 5.94743C68.9712 3.83633 63.8658 2.9046 59.6 3.17997C53.2508 3.84153 46.8355 8.87942 44.0154 14.4767C42.9181 16.4337 42.3694 18.6262 42.1499 20.8447C41.8555 23.3731 41.8816 25.9328 42.2596 28.4509C42.5871 30.4303 43.0626 32.3908 43.7994 34.2594C44.4161 35.7973 45.1895 37.2659 45.7225 38.8349C45.8601 39.2055 46.0134 39.5848 46.1318 39.971C45.8845 40.0611 45.6545 40.2394 45.4298 40.3537C44.4091 40.8057 43.7681 41.7583 43.1132 42.6138C43.1062 42.6276 43.0975 42.6432 43.0888 42.6588C42.9477 42.858 42.824 43.0537 42.7247 43.2355C42.5801 43.4676 42.453 43.7135 42.4321 43.9334C42.1029 44.9518 42.1151 46.0671 42.2318 47.1217C42.399 48.8068 43.1166 50.3533 44.052 51.7475C44.761 52.8195 46.0256 53.4602 47.278 53.6663C47.4313 55.1938 47.5933 56.7282 48.0897 58.1829C48.6802 59.9702 49.4222 61.7626 50.591 63.2486C50.5196 63.3248 50.4639 63.4269 50.4551 63.5308C50.4238 64.1197 50.4499 64.712 50.443 65.3025C50.4691 66.5823 50.3402 67.8535 50.2566 69.1281C50.2339 69.4295 50.2113 69.7308 50.1904 70.0304C48.1977 70.4253 46.2485 70.9587 44.2715 71.4505C42.3572 72.0185 40.462 72.6541 38.5355 73.1841C37.3214 73.5547 36.076 73.8041 34.834 74.0535C34.6842 74.0864 34.4926 74.1348 34.315 74.2093C33.2925 74.3894 32.2683 74.5626 31.251 74.7774C28.7619 75.361 26.2989 76.0468 23.8341 76.717C22.2072 77.1846 20.5786 77.6453 18.9621 78.1458C18.7391 78.3259 18.5214 78.5129 18.3002 78.6948C17.9152 79.0134 17.5285 79.3321 17.1436 79.6507C17.0234 79.7495 16.9032 79.8499 16.783 79.9503C16.8161 79.9382 16.8492 79.9278 16.8823 79.9157C16.6942 80.0543 16.5078 80.1963 16.3249 80.3435C16.2988 80.366 16.2726 80.3885 16.2483 80.4127C16.2413 80.4179 16.2343 80.4249 16.2274 80.4301C16.2239 80.4335 16.2204 80.437 16.2152 80.4405C16.2152 80.4405 16.2134 80.4422 16.2117 80.4439L16.2152 80.4405C16.1803 80.4716 16.1472 80.5028 16.1124 80.534C16.0932 80.553 16.0723 80.5738 16.0532 80.5928C15.9138 80.7349 15.7745 80.8751 15.6351 81.0154C15.4923 81.1592 15.3529 81.3098 15.1927 81.4328C15.1439 81.4726 15.0864 81.4986 15.0272 81.5142C14.0309 82.5325 13.2157 83.7171 12.4492 84.9155C11.0122 87.0716 9.88172 89.4061 8.69725 91.7026C7.23756 94.3834 6.09315 97.2236 4.90519 100.031C4.67875 100.596 4.46798 101.165 4.27115 101.74C4.24676 101.855 4.21889 101.967 4.19451 102.078C4.15096 102.279 4.09696 102.478 4.0447 102.677C3.92974 103.103 3.81826 103.533 3.68588 103.954C3.43331 104.757 3.19293 105.561 3.00481 106.38C3.00481 106.373 3.00481 106.366 3.00655 106.359C2.99087 106.428 2.9752 106.498 2.95952 106.567C2.85327 107.099 2.74701 107.627 2.62334 108.155C2.56411 108.41 2.49618 108.662 2.43696 108.915C2.37948 109.163 2.33245 109.414 2.28716 109.663C2.1931 110.185 2.0851 110.704 1.99104 111.225C1.89872 111.736 1.82556 112.252 1.75066 112.765C1.67924 113.262 1.60434 113.761 1.53293 114.258C1.45977 114.769 1.36919 115.28 1.29777 115.792C1.29255 115.827 1.28906 115.862 1.28558 115.896C1.25945 116.094 1.23332 116.289 1.21068 116.487C1.19849 116.592 1.18803 116.696 1.17584 116.802C1.16191 116.932 1.14797 117.062 1.13404 117.192C1.11836 117.341 1.10443 117.49 1.09049 117.638C1.08178 117.722 1.07481 117.803 1.0661 117.886C1.03649 118.191 1.00688 118.497 0.975527 118.802C0.454708 126.235 -0.00688961 133.68 7.78732e-05 141.132C0.0767202 147.416 0.618442 153.7 1.43712 159.928C1.92485 163.577 2.81146 166.332 6.34223 168.09C8.30707 169.02 10.4478 169.444 12.6043 169.696C12.5067 170.201 12.4754 170.735 12.3865 171.237C12.3081 171.679 12.1322 172.396 12.7819 172.447C12.7854 172.447 12.7889 172.447 12.7941 172.447C13.6076 172.447 13.3097 170.823 13.4787 170.248C13.4787 170.123 13.5083 169.962 13.5309 169.794C14.0413 169.843 14.5499 169.886 15.0568 169.924C17.9954 170.051 20.9356 170.148 23.8777 170.149C24.0135 170.151 24.1494 170.153 24.2853 170.153C26.2344 170.153 28.1783 169.999 30.1205 169.864C34.4038 169.609 38.7149 169.225 42.9999 168.915C47.7326 168.449 52.4444 167.782 57.1561 167.155C59.7027 166.736 62.2406 166.277 64.7577 165.712C66.2104 165.46 67.738 165.156 69.175 164.772C69.4154 164.699 69.7133 164.682 69.9049 164.512C73.2127 165.925 76.5745 167.209 79.9956 168.317C82.3419 168.991 84.6847 169.687 87.0763 170.186C88.9348 170.558 90.8195 170.79 92.7112 170.943C92.7164 171.022 92.7234 171.1 92.7217 171.176C92.807 171.675 92.3942 172.624 93.1502 172.704C93.7372 172.695 93.6919 172.11 93.5787 171.694C93.549 171.575 93.5055 171.285 93.4358 171C94.0524 171.043 94.6708 171.079 95.2874 171.111C95.479 171.116 95.6706 171.117 95.864 171.117C97.6494 171.117 99.4296 170.927 101.201 170.717C101.957 170.634 102.717 170.546 103.431 170.277C104.96 169.767 106.385 168.96 107.458 167.735C107.911 167.202 108.043 166.49 108.238 165.839C108.32 165.6 108.395 165.357 108.472 165.117C108.508 165.03 108.545 164.945 108.58 164.859C109.928 161.769 110.693 158.479 111.56 155.233C112.882 149.631 113.676 143.912 114.124 138.178C114.485 132.641 114.725 127.094 114.784 121.547C114.781 116.935 114.744 112.323 114.673 107.713C114.772 107.625 114.84 107.502 114.842 107.364L114.836 107.36ZM74.7334 72.0168C74.7577 72.0376 74.7786 72.0601 74.803 72.0792C75.2315 72.3996 75.6844 72.6108 76.1565 72.8862C77.0866 73.3711 78.0499 73.811 79.0497 74.1383C79.041 74.166 79.0323 74.1955 79.0271 74.2249C79.0149 74.2907 79.0009 74.3548 78.987 74.4189C78.8773 74.935 78.7431 75.4441 78.5881 75.9481C78.5167 75.8736 78.4401 75.8061 78.3669 75.7489C77.968 75.4268 77.4298 75.3991 76.9386 75.3783C76.7713 75.3714 76.6006 75.3142 76.5083 75.1653C76.1443 74.3306 75.6757 73.3434 74.648 73.2343C74.5278 73.2083 74.4094 73.2031 74.2927 73.2152C74.4686 72.8256 74.6254 72.429 74.7316 72.0168H74.7334ZM70.5877 85.9217C70.2776 86.0983 69.9624 86.2681 69.6419 86.4274C68.9834 86.746 68.3076 87.0266 67.6178 87.2673C67.4541 87.3228 67.2886 87.3747 67.1231 87.4249C67.1231 87.418 67.1214 87.4128 67.1196 87.4059C67.0378 87.1045 67.0447 86.7893 66.9925 86.4828C66.8845 85.8039 66.5065 85.177 65.9839 84.7354C64.8953 83.9491 64.9144 83.4331 65.3464 82.226C65.5101 81.7636 65.707 81.3133 65.9264 80.8734C66.031 80.6154 66.2922 80.2257 66.2818 79.9071C66.7538 79.7876 67.2207 79.649 67.6823 79.4949C68.0446 79.6196 68.3407 79.8568 68.271 80.3071C68.0568 81.225 67.2311 82.0736 67.5917 83.0676C68.4957 85.3208 71.0719 82.9585 70.5877 85.894C70.5877 85.9026 70.5912 85.9113 70.5912 85.92L70.5877 85.9217ZM61.3157 87.4942C61.2443 86.8586 60.2236 86.2334 61.1677 85.7866C62.4462 85.2394 63.4617 84.6159 62.5524 83.1404C62.0665 82.3818 61.1886 81.9523 60.7095 81.1973C60.7444 80.7747 61.0562 80.4526 61.4185 80.2465C61.7703 80.2829 62.1257 80.3071 62.481 80.314C62.6901 80.3261 62.8973 80.3331 63.1064 80.3331C63.9407 80.3331 64.7681 80.2344 65.585 80.0664C64.7873 81.3081 63.7195 82.7524 64.2281 84.273C64.4615 85.0142 65.268 85.3156 65.6756 85.9356C65.916 86.2733 65.9857 86.6768 66.0101 87.0803C66.0379 87.2777 66.0449 87.5115 66.1233 87.7038C65.8515 87.7713 65.5798 87.8354 65.3063 87.8908C64.526 88.0397 63.7421 88.1384 62.9496 88.1887C62.4044 88.2164 61.8592 88.2198 61.314 88.2025C61.3732 87.9601 61.3749 87.6934 61.3192 87.4959L61.3157 87.4942ZM60.2166 87.5098C60.3072 87.6708 60.342 87.87 60.2706 88.0449C60.2567 88.0726 60.2445 88.1021 60.234 88.1315C59.5913 88.0657 58.9537 87.9705 58.3197 87.8406C57.5794 87.6795 56.853 87.4769 56.1371 87.231C55.8288 87.1219 55.5257 87.0024 55.2244 86.8777C55.2645 86.7634 55.2679 86.6369 55.2192 86.5192C55.1965 86.4759 55.2105 86.4274 55.2087 86.3806C55.2836 85.984 55.4526 85.5442 55.794 85.3052C56.2939 85.0263 56.9541 85.1458 57.3965 84.7423C58.0375 84.0825 58.0183 82.9429 57.5289 82.1983C57.3547 81.9073 57.0917 81.6545 57.0098 81.3185C56.9105 80.5132 57.4366 79.7113 58.2291 79.5053C58.9572 79.772 59.7062 79.9781 60.4692 80.1166C60.2514 80.2932 60.072 80.5149 59.9501 80.7799C59.4206 81.9887 61.0213 82.7403 61.6136 83.5803C61.7338 83.7604 61.8783 83.989 61.8505 84.2089C61.5178 84.5726 60.9935 84.6713 60.5859 84.9294C59.5198 85.5026 59.5059 86.6404 60.2166 87.515V87.5098ZM51.4097 74.6735C51.5438 74.8691 51.6849 75.0614 51.833 75.2467C51.6657 75.309 51.5072 75.3922 51.3853 75.4666C50.5649 76.0173 50.6711 77.15 50.2235 77.9432C49.8176 78.9216 48.5286 78.4818 47.8127 79.055C47.487 79.287 47.2344 79.6507 47.1351 80.0439C46.8303 79.5537 46.5464 79.0515 46.2868 78.5354C46.0047 77.9622 45.7538 77.3768 45.5309 76.7811C45.9454 77.1725 46.4837 77.4496 46.9801 77.4911C47.8493 77.5743 48.3039 76.7361 48.4642 76.007C48.6053 75.5394 48.6157 74.954 49.0373 74.6354C49.356 74.476 49.6922 74.6821 50.0057 74.7618C50.3802 74.8761 50.7844 74.9315 51.1658 74.8207C51.2634 74.7964 51.3452 74.7427 51.4079 74.6717L51.4097 74.6735ZM50.8209 71.2791C50.9376 71.2219 51.4881 65.7943 51.4916 64.2444C51.549 64.2998 51.6065 64.3569 51.6675 64.4106C55.3463 67.5296 60.2149 69.0433 65.012 69.0658C65.3656 69.0692 65.7209 69.0727 66.078 69.0727C67.9035 69.0727 69.7568 68.9792 71.4133 68.1479C72.2634 67.663 73.0176 67.0257 73.8015 66.4438C73.9042 66.3676 74.0087 66.2897 74.115 66.2135C73.9896 67.2266 73.7631 68.2276 73.6969 69.2494C73.5698 70.5552 73.5698 71.906 73.1378 73.1581C73.1082 73.2499 73.0733 73.3434 73.035 73.4335C72.0753 75.2657 70.6173 76.9248 68.7936 77.9501C66.6842 78.8853 64.3605 79.4481 62.0421 79.2576C61.0161 79.1814 59.9936 79.0082 59.013 78.6913C58.0062 78.3588 56.9854 77.8098 56.0222 77.3439C54.775 76.7395 53.7177 75.813 52.7457 74.8414C51.8573 73.8197 51.1832 72.5849 50.8262 71.2791H50.8209ZM48.081 79.959C48.5008 79.5988 49.0982 79.6767 49.6086 79.5607C50.3071 79.4672 50.8749 78.9926 51.1641 78.3657C51.455 77.8046 51.5734 77.1811 51.7772 76.5889C51.8138 76.4867 51.8643 76.3897 51.9619 76.3308C52.1169 76.2338 52.298 76.1975 52.474 76.1559C52.521 76.1455 52.5628 76.1265 52.6029 76.1039C53.061 76.5594 53.5609 76.9768 54.0904 77.3543C53.9197 77.408 53.7804 77.4721 53.7159 77.5292C53.1638 77.8756 52.9356 78.6428 53.4007 79.1554C53.9668 79.8049 54.3883 80.3625 53.6915 81.1297C53.5574 81.2735 53.3728 81.3375 53.1864 81.2579C52.8607 81.154 52.5315 81.0466 52.1848 81.0397C51.4428 80.9756 50.7652 81.4865 50.4848 82.1498C50.3262 82.5446 50.2792 82.9741 50.1416 83.3759C50.0806 83.4071 50.0232 83.4452 49.9692 83.485C49.5511 83.0902 49.1522 82.6797 48.7708 82.2485C48.3719 81.7861 47.9956 81.3046 47.6403 80.8041C47.7187 80.4924 47.8267 80.1755 48.0827 79.9625L48.081 79.959ZM51.0491 83.8868C51.2442 83.4954 51.2878 83.0469 51.4167 82.6312C51.5334 82.2381 51.9235 81.9783 52.3311 82.0961C52.744 82.174 53.1394 82.394 53.5714 82.3195C54.3604 82.1827 54.9143 81.4276 55.0519 80.6777C55.2732 79.7772 54.6792 79.0758 54.1287 78.4436C54.2455 78.1094 54.5834 78.009 54.9004 77.8877C55.3916 78.1856 55.9002 78.4523 56.4158 78.6844C56.6754 78.8247 56.9401 78.9563 57.2084 79.0792C56.7938 79.3303 56.4507 79.694 56.266 80.1495C55.3864 82.155 57.0725 82.3178 56.8165 83.6721C56.7764 83.7898 56.7781 83.9647 56.6336 84.0011C56.3026 84.0929 55.9525 84.1137 55.6285 84.2401C54.8238 84.4947 54.1758 85.5164 54.174 86.4014C54.1148 86.372 54.0556 86.346 53.9964 86.3166C53.3345 85.9754 52.6935 85.5996 52.0786 85.1822L52.0019 85.1303C51.603 84.8532 51.1902 84.5397 50.7809 84.2037C50.8924 84.1102 50.9882 84.0011 51.0491 83.8903V83.8868ZM70.093 83.2495C69.3579 83.1785 68.2292 83.2477 68.5863 82.1567C68.8615 81.4085 69.3806 80.624 69.0705 79.7997C68.9782 79.5555 68.8145 79.3286 68.602 79.171C68.6055 79.171 68.6107 79.1676 68.6142 79.1658C69.3144 78.8714 69.9676 78.4818 70.5685 78.0228C70.5337 78.4385 70.6208 78.8593 70.7114 79.2645C70.835 79.7616 71.1677 80.2049 71.6224 80.4508C72.516 80.9046 73.6011 81.1644 73.4897 82.3957C73.5471 82.7299 73.5768 83.2529 73.7771 83.5924C73.6342 83.724 73.4897 83.8556 73.3433 83.9838C72.8138 84.4358 72.2599 84.8566 71.6833 85.248C71.6886 84.6488 71.5388 84.0548 71.0458 83.6565C70.7828 83.4175 70.4414 83.2945 70.0913 83.2512L70.093 83.2495ZM72.6814 79.843C72.2233 79.6629 71.7077 79.4879 71.5004 78.9996C71.3297 78.5909 71.1451 78.1821 71.0371 77.7526C71.0284 77.7232 71.0214 77.6938 71.0127 77.6643C71.4221 77.3145 71.807 76.9318 72.1641 76.5248C72.2494 76.5248 72.3296 76.5179 72.3888 76.5023C72.9741 76.4087 73.8624 76.097 74.1254 76.8486C74.2613 77.3283 74.2543 77.8444 74.4338 78.3138C74.695 78.9182 75.2908 79.4169 75.9718 79.4187C76.2749 79.455 76.6999 79.3182 76.8428 79.6906C76.8428 79.7321 76.8497 79.7737 76.8619 79.8135C76.6755 80.1235 76.4805 80.4283 76.2749 80.7262C75.876 81.2994 75.4022 81.9004 74.8901 82.4702C74.7995 82.5706 74.7037 82.6728 74.6062 82.7732C74.5992 82.7473 74.5923 82.7213 74.587 82.6953C74.4843 82.1688 74.5696 81.6008 74.2735 81.1245C73.9704 80.4716 73.3224 80.1079 72.6814 79.8412V79.843ZM75.7733 78.3484C75.0748 77.9466 75.3343 77.0097 74.9824 76.3897C74.7038 75.7437 73.9722 75.4268 73.2928 75.5134C73.1483 75.5584 73.0037 75.6069 72.8591 75.6589C72.9863 75.4874 73.1082 75.3142 73.2266 75.1376C73.3155 75.0285 73.4026 74.9176 73.4844 74.8033C73.622 74.6007 73.7387 74.3912 73.8433 74.1764C74.4459 73.9617 74.9894 74.3028 75.2472 74.8917C75.4667 75.4199 75.6862 76.026 76.2558 76.2667C76.8149 76.5542 77.6022 76.2217 77.9785 76.8382C78.0481 76.9179 78.1387 76.9647 78.238 76.9855C78.0185 77.5621 77.7572 78.1666 77.4576 78.7536C77.4542 78.7606 77.4507 78.7675 77.4472 78.7744C77.3967 78.7242 77.3462 78.6774 77.2956 78.6359C76.8497 78.3051 76.2784 78.4627 75.775 78.3501L75.7733 78.3484ZM43.9492 31.6721C43.0766 28.4716 42.7386 25.1136 43.0783 21.8093C43.2455 19.3535 43.7907 16.9117 45.0257 14.759C47.7134 9.59294 53.6672 4.91872 59.5616 4.22772C63.655 3.92985 68.8301 4.86331 72.3714 6.96748C74.5156 8.24557 76.4143 9.90467 78.6108 11.0979C80.2133 11.9448 82.0057 12.2981 83.7911 12.518C86.1444 12.8626 88.5325 13.1086 90.8126 13.8082C93.3975 14.4784 95.6219 16.0561 97.4282 17.9837C100.146 20.8204 101.738 24.8192 100.76 28.7245C100.219 30.8823 99.4836 33.0194 98.3305 34.9348C97.3202 36.7654 96.1462 38.3968 94.683 39.9208C93.7807 40.8629 92.7809 41.7098 91.8368 42.6086C91.5546 42.8684 91.2184 43.1766 90.8875 43.4832C90.8283 43.5403 90.7655 43.5923 90.6959 43.6563C89.4992 42.07 87.8131 42.5272 86.2611 43.4901C86.2471 43.497 86.2332 43.5039 86.2193 43.5109C86.2402 43.5888 86.2436 43.6702 86.2315 43.7516C86.0346 43.6823 85.8029 43.7204 85.6566 43.9282C85.0487 44.9639 85.0052 46.3078 84.1848 47.2308C84.3729 42.2241 86.174 37.2763 85.6148 32.2089C85.4755 30.2416 84.8937 27.9677 82.7198 27.4031C80.64 26.6272 78.3704 26.8732 76.2592 27.3823C74.9075 27.6508 73.5297 27.746 72.1536 27.7096C69.0932 27.7373 66.0362 26.8784 63.4983 25.1673C62.7702 24.601 62.157 23.9013 61.5439 23.2173C61.2217 22.9142 60.7409 22.2699 60.2932 22.5211C59.7289 21.979 58.9729 21.6274 58.2117 21.4664C57.1422 21.2499 56.0257 21.4075 54.9979 21.7435C53.3519 22.3358 52.1082 23.7888 51.347 25.3162C50.9638 26.0679 50.7356 26.8818 50.5562 27.701C50.3611 28.5045 50.1015 29.2943 49.9361 30.1048C49.2742 33.3554 49.1122 36.6736 48.985 39.9797C48.9519 40.7902 48.9118 41.5989 48.877 42.4094C48.816 43.4866 48.8683 44.5811 48.5722 45.6289C48.3196 45.5614 48.0723 45.4782 47.8232 45.3986C47.7483 44.8201 47.5654 44.2625 47.48 43.6858C47.4313 42.8441 47.3093 42.0111 47.1978 41.1764C47.1682 40.9322 47.1073 40.688 47.0254 40.4576C47.0149 40.4265 47.001 40.3988 46.9853 40.3711C46.9017 39.8255 46.738 39.2887 46.5621 38.7691C45.8374 36.3515 44.5746 34.1295 43.9527 31.6773L43.9492 31.6721ZM49.2062 58.2713C48.4032 56.2364 48.344 54.0214 47.8963 51.8981C47.7326 51.1482 47.6995 50.3429 47.3685 49.6433C46.9958 49.2709 47.0568 50.1091 47.0498 50.3707C47.0411 50.9837 47.0777 51.5951 47.1212 52.2047C47.1369 52.3345 47.1508 52.4627 47.1665 52.5926C46.6457 52.4696 46.1545 52.2254 45.6911 51.9553C45.0484 51.5587 44.7122 50.8556 44.3377 50.2286C44.1426 49.8823 43.9371 49.529 43.7768 49.1549C43.2473 47.6413 42.8763 45.8177 43.3431 44.2452C43.5486 43.9923 43.6845 43.594 43.8552 43.3706C44.221 42.8458 44.6146 42.3401 45.0484 41.8674C45.0693 41.8535 45.0902 41.8379 45.1111 41.8241C45.1076 41.8189 45.1041 41.8137 45.1006 41.8085C45.139 41.7669 45.1773 41.7236 45.2156 41.6821C45.4838 41.4448 45.7956 41.2629 46.1022 41.0759C46.3008 41.9539 46.3304 42.8649 46.4384 43.7585C45.4333 43.5334 44.6808 44.5725 44.4857 45.4384C44.2523 46.7494 44.5972 48.8276 46.2241 48.9696C47.008 49.1168 47.5898 48.4518 47.4382 47.695C47.2849 46.9382 46.245 47.1997 46.4105 47.9461C45.4281 47.9218 45.3741 46.3008 45.4716 45.5804C45.6981 44.7006 46.2433 44.3716 46.623 44.7353C46.7014 45.0886 46.7746 45.4436 46.8338 45.8021C46.9383 46.2091 47.3668 46.3528 47.7291 46.4515C48.0914 46.5675 48.459 46.6922 48.8387 46.7355C48.8544 46.7355 48.87 46.7355 48.884 46.7355C49.3351 46.7355 49.518 46.2593 49.579 45.8748C49.7392 45.2773 49.835 44.6625 49.8525 44.0443C49.9117 42.4094 49.9988 40.7746 50.0563 39.1397C50.2148 35.4804 50.4255 31.7794 51.4828 28.25C51.8208 26.5095 52.514 24.795 53.8744 23.5965C54.8447 22.6302 56.2416 22.2578 57.5846 22.2457C57.9696 22.2578 58.358 22.3063 58.729 22.4154C59.1575 22.5626 59.6418 22.6613 60.0093 22.9384C59.9902 23.3316 60.5354 23.5913 60.8001 23.8719C61.6432 24.8105 62.4706 25.8064 63.5836 26.4385C65.6599 27.6178 67.9592 28.4838 70.3595 28.6518C71.9899 28.7643 73.6429 28.8197 75.2664 28.5842C76.3533 28.463 77.4071 28.1461 78.4906 28.0075C80.3544 27.8464 83.2772 27.8897 84.0924 29.9125C85.0992 33.3104 84.6115 36.9715 84.0019 40.4022C83.7197 42.1808 83.4131 43.9282 83.2128 45.7293C83.1936 46.4948 82.7738 48.1349 83.7737 48.3929C83.8259 48.3981 83.8782 48.4016 83.9287 48.4016C84.4931 48.4016 84.9024 48.0673 85.216 47.6153C85.3745 47.7677 85.6775 47.7781 85.7768 47.4768C86.0242 47.1027 87.2644 46.0601 87.672 46.4307C87.8758 47.5789 87.5257 48.7549 86.9839 49.7662C86.8219 50.0832 86.2071 51.0651 85.9371 50.3585C85.9249 50.239 85.9493 50.1178 85.9597 49.9983C85.9946 49.7229 85.8117 49.4632 85.5312 49.4199C84.9251 49.3471 84.8536 50.0988 84.9094 50.5369C85.0121 51.1084 85.5242 51.6314 86.1217 51.6557C88.522 51.8341 90.3214 43.8434 86.6791 45.7138C86.3656 45.9216 86.0695 46.164 85.8012 46.4342C85.8744 46.2402 85.9406 46.0532 86.0015 45.8835C86.1635 45.383 86.3325 44.8807 86.5485 44.401C86.5659 44.356 86.5746 44.311 86.5798 44.2677C87.0919 43.975 87.6424 43.7429 88.2067 43.5888C89.2571 43.2927 90.121 44.2365 90.3144 45.189C90.4381 45.8194 90.337 46.4654 90.2186 47.0888C89.6873 49.432 88.3478 51.5102 86.7349 53.268C86.1304 53.8741 85.5417 54.4993 84.8397 54.9964C84.6307 55.1332 84.3224 55.3687 84.035 55.4709C83.8608 55.5298 83.6761 55.5384 83.495 55.5679C83.7667 54.9358 84.0733 54.0716 84.2022 53.6836C84.3729 53.1676 84.5384 52.6515 84.7143 52.1354C84.7091 52.151 84.7038 52.1683 84.6986 52.1839L84.723 52.1059C84.7178 52.1215 84.7125 52.1389 84.7073 52.1544C84.7491 52.0246 84.7892 51.8929 84.831 51.763C84.6812 51.5899 84.4251 51.5033 84.2022 51.621C84.0785 51.6816 83.9914 51.7856 83.9409 51.912C83.7388 52.4125 83.5507 52.9164 83.34 53.4117C81.9708 56.8997 79.5827 59.8386 76.9873 62.5108C76.4456 63.065 75.8656 63.5741 75.2611 64.0573C75.2559 64.0608 75.2524 64.0642 75.2472 64.0694C75.2472 64.0694 75.2455 64.0694 75.2437 64.0712C75.033 64.2392 74.8187 64.402 74.6027 64.563C74.4825 64.5925 74.3745 64.6704 74.3031 64.8089C74.2334 64.8626 74.162 64.9111 74.0836 64.9509C74.0767 64.9544 74.0714 64.9561 74.0662 64.9579C73.9338 65.0531 73.8015 65.1466 73.6691 65.2402C72.7668 65.8896 71.9167 66.617 70.9657 67.1989C69.6802 67.8431 68.2257 68.0111 66.8044 68.0146C65.1949 68.0596 63.5714 68.0024 61.9654 67.8067C58.3615 67.2647 54.7872 65.8307 52.0768 63.3681C50.6781 61.9514 49.8385 60.1209 49.1993 58.2643L49.2062 58.2713ZM47.0986 71.7848C46.8077 72.0601 46.5499 72.3874 46.3321 72.7771C46.1109 73.0386 45.6667 72.9641 45.4072 72.7996C45.2853 72.6905 45.1773 72.5606 45.0658 72.4377C45.3567 72.3597 46.738 71.8817 47.0968 71.7865L47.0986 71.7848ZM44.9021 73.4525C45.1546 73.6984 45.5152 73.8179 45.8601 73.8543C46.6892 74.0067 47.2031 73.3296 47.5985 72.7199C48.0026 72.261 48.5687 71.951 49.1592 71.8003C49.4501 71.7138 49.8037 71.7311 50.0946 71.6254C50.1521 71.8679 50.22 72.0913 50.2566 72.2402C50.4133 72.7944 50.6276 73.3226 50.8924 73.8231C50.8244 73.8352 50.7565 73.8491 50.6886 73.8491C50.0841 73.7712 49.5006 73.3954 48.8788 73.6032C47.7169 73.9062 47.656 75.2588 47.3755 76.2131C47.2118 76.937 46.3757 76.5663 45.9629 76.2789C45.6441 76.0693 45.3985 75.7732 45.1146 75.522C44.9752 75.0371 44.8533 74.5488 44.7523 74.0535C44.6895 73.7279 44.6355 73.4006 44.585 73.0732C44.6826 73.2066 44.7819 73.3365 44.9003 73.4525H44.9021ZM113.109 137.648C112.79 142.147 112.201 146.633 111.37 151.068C110.698 154.767 109.672 158.401 108.576 161.994C108.4 162.46 108.221 162.924 108.036 163.387C107.942 163.442 107.865 163.525 107.832 163.632C107.723 163.977 107.618 164.323 107.514 164.668C107.292 165.198 107.064 165.726 106.827 166.251C106.758 166.403 106.779 166.573 106.857 166.71C106.843 166.745 106.831 166.777 106.815 166.812C106.404 167.479 105.723 167.941 105.075 168.366C104.272 168.892 103.358 169.231 102.434 169.488C101.055 169.727 99.6561 169.843 98.2626 169.978C96.0434 170.165 93.8243 170.028 91.6138 169.793C89.0115 169.564 86.4422 169.06 83.9322 168.346C81.3943 167.669 78.8703 166.94 76.423 165.977C73.4269 164.836 70.4327 163.686 67.522 162.339C64.9144 161.151 62.3365 159.88 59.7533 158.634C56.9105 157.313 54.127 155.87 51.4672 154.215C49.5529 153.058 47.6385 151.891 45.7068 150.748C45.7869 150.339 45.834 149.922 45.9315 149.516C46.1806 148.223 46.4245 146.939 46.8355 145.668C48.0217 141.633 49.9221 137.717 52.8624 134.655C52.9303 134.628 52.9861 134.593 53.0349 134.557C56.5987 135.514 60.1591 136.521 63.817 137.054C67.9017 137.676 72.0352 137.797 76.146 138.138C77.8792 138.322 79.6193 138.438 81.3559 138.587C82.7233 138.755 84.0924 138.921 85.4703 138.976C86.7192 139.103 87.9977 139.34 89.2762 139.501C89.3825 139.676 89.5758 139.726 89.7918 139.726C90.0148 139.726 90.2587 139.673 90.4485 139.65C90.4868 139.643 90.5269 139.638 90.5652 139.631C90.5774 139.631 90.5879 139.633 90.6001 139.634C90.6157 139.634 90.6297 139.634 90.6436 139.634C90.7359 139.634 90.8143 139.614 90.8822 139.583C91.1557 139.546 91.4309 139.515 91.7044 139.477C92.2496 139.368 92.8192 139.354 93.3453 139.163C93.9793 138.907 94.5698 138.557 95.162 138.223C97.3132 136.718 99.8302 135.875 102.077 134.531C103.439 133.769 105.902 131.876 104.032 130.511C104.286 130.487 104.54 130.461 104.795 130.426C105.939 130.284 107.202 130.307 108.184 129.626C109.56 128.504 109.304 126.961 107.911 126.358C108.158 126.24 108.385 126.086 108.578 125.879C109.205 125.309 109.71 124.45 109.013 123.722C107.852 122.437 105.967 122.269 104.329 122.2C103.999 122.179 103.669 122.183 103.342 122.202C103.971 121.689 104.453 120.906 104.389 120.155C104.061 118.872 102.41 118.975 101.349 118.818C99.3808 118.743 94.9216 119.164 94.7893 119.164C94.7718 119.164 93.4236 119.362 92.7722 119.485C91.6748 119.701 90.56 119.893 89.5149 120.299C89.0481 120.515 88.6196 120.806 88.2032 121.107C88.0291 118.239 88.0726 115.358 88.05 112.486C88.3025 110.41 89.3529 108.491 90.3771 106.695C90.5966 106.383 90.8178 106.066 91.0756 105.784C91.5511 105.292 90.8195 104.579 90.3353 105.05C89.5044 106.016 88.6614 107.452 88.0273 108.922C88.0883 107.66 88.1806 106.401 88.2468 105.138C88.2816 104.698 88.5011 103.993 87.874 103.888C87.5919 103.85 87.3271 104.052 87.287 104.331C87.1529 105.663 87.071 108.863 87.0223 112.263C86.9787 112.897 86.9526 120.422 86.9491 122.067C84.8589 123.755 82.9916 125.716 81.2898 127.787C80.8735 128.303 80.4032 128.849 79.9207 129.318C79.4068 130.459 78.9713 131.635 78.5515 132.813C78.1648 133.852 77.8879 134.926 77.6179 135.999C77.5796 136.287 77.3462 136.831 77.388 137.208C75.2437 137.026 73.0995 136.851 70.9518 136.723C67.2259 136.5 63.5035 136.084 59.8647 135.243C57.5149 134.751 55.2105 134.074 52.8903 133.459C49.4571 132.57 45.9907 131.824 42.5192 131.105C41.7214 130.922 40.9236 130.738 40.1224 130.567C40.0962 130.556 40.0684 130.546 40.037 130.539C39.6764 130.464 39.3298 130.397 38.9936 130.333C38.9867 130.333 38.9797 130.329 38.9727 130.328C38.9692 130.328 38.9675 130.328 38.964 130.328C37.2657 130.007 35.8164 129.801 34.1948 129.612C31.6969 129.38 29.1712 129.474 26.6768 129.723C26.5375 129.737 26.3999 129.756 26.2623 129.777C26.2727 129.694 26.2745 129.607 26.2797 129.526C26.3076 129.117 26.325 128.672 26.3424 128.239C26.4016 127.498 26.3842 125.903 26.379 125.851C26.4783 124.694 26.8841 119.86 26.865 118.596C26.9538 117.259 27.0304 115.919 27.0844 114.573C27.0949 113.056 27.2447 111.594 27.3266 110.065C27.3562 109.452 27.3579 108.86 27.2691 108.29C27.2848 108.157 27.3039 108.025 27.3335 107.893C27.4659 107.377 27.6366 106.872 27.7167 106.343C27.823 105.718 27.9136 105.09 28.0582 104.471C28.194 103.886 28.4361 103.332 28.5598 102.743C28.8246 101.584 29.213 100.566 29.6642 99.4421C29.8244 99.004 30.0003 98.5727 30.2128 98.1571C30.333 97.906 30.1919 97.5787 29.9359 97.4765C29.2513 97.234 29.098 98.1484 28.8699 98.5935C28.5441 99.4715 28.1644 100.332 27.8962 101.231C27.4607 102.828 26.9103 104.4 26.75 106.058C26.7274 106.253 26.6978 106.453 26.6681 106.652C26.6525 106.626 26.6368 106.6 26.6194 106.574C25.8704 105.2 25.1945 103.73 24.3689 102.371C24.2156 102.135 23.8533 102.216 23.7784 102.471C23.7174 102.951 24.0153 103.405 24.1546 103.853C24.5518 104.759 24.982 105.651 25.4279 106.534C25.7328 107.138 26.1386 107.722 26.2483 108.394C26.1647 109.485 25.8373 116.023 25.8495 118.205C25.8181 118.686 25.7867 119.169 25.7519 119.651C25.7171 119.975 25.6909 120.299 25.6666 120.622C25.6491 120.745 25.6439 120.877 25.6387 121.007C25.6282 121.149 25.6195 121.291 25.6091 121.435C25.6056 121.45 25.6039 121.468 25.6004 121.483C25.4802 122.576 24.9019 128.549 24.8531 130.451C24.6754 134.564 24.7904 138.68 25.2485 142.773C25.3321 143.777 25.3391 144.364 26.527 144.454C27.7324 144.518 28.9395 144.506 30.1432 144.619C31.9164 144.816 33.6548 145.182 35.3984 145.556C38.0896 147.126 40.7285 148.766 43.3448 150.465C46.7763 152.507 50.1416 154.658 53.5975 156.66C56.4106 158.274 59.3857 159.577 62.2929 161.01C64.3222 162.006 66.3724 162.966 68.4452 163.878C68.3581 163.901 68.2693 163.922 68.1822 163.942C66.9385 164.275 65.6669 164.478 64.4041 164.722C61.685 165.324 58.9398 165.823 56.1842 166.248C52.5367 166.717 48.8909 167.2 45.24 167.64C39.3542 168.229 33.4492 168.591 27.5478 168.998C24.4176 169.202 21.277 169.102 18.1434 168.998C14.4768 168.887 10.6917 168.753 7.24975 167.366C5.14731 166.514 3.46466 164.696 2.98216 162.465C2.54321 160.683 2.32722 158.856 2.11471 157.038C1.59912 152.249 1.19674 147.442 1.05043 142.627C0.965075 133.618 1.60608 124.619 2.24361 115.636C2.33245 114.471 2.4178 113.304 2.50489 112.133C2.94036 109.992 3.56046 107.888 4.13354 105.781C4.84422 103.001 5.8458 100.31 7.02331 97.6947C7.75664 95.9802 8.48996 94.2657 9.37309 92.6204C11.2334 89.0546 12.9248 85.3363 15.5236 82.226C16.311 81.3497 17.1662 80.5219 18.0981 79.7876C18.3263 79.6092 18.5632 79.4429 18.8018 79.2819C20.3347 78.8004 21.885 78.364 23.423 77.9154C26.3232 77.1084 29.2235 76.2737 32.162 75.6173C33.2803 75.4147 34.4003 75.2121 35.5134 74.9852C36.2554 74.8518 36.9922 74.6838 37.7238 74.4933C38.856 74.2162 39.9795 73.8993 41.0839 73.5149C41.636 73.3451 42.1882 73.1737 42.7404 73.0092C42.9303 72.9451 43.1219 72.8862 43.3135 72.8273C43.4232 72.7996 43.5329 72.7754 43.6444 72.7511C43.6514 72.8689 43.6584 72.9849 43.6705 73.1009C43.7559 74.0015 43.9301 74.9021 44.1652 75.7749C44.3987 76.6391 44.6965 77.4842 45.0553 78.3051C45.8061 80.0248 46.839 81.6094 48.0757 83.0226C48.8021 83.8487 49.6086 84.6124 50.4795 85.2948C51.941 86.443 53.5801 87.3816 55.3219 88.038C57.029 88.6822 58.8144 89.0771 60.6346 89.2104C61.0701 89.2416 61.5073 89.2572 61.9445 89.2572C63.3554 89.2572 64.7681 89.0944 66.139 88.774C67.9557 88.3497 69.7028 87.6553 71.3106 86.7131C72.8992 85.7814 74.3588 84.6107 75.5938 83.2477C76.7818 81.9368 77.7869 80.4734 78.5585 78.8835C79.2448 77.4704 79.7465 75.9689 80.0513 74.4275C80.4188 74.5245 80.7898 74.6198 81.1661 74.7098C84.2701 75.9723 87.3828 77.2331 90.4294 78.6272C92.6729 79.6421 94.8833 80.7453 97.2296 81.5125C99.1091 82.245 101.053 82.7905 102.967 83.4175C103.053 83.4867 103.138 83.5577 103.225 83.6253C103.993 84.318 104.812 84.9398 105.519 85.7018C106.885 87.1496 107.909 88.8329 108.999 90.492C109.992 91.9744 110.888 93.5175 111.562 95.1697C112.309 96.9361 113.145 98.713 113.382 100.632C113.426 100.88 113.464 101.129 113.499 101.377C113.5 101.423 113.502 101.468 113.504 101.515C113.649 108.077 113.727 114.637 113.73 121.201C113.699 126.687 113.445 132.172 113.109 137.65V137.648ZM45.1564 150.424C44.7749 150.2 44.3952 149.973 44.012 149.752C42.392 148.747 40.7738 147.731 39.1138 146.792C38.8055 146.621 38.4972 146.447 38.1871 146.276C38.1506 146.202 38.1175 146.131 38.0948 146.065C37.938 145.341 37.9119 144.6 37.9398 143.862C38.1837 144.484 38.6435 145.034 39.3525 144.969C40.0405 144.821 40.5247 144.258 41.0717 143.86C41.5751 143.515 42.3363 143.713 42.5052 144.326C42.8101 145.538 42.5836 147.374 44.2454 147.596C44.4683 147.616 44.693 147.615 44.916 147.61C45.1146 147.594 45.3009 147.585 45.442 147.739C45.3689 148.197 45.3062 148.657 45.2504 149.118C45.1947 149.549 45.1337 149.989 45.1529 150.424H45.1564ZM37.0061 144.832C36.9591 144.823 36.9138 144.813 36.8703 144.802C36.3948 144.704 35.9175 144.607 35.4402 144.51C34.8218 143.961 34.4334 143.211 34.207 142.424C34.1042 142.09 34.0572 141.749 34.0188 141.406C35.0762 140.758 35.8931 139.747 36.1648 138.517C36.5271 137.298 36.2989 135.843 35.6492 134.645C35.7381 134.486 35.806 134.309 35.8826 134.176C36.1753 133.514 36.5498 132.886 37.0636 132.369C37.3981 132.014 37.7552 131.68 38.1767 131.429C38.384 131.278 38.6801 131.226 38.849 131.032C40.0684 131.353 41.2859 131.689 42.5087 131.997C41.1222 133.062 40.1119 134.515 39.2479 136.022C38.2829 137.645 37.6036 139.423 37.3092 141.288C37.0898 142.449 36.9069 143.656 37.0061 144.83V144.832ZM33.5311 142.856C33.6112 143.405 33.7245 143.827 33.923 144.201C32.9284 144 31.9112 143.798 30.9096 143.659C30.8556 143.581 30.7737 143.517 30.6588 143.483C30.3278 143.405 30.1623 143.096 29.976 142.831C29.9028 142.747 29.8488 142.528 29.7913 142.296C29.9185 142.333 30.0474 142.366 30.178 142.386C30.3696 142.421 30.5612 142.437 30.7511 142.437C31.5976 142.437 32.4181 142.128 33.2002 141.815C33.2803 141.782 33.3604 141.747 33.4405 141.713C33.4231 142.095 33.4736 142.485 33.5311 142.856ZM32.2595 141.055C31.7805 141.259 31.2824 141.394 30.7581 141.394C29.4969 141.413 28.8681 140.568 28.3665 139.541C27.8195 138.242 27.9728 136.761 28.6486 135.537C29.2113 134.569 30.0404 133.625 31.2214 133.455C31.5158 133.355 31.8014 133.308 32.0766 133.308C33.0991 133.308 33.9805 133.951 34.5693 134.86C34.8689 135.43 35.1545 136.024 35.2591 136.663C35.4123 137.802 35.0692 139.034 34.2853 139.887C33.7297 140.447 33.0033 140.809 32.2595 141.056V141.055ZM31.3381 132.369C28.4361 132.716 26.5027 136.15 27.0897 138.871C27.2133 139.676 27.6053 140.388 28.0512 141.06C28.3229 141.468 28.6974 141.791 29.1224 142.023C29.1085 142.132 29.1068 142.244 29.098 142.347C29.0493 142.743 29.1381 143.164 29.3315 143.528C28.9256 143.502 28.5197 143.481 28.1156 143.465C27.5338 143.446 26.9451 143.484 26.3703 143.382C25.8738 139.241 25.7031 135.073 25.8582 130.906C27.2987 130.645 28.7723 130.598 30.232 130.532C31.197 130.494 32.1637 130.496 33.127 130.534C32.425 131.029 31.8206 131.675 31.3381 132.369ZM34.3097 130.603C34.9107 130.646 35.5099 130.703 36.1091 130.778C36.447 130.813 36.7867 130.837 37.1263 130.858C36.7222 131.185 36.4313 131.594 36.0481 132.089C35.6318 132.641 35.3827 133.294 35.212 133.963C34.5623 133.1 33.6635 132.463 32.601 132.304C33.1078 131.678 33.667 131.09 34.3097 130.601V130.603ZM44.5206 133.409C44.9926 133.4 45.4838 133.317 45.9089 133.114C46.0203 133.052 46.0813 132.95 46.0987 132.842C47.2431 133.111 48.3858 133.381 49.5267 133.66C49.5546 134.474 49.8159 135.338 50.5858 135.745C50.4046 135.991 50.2235 136.235 50.0371 136.472C49.6225 137.051 49.2393 137.648 48.8805 138.259C48.8578 138.252 48.8369 138.246 48.8143 138.24C48.3335 138.008 48.0949 137.487 47.9747 136.995C47.7343 136.062 46.9348 135.244 45.9332 135.203C45.132 135.156 44.2976 135.196 43.5782 135.584C43.0783 135.807 42.6202 136.276 42.0454 136.254C41.5751 136.036 41.1309 135.523 41.1187 134.99C41.5664 134.361 42.0645 133.772 42.6289 133.242C42.8432 133.085 43.047 132.913 43.2525 132.742C43.4145 133.22 44.0294 133.379 44.5171 133.407L44.5206 133.409ZM43.6496 132.427C43.7019 132.387 43.7559 132.347 43.8099 132.309C44.0973 132.375 44.3865 132.442 44.6739 132.51C44.5223 132.539 44.3673 132.555 44.2123 132.534C44.0242 132.541 43.7803 132.576 43.6496 132.427ZM50.2008 133.828C50.6816 133.947 51.1606 134.065 51.6396 134.186C51.6988 134.202 51.7598 134.217 51.819 134.233C51.5891 134.467 51.3731 134.718 51.1676 134.978C51.1031 134.91 51.0195 134.849 50.908 134.808C50.537 134.584 50.3837 134.195 50.1991 133.828H50.2008ZM48.3684 139.184C47.8162 140.228 47.3372 141.313 46.9209 142.419C46.6492 142.255 46.3043 142.227 45.9925 142.196C45.0954 141.877 45.3323 140.67 44.862 140.007C43.9318 138.581 41.906 139.151 40.6989 139.893C40.0091 140.322 39.5057 139.392 39.2044 138.897C39.1556 138.824 39.1277 138.734 39.0999 138.646C39.1434 138.538 39.187 138.433 39.2323 138.327C39.6642 137.409 40.138 136.493 40.6885 135.632C40.8557 136.448 41.5664 137.258 42.4129 137.153C43.1288 137.096 43.6862 136.583 44.3429 136.349C44.7941 136.2 45.2766 136.223 45.7451 136.223C45.9507 136.24 46.1667 136.261 46.3408 136.379C46.9836 136.747 46.9522 137.551 47.2884 138.128C47.5375 138.564 47.905 138.975 48.3666 139.186L48.3684 139.184ZM43.7994 145.831C43.6462 145.083 43.7141 144.26 43.303 143.587C42.9599 143.017 42.3311 142.643 41.6552 142.67C40.5927 142.606 40.0178 143.616 39.1748 144.056C38.6609 143.91 38.3265 143.221 38.0948 142.702C38.2533 141.64 38.4571 140.58 38.7776 139.558C39.0023 140.069 39.3141 140.533 39.8175 140.802C40.941 141.527 42.1673 139.619 43.7176 140.299C44.1147 140.519 44.1304 141.039 44.2436 141.429C44.322 141.751 44.4335 142.075 44.6181 142.352C44.8446 142.717 45.179 143.02 45.5901 143.162C45.8932 143.277 46.2311 143.197 46.5115 143.37C46.5324 143.379 46.5534 143.386 46.5743 143.391C46.306 144.179 46.0691 144.977 45.8583 145.779C45.78 146.065 45.712 146.352 45.6493 146.641C44.9055 146.385 43.9945 146.993 43.8012 145.829L43.7994 145.831ZM83.7894 130.65C83.9566 130.809 84.2318 130.823 84.4112 130.674C85.0992 130.115 85.7855 129.557 86.43 128.949C87.496 128.045 88.6143 127.202 89.7065 126.329C91.7062 124.699 94.0925 123.643 96.7018 123.431C97.9037 123.35 99.1021 123.22 100.299 123.085C100.703 123.035 101.111 122.992 101.513 122.924C103.492 122.919 105.474 122.978 107.324 123.728C107.655 123.871 107.949 124.083 108.196 124.346C108.249 124.415 108.355 124.497 108.303 124.59C108.073 124.961 107.751 125.314 107.345 125.491C105.92 125.88 104.431 125.904 102.969 126.055C100.517 126.298 98.0622 126.679 95.6724 127.281C94.4252 127.668 93.1885 128.116 92.0232 128.705C90.9293 129.308 89.9033 130.028 88.9348 130.814C88.4384 131.211 87.9298 131.59 87.4072 131.956C87.0832 132.136 86.754 132.446 86.9805 132.837C87.0763 133.003 87.2435 133.079 87.4177 133.079C87.5605 133.079 87.7086 133.028 87.8218 132.932C88.3321 132.586 88.8338 132.224 89.3163 131.841C90.3893 130.968 91.5145 130.146 92.7443 129.503C94.4043 128.743 96.1375 128.139 97.9421 127.839C100.06 127.441 102.194 127.131 104.345 126.976C104.579 126.959 104.814 126.94 105.047 126.919C105.082 126.923 105.117 126.919 105.15 126.909C105.617 126.866 106.082 126.81 106.542 126.729C107.176 126.744 107.799 127.115 108.101 127.669C108.264 128.263 107.691 128.852 107.157 129.029C106.409 129.276 105.615 129.304 104.838 129.392C103.734 129.538 102.621 129.574 101.515 129.735C99.9522 130.07 98.435 130.584 96.9178 131.076C95.3345 131.529 93.988 132.48 92.4952 133.138C91.3647 133.616 90.3249 134.257 89.3407 134.984C88.9923 135.314 87.9315 135.686 88.2677 136.28C88.3792 136.438 88.5081 136.498 88.644 136.498C88.9679 136.498 89.3372 136.16 89.6176 136.006C90.0932 135.696 90.5635 135.381 91.0373 135.068C92.1434 134.339 93.4202 133.923 94.5646 133.261C95.9929 132.356 97.639 131.909 99.2293 131.37C100.112 131.11 100.996 130.814 101.91 130.686C102.363 130.645 102.818 130.615 103.272 130.582C103.5 130.774 103.661 131.055 103.826 131.308C104.105 132.001 102.764 132.858 102.283 133.241C100.335 134.461 98.1929 135.319 96.1584 136.373C95.3031 136.869 94.5106 137.466 93.6187 137.901C92.7182 138.434 91.5476 138.424 90.5217 138.594C88.9209 138.464 87.3393 138.157 85.7472 137.965C84.3067 137.894 82.8766 137.745 81.4465 137.56C80.3404 137.471 79.2361 137.376 78.1317 137.283C78.1666 137.189 78.191 137.089 78.2136 137.002C78.3303 136.588 78.4749 136.186 78.6021 135.766C78.9783 134.486 79.4294 133.23 79.9119 131.987C80.1802 131.297 80.4537 130.613 80.7637 129.943C81.7078 129.043 82.4516 127.952 83.3382 126.996C84.4913 125.714 85.7159 124.493 87.0188 123.364C87.9803 122.59 88.9314 121.745 90.0549 121.213C92.544 120.46 95.1463 120.089 97.7383 119.919C99.3861 119.841 101.051 119.731 102.682 120.049C102.901 120.108 103.342 120.125 103.358 120.408C103.154 121 102.722 121.539 102.107 121.733C99.3042 122.429 96.3117 122.093 93.5595 123.028C91.7375 123.565 90.1559 124.645 88.684 125.814C87.571 126.722 86.3969 127.557 85.3483 128.539C84.9634 128.989 83.1274 130.026 83.7894 130.657V130.65Z" fill="black"/>
<path d="M137.542 172.895C122.309 170.82 122.087 174.102 124.836 159.92C124.676 153.158 120.505 148.55 117.812 142.665C115.997 137.442 115.18 131.515 113.678 126.026C108.459 107.623 100.011 93.1828 125.032 87.1382C149.087 79.5256 134.383 83.6757 153.619 87.3327C158.342 88.5031 163.857 85.7612 166.384 81.8125C175.574 82.8196 185.175 83.5108 194.437 85.044C203.625 90.1197 208.055 99.5018 212.54 108.752C215.458 114.772 218.866 120.344 222.032 125.984C225.967 132.993 225.687 140.484 219.989 146.009C215.633 150.003 210.749 157.027 204.06 154.452C202.263 153.983 201.606 160.899 200.286 163.735C198.08 168.469 201.425 170.978 193.117 171.494C172.986 172.744 155.842 175.387 137.544 172.895H137.542Z" fill="#FDC82E"/>
<path d="M176.853 51.8627C176.011 54.9102 176.692 58.7773 173.491 60.637C172.244 61.6772 172.583 63.2817 172.013 64.7802C170.473 68.5379 167.247 71.6427 164.133 74.1276C170.403 86.3383 156.792 89.4032 147.548 85.5517C136.936 81.1307 143.072 83.244 144.911 76.1245C147.248 71.0193 139.112 74.2457 138.363 59.781C133.66 62.4916 132.793 44.7103 138.517 52.4427C140.101 52.0537 139.551 49.7877 139.762 48.5513C139.69 44.1129 143.33 39.1848 147.559 36.1773C149.323 34.9965 151.31 35.8196 153.198 36.2363C155.72 36.0696 157.921 34.6006 160.513 34.9861C163.941 34.7239 164.023 38.3618 167.155 38.9921C170.274 39.2421 173.121 41.4752 173.563 44.7241C173.734 45.443 174.427 49.8033 172.93 49.1018C173.119 54.5872 175.637 46.9989 176.853 51.8592V51.8627Z" fill="#9E616A"/>
<path d="M155.762 130.987C156.085 133.894 156.075 138.032 156.075 138.032L148.189 133.538C148.189 133.538 154.126 130.706 155.762 130.989V130.987Z" fill="#9E616A"/>
<path d="M208.442 121.471C214.359 111.613 202.114 123.044 207.156 116.289C209.034 110.474 201.728 117.845 200.909 119.675C204.426 111.816 196.134 123.256 195.262 125.319C193.315 129.393 205.495 124.982 208.354 126.329C211.828 120.092 206.887 123.542 208.443 121.471H208.442Z" fill="#9E616A"/>
<path d="M194.637 45.428C195.294 51.8633 186.294 51.6931 184.492 57.2185C184.946 61.3478 179.792 65.0569 176.788 66.7169C176.348 66.96 174.947 66.1109 173.787 66.9045C168.323 70.6396 172.313 65.6299 172.497 64.4682C173.351 62.9905 172.395 60.7713 174.276 60.2261C177.391 58.2448 177.088 55.0202 176.819 52.0855C176.369 47.1905 172.83 53.9401 173.684 48.3417C174.353 43.9485 172.244 39.8227 167.241 38.5985C166.826 38.496 166.426 38.3224 166.087 38.0619C165.596 37.6834 165.195 37.2597 164.816 36.8377C163.355 35.2089 161.148 34.4466 158.993 34.8564C154.607 35.6917 154.757 36.0389 148.115 35.5684C137.034 42.7556 141.283 51.6862 139.101 52.2071C137.552 52.5787 136.96 49.5052 135.825 50.4029C131.869 53.5355 135.193 61.1603 138.317 60.1774C138.585 62.671 138.941 66.2411 140.174 68.4517C141.381 70.3357 129.553 72.4177 127.508 67.5956C122.716 64.6853 126.589 60.9172 126.591 58.0537C123.777 51.5264 112.575 52.1672 112.542 43.4258C110.074 35.7194 111.683 30.4198 118.189 25.8199C119.972 17.4363 126.181 8.049 134.66 5.22031C146.449 1.28723 147.336 6.12326 153.418 3.70785C154.923 2.29785 162.72 1.38274 164.875 1.55117C176.802 2.48018 175.902 9.13602 179.659 9.66564C186.719 10.6589 197.902 13.6682 195.514 25.6358C193.906 33.6999 189.742 35.709 194.637 45.4262V45.428Z" fill="#6F479F"/>
<path d="M178.09 65.5048C177.952 65.4492 177.849 65.3294 177.814 65.187C177.643 65.0672 177.674 64.8206 177.833 64.706C177.973 64.5688 178.102 64.3969 178.279 64.3083C178.654 63.9263 179.042 63.5894 179.447 63.2474C179.522 63.1866 179.608 63.1536 179.697 63.1449C179.898 63.0008 180.134 62.782 180.39 62.9348C180.637 63.0702 180.626 63.3863 180.492 63.5981C180.146 64.1104 179.657 64.5132 179.194 64.9178C178.864 65.1436 178.535 65.6489 178.087 65.5048H178.09Z" fill="#6F479F"/>
<path d="M137.713 121.337C137.563 120.349 137.428 119.354 137.285 118.359C137.308 118.401 137.332 118.444 137.355 118.486C137.5 118.747 137.65 119.004 137.79 119.266C137.919 119.507 138.05 119.749 138.176 119.992C138.242 120.118 138.307 120.243 138.373 120.37C138.415 120.452 138.457 120.533 138.499 120.615C138.527 120.667 138.544 120.724 138.574 120.775C138.618 120.853 138.663 120.922 138.73 120.981C138.768 121.339 138.737 121.706 138.305 121.777C138.265 121.782 138.225 121.784 138.185 121.78C137.952 121.758 137.741 121.577 137.711 121.336L137.713 121.337Z" fill="black"/>
<path d="M194.95 126.326C194.76 126.239 194.69 125.975 194.821 125.81C195.081 125.34 195.378 124.89 195.663 124.435C196.658 122.671 197.401 120.764 198.594 119.111C198.658 119.015 198.723 118.92 198.789 118.824C198.828 118.786 198.866 118.748 198.903 118.708C199.007 118.594 199.109 118.481 199.207 118.363C199.297 118.255 199.383 118.142 199.47 118.031C199.622 117.838 199.767 117.64 199.924 117.451C200.083 117.258 200.246 117.067 200.41 116.878C200.67 116.612 200.948 116.366 201.28 116.192C201.86 115.846 202.604 115.97 202.742 116.709C202.866 117.307 202.602 117.885 202.345 118.413C201.84 119.424 201.283 120.441 200.513 121.275C200.09 121.66 199.439 121.099 199.759 120.627C200.523 119.542 201.336 118.423 201.715 117.14C200.986 117.642 200.42 118.396 199.87 119.064C198.922 120.307 198.12 121.651 197.387 123.03C196.854 124.129 196.155 125.124 195.438 126.111C195.397 126.274 195.223 126.369 195.06 126.354C195.022 126.35 194.985 126.34 194.95 126.324V126.326Z" fill="black"/>
<path d="M201.127 125.033C200.511 124.561 201.358 123.757 201.677 123.342C201.972 122.947 202.257 122.545 202.554 122.152C203.666 120.749 204.667 119.266 205.703 117.806C206.443 116.785 207.35 115.686 207.395 114.376C206.241 114.46 204.271 116.943 203.46 117.828C202.484 118.912 201.536 120.016 200.575 121.112C199.883 121.85 199.225 122.624 198.684 123.477C198.516 123.85 197.966 123.56 198.189 123.215C199.719 120.89 201.401 118.69 203.207 116.575C204.176 115.512 205.589 113.739 206.999 113.376C209.182 112.939 208.401 115.611 207.731 116.681C207.21 117.63 206.482 118.448 205.893 119.356C205.093 120.475 204.321 121.616 203.457 122.687C203.031 123.244 202.647 123.833 202.184 124.359C201.93 124.71 201.66 125.349 201.129 125.031L201.127 125.033Z" fill="black"/>
<path d="M206.108 124.433C205.522 124.002 206.198 123.422 206.466 123.017C207.23 121.977 208.058 120.988 208.809 119.939C209.174 119.397 210.843 117.36 209.245 117.489C208.131 117.758 207.301 118.661 206.465 119.388C205.733 120.078 205.071 120.833 204.413 121.588C204.048 121.981 203.469 121.416 203.866 121.052C204.325 120.711 204.669 120.248 205.055 119.831C206.098 118.708 207.137 117.508 208.496 116.758C209.422 116.224 210.924 116.572 210.934 117.806C210.927 119.256 209.404 120.758 208.613 121.936C208.155 122.533 207.677 123.115 207.238 123.728C206.966 124.084 206.652 124.763 206.108 124.431V124.433Z" fill="black"/>
<path d="M208.613 125.94C207.953 125.57 208.62 124.883 208.809 124.417C209.067 123.813 209.453 123.174 209.418 122.5C208.966 122.245 208.105 122.745 207.647 122.903C207.504 123.16 207.062 122.893 207.291 122.662C207.852 122.278 208.444 121.9 209.106 121.716C209.658 121.584 210.279 121.929 210.327 122.519C210.402 123.396 210 124.237 209.647 125.018C209.42 125.418 209.225 126.204 208.611 125.94H208.613Z" fill="black"/>
<path d="M197.807 127.436C197.623 127.139 198.02 126.984 198.287 127.005C198.769 126.913 199.197 126.602 199.663 126.434C200.564 126.099 201.48 125.788 202.414 125.625C204.291 125.357 206.188 125.541 208.071 125.613C209.224 125.644 210.375 125.731 211.526 125.583C212.311 125.54 212.401 126.958 211.606 127.049C209.753 127.234 207.895 127.017 206.043 126.884C204.569 126.807 203.006 126.637 201.553 126.91C200.715 127.047 200.907 127.09 199.923 127.224C199.625 127.316 198.482 127.389 198.18 127.438C198.119 127.431 197.854 127.5 197.807 127.438V127.436Z" fill="black"/>
<path d="M204.896 126.092C203.947 125.319 205.112 124.611 205.629 124.038C206.38 123.357 207.173 121.817 208.277 121.86C208.441 121.909 208.476 122.129 208.361 122.242C208.366 122.272 208.364 122.303 208.355 122.333C208.32 122.435 208.205 122.48 208.114 122.435C207.283 123.321 206.728 124.633 206.09 125.625C205.916 126.108 205.346 126.403 204.896 126.092Z" fill="black"/>
<path d="M199.461 118.867C199.248 118.822 199.134 118.691 199.082 118.511C199.124 118.464 199.166 118.415 199.206 118.367C199.297 118.259 199.382 118.146 199.47 118.035C199.622 117.842 199.767 117.644 199.924 117.455C200.046 117.307 200.168 117.161 200.292 117.016C200.247 117.368 200.193 117.719 200.128 118.07C200.128 118.446 199.959 118.917 199.52 118.875C199.501 118.874 199.482 118.87 199.461 118.867Z" fill="black"/>
<path d="M155.299 47.0234C155.284 47.0306 155.27 47.0359 155.256 47.0395C155.27 47.0341 155.284 47.0288 155.299 47.0234Z" fill="black"/>
<path d="M145.312 45.7598C145.315 45.7618 145.319 45.7639 145.321 45.7659C145.319 45.7639 145.315 45.7598 145.312 45.7578V45.7598Z" fill="black"/>
<path d="M145.305 45.75C145.305 45.75 145.312 45.7569 145.315 45.7587C145.312 45.7552 145.308 45.7517 145.305 45.75Z" fill="black"/>
<path d="M162.422 47.6875C162.422 47.6875 162.433 47.6913 162.439 47.6913C162.433 47.6913 162.428 47.6875 162.42 47.6875H162.422Z" fill="black"/>
<path d="M162.423 47.6853C162.423 47.6853 162.408 47.6816 162.4 47.6797C162.408 47.6797 162.415 47.6834 162.423 47.6853Z" fill="black"/>
<path d="M171.463 46.9375C171.456 46.9501 171.447 46.9627 171.438 46.9735C171.447 46.9609 171.454 46.9501 171.463 46.9375Z" fill="black"/>
<path d="M171.578 46.8556L171.586 46.8516C171.586 46.8516 171.582 46.8536 171.58 46.8556H171.578Z" fill="black"/>
<path d="M199.351 164.5C199.738 162.935 200.299 161.426 200.956 159.955C201.546 158.247 202.023 156.486 202.377 154.711C201.56 153.781 203.319 153.781 203.319 155.012C202.963 156.802 202.508 158.587 201.913 160.315C201.106 162.086 200.537 163.941 200.07 165.826C199.707 167.137 199.49 168.474 199.319 169.82C199.284 169.831 199.249 169.841 199.216 169.85C199.026 169.909 198.832 169.963 198.64 170.013C198.542 170.037 198.443 170.062 198.346 170.093C198.305 170.107 198.263 170.122 198.221 170.138C198.443 168.23 198.813 166.346 199.351 164.498V164.5Z" fill="black"/>
<path d="M162.482 47.6875C162.482 47.6875 162.496 47.6875 162.501 47.6894C162.496 47.6894 162.488 47.6875 162.482 47.6875Z" fill="black"/>
<path d="M162.422 47.6875C162.422 47.6875 162.433 47.6913 162.439 47.6932C162.433 47.6913 162.428 47.6894 162.42 47.6875H162.422Z" fill="black"/>
<path d="M162.423 47.6872C162.423 47.6872 162.408 47.6834 162.4 47.6797C162.408 47.6816 162.415 47.6834 162.423 47.6872Z" fill="black"/>
<path d="M162.422 47.6875C162.422 47.6875 162.433 47.6913 162.439 47.6932C162.433 47.6913 162.428 47.6894 162.42 47.6875H162.422Z" fill="black"/>
<path d="M162.423 47.6872C162.423 47.6872 162.408 47.6834 162.4 47.6797C162.408 47.6816 162.415 47.6834 162.423 47.6872Z" fill="black"/>
<path d="M171.463 46.9453C171.456 46.9579 171.447 46.9687 171.438 46.9813C171.447 46.9687 171.454 46.9579 171.463 46.9453Z" fill="black"/>
<path d="M171.578 46.8556C171.578 46.8556 171.582 46.8536 171.586 46.8516C171.584 46.8516 171.582 46.8516 171.58 46.8556H171.578Z" fill="black"/>
<path d="M171.121 46.7188C171.121 46.7188 171.139 46.7241 171.146 46.7277C171.137 46.7241 171.13 46.7205 171.121 46.7188Z" fill="black"/>
<path d="M171.463 46.9453C171.456 46.9579 171.447 46.9687 171.438 46.9813L171.463 46.9453Z" fill="black"/>
<path d="M155.299 47.0234C155.284 47.0306 155.27 47.0359 155.256 47.0395C155.27 47.0341 155.284 47.0288 155.299 47.0234Z" fill="black"/>
<path d="M145.312 45.7598C145.315 45.7618 145.319 45.7639 145.321 45.7659C145.319 45.7639 145.315 45.7598 145.312 45.7578V45.7598Z" fill="black"/>
<path d="M145.305 45.75C145.305 45.75 145.312 45.7569 145.315 45.7587C145.312 45.7552 145.308 45.7517 145.305 45.75Z" fill="black"/>
<path d="M195.834 124.441C195.316 120.402 194.041 115.608 192.549 111.84C191.938 110.446 191.192 109.112 190.514 107.749C189.929 106.627 189.124 105.596 188.75 104.377C188.426 103.281 190.045 103.594 189.545 104.344C190.004 105.398 190.714 106.318 191.272 107.32C192.336 109.287 193.464 111.232 194.189 113.354C194.987 115.525 195.627 117.747 196.144 120C196.306 120.738 196.447 121.481 196.554 122.227C196.608 122.606 196.676 122.979 196.716 123.36C196.732 123.502 196.711 123.636 196.626 123.754C196.381 124.12 195.887 124.884 195.836 124.441H195.834Z" fill="black"/>
<path d="M155.131 130.716C154.852 130.473 154.791 130.084 154.695 129.746C154.639 129.52 154.805 129.279 155.018 129.211C155.65 129.051 155.61 129.747 155.833 130.117C156.132 130.55 155.514 131.078 155.133 130.716H155.131Z" fill="black"/>
<path d="M155.463 131.242C155.27 130.885 154.846 129.949 155.113 129.595C155.235 129.456 155.449 129.652 155.321 129.784C155.421 130.162 155.607 130.532 155.878 130.819C155.953 130.883 156.014 130.963 156.018 131.064C156.044 131.359 155.616 131.499 155.464 131.242H155.463Z" fill="black"/>
<path d="M150.67 87.6249C150.672 87.5933 150.702 87.5686 150.734 87.5704C150.766 87.5739 150.79 87.6021 150.788 87.6337C150.787 87.6654 150.757 87.69 150.725 87.6882C150.693 87.6847 150.668 87.6566 150.67 87.6249Z" fill="black"/>
<path d="M164.557 84.1247C164.558 84.0933 164.588 84.0671 164.62 84.0706C164.652 84.0741 164.676 84.1021 164.674 84.1335C164.673 84.1649 164.643 84.1911 164.611 84.1876C164.58 84.1841 164.555 84.1562 164.557 84.1247Z" fill="black"/>
<path d="M137.246 56.4552C137.181 56.4777 137.115 56.4968 137.045 56.4933C136.832 56.5072 136.75 56.2902 136.68 56.1287C136.313 55.1719 136.191 53.9772 136.512 52.9979C136.723 53.1489 136.849 53.3764 136.977 53.5935C137.027 53.7515 137.179 53.8696 137.359 53.8626C137.599 53.8539 137.778 53.6178 137.719 53.3868C137.604 52.5585 136.818 51.5306 135.924 52.1348C134.816 52.8676 135.332 57.2209 136.785 57.3807C137.213 57.4797 137.99 57.2435 137.771 56.6844C137.681 56.4899 137.454 56.3892 137.247 56.4534L137.246 56.4552Z" fill="black"/>
<path d="M173.678 55.0149C173.692 55.0756 173.708 55.1329 173.743 55.1868C173.788 55.258 173.851 55.3135 173.923 55.3535C174.302 55.5653 174.724 55.1868 174.642 54.7857C174.648 54.4366 174.314 54.2213 174.258 53.8914C174.331 53.7872 174.331 53.6934 174.291 53.6222C174.447 53.3826 174.639 53.0735 174.944 53.0214C175.201 53.8028 174.878 55.923 174.426 56.6072C174.26 56.6072 174.129 56.7687 174.134 56.9267C174.139 57.083 174.262 57.1993 174.414 57.2202C175.189 57.3018 175.683 55.6209 175.793 55.0166C175.985 54.1605 176.214 53.1273 175.655 52.3598C175.177 51.8059 174.324 52.2053 174.024 52.7523C173.914 52.9276 173.663 53.4451 173.687 53.7594C173.388 54.0303 173.619 54.6728 173.675 55.0149C173.675 55.0149 173.675 55.0149 173.676 55.0149H173.678Z" fill="black"/>
<path d="M165.917 63.9186C166.156 63.764 166.219 63.4289 166.062 63.1962C165.777 62.7812 165.33 63.0243 165.009 63.2466C164.499 63.5261 163.994 63.8161 163.458 64.0436C160.519 65.214 157.148 65.3928 154.056 64.6965C152.516 64.4065 151.009 63.9828 149.557 63.3907C149.281 63.3074 148.955 63.0278 148.675 62.9097C148.038 62.7117 147.848 63.6685 148.466 63.7623C150.2 64.9309 152.345 65.3494 154.362 65.794C158.252 66.5719 162.538 66.0753 165.915 63.9203L165.917 63.9186Z" fill="black"/>
<path d="M162.479 51.2879C162.739 51.4181 163.087 51.274 163.17 50.9944C164.952 50.3329 167.041 50.3207 168.763 51.1646C168.92 51.2341 169.077 51.3001 169.229 51.3817C169.624 51.5953 170.111 51.1559 169.95 50.7444C169.753 50.2443 167.889 49.6938 167.332 49.6018C166.276 49.4247 165.188 49.4768 164.133 49.6539C163.404 49.7928 161.307 50.319 162.48 51.2879H162.479Z" fill="black"/>
<path d="M150.07 49.9094C150.73 50.0049 151.38 50.1733 152.005 50.406C152.536 50.5518 153.284 51.368 153.701 50.6543C153.953 50.0708 153.273 49.885 152.884 49.6645C151.834 49.1696 150.666 48.8935 149.504 48.8692C148.86 48.7876 144.507 49.2061 145.508 50.4025C145.641 50.5171 145.836 50.5432 145.995 50.465C146.112 50.3921 146.205 50.2948 146.341 50.2549C147.536 49.8607 148.825 49.7965 150.072 49.9094H150.07Z" fill="black"/>
<path d="M162.252 47.2979C162.275 47.416 162.297 47.5323 162.322 47.6504C162.339 47.6556 162.355 47.6625 162.373 47.6677C162.378 47.6695 162.385 47.6712 162.39 47.6729C162.411 47.6782 162.43 47.6816 162.451 47.6851C162.463 47.6851 162.474 47.6851 162.486 47.6868C162.628 47.6868 162.771 47.6782 162.914 47.6625C162.965 47.6538 163.014 47.6417 163.064 47.6295C163.279 47.5635 163.49 47.4889 163.7 47.4038C163.897 47.3135 164.088 47.2145 164.276 47.1086C164.612 46.9072 164.936 46.6901 165.277 46.4956C165.459 46.3914 165.642 46.2907 165.831 46.1952C166.018 46.1015 166.211 46.0268 166.409 45.9539C166.613 45.8792 166.817 45.8097 167.029 45.7524C167.235 45.6969 167.451 45.6656 167.665 45.6413C168.105 45.5909 168.548 45.6135 168.978 45.7229C169.355 45.8184 169.717 45.9504 170.066 46.1188C170.368 46.2647 170.651 46.4487 170.944 46.612C171.027 46.6554 171.112 46.6953 171.198 46.7318C171.206 46.7353 171.215 46.737 171.222 46.7405C171.322 46.7752 171.421 46.8082 171.523 46.8377C171.528 46.8203 171.533 46.8047 171.537 46.7891C171.537 46.7873 171.537 46.7856 171.537 46.7839C171.537 46.7804 171.537 46.7787 171.537 46.7752C171.538 46.7162 171.54 46.6571 171.54 46.5963C171.54 46.5356 171.54 46.4765 171.54 46.4157C171.516 46.3793 171.486 46.3428 171.449 46.3081C170.368 45.2558 169.015 44.3563 167.439 44.4084C166.463 44.4796 165.549 44.8651 164.65 45.2228C164.262 45.426 162.991 45.9608 162.516 46.5356C162.371 46.5894 162.249 46.7144 162.203 46.9332C162.208 46.9488 162.212 46.9627 162.217 46.9766C162.247 47.0808 162.256 47.1885 162.254 47.2944L162.252 47.2979Z" fill="black"/>
<path d="M145.485 45.871C145.485 45.871 145.485 45.871 145.487 45.871C145.489 45.871 145.49 45.871 145.492 45.871C145.501 45.871 145.511 45.871 145.52 45.871C145.606 45.8641 145.691 45.8554 145.775 45.8432C145.862 45.8259 145.948 45.8068 146.034 45.7825C146.178 45.7373 146.322 45.6887 146.468 45.6574C146.622 45.6245 146.779 45.6054 146.935 45.581C147.307 45.5151 147.67 45.4196 148.04 45.3431C148.283 45.2911 148.528 45.2563 148.774 45.2303C149.011 45.206 149.256 45.2129 149.493 45.2233C149.928 45.2442 150.36 45.2997 150.789 45.3709C150.988 45.4039 151.189 45.4387 151.387 45.4838C151.605 45.5324 151.821 45.5967 152.036 45.6644C152.255 45.7339 152.466 45.8189 152.679 45.9005C152.761 45.9318 152.845 45.9648 152.927 45.9961C152.969 46.0117 153.009 46.029 153.051 46.0447C153.159 46.0881 153.266 46.1315 153.371 46.1801C153.582 46.2791 153.785 46.3972 153.989 46.5066C154.192 46.6142 154.394 46.7219 154.598 46.8226C154.602 46.8226 154.605 46.8261 154.609 46.8278C154.754 46.8955 154.897 46.9667 155.046 47.024C155.07 47.0327 155.094 47.0397 155.119 47.0466C155.131 47.0483 155.143 47.0518 155.157 47.0536C155.161 47.0536 155.163 47.0536 155.166 47.0536C155.182 47.0536 155.198 47.0518 155.215 47.0501C155.222 47.0501 155.231 47.0466 155.239 47.0449C155.262 47.0345 155.283 47.0258 155.304 47.0136C155.334 46.9963 155.362 46.9772 155.391 46.9581C155.43 46.9268 155.466 46.8955 155.505 46.8625C155.526 46.8417 155.547 46.8209 155.568 46.7983C155.571 46.7948 155.577 46.7896 155.58 46.7861C155.604 46.7549 155.629 46.7219 155.653 46.6889C155.664 46.6715 155.674 46.6542 155.685 46.6368C155.685 46.6299 155.688 46.6229 155.688 46.616C155.692 46.5396 155.694 46.4632 155.695 46.3868C155.465 45.7321 154.724 45.3067 154.115 45.008C153.179 44.56 152.199 44.1571 151.182 43.9297C150.164 43.7074 149.118 43.8099 148.103 44.0165C147.866 44.0964 147.632 44.1815 147.401 44.2822C147.329 44.3186 147.256 44.3551 147.186 44.3968C147.181 44.4003 147.174 44.4037 147.169 44.4072C147.16 44.4141 147.151 44.4193 147.143 44.4246C147.134 44.4298 147.127 44.435 147.118 44.4385C147.122 44.4385 147.125 44.435 147.129 44.4332C147.087 44.4628 147.045 44.4992 146.999 44.5218C146.95 44.5461 146.903 44.5652 146.853 44.5843C146.779 44.6121 146.706 44.6381 146.633 44.6677C146.566 44.6937 146.498 44.7198 146.432 44.7458C146.407 44.758 146.383 44.7701 146.358 44.7823C146.28 44.8326 146.201 44.883 146.123 44.9333C145.962 45.0375 145.81 45.1469 145.661 45.2685C145.585 45.3397 145.513 45.4126 145.441 45.4873C145.441 45.4873 145.44 45.4873 145.438 45.4873C145.389 45.5394 145.34 45.5932 145.293 45.647C145.293 45.6557 145.293 45.6644 145.293 45.6713C145.293 45.6904 145.293 45.7095 145.296 45.7286C145.296 45.7217 145.296 45.7148 145.295 45.7095C145.296 45.72 145.298 45.7286 145.3 45.7391C145.316 45.7512 145.33 45.7651 145.347 45.7773C145.391 45.8068 145.434 45.8328 145.48 45.8589C145.482 45.8589 145.483 45.8606 145.485 45.8624V45.871Z" fill="black"/>
<path d="M224.605 132.001C224.375 130.487 223.646 129.125 223.211 127.67C222.653 125.623 221.765 123.716 220.676 121.896C218.031 117.519 215.495 113.075 212.994 108.614C211.529 105.954 210.816 102.863 209.33 100.187C207.58 96.9173 205.107 94.1407 202.763 91.2912C200.802 88.9366 198.54 86.8424 196.083 85.0052C195.168 84.3888 194.017 84.2916 192.955 84.0936C191.117 83.6786 189.25 83.4303 187.373 83.2723C184.547 82.9614 181.726 82.6003 178.904 82.2894C177.051 82.2425 175.208 82.0915 173.364 81.9178C171.043 81.4368 168.634 81.7129 166.331 81.192C166.187 80.5721 166.098 79.9435 165.988 79.3166C165.705 77.9205 165.36 76.5365 165.108 75.1335C165.056 74.9338 165.035 74.5605 164.963 74.2236C167.162 72.8066 168.84 71.1969 170.238 69.2243C170.25 69.2278 170.26 69.2347 170.273 69.2382C171.123 69.5768 172.33 68.172 173.17 67.8317C174.242 67.1875 175.481 67.5955 176.642 67.5434C177.632 67.5278 178.045 66.5849 178.665 65.9876C179.758 65.0464 180.923 64.1886 181.988 63.2144C186.643 59.1511 183.448 57.2376 186.971 54.9055C189.874 52.6985 194.048 50.7067 194.886 46.8605C195.389 40.8506 190.602 41.3993 193.934 32.6806C195.187 29.0635 196.738 25.3354 196.439 21.4388C195.859 16.759 192.239 12.6662 187.878 10.9783C186.615 10.4834 185.282 10.2039 183.946 9.98508C182.189 9.63258 180.277 9.67947 178.682 8.77998C177.224 7.78846 176.461 6.09542 175.121 4.96325C171.403 1.55979 166.353 0.6933 161.46 0.844372C159.402 0.906884 157.371 1.30974 155.427 1.97481C153.167 2.69196 150.947 3.84323 148.518 3.7512C146.534 3.63659 144.571 3.28757 142.587 3.17122C137.42 2.94375 132.377 5.1751 128.209 8.06282C125.541 10.0789 123.118 12.5359 121.442 15.4376C120.367 17.4588 119.704 19.6606 119.129 21.8659C118.768 23.1908 118.348 24.5487 117.456 25.6254C115.472 27.7299 112.835 29.3935 111.743 32.1857C110.566 35.0943 110.514 38.2824 111.081 41.3333C111.471 43.5213 111.885 45.7683 112.988 47.7287C114.621 50.3716 117.564 51.8945 120.247 53.3027C122.792 54.5738 126.512 56.4232 125.872 59.8162C125.609 61.6898 124.402 63.5287 124.966 65.4493C125.982 68.2137 128.779 69.9432 131.512 70.735C134.478 71.796 137.417 70.3044 140.367 70.0544C140.496 70.2245 140.638 70.3044 140.77 70.3183C140.936 70.5076 141.113 70.6916 141.301 70.8705C142.307 71.928 143.477 72.7719 144.745 73.4474C144.679 73.5134 144.628 73.595 144.607 73.6922C144.499 74.2201 144.417 74.7584 144.27 75.2776C143.958 76.1858 143.731 77.1148 143.509 78.0473C143.051 79.4 142.175 80.5634 141.172 81.581C141.155 81.607 141.134 81.6313 141.116 81.6556C141.079 81.7042 141.043 81.7529 141.001 81.7963C141.001 81.7963 141.001 81.7963 140.999 81.798C140.962 81.8345 140.922 81.8675 140.879 81.897C140.875 81.8987 140.872 81.9005 140.868 81.9022C140.842 81.9178 140.816 81.9335 140.788 81.9456C140.767 81.956 140.744 81.9664 140.723 81.9769C140.685 81.9977 140.65 82.0203 140.611 82.0376C140.571 82.0567 140.528 82.0758 140.484 82.0932C140.484 82.0932 140.484 82.0932 140.482 82.0932C140.482 82.0932 140.48 82.0932 140.479 82.0949C140.479 82.0949 140.479 82.0949 140.477 82.0949C140.421 82.1227 140.365 82.1522 140.307 82.1783C140.28 82.1905 140.25 82.2026 140.22 82.213C140.217 82.213 140.213 82.2165 140.208 82.2182C140.175 82.2286 140.14 82.2373 140.105 82.2425C140.073 82.2477 140.042 82.2495 140.011 82.2512C136.147 83.2914 132.298 84.3871 128.4 85.2952C126.426 85.8249 124.48 86.4396 122.547 87.1012C118.593 88.3288 114.656 90.0114 111.661 92.9339C110.339 94.1859 109.141 95.608 108.323 97.2386C107.553 98.883 107.022 100.677 106.986 102.498C106.961 104.592 107.321 106.673 107.81 108.703C108.086 109.725 108.47 110.715 108.76 111.735C109.197 113.32 109.785 114.855 110.36 116.393C110.866 117.833 111.291 119.3 111.684 120.775C112.057 122.205 112.412 123.643 112.76 125.081C113.194 127.396 113.746 129.834 114.347 132.143C115.107 135.078 115.711 138.064 116.686 140.938C117.673 143.77 118.848 146.561 120.439 149.112C121.113 150.296 121.915 151.395 122.764 152.458C122.917 153.667 123.541 155.097 123.649 155.702C124.023 157.16 124.271 158.662 124.143 160.173C124.053 161.038 123.798 161.876 123.668 162.734C123.537 163.514 123.419 164.308 123.268 165.087C123.109 165.99 122.921 166.888 122.716 167.784C122.594 168.31 122.458 168.843 122.549 169.385C122.605 169.829 123.242 169.965 123.487 169.6C123.679 169.331 123.508 168.989 123.59 168.687C124.206 166.101 124.561 163.465 125.08 160.861C125.371 158.98 124.956 157.082 124.37 155.297C124.227 154.839 124.091 154.378 123.964 153.917C123.995 153.953 124.025 153.989 124.056 154.028C125.317 155.573 126.513 157.191 128.091 158.44C130.16 160.051 132.291 161.644 134.694 162.731C138.757 164.688 143.076 166.266 147.594 166.7C147.638 166.704 147.68 166.709 147.723 166.712C150.13 166.921 152.552 166.928 154.964 166.817C157.42 166.638 159.872 166.367 162.335 166.315C165.435 166.216 168.554 166.322 171.61 165.705C173.696 165.363 175.804 165.08 177.779 164.304C182.621 162.634 187.451 160.829 192.26 159.051C194.548 158.077 196.766 156.943 199.026 155.908C199.904 155.459 200.69 154.837 201.542 154.34C202.889 154.813 204.249 155.24 205.631 155.601C209.636 156.407 212.945 153.581 215.632 151.01C218.201 148.775 221.203 146.825 222.705 143.661C223.398 142.364 224.238 141.107 224.596 139.665C225.203 137.163 225.059 134.51 224.596 131.996L224.605 132.001ZM166.16 82.2339C166.869 82.4596 167.972 82.4613 168.477 82.5169C169.644 82.5343 170.8 82.6489 171.954 82.7791C171.925 82.8468 171.895 82.9163 171.865 82.9857C171.593 83.5692 171.28 84.1335 170.938 84.6805C170.583 85.2345 170.196 85.7641 169.778 86.2711C169.712 86.2347 169.639 86.2034 169.55 86.1826C168.416 85.6946 167.368 85.04 166.284 84.4583C165.913 84.2516 165.548 83.9946 165.161 83.8088C165.571 83.3382 165.849 82.7704 166.161 82.2339H166.16ZM155.775 87.9937C155.768 87.9729 155.757 87.9485 155.745 87.9225C157.191 87.8079 158.625 87.5214 159.984 87.0438C160.356 87.8808 161.033 88.5702 161.633 89.2561C162.162 89.8656 162.646 90.5168 163.1 91.1836C162.799 91.3138 162.497 91.4406 162.19 91.5586C161.416 91.8486 160.562 92.1108 159.694 92.3244C158.819 92.5293 157.937 92.6821 157.044 92.788C157.023 92.7169 157.003 92.6474 156.985 92.5762C156.831 91.8399 156.791 91.0863 156.547 90.3692C156.33 89.5652 156.082 88.7682 155.775 87.9937ZM155.995 92.8853C155.252 92.9339 154.51 92.9478 153.766 92.9287C153.749 92.9287 153.733 92.9287 153.716 92.9287C152.765 92.894 151.779 92.7967 150.795 92.6422C150.876 91.4857 151.052 90.3396 151.12 89.1814C151.169 88.6831 151.15 88.1812 151.167 87.6811C151.167 87.6777 151.167 87.6759 151.167 87.6724C151.667 87.7784 152.173 87.8617 152.685 87.9103C152.706 87.9121 152.725 87.9138 152.746 87.9156C153.567 87.9833 154.398 87.9972 155.226 87.9555C155.226 89.0043 155.579 90.041 155.752 91.0707C155.857 91.4406 155.866 92.2341 155.995 92.8835V92.8853ZM162.632 88.8897C161.959 88.1986 161.281 87.511 160.63 86.8007C161.978 86.2572 163.243 85.5175 164.361 84.5642C164.558 84.6666 164.804 84.7048 164.984 84.8507C166.304 85.6512 167.63 86.4639 169.047 87.0907C168.811 87.339 168.568 87.5804 168.316 87.8166C167.78 88.3097 167.216 88.7682 166.628 89.1971L166.624 89.2005C166.624 89.2005 166.614 89.2075 166.608 89.2109C165.974 89.6624 165.302 90.0809 164.605 90.4594C164.427 90.555 164.247 90.6453 164.067 90.7355C163.898 90.482 163.706 90.2407 163.51 90.0045C163.243 89.6138 162.963 89.2318 162.632 88.8932V88.8897ZM134.858 70.0405C131.468 70.2888 127.551 68.4915 126.045 65.3659C125.404 63.3412 126.941 61.3894 126.987 59.3543C127.219 55.7442 123.499 53.7282 120.687 52.3564C118.207 51.0384 115.426 49.6492 113.891 47.1991C112.898 45.4071 112.517 43.3667 112.15 41.375C111.568 38.3501 111.586 35.162 112.833 32.2986C115.142 27.7786 119.087 27.6831 120.207 21.8954C120.825 19.5634 121.539 17.2122 122.827 15.1476C126.466 9.7142 132.314 5.861 138.723 4.49961C142.85 3.43169 147.075 5.47724 151.185 4.49614C153.567 3.86928 155.808 2.77531 158.229 2.27521C161.778 1.6171 165.505 1.75254 168.996 2.69196C171.237 3.43864 173.387 4.61248 175.021 6.32984C176.118 7.46722 176.871 8.97794 178.296 9.76282C179.903 10.6206 181.773 10.6623 183.536 10.9714C186.262 11.3447 188.953 12.2581 191.077 14.0449C193.25 15.9724 195.049 18.5458 195.396 21.4839C195.815 26.6742 192.775 31.281 191.856 36.2507C190.613 41.8074 196.411 44.492 192.628 49.1179C191.547 50.3473 190.223 51.3423 188.901 52.3043C187.247 53.6032 184.884 54.5044 184.206 56.6506C183.875 58.1614 183.784 59.7867 182.676 60.99C181.22 62.8133 179.176 64.0219 177.536 65.6542C177.295 65.8851 177.17 66.2289 176.887 66.413C176.686 66.5189 176.455 66.5224 176.233 66.5189C173.93 66.1161 172.791 66.7551 171.106 67.8994C171.588 67.0989 172.038 66.2446 172.466 65.3208C173.123 63.9333 173.521 62.4382 173.755 60.9241C173.951 60.8494 174.145 60.7539 174.311 60.7053C175.331 60.3493 175.937 59.4967 176.305 58.5277C176.763 57.4425 177.047 56.2912 177.154 55.1191C177.276 53.9921 177.505 52.8461 177.299 51.7174C177.147 50.9985 176.833 50.1962 176.144 49.835C175.334 49.4374 174.384 49.7916 173.846 50.4654C173.71 49.097 174.312 47.7548 174.232 46.383C174.187 45.4991 173.858 44.6673 173.661 43.8113C173.469 43.0559 173.339 42.2554 172.898 41.5956C172.143 40.5016 171.041 39.5917 169.789 39.1228C168.767 38.7495 167.662 38.6453 166.664 38.206C165.58 37.7528 165.037 36.6762 164.387 35.7802C163.477 34.7122 161.73 34.1774 160.351 34.2052C158.684 34.1965 157.13 34.8702 155.546 35.2939C154.39 35.6239 153.192 35.5909 152.02 35.3634C151.305 35.2384 150.614 34.9849 149.884 34.9501C148.619 34.839 147.554 35.412 146.583 36.1552C145.311 37.1363 144.152 38.265 143.1 39.4753C141.741 41.0572 140.435 42.792 139.808 44.7993C139.48 45.9662 139.439 47.1922 139.37 48.3955C139.338 49.203 139.263 50.0035 139.143 50.8022C139.08 51.0662 139.067 51.3718 138.896 51.5923C138.667 51.8684 138.435 51.8024 138.206 51.5645C137.974 51.3214 137.779 51.0436 137.574 50.7745C137.567 50.7432 137.558 50.7154 137.551 50.6911C137.455 50.54 137.33 50.415 137.186 50.3108C137.136 50.2587 137.083 50.2084 137.028 50.1598C137.028 50.1598 137.028 50.1615 137.028 50.1632C136.975 50.1198 136.914 50.1129 136.856 50.1268C136.177 49.8402 135.29 49.9601 134.806 50.514C133.475 52.2921 133.5 54.7041 133.962 56.7826C134.362 58.5868 135.215 60.1479 137.087 60.7452C137.363 60.799 137.648 60.7747 137.922 60.7087C138.362 63.5062 138.472 66.5988 139.885 69.0663C138.322 69.1497 136.098 69.9936 134.858 70.0422V70.0405ZM141.846 69.9241C140.232 68.3162 139.71 66.0622 139.42 63.8812C139.211 62.3879 138.966 60.9015 138.776 59.4064C138.755 59.2501 138.736 59.0938 138.694 58.9428C138.564 58.4843 137.88 58.4722 137.719 58.9132C137.688 59.1668 137.723 59.4255 137.768 59.6842C137.197 59.8579 136.68 59.4238 136.236 59.0817C135.62 58.5677 135.368 57.8714 135.119 57.1143C134.666 55.548 134.481 53.8219 134.975 52.2435C135.215 51.6392 135.414 50.7988 136.201 50.7588C136.476 50.7484 136.69 50.7918 136.956 50.903C136.966 50.9082 136.977 50.9134 136.987 50.9186C137.087 51.0974 137.188 51.278 137.295 51.4725C137.546 51.9396 137.826 52.4831 138.402 52.5943C139.308 52.794 139.962 51.9084 140.058 51.1009C140.255 50.1441 140.341 49.17 140.391 48.1958C140.486 46.8449 140.554 45.4522 141.127 44.202C141.991 42.4256 143.208 40.8454 144.559 39.4076C145.764 38.1973 146.99 36.9297 148.541 36.1656C149.471 35.8062 150.464 36.0615 151.389 36.2994C152.414 36.4921 153.462 36.6692 154.505 36.5477C156.606 36.3098 158.538 35.1516 160.688 35.2453C161.058 35.254 161.419 35.3321 161.772 35.4381C162.378 35.6464 163.025 35.8461 163.475 36.3237C164.008 36.9592 164.336 37.751 164.988 38.2911C166.341 39.7462 168.531 39.524 170.17 40.4478C171.011 41.0121 171.871 41.6876 172.264 42.6478C172.588 43.8321 172.943 45.0146 173.168 46.2215C173.294 47.7912 172.538 49.3263 172.838 50.8978C172.866 51.667 173.439 51.9796 174.136 51.6635C174.538 51.4673 174.777 51.0749 175.025 50.7241C175.067 50.6616 175.091 50.5939 175.102 50.5227C175.411 50.4775 175.734 50.5418 175.917 50.8127C176.602 51.8337 176.373 53.11 176.228 54.2717C176.059 55.9126 175.744 57.5987 174.869 59.0452C174.641 59.3838 174.27 59.5957 173.898 59.7467C173.891 59.7502 173.884 59.7519 173.877 59.7554C173.966 59.0747 174.194 58.1197 173.5 58.0207C172.608 58.0311 172.995 59.2432 172.838 59.8266C172.665 61.4762 172.295 63.1294 171.621 64.6522C170.283 67.4445 168.652 70.2523 166.091 72.0982C163.996 73.7652 161.554 75.2794 158.787 75.5259C155.813 75.736 152.855 75.0223 149.995 74.2844C146.997 73.5099 143.954 72.2822 141.844 69.9241H141.846ZM142.44 81.6556C143.139 80.9003 143.753 80.065 144.187 79.1325C144.653 78.1949 144.747 77.1374 145.089 76.1563C145.343 75.4686 145.493 74.6664 145.633 73.9319C145.636 73.9162 145.636 73.9006 145.638 73.885C146.261 74.1698 146.902 74.4198 147.557 74.6351C149.679 75.3037 151.838 75.9236 154.042 76.2483C157.34 76.889 160.899 76.764 163.807 74.9268C163.936 74.8522 164.065 74.7792 164.191 74.7028C164.252 75.2394 164.289 75.7812 164.397 76.3125C164.762 78.0698 164.988 79.8549 165.363 81.607C165.024 81.9682 164.867 82.4579 164.588 82.8607C163.755 83.8731 162.595 84.5624 161.502 85.2674C157.832 87.1133 153.234 87.5509 149.367 86.0593C146.738 85.0434 144.036 83.9946 141.738 82.345C142.045 82.0724 142.311 81.7893 142.44 81.6521V81.6556ZM146.3 86.252C145.612 87.5926 144.807 88.9053 144.146 90.2754C144.122 90.3257 144.094 90.3778 144.064 90.4334C143.535 90.159 143.006 89.8604 142.489 89.5391C141.738 89.0599 141.015 88.5389 140.327 87.9746C140.273 87.9294 140.217 87.8791 140.163 87.8322C140.267 87.7297 140.367 87.6238 140.456 87.5422C141.359 86.634 142.328 85.7971 143.212 84.8698C143.301 84.7882 143.402 84.7031 143.488 84.6093C144.435 85.0643 145.39 85.5383 146.357 85.9811C146.309 86.0627 146.282 86.1548 146.3 86.252ZM145.393 90.0931C145.888 89.0651 146.452 88.0701 146.895 87.0195C146.974 86.8112 147.037 86.5993 147.098 86.3857C147.105 86.3649 147.11 86.3423 147.117 86.3197C148.2 86.7886 149.302 87.2036 150.434 87.5005C150.27 87.952 150.277 88.6744 150.198 88.9852C150.048 90.1365 149.85 91.2877 149.76 92.446C149.108 92.3088 148.464 92.1473 147.825 91.958H147.818C147.818 91.958 147.8 91.9511 147.793 91.9476C147.774 91.9407 147.734 91.9285 147.695 91.9181C146.78 91.6298 145.882 91.2877 145.002 90.8918C145.131 90.6244 145.266 90.3605 145.393 90.0931ZM140.239 83.0014C140.281 82.9805 140.325 82.9597 140.369 82.9389C140.421 82.9736 140.479 82.9944 140.542 83.0014C140.638 83.0101 140.748 82.9857 140.863 82.9423C141.401 83.3573 141.961 83.7602 142.55 84.111C142.533 84.144 142.517 84.177 142.506 84.2152C141.541 85.1216 140.545 85.995 139.598 86.924C139.53 86.9848 139.452 87.0525 139.373 87.1255C139.022 86.7973 138.676 86.4517 138.341 86.0957C138.018 85.7485 137.672 85.3525 137.337 84.9462C137.178 84.7552 137.022 84.559 136.869 84.3645C136.821 84.3037 136.773 84.2412 136.724 84.1804C137.915 83.8401 139.097 83.4754 140.241 83.0031L140.239 83.0014ZM223.676 139.051C223.416 140.39 222.677 141.553 222.033 142.734C221.371 144.019 220.609 145.262 219.561 146.273C218.143 147.681 216.517 148.86 215.017 150.176C212.545 152.475 209.665 155.219 205.991 154.615C201.111 153.397 196.547 151.215 191.926 149.296C188.569 148.351 185.347 146.979 181.934 146.234C179.795 145.811 177.645 145.43 175.566 144.755C174.262 144.323 171.17 143.425 170.959 143.366C171.176 142.414 171.408 141.461 171.408 140.476C171.45 138.066 171.09 135.663 170.648 133.298C170.332 131.763 170.253 130.202 170.051 128.653C169.948 128.2 169.965 127.293 169.701 126.738C169.969 126.699 170.238 126.668 170.503 126.633C172.83 126.423 175.151 126.817 177.474 126.899C179.721 126.972 181.983 126.989 184.233 127.126C185.677 127.232 187.116 127.401 188.564 127.462C190.765 127.569 192.965 127.682 195.169 127.656C196.273 127.672 197.534 127.651 198.647 127.453C199.354 127.331 200.06 127.203 200.767 127.09C201.223 127.033 201.348 126.383 200.969 126.145C200.629 125.944 200.227 126.154 199.866 126.187C198.369 126.47 196.856 126.663 195.328 126.616C193.273 126.632 191.077 126.55 188.981 126.439C187.149 126.38 185.333 126.13 183.503 126.053C181.356 125.961 179.21 125.96 177.063 125.904C174.695 125.835 172.267 125.47 169.941 126.076C169.818 126.114 169.544 126.194 169.274 126.3C169.169 126.262 169.045 126.25 168.902 126.27C164.733 126.836 160.546 127.397 156.472 128.472C155.937 128.637 154.568 129.011 154.8 129.764C154.884 129.931 155.01 129.967 155.141 129.94C155.156 129.988 155.172 130.037 155.188 130.085C154.215 130.448 153.239 130.799 152.259 131.146C151.349 131.454 150.443 131.775 149.543 132.107C149.099 132.289 148.6 132.404 148.209 132.687C148.06 132.537 147.915 132.384 147.774 132.226C146.041 130.36 144.819 128.116 143.238 126.133C141.904 124.451 140.149 123.124 138.889 121.381C138.051 120.278 137.63 118.923 136.884 117.757C136.49 117.253 135.153 114.332 134.439 115.004C133.87 115.466 134.572 116.024 134.834 116.456C135.141 116.895 135.386 117.295 135.676 117.763C136.504 119.021 137.01 120.464 137.836 121.714C139.113 123.584 140.948 124.982 142.377 126.729C144.118 128.936 145.477 131.433 147.479 133.439C150.071 136.069 153.546 137.53 156.912 138.915C159.24 140.164 161.667 141.159 164.163 142.027C168.58 143.89 175.076 145.674 176.557 146.122C178.645 146.735 180.818 146.976 182.917 147.547C184.72 147.957 186.438 148.62 188.176 149.237C189.451 149.657 190.77 149.95 192.024 150.437C194.768 151.637 197.52 152.856 200.334 153.903C200.07 154.062 199.812 154.236 199.403 154.467C198.622 155.016 197.733 155.37 196.87 155.768C195.03 156.596 193.252 157.568 191.362 158.285C187.904 159.541 184.458 160.824 181.001 162.085C178.941 162.738 176.964 163.609 174.847 164.094C172.711 164.467 170.578 164.881 168.42 165.096C166.388 165.221 164.354 165.204 162.321 165.273C159.839 165.323 157.371 165.596 154.898 165.777C152.158 165.891 149.396 165.895 146.672 165.546C142.375 164.957 138.306 163.352 134.437 161.451C132.266 160.345 130.303 158.864 128.41 157.344C126.954 156.101 125.845 154.533 124.627 153.071C120.25 148.124 117.697 141.85 116.26 135.472C115.465 132.214 114.581 129.05 113.966 125.737C113.31 122.709 112.546 119.694 111.591 116.742C110.962 114.924 110.222 113.145 109.724 111.283C109.363 110.057 108.879 108.864 108.629 107.607C108.248 105.712 107.927 103.785 108.065 101.847C108.503 97.4088 111.35 94.1216 114.901 91.642C118.687 89.1484 123.153 87.9833 127.439 86.6358C129.545 86.0159 131.709 85.6043 133.817 84.9896C134.598 84.7587 135.384 84.5451 136.17 84.3246C136.189 84.3662 136.208 84.4062 136.228 84.4444C136.303 84.5902 136.381 84.7344 136.465 84.875C136.635 85.1546 136.811 85.4289 136.998 85.6964C137.873 86.9483 138.949 88.0475 140.128 89.0165C140.791 89.5634 141.5 90.0653 142.234 90.5254L142.288 90.5602C142.798 90.8814 143.352 91.187 143.923 91.4753C143.975 91.5274 144.043 91.5743 144.134 91.6142C144.176 91.6298 144.216 91.6385 144.258 91.642C144.424 91.7236 144.59 91.8035 144.759 91.8799C145.243 92.1021 145.75 92.3088 146.263 92.4998C147.687 93.0311 149.162 93.4062 150.661 93.6545C150.666 93.6545 150.68 93.658 150.694 93.6597C150.694 93.6597 150.705 93.6597 150.715 93.6632C150.965 93.7032 151.213 93.7379 151.464 93.7709C151.712 93.8039 151.962 93.8316 152.214 93.856C152.724 93.9046 153.237 93.9358 153.75 93.9497C154.514 93.9706 155.279 93.9636 156.04 93.9115C156.239 93.8976 156.437 93.882 156.636 93.8629C156.707 93.8716 156.779 93.8629 156.847 93.8403C158.106 93.7118 159.352 93.4861 160.574 93.1579C161.989 92.7759 163.365 92.248 164.67 91.5847C165.988 90.9144 167.228 90.0965 168.362 89.1502C169.495 88.2038 170.507 87.1064 171.362 85.9047C172.03 84.9653 172.592 83.9529 173.039 82.892C173.731 82.9719 174.424 83.0483 175.119 83.1038C179.024 83.2966 182.902 83.7741 186.784 84.2447C188.608 84.4218 190.44 84.5868 192.228 85C193.905 85.2692 195.377 85.4637 196.608 86.74C199.38 88.8532 201.64 91.51 203.813 94.2085C205.215 95.7904 206.478 97.5008 207.599 99.2911C209.655 102.408 210.404 106.129 212.215 109.369C213.988 112.547 215.852 115.669 217.616 118.854C219.387 121.787 221.353 124.657 222.223 128.01C222.56 129.205 223.154 130.309 223.433 131.52C223.961 133.97 224.172 136.569 223.673 139.039L223.676 139.051ZM158.377 131.082C159.603 130.987 160.829 130.908 162.05 130.768C163.234 130.651 164.404 130.375 165.59 130.183C166.769 130.021 167.939 129.806 169.106 129.57C169.233 130.73 169.335 131.895 169.53 133.048C167.323 133.19 165.115 133.312 162.902 133.379C160.876 133.496 158.817 133.456 156.823 133.85C156.817 133.638 156.803 133.423 156.772 133.208C156.685 132.577 156.557 131.954 156.396 131.337C157.053 131.299 157.698 131.159 158.377 131.082ZM156.302 130.898C156.203 130.438 156.075 129.94 155.834 129.533C156.98 129.118 158.213 128.99 159.4 128.724C162.511 128.128 165.662 127.774 168.795 127.331C168.868 127.731 168.93 128.132 168.982 128.535C168.189 128.667 167.387 128.873 166.591 128.99C165.548 129.149 164.511 129.327 163.48 129.556C161.652 129.95 159.771 130.039 157.947 130.443C157.401 130.579 156.845 130.733 156.3 130.898H156.302ZM156.803 135.062C156.809 134.812 156.821 134.55 156.824 134.281C156.889 134.291 156.954 134.298 157.011 134.312C159.6 134.435 162.209 134.354 164.802 134.31C166.175 134.277 167.552 134.232 168.917 134.107C169.162 134.06 169.452 134.093 169.726 134.088C169.988 135.619 170.243 137.175 170.328 138.735C167.125 138.573 163.976 137.877 160.827 137.318C159.552 136.972 158.255 136.733 156.945 136.578C156.926 136.479 156.865 136.425 156.793 136.404C156.805 135.958 156.809 135.51 156.802 135.062H156.803ZM156.77 137.038C156.828 137.062 156.884 137.083 156.929 137.097C157.832 137.479 158.728 137.636 159.68 137.941C160.909 138.356 162.193 138.554 163.461 138.818C165.047 139.127 166.643 139.405 168.245 139.619C168.947 139.7 169.654 139.745 170.36 139.777C170.36 140.416 170.327 141.055 170.248 141.692C170.18 142.201 170.009 142.699 169.908 143.203C167.681 142.366 165.447 141.496 163.234 140.598C161.03 139.876 158.997 138.749 156.901 137.776C156.844 137.754 156.786 137.729 156.73 137.707C156.746 137.483 156.76 137.26 156.77 137.036V137.038ZM155.707 137.286C153.268 136.262 150.855 135.069 148.883 133.322C148.946 133.3 149.007 133.279 149.068 133.263C149.576 133.096 150.086 132.935 150.595 132.765C152.208 132.235 153.824 131.7 155.418 131.112C155.523 131.86 155.689 132.598 155.768 133.35C155.832 133.959 155.776 134.571 155.764 135.18C155.783 135.883 155.742 136.585 155.708 137.286H155.707Z" fill="black"/>
<path d="M152.869 56.9633C153.192 56.833 153.516 56.6577 153.346 56.2409C153.067 55.7408 152.609 56.0482 152.283 56.3104C152.054 56.4597 151.711 56.7098 151.823 56.998C151.68 57.2463 151.746 57.5867 152.206 57.7291C153.46 58.9654 155.182 59.7034 156.913 59.9795C158.79 60.1618 160.828 59.8388 162.313 58.6112C162.653 58.2865 163.591 57.8107 163.586 57.2828C163.731 57.0814 163.735 56.7792 163.432 56.5899C163.074 56.4284 162.856 56.01 162.454 55.9457C162.067 55.9301 162 56.3764 162.238 56.6125C162.337 56.7671 162.451 56.9112 162.573 57.0466C162.271 57.3192 161.955 57.578 161.626 57.8193C160.488 58.7674 158.953 59.0088 157.506 58.988C155.837 58.856 154.179 58.1545 152.941 57.0327C152.917 57.0067 152.894 56.9841 152.869 56.9615V56.9633Z" fill="black"/>
</svg>
