<svg width="237" height="195" viewBox="0 0 237 195" fill="none" xmlns="http://www.w3.org/2000/svg">
<g clip-path="url(#clip0_7902_98935)">
<path d="M31.8736 9.29369C31.9833 14.1711 24.9374 14.4205 24.935 19.4716C23.1113 20.993 17.3137 20.6359 19.7542 17.187C21.9167 13.5644 31.3982 9.60188 23.5331 6.25817C19.9443 4.42855 20.7026 8.90721 18.8204 9.99325C17.855 10.5509 14.6002 10.6292 14.2126 9.32304C13.3251 -2.55239 32.3807 -2.3029 31.8736 9.29124V9.29369Z" fill="#E1CBF1"/>
<path d="M22.8288 28.0912C19.2888 28.2012 18.9646 22.5167 22.5558 22.4727C26.1641 22.4971 26.8711 28.1548 22.8288 28.0912Z" fill="#E1CBF1"/>
<path d="M20.7488 20.7125C17.4867 20.8373 19.0958 16.5665 20.4172 15.2016C21.9971 13.5652 28.8625 9.91577 24.6277 7.03681C23.377 6.2712 20.4953 6.1489 20.4026 7.99809C20.2758 10.493 18.6302 10.7058 16.6261 10.7621C15.7241 10.7866 14.0955 10.7548 13.82 9.99893C11.9524 4.89654 17.2308 0.36651 22.3311 -0.00283915C28.0434 -0.416217 33.6703 4.4587 32.5903 10.2142C32.0466 13.2472 29.5257 14.6953 27.1949 16.273C26.9414 16.4442 26.7268 16.6717 26.5684 16.9334C24.6716 20.0619 27.8971 20.5021 20.7513 20.7125H20.7488ZM22.6066 19.6901C23.2819 19.602 23.9914 19.558 24.3644 19.4357C24.6789 19.333 24.9032 19.0517 24.9325 18.7214C25.0032 17.9363 25.1982 16.2999 26.8756 15.2359C39.6557 8.21823 24.5277 -5.42322 15.7996 4.1823C14.5465 5.56185 13.6517 9.50728 14.978 9.65404C16.3214 9.8057 17.7525 9.98181 18.9471 9.40455C19.7736 9.00585 19.1714 7.65075 19.7248 6.93407C21.1779 4.75467 24.7642 5.32949 26.3099 7.13709C28.8747 10.7988 23.7403 13.2864 21.3632 15.456C21.173 15.6297 21.0024 15.8205 20.8488 16.0259C19.9175 17.2661 19.3348 18.6627 19.8589 19.355C20.2198 19.8295 21.1706 19.876 22.6066 19.6901Z" fill="black"/>
<path d="M22.2188 28.8202C18.1156 28.2772 18.5472 21.9982 22.6211 22.0472C27.4337 22.1548 27.2363 29.4268 22.2188 28.8202ZM22.8113 27.8516C26.3342 27.7072 25.6199 22.6293 22.4114 22.9253C19.4492 23.1992 19.5516 27.9127 22.8113 27.8516Z" fill="black"/>
<path d="M97.6709 36.9171C102.237 60.0932 77.9838 59.4034 75.0265 74.762C75.658 76.3714 74.0586 78.4701 73.0737 79.0352C68.4829 79.7934 60.2595 81.6964 57.2924 77.2251C56.3294 71.2862 57.0266 64.3835 61.7466 60.1519C67.1176 55.1302 75.8872 53.4767 79.3906 46.6474C82.0041 36.7826 67.2931 27.1869 59.9523 35.222C53.0039 45.1994 59.3428 47.7677 42.7837 47.0852C34.1897 46.8529 37.4518 34.0088 40.4042 29.014C53.3257 10.6762 93.9114 11.1703 97.6709 36.9171Z" fill="#6F479F"/>
<path d="M77.4623 98.2702C77.6184 111.051 58.3287 112.521 56.0516 100.132C53.794 84.5138 76.8723 82.5667 77.4623 98.2702Z" fill="#6F479F"/>
<path d="M60.9252 80.3819C59.9939 80.311 59.1065 79.9318 58.3239 79.4377C57.2536 78.7186 56.6928 77.4809 56.4856 76.2408C56.1638 73.9904 56.2784 71.6814 56.6611 69.4457C57.4803 64.5243 59.2991 61.029 63.4023 58.1206C64.553 57.2401 65.7379 56.4109 66.974 55.6599C69.7972 54.0554 72.7935 52.6098 75.2218 50.4157C76.0507 49.6868 76.7894 48.8771 77.4696 48.0357C78.2279 47.1331 78.8447 46.074 79.1129 44.917C79.3274 44.0193 79.1665 43.107 78.8544 42.2533C78.5789 41.4779 78.2571 40.7221 77.8987 39.9834C77.5038 39.2202 77.0844 38.462 76.5749 37.7673C76.2336 37.3246 75.8362 36.9283 75.4656 36.51C74.0978 34.9666 72.2498 33.8512 70.2702 33.3009C67.5445 32.6478 65.9646 32.5377 63.4023 33.8586C61.208 34.9617 59.1065 36.5076 58.0167 38.7726C57.3267 40.1815 57.1999 41.7666 56.6977 43.2366C55.9395 45.7756 54.2451 46.9399 51.6681 47.1649C50.766 47.3215 49.8639 47.4804 48.9472 47.5122C47.6868 47.5636 46.4239 47.5416 45.1634 47.5563C43.9786 47.5416 42.8059 47.3264 41.6283 47.2016C40.4946 47.0328 39.0757 47.0206 38.4028 45.937C38.0737 45.4429 37.747 44.9341 37.5568 44.3691C37.3764 43.7992 37.313 43.1975 37.1545 42.6227C37.0131 41.4706 36.8644 40.3063 36.9059 39.1395C37.0253 36.2483 37.7348 33.3767 38.8685 30.7228C39.7462 29.0057 40.7628 27.2421 42.0745 25.8356C42.7669 25.048 43.4422 24.2433 44.2492 23.573C46.0362 22.1568 48.0232 21.0023 50.0468 19.9627C51.5072 19.2974 52.9822 18.6468 54.5449 18.2701C56.3661 17.7148 58.202 17.2158 60.0451 16.7413C63.512 15.9366 67.0861 15.8045 70.631 15.8363C73.8784 15.8265 77.0698 16.5848 80.1417 17.5876C82.9235 18.5245 85.6979 19.5591 88.2213 21.083C89.355 21.7312 90.4277 22.4772 91.3615 23.3945C92.8291 24.7227 94.0384 26.3248 95.0307 28.0346C95.8767 29.4215 96.7251 30.8279 97.2249 32.3836C98.0099 34.8419 98.1611 37.4493 98.2952 40.0127C98.3854 41.1868 98.3903 42.3658 98.3854 43.5424C98.4073 44.5379 98.2611 45.5285 98.0319 46.4947C97.6004 48.3194 96.847 50.0365 95.9376 51.668C94.9673 53.3729 93.8629 55.0338 92.4708 56.4231C90.2497 58.8814 87.5923 60.8626 84.9495 62.8366C83.3379 63.9275 81.6679 64.9328 80.2368 66.2659C79.1129 67.2712 78.006 68.3352 77.2429 69.6512C75.9337 71.9284 75.546 74.5873 75.329 77.1678C75.1267 78.9143 73.2787 79.7337 71.7257 79.9343C70.77 80.1006 69.8094 80.2327 68.8366 80.2596C67.464 80.3232 66.0914 80.2963 64.7188 80.333C63.4535 80.3574 62.1881 80.4968 60.9252 80.3843V80.3819ZM63.0292 79.4084C65.5697 79.2323 68.1344 79.4524 70.6627 79.1026C72.2571 78.8776 74.5001 78.5743 74.4002 76.4805C74.978 70.4143 76.4969 67.8044 81.2754 64.1305C82.1262 63.4823 83.0454 62.932 83.9353 62.34C85.4054 61.2882 86.8487 60.1924 88.2457 59.0403C89.5525 58.0228 90.7203 56.8487 91.8515 55.6453C93.073 54.4223 94.0311 52.9644 94.9112 51.4846C96.1863 49.2514 97.1688 46.8959 97.3858 44.3251C97.4468 41.0058 97.2907 37.667 96.7373 34.3893C96.3716 32.5059 95.5744 30.7374 94.5358 29.1328C93.5752 27.45 92.4805 25.8258 91.0762 24.4805C89.1185 22.5066 86.6073 21.2004 84.0864 20.0997C81.29 18.9794 78.457 17.9717 75.5119 17.3455C74.3148 17.1107 73.1031 16.9639 71.8866 16.8587C70.7407 16.7976 69.5924 16.8367 68.4465 16.8343C65.9305 16.8563 63.4144 17.0691 60.9423 17.5558C59.7111 17.8322 58.497 18.1771 57.278 18.4951C56.3637 18.7593 55.4519 19.0455 54.5352 19.3023C53.8574 19.4809 53.1796 19.6741 52.5384 19.9627C51.0488 20.562 49.5982 21.2493 48.2207 22.081C47.0041 22.8392 45.7583 23.5706 44.6685 24.5099C44.0517 25.0627 43.4885 25.7109 42.9473 26.3297C42.4645 26.8727 41.9989 27.3742 41.6088 27.9808C40.9725 28.9176 40.3947 29.896 39.8681 30.8989C39.3195 32.0289 38.9319 33.2299 38.6076 34.4407C38.081 36.3388 37.7494 38.2932 37.7348 40.2671C37.8713 40.952 38.0078 41.6369 38.0907 42.3291C38.2468 42.9064 38.3199 43.5057 38.4881 44.0805C38.6929 44.6259 39.0196 45.12 39.3561 45.5921C39.9046 46.0642 40.6945 46.0618 41.3747 46.1816C42.467 46.3039 43.5568 46.4654 44.6539 46.5559C46.1655 46.5828 47.6795 46.5754 49.191 46.5167C50.0419 46.4678 50.8757 46.2941 51.7144 46.162C53.2772 46.0202 54.5766 45.4478 55.3324 44.0022C55.8956 42.8379 56.1223 41.5978 56.41 40.3552C56.9537 38.0951 58.3068 36.0722 60.1743 34.7C62.0297 33.3449 64.1361 32.1317 66.4498 31.8577C67.4299 31.7721 68.4124 31.9189 69.373 32.1072C70.0312 32.232 70.6871 32.3665 71.3185 32.594C73.464 33.362 75.3022 34.7171 76.7528 36.4685C77.8841 37.6792 78.635 39.1933 79.3006 40.7001C80.1295 42.586 80.5927 44.2884 79.7053 46.2648C78.4985 49.0606 75.5265 51.7023 72.9983 53.3313C71.3526 54.4125 69.607 55.3224 67.8809 56.2666C66.5936 57.0273 65.3527 57.8638 64.1678 58.7786C62.6709 59.8671 61.2422 61.1048 60.1816 62.6385C58.6335 64.9695 57.8704 67.7042 57.4998 70.4486C57.2536 71.9969 57.256 73.5697 57.334 75.1303C57.4242 76.5637 57.8582 78.2049 59.2698 78.8556C60.4132 79.5135 61.7493 79.4744 63.0219 79.4108L63.0292 79.4084Z" fill="black"/>
<path d="M63.6071 108.967C63.3706 108.901 63.1365 108.823 62.9195 108.747C62.9049 108.742 62.8927 108.737 62.8781 108.733L62.8635 108.728C61.5713 108.261 60.3645 107.561 59.321 106.661C58.2532 105.741 57.3511 104.621 56.6928 103.371C56.059 102.172 55.6445 100.869 55.4616 99.5258C55.2788 98.178 55.3544 96.8009 55.6542 95.4752C55.9639 94.1029 56.5417 92.7772 57.3389 91.6202C58.1508 90.4364 59.1723 89.4115 60.3621 88.6092C61.1739 88.0637 62.0589 87.6234 62.9878 87.3201C63.629 87.1122 64.2897 86.9557 64.9602 86.8847C65.2625 86.8529 65.5624 86.8358 65.8671 86.8456C65.9354 86.8456 66.0012 86.8505 66.067 86.8529C66.7789 86.7967 67.4933 86.8065 68.2052 86.8749C69.5168 87.0046 70.7992 87.4033 71.9743 88.0026C72.6082 88.3254 73.2129 88.7095 73.7736 89.1497C74.2978 89.5631 74.7829 90.0328 75.2218 90.5366C76.1482 91.6031 76.8796 92.8359 77.3575 94.169C77.8085 95.4287 78.0401 96.7667 78.0304 98.1046C78.0206 99.5013 77.75 100.891 77.2429 102.189C76.7431 103.474 76.002 104.658 75.0779 105.678C74.1222 106.734 72.9666 107.6 71.694 108.231C70.4506 108.845 69.0877 109.232 67.7054 109.351C67.3738 109.381 67.0447 109.393 66.7131 109.393C65.6648 109.393 64.6188 109.251 63.6071 108.965V108.967ZM67.2982 108.393C67.7322 108.366 68.1637 108.312 68.5904 108.236C69.017 108.153 69.4364 108.048 69.824 107.928C69.8338 107.925 69.8435 107.921 69.8557 107.918H69.8606C70.2824 107.776 70.6944 107.615 71.0991 107.426C71.5014 107.233 71.8915 107.018 72.2693 106.781C72.6472 106.534 73.0105 106.267 73.3591 105.978C73.7005 105.687 74.0223 105.379 74.3246 105.049C74.6318 104.706 74.9195 104.349 75.1852 103.973C75.4412 103.598 75.6753 103.212 75.8849 102.811C76.1019 102.385 76.2921 101.945 76.453 101.495C76.6066 101.052 76.7309 100.602 76.8284 100.142C76.9162 99.7019 76.9796 99.2591 77.0162 98.814C77.0479 98.3688 77.0527 97.9236 77.0308 97.4785C77.004 97.0284 76.9503 96.5783 76.8723 96.1331C76.7894 95.6929 76.6797 95.2599 76.5432 94.8343C76.4067 94.4185 76.2458 94.0124 76.0629 93.6137C75.8776 93.2224 75.6679 92.8408 75.4388 92.4739C75.1925 92.0899 74.9268 91.723 74.6367 91.3707C74.3368 91.0161 74.0198 90.6834 73.681 90.3679C73.3055 90.0279 72.9105 89.7099 72.4961 89.4139C72.106 89.1424 71.6964 88.8954 71.2795 88.6777C71.2795 88.6777 71.2771 88.6777 71.2746 88.6777L71.2527 88.6654C70.8455 88.4575 70.4262 88.2839 69.9971 88.1273C69.7558 88.0417 69.5119 87.961 69.2657 87.8925C68.9975 87.8167 68.7245 87.7531 68.5026 87.7066C68.0369 87.6088 67.5688 87.5452 67.0959 87.5085C66.7594 87.4865 66.4254 87.4816 66.089 87.4938C66.0036 87.5085 65.9183 87.5231 65.833 87.5403C65.4965 87.6039 65.1625 87.665 64.8285 87.7408C64.4628 87.824 64.0995 87.9218 63.7387 88.0368C63.2584 88.1958 62.7879 88.3841 62.3295 88.5994C61.9224 88.7975 61.5299 89.0152 61.1471 89.2574C60.779 89.4971 60.4254 89.7564 60.0866 90.0376C59.7428 90.3287 59.4137 90.6394 59.1065 90.9696C58.7895 91.3169 58.4945 91.6838 58.2215 92.0679C57.9582 92.4494 57.7168 92.8481 57.5023 93.2615C57.2902 93.6773 57.1049 94.1078 56.9464 94.5457C56.7904 94.9909 56.6636 95.4434 56.5661 95.9057C56.4734 96.3582 56.41 96.8156 56.3783 97.2118C56.3442 97.6986 56.3393 98.1878 56.3637 98.611C56.3905 99.0537 56.4442 99.4915 56.5222 99.9269C56.6075 100.377 56.7221 100.822 56.8611 101.26C56.9951 101.664 57.1512 102.057 57.3145 102.415C57.3194 102.424 57.3243 102.437 57.3292 102.446C57.5218 102.85 57.7363 103.239 57.9728 103.618C58.2166 103.997 58.4823 104.359 58.7676 104.706C59.0626 105.054 59.3747 105.382 59.7087 105.692C60.0451 105.998 60.3986 106.282 60.7692 106.543C61.1447 106.803 61.5347 107.04 61.937 107.253C62.3442 107.461 62.7635 107.644 63.1658 107.793C63.178 107.798 63.1877 107.801 63.1999 107.806C63.2048 107.806 63.2097 107.808 63.2097 107.808H63.2145H63.217C63.6461 107.96 64.0825 108.082 64.5262 108.182C64.9992 108.28 65.477 108.349 65.9597 108.385C66.4035 108.415 66.8496 108.42 67.2933 108.393H67.2982Z" fill="black"/>
<path d="M111.407 3.21702C112.075 6.60476 108.491 6.52894 108.018 8.90647C108.223 9.05323 107.957 9.29049 107.813 9.37121C107.142 9.48128 105.941 9.76013 105.507 9.10704C105.365 8.2387 105.468 7.23094 106.158 6.6121C106.943 5.87829 108.225 5.63614 108.737 4.63816C109.12 3.19501 106.969 1.79344 105.897 2.96753C104.88 4.42536 105.809 4.80205 103.388 4.70176C102.132 4.66751 102.608 2.79142 103.039 2.06006C104.929 -0.620782 110.86 -0.547402 111.409 3.21458L111.407 3.21702Z" fill="#FDC82E"/>
<path d="M108.452 12.1844C108.474 14.0532 105.656 14.2684 105.322 12.4559C104.993 10.1738 108.364 9.89002 108.452 12.1844Z" fill="#FDC82E"/>
<path d="M111.777 3.65591C111.758 3.28901 111.736 2.87318 111.609 2.46959C111.523 2.20542 111.384 1.97549 111.263 1.77736C111.092 1.48139 110.892 1.2319 110.68 1.03866C110.538 0.89924 110.37 0.774496 110.168 0.659533C109.771 0.419823 109.339 0.260828 108.929 0.121405C108.361 -0.0644923 107.886 -0.150101 107.454 -0.147655C106.972 -0.152547 106.404 -0.13787 105.836 -0.00578512C105.521 0.0749336 105.265 0.145868 105.029 0.219248C104.782 0.280399 104.558 0.378238 104.317 0.488308C103.946 0.679098 103.663 0.855212 103.417 1.05089C103.295 1.15363 103.195 1.26615 103.1 1.37377L103.073 1.40557C102.847 1.65017 102.678 1.95103 102.559 2.1834L102.552 2.20052C102.364 2.63836 102.261 3.08598 102.242 3.53116C102.235 3.7195 102.257 3.90051 102.281 4.08396L102.288 4.1231C102.298 4.15489 102.303 4.18669 102.31 4.21849C102.32 4.26986 102.332 4.32856 102.352 4.3946C102.391 4.50712 102.449 4.60252 102.503 4.68324C102.659 4.93273 102.927 4.96698 103.105 4.98899C103.127 4.99144 103.149 4.99388 103.183 4.99877C103.234 5.00366 103.285 5.011 103.337 5.01834C103.461 5.03546 103.59 5.05014 103.732 5.05258C103.792 5.05258 103.851 5.05258 103.912 5.05258C104.039 5.05258 104.168 5.05258 104.292 5.04769C104.439 5.0428 104.578 5.01834 104.716 4.99388C105.219 4.94741 105.545 4.68568 105.682 4.23072C105.716 4.13043 105.738 4.03504 105.76 3.93964C105.787 3.81979 105.814 3.70483 105.862 3.60943C105.972 3.38195 106.189 3.18872 106.526 3.01994C106.816 2.87073 106.967 2.87318 107.325 2.95879C107.567 3.02483 107.788 3.16181 107.949 3.34282C107.969 3.36239 107.986 3.3844 108.005 3.40397C108.037 3.43821 108.071 3.47246 108.096 3.5067C108.161 3.5972 108.22 3.70238 108.261 3.78555C108.313 3.89073 108.354 3.99101 108.391 4.0913C108.425 4.18425 108.434 4.25763 108.417 4.31878C108.393 4.42885 108.33 4.54626 108.232 4.66122C108.132 4.78597 108.035 4.88626 107.935 4.97676C107.674 5.21402 107.357 5.38769 107.023 5.57114C106.94 5.61517 106.86 5.66164 106.772 5.71057C106.594 5.81819 106.413 5.94294 106.233 6.08236C105.601 6.52998 105.272 7.08034 105.133 7.91932C105.068 8.30335 105.058 8.6678 105.107 9.00536C105.153 9.29154 105.292 9.52391 105.504 9.66578C105.672 9.77341 105.843 9.83211 106.011 9.84679C106.072 9.85168 106.131 9.85413 106.189 9.85413C106.27 9.85413 106.35 9.84923 106.428 9.84679C106.484 9.84434 106.54 9.8419 106.599 9.83945C106.682 9.83945 106.762 9.837 106.845 9.837C106.964 9.837 107.086 9.837 107.201 9.82966C107.337 9.82477 107.481 9.8101 107.652 9.78074C108.081 9.72693 108.383 9.4701 108.422 9.12032C108.452 8.78032 108.5 8.4281 108.664 8.13947C108.759 7.97558 108.91 7.83371 109.049 7.70896C109.198 7.56954 109.373 7.45458 109.558 7.33228C109.607 7.30048 109.656 7.26868 109.705 7.23444L109.722 7.22221C110.109 6.93358 110.509 6.63272 110.851 6.25847C111.043 6.06524 111.216 5.82797 111.399 5.5051C111.56 5.21402 111.67 4.94252 111.733 4.6759C111.777 4.49245 111.797 4.32856 111.792 4.17936C111.792 4.00814 111.792 3.82468 111.777 3.64857V3.65591ZM109.127 6.77459C109.032 6.83574 108.934 6.89933 108.839 6.97271C108.066 7.5671 107.818 8.01472 107.725 8.976V8.99557V9.01514C107.725 9.02248 107.725 9.02737 107.725 9.02737C107.681 9.06651 107.501 9.09341 107.42 9.1032C107.22 9.1301 107.016 9.13255 106.801 9.13255C106.647 9.13255 106.487 9.13255 106.328 9.14478C106.165 9.15211 106.031 9.15456 105.936 9.10075L105.914 9.08852C105.821 9.04449 105.799 8.86104 105.794 8.78522C105.784 8.61155 105.779 8.38162 105.816 8.15169C105.872 7.72853 105.987 7.39587 106.16 7.13415C106.274 6.96782 106.44 6.81128 106.684 6.63272C106.845 6.50797 107.018 6.39056 107.191 6.29027L107.32 6.21934C107.532 6.10437 107.749 5.98697 107.957 5.84999C108.147 5.72769 108.788 5.28007 109.042 4.69547C109.22 4.29921 109.12 3.95921 108.983 3.65102C108.878 3.41375 108.754 3.1667 108.564 2.96124C108.315 2.66282 108.001 2.44023 107.654 2.31549C107.542 2.2739 107.43 2.25189 107.328 2.23232C107.179 2.20297 107.003 2.17606 106.813 2.19319C106.374 2.24455 106.004 2.48426 105.762 2.66038C105.433 2.90253 105.199 3.25231 105.104 3.65102L105.087 3.73173C105.055 3.8736 105.024 4.00814 104.972 4.11821C104.933 4.19403 104.87 4.26497 104.668 4.28453L104.553 4.30166C104.468 4.31633 104.385 4.33101 104.312 4.33345C104.114 4.34079 103.905 4.34324 103.673 4.33835C103.578 4.33101 103.483 4.31878 103.388 4.30655C103.332 4.29921 103.276 4.29187 103.22 4.28698C103.198 4.28209 103.176 4.27964 103.151 4.2772C103.129 4.27475 103.098 4.26986 103.081 4.26741C103.059 4.23317 103.039 4.20137 103.025 4.16957C103.015 4.13533 103.01 4.10108 103.003 4.06684C102.995 4.0277 102.988 3.98857 102.978 3.94943C102.966 3.85159 102.946 3.7562 102.932 3.67548C102.937 3.44066 102.976 3.18872 103.049 2.9221C103.1 2.72887 103.154 2.57966 103.21 2.46225C103.285 2.32038 103.366 2.18585 103.451 2.05621C103.49 1.99506 103.541 1.9388 103.6 1.87276L103.627 1.84341C103.7 1.76024 103.775 1.67463 103.846 1.60859C103.968 1.50341 104.112 1.41535 104.263 1.3224L104.329 1.28327C104.502 1.17809 104.695 1.08514 104.929 0.989743C105.007 0.955499 105.094 0.93104 105.182 0.90658C105.263 0.884565 105.343 0.860107 105.424 0.835647C105.477 0.818525 105.531 0.803848 105.58 0.789172L105.733 0.74759C105.857 0.715792 105.979 0.681546 106.099 0.65464C106.423 0.591043 106.767 0.556798 107.14 0.554352C107.191 0.554352 107.242 0.554352 107.293 0.554352C107.411 0.554352 107.52 0.554354 107.62 0.5568C107.815 0.573923 107.974 0.595934 108.115 0.62284C108.561 0.718235 108.995 0.879674 109.315 1.00687C109.629 1.14384 109.985 1.31996 110.253 1.59147C110.409 1.74067 110.556 1.9388 110.709 2.20786L110.716 2.22009C110.86 2.44268 110.955 2.66772 110.997 2.88052C111.068 3.29879 111.097 3.75375 111.087 4.26986C111.06 4.55604 110.958 4.84957 110.765 5.18712C110.658 5.36812 110.526 5.57603 110.356 5.74725C110.207 5.90625 110.044 6.07258 109.853 6.21934C109.666 6.37344 109.466 6.52753 109.246 6.68408C109.207 6.70854 109.168 6.73545 109.129 6.75991L109.127 6.77459Z" fill="black"/>
<path d="M108.337 10.8729C108.259 10.7824 108.173 10.7017 108.086 10.6332C107.99 10.5598 107.886 10.4913 107.776 10.4375C107.566 10.3299 107.347 10.2663 107.125 10.2443C107.01 10.232 106.893 10.232 106.779 10.2394H106.762C106.706 10.2394 106.652 10.2394 106.593 10.2467C106.481 10.259 106.369 10.2834 106.247 10.3225C106.089 10.3739 105.938 10.4497 105.794 10.5451C105.591 10.6821 105.418 10.8533 105.277 11.0588C105.14 11.2569 105.04 11.4844 104.987 11.7192C104.936 11.9516 104.923 12.184 104.955 12.4114C104.987 12.6414 105.058 12.8615 105.165 13.067C105.277 13.2773 105.431 13.473 105.613 13.6296C105.791 13.7837 105.996 13.9011 106.216 13.9818L106.23 13.9867C106.267 13.9989 106.308 14.0136 106.347 14.0234C106.52 14.0723 106.698 14.0968 106.876 14.0968C106.932 14.0968 106.988 14.0968 107.045 14.0894C107.279 14.0699 107.515 14.0038 107.727 13.8986C107.947 13.7886 108.142 13.6418 108.305 13.4632C108.466 13.2871 108.59 13.0866 108.676 12.8664C108.763 12.6414 108.807 12.4066 108.81 12.1693C108.81 11.9394 108.773 11.7143 108.695 11.4966C108.615 11.2692 108.49 11.0612 108.329 10.8753L108.337 10.8729ZM107.888 12.8591C107.856 12.9055 107.82 12.9496 107.786 12.9863C107.749 13.0254 107.708 13.0645 107.671 13.0963C107.63 13.1306 107.583 13.1648 107.542 13.1917C107.496 13.2211 107.449 13.248 107.403 13.27C107.354 13.292 107.305 13.3116 107.252 13.3287C107.205 13.3434 107.152 13.3556 107.105 13.3654C107.054 13.3752 107.001 13.3801 106.949 13.385C106.898 13.3874 106.845 13.385 106.793 13.385C106.737 13.3801 106.679 13.3727 106.623 13.3605C106.572 13.3483 106.525 13.336 106.479 13.3214L106.435 13.2994H106.42C106.384 13.2847 106.347 13.2676 106.313 13.2504C106.264 13.2235 106.216 13.1966 106.174 13.1673C106.13 13.1355 106.086 13.1012 106.047 13.067C106.006 13.0278 105.967 12.9887 105.935 12.9496C105.901 12.908 105.869 12.864 105.84 12.8199C105.811 12.7735 105.787 12.727 105.762 12.6756C105.743 12.6316 105.723 12.5851 105.708 12.5386C105.691 12.4848 105.677 12.431 105.667 12.3797C105.657 12.3283 105.652 12.2745 105.648 12.2207C105.645 12.1693 105.648 12.1106 105.648 12.0543C105.652 12.0054 105.66 11.9491 105.669 11.9002C105.682 11.844 105.696 11.7902 105.713 11.7388C105.733 11.685 105.755 11.6336 105.779 11.5847C105.806 11.5358 105.835 11.4869 105.865 11.4428C105.896 11.3963 105.933 11.3523 105.969 11.3107C106.006 11.2716 106.045 11.2325 106.086 11.2007C106.128 11.1664 106.172 11.1346 106.213 11.1077C106.259 11.0784 106.308 11.0515 106.355 11.0294C106.413 11.0025 106.472 10.9781 106.528 10.961C106.572 10.9463 106.618 10.9341 106.664 10.9243C106.706 10.9145 106.745 10.9071 106.786 10.8998L106.815 10.8949C106.849 10.8949 106.881 10.8949 106.913 10.8949C106.971 10.8998 107.027 10.9071 107.081 10.9194C107.108 10.9243 107.142 10.9341 107.174 10.9414C107.203 10.9487 107.235 10.961 107.262 10.9683C107.303 10.983 107.342 10.9977 107.379 11.0172L107.42 11.0392C107.469 11.0661 107.518 11.093 107.559 11.1224C107.61 11.1591 107.659 11.1982 107.703 11.2398C107.744 11.2765 107.783 11.3181 107.817 11.3597C107.852 11.4037 107.886 11.4477 107.912 11.4917C107.942 11.5358 107.966 11.5847 107.988 11.6263C108.01 11.6752 108.029 11.7241 108.047 11.7706C108.064 11.822 108.076 11.8758 108.086 11.9247C108.095 11.9785 108.103 12.0323 108.105 12.0837C108.108 12.1375 108.105 12.1913 108.105 12.2427C108.1 12.2965 108.093 12.3503 108.083 12.4017C108.071 12.4579 108.056 12.5117 108.039 12.5631C108.02 12.6169 107.995 12.6707 107.971 12.7196C107.947 12.7686 107.917 12.815 107.888 12.8591Z" fill="black"/>
<path d="M148.628 52.808C147.993 51.2198 143.153 46.3137 140.799 45.7983C138.702 43.759 128.774 53.7001 128.181 54.8151C123.703 58.9506 118.576 87.3836 118.47 88.1493C117.218 88.1592 116.109 88.2583 114.862 88.3946C114.027 88.5185 103.091 90.642 101.227 102.719C101.259 103.936 102.252 106.713 102.681 107.853C102.696 107.732 103.923 103.958 104.42 102.88C105.186 101.235 105.887 100.08 107.201 98.8312C108.11 97.8649 110.273 96.0759 112.997 96.5764C115.121 97.2925 118.08 98.2663 120.006 99.4259C122.674 100.975 132.874 104.57 134.323 105.051C136.21 105.534 141.214 102.097 142.298 101.014C142.224 100.935 134.281 89.8962 133.612 88.3971C133.454 88.4788 136.097 84.7547 136.59 84.1501C136.598 84.0212 134.585 71.8724 134.56 70.8218C134.407 64.5083 137.457 61.4111 138.198 61.0121C138.994 60.5884 139.796 60.0433 140.088 59.1463C140.273 58.403 141.933 54.5822 142.429 57.5779C141.241 58.7771 143.609 58.7647 144.047 58.6607C144.489 58.4847 146.889 57.4317 146.946 57.6522C147.065 58.2048 148.509 59.3421 148.956 59.6221C149.072 58.1701 149.742 56.4777 149.794 55.0207C149.636 54.9291 148.586 52.9468 148.623 52.813L148.628 52.808Z" fill="white"/>
<path d="M204.362 101.163C202.559 83.3698 197.195 59.2754 180.263 51.0787C178.452 50.2016 174.884 49.6689 174.387 47.5156C170.376 48.9751 166.645 50.3156 165 51.9931C164.328 52.6769 165.331 53.4971 164.731 54.2826C163.352 56.0864 161.915 58.2074 159.287 60.8711C151.957 68.3071 140.186 80.1982 133.805 87.5474C134.205 90.5406 143.239 102.989 145.128 101.091C147.396 98.8166 150.917 97.5231 151.463 95.0825C151.893 93.1671 156.746 88.9201 157.516 90.4465C161.278 97.8948 161.426 106.505 162.799 114.506C164.328 123.407 175.306 123.067 181.572 125.074C185.847 126.514 188.773 129.155 193.271 130C194.456 130.02 196.8 130.553 197.615 130.399C202.465 121.608 204.723 111.159 204.362 101.163ZM184.172 53.6433L184.192 53.6582C184.185 53.6532 184.177 53.6458 184.17 53.6408L184.172 53.6433Z" fill="#FDC82E"/>
<path d="M150.643 54.7333L150.641 54.7305L150.643 54.7333Z" fill="#BF5B30"/>
<path d="M184.191 53.6588L184.172 53.6445C184.172 53.6445 184.186 53.6564 184.193 53.6612L184.191 53.6588Z" fill="#BDCBFC"/>
<path d="M167.104 152.672C164.034 152.848 160.974 153.678 158.314 155.239C157.171 155.938 156.059 156.711 155.081 157.632C154.118 158.567 153.296 159.635 152.456 160.678C151.772 161.513 151.15 162.387 150.586 163.312C150.547 163.393 150.461 163.527 150.369 163.681C150.448 163.941 150.527 164.201 150.609 164.459C150.974 163.889 151.392 163.349 151.794 162.804C152.192 162.268 152.614 161.753 153.049 161.25C153.987 160.172 154.825 159.109 155.911 158.133C159.45 155.075 163.607 153.732 168.228 153.606C168.366 153.579 168.465 153.509 168.529 153.425C168.247 153.276 167.968 153.128 167.689 152.977C167.492 152.875 167.294 152.776 167.097 152.674L167.104 152.672Z" fill="black"/>
<path d="M168.198 153.618C168.218 153.613 168.238 153.61 168.256 153.605C168.248 153.605 168.241 153.605 168.233 153.605C168.206 153.61 168.181 153.618 168.151 153.62C168.166 153.62 168.183 153.62 168.198 153.618Z" fill="black"/>
<path d="M233.609 176.694C233.549 176.635 233.485 176.58 233.426 176.523C233.369 176.469 233.317 176.414 233.263 176.355C233.201 176.281 233.142 176.204 233.087 176.124C233.023 176.028 232.964 175.931 232.895 175.839C232.803 175.711 232.707 175.587 232.616 175.458C232.388 175.133 232.169 174.804 231.939 174.482C231.692 174.13 231.438 173.783 231.178 173.441C230.912 173.089 230.628 172.745 230.348 172.403C230.084 172.078 229.82 171.756 229.563 171.426C229.412 171.233 229.262 171.037 229.116 170.839C228.993 170.676 228.872 170.512 228.758 170.344C228.691 170.245 228.605 170.118 228.521 169.989C228.422 169.836 228.318 169.675 228.22 169.509C227.76 168.748 227.353 167.96 226.938 167.172C226.515 166.367 226.096 165.559 225.688 164.744C225.444 164.248 225.167 163.696 224.895 163.143C224.611 162.566 224.335 161.983 224.056 161.404C223.653 160.566 223.238 159.736 222.803 158.916C222.594 158.522 222.374 158.133 222.151 157.744C221.927 157.352 221.672 156.976 221.413 156.604C221.285 156.418 221.146 156.24 221.01 156.061C220.889 155.9 220.766 155.739 220.638 155.583C220.475 155.385 220.309 155.192 220.141 154.998C220.005 154.845 219.867 154.689 219.724 154.543C219.627 154.443 219.529 154.347 219.43 154.248C219.358 154.176 219.279 154.106 219.205 154.037C219.047 153.888 218.884 153.742 218.711 153.611C218.615 153.534 218.519 153.455 218.417 153.383C218.314 153.309 218.21 153.237 218.106 153.162C217.928 153.036 217.741 152.92 217.555 152.806C216.777 152.327 215.96 151.919 215.135 151.534C214.337 151.163 213.51 150.853 212.66 150.63C212.238 150.519 211.811 150.417 211.381 150.34C211.171 150.301 210.964 150.263 210.751 150.241C210.522 150.216 210.289 150.201 210.057 150.189C209.623 150.167 209.185 150.172 208.751 150.174C208.326 150.174 207.904 150.179 207.479 150.182C207.047 150.187 206.614 150.194 206.182 150.211C205.72 150.229 205.259 150.246 204.799 150.296C204.577 150.318 204.352 150.343 204.132 150.377C203.91 150.412 203.688 150.449 203.466 150.491C203.033 150.571 202.601 150.655 202.166 150.727C201.724 150.801 201.28 150.868 200.833 150.922C200.388 150.974 199.941 151.019 199.497 151.061C198.625 151.14 197.751 151.205 196.876 151.267C196.469 151.294 196.061 151.316 195.651 151.334C195.209 151.351 194.77 151.373 194.33 151.413C193.918 151.453 193.51 151.51 193.103 151.582C192.91 151.616 192.717 151.643 192.522 151.673C192.441 151.772 192.359 151.871 192.275 151.968C192.312 151.983 192.352 151.995 192.394 152.003C192.495 152.023 192.596 152.04 192.7 152.052C192.912 152.075 193.125 152.072 193.337 152.065C193.772 152.045 194.207 152.03 194.641 152.03C195.103 152.03 195.565 152.035 196.027 152.03C196.449 152.025 196.871 152.013 197.291 151.993C198.193 151.953 199.094 151.914 199.996 151.857C200.22 151.842 200.445 151.824 200.672 151.805C200.895 151.787 201.117 151.77 201.339 151.743C201.786 151.691 202.231 151.629 202.675 151.562C203.115 151.495 203.554 151.416 203.994 151.346C204.404 151.282 204.816 151.242 205.231 151.212C206.061 151.165 206.894 151.155 207.726 151.153C208.126 151.153 208.528 151.153 208.929 151.153C209.334 151.153 209.739 151.158 210.144 151.18C210.356 151.195 210.568 151.21 210.778 151.242C210.978 151.274 211.176 151.309 211.376 151.349C211.714 151.418 212.05 151.5 212.386 151.589C212.715 151.676 213.036 151.78 213.357 151.889C213.72 152.018 214.115 152.174 214.505 152.35C214.915 152.536 215.32 152.731 215.723 152.934C215.975 153.066 216.286 153.222 216.587 153.398C216.898 153.579 217.205 153.767 217.503 153.968C217.666 154.084 217.829 154.201 217.985 154.322C218.133 154.436 218.274 154.557 218.415 154.676C218.62 154.867 218.827 155.058 219.02 155.264C219.21 155.467 219.395 155.67 219.578 155.878C219.788 156.133 219.998 156.389 220.195 156.651C220.405 156.931 220.613 157.211 220.81 157.499C220.964 157.732 221.117 157.964 221.255 158.205C221.408 158.472 221.561 158.742 221.712 159.013C221.986 159.506 222.24 160.009 222.497 160.512C222.502 160.524 222.507 160.536 222.515 160.546C222.576 160.673 222.653 160.824 222.727 160.973C223.132 161.79 223.517 162.615 223.92 163.433C224.312 164.233 224.705 165.031 225.11 165.827C225.518 166.629 225.938 167.427 226.357 168.228C226.567 168.627 226.782 169.02 227 169.414C227.217 169.806 227.449 170.192 227.698 170.564L227.708 170.579C227.792 170.703 227.874 170.827 227.958 170.951C228.141 171.221 228.348 171.498 228.56 171.771C228.793 172.071 229.025 172.368 229.264 172.663C229.553 173.017 229.842 173.372 230.129 173.731C230.39 174.06 230.642 174.4 230.889 174.739C231.129 175.071 231.364 175.408 231.596 175.748C231.704 175.906 231.813 176.065 231.927 176.221C231.996 176.315 232.067 176.409 232.134 176.506C232.272 176.717 232.411 176.92 232.584 177.106C232.64 177.168 232.697 177.225 232.759 177.282C232.806 177.326 232.858 177.368 232.902 177.415C232.905 177.42 232.91 177.425 232.912 177.43C232.954 177.5 232.989 177.571 233.026 177.641C233.112 177.802 233.285 177.886 233.458 177.886C233.544 177.886 233.633 177.864 233.707 177.819C233.818 177.755 233.902 177.646 233.937 177.519C233.974 177.386 233.949 177.254 233.888 177.133C233.806 176.979 233.725 176.823 233.599 176.699L233.609 176.694Z" fill="black"/>
<path d="M147.541 98.6959C147.541 98.6959 147.541 98.6959 147.544 98.6934C147.544 98.6934 147.541 98.6959 147.539 98.6985L147.541 98.6959Z" fill="black"/>
<path d="M147.539 98.6934C147.537 98.6934 147.535 98.6972 147.533 98.6992C147.533 98.6992 147.537 98.6953 147.539 98.6953V98.6934Z" fill="black"/>
<path d="M148.077 98.2057C148.077 98.2057 148.077 98.2057 148.08 98.2031C148.08 98.2031 148.075 98.2057 148.075 98.2083C148.075 98.2083 148.075 98.2083 148.077 98.2083V98.2057Z" fill="black"/>
<path d="M148.159 98.1289C148.159 98.1289 148.156 98.1315 148.154 98.134H148.156L148.159 98.1289Z" fill="black"/>
<path d="M148.168 98.1183C148.168 98.1183 148.18 98.1091 148.187 98.1022C148.187 98.1022 148.189 98.1 148.191 98.0977C148.184 98.1045 148.177 98.1114 148.168 98.116V98.1183Z" fill="black"/>
<path d="M152.975 171.834C152.747 171.117 151.11 170.077 150.984 169.973C150.89 170.154 150.782 170.325 150.648 170.483C149.729 171.68 148.139 172.161 146.692 172.163C145.257 172.143 143.861 171.866 142.528 171.392C142.476 172.314 142.414 173.233 142.412 174.155C142.446 174.931 142.35 175.701 142.086 176.432C141.663 177.654 141.152 179.029 139.937 179.639C139.248 180.038 138.45 180.033 137.682 180.09C136.996 180.174 136.413 180.288 135.79 180.563C135.447 180.721 135.153 181.036 135.015 181.393C134.926 181.705 135.057 182.007 135.175 182.292C135.59 183.098 136.282 183.796 137.129 184.116C138.008 184.572 138.989 184.703 139.962 184.79C140.72 184.907 141.466 184.77 142.197 184.567C143.125 184.334 144.029 184.099 144.634 183.328C144.931 182.914 145.111 182.431 145.326 181.97C145.837 180.873 146.588 179.921 147.408 179.046C148.658 177.562 150.488 176.906 151.876 175.632C152.597 174.616 153.306 173.097 152.975 171.831V171.834Z" fill="#6F479F"/>
<path d="M137.729 172.646C138.781 170.711 136.741 168.198 136.724 168.087C136.045 167.584 135.383 167.051 134.741 166.496C134.309 167.596 133.173 168.174 132.212 168.734C131.76 169.043 131.256 169.246 130.725 169.363C130.589 169.403 130.453 169.445 130.315 169.474C130.3 169.531 130.283 169.586 130.271 169.643C130.196 170.02 130.145 170.401 130.09 170.78C129.945 171.692 130.031 172.619 129.675 173.461C128.522 176.199 122.619 176.204 122.372 176.194C121.767 176.174 121.157 176.155 120.604 176.41C120.495 176.462 119.888 176.834 119.927 177.423C119.977 178.152 120.579 178.816 121.34 178.955C122.422 179.173 127.065 180.226 129.683 179.482C129.737 179.468 129.791 179.445 129.846 179.425C129.935 179.393 130.021 179.361 130.105 179.316C130.105 179.316 130.11 179.316 130.113 179.314C130.204 179.267 130.285 179.197 130.357 179.123C130.522 178.955 130.658 178.761 130.779 178.558C130.923 178.315 131.066 178.075 131.202 177.827C131.212 177.81 131.219 177.795 131.229 177.78C132.481 175.768 133.311 175.575 133.671 175.441C134.884 174.963 137.043 173.917 137.729 172.653V172.646Z" fill="#6F479F"/>
<path d="M197.486 130.845C197.486 130.721 186.506 127.837 181.571 125.071C165.002 121.152 164.474 119.372 162.179 114.568C161.335 111.585 161.377 107.853 161.11 104.776C155.913 102.459 144.281 101.262 144.108 101.17C143.392 101.659 136.02 105.229 135.286 105.326C134.256 105.472 114.225 95.677 112.414 96.2147C102.854 99.0518 102.501 107.576 102.726 117.715C105.971 141.158 118.188 159.362 120.547 162.393C121.026 163.005 127.485 169.479 129.784 169.187C132.389 168.855 133.276 167.175 133.572 166.231C133.684 165.874 134.069 165.681 134.422 165.8C137.615 166.875 146.212 175.855 150.935 169.197C151.604 167.133 149.285 164.367 149.033 163.522C149.033 163.522 149.033 163.525 149.033 163.527C146.729 155.784 143.995 148.118 140.134 141.021C135.726 132.914 140.263 135.501 141.308 136.157C142.942 137.21 167.729 152.583 169.319 153.423C171.428 154.585 179.388 156.835 181.381 156.401C192.031 154.084 192.952 150.207 193.732 149.129C198.961 141.888 197.509 131.34 197.486 130.847V130.845Z" fill="#3F3D56"/>
<path d="M148.161 98.1286C148.161 98.1286 148.163 98.1286 148.165 98.1262C148.165 98.1262 148.165 98.1262 148.168 98.1262C148.168 98.1262 148.173 98.1215 148.175 98.1191C148.173 98.1215 148.168 98.1239 148.165 98.1286H148.163H148.161Z" fill="#B2B2D1"/>
<path d="M143.379 33.282C143.366 33.2793 143.351 33.2741 143.338 33.2715C143.351 33.2741 143.364 33.2793 143.377 33.282H143.379Z" fill="#B2B2D1"/>
<path d="M175.97 123.844C175.985 123.849 175.998 123.854 176.013 123.857H176.016C175.998 123.851 175.985 123.846 175.97 123.844Z" fill="black"/>
<path d="M196.635 142.966L196.637 142.963H196.635V142.966Z" fill="black"/>
<path d="M176.041 123.962C176.026 123.957 176.013 123.954 175.997 123.949C176.013 123.954 176.028 123.957 176.043 123.962C176.043 123.962 176.043 123.962 176.041 123.962Z" fill="black"/>
<path d="M143.379 33.282C143.366 33.2793 143.351 33.2741 143.338 33.2715C143.351 33.2741 143.364 33.2793 143.377 33.282H143.379Z" fill="black"/>
<path d="M147.543 98.6926C147.543 98.6926 147.548 98.6901 147.548 98.6875C147.548 98.6875 147.548 98.6875 147.546 98.6901L147.543 98.6926Z" fill="black"/>
<path d="M148.087 98.1975C148.087 98.1975 148.094 98.1903 148.099 98.1855C148.092 98.1903 148.087 98.1975 148.08 98.2022C148.08 98.2022 148.08 98.2022 148.077 98.2046C148.08 98.2022 148.085 98.1998 148.087 98.1975Z" fill="black"/>
<path d="M148.164 98.1191C148.164 98.1191 148.164 98.1191 148.162 98.1191C148.162 98.1191 148.16 98.1191 148.159 98.121L148.164 98.1152V98.1191Z" fill="black"/>
<path d="M148.191 98.1016C148.191 98.1016 148.188 98.1041 148.186 98.1067L148.191 98.1016Z" fill="black"/>
<path d="M197.939 130.508C197.939 130.508 197.941 130.499 197.943 130.494C197.943 130.494 197.943 130.496 197.943 130.499C197.943 130.501 197.943 130.503 197.941 130.505L197.939 130.508Z" fill="black"/>
<path d="M197.939 130.503C197.939 130.503 197.939 130.501 197.939 130.499C197.939 130.494 197.941 130.492 197.943 130.487C197.943 130.487 197.943 130.492 197.943 130.494C197.943 130.492 197.943 130.489 197.946 130.484V130.489C197.946 130.494 197.943 130.496 197.941 130.501L197.939 130.503Z" fill="black"/>
<path d="M197.941 130.506C197.941 130.506 197.941 130.503 197.941 130.501C197.941 130.501 197.941 130.496 197.941 130.494C197.941 130.499 197.938 130.501 197.936 130.506H197.941Z" fill="black"/>
<path d="M150.238 164.801C150.391 164.826 150.477 164.682 150.542 164.566C150.564 164.531 150.589 164.496 150.611 164.462C150.532 164.204 150.45 163.944 150.371 163.684C150.124 164.102 149.83 164.677 150.238 164.801Z" fill="black"/>
<path d="M167.993 152.64C167.696 152.645 167.4 152.657 167.104 152.674C167.301 152.774 167.499 152.875 167.696 152.977C167.975 153.128 168.254 153.279 168.536 153.425C168.78 153.103 168.543 152.508 167.995 152.64H167.993Z" fill="black"/>
<path d="M192.515 151.674C192.433 151.686 192.34 151.691 192.263 151.726C192.209 151.751 192.172 151.78 192.137 151.827C192.137 151.827 192.132 151.832 192.13 151.835C192.041 151.877 191.952 151.919 191.863 151.961C191.809 151.986 191.846 152.075 191.9 152.048C191.984 152.008 192.063 151.964 192.147 151.919C192.152 151.919 192.157 151.917 192.162 151.914C192.162 151.914 192.167 151.914 192.169 151.914C192.172 151.914 192.174 151.917 192.177 151.919C192.209 151.939 192.243 151.954 192.275 151.969C192.359 151.872 192.441 151.775 192.522 151.674C192.52 151.674 192.517 151.674 192.515 151.674Z" fill="black"/>
<path d="M173.58 45.9804C172.755 45.4427 171.91 44.9472 171.224 44.2484C171.206 44.2311 171.191 44.2113 171.177 44.1939C170.888 43.8718 170.618 43.5274 170.379 43.1681C170.374 43.1631 170.371 43.1557 170.367 43.1507C170.29 43.0368 170.218 42.9203 170.147 42.8038C170.137 42.7865 170.127 42.7667 170.115 42.7493C170.053 42.6428 169.991 42.5362 169.934 42.4272C169.915 42.3901 169.897 42.3529 169.878 42.3157C169.831 42.224 169.784 42.1324 169.742 42.0382C169.712 41.9738 169.687 41.9094 169.66 41.8449C169.631 41.7755 169.598 41.7062 169.571 41.6368C169.517 41.5005 169.47 41.3642 169.423 41.2255C169.09 40.1774 169.055 39.0574 169.176 37.9696C169.332 36.2797 170.253 33.9357 168.993 32.4961C168.455 31.9906 167.657 32.0972 167.018 32.3226C166.284 32.6026 165.548 32.9049 164.886 33.3311C164.397 33.6582 164.308 33.5046 163.224 34.7583C163.197 34.798 163.165 34.8352 163.128 34.8699C162.794 35.1845 162.086 35.3183 161.713 35.2539C160.273 35.2044 159.11 34.0522 158.551 32.791C158.173 31.951 157.892 31.0391 157.292 30.323C156.027 28.928 154.005 29.5549 152.436 29.9786C150.048 30.5535 147.24 29.7977 145.457 28.1079C145.215 27.8849 144.988 27.6445 144.78 27.3843C144.145 26.5964 143.689 25.6523 143.558 24.6562C143.54 24.7232 143.523 24.7876 143.508 24.8545C143.454 25.0824 143.414 25.3154 143.377 25.5483C143.323 25.9274 143.291 26.3065 143.276 26.6905C143.271 27.0622 143.286 27.4314 143.323 27.8006C143.365 28.1426 143.424 28.4795 143.506 28.8165C143.587 29.1287 143.681 29.4385 143.802 29.7408C143.879 29.934 144.037 30.5188 144.17 31.0267C144.316 31.5867 144.294 32.1765 144.106 32.7241C144.037 32.9248 143.973 33.1032 143.931 33.1849C143.284 34.4461 142.498 35.6628 141.873 36.9314C141.525 37.6475 141.056 38.9707 141.77 39.5852C141.775 39.5852 141.918 39.7413 142.288 39.7784C142.39 39.7883 142.493 39.7908 142.594 39.8032C142.585 39.8032 142.575 39.8007 142.565 39.7982C142.587 39.8007 142.609 39.8032 142.632 39.8057C142.636 39.8057 142.644 39.8057 142.649 39.8057C142.656 39.8057 142.664 39.8057 142.669 39.8082C142.669 39.8082 142.671 39.8082 142.674 39.8082C142.674 39.8082 142.678 39.8082 142.681 39.8082C142.693 39.8082 142.708 39.8131 142.72 39.8156C142.76 39.823 142.802 39.8305 142.841 39.8354C142.837 39.8354 142.832 39.8354 142.829 39.8354C142.834 39.8354 142.837 39.8354 142.841 39.8354C142.829 39.8354 142.817 39.8329 142.802 39.8305H142.807C142.859 39.8379 142.911 39.8478 142.962 39.8602C142.967 39.8602 142.972 39.8602 142.977 39.8627C142.995 39.8676 143.012 39.8751 143.029 39.88C143.832 40.0163 144.506 40.6878 144.316 42.4644C144.281 42.7865 144.259 43.1086 144.242 43.4307C144.242 43.4307 144.244 43.4332 144.247 43.4357C144.965 45.076 147.082 44.7812 148.295 43.8891C148.522 43.7405 148.843 43.8272 148.981 44.0527C149.394 44.905 147.625 45.3411 147.042 45.4997C146.348 45.6856 145.598 45.6707 144.931 45.4031C144.837 45.3659 144.743 45.3238 144.654 45.2742C144.513 45.1875 144.343 45.0612 144.173 44.915C144.17 44.9744 144.168 45.0314 144.165 45.0909C144.136 45.4031 144.131 45.7079 144.143 46.0126C144.148 46.025 144.15 46.0349 144.15 46.0424C144.178 46.4983 144.247 46.9517 144.35 47.4077C144.36 47.4597 144.36 47.5068 144.355 47.5538C144.358 47.5984 144.355 47.6381 144.35 47.6777C144.849 48.042 145.242 48.5301 145.729 48.9117C146.04 49.2041 146.435 49.4048 146.67 49.774C146.697 49.8161 146.719 49.8582 146.741 49.9028C146.749 49.9177 146.754 49.9301 146.761 49.9449C146.776 49.9772 146.788 50.0069 146.8 50.0416C146.808 50.0589 146.813 50.0738 146.818 50.0911C146.83 50.1233 146.84 50.158 146.847 50.1903C146.852 50.2051 146.857 50.22 146.86 50.2373C146.86 50.2448 146.865 50.2497 146.865 50.2572C146.882 50.334 146.941 50.3934 147.018 50.4108C147.055 50.4207 147.089 50.4306 147.126 50.443C147.136 50.4455 147.146 50.4504 147.156 50.4529C147.186 50.4628 147.213 50.4727 147.243 50.4851C147.257 50.4901 147.272 50.4975 147.287 50.5025C147.312 50.5124 147.334 50.5223 147.359 50.5347C147.373 50.5421 147.388 50.5495 147.403 50.5545C147.428 50.5644 147.45 50.5768 147.475 50.5867C147.489 50.5941 147.504 50.6016 147.522 50.609C147.551 50.6239 147.578 50.6363 147.608 50.6511C147.63 50.661 147.652 50.6709 147.675 50.6833C147.687 50.6883 147.699 50.6957 147.712 50.7007C147.744 50.7156 147.774 50.7279 147.801 50.7403C148.134 50.8989 148.435 51.1021 148.71 51.3424C148.796 51.3722 148.882 51.3994 148.971 51.4193C149.937 51.5431 150.908 51.3747 151.866 51.2706C154.163 51.1393 156.383 50.2572 158.181 48.8225C159.648 47.6406 160.907 46.2158 161.957 44.6523C162.177 44.3351 162.347 43.9907 162.478 43.629C162.52 43.5249 162.57 43.4258 162.597 43.3168C162.666 43.0541 162.95 42.8955 163.209 42.9674C163.829 43.1854 163.488 43.8049 163.313 44.2261C162.928 45.1627 162.249 45.9358 161.658 46.7461C161.419 47.036 161.174 47.316 160.922 47.591C162.095 48.6837 163.101 49.9722 163.95 51.33C164.13 51.6323 164.296 51.9445 164.452 52.2592C164.461 52.2518 164.474 52.2444 164.486 52.2419C164.553 51.9173 164.708 51.6299 165.052 51.4564C165.938 50.9014 166.736 50.2101 167.657 49.7096C168.578 49.2338 169.512 48.7779 170.453 48.3418C171.09 48.0767 171.703 47.7422 172.365 47.5315C172.824 47.4027 173.271 47.2243 173.73 47.0905C173.829 47.0608 173.893 46.9691 173.888 46.87C173.777 46.5801 173.673 46.2852 173.585 45.9879L173.58 45.9804Z" fill="white"/>
<path d="M143.556 24.6523C143.538 24.7192 143.521 24.7837 143.506 24.8506C143.472 24.9968 143.442 25.1479 143.417 25.2966L144.094 26.3323C143.822 25.8045 143.632 25.2371 143.556 24.6523Z" fill="#BDCBFC"/>
<path d="M187.963 15.6979C187.645 11.1981 184.676 11.6218 184.834 10.3606C187.822 5.04815 178.717 0.171789 175.074 4.24781C173.883 3.34093 161.675 0.93496 162.784 11.5871C151.073 9.58505 135.489 26.2534 149.347 29.2342C150.66 29.5167 152.029 29.4795 153.315 29.093C157.645 27.7946 158.341 32.4529 160.759 34.6681C161.461 35.3098 162.671 34.3088 163.431 33.7414C168.121 30.2377 171.581 30.4434 169.527 38.09C169.272 40.7289 171.068 43.4842 173.36 44.8197C173.367 42.7954 174.777 38.1965 177.59 36.0259C180.697 26.7192 180.349 29.031 182.298 28.8056C192.31 27.3808 187.983 20.1109 187.961 15.7003L187.963 15.6979Z" fill="#6F479F"/>
<path d="M144.093 26.332C144.283 26.7037 144.515 27.0556 144.777 27.3802L144.093 26.332Z" fill="black"/>
<path d="M204.167 95.0349C203.935 93.3673 203.683 91.6998 203.418 90.0347C203.127 88.3646 202.697 86.7218 202.327 85.0666C201.445 80.8295 199.968 76.7585 198.573 72.675C198.509 72.4892 198.442 72.3033 198.375 72.12C198.005 71.0966 197.597 70.0882 197.061 69.1391C196.456 68.0588 195.871 66.9636 195.271 65.8758C194.443 64.3768 193.455 62.9718 192.539 61.5273C191.206 59.4657 189.766 57.4488 188.096 55.6424C186.963 54.4382 185.745 53.3083 184.402 52.3419C183.107 51.4326 180.825 50.9841 179.467 50.1961C178.561 49.6362 177.533 49.3215 176.54 48.9548C176.521 48.9473 176.501 48.9374 176.481 48.9225C176.217 48.7194 175.962 48.5063 175.743 48.256C175.372 47.8298 175.017 46.9997 174.861 46.6231C174.733 46.2936 174.612 45.9591 174.515 45.6171C174.473 45.4734 174.436 45.3297 174.404 45.186C174.256 44.289 174.399 43.3623 174.557 42.4752C174.777 41.4172 175.096 40.4112 175.52 39.4647C175.53 39.4498 175.54 39.4374 175.55 39.4226C175.985 38.8105 176.533 38.2902 176.955 37.6683C177.313 37.1553 177.605 36.5978 177.911 36.0552C178.805 34.6156 179.405 33.0248 179.899 31.4093C180.107 30.7402 180.277 30.0564 180.331 29.3551C180.339 29.2461 180.346 29.1371 180.351 29.0281C180.61 29.1247 180.882 29.1916 181.159 29.2337C181.388 29.2734 181.618 29.2833 181.85 29.2833C182.033 29.2833 182.218 29.2783 182.401 29.2758C182.952 29.2734 183.507 29.2312 184.029 29.033C185.009 28.644 185.98 28.1856 186.777 27.4819C188.222 26.4338 189.131 25.5913 189.521 23.7627C189.689 22.6105 189.706 19.4438 188.491 18.7922C188.546 18.6038 188.598 18.4131 188.637 18.2198C189.089 16.2251 188.901 13.9777 187.79 12.2259C187.316 11.4157 186.508 10.9325 185.77 10.4022C186.143 9.76296 186.328 9.032 186.276 8.28865C186.232 7.48584 186.108 6.67559 185.76 5.94711C185.175 4.62147 184.026 3.65512 182.749 3.02575C180.403 1.79179 177.306 1.33091 175.239 3.33052C175.118 3.44202 174.859 3.68237 174.725 3.91776C174.081 3.37016 173.308 2.97619 172.478 2.80027C171.087 2.45833 169.608 2.60699 168.245 3.0084C167.175 3.34043 166.2 3.89299 165.259 4.49262C164.525 4.9535 163.767 5.45154 163.243 6.16763C162.579 7.13894 162.127 8.35803 162.278 9.54987C162.327 9.93641 162.384 10.3279 162.502 10.6946C161.794 10.6946 161.085 10.7367 160.381 10.816C159.65 10.8978 158.921 11.0217 158.2 11.1828C157.022 11.4454 155.864 11.8047 154.743 12.2532C154.431 12.3795 154.068 12.5307 153.71 12.6918C152.621 13.1848 151.567 13.7646 150.564 14.4163C149.559 15.0705 148.593 15.8039 147.709 16.6166C146.798 17.4541 145.95 18.3585 145.209 19.3522C144.846 19.8403 144.508 20.3458 144.199 20.8686C143.886 21.4038 143.609 21.9563 143.362 22.5238C143.115 23.0912 142.918 23.6809 142.764 24.2806C142.683 24.6002 142.616 24.9248 142.562 25.2494C142.473 25.5294 142.471 25.9258 142.456 26.1092C142.327 27.4769 142.545 28.8645 142.989 30.1604C143.179 30.6758 143.579 31.3101 143.313 32.1501C143.278 32.2269 143.244 32.3038 143.207 32.3781C142.698 33.3816 142.52 33.7037 141.952 34.6825C141.414 35.6513 140.784 36.6077 140.529 37.7005C140.282 38.6371 140.354 39.8066 141.218 40.3988C141.441 40.5599 141.688 40.6317 141.947 40.6639C141.947 40.6639 141.949 40.6639 141.952 40.6664C141.952 40.6664 141.954 40.6664 141.957 40.6664C142.177 40.6937 142.406 40.6739 142.631 40.6912C143.135 40.7308 143.202 40.9762 143.246 41.1199C143.392 41.7889 143.31 42.3786 143.268 43.055C143.231 43.6076 143.209 44.1577 143.182 44.7102C143.179 44.7102 143.177 44.7152 143.177 44.7226C143.16 45.0175 143.147 45.3173 143.142 45.6171C143.137 45.8451 143.14 46.0755 143.152 46.3035C142.987 46.3927 142.967 46.4026 142.797 46.4943C142.792 46.4893 142.784 46.4844 142.779 46.4794C142.7 46.4175 142.619 46.3555 142.54 46.2936C142.527 46.2837 142.518 46.2762 142.505 46.2663C142.426 46.2068 142.35 46.1474 142.268 46.0904C142.261 46.0854 142.253 46.078 142.246 46.073C142.164 46.0136 142.083 45.9566 141.999 45.8996C141.982 45.8872 141.967 45.8773 141.949 45.8649C141.868 45.8104 141.784 45.7559 141.7 45.7038C141.685 45.6939 141.673 45.6865 141.658 45.6791C141.574 45.627 141.488 45.5775 141.404 45.5304C141.399 45.5279 141.394 45.5254 141.389 45.523C141.3 45.4759 141.211 45.4288 141.12 45.3867C141.102 45.3793 141.085 45.3693 141.068 45.3619C140.979 45.3198 140.887 45.2801 140.796 45.2454C140.779 45.238 140.762 45.2331 140.744 45.2256C140.648 45.1885 140.549 45.1538 140.45 45.124C139.949 44.9853 139.438 45.1711 138.944 45.2653C138.077 45.4462 137.277 45.8203 136.538 46.3035C134.308 47.5251 132.505 49.3809 130.683 51.1278C130.569 51.2418 130.455 51.3582 130.344 51.4747C129.964 51.8662 129.589 52.2651 129.228 52.6789C128.66 53.3306 128.131 54.0219 127.699 54.7727C127.06 55.9001 126.405 57.0176 125.894 58.2119C125.207 59.8349 124.652 61.5124 124.118 63.1924C123.219 66.1509 122.293 69.102 121.574 72.1101C120.46 76.6767 119.253 81.2334 118.611 85.8967C118.556 86.2832 118.509 86.6747 118.475 87.0662C118.448 87.2471 118.396 87.6039 118.396 87.6039C118.396 87.6039 118.346 87.8938 118.196 87.8963C116.986 87.9062 115.872 87.9037 114.666 88.0474C113.14 88.2903 111.676 88.8527 110.342 89.6332C109.166 90.327 108.087 91.172 106.971 91.95C105.232 93.2112 103.007 95.2926 102.392 97.3864C102.392 97.3913 102.392 97.3938 102.389 97.3963C101.653 99.3265 101.016 101.341 100.989 103.425C100.989 103.43 100.989 103.437 100.989 103.442C101.066 105.268 101.466 107.127 102.439 108.693C102.461 108.73 102.486 108.76 102.513 108.787C102.562 108.831 102.592 108.893 102.587 108.96C102.513 110.36 102.501 111.773 102.439 113.168C102.439 113.173 102.439 113.175 102.439 113.18C102.231 115.222 102.249 117.288 102.55 119.32C102.659 120.262 102.822 121.196 103.064 122.108C103.069 122.145 103.074 122.182 103.079 122.219C103.091 122.289 103.106 122.358 103.121 122.427C103.123 122.44 103.125 122.452 103.13 122.462C103.155 122.529 103.182 122.593 103.209 122.66C103.214 122.67 103.217 122.68 103.219 122.69C104.054 126.218 104.597 129.816 105.662 133.285C107.573 139.423 109.744 145.543 112.755 151.225C113.733 153.08 114.785 154.892 115.884 156.676C117.312 159.012 118.813 161.391 120.796 163.292C120.799 163.294 120.804 163.299 120.806 163.302C122.172 164.853 123.669 166.295 125.486 167.288C126.121 167.672 126.689 168.166 127.324 168.547C127.329 168.55 127.334 168.552 127.339 168.555C127.83 168.812 128.349 169.062 128.882 169.241C128.983 169.276 129.048 169.377 129.028 169.484C128.969 169.826 128.944 170.178 128.887 170.415C128.803 170.973 128.749 171.488 128.694 172.056C128.571 173.069 127.069 174.154 125.99 174.437C124.886 174.729 122.779 174.91 122.288 174.92C122.283 174.92 122.281 174.92 122.276 174.92C121.152 174.88 119.771 174.992 119.156 176.1C118.764 176.65 118.527 177.368 118.825 178.017C119.102 178.721 119.512 179.422 120.179 179.806C121.093 180.322 122.184 180.319 123.194 180.49C123.199 180.49 123.202 180.49 123.207 180.49C124.419 180.599 125.622 180.84 126.842 180.854C126.847 180.854 126.852 180.854 126.857 180.854C128.225 180.79 129.761 180.795 130.89 179.908C130.897 179.9 130.907 179.893 130.915 179.886C131.275 179.536 131.567 179.13 131.806 178.694C131.809 178.686 131.814 178.681 131.819 178.676C132.243 178.099 132.562 177.403 133.091 176.93C133.651 176.424 134.39 176.218 135.091 175.988C135.822 175.71 136.578 175.408 137.166 174.878C138.287 174.001 139.178 172.356 139.077 171.06C139.06 170.661 138.907 170.242 138.749 169.902C138.657 169.709 138.867 169.516 139.05 169.622C139.055 169.625 139.06 169.627 139.065 169.63C139.746 170.081 140.455 170.485 141.189 170.829C141.268 170.866 141.317 170.948 141.312 171.037C141.248 172.043 141.186 173.052 141.176 174.063C141.176 174.068 141.176 174.073 141.176 174.078C141.233 174.903 141.06 175.701 140.762 176.464C140.473 177.187 140.193 177.995 139.507 178.436C139.013 178.763 138.415 178.776 137.847 178.805C136.827 178.902 135.765 179.078 134.881 179.633C134.874 179.638 134.869 179.643 134.861 179.645C132.765 181.174 134.029 183.493 135.691 184.755C135.696 184.76 135.704 184.764 135.708 184.767C137.099 185.671 138.717 185.974 140.344 186.065C140.443 186.073 140.542 186.075 140.641 186.075C141.117 186.075 141.594 186.001 142.056 185.877C143.33 185.587 144.738 185.223 145.577 184.128C146.153 183.372 146.388 182.418 146.916 181.633C147.578 180.636 148.363 179.742 149.277 178.974C150.403 178.077 151.776 177.504 152.784 176.459C152.792 176.451 152.799 176.441 152.806 176.434C153.9 174.967 154.896 172.504 153.794 170.807C153.789 170.799 153.784 170.792 153.779 170.785C153.187 170.009 152.243 169.657 151.45 169.134C151.374 169.085 151.342 168.991 151.364 168.901C151.416 168.691 151.463 168.48 151.502 168.27C151.655 167.613 151.199 166.268 151.189 166.235C151.055 165.824 150.919 165.415 150.786 165.004C150.724 164.815 150.668 164.63 150.611 164.444C150.589 164.479 150.564 164.513 150.542 164.548C150.477 164.664 150.391 164.806 150.238 164.783C149.83 164.659 150.124 164.085 150.371 163.666C150.354 163.609 150.337 163.554 150.319 163.497C148.805 158.425 147.183 153.361 145.106 148.492C144.239 146.599 143.446 144.666 142.513 142.805C142.285 142.374 142.056 141.943 141.819 141.516C141.554 141.046 140.752 139.636 140.752 139.636C140.045 138.419 139.324 137.21 138.615 135.993C138.497 135.793 138.739 135.575 138.927 135.708C139.339 136.006 139.759 136.303 140.186 136.605C141.861 137.711 143.589 138.734 145.293 139.792C146.417 140.468 147.494 141.212 148.598 141.92C152.006 144.019 155.484 146.001 158.941 148.021C160.672 149.017 162.354 150.1 164.091 151.086C165.078 151.638 166.093 152.141 167.104 152.654C167.4 152.637 167.696 152.625 167.993 152.62C168.541 152.488 168.778 153.083 168.534 153.405C170.578 154.48 172.693 155.427 174.91 156.086C176.214 156.413 177.553 156.604 178.887 156.77C179.465 156.824 180.045 156.859 180.625 156.859C181.206 156.859 181.843 156.82 182.445 156.725C183.251 156.599 184.021 156.314 184.792 156.056C186.012 155.66 187.207 155.189 188.368 154.642C189.277 154.238 190.173 153.789 190.966 153.18C191.453 152.82 191.882 152.402 192.28 151.948C192.245 151.936 192.213 151.918 192.181 151.899C192.179 151.899 192.176 151.896 192.174 151.894C192.174 151.894 192.169 151.894 192.166 151.894C192.161 151.894 192.156 151.896 192.151 151.899C192.07 151.941 191.988 151.985 191.905 152.027C191.85 152.055 191.813 151.965 191.867 151.941C191.956 151.899 192.045 151.859 192.134 151.814C192.134 151.814 192.139 151.809 192.142 151.807C192.176 151.76 192.213 151.73 192.268 151.705C192.344 151.671 192.438 151.666 192.519 151.653C192.522 151.653 192.524 151.653 192.527 151.653C193.088 150.964 193.581 150.214 194.058 149.473C195.456 147.245 196.414 144.785 197.16 142.27C197.335 141.658 197.414 141.026 197.503 140.396C197.81 138.464 198.039 136.514 197.97 134.554C197.938 133.503 197.983 132.435 197.8 131.402C197.79 131.38 197.785 131.231 197.782 131.129C197.782 131.067 197.807 131.013 197.849 130.968C198.094 130.713 198.225 130.297 198.39 129.982C198.901 129.036 199.319 128.042 199.768 127.063C200.633 125.185 201.546 123.317 202.122 121.325C202.495 120.135 202.902 118.956 203.199 117.747C203.974 114.488 204.298 111.143 204.545 107.811C204.992 103.549 204.693 99.2571 204.169 95.0151L204.167 95.0349ZM188.766 22.9797C188.714 23.8172 188.417 24.6522 187.913 25.3237C187.511 25.8639 186.955 26.2455 186.424 26.6469C185.617 27.363 184.658 27.8561 183.656 28.2352C183.105 28.4136 182.52 28.4061 181.944 28.4012C181.811 28.4012 181.68 28.3987 181.549 28.4012C181.243 28.3714 180.941 28.3021 180.65 28.2079C180.554 28.1757 180.465 28.1237 180.376 28.0766C180.371 27.4522 180.326 26.8253 180.242 26.2058C180.277 26.2133 180.309 26.2182 180.344 26.2182C180.438 26.2182 180.534 26.1934 180.618 26.1439C182.32 25.6557 183.937 24.8182 185.256 23.6289C186.501 22.5089 187.58 21.161 188.212 19.6123C188.953 20.3804 188.773 21.9464 188.766 22.9846V22.9797ZM144.217 22.7245C144.34 22.4569 144.464 22.1917 144.602 21.9316C144.748 21.659 144.901 21.3889 145.061 21.1238C145.419 20.5514 145.805 20.0013 146.225 19.4711C146.718 18.8615 147.247 18.2817 147.808 17.7317C148.47 17.0949 149.168 16.5051 149.902 15.9551C150.69 15.3752 151.507 14.8475 152.359 14.3668C153.204 13.9009 154.076 13.4772 154.972 13.1179C155.009 13.1031 155.051 13.0857 155.093 13.0709H155.098C155.982 12.724 156.884 12.4291 157.805 12.1912C158.707 11.9657 159.62 11.7973 160.544 11.6932C161.29 11.6139 162.038 11.5767 162.789 11.5891C163.471 11.6065 164.15 11.661 164.826 11.765C164.836 11.765 164.846 11.77 164.856 11.77C164.856 11.77 164.864 11.77 164.868 11.77C164.881 11.77 164.893 11.775 164.906 11.775C165.417 11.8592 165.94 11.9781 166.459 12.1268C166.918 12.2656 167.37 12.4291 167.812 12.6224C168.188 12.7933 168.553 12.9841 168.906 13.1972C169.22 13.393 169.524 13.6036 169.813 13.8365C170.065 14.0422 170.307 14.2627 170.534 14.4981C170.687 14.6591 170.833 14.8276 170.971 15.0011C171.122 15.1894 171.413 15.2043 171.591 15.0531C171.776 14.8945 171.791 14.6195 171.643 14.4312C171.485 14.233 171.314 14.0422 171.137 13.8588C170.719 13.4227 170.21 13.0015 169.662 12.6348C168.706 12.0004 167.64 11.542 166.536 11.2323C166.247 11.153 165.958 11.0812 165.664 11.0192C165.535 10.992 165.409 10.9672 165.281 10.9449C165.204 10.9325 165.13 10.9176 165.054 10.9052C165.036 10.9028 165.022 10.9003 165.007 10.8978C164.933 10.8805 164.851 10.873 164.777 10.8631C164.498 10.8235 164.219 10.7913 163.94 10.7665C163.7 10.7442 163.461 10.7318 163.221 10.7194C162.824 9.42102 162.866 8.41998 163.357 7.46849C164.051 5.93224 165.676 5.20128 167.059 4.40342C168.489 3.68733 170.131 3.32061 171.727 3.54114C173.023 3.70467 174.236 4.37616 174.965 5.48128C175.515 6.22958 175.622 7.01505 175.538 7.91946C175.53 8.31839 175.271 8.9428 175.844 9.04935C176.081 9.08156 176.306 8.91059 176.338 8.67272C176.439 7.84017 176.521 6.97788 176.279 6.1602C176.029 5.43915 175.612 4.785 175.078 4.24484C175.172 4.17794 175.278 4.0813 175.389 3.9475C176.254 3.17937 177.385 2.68876 178.551 2.72593C180.657 2.71354 183.7 3.9921 184.762 5.89012C185.32 6.84408 185.508 8.01114 185.362 9.10634C185.281 9.55978 184.989 9.93393 184.836 10.3576C184.678 11.6189 187.644 11.1976 187.963 15.6949C188.138 17.9051 187.303 20.1475 185.822 21.7779C184.794 22.9995 183.52 23.9758 182.08 24.6597C181.584 24.9198 181.04 25.066 180.509 25.2419C180.371 25.2766 180.22 25.3312 180.104 25.4104C179.897 24.3698 179.563 23.3563 179.084 22.4073C178.847 21.9563 178.598 21.5103 178.274 21.1139C178.049 20.8835 177.415 19.9815 177.081 20.378C176.891 20.6753 177.296 20.9355 177.437 21.1709C177.926 21.7656 178.267 22.4618 178.578 23.163C179.45 25.3609 179.751 27.8263 179.339 30.1629C178.966 31.6323 178.474 33.0694 177.805 34.4496C177.464 35.1111 177.079 35.7479 176.713 36.3971C176.259 37.309 175.515 38.0176 174.908 38.8229C174.666 39.1426 174.691 39.1103 174.466 39.4424C174.387 39.5464 174.165 40.1386 174.123 40.3245V40.3294C173.947 40.8473 173.794 41.3751 173.668 41.9078C173.463 42.8593 173.312 43.848 173.369 44.8242C172.828 44.46 172.29 44.0809 171.836 43.62C170.487 42.1259 169.946 40.3517 170.099 38.3472C170.206 36.6697 170.835 34.9972 170.425 33.3172C170.312 32.7919 170.122 32.2616 169.734 31.8751C168.879 30.9434 167.496 31.0549 166.429 31.5208C165.639 31.8379 164.824 32.1377 164.135 32.6531C163.431 33.1685 162.787 33.7731 162.06 34.2588C161.952 34.2687 161.838 34.2637 161.729 34.2538C161.171 34.234 160.69 33.9342 160.295 33.5625C159.512 32.8811 159.292 31.8156 158.837 30.9261C158.408 29.9622 157.699 29.0999 156.686 28.7307C155.135 28.1038 153.451 28.7109 151.912 29.0851C150.663 29.3254 149.373 29.1098 148.181 28.7035C146.4 28.0468 144.881 26.5948 144.239 24.791C144.086 24.3598 144.034 23.9188 143.93 23.4753C144.024 23.225 144.123 22.9747 144.229 22.7294L144.217 22.7245ZM143.026 39.8785C143.009 39.871 142.992 39.8661 142.974 39.8611C142.969 39.8611 142.965 39.8611 142.96 39.8587C142.908 39.8463 142.856 39.8364 142.804 39.8289H142.799C142.811 39.8289 142.824 39.8314 142.839 39.8339C142.834 39.8339 142.831 39.8339 142.826 39.8339C142.831 39.8339 142.836 39.8339 142.839 39.8339C142.799 39.8289 142.757 39.8215 142.718 39.814C142.705 39.814 142.69 39.8091 142.678 39.8066C142.678 39.8066 142.673 39.8066 142.671 39.8066C142.671 39.8066 142.668 39.8066 142.666 39.8066C142.658 39.8066 142.651 39.8066 142.646 39.8041C142.641 39.8041 142.634 39.8041 142.629 39.8041C142.606 39.8017 142.584 39.7992 142.562 39.7967C142.572 39.7967 142.582 39.7992 142.592 39.8017C142.49 39.7893 142.387 39.7868 142.285 39.7769C141.915 39.7397 141.769 39.5861 141.767 39.5836C141.053 38.9691 141.522 37.646 141.87 36.9299C142.495 35.6612 143.281 34.4446 143.928 33.1834C143.97 33.0991 144.034 32.9207 144.103 32.7225C144.291 32.1749 144.313 31.5852 144.167 31.0252C144.034 30.5172 143.876 29.9325 143.799 29.7392C143.681 29.4369 143.584 29.1297 143.503 28.815C143.424 28.478 143.362 28.141 143.32 27.7991C143.283 27.4299 143.268 27.0607 143.273 26.689C143.288 26.3049 143.32 25.9258 143.375 25.5467C143.387 25.465 143.402 25.3832 143.416 25.2989C143.444 25.1503 143.471 25.0016 143.505 24.8529C143.52 24.786 143.537 24.7216 143.555 24.6547C143.631 25.2395 143.822 25.8069 144.093 26.3347L144.777 27.3828C144.985 27.6405 145.212 27.8833 145.454 28.1063C147.237 29.7962 150.045 30.5519 152.433 29.9771C154.002 29.5534 156.024 28.9265 157.289 30.3215C157.892 31.0376 158.171 31.9494 158.548 32.7894C159.107 34.0506 160.27 35.2028 161.71 35.2524C162.085 35.3168 162.791 35.183 163.125 34.8683C163.162 34.8336 163.194 34.7965 163.221 34.7568C164.303 33.503 164.392 33.6566 164.883 33.3296C165.548 32.9034 166.281 32.6011 167.015 32.3211C167.654 32.0956 168.452 31.9891 168.99 32.4945C170.25 33.9366 169.329 36.2782 169.173 37.9681C169.052 39.0558 169.087 40.1758 169.42 41.2239C169.776 42.3266 170.398 43.3375 171.171 44.1973C171.186 44.2147 171.203 44.2345 171.218 44.2518C171.905 44.9531 172.749 45.4486 173.574 45.9838C173.663 46.2812 173.769 46.576 173.878 46.8659C173.883 46.9651 173.821 47.0567 173.72 47.0865C173.261 47.2203 172.814 47.3987 172.354 47.5275C171.692 47.7381 171.08 48.0702 170.443 48.3378C169.502 48.7739 168.571 49.2323 167.647 49.7055C166.728 50.2085 165.928 50.8974 165.041 51.4524C164.698 51.6283 164.542 51.9133 164.476 52.2379C164.463 52.2379 164.451 52.2453 164.441 52.2552C164.286 51.9405 164.118 51.6308 163.94 51.326C163.09 49.9682 162.085 48.6797 160.912 47.587C161.164 47.3144 161.408 47.032 161.648 46.7421C162.238 45.9318 162.917 45.1587 163.303 44.2221C163.478 43.7984 163.819 43.1814 163.199 42.9634C162.94 42.8915 162.656 43.0501 162.586 43.3127C162.557 43.4193 162.51 43.5209 162.468 43.625C162.337 43.9867 162.167 44.3336 161.947 44.6483C160.897 46.2118 159.638 47.6366 158.171 48.8185C156.373 50.2531 154.155 51.1352 151.856 51.2666C150.897 51.3731 149.927 51.5416 148.961 51.4152C148.872 51.3954 148.786 51.3682 148.699 51.3384C148.425 51.0981 148.124 50.8949 147.79 50.7363C147.763 50.7264 147.734 50.7115 147.701 50.6967C147.689 50.6917 147.677 50.6843 147.664 50.6793C147.642 50.6694 147.622 50.6595 147.598 50.6471C147.571 50.6347 147.541 50.6199 147.511 50.605C147.496 50.5976 147.482 50.5901 147.464 50.5827C147.442 50.5728 147.417 50.5604 147.393 50.5505C147.378 50.543 147.363 50.5356 147.348 50.5307C147.324 50.5207 147.301 50.5108 147.277 50.4984C147.262 50.4935 147.247 50.4861 147.232 50.4811C147.203 50.4687 147.175 50.4588 147.146 50.4489C147.136 50.4464 147.126 50.4415 147.116 50.439C147.079 50.4266 147.042 50.4142 147.007 50.4068C146.931 50.3869 146.874 50.3275 146.854 50.2531C146.854 50.2457 146.852 50.2407 146.849 50.2333C146.844 50.2184 146.842 50.2011 146.837 50.1862C146.827 50.1515 146.817 50.1193 146.807 50.0871C146.802 50.0698 146.795 50.0549 146.79 50.0376C146.778 50.0054 146.765 49.9731 146.751 49.9409C146.743 49.9261 146.738 49.9112 146.731 49.8988C146.709 49.8542 146.684 49.8121 146.659 49.77C146.425 49.4008 146.029 49.2001 145.718 48.9077C145.232 48.5261 144.839 48.038 144.34 47.6737C144.348 47.6341 144.348 47.592 144.345 47.5498C144.35 47.5052 144.35 47.4557 144.34 47.4036C144.236 46.9477 144.167 46.4943 144.14 46.0384C144.14 46.0309 144.138 46.021 144.133 46.0086C144.12 45.7063 144.125 45.3991 144.155 45.0869C144.157 45.0274 144.16 44.9704 144.162 44.9109C144.333 45.0571 144.506 45.1835 144.644 45.2702C144.735 45.3173 144.827 45.3619 144.921 45.3991C145.587 45.6642 146.338 45.6791 147.032 45.4957C147.613 45.3396 149.383 44.9035 148.971 44.0487C148.833 43.8232 148.512 43.734 148.284 43.8851C147.072 44.7771 144.955 45.072 144.236 43.4317C144.236 43.4317 144.234 43.4292 144.231 43.4267C144.251 43.1046 144.271 42.7825 144.306 42.4604C144.496 40.6838 143.822 40.0148 143.019 39.876L143.026 39.8785ZM150.685 94.6236C150.685 94.6236 150.692 94.6385 150.697 94.6459C150.729 94.7029 150.761 94.7623 150.789 94.8243C150.801 94.8515 150.811 94.8788 150.821 94.9061C150.833 94.9358 150.843 94.968 150.853 95.0002C150.882 95.0919 150.89 95.1836 150.885 95.2802C150.88 95.4066 150.828 95.5305 150.769 95.642C150.677 95.8179 150.537 95.9666 150.406 96.1152C150.258 96.2813 150.1 96.4349 149.937 96.586C149.776 96.7322 149.615 96.8759 149.448 97.0097C149.344 97.094 149.238 97.1758 149.129 97.255C148.949 97.4136 148.768 97.5747 148.593 97.7382C148.561 97.7704 148.529 97.8002 148.497 97.8324C148.4 97.9216 148.302 98.0083 148.203 98.0925C148.203 98.0925 148.2 98.095 148.198 98.0975C148.198 98.0975 148.195 98.1 148.193 98.1025C148.188 98.1074 148.183 98.1099 148.178 98.1148C148.178 98.1148 148.173 98.1198 148.171 98.1223C148.168 98.1223 148.166 98.1272 148.163 98.1297C148.163 98.1297 148.163 98.1297 148.161 98.1322C148.151 98.1421 148.139 98.152 148.126 98.1619C148.126 98.1619 148.124 98.1644 148.121 98.1669C148.121 98.1669 148.121 98.1669 148.119 98.1669C148.114 98.1718 148.111 98.1743 148.106 98.1793C148.102 98.1842 148.097 98.1892 148.089 98.1941C148.089 98.1941 148.084 98.1966 148.084 98.1991C148.092 98.1941 148.097 98.1867 148.104 98.1817C148.099 98.1867 148.097 98.1892 148.092 98.1941C148.089 98.1966 148.084 98.1991 148.082 98.2016C147.916 98.3527 147.748 98.5039 147.583 98.655C147.593 98.6451 147.603 98.6377 147.61 98.6278C147.593 98.6426 147.578 98.6575 147.563 98.6724C147.558 98.6773 147.556 98.6798 147.551 98.6823C147.551 98.6823 147.546 98.6848 147.546 98.6872C147.546 98.6872 147.541 98.6922 147.541 98.6947C147.541 98.6947 147.546 98.6922 147.546 98.6897C147.546 98.6897 147.541 98.6947 147.538 98.6971C147.534 98.7021 147.531 98.7046 147.526 98.7095C147.516 98.7194 147.506 98.7293 147.496 98.7393C147.385 98.8508 147.277 98.9598 147.158 99.0614C147.158 99.0614 147.158 99.0614 147.161 99.0589C147.156 99.0639 147.151 99.0663 147.146 99.0713C147.146 99.0713 147.146 99.0713 147.143 99.0713C146.953 99.2274 146.758 99.3761 146.563 99.5247C146.36 99.6784 146.153 99.8221 145.95 99.9732C145.854 100.045 145.755 100.114 145.649 100.171C145.563 100.219 145.476 100.268 145.392 100.318C145.331 100.352 145.264 100.382 145.2 100.409C145.116 100.444 145.032 100.486 144.945 100.521C144.879 100.546 144.812 100.573 144.743 100.595C144.671 100.63 144.599 100.662 144.525 100.694C144.553 100.674 144.582 100.655 144.609 100.635C144.545 100.652 144.478 100.667 144.412 100.679C144.32 100.714 144.229 100.741 144.133 100.761C144.051 100.779 143.97 100.783 143.888 100.783C143.841 100.783 143.794 100.783 143.747 100.776C143.661 100.769 143.572 100.761 143.491 100.734C143.468 100.726 143.444 100.717 143.421 100.704C143.412 100.699 143.402 100.697 143.392 100.689C143.372 100.679 143.352 100.667 143.333 100.655C143.325 100.65 143.318 100.647 143.313 100.642C143.268 100.615 143.231 100.58 143.194 100.546C143.182 100.536 143.172 100.523 143.162 100.511C143.13 100.476 143.1 100.444 143.076 100.404C143.058 100.377 143.044 100.35 143.029 100.323C142.806 100.09 142.594 99.8444 142.377 99.6065C141.952 99.1407 141.522 98.6823 141.117 98.1991C140.315 97.2327 139.48 96.2887 138.786 95.2406C137.447 93.2608 136.151 91.2314 135.059 89.098C135.059 89.103 135.064 89.1079 135.066 89.1104C134.864 88.7016 134.664 88.2927 134.479 87.874C134.479 87.874 134.479 87.869 134.476 87.869C135.558 86.3278 136.847 84.9502 138.018 83.4783C138.704 82.7548 139.527 81.8504 140.623 82.0808C141.213 82.2295 141.757 82.5144 142.253 82.8688C142.873 83.2751 143.535 83.7955 144.022 84.3827C146.442 87.5816 148.583 90.9936 150.601 94.4576C150.598 94.4601 150.593 94.4625 150.591 94.4675C150.626 94.517 150.655 94.5666 150.687 94.6186L150.685 94.6236ZM151.804 94.7475C152.169 94.4303 152.537 94.1132 152.905 93.7985C154.283 92.6165 155.644 91.4148 156.997 90.2031C157.232 90.9316 157.857 91.9574 157.99 92.23C158.264 92.795 158.534 93.3649 158.711 93.9694C159 95.1415 159.158 96.3432 159.398 97.5251C159.833 99.443 160.322 101.351 160.611 103.298C160.645 103.643 160.675 103.985 160.707 104.329C159.786 103.995 158.87 103.65 157.931 103.365C154.849 102.399 151.72 101.559 148.507 101.175C147.867 101.073 147.222 101.026 146.58 100.932C146.439 100.912 146.299 100.892 146.155 100.875C146.388 100.707 146.615 100.536 146.84 100.375C147.553 99.8345 148.302 99.3364 148.966 98.7368C149.502 98.2586 150.065 97.7457 150.618 97.2526C151.302 96.6232 152.07 95.7113 151.799 94.7475H151.804ZM160.803 105.422C161.07 108.499 161.332 111.587 162.179 114.57C162.335 115.224 162.544 115.864 162.799 116.483C162.381 116.119 161.957 115.767 161.517 115.427C159.907 114.241 158.311 113.029 156.637 111.931C153.55 109.951 150.386 108.076 147.19 106.272C145.861 105.529 144.543 104.691 143.137 104.067C142.557 103.759 141.957 103.502 141.342 103.271C141.223 103.224 141.08 103.155 140.929 103.088C141.67 102.644 142.396 102.171 143.113 101.685C143.286 101.777 143.471 101.844 143.673 101.866C143.72 101.869 143.765 101.871 143.812 101.871C144.254 101.871 144.664 101.752 145.054 101.566C145.2 101.584 145.35 101.589 145.459 101.623C147.699 102.037 149.966 102.315 152.199 102.805C155.125 103.489 157.975 104.394 160.811 105.427L160.803 105.422ZM136.696 83.3148C136.531 82.735 136.336 82.1403 136.336 81.9644C136.178 81.0476 136.155 80.0391 136.052 79.1025C135.918 77.8784 135.795 76.6519 135.716 75.4229C135.634 74.3277 135.605 73.2251 135.57 72.1224C135.541 71.1858 135.511 70.2492 135.442 69.3151C135.375 68.0737 135.417 66.8224 135.56 65.5835C135.62 65.5314 135.666 65.4645 135.689 65.3852C135.859 64.8698 136.039 64.3495 136.306 63.8738C137.301 62.0848 139.788 61.8816 140.705 60.0406C141.07 59.4112 141.031 58.6579 141.127 57.9567C141.171 57.6197 141.327 57.2902 141.367 56.9581C141.567 56.9631 141.767 56.9581 141.967 56.9457C141.856 57.0845 141.762 57.2381 141.683 57.3893C141.28 58.1029 141.903 58.9057 142.599 59.1089C142.784 59.1585 142.972 59.1808 143.16 59.1808C143.762 59.1808 144.362 58.9602 144.923 58.762C145.39 58.6282 145.852 58.4473 146.252 58.1698C146.402 58.0657 146.543 57.9493 146.681 57.8303C146.681 57.9493 146.689 58.0558 146.694 58.1401C146.807 59.1163 147.684 59.7804 148.497 60.2066C148.655 60.2859 148.852 60.3329 149.045 60.3329C149.388 60.3329 149.717 60.1843 149.781 59.8101C149.781 59.436 149.808 59.0643 149.895 58.6976C150.109 57.8303 150.426 56.9854 150.621 56.1132C150.65 55.9794 150.677 55.8431 150.702 55.7068C150.719 55.5978 150.727 55.4962 150.729 55.4021C150.729 55.3922 150.729 55.3822 150.729 55.3723C150.729 55.3649 150.729 55.355 150.729 55.3476C150.729 55.3253 150.729 55.303 150.729 55.2831C150.729 55.2063 150.724 55.132 150.724 55.0552C150.717 55.0254 150.71 54.9957 150.702 54.966C150.67 54.7727 150.623 54.6562 150.618 54.6414C150.51 54.3762 150.198 54.2325 149.704 54.1111C149.694 54.1086 149.682 54.1037 149.672 54.1012C149.618 54.0789 149.564 54.0541 149.509 54.0293C149.509 54.0293 149.504 54.0293 149.504 54.0269C149.403 53.9798 149.354 53.8658 149.388 53.7617C149.393 53.7469 149.398 53.7345 149.403 53.7196C149.413 53.6899 149.423 53.6577 149.433 53.6279C149.452 53.5709 149.47 53.514 149.487 53.457C149.497 53.4248 149.507 53.395 149.514 53.3628C149.532 53.3009 149.549 53.2389 149.564 53.177C149.569 53.1522 149.576 53.1274 149.581 53.1026C149.601 53.0184 149.618 52.9366 149.63 52.8524C149.63 52.8499 149.63 52.8474 149.63 52.8449C149.63 52.8425 149.63 52.8375 149.63 52.835C149.63 52.835 149.63 52.8326 149.63 52.8301C149.63 52.8251 149.63 52.8202 149.63 52.8177C149.64 52.6096 149.574 52.4039 149.472 52.2106C149.549 52.2181 149.625 52.228 149.699 52.2304C149.922 52.2552 150.146 52.2627 150.369 52.2627C150.826 52.2627 151.285 52.223 151.739 52.1784C152.312 52.1437 152.89 52.1214 153.456 52.0174C155.56 51.6482 157.541 50.6768 159.158 49.2843C159.568 48.9349 159.959 48.5732 160.334 48.1965C160.381 48.2511 160.428 48.3056 160.475 48.3576C160.672 48.588 160.863 48.8259 161.058 49.0613C161.816 50.0029 162.582 50.9519 163.184 52.005C163.621 52.7508 164.002 53.7295 164.32 54.5522C164.288 54.5968 164.249 54.624 164.197 54.6265C163.073 55.4764 162.095 56.5245 161.132 57.5528C160.176 58.5613 159.171 59.5252 158.222 60.5411C155.308 63.5194 152.357 66.4631 149.452 69.4538C148.628 70.3409 147.808 71.2354 146.985 72.1249C145.985 73.2053 144.98 74.2806 143.945 75.3287C142.293 77.0161 140.727 78.7828 139.124 80.5173C138.312 81.449 137.489 82.3732 136.694 83.3173L136.696 83.3148ZM140.715 56.8962C140.826 56.9135 140.939 56.9259 141.05 56.9358C141.013 56.9656 140.979 56.9978 140.957 57.0176C140.416 57.5974 140.28 58.4002 140.095 59.1436C139.803 60.043 138.998 60.5882 138.205 61.0094C137.464 61.4083 136.728 61.8816 136.138 62.4837C136.4 61.4604 136.731 60.4568 137.126 59.483C137.608 58.4944 138.22 57.5627 138.749 56.5964C138.83 56.4304 138.919 56.2693 139.01 56.1107C139.196 55.7886 139.393 55.4739 139.588 55.1592C139.645 55.0651 139.704 54.9734 139.759 54.8792C139.781 54.8421 139.803 54.8049 139.825 54.7677C139.902 54.6389 139.979 54.5076 140.053 54.3738C140.428 53.732 140.776 52.9812 141.473 52.6368C141.801 52.451 142.164 52.4237 142.431 52.726C142.204 52.9614 141.927 53.1398 141.675 53.3455C141.312 53.6527 141.013 54.0294 140.737 54.4184C140.408 54.8693 140.065 55.35 139.996 55.9199C139.991 55.9521 139.989 55.9844 139.989 56.0166C139.971 56.4675 140.238 56.8516 140.717 56.8962H140.715ZM147.595 56.9433C147.795 56.7401 147.998 56.5394 148.213 56.3511C148.311 56.2743 148.41 56.1974 148.497 56.1132C148.519 56.0909 148.544 56.0661 148.563 56.0413C148.591 56.0116 148.615 55.9794 148.64 55.9422C148.845 55.5111 148.941 55.0329 149.099 54.5794C149.309 54.7578 149.559 54.8792 149.798 55.0155C149.796 55.1072 149.788 55.1989 149.778 55.2906C149.778 55.3079 149.774 55.3252 149.771 55.3426C149.764 55.4169 149.754 55.4913 149.741 55.5656C149.741 55.578 149.736 55.5879 149.734 55.6003C149.722 55.6796 149.707 55.7589 149.69 55.8406C149.69 55.8456 149.69 55.8481 149.687 55.853C149.67 55.9398 149.65 56.0265 149.628 56.1132C149.366 57.1564 148.887 58.1599 148.8 59.2402C148.353 58.9577 147.808 58.6208 147.689 58.0682C147.608 57.7461 147.756 57.2307 147.59 56.9433H147.595ZM147.976 54.8222C147.914 55.018 147.857 55.2162 147.79 55.4095C147.63 55.5483 147.459 55.6721 147.306 55.8208C146.652 56.4378 146.084 57.2034 145.251 57.59C144.817 57.7808 144.355 57.8972 143.915 58.0707C143.476 58.1748 142.955 58.3556 142.559 58.0459C142.394 57.9245 142.327 57.761 142.434 57.5751C142.54 57.3125 142.68 57.0647 142.806 56.812C143.416 56.6682 144.014 56.4601 144.592 56.2222C144.659 56.1925 144.718 56.1528 144.775 56.1107C144.908 56.0141 145.017 55.8927 145.111 55.7564C145.13 55.7267 145.15 55.6969 145.17 55.6647C145.175 55.6548 145.18 55.6474 145.187 55.6375C145.205 55.6102 145.219 55.5829 145.234 55.5582C145.244 55.5408 145.254 55.5235 145.261 55.5086C145.274 55.4888 145.284 55.4665 145.296 55.4467C145.316 55.407 145.335 55.3674 145.355 55.3302C145.55 54.9561 145.718 54.567 145.894 54.1855C146.188 53.4793 146.689 52.4064 146.862 51.4177C147.02 51.4921 147.195 51.549 147.338 51.6283C147.85 51.9009 148.386 52.2701 148.628 52.8127C148.442 53.4941 148.181 54.1508 147.976 54.8247V54.8222ZM119.482 87.0167C119.618 85.7703 119.831 84.5041 120.046 83.2652C120.873 78.8547 122.024 74.4665 123.118 70.103C123.827 67.5682 124.587 65.0482 125.378 62.5382C126.116 60.2983 126.901 58.0533 128.144 56.0364C128.467 55.4268 128.828 54.8371 129.23 54.2771C129.564 53.8138 129.927 53.3702 130.327 52.9589C130.337 52.949 130.344 52.9391 130.354 52.9292C131.206 52.0074 132.115 51.1129 133.049 50.2556C133.088 50.2209 133.125 50.1862 133.165 50.1516C133.283 50.045 133.399 49.936 133.518 49.8294C133.676 49.6882 133.834 49.5494 133.992 49.4082C134.955 48.5335 135.985 47.7282 137.136 47.1187C138.015 46.5215 139.057 46.192 140.11 46.078C140.991 46.3084 141.638 46.8635 142.352 47.4334C142.942 47.8967 143.56 48.2932 144.138 48.7813C144.58 49.2422 145.059 49.6708 145.573 50.0524C146.086 50.3225 145.941 50.8875 145.857 51.3558C145.669 52.1784 145.36 52.9664 145.009 53.7295C144.735 54.2474 144.572 54.8669 144.185 55.3079C143.165 55.744 142.058 56.0909 140.937 55.9521C141.085 55.5582 141.376 55.2435 141.616 54.904C141.841 54.6042 142.078 54.3069 142.369 54.0665C142.804 53.7048 143.468 53.3306 143.545 52.6988C143.528 52.2428 143.083 51.948 142.752 51.6977C142.068 51.2765 141.221 51.5441 140.616 51.9851C139.579 52.7954 139.154 54.1161 138.405 55.1617C138.329 55.3104 138.247 55.4566 138.166 55.6028C138.156 55.6226 138.144 55.6424 138.134 55.6622C138.052 55.8109 137.968 55.9571 137.882 56.1033C137.188 57.305 136.435 58.4721 135.923 59.768C135.089 62.2433 134.481 64.8079 134.451 67.4344C134.412 68.5618 134.506 69.6867 134.57 70.8141C134.58 71.2478 134.587 71.6814 134.595 72.115C134.607 72.7345 134.619 73.3514 134.637 73.9709C134.743 76.414 135.037 78.8497 135.306 81.278C135.417 82.1205 135.671 82.9282 136.118 83.6567C136.111 83.7856 136.104 83.9045 136.096 84.0334C135.602 84.6379 133.582 87.2446 133.501 87.3214C133.459 87.3611 133.212 87.5816 132.913 87.6163C132.881 87.6212 132.849 87.6188 132.819 87.6163C131.754 87.5271 130.71 87.8591 129.648 87.8641C128.475 87.8765 127.321 87.8988 126.141 87.8715C124.857 87.9112 123.57 87.8963 122.283 87.8789C121.498 87.869 120.71 87.8591 119.924 87.8641C119.685 87.874 119.433 87.6659 119.45 87.5122C119.463 87.3413 119.465 87.1827 119.485 87.0117L119.482 87.0167ZM102.703 106.507C102.683 106.629 102.669 106.75 102.654 106.874C102.224 105.737 102.019 104.527 101.987 103.311C102.051 101.671 102.476 100.067 103.037 98.5336C103.209 98.1 103.355 97.654 103.508 97.2129C103.78 96.6083 104.158 96.0607 104.57 95.5453C105.773 94.0487 107.344 92.8742 108.932 91.7889C110.023 90.9985 111.15 90.2304 112.409 89.7249C113.194 89.4202 114.002 89.1649 114.837 89.041C116.282 88.8825 117.731 88.9172 119.181 88.8973C121.107 88.8279 123.036 88.9072 124.963 88.9072C125.625 88.8651 126.286 88.875 126.948 88.8849C127.568 88.8949 128.186 88.9048 128.808 88.8726C129.028 88.8602 129.248 88.8626 129.467 88.8626C129.759 88.8626 130.05 88.8676 130.342 88.8379C130.868 88.7734 131.389 88.6694 131.92 88.6396C132.127 88.6 132.335 88.6074 132.542 88.6149C132.737 88.6198 132.933 88.6273 133.125 88.595C133.293 88.543 133.459 88.4761 133.617 88.3943C134.286 89.8909 135.123 91.3107 135.958 92.7256C136.709 93.967 137.536 95.1662 138.354 96.3729C139.127 97.4062 139.959 98.3924 140.806 99.3686C141.226 99.8444 141.663 100.305 142.088 100.779C142.157 100.855 142.229 100.935 142.3 101.014C140.855 101.973 139.398 102.954 137.753 103.529C136.012 104.195 134.619 104.691 132.732 104.205C131.283 103.727 130.038 102.793 128.596 102.285C125.8 101.019 122.735 100.399 120.068 98.8508C118.141 97.6911 116.045 96.8437 113.921 96.1276C113.254 95.9542 112.58 95.7609 111.888 95.7337C111.192 95.7064 110.53 95.9567 109.91 96.2515C108.687 96.8041 107.712 97.7382 106.8 98.7046C105.486 99.9534 104.397 101.44 103.632 103.085C103.135 104.163 102.908 105.345 102.703 106.505V106.507ZM128.033 167.531C127.469 167.199 126.963 166.778 126.415 166.421C125.338 165.782 124.291 165.091 123.37 164.231C122.824 163.698 122.325 163.121 121.799 162.568C121.263 162.011 120.693 161.485 120.211 160.873C117.85 157.843 115.916 154.493 114.044 151.123C112.249 147.872 110.772 144.453 109.438 140.984C108.337 138.048 107.22 135.111 106.294 132.113C105.743 130.255 105.282 128.369 104.802 126.491C105.074 127.096 105.353 127.693 105.647 128.287C106.645 130.136 107.601 132.009 108.687 133.803C111.893 139.259 115.647 144.356 119.742 149.151C123.422 153.849 126.976 158.67 131.093 162.994C131.942 163.881 132.814 164.751 133.718 165.586C133.713 165.621 133.708 165.655 133.706 165.69C133.627 166.114 133.375 166.453 133.046 166.721C132.673 167.038 132.251 167.276 131.826 167.511C131.293 167.888 130.695 168.101 130.068 168.25C129.351 168.178 128.682 167.833 128.035 167.531H128.033ZM137.729 172.648C137.042 173.912 134.886 174.96 133.671 175.435C133.31 175.569 132.481 175.763 131.228 177.775C131.221 177.792 131.211 177.807 131.201 177.822C131.068 178.069 130.922 178.31 130.779 178.553C130.658 178.756 130.522 178.949 130.357 179.118C130.285 179.192 130.203 179.259 130.112 179.308C130.112 179.308 130.107 179.308 130.105 179.311C130.021 179.355 129.934 179.388 129.845 179.42C129.791 179.44 129.737 179.462 129.682 179.477C127.064 180.22 122.421 179.167 121.34 178.949C120.581 178.81 119.976 178.146 119.927 177.418C119.887 176.83 120.495 176.456 120.604 176.404C121.157 176.149 121.767 176.171 122.372 176.189C122.616 176.196 128.522 176.194 129.675 173.456C130.031 172.613 129.942 171.687 130.09 170.775C130.142 170.396 130.196 170.014 130.27 169.637C130.285 169.58 130.3 169.526 130.315 169.469C130.453 169.439 130.589 169.397 130.725 169.357C131.256 169.241 131.759 169.038 132.211 168.728C133.17 168.168 134.308 167.591 134.74 166.491C135.382 167.046 136.042 167.576 136.724 168.081C136.743 168.193 138.783 170.705 137.729 172.64V172.648ZM147.408 179.053C146.588 179.925 145.837 180.879 145.326 181.977C145.113 182.438 144.93 182.919 144.634 183.335C144.029 184.105 143.125 184.341 142.196 184.574C141.465 184.777 140.72 184.913 139.961 184.797C138.988 184.71 138.01 184.579 137.129 184.123C136.281 183.803 135.59 183.104 135.175 182.299C135.056 182.014 134.926 181.712 135.014 181.4C135.15 181.043 135.447 180.731 135.79 180.57C136.412 180.294 136.995 180.18 137.682 180.096C138.447 180.039 139.248 180.044 139.937 179.645C141.152 179.036 141.663 177.661 142.085 176.439C142.35 175.708 142.448 174.937 142.411 174.162C142.414 173.24 142.476 172.321 142.527 171.399C143.859 171.872 145.254 172.15 146.689 172.17C148.136 172.167 149.727 171.687 150.645 170.49C150.776 170.331 150.887 170.16 150.981 169.979C151.107 170.083 152.745 171.124 152.969 171.84C153.303 173.109 152.594 174.625 151.87 175.641C150.482 176.915 148.652 177.571 147.403 179.056L147.408 179.053ZM135.037 183.622C135.185 183.895 135.375 184.145 135.602 184.368C135.375 184.143 135.185 183.895 135.037 183.622ZM136.849 185.203C136.689 185.131 136.533 185.052 136.385 184.965C136.533 185.052 136.686 185.131 136.849 185.203ZM197.187 133.189C197.153 135.339 197.056 137.488 196.669 139.609C196.511 140.833 196.281 142.039 195.841 143.196C195.192 145.241 194.31 147.208 193.176 149.027C192.455 150.147 191.695 151.279 190.68 152.154C189.259 153.303 187.538 153.96 185.851 154.642C184.33 155.162 182.816 155.831 181.183 155.863C179.143 155.925 177.106 155.588 175.125 155.127C172.826 154.421 170.62 153.43 168.511 152.27C166.921 151.433 165.286 150.677 163.742 149.748C161.905 148.638 160.075 147.515 158.205 146.46C154.194 144.101 150.144 141.814 146.269 139.232C144.619 138.204 142.947 137.212 141.312 136.159C140.27 135.503 139.371 134.799 138.349 134.061C137.869 133.734 137.403 133.392 136.938 133.045C136.938 133.045 136.936 133.04 136.933 133.037C135.864 130.971 134.782 128.907 133.718 126.838C133.175 125.807 132.789 124.702 132.197 123.696C131.831 123.129 131.446 122.474 130.858 122.127C130.643 122.051 130.433 122.291 130.517 122.497C130.769 122.953 131.13 123.352 131.357 123.83C131.727 124.509 131.979 125.274 132.268 126C132.819 127.333 133.461 128.627 134.086 129.925C135.859 133.758 137.993 137.393 140.137 141.021C144.051 148.085 146.731 155.784 149.035 163.527C149.035 163.527 149.035 163.525 149.035 163.522C149.287 164.367 150.196 167.001 150.285 167.288C150.403 167.677 150.29 168.081 150.203 168.463C149.759 171.01 146.923 171.109 144.901 170.73C142.747 170.418 140.831 169.305 139.023 168.136C136.067 166.302 133.57 163.809 131.196 161.272C127.613 157.397 124.444 153.18 121.206 148.997C120.218 147.738 119.169 146.534 118.146 145.303C116.852 143.67 115.612 141.98 114.365 140.31C111.932 136.868 109.683 133.285 107.692 129.563C106.24 126.957 105.012 124.226 103.916 121.436C103.906 121.404 103.898 121.372 103.889 121.34C103.548 119.471 103.261 117.573 103.303 115.668C103.308 114.084 103.535 112.513 103.447 110.928C103.432 110.132 103.4 109.347 103.348 108.556C103.348 108.549 103.353 108.544 103.353 108.539C103.355 108.524 103.355 108.509 103.358 108.494C103.437 108.403 103.486 108.289 103.488 108.165C103.59 107.647 103.629 107.092 103.703 106.562C103.894 105.571 104.081 104.562 104.481 103.63C105.17 102.134 106.124 100.746 107.317 99.609C108.129 98.7715 108.929 97.8968 109.969 97.3418C110.675 96.9726 111.456 96.6083 112.268 96.7669C114.131 97.089 115.847 97.9117 117.578 98.6352C118.793 99.1927 119.887 99.9831 121.12 100.508C123.083 101.408 125.178 101.958 127.176 102.773C127.835 103.048 128.497 103.318 129.154 103.598C130.169 104.079 131.12 104.698 132.184 105.075C133.177 105.395 134.256 105.472 135.289 105.325C136.022 105.226 136.716 104.959 137.413 104.716C138.341 104.401 139.248 104.032 140.107 103.559C140.132 103.546 140.156 103.531 140.181 103.517C140.211 103.529 140.24 103.539 140.265 103.551C141.105 104.005 141.952 104.443 142.787 104.904C144.148 105.568 145.422 106.396 146.738 107.142C148.776 108.301 150.796 109.493 152.809 110.7C155.158 112.152 157.501 113.616 159.685 115.316C161.468 116.542 163.051 118.014 164.607 119.511C164.619 119.518 164.629 119.523 164.641 119.531C164.96 119.863 165.313 120.163 165.683 120.433C165.683 120.465 165.686 120.497 165.696 120.532C165.77 120.861 166.131 120.983 166.405 121.109C167.509 121.493 168.519 122.095 169.633 122.457C170.381 122.69 171.132 122.923 171.88 123.161C173.041 123.498 174.189 123.877 175.335 124.268C176.106 124.528 176.911 124.635 177.709 124.751C179.739 125.143 181.749 125.745 183.609 126.662C184.345 127.011 185.088 127.346 185.799 127.745C186.525 128.149 187.249 128.565 188.03 128.852C189.136 129.256 190.294 129.492 191.435 129.762C192.164 129.967 192.858 130.282 193.609 130.403C194.362 130.557 195.118 130.686 195.871 130.832C196.325 130.956 196.735 131.221 197.2 131.31C197.214 131.439 197.229 131.566 197.229 131.692C197.251 132.185 197.212 132.673 197.2 133.189H197.187ZM176.012 123.857C175.997 123.855 175.985 123.85 175.97 123.845C175.985 123.847 176 123.852 176.014 123.857H176.012ZM176.039 123.959C176.039 123.959 176.039 123.959 176.041 123.959C176.027 123.954 176.012 123.951 175.997 123.946C176.012 123.951 176.024 123.954 176.039 123.959ZM197.941 130.5C197.941 130.505 197.938 130.51 197.936 130.515C197.936 130.512 197.936 130.51 197.938 130.507C197.938 130.507 197.938 130.51 197.938 130.512C197.938 130.507 197.941 130.505 197.943 130.5V130.495C197.943 130.498 197.943 130.5 197.941 130.505V130.5ZM198.484 127.831V127.826C198.484 127.826 198.484 127.829 198.484 127.831ZM203.517 108.175C203.347 110.623 203.092 113.066 202.655 115.482C202.379 117.241 201.86 118.951 201.302 120.638C201.042 121.453 200.805 122.276 200.477 123.064C199.472 125.396 198.415 127.705 197.296 129.98C197.296 129.98 197.16 130.18 197.037 130.118C196.913 130.079 196.824 130.004 196.024 129.747C195.13 129.459 194.174 129.417 193.258 129.209C191.586 128.567 189.785 128.367 188.116 127.72C187.158 127.319 186.291 126.744 185.357 126.29C184.602 125.933 183.851 125.569 183.088 125.222C182.327 124.883 181.539 124.608 180.736 124.385C179.521 124.011 178.289 123.693 177.024 123.542C175.444 123.29 173.979 122.591 172.433 122.189C171.356 121.835 170.255 121.55 169.2 121.136C168.563 120.871 167.963 120.529 167.314 120.294C167.158 120.234 166.997 120.177 166.842 120.113C166.741 119.895 166.484 119.823 166.308 119.669C165.953 119.389 165.614 119.087 165.288 118.775C164.236 117.551 163.587 116.01 163.179 114.456C162.885 113.363 162.626 112.273 162.451 111.158C162.268 109.946 162.075 108.735 161.976 107.511C161.818 105.918 161.769 104.309 161.522 102.726C161.24 101.108 160.88 99.5049 160.465 97.9141C160.117 96.4522 159.949 94.9457 159.497 93.511C159.104 92.4406 158.477 91.4842 157.862 90.5352C157.719 90.2874 157.595 90.0297 157.472 89.772C158.707 88.6644 159.934 87.5469 161.161 86.4319C162.53 85.0988 163.987 83.8673 165.36 82.5417C166.916 81.1194 168.541 79.774 170.104 78.3616C170.929 77.6975 171.774 77.0533 172.483 76.2579C173.228 75.5716 174.088 74.9942 174.666 74.1419C175.017 73.5967 175.451 73.121 175.854 72.6155C175.893 72.5585 175.933 72.5015 175.948 72.4322C175.965 72.3529 175.908 72.2711 175.827 72.2662C175.743 72.2612 175.664 72.2959 175.594 72.3405C174.817 72.7815 174.295 73.5125 173.666 74.127C172.935 74.8109 172.058 75.3188 171.384 76.0671C170.67 76.7609 169.818 77.2862 169.092 77.9652C168.326 78.6788 167.491 79.3106 166.716 80.0168C165.113 81.392 163.592 82.8589 162.006 84.2539C158.62 87.4726 155.071 90.6145 151.52 93.6597C151.47 93.7018 151.423 93.744 151.374 93.7861C151.078 93.2236 150.729 92.6884 150.386 92.1557C149.104 89.9851 147.734 87.8666 146.289 85.8C145.39 84.5165 144.52 83.1612 143.174 82.3014C142.273 81.6646 141.231 80.9931 140.08 81.1021C140.028 81.107 139.979 81.117 139.929 81.1244C142.246 78.5276 144.669 76.0324 147.062 73.51C147.487 73.0442 147.914 72.5808 148.341 72.1175C149.991 70.3335 151.665 68.5742 153.402 66.8694C155.335 64.8401 157.348 62.8901 159.287 60.8657C160.467 59.6491 161.668 58.4572 162.824 57.2183C164.061 55.8283 165.585 54.7256 167.274 53.9525C167.83 53.6825 168.383 53.3851 168.983 53.2241C169.571 53.0952 170.171 53.0407 170.761 52.9292C170.885 52.9069 171.023 52.8871 171.119 52.8028C171.216 52.726 171.218 52.5724 171.137 52.4807C171.048 52.3742 170.887 52.3444 170.756 52.332C170.24 52.3048 169.721 52.3147 169.208 52.3494C168.538 52.3915 167.914 52.6442 167.304 52.9094C166.723 53.1547 166.148 53.4198 165.597 53.7246C165.469 53.7915 165.345 53.8609 165.219 53.9352C165.278 53.4495 165.283 52.9515 165.412 52.4782C166.444 51.8414 167.373 51.0312 168.464 50.4935C170.304 49.5866 172.144 48.6649 174.123 48.0999C174.206 48.085 174.424 48.0454 174.574 48.3155C174.928 48.9126 175.394 49.4379 176.014 49.7353C176.069 49.765 176.123 49.7923 176.177 49.8121C176.6 49.9756 176.881 50.0128 177.227 50.1491C178.079 50.4935 178.867 50.9469 179.662 51.4004C180.662 51.8959 182.431 52.3221 183.404 52.8672C184.572 53.6329 185.624 54.572 186.619 55.5507C188.469 57.3794 190.005 59.5004 191.44 61.6635C192.287 63.0115 193.194 64.3222 194.014 65.6875C194.777 67.0082 195.478 68.3661 196.227 69.6966C196.656 70.4722 197.002 71.2874 197.313 72.1175C197.587 72.8484 197.834 73.5893 198.091 74.3277C198.622 75.9482 199.188 77.5613 199.721 79.1793C200.6 81.8083 201.178 84.5215 201.803 87.2223C202.216 88.8775 202.522 90.555 202.754 92.2449C203.223 95.2108 203.571 98.1966 203.73 101.195C203.823 103.524 203.752 105.856 203.52 108.175H203.517Z" fill="black"/>
</g>
<defs>
<clipPath id="clip0_7902_98935">
<rect width="237" height="195" fill="white"/>
</clipPath>
</defs>
</svg>
