<svg width="232" height="394" viewBox="0 0 232 394" fill="none" xmlns="http://www.w3.org/2000/svg">
<g clip-path="url(#clip0_7744_97137)">
<path d="M2.50856 366.829C20.4455 358.984 40.6553 362.153 59.3066 365.115C69.4375 366.712 79.6203 368.297 89.8941 368.284C100.025 368.258 110.091 366.881 120.222 366.634C130.665 366.388 141.406 367.414 150.796 372.323C152.563 373.245 154.147 370.57 152.368 369.635C134.314 360.192 113.702 364.374 94.3231 365.076C73.3729 365.829 53.1371 359.517 32.2908 358.867C21.5754 358.53 10.8211 359.828 0.949983 364.141C-0.881373 364.946 0.703193 367.621 2.52156 366.829H2.50856Z" fill="black"/>
<path d="M65.1384 366.515C65.0994 366.216 65.1384 365.93 65.1643 365.632C65.1643 365.541 65.1643 365.437 65.1773 365.346C64.7617 365.528 64.2292 365.45 63.8915 365.112C63.6967 364.93 63.6057 364.696 63.5797 364.463C63.5538 364.32 63.5278 364.177 63.5018 364.047C63.3849 363.54 63.2421 363.034 63.0732 362.527C62.203 362.19 62.164 361.345 61.8913 360.67C61.5016 360.111 61.3717 359.423 61.7614 358.722C62.3069 357.709 63.8525 357.592 64.5539 358.488C68.1257 358.111 68.6712 358.93 69.3466 362.307C69.5024 363.54 69.8921 364.774 69.9441 366.008C69.8531 367.008 68.6062 367.593 67.762 367.099C67.4763 367.515 67.0217 367.723 66.5671 367.723C65.8917 367.723 65.2293 367.294 65.1254 366.528L65.1384 366.515ZM65.6189 361.618C65.6189 361.618 65.6449 361.748 65.6579 361.813C65.6579 361.748 65.6709 361.683 65.6839 361.605C65.6579 361.605 65.6449 361.605 65.6189 361.618Z" fill="white"/>
<path d="M78.9843 370.897C78.231 370.767 77.5686 370.3 76.8802 370.001C76.1269 369.949 75.3606 369.819 74.5943 369.754C73.802 369.741 73.0097 369.754 72.2174 369.754C71.2173 369.767 70.2172 369.78 69.2301 369.754C67.1779 369.806 64.866 369.39 63.9698 367.299C63.3853 366.299 62.9048 364.559 63.9698 363.727C64.2036 361.883 65.5934 360.35 67.3857 361.727C67.6065 360.688 67.6325 359.597 67.8143 358.571C68.9833 357.363 69.0742 362.467 69.1521 363.065C71.568 363.507 73.6851 364.896 75.9321 365.818C76.6854 366.156 77.4127 366.546 78.1791 366.871C78.5687 366.935 78.9194 367.182 79.1532 367.468C81.6599 367.546 81.556 370.897 79.2311 370.897C79.1532 370.897 79.0622 370.897 78.9713 370.884H78.9843V370.897ZM66.5934 366.481C66.8792 366.65 67.2299 366.637 67.5676 366.611H67.8923C67.9572 366.169 68.2689 365.767 68.7105 365.624C68.2819 365.377 67.7884 365.117 67.6455 364.611C67.2169 364.507 66.8143 364.195 66.4506 363.896C66.2298 364.779 66.7753 365.585 66.6064 366.481H66.5934Z" fill="white"/>
<path d="M97.284 372.383C96.6086 372.37 95.9333 372.383 95.2709 372.383C93.1797 372.409 91.1016 372.422 89.0884 371.851C86.7895 371.604 84.0489 370.669 83.5554 368.136C83.2826 366.214 81.9188 363.538 83.919 362.109C84.3606 361.837 84.6724 361.395 85.2439 361.356C85.8673 361.304 86.5167 361.356 87.1531 361.291C87.5428 361.33 87.9324 361.291 88.3221 361.239C88.8676 361.174 89.4261 361.122 89.9586 361.278C91.4003 362.018 91.3224 363.993 92.3485 365.11C94.9332 365.772 97.5438 366.344 100.115 367.045C101.505 367.279 102.934 367.746 103.999 368.721C104.687 369.37 104.817 370.448 104.233 371.214C103.895 371.721 103.298 371.916 102.908 371.994C101.622 372.318 100.323 372.422 99.0115 372.422C98.453 372.422 97.8815 372.409 97.323 372.383H97.284Z" fill="white"/>
<path d="M143.522 155.58C121.676 149.709 114.416 120.732 93.946 114.589C84.0489 120.044 74.3336 101.457 84.2826 100.522C91.8029 101.34 121.78 82.4681 125.196 74.9868C114.883 65.5182 114.883 64.8427 131.274 53.4648C165.875 75.7661 230.752 103.717 230.752 103.717C230.752 103.717 209.023 111.705 201.074 124.447C213.439 136.656 205.347 141.28 194.372 149.346C192.761 151.411 188.021 154.918 186.462 150.619C180.695 134.747 158.147 157.438 143.522 155.593V155.58Z" fill="white"/>
<path d="M160.903 213.298C160.383 213.155 159.902 212.908 159.474 212.57C156.188 210.713 152.603 209.414 149.369 207.44C143.42 203.959 137.731 199.997 131.432 197.231C127.172 195.192 123.21 192.555 119.34 189.853C118.574 189.373 117.833 188.84 117.08 188.321C116.041 187.749 114.924 187.243 114.17 186.308C112.17 183.45 112.963 176.462 115.171 173.904C115.184 173.722 115.197 173.527 115.21 173.345V173.163C114.768 172.877 114.378 172.566 114.041 172.15C113.04 170.89 114.067 169.137 115.638 169.241C116.275 169.072 116.703 169.513 117.002 170.02C118.236 170.89 119.717 171.319 121.132 171.812C122.886 172.267 124.652 172.709 126.354 173.319C128.821 174.319 131.263 175.462 133.913 175.891C137.082 176.397 140.251 176.06 143.394 175.54C147.628 175.228 151.954 174.774 155.707 172.618C157.565 171.695 159.11 170.786 160.864 169.786C162.773 168.838 164.682 167.916 166.462 166.734C168.981 165.396 171.54 164.058 173.735 162.201C174.488 161.448 175.19 160.642 175.917 159.863C177.424 158.252 180.021 160.331 178.723 162.162C177.151 164.591 176.229 167.331 175.255 170.046C174.384 172.007 173.631 174.007 172.865 176.008C171.319 180.294 169.371 184.749 168.124 189.087C166.695 193.607 165.098 197.595 164.267 202.154C163.903 204.816 163.851 207.518 163.526 210.18C163.448 211.583 162.955 213.35 161.396 213.35C161.24 213.35 161.084 213.337 160.916 213.298H160.903Z" fill="white"/>
<path d="M117.442 259.695C117.546 266.293 117.169 272.878 116.975 279.476C116.663 284.828 116.858 290.192 116.286 295.517C115.572 303.323 113.987 311.012 113 318.793C112.078 323.975 111.507 329.248 110.234 334.353C109.493 336.833 108.61 339.275 107.571 341.639C106.961 343.029 106.337 344.406 105.779 345.809C105.753 346.328 105.532 346.835 105.285 347.315C104.233 348.887 103.493 351.64 101.298 351.692C99.5053 353.563 97.8299 355.576 95.8037 357.199C92.8293 359.356 89.2835 361.888 85.426 360.927C82.6465 360.031 82.049 356.732 82.036 354.16C81.9061 352.835 81.4775 351.212 81.2567 350.056C79.867 343.782 78.8279 337.652 77.7239 331.378C76.4251 337.873 74.0872 344.081 72.4896 350.484C71.5025 352.796 70.7232 355.68 68.5931 357.186C67.0735 357.914 65.1382 358.979 63.4497 358.329C62.8912 358.096 62.5405 357.589 62.0989 357.199C62.0989 357.199 62.0729 357.173 62.047 357.16C62.0599 357.16 62.0729 357.186 62.0859 357.186C59.722 354.81 58.8389 351.355 57.6439 348.302C53.5136 335.145 53.7085 321.104 52.8123 307.519C52.5005 302.869 52.3187 298.219 52.2018 293.556C51.8122 286.114 51.4875 279.061 51.3186 271.683C51.1498 266.488 51.2277 261.293 51.1108 256.097C51.0848 252.123 50.7082 248.161 50.7861 244.174C50.0198 243.135 50.3964 241.654 50.3315 240.433C50.3445 238.952 50.4354 237.459 50.4873 235.978C50.4873 235.822 50.5263 235.666 50.6302 235.549C50.7991 235.329 51.0459 235.251 51.2796 235.29C51.6693 234.848 52.2148 234.653 52.7733 234.536C53.8773 233.978 55.0073 233.497 56.1892 233.121C58.4622 232.341 61.0729 232.289 63.3718 232.965C64.5667 233.328 65.6707 233.939 66.8267 234.367C70.0737 235.445 73.087 236.965 76.3731 237.757C78.9448 238.121 81.5165 238.576 84.1271 238.381C88.2314 238.524 91.9331 237.485 95.8686 236.835C99.5183 236.407 103.246 236.212 106.766 235.069C108.519 234.276 110.519 233.874 112.091 232.757C112.818 231.51 114.767 231.237 115.533 232.601C116.001 233.51 115.832 234.562 115.923 235.536C116.001 237.615 115.962 239.693 116.078 241.771C116.78 247.733 117.208 253.72 117.416 259.708H117.442V259.695Z" fill="#3F3D56"/>
<path d="M83.8038 203.225C89.0901 207.355 72.9975 229.527 68.2568 225.591C44.3063 248.243 15.654 220.708 12.0692 194.809C11.7445 188.275 8.58838 180.378 11.0172 174.105C19.0959 175.118 20.4987 188.029 35.695 183.924C45.1376 174.923 47.982 159.909 48.4496 147.881C50.164 149.7 15.1864 135.62 19.4726 116.241C22.0313 104.656 32.5518 91.5243 45.735 96.7457C63.8537 103.928 94.3244 125.164 71.8416 144.556C75.3484 146.258 72.439 151.18 72.0494 153.999C68.3607 172.04 73.1794 189.042 83.8038 203.238V203.225Z" fill="#FDC82E"/>
<path d="M15.1866 192.025C12.4331 184.336 14.3423 151.839 24.3434 168.879C20.4339 171.62 19.9663 198.805 15.1866 192.025Z" fill="white"/>
<path d="M185.814 151.866C185.295 150.139 184.412 148.398 183.009 147.216C180.567 145.463 177.437 146.762 174.696 146.931C173.463 147.1 172.216 147.203 170.969 147.398C168.449 147.788 166.085 148.775 163.591 149.32C161.176 149.892 158.929 150.983 156.604 151.801C154.824 152.386 153.045 152.996 151.292 153.672C149.889 154.152 148.46 154.529 147.044 154.919C145.304 155.386 143.524 156.01 141.719 156.217C141.342 155.971 140.953 155.737 140.602 155.451C136.874 152.749 133.095 150.126 129.588 147.138C125.821 143.606 122.25 139.67 118.873 135.761C115.833 131.942 113.249 127.513 108.768 125.149C108.586 124.746 108.612 124.123 108.17 123.928C107.768 123.811 107.508 124.175 107.443 124.526C106.716 124.175 105.378 123.759 104.663 124.214C103.975 124.006 103.287 123.863 102.598 123.85C99.4161 123.629 96.2729 124.019 93.1427 124.551C91.8569 124.733 90.584 125.019 89.3891 125.526C85.8822 126.876 83.6223 130.059 81.7519 133.176C79.8037 136.163 76.7774 138.371 75.5045 141.8C72.3873 149.918 70.4001 158.906 71.7379 167.608C69.6468 167.556 69.6338 169.907 69.8287 171.44C69.9066 172.544 69.9975 173.7 70.1404 174.843C70.491 177.791 71.0625 180.714 72.1016 183.506C72.4653 185.506 73.1926 187.416 74.1018 189.234C75.2448 191.507 76.2579 193.91 77.8944 195.884C79.3751 197.534 80.609 199.378 82.1546 200.976C83.8301 204.21 85.7783 208.119 84.8432 211.86C84.2587 213.107 83.1677 214.068 82.2065 215.016C80.57 216.445 79.0893 218.03 77.4788 219.484C74.1148 222.472 71.2703 226.017 67.6076 228.667C66.5426 229.459 65.5685 230.433 64.2696 230.823C64.2177 230.836 63.9579 230.927 63.6982 231.07C62.4123 231.758 62.5162 233.824 63.893 234.343C64.3735 234.538 64.8801 234.538 65.3996 234.564C71.686 235.564 77.9983 236.33 84.3886 236.447C88.1032 236.681 91.7919 236.096 95.4546 235.512C99.1823 235.018 102.624 234.317 106.183 233.057C107.897 232.577 109.625 232.096 111.326 231.563C112.378 231.213 113.508 230.784 114.171 229.836C114.612 229.187 114.833 228.42 114.937 227.654C115.236 225.108 115.054 222.537 114.963 219.978C114.807 214.899 115.119 209.808 114.223 204.781C113.885 199.794 112.664 194.936 112.482 189.922C112.326 186.87 112.158 183.259 111.807 180.103C111.651 175.765 111.235 171.479 110.404 167.18C112.703 166.972 114.69 168.31 116.678 169.271C117.691 169.777 118.86 170.245 119.964 170.622C122.055 171.323 123.977 172.427 125.99 173.323C129.172 174.687 132.575 175.531 135.991 176.025C139.719 176.544 143.408 175.648 146.953 174.557C149.421 173.882 151.915 173.297 154.344 172.505C155.617 172.089 156.812 171.453 157.993 170.842C160.02 169.894 162.189 169.05 164.176 167.985C167.994 166.387 171.579 164.322 174.891 161.854C177.099 159.88 179.697 158.49 182.256 157.036C184.139 155.984 186.555 154.295 185.827 151.827V151.866H185.814Z" fill="#6F479F"/>
<path d="M79.3743 120.966C77.7377 116.953 66.9314 110.874 71.6722 108.069C80.9848 102.549 80.7121 107.835 83.1279 114.005C99.3114 112.303 88.0375 120.953 79.3743 120.966Z" fill="#6F479F"/>
<path d="M61.4893 104.056C51.3455 100.51 68.3732 89.2623 69.7239 98.9128C70.1785 102.342 64.2948 105.745 61.4893 104.056Z" fill="#6F479F"/>
<path d="M115.598 96.1312C113.247 95.248 117.248 84.6754 119.261 82.6492C119.69 82.0128 120.326 81.5191 121.053 81.2854C122.846 80.6879 124.976 82.792 124.95 84.5195C125.067 87.4679 123.326 90.5202 122.248 93.2348C118.235 98.1964 115.91 96.274 115.598 96.1312Z" fill="#FDC82E"/>
<path d="M46.54 148.016C35.305 142.886 18.0565 124.793 18.0565 124.793C18.0565 124.793 9.09459 153.186 7.1853 163.966C9.49723 170.967 13.2638 173.721 14.225 173.682C16.0693 173.474 16.9006 164.94 17.55 163.525C21.2907 164.343 24.252 166.031 24.3429 167.902C24.6156 173.331 13.7444 181.54 30.3825 184.189C42.1759 183.449 47.0595 157.55 46.553 148.029H46.54V148.016Z" fill="#6F479F"/>
<path d="M68.5029 108.729C59.398 105.469 74.4126 97.8968 78.2961 100.975C84.2058 106.365 70.7758 107.898 68.5029 108.729Z" fill="#3F3D56"/>
<path d="M81.1787 130.788C81.3736 127.905 77.8537 120.436 81.8411 120.06C90.2056 116.319 105.129 114.111 110.961 123.307C106.142 125.541 89.2055 121.631 84.3738 129.489C83.9842 130.853 82.4126 131.944 81.1787 130.775V130.788Z" fill="#3F3D56"/>
<path d="M83.7376 205.864C83.3999 205.072 83.6596 204.201 83.8675 203.409C83.9064 203.253 83.9584 203.11 84.0103 202.967C83.3609 201.279 85.2702 200.11 86.1534 198.941C87.4132 197.421 89.1017 196.343 90.4655 194.967C93.6217 190.81 97.5052 186.81 100.843 182.991C102.298 181.225 103.947 179.627 105.467 177.913C106.584 176.016 107.532 174.003 108.208 171.899C108.571 170.925 109.104 170.003 109.403 169.003C109.896 167.756 111.727 167.496 112.507 168.6C112.909 169.133 112.909 169.782 113.013 170.418C113.169 171.405 113.299 172.406 113.338 173.419C113.39 175.601 112.325 177.653 111.104 179.393C110.325 180.51 109.351 181.472 108.441 182.472C107.688 183.212 107.156 184.472 105.987 184.55C101.584 190.745 96.1804 196.11 91.3617 201.954C90.0629 203.305 87.699 207.098 85.5689 207.098C84.9195 207.098 84.2961 206.747 83.7246 205.864H83.7376Z" fill="#3F3D56"/>
<path d="M87.5574 357.722L87.5843 357.682C87.5843 357.682 87.5708 357.709 87.5574 357.722Z" fill="black"/>
<path d="M86.6093 361.953C86.5443 361.42 86.5443 360.719 86.947 360.355C87.0639 360.394 87.1808 360.433 87.3107 360.459C87.6354 360.537 87.986 360.602 88.3237 360.602H88.4147C88.4926 360.732 88.5445 360.875 88.5445 361.018C88.5705 361.472 88.5186 361.94 88.4926 362.421C88.3627 362.447 88.2328 362.499 88.09 362.538H88.1029C88.025 362.563 87.9471 362.576 87.8561 362.602C87.7652 362.602 87.6873 362.615 87.5964 362.628C87.2977 362.667 86.9859 362.706 86.6872 362.771H86.6352C86.6093 362.499 86.5963 362.226 86.5833 361.953H86.6093Z" fill="black"/>
<path d="M67.5435 354.012H67.5296C67.5296 354.012 67.5296 354.026 67.5156 354.026C67.5156 354.026 67.5435 354.012 67.5435 353.998V354.012Z" fill="black"/>
<path d="M73.6061 347.525C73.5282 347.655 73.4503 347.785 73.3594 347.928C73.4373 347.798 73.5152 347.668 73.6061 347.525Z" fill="black"/>
<path d="M74.0481 346.75C74.165 346.503 74.2559 346.231 74.3338 345.958C74.4897 345.438 74.6325 344.919 74.8014 344.412C74.9312 344.048 75.0611 343.685 75.178 343.308C75.269 342.983 75.3599 342.659 75.4378 342.321C75.4378 342.295 75.4378 342.282 75.4508 342.256V342.23V342.308C75.4508 342.308 75.4768 342.204 75.4897 342.152C75.4897 342.191 75.4768 342.23 75.4638 342.256C75.5027 342.1 75.5417 341.944 75.5807 341.776C75.5807 341.814 75.5677 341.84 75.5547 341.879C75.7365 341.1 75.8794 340.308 75.9963 339.515C76.0613 339.113 76.1132 338.71 76.1781 338.308C76.2301 337.892 76.269 337.463 76.334 337.048C76.3729 336.775 76.4249 336.502 76.4769 336.229C76.4769 336.255 76.4769 336.294 76.4639 336.32C76.4639 336.255 76.4898 336.177 76.5028 336.112C76.5808 335.567 76.6067 335.021 76.6587 334.476C76.7106 333.93 76.7756 333.398 76.7886 332.852C76.8016 332.242 76.7496 331.644 76.6977 331.034V330.917C76.7366 330.761 76.7886 330.618 76.8275 330.463C76.9185 330.06 76.9964 329.631 77.1912 329.255C77.5809 328.423 78.8278 328.384 79.2434 329.216C79.711 330.229 79.3993 331.398 79.2434 332.437C78.8148 335.398 78.0225 338.282 76.8405 341.035C75.9703 343.009 75.0741 344.997 73.9961 346.867C74.0221 346.828 74.048 346.776 74.061 346.724V346.75H74.0481Z" fill="black"/>
<path d="M65.2695 359.13C65.2045 358.442 65.1785 357.727 65.1655 357.039C65.1655 356.857 65.2175 356.688 65.3084 356.545H65.4513C65.6201 356.532 65.789 356.48 65.9578 356.441C66.2696 356.35 66.5813 356.246 66.893 356.143C67.5554 356.584 67.5684 357.792 67.7113 358.558C67.7113 358.688 67.7242 358.805 67.7372 358.922C67.7113 358.935 67.6853 358.961 67.6593 358.974C67.5944 358.974 67.5424 359 67.4774 359H67.4905H67.4645H67.4774H67.4385C67.3476 359.013 67.2437 359.026 67.1527 359.026C67.0229 359.026 66.906 359.052 66.7761 359.065H66.5163C66.4384 359.065 66.3605 359.065 66.2825 359.078H66.0488C65.9578 359.078 65.8539 359.091 65.763 359.104C65.6851 359.104 65.5942 359.104 65.5162 359.117H65.2695V359.13Z" fill="black"/>
<path d="M39.6563 141.132C39.6563 141.132 39.6434 141.132 39.6304 141.119C39.6953 141.158 39.7732 141.184 39.8381 141.223C39.7732 141.197 39.7213 141.158 39.6563 141.132Z" fill="black"/>
<path d="M39.473 141.033H39.447C39.447 141.033 39.5639 141.085 39.6289 141.124C39.5769 141.098 39.5249 141.072 39.473 141.046V141.033Z" fill="black"/>
<path d="M79.4135 119.559C79.4135 119.559 79.3872 119.611 79.374 119.638C79.3872 119.611 79.4003 119.585 79.4135 119.559Z" fill="black"/>
<path d="M69.5556 109.007C69.5556 109.007 69.4777 108.994 69.4258 108.981C69.3868 108.929 69.3479 108.864 69.2959 108.812C69.3998 108.877 69.4907 108.942 69.5946 109.007H69.5556Z" fill="black"/>
<path d="M97.2191 111.316C97.2191 111.316 97.3099 111.394 97.3489 111.433C97.4398 111.511 97.5437 111.602 97.6347 111.68C97.4918 111.563 97.3489 111.446 97.2061 111.316H97.2191Z" fill="black"/>
<path d="M119.821 84.5332C119.821 84.5332 119.807 84.5737 119.794 84.5872C119.794 84.5737 119.794 84.5467 119.821 84.5332Z" fill="black"/>
<path d="M181.177 146.583C181.787 146.518 182.359 146.219 182.84 145.843C183.853 145.284 184.697 144.453 185.632 143.777C187.593 142.362 189.684 140.959 191.399 139.231C192.23 138.491 192.672 137.517 192.854 136.439C193.763 133.542 192.399 130.542 192.698 127.581C192.75 126.775 193.243 124.451 194.412 125.308C194.867 126.061 194.945 126.983 195.152 127.828C195.191 128.009 195.269 128.191 195.36 128.347V128.451C195.23 129.555 195.269 131.023 196.282 131.711C198.14 132.672 199.413 130.841 198.854 129.074C198.672 128.269 198.231 127.594 197.737 126.957C197.737 126.853 197.711 126.737 197.698 126.633C197.451 125.373 196.815 124.009 195.594 123.437C193.867 122.684 191.84 123.671 191.178 125.399C189.593 129.126 191.724 133.27 190.555 137.062C189.892 138.244 188.944 139.05 187.827 139.868C185.619 141.362 183.281 142.881 181.619 145.024C181.294 145.349 180.333 146.284 181.151 146.57H181.177V146.583Z" fill="black"/>
<path d="M207.374 132.486C207.685 131.472 207.672 130.394 207.088 129.394C206.828 128.758 205.932 128.446 205.217 128.485C205.075 128.485 204.932 128.459 204.776 128.433C204.945 127.706 205.01 127.056 204.932 126.654C204.776 125.407 203.724 124.03 202.347 124.433C201.931 124.602 201.191 124.641 201.048 125.134C200.931 125.615 201.412 125.796 201.776 125.926C203.204 127.381 199.892 130.888 201.672 132.07C202.893 132.615 203.984 130.901 204.555 129.199C204.75 129.303 204.932 129.42 205.101 129.563C205.451 130.226 205.334 131.018 204.984 131.823C204.984 131.849 204.984 131.875 204.958 131.888C204.958 131.888 204.893 132.031 204.867 132.096C204.828 132.187 204.789 132.265 204.75 132.343C204.672 132.499 204.594 132.641 204.516 132.784C204.516 132.784 204.516 132.797 204.503 132.81C204.503 132.81 204.503 132.81 204.503 132.823C204.451 132.914 204.412 133.018 204.373 133.109C204.308 133.252 204.23 133.395 204.178 133.538C204.152 133.616 204.126 133.706 204.1 133.797C204.075 133.888 204.049 133.979 204.036 134.07C204.036 134.07 204.023 134.213 204.023 134.278V134.369V134.434C204.023 134.473 204.049 134.512 204.062 134.551C204.1 134.81 204.217 135.044 204.49 135.2C205.49 135.577 206.192 134.849 206.62 133.966H206.659C206.659 133.966 206.672 133.94 206.685 133.927V134.031V134.057C207.023 137.421 205.192 139.434 202.893 141.746C201.529 142.85 200.373 144.188 198.957 145.227C197.126 146.526 195.333 147.942 193.463 149.215C191.71 150.617 189.528 151.254 187.761 152.618C187.436 152.163 186.8 151.929 186.28 152.28C185.306 153.033 184.475 153.968 183.54 154.774C183.514 154.657 183.488 154.54 183.462 154.423C183.163 153.358 182.955 151.955 182.501 150.89C181.748 148.682 180.306 146.201 177.955 145.474C177.319 145.344 176.63 145.5 176.357 146.149C176.163 146.591 176.383 146.981 176.604 147.357C177.15 148.292 177.942 148.994 178.384 150.007C179.137 151.345 179.838 152.877 180.657 154.215C180.981 154.8 181.254 155.449 181.631 156.008C175.24 159.969 168.629 163.593 162.005 167.165C157.07 170.191 151.732 172.607 146.095 173.997C142.159 174.659 138.055 175.373 134.08 174.672C131.548 174.127 128.989 173.542 126.651 172.399C123.313 170.75 119.871 169.282 116.676 167.373C113.559 165.476 110.494 163.437 107.272 161.645C103.142 158.618 98.7781 155.891 94.0893 153.8C92.9853 152.994 91.9981 154.514 93.0632 155.202C95.6609 157.021 98.2455 158.878 100.778 160.787C103.597 162.969 106.415 165.1 109.636 166.671C113.961 169.282 118.3 171.828 122.884 173.958C125.092 175.049 127.274 176.218 129.677 176.815C132.015 177.452 134.418 178.049 136.86 178.049C139.509 177.997 142.133 177.595 144.744 177.218C149.991 176.348 155.005 174.295 159.693 171.854C161.979 170.568 164.148 169.074 166.447 167.814C169.837 165.931 173.11 163.866 176.422 161.866C179.553 159.891 182.955 158.229 185.722 155.774C186.073 155.436 186.579 155.085 187.021 154.696C187.034 154.696 187.06 154.683 187.073 154.67C187.904 154.306 188.696 153.878 189.502 153.462C193.489 151.734 197.061 149.189 200.464 146.513C202.802 144.422 205.256 142.344 206.906 139.603C207.971 137.447 208.023 134.746 207.335 132.447L207.374 132.486Z" fill="black"/>
<path d="M71.6064 362.27L71.6344 362.297C71.6344 362.297 71.6064 362.283 71.6064 362.27Z" fill="black"/>
<path d="M19.8492 194.146C19.5504 195.705 17.5762 196.302 16.5112 195.12C10.3807 188.366 12.9913 169.91 17.2775 163.039C17.7191 162.584 18.2776 162.233 18.94 162.363C19.1738 162.389 19.4075 162.441 19.6284 162.493C19.6024 162.493 19.5764 162.493 19.5504 162.48C19.7712 162.532 19.9791 162.597 20.1739 162.714C20.1479 162.714 20.1219 162.688 20.096 162.675C28.941 166.831 23.5768 174.053 20.9142 180.43C19.6673 183.418 20.5635 190.431 19.8622 194.133H19.8492V194.146ZM16.68 170.052C14.9915 176.664 14.6278 183.69 16.3813 190.301C16.4462 190.535 16.7839 190.483 16.7839 190.249C16.4722 182.353 19.5894 174.754 22.9014 167.715C21.4857 166.805 20.1219 165.831 18.8101 164.792C17.5243 166.26 17.1996 168.234 16.693 170.052H16.68Z" fill="black"/>
<path d="M18.0845 162.436C18.0845 162.436 18.0566 162.436 18.0566 162.45C18.0566 162.45 18.0845 162.449 18.0845 162.436Z" fill="black"/>
<path d="M18.2275 162.393C18.2275 162.393 18.1871 162.393 18.1736 162.406C18.1871 162.406 18.214 162.406 18.2275 162.393Z" fill="black"/>
<path d="M124.86 65.4008C123.73 63.5435 122.015 61.8161 119.82 61.3874C120.132 58.556 119.95 55.5426 118.093 53.2436C117.028 51.5681 115.326 49.6978 113.261 49.2432C111.248 48.7756 107.559 48.2431 104.689 48.8016C103.052 46.8793 100.792 45.5804 98.4933 44.6063C93.4799 42.4242 88.3495 44.1647 84.414 47.5807C79.1667 45.0479 72.7635 48.6717 69.7892 53.2696C69.3865 53.958 69.0618 54.6853 68.7631 55.4127C67.2174 56.179 65.8017 57.1791 64.6457 58.491C61.1908 62.2706 60.1258 66.2711 61.009 70.2845C60.7103 70.7521 60.4116 71.2457 60.1128 71.8171C57.736 75.6228 57.2684 80.0518 58.6451 84.312C59.5024 87.2215 61.6844 89.2737 64.3081 90.6764C64.2951 91.7934 64.4509 92.8195 64.7497 93.7417C64.7367 94.0145 64.7237 94.2872 64.7497 94.56C65.6589 99.2488 70.7892 101.509 75.1014 101.976C76.5301 102.08 78.1146 101.73 79.1277 100.665C79.1537 100.691 79.1797 100.704 79.2057 100.729C79.972 102.327 81.8033 102.639 83.3879 102.925C84.2711 103.132 85.1673 103.288 86.0635 103.301H86.4142C89.2327 103.301 92.6746 101.95 91.8174 98.5344C93.2591 99.1189 94.6618 100.028 96.2854 99.9372C97.9868 99.7943 99.7272 98.9111 100.727 97.4954C101.247 96.6771 101.299 95.6899 101.416 94.7678C102.416 94.7288 103.403 94.9886 104.39 95.2613C105.754 95.638 107.131 96.0017 108.533 95.5601C110.988 95.1185 112.871 92.8455 112.625 90.3127C112.573 89.2217 112.066 88.1696 112.183 87.0656C113.612 86.1824 115.157 87.4293 116.638 87.4423C116.859 87.4293 120.301 82.104 120.34 81.8313C120.366 81.5066 120.379 81.1559 120.548 80.8572C120.742 80.7013 120.989 80.6623 121.197 80.5454C121.561 80.3636 121.807 80.1947 121.82 80.1557C124.522 81.4546 125.613 76.1813 126.171 74.246C126.912 71.2586 126.639 67.9726 124.86 65.4008Z" fill="black"/>
<path d="M197.243 128.921C196.048 127.934 197.36 126.622 198.1 125.817C199.918 123.531 201.659 121.154 203.763 119.115C209.153 113.88 214.751 108.867 221.934 106.373C224.012 105.659 226.051 104.853 228.142 104.178C229.168 103.892 230.259 103.58 231.324 103.788C231.727 103.892 232.039 104.256 231.987 104.685C231.922 105.204 231.363 105.438 230.973 105.672C230.558 105.905 230.142 106.126 229.727 106.347C226.129 108.347 222.167 109.542 218.635 111.672C214.712 113.75 211.231 116.556 207.802 119.349C205.932 120.998 204.14 122.738 202.594 124.713C201.542 125.869 199.022 130.194 197.256 128.921H197.243Z" fill="black"/>
<path d="M76.4406 100.988H76.454H76.4271C76.4271 100.988 76.4136 100.988 76.4001 101.002H76.4406V100.988Z" fill="black"/>
<path d="M231.181 102.563C225.648 100.29 220.31 97.5624 214.751 95.3673C211.491 94.1594 208.386 92.6267 205.243 91.146C199.775 88.977 194.294 86.7949 189.008 84.2232C186.293 82.7944 183.527 81.5086 180.773 80.1708C175.825 77.4562 170.941 74.6117 165.941 71.975C162.823 70.2086 159.55 68.7539 156.342 67.1823C149.393 63.5975 142.678 59.5711 136.145 55.2719C135.158 54.5965 134.054 54.1159 132.976 53.5963C131.677 52.9859 130.197 51.7 128.781 52.7261C127.027 54.1938 125.274 55.3758 123.326 56.7526C120.845 58.6229 118.273 60.4932 116.117 62.7143C115.871 63.1948 115.987 63.8183 116.481 64.104C117.533 64.6236 118.585 63.7663 119.442 63.2078C123.313 61.2336 126.56 58.2332 129.976 55.5836C134.054 57.8306 157.602 71.7283 160.161 72.9362C154.186 78.1575 137.704 94.536 134.808 97.1467C131.859 95.1725 128.963 93.0554 126.04 91.0941C125.742 90.8993 125.443 90.7304 125.131 90.5616C126.469 87.6911 126.768 84.2102 125.105 81.5475C123.767 79.6253 121.676 79.1187 119.559 80.0409C118.546 80.3786 115.909 86.1195 114.844 88.7821H114.818C113.624 88.6263 112.429 88.3535 111.247 88.2106C110.896 88.2106 110.675 88.5224 110.766 88.8601C110.896 89.3406 111.377 89.6134 111.779 89.8472C112.533 90.2758 113.351 90.5746 114.143 90.9253C113.234 93.523 113.779 97.2896 117.013 97.7312C118.546 97.8481 119.806 97.0947 120.897 96.0816C121.417 97.5623 121.962 100.017 120.377 101.095C119.351 101.693 118.299 102.329 117.663 103.355C117.182 104.342 116.819 105.394 116.299 106.356C115.884 106.33 115.455 106.33 115.052 106.213C114.234 105.927 113.455 105.524 112.727 105.057C112.091 104.771 110.597 102.966 110.091 104.057C110.286 106.174 112.935 108.044 115.013 108.226C113.896 109.681 112.558 110.979 111.039 112.032C109.753 113.071 108.233 113.72 106.558 113.59C103.454 113.33 100.181 112.564 97.4661 110.824C96.8556 110.486 96.0633 110.694 95.7126 111.304C95.3879 111.941 95.5957 112.447 95.9854 112.889C95.9204 112.915 95.8685 112.954 95.8036 112.967C95.8425 112.967 95.8815 112.941 95.9074 112.941C95.1152 113.252 94.2319 113.252 93.3747 113.239H92.6474C90.6212 113.317 88.582 113.265 86.5429 113.032C82.9711 112.915 83.0879 112.707 82.2177 109.343C81.7891 107.875 81.8801 106.33 81.5164 104.849C81.2956 103.771 80.9449 102.719 80.75 101.628C80.4903 100.238 79.9967 97.7442 78.542 97.0169C77.5419 96.9519 77.7757 98.4586 77.7108 99.121C77.7367 100.537 77.5549 101.978 77.7368 103.381C77.8407 103.888 77.9316 104.394 78.0095 104.914C76.4899 104.94 74.3078 105.342 73.9701 105.433C72.8531 105.693 70.4373 106.68 69.2424 107.94C68.2553 107.122 67.2552 106.33 66.2291 105.563C66.9304 105.161 67.502 104.316 68.1644 103.797C70.3334 102.056 73.0609 100.913 75.8534 100.822C75.9703 101.004 76.2171 101.056 76.399 100.939C76.6328 100.822 76.8536 100.589 76.7237 100.277C75.9704 99.017 74.0221 99.2379 72.7362 99.2119C71.6063 99.2898 70.4762 99.4717 69.3852 99.7704C67.9175 100.277 64.1769 102.004 63.8652 103.875C62.4624 102.914 61.0337 101.991 59.5791 101.121C59.3453 100.965 59.0985 100.822 58.8647 100.68C59.4232 99.9652 60.6051 98.7183 64.2029 96.7181C65.5667 96.1855 67.2552 95.3932 68.6839 96.0556C68.7748 96.1985 68.9826 96.2245 69.1125 96.1336C69.4632 95.8348 69.0086 95.4452 68.7358 95.2894C68.1643 94.9257 67.5539 94.7049 66.9175 94.6009C66.8915 94.6139 66.8655 94.6269 66.8395 94.6269C66.8395 94.6269 66.7876 94.6269 66.7746 94.6009C66.7486 94.6009 66.7356 94.575 66.7096 94.562C65.4108 94.3932 64.0211 94.627 62.7612 94.8867C60.4883 95.3153 57.5659 97.3415 55.9423 98.9261C51.9289 96.77 47.6168 95.1725 43.1098 94.4062C39.1484 93.8087 34.8103 93.0034 31.0567 94.7439C26.7575 96.7441 21.0556 106.966 18.1333 113.33C16.7435 116.214 16.2499 119.63 16.7565 122.799C16.7565 122.812 16.7695 122.838 16.7825 122.851C16.3538 124.02 15.9772 125.215 15.3927 126.306C13.5094 130.293 8.14523 149.464 7.30098 154.984C6.87237 157.829 6.35285 160.764 6.26193 163.648C6.20998 165.128 6.59963 166.609 7.31398 167.908C7.95041 169.064 8.65179 170.181 9.39213 171.272C9.28822 171.843 9.22326 172.363 9.17131 172.688C8.88556 174.935 8.58682 177.169 8.43096 179.429C8.08028 184.001 8.67776 188.547 9.34016 193.067C10.9507 203.821 15.2369 214.355 22.0428 222.888C28.3941 230.46 37.8236 235.682 47.8116 236.045C47.8246 236.955 47.9415 237.877 48.0194 238.786C48.1493 240.293 48.1493 241.812 48.1623 243.332C48.2142 252.047 48.5 260.814 49.6819 269.478C50.2794 281.012 50.5781 292.636 50.7989 304.222V304.287V304.261C51.1106 312.093 51.2535 319.977 52.3316 327.757C53.0979 332.9 54.111 338.005 55.2669 343.083C56.3449 347.993 57.7737 352.877 60.1635 357.319C60.2415 357.514 60.3454 357.683 60.4493 357.825C60.3194 358.735 60.4103 359.852 60.4103 360.371C60.5142 362.254 60.8 364.138 61.2156 365.982C61.5923 367.813 62.4495 369.71 64.4237 370.216C68.2942 371.229 72.3206 371.32 76.321 371.684C76.5938 371.71 76.8795 371.723 77.1653 371.723C80.2695 371.723 83.7763 370.177 81.0228 366.696C79.4123 365.164 77.1523 364.709 75.1261 363.982C74.2948 363.683 73.4376 363.371 72.5934 363.06C72.2686 362.787 71.9439 362.501 71.6322 362.241L71.6842 362.293C71.1517 361.956 71.1517 361.54 71.0737 360.982C70.8529 359.917 70.7101 358.774 70.1645 357.721C70.8659 357.111 71.4893 356.384 71.9439 355.604C73.2817 353.851 73.9961 351.825 74.6845 349.786C75.3989 348.292 75.9703 346.72 76.4249 345.084C76.6587 344.291 76.9185 343.499 77.1653 342.707C77.412 342.031 77.6718 341.356 77.9056 340.681C78.4252 344.967 79.0616 349.227 79.7889 353.474C80.2305 356.098 80.3084 359.072 81.8281 361.397C81.8021 361.657 81.7761 361.93 81.7372 362.189C81.5293 364.735 81.8541 367.398 82.9711 369.71C83.5425 371.074 84.8154 371.632 86.2051 371.788C89.1925 372.671 92.3227 373.334 95.4658 373.528C96.1412 373.541 96.9465 373.567 97.8167 373.567C100.531 373.567 103.804 373.295 105.233 371.515C106.337 369.112 103.324 367.333 101.427 366.593C99.9858 366.073 98.4401 365.878 96.9075 365.761C96.6348 365.722 96.362 365.67 96.0893 365.631C94.8294 365.463 93.4916 365.164 92.4525 364.423C92.1019 364.073 92.1019 363.54 92.0499 363.086C91.9979 362.67 91.8161 362.293 91.6473 361.917C96.4789 360.579 101.142 357.306 104.038 353.656C107.48 349.253 109.766 344.11 111.571 338.862C115.377 328.238 117.026 317.042 118.338 305.871C119.079 300.299 119.234 294.662 119.157 289.038C119.247 279.336 118.91 269.647 118.455 259.957C118.027 252.372 117.208 233.461 116.91 229.655C117.052 229.499 117.208 229.33 117.351 229.162C118.001 228.434 118.481 227.46 118.13 226.499C117.793 224.655 117.559 222.771 117.325 220.914C116.845 216.965 116.468 213.004 116.026 209.055C115.715 205.652 115.819 202.223 115.507 198.82C115.221 195.651 114.818 192.573 114.52 189.417C117.663 191.638 121.144 193.378 124.443 195.366C127.261 197.028 130.08 198.678 132.898 200.34C133.002 200.405 133.106 200.457 133.197 200.509C133.288 200.561 133.379 200.613 133.47 200.665C133.6 200.743 133.729 200.808 133.859 200.873C133.898 200.899 133.937 200.912 133.976 200.938C134.197 201.054 134.405 201.171 134.613 201.288C134.652 201.301 134.678 201.327 134.717 201.353C134.872 201.444 135.041 201.548 135.184 201.652C135.249 201.704 135.314 201.743 135.379 201.795C136.509 202.457 137.639 203.133 138.769 203.808C146.276 208.263 153.783 213.082 162.356 215.225C162.434 215.225 162.512 215.238 162.59 215.238C162.771 215.238 162.953 215.199 163.109 215.147C163.265 215.147 163.395 215.056 163.512 214.913C163.966 214.524 164.174 213.874 164.031 213.303C164.109 212.887 164.174 212.497 164.252 212.277C165.083 208.861 165.85 205.432 166.759 202.042C168.577 195.82 170.72 189.69 172.669 183.494C174.097 178.948 175.422 174.402 177.085 169.921C178.267 166.635 179.76 163.466 181.176 160.271C181.514 159.647 181.968 159.232 182.28 158.53C182.722 157.53 181.462 156.595 180.617 157.257C175.604 161.933 172.824 170.791 170.525 178.377C170.136 178.247 169.72 178.182 169.318 178.117C165.291 177.312 161.473 175.766 157.641 174.324C156.654 173.974 150.679 171.688 151.835 174.376C154.797 177.558 164.148 180.65 168.499 181.637C168.824 181.741 169.162 181.78 169.486 181.78C169.227 182.611 168.967 183.416 168.72 184.182C166.187 192.482 163.161 200.704 162.278 209.393C162.187 210.237 162.135 211.095 162.148 211.939C161.888 211.861 161.615 211.783 161.369 211.679C155.68 209.666 150.212 206.977 145.094 203.743C142.276 201.951 139.392 200.275 136.522 198.574C136.561 197.678 136.535 196.755 136.678 195.872C136.964 191.859 137.652 187.884 138.535 183.962C139.042 181.091 139.665 178.26 140.393 175.441C140.198 175.506 140.016 175.584 139.821 175.649C139.6 175.727 139.366 175.792 139.133 175.87C138.743 175.987 138.353 176.078 137.951 176.13C137.808 176.156 137.665 176.156 137.522 176.156C137.379 176.156 137.249 176.156 137.106 176.13C136.886 176.104 136.691 176.013 136.522 175.883C135.989 178.026 135.522 180.182 135.132 182.351C134.223 186.598 133.366 190.846 133.067 195.184C133.028 195.599 133.002 196.015 132.976 196.444C132.444 196.119 131.911 195.807 131.392 195.469C126.378 192.313 121.248 189.339 115.845 186.884C115.351 186.676 114.818 186.352 114.273 186.222C114.195 184.429 114.221 182.637 113.987 180.857C113.883 180.377 113.818 179.779 113.65 179.26C113.831 178.974 114.013 178.675 114.182 178.39C115.052 176.714 116.143 175.052 116.156 173.09C116.364 170.7 115.221 168.103 113.052 166.934C112.688 166.778 111.662 166.258 111.286 166.414C111.247 166.349 111.221 166.258 111.169 166.219C108.675 164.258 101.752 179.299 99.1935 181.533C94.8034 188.092 88.9327 193.365 83.4127 198.937C82.7503 198.028 82.0879 197.132 81.4774 196.21C75.7366 189.599 72.4115 181.728 72.1128 172.909C71.5283 164.518 71.931 156.036 73.6194 147.776C73.8013 146.867 74.0481 145.944 74.3208 145.035C77.1393 142.373 78.7368 138.749 80.4253 135.333C80.7111 134.709 80.9968 134.073 81.2566 133.424C82.8801 131.839 84.3868 130.124 86.2181 128.774C89.6471 126.423 93.5955 124.916 97.7388 124.487C100.285 124.046 102.726 124.371 105.324 124.578C111.143 125.033 111.338 129.215 111.792 129.852C113.104 131.67 114.468 133.463 116.026 135.086C119.26 138.658 122.767 141.944 126.339 145.178C129.171 147.802 131.859 150.594 134.911 152.971C137.042 155.114 139.613 156.608 142.756 156.621H142.886C142.886 156.621 142.886 156.647 142.873 156.66C142.964 156.647 143.055 156.621 143.159 156.608C148.523 156.465 153.602 154.283 158.693 152.763C165.057 150.685 171.474 148.815 177.994 147.295C182.735 145.711 183.007 147.581 185.267 151.205C185.514 151.711 185.891 152.309 185.995 152.932C186.047 153.296 186.332 153.595 186.683 153.686C187.164 153.815 187.631 153.504 187.813 153.062C188.177 152.309 188.099 151.451 187.644 150.763C187.034 149.594 186.28 148.503 185.631 147.36C184.007 144.1 180.838 143.736 177.63 144.633C175.084 145.321 172.461 145.659 169.941 146.386C166.187 147.659 162.291 148.425 158.537 149.659C155.186 150.724 151.991 152.27 148.471 152.724C151.264 146.178 154.498 139.762 158.187 133.657C160.862 129.436 163.72 125.332 166.733 121.331C169.837 123.098 172.993 124.773 176.266 126.241C180.929 128.176 185.462 130.592 190.307 132.034C190.385 132.034 190.463 132.047 190.54 132.047C191.774 132.047 192.71 130.644 192.164 129.501C191.878 128.839 191.216 128.514 190.553 128.332C189.475 127.955 188.397 127.592 187.358 127.137C181.124 124.462 174.89 121.734 168.954 118.461C173.435 112.746 178.228 107.265 183.306 102.069C186.644 98.4585 190.592 95.5102 194.541 92.6138C195.242 92.0293 196.164 91.5877 196.918 91.0032C198.671 91.7046 200.438 92.3929 202.23 93.0164C211.608 96.848 221.037 100.563 230.129 105.057C231.895 105.719 232.74 103.238 231.194 102.537V102.563H231.181ZM117.767 95.5881C117.377 95.7699 116.897 95.77 116.533 95.5492C115.299 94.7828 115.767 92.0292 115.974 90.6914C116.429 87.5612 118.208 84.8726 120.313 82.5736C121.118 81.6904 122.586 81.8723 123.157 82.9243C123.936 84.366 124.56 86.3533 123.728 88.7431C121.949 93.8476 118.871 95.1075 117.767 95.6011V95.5881ZM72.3076 109.213C73.1648 108.356 74.2169 107.771 75.3209 107.291C76.2691 106.862 77.2692 106.524 78.2433 106.187C78.4771 107.719 78.7239 109.252 79.3603 110.681C79.9578 112.083 80.3604 113.694 81.5813 114.707C83.3997 116.175 85.8934 115.72 88.0625 116.045C88.3742 116.071 88.6859 116.084 88.9847 116.084H89.1795C88.5301 116.253 87.8936 116.448 87.2572 116.668C84.6595 117.448 82.2177 118.721 80.2565 120.565C79.8539 119.669 79.5551 119.058 79.5421 119.045C77.6069 115.499 74.5546 112.772 71.6322 110.018C71.853 109.758 72.0738 109.473 72.2946 109.213H72.3076ZM70.1905 364.294C70.1905 364.294 70.3334 364.372 70.4113 364.411C70.5152 364.463 70.6191 364.514 70.723 364.553H70.775C70.8919 364.605 71.0088 364.644 71.1257 364.696H71.1127C71.1127 364.696 71.1387 364.696 71.1517 364.722C71.2945 364.774 71.4244 364.826 71.5673 364.891C71.6712 364.93 71.7621 364.982 71.8531 365.021C72.8012 365.346 73.7493 365.696 74.7494 366.034C76.1522 366.45 77.5419 366.904 78.8148 367.645C79.3343 367.904 80.0097 368.333 80.1915 368.957C78.6719 369.411 77.0873 369.489 75.5157 369.268C72.6843 369.073 69.8009 369.372 66.9954 368.892C66.0602 368.619 64.9692 368.463 64.2289 367.788C63.4236 365.618 63.7613 363.229 63.4366 360.969C63.3327 360.345 63.1768 359.748 62.995 359.137C62.969 359.137 62.93 359.111 62.9171 359.072V358.994C62.9171 358.994 62.9171 358.916 62.969 358.89C63.008 358.877 63.047 358.877 63.0859 358.89C63.1638 358.903 63.2288 358.916 63.3067 358.929C63.4626 358.955 63.6184 358.968 63.7743 358.994H63.7873C63.7873 358.994 63.8652 358.994 63.9172 359.007H64.0081C64.086 359.007 64.1639 359.02 64.2419 359.033C64.3458 359.033 64.4627 359.046 64.5666 359.059C64.7614 359.072 64.9562 359.085 65.1511 359.098H65.203H65.19H65.4368C65.5147 359.098 65.6057 359.098 65.6836 359.085C65.7745 359.085 65.8784 359.072 65.9693 359.059H66.2031C66.281 359.059 66.359 359.059 66.4369 359.046H66.6967C66.8266 359.046 66.9434 359.02 67.0733 359.007C67.1642 359.007 67.2681 359.007 67.3591 358.981H67.398H67.3851H67.411H67.398C67.398 358.981 67.5149 358.968 67.5799 358.955C67.6448 358.89 67.7227 358.864 67.8137 358.851C67.8786 358.851 67.9306 358.852 67.9825 358.89C68.0475 358.916 68.0994 358.968 68.1514 359.007C68.3072 359.15 68.4111 359.345 68.502 359.527C68.6189 359.761 68.6579 360.02 68.6968 360.28C68.7228 360.436 68.7488 360.579 68.7748 360.735V360.696C68.8137 360.943 68.8527 361.176 68.9047 361.423C68.9177 361.514 68.9436 361.618 68.9566 361.709L68.9956 361.982C68.9956 361.982 68.9956 362.06 69.0086 362.086C69.0346 362.28 69.0995 362.475 69.1385 362.657C69.1775 362.839 69.2164 363.008 69.2813 363.177C69.2813 363.177 69.3073 363.242 69.3203 363.281C69.3593 363.384 69.4112 363.488 69.4632 363.592C69.5152 363.683 69.5801 363.761 69.632 363.839C69.632 363.839 69.632 363.852 69.645 363.865C69.71 363.943 69.7879 364.021 69.8658 364.099C69.8658 364.099 69.8788 364.099 69.8918 364.112C69.8918 364.112 70.0217 364.216 70.0996 364.268L70.1905 364.294ZM76.5938 330.783C76.0093 335.524 74.8273 340.187 73.6454 344.811C72.6453 347.954 71.1647 350.98 69.1775 353.63C69.1775 353.63 69.1774 353.656 69.1645 353.669C69.1255 353.786 69.0865 353.916 69.0086 354.02C68.8917 354.189 68.7748 354.332 68.58 354.435H68.554C68.1903 354.903 67.7877 355.345 67.3591 355.76C67.2551 355.838 67.1642 355.929 67.0733 356.02C67.0473 356.02 67.0084 356.046 66.9824 356.059C66.6317 356.176 66.281 356.293 65.9174 356.397C65.7485 356.436 65.5797 356.488 65.4108 356.501C65.3329 356.501 65.242 356.514 65.1511 356.514C65.0472 356.514 64.9432 356.514 64.8523 356.501C64.7874 356.501 64.7354 356.501 64.6835 356.488C64.6835 356.488 64.6835 356.501 64.6705 356.514C64.06 356.462 63.4496 356.306 62.8651 356.098C61.7611 353.63 60.9039 350.812 59.9817 348.201C58.3452 341.798 57.2412 335.264 55.9293 328.783C54.8903 323.951 54.5006 319.016 54.2019 314.093C53.6564 304.43 53.5784 294.74 53.4096 285.051C53.1498 279.869 53.1239 274.413 52.8511 269.14C52.5264 265.347 52.0718 261.568 51.9549 257.762C51.6172 251.528 52.0978 244.813 51.3704 238.513C51.2275 237.955 51.0847 236.968 50.8639 235.994C52.6173 235.851 54.3577 235.539 56.0722 235.11C57.2801 234.799 58.475 234.474 59.644 234.071H59.657C61.6702 235.175 63.9172 235.734 66.0862 236.409C66.3979 236.526 66.7226 236.617 67.0343 236.721C67.0084 238.072 67.3331 239.617 67.4759 240.487C67.7227 242.046 67.8916 243.618 68.0604 245.189C68.8008 251.58 69.3723 257.996 70.1256 264.386C71.4634 277.284 73.009 290.142 74.1 303.053C75.0222 310.885 76.2691 318.691 76.6847 326.575C76.7107 327.16 76.7496 327.731 76.7756 328.316C76.5158 329.03 76.6717 330.043 76.5548 330.744L76.5938 330.783ZM91.7512 365.839C91.7512 365.839 91.8551 365.956 91.907 366.008C92.0369 366.138 92.1798 366.255 92.3226 366.372C92.3876 366.424 92.4526 366.463 92.5175 366.502C92.5695 366.528 92.6084 366.567 92.6604 366.58H92.6474C92.7383 366.619 92.8422 366.671 92.9461 366.709H92.9721C93.1539 366.735 93.3357 366.761 93.5046 366.8C96.2841 367.424 99.2844 367.307 101.843 368.684C102.557 369.19 103.61 369.554 103.752 370.528C101.635 371.944 98.9727 371.671 96.453 371.827C92.8682 371.892 89.2574 371.203 85.8025 370.048C84.2699 369.58 83.7763 365.294 83.2958 362.813C83.3477 362.813 83.3867 362.839 83.4386 362.852C83.8283 362.865 84.2179 362.878 84.6076 362.878C84.9972 362.878 85.3999 362.878 85.7895 362.852C85.8415 362.826 85.9194 362.826 85.9714 362.826H86.4909C86.4909 362.826 86.6208 362.8 86.6857 362.787C86.9844 362.735 87.2832 362.683 87.5819 362.644C87.6728 362.644 87.7508 362.618 87.8417 362.618H87.8936C88.5171 362.579 89.1405 362.527 89.7639 362.41C89.7899 363.112 89.9718 363.787 90.3744 364.385C90.4263 364.462 90.4783 364.527 90.5302 364.592C90.5302 364.592 90.5563 364.605 90.5563 364.618C90.6082 364.657 90.6472 364.709 90.6861 364.761C90.7511 364.839 90.816 364.917 90.881 364.982C90.9069 365.021 90.9459 365.047 90.9719 365.086L90.9978 365.112L91.0758 365.19C91.1407 365.268 91.2187 365.333 91.2966 365.411C91.4005 365.515 91.4914 365.618 91.5953 365.722L91.7512 365.878V365.839ZM115.221 266.335C115.637 277.401 115.767 288.506 115.351 299.572C114.909 304.988 114.13 310.378 113.39 315.769C112.533 321.886 111.26 327.965 109.389 333.862C107.688 339.486 105.61 345.058 102.311 349.941C100.323 352.981 97.518 355.332 94.3099 356.981C92.7383 357.734 91.1407 358.449 89.4263 358.813C87.8936 359.085 86.335 359.02 84.7894 359.007C84.3868 359.007 84.0231 359.15 83.7374 359.384C81.0877 346.785 80.0097 333.94 79.4382 321.081C79.1135 314.574 78.2044 308.132 77.5809 301.663C76.8146 293.961 76.1522 286.259 75.3339 278.57C74.165 268.257 73.1779 257.918 71.9699 247.618C71.5803 244.267 71.1906 240.916 70.3854 237.643C70.788 237.734 71.1776 237.825 71.5803 237.903C73.3856 238.396 75.243 238.539 77.0873 238.773C78.8278 239.085 80.5682 239.345 82.3476 239.319C88.569 239.384 94.8554 238.981 100.83 237.175C105.415 235.877 110.454 234.734 114.377 231.954C114.403 234.474 114.546 239.864 114.663 241.955C114.844 250.086 114.974 258.217 115.247 266.348H115.221V266.335ZM99.4143 233.785C93.6605 235.487 87.5819 235.747 81.6203 235.669C75.6976 235.175 69.8009 234.032 64.1899 232.045C70.0346 228.889 74.8533 224.057 79.4642 219.329C81.5423 217.147 83.6205 214.926 85.1791 212.341C85.6856 212.082 86.1662 211.653 86.5818 211.302C87.6599 210.419 88.7119 209.51 89.686 208.51C94.9333 203.379 99.4922 197.677 104.129 192.001C106.675 188.884 109.35 185.676 111.688 182.286C111.532 183.78 111.299 185.261 111.325 186.767C111.325 190.378 111.571 193.989 111.909 197.574C112.247 201.21 112.143 204.86 112.39 208.51C113.026 214.653 113.546 220.81 114.533 226.902C110.753 231.227 104.675 232.175 99.4403 233.759L99.4143 233.785ZM111.312 167.284C111.766 168.038 112.143 168.83 112.623 169.57C114.013 171.934 113.065 175.428 111.493 177.506C109.285 180.507 106.766 183.247 104.376 186.105C100.934 190.235 97.4661 194.599 93.8943 198.665C91.959 200.886 90.0237 203.094 87.9326 205.159C87.6598 205.51 87.1533 205.977 86.5688 206.497C86.5299 205.886 86.4519 205.263 86.361 204.678C86.0623 203.431 85.5298 202.288 84.8673 201.197C91.6343 196.937 110.376 172.792 111.312 167.271V167.284ZM75.5287 193.3C78.0225 196.768 80.828 200.028 82.9191 203.808C83.7374 205.328 83.5295 207.133 83.2698 208.77C83.01 209.978 82.2047 210.991 81.5683 212.03C79.5032 215.355 76.36 217.901 73.5285 220.615C70.2425 224.083 66.4499 226.902 62.2287 229.149C58.4101 230.954 54.5006 232.097 50.2534 232.578C40.668 233.318 31.5762 228.551 25.2119 221.602C19.1983 214.277 15.3408 204.847 13.3925 195.599C12.4054 190.235 11.5222 184.728 11.7041 179.234C11.756 177.662 11.8209 176.104 11.8729 174.532C12.6652 175.428 13.4834 176.298 14.3926 177.091C14.7433 177.402 14.8992 177.532 15.2498 177.844C15.2758 177.493 15.5486 174.181 15.5616 174.155C14.7693 173.415 14.2497 172.857 13.5354 172.051C12.7691 171.194 12.1196 170.259 11.5092 169.298C11.5092 169.298 11.5092 169.272 11.4962 169.259C10.691 167.999 9.96358 166.687 9.15831 165.414C8.96348 165.115 8.83361 164.778 8.80764 164.427C8.70373 162.79 9.14531 161.115 9.35312 159.491C9.88565 156.348 10.5611 153.361 11.3404 150.218C12.821 144.178 14.4056 138.164 16.224 132.216C16.9903 130.085 17.7696 127.942 18.367 125.734C19.4451 127.631 20.614 129.475 21.9129 131.228C26.4458 136.943 32.2516 141.58 38.8237 144.775C41.1226 146.113 43.5384 147.243 46.0452 148.152C45.9413 148.477 45.9023 148.828 45.9283 149.127C45.4477 154.049 44.4996 158.972 43.6553 163.855C42.5124 169.492 40.1485 174.818 36.9663 179.598C35.8493 181.195 34.6415 183.039 32.5244 183.26C30.2774 183.078 28.0694 182.286 26.0302 181.338C23.6014 180.169 22.0687 179.364 19.8477 177.701C19.6139 178.403 18.7177 180.299 18.6268 180.585C21.9778 183.156 24.9911 184.858 29.0305 186.066C30.2644 186.533 31.3813 186.754 32.4074 186.754C36.239 186.754 38.6808 183.741 40.9018 180.039C43.9281 175.324 46.0582 170.038 47.1492 164.531C47.7467 161.725 48.1493 158.426 48.552 155.504C48.8767 153.374 49.0195 151.231 48.8507 149.075C51.6432 149.88 54.5136 150.425 57.423 150.594C57.8646 150.62 58.2932 150.646 58.7348 150.646C61.4364 150.646 64.112 150.062 66.6967 149.256C68.541 148.763 70.2685 147.945 71.879 146.932C70.5802 152.361 70.0347 157.959 69.6191 163.518C69.4242 173.688 69.632 184.624 75.5677 193.339L75.5287 193.3ZM76.0743 135.969C74.8663 138.294 73.6844 140.749 71.7232 142.541C68.515 145.217 64.138 146.464 60.0206 146.932C52.7342 147.217 45.7984 144.62 39.4731 141.022C34.1219 138.333 29.4591 134.54 25.4197 130.072C23.4195 127.825 21.8349 125.241 19.9257 122.916C19.2632 116.188 23.1598 110.031 26.6406 104.55C27.0693 103.914 30.3683 100.017 31.4593 98.9911C34.1349 95.9258 43.7333 98.0949 47.3051 99.1989C52.7082 100.848 57.462 103.966 62.1378 107.044C66.4239 110.005 70.3074 113.486 73.9052 117.24C74.5936 117.967 75.23 118.734 75.8534 119.526C77.2042 121.253 78.0095 123.344 78.1134 125.539C78.2433 128.306 77.9706 132.268 76.0743 135.943V135.969ZM97.1933 122.163C91.6602 122.5 86.1922 124.929 82.5035 129.072C82.5684 128.501 82.6074 127.916 82.5684 127.319C82.3606 125.812 81.5813 123.682 80.867 121.968C84.7635 120.058 88.7898 118.253 93.102 117.578C95.1801 117.162 97.2193 117.409 99.3234 117.746C101.298 118.045 103.246 118.578 105.038 119.474C106.857 120.331 107.974 122.007 109.207 123.526C105.441 122.007 101.194 121.786 97.1803 122.163H97.1933ZM110.948 121.422C110.948 121.422 110.857 121.526 110.818 121.591C110.688 121.448 110.571 121.318 110.441 121.175C108.078 117.461 103.623 116.136 99.4792 115.59C98.2064 115.37 96.9335 115.266 95.6477 115.266C96.4789 115.058 97.2712 114.772 97.9596 114.292C100.57 115.59 103.506 116.149 106.402 116.383C106.584 116.396 106.779 116.409 106.961 116.409C109.922 116.409 112.507 114.707 114.715 112.863C117.416 110.694 118.702 107.343 119.793 104.173C121.988 102.433 124.664 101.212 124.209 97.8481C124.014 96.4453 123.534 95.1335 122.988 93.8347C123.105 93.6918 123.235 93.5489 123.352 93.406C123.456 93.2761 123.56 93.1463 123.664 93.0164C124.04 93.3021 124.43 93.6009 124.793 93.8996C125.833 94.7828 126.911 95.6271 128.015 96.4064C129.352 97.5234 130.755 98.5495 132.184 99.5366C126.17 105.031 120.287 110.668 114.883 116.759C113.546 118.279 112.247 119.851 110.948 121.422ZM157.173 128.501C152.069 136.307 147.926 144.581 144.328 153.14C142.808 153.166 141.302 152.984 139.886 152.348C136.379 149.789 133.08 146.906 129.859 143.983C125.975 140.152 122.092 136.307 118.364 132.333C117.052 130.943 113.364 124.89 113.169 124.526C113.701 123.799 118.728 117.837 120.845 115.577C125.495 110.733 130.327 106.135 135.249 101.602C136.314 102.303 137.379 103.004 138.444 103.706C144.263 107.693 150.173 111.564 156.277 115.123C158.719 116.603 161.148 118.097 163.603 119.552C161.395 122.5 159.265 125.488 157.173 128.514V128.501ZM185.839 94.7958C178.422 101.368 171.85 108.823 165.798 116.681C165.018 116.214 164.226 115.733 163.46 115.24C154.978 110.213 146.653 105.057 138.47 99.4846C138.288 99.3807 138.107 99.2508 137.912 99.1339C139.587 97.6013 141.276 96.0687 142.964 94.536C147.094 90.5875 161.239 77.4952 163.135 74.352C165.278 75.378 167.408 76.4171 169.499 77.5342C174.578 80.2877 179.799 83.301 185.111 85.6649C187.852 87.0676 190.631 88.3925 193.463 89.6134C190.761 91.0811 188.242 92.8865 185.839 94.7958Z" fill="black"/>
</g>
<defs>
<clipPath id="clip0_7744_97137">
<rect width="232" height="394" fill="white"/>
</clipPath>
</defs>
</svg>
