<?xml version="1.0" encoding="UTF-8"?>
<svg id="Calque_1" data-name="Calque 1" xmlns="http://www.w3.org/2000/svg" viewBox="0 0 942 474">
  <defs>
    <style>
      .cls-1 {
        fill: #fdc82e;
      }

      .cls-2 {
        fill: #9e616a;
      }

      .cls-3 {
        fill: #a37ad4;
      }

      .cls-4 {
        fill: #3f3d56;
      }

      .cls-5 {
        fill: #0d0c21;
      }

      .cls-6 {
        fill: #5d2b9d;
      }

      .cls-7 {
        fill: #fff;
      }

      .cls-8 {
        fill: #e1cbf1;
      }

      .cls-9 {
        fill: #ffe69c;
      }
    </style>
  </defs>
  <g>
    <path class="cls-8" d="M546.9,7.71c16.65,1.25,12.55,22.01,12.75,33.65-.31,10.83-1.29,21.65-1.16,32.5.16,8.57.84,17.12.92,25.69.48,9.7-.66,15.01-11.25,17.05-14.04,3.13-28.51,2.99-42.82,2.91-27.5-.71-54.74-4-82.18-4.89-9-.87-19.72-1.68-25.85-9.18-6.11-9.63-6.49-24.64-8.03-35.86-.37-7.44-8.29-57.82,2.3-56.04.2-.2.45-.34.7-.42,1.67-1.08,3.98-1.46,5.81-1.82,13.22-1.81,26.55-2.9,39.88-3.36,29.09-.68,58.2-.11,87.29.73,7.19-.6,14.42-1.63,21.63-.97Z"/>
    <path d="M494.3,122.18c-30.89-2.1-61.94-3.74-92.71-6.66-15.2-7.14-11.01-37.77-13.68-52.17-.3-2.41,3.39-2.93,3.73-.51,1.17,9.69,1.22,19.48,2.3,29.17,1.17,7.42,2.33,19.86,11.85,20.44,14.04.78,28.07,1.86,42.1,2.85,32.6,1.56,66.09,7.52,98.29-.21,11.99-3.47,11.78-5.07,10.83-16.99-.39-10.49-.59-20.98-.36-31.48.21-10.88.99-21.72,1.58-32.58-.11-6.46,2.3-24.13-6.68-24.74-45.18,1.59-90.58-1.39-135.71.49-7.27.47-14.52,1.59-21.5,3.73-6.08,1.8-7.56,4.89-6.72,11.03.27,8.56.4,17.14.92,25.69-.22,2.72,1.54,7.31.32,9.46.04-.04.08-.09.11-.13,0,0,0-.01,0-.02-.62.91-2.11.91-2.72-.01,0,0,0,.02,0,.03.04.05.09.1.13.15-2.89-9.93-1.67-20.94-2.43-31.26-.43-8.21-1.4-15.11,8.11-18.13,18.41-6,38.19-4.76,57.31-5.02,22.97.26,45.94.92,68.92.66,10.88-.04,21.77-.35,32.65-.47,8.97-.48,10.83,9.65,11.13,16.67-.08,24.88-2.98,49.74-1.36,74.67,1.5,16.18-.18,18.23-16.07,22.53-16.46,3.85-33.57,3.53-50.36,2.81Z"/>
    <path d="M539.52,48.87c-1.41-5.6-2.65-11.24-3.72-16.91-.35-1.29-.58-3.39-1.98-3.84-.53-.53-1.34-.7-2.08-.42-1.75.66-3.52,1.29-5.27,1.93-2.51.92-5.02,1.84-7.54,2.71-1.26.44-2.75.93-4.26,1.41-.73.23-1.47.45-2.19.68-.72.24-1.71.48-1.99,1.29-.16.45-.13.86.09,1.29.15.29.46.53.76.64.28.11.57.14.86.14.13,0,.26,0,.39-.02.8-.06,1.59-.23,2.37-.42,1.51-.35,2.99-.8,4.47-1.28,2.73-.89,5.44-1.87,8.14-2.85.65-.24,1.3-.48,1.96-.72-1.37,2.3-2.76,4.59-4.17,6.86-3.8,6.1-7.68,12.11-11.7,18.06-3.14,4.17-36.19,53.01-38.56,40.41-1.93-13.46-2.33-27.11-4.39-40.56-1.45-7.86-3.78-33.07-15.35-18.56-6.12,5.97-11.67,12.95-19.03,17.41-1.99.14-3.26-8.77-4.99-10.78-6.64-13.24-13.7-2.1-18.13,5.81-3.58,6.03-7.54,12.04-10.12,18.56,2.04,5.24,5.1-3.45,6.37-5.21,3.4-6,6.99-11.89,10.75-17.67,4.78-8.62,7.92-.02,9.84,5.13,1.08,3.28,2.18,8.86,6.8,7.92,3.98-1.18,6.84-4.58,9.9-7.21,5.25-4.61,9.63-10.24,14.93-14.72,2.44,3.23,2.86,7.59,3.85,11.43,2.13,10.55,3.08,21.51,4.03,32.26,1.23,5.31-.34,21.18,6.02,22.3,12.45,1.62,46.3-51.62,56.99-69.21.12.59.23,1.17.31,1.77.86,4.48,1.92,8.93,3.03,13.36.72,2.37,4.21,1.39,3.63-1Z"/>
    <path d="M509.97,86.14c-.37-.49-.43-1.16-.11-1.69.69-1.08,2.13-.98,3.25-1.17,4.1-.44,8.21-.71,12.32-1.03,4.31-.32,8.63-.57,12.85-.85.53-.03,1.05-.07,1.58-.11.96-.06,1.77.85,1.77,1.76.01.97-.81,1.76-1.77,1.77-8.14.52-16.14,1.26-24.26,1.85-1.63-.04-4.47.82-5.63-.53Z"/>
    <path d="M511.03,94.51c-.28-.03-.56-.14-.8-.33-.83-.65-.83-1.95.01-2.59.49-.37,1.13-.45,1.72-.56.65-.12,1.31-.22,1.96-.32,1.34-.2,2.67-.39,4.01-.56,2.52-.32,5.06-.61,7.59-.84,3.34-.3,6.69-.55,10.04-.51.21,0,.42,0,.63.01.19,0,.41,0,.61.02.08,0,.15,0,.23.02.04,0,.08,0,.12.01.95.07,1.9.14,2.82.37.98.24,1.55,1.34,1.28,2.29-.28.99-1.31,1.53-2.29,1.28-.07-.02-.13-.03-.2-.05-.46-.09-.92-.14-1.39-.18h-.14c-.18,0-.36-.02-.53-.02-.23.01-.47,0-.7-.01-.29,0-.57-.01-.86-.01-.56,0-1.12,0-1.68.02-1.28.04-2.55.09-3.78.17-5.18.33-10.35.92-15.5,1.54-.62.07-1.23.15-1.85.21-.29.03-.57.06-.86.06-.15,0-.3,0-.46-.03Z"/>
    <path d="M510.51,102.72c-.43-.1-.76-.53-.82-.96-.06-.48.19-.92.58-1.14.32-.18.69-.28,1.03-.38.6-.16,1.22-.26,1.83-.35,1.32-.21,2.65-.37,3.98-.52,2.55-.29,5.09-.56,7.64-.81,4.02-.39,8.05-.76,12.07-1.12.41-.04.82-.08,1.23-.11.32-.03.67-.08,1.01-.08.11,0,.23-.02.34-.03,1.01-.1,1.95.6,2.08,1.62.12.98-.61,2-1.63,2.08-.16.01-.31.02-.4.02-.22.04-.45.06-.68.08-.29.03-.58.05-.87.08-.68.06-1.35.12-2.03.18-1.82.16-3.65.32-5.47.47-5.21.44-10.44.89-15.66,1.13-.65.03-1.32.07-1.98.07-.76,0-1.51-.05-2.25-.22Z"/>
  </g>
  <g>
    <path class="cls-7" d="M300.2,211.91s-39.03.52-58.04,7.58c-.66-25.68-1.19-82.52-1.19-82.52,0,0-5.98-1.46-55.61-15.66-180.94-51.79-14.62-79.55,9.42-85.1,33.06-7.63,105.48-8.29,105.48-8.29l-.06,183.99Z"/>
    <path class="cls-6" d="M265.84,59.28l-.16,126.19-29.15,2.65V59.28h29.31Z"/>
    <path class="cls-9" d="M238.04,363.66c-9.19,8.43-115.38-2.99-137.27-37.97-1.58-79.6.81-163.47-.19-242.45,32.92,34.7,140.71,48.31,140.4,53.74.71,36.74-1,224.91-2.94,226.69Z"/>
    <path class="cls-7" d="M175.15,245.21c.54,2.85-.04,5.82-.09,8.71-.46,7.38-1.19,14.74-1.33,22.14-.17,8.3-.12,16.61-.4,24.91-.03,10.55-1.92,14.62-13.31,12.27-12.91-2.43-25.88-5.74-37.13-12.73-2.83-1.62-5.65-3.25-8.49-4.87-3.99-2.5-8.79-4.27-11.77-8.05-1.75-3.38-.7-7.48-1-11.14-.04-6.65,0-13.29.03-19.93,0-10.68-.21-21.36.22-32.04,0-.82-.09-1.78.53-2.41,1.03-1.04,2.68-.13,2.73,1.25,5.18,2.56,10.66,4.17,16.16,5.79,9.56,2.89,19.21,5.52,29,7.52,7.28,1.54,14.6,3.12,21.54,5.88,1.36.51,2.85,1.23,3.31,2.72Z"/>
    <path class="cls-4" d="M132.35,247.03c1.61,3.56-1.57,6.25-5.04,5.03-2.57-.9-5.61-2.99-5.33-6.05.09-1.25,1.36-2.32,2.6-1.84,2.27-1.33,6.77.49,7.77,2.86Z"/>
    <path class="cls-4" d="M160.95,291.74c.93,2.63,3.31,8.74-1.48,8.59-3.43-.86-6.71-2.27-10.11-3.26-8.45-2.67-17.13-4.57-25.64-7.02-6.11-1.88-21.1-6.13-21.14-13.86-.02-1.78,1.08-3.29,2.09-4.66,1.04-1.41,2.08-2.81,3.06-4.26,1.78-2.73,3.57-5.47,5.11-8.34.31-.59.52-1.26,1.05-1.69.88-.73,2.36-.25,2.61.87.48.06.94.3,1.25.71.69.99,1.27,2.06,1.93,3.07,1.88,3.03,3.94,5.93,5.99,8.84,2.27,3.28,6.98,9.93,11.53,8.99.94-.65,1.12-1.95,1.55-2.94.53-1.58.95-3.2,1.29-4.84,1.05-4.12,1.91-18.04,5.84-19.51,2.94-1.02,3.77,2.61,4.4,4.7.86,2.7,1.72,5.41,2.58,8.11,1.95,5.92,3.46,11.97,5.18,17.95.93,3.08,1.87,5.63,2.91,8.54Z"/>
    <path class="cls-6" d="M217.25,81.96l-.71,47.46-19.58-6.01v-37.15l20.29-4.29Z"/>
    <path class="cls-6" d="M176.51,118.72l-19.94-5.64.82-7.8,18.19-4.31.93,17.75Z"/>
    <path d="M99.48,148.26c.02-.99.7-1.52,1.49-1.6-.02,1.27-.05,2.54-.06,3.81-.67-.62-1.2-1.33-1.43-2.21Z"/>
    <path d="M147.22,188.62s.03,0,.04.01c-.01.02-.02.04-.03.06,0-.02,0-.05,0-.07Z"/>
    <path d="M101.01,187.1c0,.18,0,.35,0,.53,0,.71.02,1.43.03,2.14,0,.11,0,.22,0,.32-1.11-.76-.88-2.26-.04-3Z"/>
    <path d="M123.69,197.08s0,.01,0,.02c0,0,0-.01,0-.02Z"/>
    <path d="M123.73,197.31c0-.06-.02-.12-.03-.18,0,.06.02.12.03.18,0,0,0,0,0,0Z"/>
    <path d="M123.73,197.3s0,0,0,.01c0,.01,0,.02,0,.03,0,0,0-.02,0-.03,0,.06.02.12.03.18-.01-.07-.02-.13-.03-.19Z"/>
    <path d="M162.43,212.93c0-.26.02-.53.03-.79,0-.08,0-.15,0-.23.03.35.06.69.1,1.04-.05,0-.09-.01-.14-.02Z"/>
    <path d="M301.36,208.76c-.01-7.46-.03-14.91-.05-22.37-.02-7.5-.03-15-.05-22.5-.02-7.53-.03-15.06-.05-22.59-.01-7.74-.03-15.47-.05-23.21-.02-7.58-.03-15.15-.05-22.73-.02-7.46-.04-14.92-.06-22.38-.02-7.48-.05-14.95-.08-22.43-.02-3.74-.03-7.48-.06-11.21-.01-1.84-.03-3.67-.05-5.51,0-.93-.02-1.85-.04-2.78-.01-.76.09-1.72-.52-2.29,0,0,0,0,0,0-.05-.04-.09-.09-.14-.12-.02-.02-.05-.03-.08-.05.12-.19.18-.42.16-.68.43-3.33-13.27-1.52-16.3-1.96-11.51.27-23,1.09-34.49,1.86-40.13,2.93-80.45,9.01-118.17,23.48-33.92,11.88-43.8,33.84-6.94,51.47,16.92,8.41,35.27,13.26,53.34,18.5,20.32,5.91,40.69,11.64,61.48,15.63-.01,3.4-.03,6.8-.05,10.2-.05,8.95-.09,17.9-.13,26.85-.05,9.44-.09,18.87-.14,28.31-.02,5.09-.12,24.17-.13,27.49-.05,9.4-.09,18.8-.14,28.2-.05,9.51-.09,19.03-.14,28.55-.05,9.04-.09,18.08-.13,27.12-.04,8.53-.07,17.07-.09,25.6,0,4.14-.01,8.29.02,12.44.02,1.97.04,3.94.06,5.9,0,.38.02.77.02,1.15-.03.05-.07.09-.1.14-.22.41-.25.86-.13,1.3,0,.03.01.05.02.08.02.1.04.21.05.31,0,.11.01.21.01.32,0,.09-.02.18-.03.27-.01.07-.03.14-.05.21-.02.07-.05.13-.07.2-.05.09-.1.19-.15.28-.06.09-.13.18-.2.27-.09.1-.18.19-.27.28-.16.14-.32.27-.48.39-.24.16-.48.31-.73.45-.39.2-.8.38-1.21.55-.8.3-1.62.54-2.45.74-1.57.35-3.16.59-4.77.75-3.62.34-7.27.35-10.9.21-2.84-.11-5.9-.34-8.96-.64-5.36-.53-10.68-1.3-15.99-2.21-3.41-.59-7.02-1.29-10.62-2.06-5.58-1.19-11.11-2.53-16.62-4.01-2.75-.74-5.49-1.52-8.22-2.34-.7-.21-1.41-.42-2.11-.64-.37-.11-.73-.22-1.1-.34-.2-.06-.41-.14-.61-.19-.11-.03-.22-.07-.32-.1-.11-.04-.23-.07-.34-.11-1.31-.41-2.61-.84-3.91-1.27-2.74-.91-5.46-1.86-8.16-2.85-5.25-1.93-10.43-4.04-15.51-6.39-4.04-1.89-8.01-3.94-11.79-6.32-1.54-.98-3.21-2.13-4.78-3.42-.77-.65-1.51-1.32-2.2-2.05-.4-.44-.78-.89-1.13-1.37-.23-.33-.45-.67-.65-1.03-.2-.38-.38-.77-.61-1.13,0,0,0,0,0-.01,0,0,0,0,0,0-.06-.13-.13-.26-.19-.38.14-.24.22-.5.22-.79-.02-5.67-.05-11.34-.07-17.01-.02-5.21-.04-10.42-.06-15.62,3.78,2.41,7.66,4.65,11.64,6.73,5.33,2.79,10.81,5.33,16.4,7.57,6.15,2.46,12.46,4.63,18.92,6.14,3.21.75,6.45,1.38,9.73,1.69.8.07,1.61.13,2.42.16.41.02.82.02,1.23.02,1.67,0,3.34-.14,4.97-.5.66-.15,1.55-.38,2.36-.78.33-.16.7-.36,1.01-.61.06,0,.11.02.17.02.09,0,.18,0,.28-.01.95-.11,1.62-.9,1.66-1.82,0,0,0,0,0,0,0-.01,0-.02,0-.03,0-.05,0-.1,0-.15,0-.49.03-.98.05-1.47.03-.85.05-1.69.08-2.54.08-2.57.16-5.15.24-7.72.21-6.62.42-13.24.62-19.86.19-6.32.38-12.65.55-18.97.09-3.33.18-6.66.25-9.99.03-1.62.06-3.24.07-4.86,0-.71.01-1.41,0-2.12-.02-.64.01-1.44-.48-1.92h0c-.06-.07-.15-.11-.22-.17-.08-.18-.17-.38-.29-.59-7.63-1.69-15.79-2.53-23.48-4.57-13.9-3.04-27.41-7.63-40.46-13.28-2.69-1.17-5.34-2.42-7.99-3.68-.03-8.7-.07-17.4-.1-26.1,0-2.61-.02-5.23-.03-7.84.6.48,1.22.96,1.84,1.42,1.14.85,2.31,1.67,3.49,2.47,2.32,1.58,4.68,3.09,7.09,4.54,4.95,2.99,10.1,5.64,15.36,8.03,2.47,1.12,4.96,2.18,7.49,3.14,2.79,1.06,5.64,1.94,8.51,2.74,2.83.79,5.7,1.41,8.58,2,2.61.53,5.23,1,7.87,1.41,2.49.39,4.99.72,7.48,1.1,1.76.26,3.52.55,5.29.8.12.02.24.03.35.03.43,0,.84-.13,1.19-.43.36-.31.59-.76.63-1.24.04-.48-.12-.96-.43-1.32-.33-.38-.75-.56-1.24-.63-2.49-.35-5.03-.74-7.58-1.1-.05,0-.11-.01-.16-.02-.1-.01-.19-.03-.29-.04-.18-.03-.58-.08-.99-.14-.99-.14-2.21-.32-3.43-.5-2.61-.4-5.22-.85-7.81-1.37-2.78-.56-5.56-1.15-8.3-1.88h-.03c-.06-.02-.11-.04-.17-.05-2.08-.57-4.23-1.21-6.36-1.95-1.85-.64-3.67-1.35-5.47-2.09-.78-.33-1.56-.67-2.34-1.01-5.2-2.3-10.31-4.84-15.24-7.68-1.11-.65-2.21-1.32-3.3-1.99-2.43-1.5-4.84-3.04-7.19-4.67-1.16-.8-2.3-1.62-3.44-2.44-.48-.35-.95-.69-1.43-1.04-.02-5.58-.04-11.15-.07-16.73-.01-3.67-.03-7.34-.04-11.01,5.07,5.32,11.5,9.29,17.58,13.33,16.38,10.46,39.66,19.45,59.17,19.95,1.01,0,1.81-.98,1.76-1.95-.28-2.51-3.35-1.62-5.11-1.91-5.46-.27-10.83-1.43-16.09-2.87-20.36-5.61-39.97-15.33-55.5-29.81-.63-.61-1.18-1.31-1.83-1.9-.02-3.86-.03-7.72-.05-11.58-.02-4.38-.04-8.77-.06-13.15,18.51,19.04,50.25,32.72,76.06,37.26.68.09,1.37.23,2.06.21,2.08-.12,2.25-3.08.27-3.52-6.21-.8-12.28-2.46-18.29-4.2-19.55-6.01-38.35-15.27-54.01-28.59-1.42-1.26-2.77-2.59-4.11-3.93-.61-.51-1.28-1.4-2.01-2.12-.02-3.47-.04-6.94-.07-10.41-.04-4.37-.07-8.74-.13-13.11-.03-2.38-.07-4.76-.13-7.13-.03-1.19-.07-2.38-.13-3.56-.03-.48-.04-.95-.11-1.43-.06-.45-.2-.9-.62-1.14h0c-.35-.21-.8-.24-1.16-.03-.7.41-.69,1.26-.73,1.97-.05.87-.08,1.73-.1,2.6-.05,1.71-.07,3.42-.09,5.13-.03,3.45-.05,6.91-.05,10.36,0,5.6,0,11.2,0,16.8,0,.1-.01.2,0,.3,0,3.53.01,7.07.02,10.6.03,9.4.06,18.8.1,28.19.03,9.35.07,18.7.11,28.06.04,9.38.07,18.76.11,28.13.04,9.91.08,19.83.12,29.74.04,9.52.07,19.04.11,28.56.04,9.77.08,19.53.11,29.3.03,7.75.06,15.51.09,23.26,0,.77.5,1.44,1.21,1.65-.08.42-.05.82.04,1.23.25.98.73,1.89,1.31,2.71.63.87,1.32,1.68,2.09,2.44,1.45,1.44,3.06,2.7,4.73,3.87,4.56,3.19,9.56,5.75,14.6,8.1,5.11,2.37,10.35,4.47,15.65,6.4,2.72.99,5.46,1.94,8.21,2.84.66.22,1.32.43,1.98.64.31.1.63.2.94.3.24.08.49.17.74.24.2.06.4.13.6.19,5.42,1.69,10.89,3.24,16.39,4.64,5.55,1.41,11.14,2.68,16.76,3.78,5.41,1.06,10.85,1.98,16.32,2.7,5.54.72,11.12,1.25,16.7,1.4.98.03,1.96.04,2.94.04,1.61,0,3.21-.04,4.81-.14,2.77-.17,5.55-.47,8.23-1.2,1.15-.31,2.31-.69,3.37-1.24,1.22-.64,2.37-1.43,3.14-2.59.48-.72.8-1.53.88-2.39.07-.74-.02-1.47-.21-2.19-.03-.1-.07-.19-.11-.28.01-.44.03-.88.04-1.32.05-1.99.09-3.98.12-5.97.14-8.49.18-16.98.23-25.47.05-8.74.1-17.48.14-26.22.05-9.28.1-18.56.14-27.84.04-9.41.09-18.82.14-28.23.04-8.11.08-16.22.12-24.33,18.43-2.91,37.17-7.22,56.03-5.98,1.63.14,3.18.08,3.18-.84,0-1.3,0-2.61,0-3.91ZM103.85,224.55c5.77,2.72,11.67,5.16,17.65,7.38,15.35,5.81,31.4,9.68,47.59,12.21.59.11,1.49.23,2.42.27.35.01.7.01,1.04,0-.03.39-.06.79-.08,1.18-.08,1.34-.15,2.67-.21,4.01-.13,2.89-.23,5.79-.34,8.68-.24,6.42-.46,12.85-.67,19.27-.21,6.47-.42,12.95-.62,19.42-.1,3.08-.19,6.17-.29,9.25-.04,1.19-.07,2.38-.11,3.57-.01.43-.02.87-.04,1.31-.06.02-.12.04-.18.06-.47.16-.93.29-1.41.41-.65.14-1.3.23-1.96.3-1.21.1-2.43.11-3.65.07h-.03s-.06,0-.09,0c-2.21-.11-4.49-.41-6.75-.8-4.6-.83-9.12-2.06-13.57-3.48-1.26-.41-2.52-.84-3.78-1.28-5.69-2.02-11.27-4.37-16.71-6.98-1.77-.85-3.75-1.84-5.71-2.88-4.25-2.23-8.41-4.64-12.43-7.26-.27-.18-.54-.37-.81-.54-.01-2.73-.02-5.47-.03-8.2-.04-9.65-.08-19.3-.11-28.95-.04-9.16-.07-18.31-.11-27.47.36.15.7.31.99.47ZM256.46,213.59c-1.38.57-9.31,1.21-14.29,2.56,0-.07,0-.13,0-.2.04-9.32.09-18.64.14-27.96.05-9.13.09-18.26.13-27.4.04-7.87.08-15.74.11-23.62,0-.69-.38-1.3-.97-1.59-.04-.27-.16-.54-.4-.79-6.36-2.8-13.7-3.24-20.43-5.02-11.24-2.65-22.42-5.99-33.56-9.06-24.43-7.36-50.02-12.74-71.76-26.73-24.95-17.13-3.05-31.99,16.05-38.94,39.52-15.31,81.89-21.29,124-24.05,11.1-.69,21.92-1.5,33.12-1.49,1.53-.35,6.32.55,9.26.24-.03.14-.06.28-.06.42-.01.4-.02.8-.03,1.2-.01.93-.02,1.85-.03,2.78-.05,7.54-.04,15.07-.04,22.61s0,14.67.02,22c0,7.5.02,15,.03,22.51.02,7.71.03,15.42.04,23.14.02,7.69.03,15.38.05,23.07.01,7.41.03,14.83.05,22.24.02,7.58.03,15.15.05,22.73.01,5.97.02,11.93.04,17.9-9.55-1.36-39.79,2.81-41.52,3.45Z"/>
    <path d="M158.75,302.46c-11.56-1.85-22.88-5.16-33.71-9.58-7.44-3.1-18.04-5.71-23.06-12.27-1.63-2.26-1.61-5.32.03-7.57,1.26-2.14,2.67-4.19,4.14-6.18,1.94-2.59,3.79-5.38,5.1-8.31.65-1.32,1.08-2.86,2.27-3.81,4.3-2.98,8.13,4.56,10.36,7.34,2.97,3.93,8.66,14.22,12.82,15.93.78-.84.85-2.53,1.07-3.43,1.25-6.74.82-14.06,4.11-20.25,1.49-2.86,4.65-4.35,7.29-1.92,2.7,2.96,3.6,7.11,4.96,10.78,3.07,9.4,6.12,18.82,8.52,28.43.31.23.51.54.65.91.58,1.62,1.02,3.31,1.21,5.02.48,3.83-2.26,5.44-5.76,4.93ZM160.54,298.84c.08-.01.15-.02.23-.04.03,0,.05-.01.08-.02.29-1.81-.63-3.47-1.12-5.16-.4-1.28-.78-2.57-1.16-3.85-2.19-7.57-4.43-15.12-6.84-22.62-.82-2.59-1.63-5.19-2.59-7.73-.72-1.56-1.21-3.52-2.67-4.55-4.23,1.81-3.96,18.74-5.73,23.45-1.46,4.53-5.77,4.09-8.62,1.07-4.83-4.79-8.12-10.88-12.07-16.36-1.34-1.81-2.57-3.78-4.36-5.17-1.6,3.53-3.32,7.03-5.7,10.12-2.03,2.92-4.14,5.34-5.47,8.49.06,5.19,12.58,9.21,16.78,10.95,4.6,1.7,9.15,3.56,13.76,5.23,6.2,2.21,12.56,3.71,18.96,5.16,2.15.44,4.31,1.07,6.52,1.01Z"/>
    <path d="M126.24,253.84c-1.23-.34-2.4-.87-3.47-1.59-.95-.64-1.81-1.48-2.39-2.47-.47-.8-.76-1.69-.81-2.62-.05-.99.27-1.97.81-2.79,1.03-1.56,2.92-2.33,4.71-2.55,1.04-.13,2.1-.07,3.13.13.3.06.6.12.9.2.32-.1.66-.11.99,0,2.62.84,5.28,2.58,6.13,5.35.26.85.28,1.81.04,2.66-.29,1-.88,1.85-1.67,2.51-1.29,1.08-2.99,1.51-4.63,1.62-.21.01-.42.02-.63.02-1.05,0-2.1-.16-3.1-.44ZM129.92,250.49c.26-.02.52-.06.78-.11.21-.05.42-.11.63-.18.15-.06.3-.12.44-.19.11-.06.22-.12.32-.19.06-.05.13-.1.19-.15.05-.05.1-.1.15-.15.03-.04.07-.09.1-.13.02-.04.04-.08.06-.12.02-.04.03-.08.05-.12,0-.03.02-.06.03-.1,0-.04.01-.08.01-.12,0-.05,0-.1,0-.15,0-.05-.01-.11-.02-.16-.02-.07-.04-.13-.06-.2-.04-.09-.07-.18-.12-.27-.06-.11-.13-.22-.2-.33-.1-.13-.2-.26-.31-.39-.13-.14-.27-.27-.41-.39-.2-.16-.41-.32-.62-.46-.27-.17-.55-.32-.83-.47-.36-.16-.73-.31-1-.4-.3-.1-.56-.25-.78-.46-.28-.04-.56-.08-.84-.1-.36-.02-.72-.01-1.09.01-.32.03-.64.07-.96.13-.23.05-.45.11-.67.19-.16.06-.31.13-.47.2-.12.07-.24.14-.36.22-.08.06-.15.12-.23.18-.06.06-.11.11-.17.17-.03.04-.06.07-.08.11-.03.04-.05.09-.08.13-.02.04-.03.07-.05.11-.01.04-.02.08-.03.13,0,.04-.01.09-.02.13,0,.05,0,.09,0,.14,0,.05.01.09.02.14.02.08.04.16.07.25.04.09.08.18.12.27.05.09.11.19.17.28.1.14.21.28.33.41.14.15.29.28.44.42.2.17.42.32.64.47.26.16.53.31.8.44.31.14.63.27.95.38.35.11.7.2,1.05.27.36.06.73.11,1.1.14.31.01.63.01.94,0Z"/>
    <path d="M264.73,186.62s0,0,0,0c0,0,0,0,0,0,0,0,0,0,0,0Z"/>
    <path d="M239.46,194.97c-.46-.78-.2-1.9.62-2.34.31-.17.6-.36.91-.53.17-.1.34-.19.51-.28-.05,1.02-.12,2.03-.19,3.05-.02.3-.05.61-.07.91-.11.02-.21.03-.32.03-.58,0-1.15-.29-1.47-.84Z"/>
    <path d="M216.88,79.96s-.08,0-.12,0c.04,0,.08,0,.12,0Z"/>
    <path d="M217.73,79.99s0,0,0,0c.01.01.03.02.04.03-.01-.01-.03-.02-.04-.03Z"/>
    <path d="M218.89,81.51s.03.08.04.12c-.01-.04-.03-.08-.04-.12Z"/>
    <path d="M195.37,84.88s-.01,0-.02.01c0,0,.01,0,.02-.01Z"/>
    <path d="M135.77,87.11s-.05,0-.08,0c.03,0,.05,0,.08,0Z"/>
    <g>
      <path d="M268.13,185.66c-.01-.36-.02-.71-.02-1.07,0-.66,0-1.31-.01-1.97,0-.03,0-.07,0-.1-.01,0-.02,0-.04,0v-.35c0-5.61,0-11.21.01-16.82,0-7.06,0-14.12.01-21.18,0-7.25,0-14.51.01-21.77,0-7.35,0-14.7,0-22.05,0-7.11,0-14.22-.01-21.33,0-3.54-.01-7.08-.04-10.62-.01-1.74-.02-3.47-.04-5.21,0-.8-.02-1.61-.04-2.41,0-.41-.02-.81-.04-1.22-.03-.4.25-3.43-2.9-3.43-3.86-.11-7.73.02-11.59.16-4.97.2-14.04.98-17.56,1.33-.86.08-1.52.79-1.55,1.66-.05,1.79-.41,52.94-.46,59.61-.04,5.03-.12,15.64-.12,15.64.46.1,2.97.79,3.76,1.06.06-4.73.07-9.46.11-14.19.05-6.56.1-13.12.15-19.69.05-7.05.1-14.1.14-21.15.02-3.4.04-6.79.04-10.19,0-1.71,0-3.41,0-5.12,0-.85-.01-1.71-.02-2.57,0-.5-.02-.99-.01-1.49,3.5-.38,7-.68,10.51-.91,4.17-.27,8.34-.4,12.52-.44,1.22,0,2.44,0,3.66.01,0,.23-.02.46-.02.69-.08,3.42-.1,6.83-.12,10.25-.02,3.52-.03,7.05-.04,10.57-.02,7.13-.03,14.27-.05,21.41-.01,7.39-.02,14.78-.03,22.16,0,7.33-.01,14.65-.03,21.98-.01,6.82-.01,13.63-.02,20.45,0,5.01-.01,10.02-.01,15.03,0,.06.02.13.02.19.02.19.04.38.07.57.04.37.07.74.11,1.11-5.72.27-11.39,1.43-17.05,2.24-1.76.28-3.53.52-5.28.86-1.61.28-2.04,2.58-.65,3.42.42.27.91.34,1.39.26,1.3-.2,2.6-.43,3.91-.64,6.4-1.03,12.61-1.97,19.1-2.75,1.12-.16,1.7-.72,1.85-1.34,0,0,.01,0,.02,0,.11-.22.23-.45.34-.67Z"/>
      <path d="M218.86,81.44c-.05-.14-.11-.28-.17-.42-.05-.1-.1-.19-.16-.29-.01-.02-.03-.04-.04-.06-.09-.1-.2-.2-.3-.29,0,0-.01,0-.01-.01.02.02.05.04.07.06-.03-.03-.06-.06-.09-.09-.14-.13-.89-.39-1.12-.39h-.08c-.29.01-.59.02-.88.04-.12.02-17.2,3.15-20.18,3.78-.72.15-1.24.79-1.24,1.53,0,.48,0,.93,0,.93,0,0-.05,5.32-.07,7.98-.04,5.99-.07,11.98-.1,17.98-.02,3.88-.03,7.75-.05,11.63,0,1.03.83,1.88,1.87,1.88h.01c1.02,0,1.88-.85,1.88-1.86,0-.05,0-.11,0-.16,0-.03,0-.06,0-.09,0-1.23.01-2.46.01-3.68.02-5.73.04-11.46.05-17.18.01-5.24.02-10.47,0-15.7.94-.15,16.51-3.12,16.72-3.15.1-.02.21-.04.32-.05-.05,2.82-.1,5.64-.14,8.46-.12,7.28-.24,14.56-.36,21.83-.08,4.84-.16,9.69-.24,14.53,0,0,0,.02,0,.03v.04c0,1.04.85,1.88,1.88,1.88h0c1.02,0,1.87-.84,1.88-1.86.02-1.37.04-2.73.07-4.1.11-6.76.22-13.51.33-20.27.12-7.26.23-14.51.34-21.77,0-.09,0-.17,0-.26-.02-.13-.04-.25-.07-.38-.04-.17-.09-.35-.14-.52Z"/>
      <path d="M178.21,98.46c-.02-.89-.83-1.54-1.7-1.37-4.81.96-18.63,5.02-21.03,5.73-.28.08-.46.34-.46.62,0,.35,0,1.87,0,2.22.01,1.53.02,3.06.03,4.59,0,.58,0,1.16.01,1.74,0,.28,0,.55,0,.83,0,.23,0,.46.08.68.11.32.25.58.49.82,0,0,.01.01.02.02.17.16.35.28.56.37.08.03.17.06.25.09h0c.16.04.32.06.48.06.49,0,.99-.19,1.35-.55.4-.4.55-.93.54-1.48,0-.23,0-.46,0-.7,0-.42,0-.85,0-1.27,0-.94-.01-1.89-.02-2.83,0-.75-.01-1.51-.02-2.26.04,0,.08-.01.12-.02.71-.11,14.64-3.65,15.45-3.86,0,0,.01,0,.02,0,.06,3.39.11,6.78.17,10.17.04,2.29.08,4.59.12,6.88.02,1.03.84,1.88,1.88,1.88,1.01,0,1.9-.86,1.88-1.88-.02-1.15-.19-18.85-.22-20.48Z"/>
    </g>
  </g>
  <g>
    <path class="cls-7" d="M822.35,72.9c5.2,5.79,3.7,13.73-1.59,18.89-5.21,5.95-11.23,11.3-18.17,15.15-20.05,10.13-41.21,18.82-63.45,22.61-2.35.14-7.77,1.72-11.57,2.14-.47,5.8-.96,11.6-1.42,17.41-.37,11.18-.57,22.38-.65,33.61-.11,7.12.32,14.25.02,21.36-.07,1.1-1.04,1.61-1.91,1.51.01.84.02,1.67.04,2.51.03,6.99.46,13.97.87,20.95-.06,3.05,1.47,9.4-3.17,9.34-7.15-2.31-14.04-7.08-21.64-7.22-.95-.39-1.31-1.52-.92-2.4-5.55-.64-11.15-.91-16.33-1.38-12.09-.81-24.17-2.31-35.98-5.04-5.99-1.56-12.74-3.17-16.75-8.26-2.43-3.21-2.39-7.41-2.51-11.25.32-40.19-5.1-80.04-7.73-120.06-.55-12.43-.35-24.88-1.27-37.29-.26-4.15-.47-8.3-.39-12.46.05-1.34.06-2.68.22-4.01-.49-.02-.98-.05-1.47-.08-.91-.11-1.61-.93-1.61-1.84,0-1.05.85-1.81,1.86-1.86,7.15.23,14.31.59,21.45,1.08,10.95.64,21.87,1.75,32.75,3.22,5.54-.69,11.31-.11,16.84.52,21.95,3.32,43.73,7.91,65.42,12.51,13.9,3,28.23,6.43,40.96,12.92,10.68,3.59,20.78,8.64,28.1,17.41Z"/>
    <path class="cls-6" d="M790.63,117.16c.93,4.66,1.8,9.39,1.66,14.16-.43,7.98-2.95,15.78-6.2,23.03-4.51,9.55-13.99,18.24-22.58,24.21-10.05,7.3-22.85,9.56-35.05,8.43-6.1-.49-12.24-1.5-17.88-3.98-1.65-.71-3.26-1.51-4.83-2.39-.31-.03-.63-.15-.95-.39-.44-.32-.88-.63-1.31-.96-.25-.16-.49-.34-.71-.53,0,0-.02-.01-.03-.02-1.94-1.45-3.84-2.94-5.75-4.42-4.88-4.34-8.95-9.56-12.49-15.09-.28-.15-.53-.38-.74-.72-3.12-5.36-6.31-10.72-8.33-16.61-4.99-13.42-2.7-25.6,4.41-37.71,6.42-11.2,14.46-22.45,26.54-27.96,11.51-5.87,21.59-5.95,34.13-4.98,14.28.56,21.37,3.99,31.95,13.41,5.3,5.15,10.43,10.8,13.74,17.47,2.21,4.72,3.35,9.99,4.41,15.03Z"/>
    <path class="cls-9" d="M828.51,244.35c.72,11.4,3.65,22.8,1.99,34.25-2.66,19.85-24.31,39.94-41.9,47.83-11.06,5.17-22.96,8.02-34.64,11.43-7.36,2.04-14.48,5.72-22.14,6.33-1.93.01-3.56-1.51-3.09-3.52.07-2.02-.03-4.04-.04-6.06-.28-13.13-.18-26.27-.62-39.4-.55-25.59-3.03-51.14-2.65-76.75.49-15.24,1.59-30.45,1.59-45.7.11-11.13.06-22.27.76-33.38.05-.29.08-.6.1-.92-.58,0-1.15-.07-1.71-.26-1.28-.68-1.05-2.76.39-3.11,1.98-.28,3.9-.86,5.82-1.43,4.99-1.51,9.97-3.05,14.97-4.51,10.51-2.93,20.38-7.02,30.7-10.39,7.52-2.45,14.98-5.15,22.13-8.44.3-1.12,1.79-1.64,2.59-2.4,2.94-2.25,5.81-4.59,8.61-7.01,2.39-2.12,5.08-4.56,7.11-6.89.95-.94,1.76-2.42,2.97-3.04.5-1.01,1.15-1.41,1.96-1.03,1.27.34,1.6,1.76,1.19,2.89-.03.13-.05.26-.07.4-.02.34-.08.68-.17,1-.04.23-.07.47-.1.7.19.02.39.07.62.16.94.4,1.4,1.52,1,2.46-.49,1.02-1.21,1.98-2.08,2.89-.14,3.81-.03,7.63.08,11.45.87,25.92,3.98,51.74,3.38,77.72-.04,9.98.45,19.95.69,29.93.15,8.27,0,16.56.56,24.81Z"/>
    <path d="M725.63,347.23c.12-42.02-2.73-83.97-2.9-125.98.54-28.02,2.63-56,2.5-84.04.2-1.63-.55-3.84,1.01-4.93,2.92-1.2,2.89,2.49,2.73,4.42.13,40.94-4.11,81.8-1.73,122.74,1.06,24.9,1.75,49.8,2.01,74.72.06,4.35.12,8.71.15,13.07,0,1.02-.86,1.88-1.88,1.88s-1.87-.86-1.88-1.88Z"/>
    <path d="M729.13,348.22c-.88-.12-1.59-.94-1.46-1.85.25-1.95,3.64-1.95,5.14-2.45,12.44-2.43,24.9-5.51,36.59-10.3,22.03-8.84,41.82-17.26,53.21-39.6,2.98-5.97,4.89-12.4,5.46-19.04.17-3.88-.13-7.77-.26-11.65-.43-10.26-.75-20.54-1.15-30.8-.68-16.01-.95-32.02-1.08-48.04-.16-15.59-.98-31.16-1.57-46.74-.74-17.93-.47-35.9.45-53.82,0-1,.86-1.91,1.88-1.88.98,0,1.94.86,1.88,1.88-1.97,30.35-.04,60.71.95,91.04.25,26.67.96,53.33,2.07,79.97.1,7.64,1.17,15.34.3,22.96-2.56,19.36-15.67,35.93-32.08,45.87-8.05,4.9-16.87,8.41-25.53,12.08-14.31,5.93-29.51,10.15-44.8,12.35Z"/>
    <path d="M725.98,134.63c-1.48-2.54,2.06-2.97,3.79-3.3,4.72-1.1,9.45-2.18,14.14-3.41,29.09-8.47,61.92-17.21,80.2-43.32.88-1.32,1.78-3.66,3.76-2.58.9.53,1.17,1.68.67,2.57-13.33,21.64-37.71,32.43-60.95,40.12-9.81,3.29-19.73,6.24-29.81,8.59-3.26.28-9.16,3.24-11.81,1.33Z"/>
    <path d="M724.05,241.43c-17.46-10.79-39.1-10.13-58.82-13.05-12.76-1.94-26.95-1.19-38.47-7.62-3.12-2.66-2.16-7.37-2.56-11.03-.49-12.26-1.11-24.52-1.72-36.77-1.87-49.24-8.81-98.88-8.03-147.92,4.82-3.04,3.13,8.61,3.66,10.97.38,14.9.79,29.8,1.84,44.67,3.52,44.43,6.54,88.89,8.21,133.43-1.76,9.03,29.92,8.96,36.56,10.43,12.72,1.45,25.5,2.67,38.09,5.01,8.1,1.58,16.21,4.01,23.13,8.63,2.07,1.15.21,4.57-1.9,3.25Z"/>
    <path d="M825.11,84.9c-6.78-25.82-36.54-31.58-58.73-38.22-39.71-10.44-80.83-17.51-121.83-19.19-8.89-.19-17.81.11-26.66-.9-1.82.19-4.35-1.63-2.36-3.4,2.17-.95,4.95.23,7.24.1,44.66-.04,89.14,6.21,132.56,16.59,22.6,6.83,51.56,10.57,66.71,30.33,2.03,2.83,10.03,14.65,5.2,16.31-1.02.14-1.95-.59-2.12-1.61Z"/>
    <path d="M710.05,136.82s-.08.02-.11.02c.05-.01.09-.02.11-.02Z"/>
    <path d="M710.12,136.8s0,0,0,0c-.02,0-.05,0-.07.02,0,0,0,0,0,0,.02,0,.05,0,.07-.01Z"/>
    <path class="cls-5" d="M676.48,184.06c-11.48-1.22-23.12-1.85-34.41-4.35-1.08-.4-1.45-1.98-.54-2.74,1.04-.84,2.45-.27,3.65-.19,10.32,1.56,20.6,2.61,30.97,3.52,2.7-.26,3.11,3.74.33,3.76Z"/>
    <path class="cls-5" d="M675.14,193.44c-.63-.08-1.26-.17-1.9-.25-2.13-.28-4.26-.57-6.39-.85-5.71-.77-11.42-1.54-17.11-2.41-1.6-.24-3.2-.48-4.79-.75-.77-.13-1.54-.27-2.3-.4-.54-.09-1.08-.22-1.62-.3-.74-.12-1.23-.9-1.1-1.62.14-.73.83-1.18,1.45-1.12.54.06,1.09.08,1.63.13.74.07,1.49.13,2.23.2,1.55.13,3.1.32,4.65.49,2.76.3,5.52.63,8.28.97,5.18.64,10.35,1.3,15.53,1.98.55.07,1.09.14,1.62.21.47.06.94.12,1.41.18,0,0,0,0,.01,0,.03,0,.06,0,.1.01.05,0,.1.01.15.02.01,0,.03,0,.05,0,.12.01.24.02.36.05,1,.19,1.68,1.19,1.49,2.19-.18.93-1.03,1.56-1.95,1.51,0,0,0,0,0,0-.6-.04-1.2-.16-1.79-.24Z"/>
    <path class="cls-5" d="M675.78,202.69c-.08,0-.15-.02-.23-.05-.22-.03-.45-.05-.67-.08-.63-.08-1.26-.16-1.89-.24-1.56-.2-3.11-.39-4.67-.58-5.85-.73-11.7-1.47-17.54-2.29-1.66-.23-3.31-.48-4.97-.73-.69-.11-1.38-.2-2.05-.38-.32-.09-.65-.19-.93-.36-.07-.04-.15-.09-.21-.15-.06-.05-.11-.1-.16-.15-.12-.13-.21-.28-.28-.47,0,0,0,0,0,0-.14-.4-.11-.86.14-1.22.39-.58,1.01-.7,1.65-.72.54-.01,1.07.02,1.6.07,1.52.14,3.04.3,4.56.47,2.93.32,5.85.67,8.78,1.02,4.72.56,9.43,1.16,14.14,1.76,1.01.13,2.02.26,3.03.38.03,0,.06,0,.09.01.09,0,.18,0,.28.02.03,0,.07,0,.1.01.04,0,.07,0,.1.02.08.01.16.03.24.06,0,0,0,0,0,0,.7.23,1.25.88,1.3,1.64.08,1.02-.71,1.93-1.73,2.02-.04,0-.09,0-.13,0-.19,0-.38-.03-.56-.05Z"/>
    <path class="cls-5" d="M675.25,212.41c-.28-.03-.56-.07-.84-.1-.03,0-.07,0-.1-.02-3.52-.42-7.03-.82-10.55-1.24-6.19-.73-12.39-1.43-18.56-2.31-.43-.06-.86-.13-1.3-.19-.31,0-.63-.1-.88-.26-.58-.36-.9-1.06-.78-1.73.1-.6.53-1.11,1.1-1.31.29-.1.59-.13.87-.07h0s.03,0,.04,0c1.26.13,2.53.23,3.79.36,1.66.17,3.33.35,4.99.53,3.12.34,6.23.7,9.35,1.05,4.2.48,8.39.97,12.59,1.46,0,0,0,0,.01,0,.02,0,.05,0,.07,0,.28.03.56.06.85.1,1.02.13,1.71,1.19,1.54,2.17-.08.49-.36.93-.77,1.22-.33.24-.71.34-1.1.34-.1,0-.2,0-.3-.02Z"/>
    <path class="cls-9" d="M767.05,168.79c9.91-.21,18.09,10.34,13.99,19.71-2.51,5.31-8.44,8.55-14.26,7.59-4.53-.51-8.74-2.98-11.44-6.65-4.23-5.4-.33-12.93,3.54-17.43,1.59-1.58,6.42-6.52,8.17-3.22Z"/>
    <path class="cls-9" d="M776.16,254.21c5.62,2.98,9.84,9.93,8.04,16.33-1.89,6.52-8.88,11.34-15.67,10.38-8.25-.97-14.72-9.64-12.39-17.8,1.11-4.11,4.3-9.37,9.12-9.07-.12-1.04.78-2.13,1.87-2.06,3.11.16,6.24.8,9.03,2.23Z"/>
    <path d="M767.24,198.53c-4.55-.21-8.92-2.47-11.77-6.02-1.79-2.22-2.95-4.88-3.39-7.7-.47-2.96-.05-6.02,1.1-8.77,1.23-2.94,3.38-5.4,6.01-7.17,2.19-1.48,4.86-2.34,7.5-2.49.24-.14.51-.23.8-.25.62-.05,1.25,0,1.87.04.64.05,1.29.14,1.92.27,1.47.29,2.89.8,4.22,1.47,2.65,1.36,4.92,3.47,6.46,6.02.95,1.56,1.61,3.28,2,5.06.47,2.16.44,4.41.02,6.58-.83,4.25-3.47,8.02-7.07,10.38-2.81,1.84-6.17,2.72-9.52,2.59-.05,0-.1,0-.14,0ZM767.72,195.09c.57.01,1.13-.01,1.69-.07.56-.06,1.11-.16,1.66-.29.55-.14,1.09-.31,1.61-.51.5-.2.99-.43,1.47-.68.48-.27.94-.56,1.39-.87.44-.33.87-.68,1.27-1.05.38-.37.74-.75,1.08-1.15.36-.44.69-.9,1-1.38.3-.49.57-1,.81-1.52.22-.5.41-1.01.57-1.53.16-.55.29-1.1.39-1.66.08-.56.14-1.13.16-1.7,0-.58-.01-1.15-.07-1.72-.06-.55-.16-1.09-.29-1.63-.14-.55-.31-1.09-.51-1.63-.21-.52-.44-1.03-.64-1.39-.03-.05-.05-.09-.08-.14h0c-.25-.44-.51-.86-.8-1.27-.34-.46-.71-.91-1.1-1.33-.36-.38-.75-.73-1.14-1.07-.42-.34-.85-.65-1.3-.94-.48-.3-.98-.56-1.48-.81-.54-.24-1.09-.45-1.65-.63-.53-.16-1.07-.28-1.62-.38-.58-.09-1.16-.14-1.75-.16-.26,0-.51,0-.77,0-.25.01-.5-.04-.73-.13-.54.07-1.07.17-1.59.3-.56.15-1.11.32-1.65.52-.51.21-1.01.44-1.51.7-.47.26-.93.55-1.38.86-.5.37-.97.76-1.43,1.17-.38.37-.73.75-1.08,1.15-.37.46-.7.93-1.02,1.42-.26.44-.51.89-.73,1.36-.22.5-.42,1.01-.59,1.54-.17.6-.32,1.2-.43,1.81-.08.56-.13,1.12-.16,1.68,0,.57.01,1.14.06,1.7.07.57.17,1.13.3,1.68.14.53.3,1.06.49,1.58.21.51.44,1.01.69,1.5.26.47.55.92.86,1.36.34.46.7.89,1.09,1.31.37.38.76.74,1.16,1.09.42.34.86.65,1.32.94.48.29.97.56,1.48.8.51.22,1.02.42,1.55.59.56.16,1.12.3,1.7.4.56.08,1.12.14,1.69.16Z"/>
    <path d="M792.77,175.83c-.31-.02-.61-.07-.92-.11-.01,0-.02,0-.04,0h-.04c-.71-.14-1.25-.74-1.19-1.5.05-.74.74-1.39,1.5-1.3.04,0,.08,0,.12,0,.5,0,.99-.06,1.49-.12,1.37-.19,2.71-.49,3.94-.81,2.8-.76,5.54-1.76,8.02-2.78,3.43-1.43,6.77-3.05,10-4.91,1.9-1.1,3.75-2.28,5.5-3.6.72-.56,1.43-1.14,2.08-1.78.29-.29.58-.6.84-.93.12-.15.23-.31.33-.47.01-.03.03-.05.04-.08.44-.83,1.47-1.19,2.32-.76.82.42,1.2,1.5.76,2.33-.57,1.05-1.39,1.92-2.25,2.73-1.21,1.14-2.56,2.14-3.93,3.07-2.31,1.57-4.74,2.96-7.22,4.24-2.64,1.36-5.35,2.59-8.11,3.66-2.56.99-5.15,1.86-7.82,2.48-1.25.29-2.52.52-3.79.62-.44.03-.89.04-1.33.03-.09,0-.19,0-.28-.01Z"/>
    <path d="M768.64,240.53c-4.55-.21-8.92-2.47-11.77-6.02-1.79-2.22-2.95-4.88-3.39-7.7-.47-2.96-.05-6.02,1.1-8.77,1.23-2.94,3.38-5.4,6.01-7.17,2.19-1.48,4.86-2.34,7.5-2.49.24-.14.51-.23.8-.25.62-.05,1.25,0,1.87.04.64.05,1.29.14,1.92.27,1.47.29,2.89.8,4.22,1.47,2.65,1.36,4.92,3.47,6.46,6.02.95,1.56,1.61,3.28,2,5.06.47,2.16.44,4.41.02,6.58-.83,4.25-3.47,8.02-7.07,10.38-2.81,1.84-6.17,2.72-9.52,2.59-.05,0-.1,0-.14,0ZM769.13,237.08c.57.01,1.13-.01,1.69-.07.56-.06,1.11-.16,1.66-.29.55-.14,1.09-.31,1.61-.51.5-.2.99-.43,1.47-.68.48-.27.94-.56,1.39-.87.44-.33.87-.68,1.27-1.05.38-.37.74-.75,1.08-1.15.36-.44.69-.9,1-1.38.3-.49.57-1,.81-1.52.22-.5.41-1.01.57-1.53.16-.55.29-1.1.39-1.66.08-.56.14-1.13.16-1.7,0-.58-.01-1.15-.07-1.72-.06-.55-.16-1.09-.29-1.63-.14-.55-.31-1.09-.51-1.63-.21-.52-.44-1.03-.64-1.39-.03-.05-.05-.09-.08-.14h0c-.25-.44-.51-.86-.8-1.27-.34-.46-.71-.91-1.1-1.33-.36-.38-.75-.73-1.14-1.07-.42-.34-.85-.65-1.3-.94-.48-.3-.98-.56-1.48-.81-.54-.24-1.09-.45-1.65-.63-.53-.16-1.07-.28-1.62-.38-.58-.09-1.16-.14-1.75-.16-.26,0-.51,0-.77,0-.25.01-.5-.04-.73-.13-.54.07-1.07.17-1.59.3-.56.15-1.11.32-1.65.52-.51.21-1.01.44-1.51.7-.47.26-.93.55-1.38.86-.5.37-.97.76-1.43,1.17-.38.37-.73.75-1.08,1.15-.37.46-.7.93-1.02,1.42-.26.44-.51.89-.73,1.36-.22.5-.42,1.01-.59,1.54-.17.6-.32,1.2-.43,1.81-.08.56-.13,1.12-.16,1.68,0,.57.01,1.14.06,1.7.07.57.17,1.13.3,1.68.14.53.3,1.06.49,1.58.21.51.44,1.01.69,1.5.26.47.55.92.86,1.36.34.46.7.89,1.09,1.31.37.38.76.74,1.16,1.09.42.34.86.65,1.32.94.48.29.97.56,1.48.8.51.22,1.02.42,1.55.59.56.16,1.12.3,1.7.4.56.08,1.12.14,1.69.16Z"/>
    <path d="M794.17,217.83c-.31-.02-.61-.07-.92-.11-.01,0-.02,0-.04,0h-.04c-.71-.14-1.25-.74-1.19-1.5.05-.74.74-1.39,1.5-1.3.04,0,.08,0,.12,0,.5,0,.99-.06,1.49-.12,1.37-.19,2.71-.49,3.94-.81,2.8-.76,5.54-1.76,8.02-2.78,3.43-1.43,6.77-3.05,10-4.91,1.9-1.1,3.75-2.28,5.5-3.6.72-.56,1.43-1.14,2.08-1.78.29-.29.58-.6.84-.93.12-.15.23-.31.33-.47.01-.03.03-.05.04-.08.44-.83,1.47-1.19,2.32-.76.82.42,1.2,1.5.76,2.33-.57,1.05-1.39,1.92-2.25,2.73-1.21,1.14-2.56,2.14-3.93,3.07-2.31,1.57-4.74,2.96-7.22,4.24-2.64,1.36-5.35,2.59-8.11,3.66-2.56.99-5.15,1.86-7.82,2.48-1.25.29-2.52.52-3.79.62-.44.03-.89.04-1.33.03-.09,0-.19,0-.28-.01Z"/>
    <path d="M769.06,282.16c-4.55-.21-8.92-2.47-11.77-6.02-1.79-2.22-2.95-4.88-3.39-7.7-.47-2.96-.05-6.02,1.1-8.77,1.23-2.94,3.38-5.4,6.01-7.17,2.19-1.48,4.86-2.34,7.5-2.49.24-.14.51-.23.8-.25.62-.05,1.25,0,1.87.04.64.05,1.29.14,1.92.27,1.47.29,2.89.8,4.22,1.47,2.65,1.36,4.92,3.47,6.46,6.02.95,1.56,1.61,3.28,2,5.06.47,2.16.44,4.41.02,6.58-.83,4.25-3.47,8.02-7.07,10.38-2.81,1.84-6.17,2.72-9.52,2.59-.05,0-.1,0-.14,0ZM769.54,278.71c.57.01,1.13-.01,1.69-.07.56-.06,1.11-.16,1.66-.29.55-.14,1.09-.31,1.61-.51.5-.2.99-.43,1.47-.68.48-.27.94-.56,1.39-.87.44-.33.87-.68,1.27-1.05.38-.37.74-.75,1.08-1.15.36-.44.69-.9,1-1.38.3-.49.57-1,.81-1.52.22-.5.41-1.01.57-1.53.16-.55.29-1.1.39-1.66.08-.56.14-1.13.16-1.7,0-.58-.01-1.15-.07-1.72-.06-.55-.16-1.09-.29-1.63-.14-.55-.31-1.09-.51-1.63-.21-.52-.44-1.03-.64-1.39-.03-.05-.05-.09-.08-.14h0c-.25-.44-.51-.86-.8-1.27-.34-.46-.71-.91-1.1-1.33-.36-.38-.75-.73-1.14-1.07-.42-.34-.85-.65-1.3-.94-.48-.3-.98-.56-1.48-.81-.54-.24-1.09-.45-1.65-.63-.53-.16-1.07-.28-1.62-.38-.58-.09-1.16-.14-1.75-.16-.26,0-.51,0-.77,0-.25.01-.5-.04-.73-.13-.54.07-1.07.17-1.6.3-.56.15-1.11.32-1.65.52-.51.21-1.01.44-1.51.7-.47.26-.93.55-1.38.86-.5.37-.97.76-1.43,1.17-.38.37-.73.75-1.08,1.15-.37.46-.7.93-1.02,1.42-.26.44-.51.89-.73,1.36-.22.5-.42,1.01-.59,1.54-.17.6-.32,1.2-.43,1.81-.08.56-.13,1.12-.16,1.68,0,.57.01,1.14.06,1.7.07.57.17,1.13.3,1.68.14.53.3,1.06.49,1.58.21.51.44,1.01.69,1.5.26.47.55.92.86,1.36.34.46.7.89,1.09,1.31.37.38.76.74,1.16,1.09.42.34.86.65,1.32.94.48.29.97.56,1.48.8.51.22,1.02.42,1.55.59.56.16,1.12.3,1.7.4.56.08,1.12.14,1.69.16Z"/>
    <path d="M794.59,259.46c-.31-.02-.61-.07-.92-.11-.01,0-.02,0-.04,0h-.04c-.71-.14-1.25-.74-1.19-1.5.05-.74.74-1.39,1.5-1.3.04,0,.08,0,.12,0,.5,0,.99-.06,1.49-.12,1.37-.19,2.71-.49,3.94-.81,2.8-.76,5.54-1.76,8.02-2.78,3.43-1.43,6.77-3.05,10-4.91,1.9-1.1,3.75-2.28,5.5-3.6.72-.56,1.43-1.14,2.08-1.78.29-.29.58-.6.84-.93.12-.15.23-.31.33-.47.01-.03.03-.05.04-.08.44-.83,1.47-1.19,2.32-.76.82.42,1.2,1.5.76,2.33-.57,1.05-1.39,1.92-2.25,2.73-1.21,1.14-2.56,2.14-3.93,3.07-2.31,1.57-4.74,2.96-7.22,4.24-2.64,1.36-5.35,2.59-8.11,3.66-2.56.99-5.15,1.86-7.82,2.48-1.25.29-2.52.52-3.79.62-.44.03-.89.04-1.33.03-.09,0-.19,0-.28-.01Z"/>
    <path class="cls-5" d="M726.08,186.63c-1.48-.21-2.95-.46-4.42-.76-2.4-.54-4.76-1.21-7.08-2.02-2.48-.9-4.89-1.95-7.23-3.15-2.32-1.23-4.56-2.6-6.72-4.11-2.13-1.53-4.15-3.18-6.07-4.96-1.65-1.56-3.36-3.38-4.98-5.31-1.59-1.95-3.05-3.98-4.4-6.1-1.34-2.17-2.54-4.41-3.61-6.72-1-2.25-1.87-4.53-2.61-6.88-.69-2.32-1.25-4.66-1.69-7.03-.39-2.35-.65-4.72-.79-7.1-.1-2.46-.06-4.92.12-7.38.19-2.34.57-4.9,1.09-7.43.55-2.49,1.25-4.94,2.1-7.35.88-2.39,1.89-4.73,3.05-7h0s.04-.08.06-.11c1.15-2.18,2.48-4.39,3.96-6.52,1.54-2.17,3.21-4.23,5.01-6.18,1.7-1.8,3.5-3.49,5.39-5.08,2-1.63,4.09-3.14,6.27-4.51,2.07-1.27,4.2-2.41,6.41-3.45,2.3-1.04,4.64-1.93,7.05-2.69,2.3-.69,4.62-1.25,6.98-1.68,2.33-.39,4.67-.66,7.03-.8,2.6-.11,5.2-.07,7.8.13,2.41.22,4.79.58,7.15,1.06,2.51.56,4.97,1.25,7.4,2.11,2.37.86,4.81,1.93,7.19,3.15,2.23,1.18,4.38,2.49,6.45,3.92,2.03,1.43,4.15,3.14,6.17,4.99,1.89,1.78,3.66,3.66,5.33,5.65,1.64,2.01,3.14,4.11,4.53,6.31,1.33,2.16,2.65,4.6,3.81,7.11,1.01,2.23,1.87,4.52,2.61,6.86-.13.34,3.25-.58,2.94-.83-.83-3.04-1.88-6.03-3.18-8.91-2.64-5.85-6.28-11.21-10.63-15.93-2.11-2.29-4.44-4.44-6.9-6.35-2.5-1.94-5.12-3.74-7.89-5.27-2.7-1.49-5.49-2.82-8.39-3.9-3.07-1.14-6.22-2.05-9.44-2.7-6.35-1.28-12.94-1.56-19.38-.76-3.26.4-6.48,1.05-9.63,1.96-3.23.93-6.35,2.14-9.39,3.56-2.84,1.33-5.57,2.93-8.17,4.69-2.64,1.8-5.16,3.81-7.48,6.01-4.5,4.27-8.36,9.17-11.4,14.58-3.12,5.56-5.39,11.62-6.64,17.88-1.27,6.38-1.55,12.93-.78,19.39.76,6.28,2.48,12.47,5.13,18.22,2.69,5.83,6.26,11.2,10.59,15.95,4.21,4.61,9.18,8.58,14.61,11.67.89.5,1.78.99,2.69,1.45,4.83,2.45,9.97,4.27,15.28,5.38,1.56.32,3.12.58,4.69.78v-3.8Z"/>
  </g>
  <g>
    <path class="cls-1" d="M733.7,125.5c2.8,4.63-2.63,5.12-5.84,5.98-7.44,1.92-14.84,3.97-22.34,5.62-12.1,2.64-24.3,4.7-36.43,7.18-4.32.76-8.29,2.13-12.66,1.84-.36.21-.79.31-1.18.31-2.79.13-10.44-8.57-6.53-10.5-4.25-11.47-3.35-22.31.58-33.72,3.03-8.94,7.34-17.57,13.85-24.5,4.36-4.59,9.72-10.08,16.57-9.56.76-.32,1.69-.11,2.22.58,2.33,3.31,5.17,6.2,8.06,9.02,10.3,9.71,19.64,20.36,28.77,31.15,1.97,2.24,3.96,4.46,5.99,6.65,2.98,3.31,6.44,6.25,8.96,9.96Z"/>
    <path d="M735.9,129.74c-.28-.18-.51-.41-.74-.66-.11-.12-.2-.24-.28-.37-3.55-3.97-7.14-7.89-10.7-11.84-4-4.43-8-8.86-11.99-13.29-4.13-4.58-8.26-9.17-12.38-13.77-4.13-4.61-8.26-9.23-12.32-13.91-1.06-1.23-2.11-2.47-3.16-3.71-.52-.61-1.04-1.23-1.56-1.84-.24-.28-.47-.56-.7-.84-.21-.25-.47-.52-.59-.82-.13-.31-.11-.68.07-.98.32-.53.97-.67,1.5-.39.25.13.47.4.67.6.25.25.5.5.75.75.55.55,1.09,1.11,1.63,1.67,1.07,1.1,2.15,2.21,3.21,3.32,2.1,2.2,4.17,4.42,6.23,6.65,4.19,4.53,8.36,9.07,12.53,13.62,4.11,4.48,8.21,8.97,12.31,13.47,3.97,4.35,7.94,8.71,11.91,13.07,1.04,1.14,2.08,2.28,3.11,3.42.51.56,1.02,1.12,1.53,1.68.2.22.39.43.59.65.1.07.19.15.28.24.21.24.46.47.61.76.25.43.32.94.19,1.42-.22.8-1.02,1.36-1.82,1.36-.31,0-.62-.08-.9-.26Z"/>
    <path d="M654.92,149.97c-.41-.24-.72-.64-.85-1.11-.13-.48-.06-1,.19-1.42.23-.39.65-.75,1.11-.85,4.36-.89,8.71-1.8,13.07-2.7,4.66-.97,9.33-1.94,13.99-2.9,4.69-.97,9.39-1.94,14.08-2.9,3.25-.67,6.5-1.33,9.55-1.94.33-.07.66-.13.99-.2,0,0,0,0-.01,0,4.63-.93,9.26-1.85,13.89-2.74,2.36-.46,4.72-.91,7.08-1.34,2.31-.43,4.61-.88,6.93-1.22.39-.06.77-.11,1.16-.12.37-.02.8-.02,1.08.27.16.17.21.43.13.67-.08.24-.3.38-.5.5-.26.15-.58.25-.87.34-.53.16-1.05.3-1.59.44-1.17.31-2.35.59-3.52.88-2.31.56-4.61,1.1-6.92,1.64-4.6,1.08-9.22,2.11-13.83,3.15-4.66,1.05-9.33,2.08-14,3.1-4.66,1.02-9.33,2.04-13.99,3.05-4.64,1-9.27,2.01-13.91,3.01-3.94.85-7.89,1.71-11.84,2.57-.17.04-.33.06-.5.06-.32,0-.63-.08-.93-.25Z"/>
    <path d="M654.5,149.95c-1.36-.42-2.61-1.12-3.7-2.02-2.03-1.66-3.43-4.01-4.41-6.4-1.02-2.48-1.6-5.12-1.96-7.77-.34-2.55-.45-5.12-.41-7.69.09-5.51.9-11.01,2.16-16.37.22-.93.46-1.85.64-2.54,1.08-4.11,2.47-8.14,4-11.85,2.1-5.09,4.66-10.03,7.8-14.56,1.56-2.26,3.27-4.42,5.17-6.4,1.91-1.98,4.01-3.79,6.39-5.19,2.14-1.26,4.59-2.25,7.09-2.37,1.24-.06,2.49.04,3.66.46.53.19,1.03.43,1.51.73.22.14.41.3.6.46.03.01.06.03.09.05.38.22.46.76.22,1.11-.25.38-.73.44-1.11.23,0,0,0,0,0,0-.28-.1-.58-.17-.74-.21-.5-.13-1-.23-1.51-.3-.41-.04-.81-.05-1.22-.06-.45.02-.89.06-1.34.11-.49.09-.98.2-1.46.33-.5.16-.98.34-1.46.54-.63.29-1.23.6-1.83.95-.78.48-1.52,1-2.24,1.56-1.08.87-2.1,1.8-3.07,2.77-1.32,1.36-2.55,2.8-3.71,4.3-1.71,2.26-3.25,4.62-4.67,7.06-1.79,3.15-3.37,6.42-4.76,9.77-1.5,3.71-2.77,7.49-3.82,11.36-.96,3.68-1.7,7.4-2.18,11.16-.34,2.87-.53,5.75-.51,8.64.04,1.99.17,3.97.45,5.95.21,1.36.48,2.71.85,4.03.26.88.56,1.75.91,2.59.31.7.64,1.37,1.03,2.02.28.45.57.88.89,1.3.26.32.53.62.81.91.26.25.54.49.83.72.26.19.54.38.82.55.24.13.49.25.74.35.21.08.42.15.63.22.96.3,1.47,1.4,1.16,2.34-.26.78-.99,1.24-1.77,1.24-.19,0-.38-.03-.57-.09Z"/>
  </g>
  <g>
    <path class="cls-4" d="M589.31,181.47c6.18,8.89-4.01,30.68-6.94,40.44-2.65,7.67-5.36,15.32-8.01,22.99-5.48,15.76-9.5,31.99-15.08,47.71-1.54,4.51-3.06,9.01-4.59,13.52,1.12.13,2.16,1.2,1.58,2.57-2.69,6.58-10.52,7.64-16.76,8.38-10.63,1.37-21.27,2.65-31.93,3.79-8.97.76-17.93,1.84-26.92,2.27-2.11.04-4.21-.04-6.32-.02-1.01.57-2.37.05-2.69-1.11-.33-1.21.73-2.56,2.03-2.32.95-.03,1.91-.14,2.88-.2.24-.35.56-.68.89-.96,2.27-2.75,4.46-5.66,6.03-8.87-2.05-2.21,1.55-3.73,2.8-5.01,2.69-2.72,6.06-5.12,7.07-8.84-1.26-.29-3.27-.02-4.4-.71-.05.02-.1.04-.15.07-1.13.38-2.38,1.37-3.58.76-1.28-.77-.67-2.38.43-2.97,1.67-1.01,3.44-1.83,5.18-2.71.1-.08.2-.16.3-.24,2.44-2.06,5.6-3.89,6.92-6.9-7.44-2.65-15.31.45-22.51,2.54-.44.13-.84.1-1.18-.04-2.96,1.88-6.04,3.55-7.4,3.11-.6-.22-1.01-.87-1.01-1.5,0-1.21,1.19-1.67,2.08-2.16,2.97-1.71,5.84-3.59,8.69-5.48,3.42-2.49,6.6-5.36,9.47-8.53-8.96-.81-18,.44-29.41,3.72-1.36.33-2.72.88-4.1,1.13-.35.85-.78,1.77-1.64,2.09-.69.26-1.54.17-2.06-.4-1.32-1.47,0-3.53.34-5.16,1.25-4.02,2.55-8.01,3.75-12.04,1.64-5.33,2.88-10.77,4.32-16.15,1.43-5.24,3.29-10.35,5.14-15.45.62-1.71,1.24-3.43,1.85-5.14.51-3.09.98-6.18,1.49-9.27.93-5.56,2-11.13,3.97-16.44.6-1.57,2.36-6.3,4.26-9.17-.27-.3-.41-.71-.34-1.12.53-2.87,3.98-4.02,6.38-4.98,15.61-5.4,32.4-1.96,48.53-2.13,13.82.39,27.57-1.18,41.33-2.03,3.02-.16,6.05-.25,9.07-.24,3.66-.07,7.78,0,10.21,3.19Z"/>
    <path class="cls-3" d="M544.42,346.82c.12,8.56.15,17.13-.43,25.67-1.05,13.25-1.57,26.54-2.87,39.77-1.06,10.66-3.57,21.07-5.91,31.5,1.04.38,1.59,1.82.76,2.73-.53.42-1.06.84-1.61,1.24-.25,1.17-.75,2.29-2.24,2.11-.18-.03-.36-.08-.53-.16-.05.04-.11.07-.16.11-.18.35-.46.63-.84.8-.42.18-.84.36-1.26.53-6.64,4.05-14.01,6.99-21.45,9.01-6.09,1.54-12.31,2.35-18.56,2.9-.05.83-.61,1.63-1.74,1.74-14.02.81-28.03,1.84-42.07,2.1-.65-.03-1.35-.08-1.93-.34-7.51.35-15.03.39-22.55.03-14.86-.59-30.01-2.5-43.7-8.51-.92.38-2,.54-2.88.86-4.74,1.24-9.53,2.27-14.28,3.49-6.72,1.74-13.62,3.23-20.6,2.9-5.43-.22-10.43-1.95-14.98-4.61-.27.04-.56.02-.88-.1-2.46-.7-4.39-2.53-6.3-4.16-2.64-1.02-4.76-4.07-6.51-7.59-1.87-2.17-3.6-4.42-5.19-6.67-10.98-16.72-12.07-42.14-13.26-61.82-.52-14.3,2.27-28.37,5.27-42.31,1.82-14.83,2.92-29.74,4.8-44.56,2.23-14.35,4.83-30.04,15.12-41.02,6.41-6.29,14.45-10.64,22.33-14.81,3.03-1.41,14.43-7.19,16.58-4,.05.11.09.22.12.32,3.64,1.02,7.41,1.59,11.15,2.09,1.02-1.89,4.29-1.17,6.13-1.51,3.94-.24,7.87-.57,11.8-.94,3.59-.65,7.07-1.76,10.55-2.86.39-.11.79-.24,1.19-.35,0-.32.08-.63.24-.93.38-.6,1.03-.85,1.73-.7,1.1.24,1.47,1.64,1.84,2.54,1.17,2.92,2.42,5.33,4.1,7.88,5.94,8.97,16.16,13.18,25.4,17.74,4.53,2.22,9.09,4.38,13.77,6.28,2.16.99.96,4.12-1.22,3.54-.2.39-.54.7-.99.86-1.66.86-3.24,1.91-4.77,2.93-10.55,7.14-19.46,15.97-26.57,26.45-5.89,8.78-10.02,18.55-14.44,28.11-6.08,13.03-11.56,26.39-18.93,38.77-2.03,3.43-4.11,6.84-6.11,10.29,4.41,6.45,9.37,12.52,14.74,18.2,2.45,0,7,4.74,8.62,5.67,4.26,3.33,8.49,6.7,12.88,9.87.47-1.56,1.04-3.16,1.5-4.5,1.71-5,3.75-9.88,5.86-14.72,2.09-4.68,3.92-9.47,5.56-14.33,2.65-7.51,5.69-14.88,8.32-22.4.42-1.21.83-2.43,1.26-3.64.13-.32.33-.57.55-.75.11-.52.33-1.01.64-1.42,1.37-1.51,3.55-1.76,5.32-2.58,3.24-1.26,6.45-2.62,9.56-4.17,6.17-3.2,12.5-6.68,17.74-11.22,1.27-.9,2.18-2.65,3.82-2.84.56-.02,1.04.23,1.37.61,1.55-.29,3.16-.42,4.69-.76,10.41-1.65,20.93-2.57,31.43-3.4,9.88-.79,19.81-1.45,29.55-3.32,1.27-.4,3.05-.55,3.47,1.06.06.2.07.42.06.63.49-.13,1.04-.04,1.48.3.47.35.68.94.89,1.47.83,2.14,1.44,4.36,1.9,6.61,1.21,6.02,1.64,12.15,1.67,18.28Z"/>
    <path class="cls-3" d="M460.45,214.26c4.67,2.76,2.5,6.24,1.73,10.47-1.14,5.05-2.18,10.11-3.51,15.11-.96,2.47-1.55,9.14-5.46,7.59-1.84-.89-3.19-10.46-4-12.96-1.29-5.81-2.19-11.71-2.75-17.63-.17-1.81-.33-3.61-.5-5.42-.39-1.43.57-3.28,2.24-2.72,1.52-1.1,3.14.6,4.55,1.18,2.57,1.44,5.26,2.7,7.69,4.39Z"/>
    <path class="cls-3" d="M656.66,252.69c2.88,19.81,3.07,24.63-5.72,42.97-1.36,3.11-2.67,6.24-3.89,9.41-1.07,2.75-2.03,5.54-3.18,8.25-.27.64-.87,1.05-1.52,1.13-4.49,8-9.75,16.19-18.09,20.48-8.07,3.83-17.14,6.11-26.1,5.66-2.72-.28-5.77-.73-7.91-2.57-1.06.18-2.18-.57-3.21-.78-1.12-.47-2.7-.4-3.39-1.53-.9-.45-1.82-.87-2.64-1.45-.21-.14-.37-.32-.48-.51-1.75-.56-3.48-1.18-5.18-1.88-4.65-1.95-9.03-4.48-13.28-7.17-2.04-1.29-4.09-2.58-6.12-3.87-1.83-1.34-4.5-2.38-5.18-4.71-.14-.73.32-1.46,1.03-1.67.2-.07.41-.08.63-.04.03-1.33.8-2.74,2.62-4.22.13-.1.27-.23.42-.38.18-1.38.88-2.96,1.1-4.02.95-3.05,2-6.06,3.02-9.08,2.5-7.41,5.1-14.79,7.49-22.24,2.09-8.27,3.85-16.66,6.69-24.71.21-.55.39-1.2.82-1.62.75-.74,2.1-.51,2.5.49.01.04.02.09.03.13.59.05,1.17.39,1.5,1.11,2.27,1.08,4.74,1.7,7.19,2.23,4.31.98,8.51-1.5,12.23-3.29.32-.18.68-.26,1.03-.25.25-.84.53-1.68.81-2.52,1.28-3.67,3.01-7.16,4.62-10.7.41-.85.72-1.98,1.73-2.28,1.13-.05,1.67.34,1.84.99.72.14,1.36.7,1.45,1.5,0,0,0,0,0,0,.51,5.67.97,11.62,2.37,17.23,2.23.21,2.6,3.16,3.47,4.81,2.83,8.16,5.52,10.59,14,12.51,4.69.86,9.48,1.12,14.25,1.13,4.8-4.7,7.03-13.72,8.54-19.3.06-1.82,1.43-3.74,3.34-2.46.94.79.93,2.11,1.13,3.22Z"/>
    <path class="cls-2" d="M494.72,284.92c.02-1.45-1.41-2.36-2.76-2.14-14.05,2.94-27.86,7-41.76,10.63,11.31-6.73,23.26-12.36,34.6-19.07,2.24-.83,2.44-3.63-.19-3.66-.33.13-.66.27-.99.41-.33-.18-.71-.25-1.09-.18-4.77,1.08-9.54,2.17-14.32,3.18-7.61,1.67-15.31,3.13-22.75,5.46.09-.23.18-.45.27-.68,1.27-3.19,2.54-6.38,4.07-9.45.42-1.01,1.27-1.88,1.35-2.99-.01-1.05-.95-1.88-2-1.74-.22.06-.45.18-.67.35-.12.04-.23.08-.35.13-.5-.31-1.15-.4-1.69-.13-4.9,2.95-9.33,6.41-13.39,10.26-19.51,12.54-30.34,35.33-39.78,55.93-2.19,4.79-4.34,9.61-6.24,14.52-.23.86-.82,2.09-1.24,3.32-1.46,2.67-2.91,5.35-4.32,8.05-1.64,3.15-3.22,6.34-4.74,9.55-.94,2.3-2.38,4.56-3.1,6.97-.64.43-1.01,1.22-.62,2.1l.21.21c.14.88.75,1.35,1.44,1.48,9.12,9.39,18.07,19.1,28.18,27.47.77.58,1.58.49,2.17.06.11.03.21.06.32.07,1.02.17,2-.63,2.12-1.64.47-2.18,1.09-4.33,1.72-6.47,1.36-4.61,2.81-9.2,4.38-13.74,2.49-7.09,5.35-14.04,8.18-21.01,3.05-7.34,6.7-15.02,13.45-19.64.28-.18.56-.35.85-.52,1.15,1.84,3.41-.18,5.08-.39,6.19-2,12.04-5.03,17.47-8.61.9-.57,1.07-1.47.81-2.21,4.06-2.6,7.94-5.49,11.63-8.58,1.39-.36,2.43-1.52,3.6-2.31,1.71-1.43,3.7-2.69,4.92-4.59,1.34-1.93-.12-5.4-2.65-3.83-.65.63-1.22,1.36-1.88,1.98-.58-.3-1.16-.35-1.72-.25,2.56-1.7,5.12-3.41,7.67-5.13,3.64-2.7,8.1-4.84,10.86-8.53.83-1.36,0-3.27-1.64-3.37-1.42-.08-2.76.52-4.11.87-5.43,1.65-10.7,3.58-16.05,5.49,6.36-3.8,12.68-7.65,18.79-11.82,1.81-1.5,5.67-3.33,5.94-5.81Z"/>
    <path class="cls-2" d="M475.32,126.93c2.67,6.03-.08,10.28-4.87,11.86.79,2.79,1.23,5.27,1.47,8.09.24,2.88.29,5.78.1,8.66.11.27.15.57.1.9-.13.62-.26,1.25-.37,1.89-.15,1.2-.35,2.39-.6,3.57-.54,3.21-1.18,6.4-2.68,9.28-2.62,4.37-6.64,8-11.21,10.24-2.96,1.38-6.34,1.48-9.52,1.02-.08,0-.16,0-.24-.02-.19,1.14-.37,2.27-.54,3.42-.97,7.13-1.42,14.32-1.74,21.5-.52,9.55,2.23,18.84,4.84,27.92,1.79,6.61,5.36,13.35,3.93,20.35-.99,4.26-4.24,8.55-9.09,7.63-2.59-.4-5.01-1.51-7.43-2.46-7.87-3.19-15.29-7.49-21.8-12.95-5.43-4.66-10.89-9.69-14.35-16.01-.36-.6-.35-1.34-.07-1.89-.2-1.59,1.67-2.38,2.83-3.09,4.13-2.38,7.99-5.2,11.78-8.07,7.32-5.7,14.63-11.61,19.76-19.42.86-1.21,2.18-2.76.09-3.54-.6-.26-1.21-.5-1.83-.72-.38.58-1.07.96-2,.76-6.98-2.06-14.6-2.89-20.67-7.19-3.78-2.54-6.88-5.96-9.75-9.47-1.86-2.23-3.52-4.63-4.89-7.2-2.88-5.24-3.76-11.27-4.11-17.17,0-.44-.05-1.32-.08-2.34-1.34-5.8-2.08-11.74-2.34-17.67,0-.05-.01-.11-.02-.16-1.12-.57-1.45-2.31-.29-3.14,2.81-1.43,5.66-2.81,8.33-4.5,2.98-1.8,5.94-3.64,8.86-5.53,2.29-1.26,5.7-5.26,7.67-1.48,9.81-8,21.71-13.12,33.14-18.37-.48-2.22-2.3-4.13-4.17-5.32-4.28-2.52-7.73,3.08-10.33.85-1.38-1.49.15-3.26.9-4.65,1.18-2,2.07-4.16,3.29-6.13.44-.69.96-1.36,1.76-1.64,2.71-.84,4.06,2.51,5.66,4.02,1.6,1.86,3.21,3.71,4.95,5.44,2.25,2.21,6.24,5.84,4.29,8.3.43.49.84.98,1.25,1.48,1.68-.13,2.83,2.38,3.98,3.45,2.06,2.42,4.21,4.77,6.33,7.13,3.43,3.93,7.16,7.76,9.67,12.38Z"/>
    <path class="cls-2" d="M647.8,225.63c2.94,9.12,6.57,18.68,3.93,28.33-1.93,8.54-6,18.6-16.54,17.38-7.37-.16-13.61-2.34-16.53-9.6-6.25-11.55-7.2-24.76-7.67-37.63-.45-9.83-.79-19.67-1.21-29.51-.31-8.68-.54-17.37-3.56-25.59-3.31-8.62-7.53-16.9-9.92-25.86-2.55-7.7-2.71-16.13.13-23.78.47-1.45,2.48-6.69,4.7-10.06t0,0c.25-.59.56-1.08,1-1.36,1.35-1.62,2.71-2.25,3.77-.68,2.57.4,1.6,4.52,2.04,6.44.1,1.94.46,3.83.94,5.68.88-.97,1.96-2.51,3.2-4.21.88-4.27,1.84-8.51,3.13-12.7,3.41-10.96,8.46-21.28,13.11-31.74.51-1.79,1.88-3.72,3.81-2.12,1.35,1.65.4,5.84.46,7.96-.66,7.73-1.07,15.52-2.59,23.14-.64,3.02-1.42,6.02-2.36,8.97.17.37.31.74.44,1.12.49,3.61,4.34,4.49,6.58,6.79,2.28,1.87,2.89,5.13,5.46,6.65,2.93,2.06,6.49,3.5,8.79,6.25,5.1,7.04.88,14.52-2.1,21.42-2.58,6.45-6.01,12.81-6.7,19.82.17,10.7,2.16,21.24,3.36,31.85.83,7.79,2.05,15.54,4.33,23.02Z"/>
    <path class="cls-4" d="M417.1,116.23c-.43-1.75,15.52-16.67,21.72-19.97,4.67-2.28,12.02,1.35,6.21,6.1-2.27,1.83-25.39,14.48-26.55,14.78-.6.09-1.23-.31-1.38-.91Z"/>
    <path class="cls-4" d="M459.79,97.57c.13,1.73.42,4.4-2.1,4.21-.95-.13-1.46-.95-2.01-1.64-1.96-2.45-4.03-4.83-6.09-7.2-3.35-3.93-7.08-7.5-10.54-11.31-.03-.04-.05-.08-.07-.13-11.38,21.52-19.38,29.63-39.73,42.95-1.82.98-6.67,4.98-9.84,6.29.12,4.56.34,9.12.63,13.68.59,7.22.97,14.57,3.24,21.5,3.72,10.44,10.66,19.23,19.7,24.95.25-.24.58-.41.95-.45,1.69,0,3.23.93,4.8,1.48,2.76,1.2,5.6,2.23,8.48,3.1,1.09.34,1.47,1.27,1.32,2.12.2.04.4.08.61.12,1.85.53,4.12.17,5.65,1.46,1.01,1.09.18,2.63-1.06,2.89-3.51,3.96-7.35,7.63-11.31,11.14-13.61,12.16-37.46,22.98-55.92,21.98-9.47-.64-17.48-7.2-22.26-15.09-10.77-17.36-11.13-38.44-12.49-58.22-1.06-14.98-2.27-30.08.4-44.97,1.68-12.72,5.17-26.02,14.64-35.24,1.6-1.4,3.11-3.6,5.27-4.01,2.94-3.82,6.67-7.04,10.86-9.43,8.96-4.9,19.17-6.93,29.06-9.07,12.77-2.05,26.58-3.86,38.71,1.77,4.56,2.05,8.63,4.99,12.76,7.78,2.77,1.9,5.5,3.92,7.81,6.38,4.44,4.92,7.12,11.4,8.21,17.89.22,1.68.25,3.37.31,5.06Z"/>
    <path d="M303.67,283.07c-.07-.13-.15-.25-.25-.36-.36-.42-.86-.68-1.39-.71.08-2.47.29-4.94.69-7.41,1.69-10.59,7.1-20.99,16.51-26.54,8.9-5.37,18.21-10.14,27.72-14.36.19-.06.38-.13.57-.2.63-.25,1.25-.51,1.86-.8.14-.02.28-.05.42-.09,1.02-.27,1.93-.77,2.81-1.34.81-.34,1.62-.68,2.44-1.01,2.55-.52,3.31,3.17.75,3.67-12.25,5.32-24.36,10.93-35.63,18.02-9.28,6.01-13.5,17.17-14.26,27.8-.05,1.15-.07,2.29-.08,3.43-.71-.06-1.44-.1-2.16-.1Z"/>
    <path d="M360.35,461.74c5.85-.84,11.67-3.07,16.73-5.49,15.02-7.72,27.06-19.96,38.21-32.4,6.04-6.5,11.09-12.57,11.19-21.93.29-4.07-.16-8.19-1.54-12.05-.46-1.29-.99-2.55-1.6-3.77-1.01-2.07,2.32-3.69,3.36-1.68,4.79,9.43,4.91,21.36.16,30.82-4.64,7.4-11.09,13.53-16.96,19.96-13.48,13.75-30.7,28.5-50.42,30.29.55-1.17.87-2.47.86-3.75Z"/>
    <path d="M439.55,298.72c-.43-.88-.09-2.12.86-2.52,4.55-1.92,9.06-3.93,13.51-6.08,5.84-2.73,11.35-5.93,16.83-9.22,4.33-2.7,8.94-5.12,12.69-8.62-11.75,1.53-23.18,5.02-34.41,8.67-3.79,1.28-7.57,2.59-11.36,3.88-1.55.35-4.06,2.11-5.01.04-.49-2.07,2.33-2.51,3.7-3.21,3.73-1.48,7.51-2.81,11.29-4.13,10.02-3.45,20.27-6.35,30.7-8.31,2.65-.38,5.6-1.38,8.1.02,3.77,2.81-1.04,6.57-3.46,8.32-4.11,2.97-8.53,5.5-12.88,8.1-8.81,5.35-18.15,9.78-27.65,13.77-.37.22-.79.34-1.2.34-.7,0-1.38-.33-1.71-1.04Z"/>
    <path d="M448.28,313.56c-.56-.85-.33-2.05.53-2.61,10.26-6.68,21.31-12.01,32.18-17.6,4.62-2.61,10.02-4.76,13.22-9.14-15.46,2.91-30.38,7.9-45.59,11.65-1.62.42-3.23.86-4.86,1.24-.96.29-2.28.27-2.55-.95-.13-.64.2-1.21.72-1.48,2.61-1.43,5.6-2.02,8.41-2.93,6.26-1.81,12.54-3.53,18.83-5.26,5.74-1.57,11.46-3.26,17.28-4.54,1.5-.33,3-.67,4.51-.99,1.94-.35,4.15-1.07,5.97.01,1.87,1.14,1.51,3.69.43,5.27-3.87,5.69-12.3,9.03-18.25,12.29-6.5,3.3-13.39,6.75-19.59,10.31-2.92,1.68-5.81,3.41-8.64,5.24-.32.2-.68.3-1.04.3-.61,0-1.21-.29-1.57-.83Z"/>
    <path d="M454.6,326.59c-1.62-.03-2.41-2.27-1.13-3.3,8.59-6.97,18.36-12.22,27.72-18.04,3.28-2.18,6.93-4.24,9.19-7.57-4.84.4-9.11,2.09-13.62,3.56-2.08.7-4.16,1.43-6.28,1.99-1.12.41-3.35.58-2.99-1.23.11-.42.49-.74.84-.97,1.04-.66,2.34-1.17,3.41-1.62,5.15-2.06,10.34-4.17,15.82-5.17,6.77-1.68,9.08,2.88,4.23,7.7-5.2,5.06-11.81,8.34-17.94,12.12-5.49,3.28-10.92,6.69-16,10.56-1.06.66-1.91,1.95-3.25,1.95h0Z"/>
    <path d="M426.97,345.02c-.7-.05-1.41-.11-2.11-.17-2.46-.24-2.27-3.82.21-3.76,5.36.34,10.83.98,15.85-1.16,4.03-1.63,8.1-3.21,11.91-5.33,2.65-1.54,5.14-3.35,7.58-5.21,3.64-2.79,7.2-5.68,10.65-8.7,3.23-2.94,6.22-5.54,8.62-9.08-.99.24-2.11.83-3.12.39-.52-.26-.75-.78-.68-1.34.24-1.18,1.55-1.71,2.49-2.26,2.81-1.73,6.48-.43,5.39,3.28-1.15,3.15-3.71,5.54-6,7.9-5.05,4.97-10.61,9.39-16.24,13.68-4.82,3.82-10.29,6.67-16.01,8.87-1.98.8-3.94,1.69-6,2.27-2.41.62-4.88.8-7.37.8-1.73,0-3.46-.09-5.18-.18Z"/>
    <path d="M477.77,319.58s.06-.06.09-.09c0,0,0,0-.01.01-.04.04-.09.09-.13.13.02-.02.04-.04.06-.06Z"/>
    <path d="M477.89,319.46s-.02.02-.03.03c0,0,.02-.02.03-.03Z"/>
    <path d="M374.46,369.54c-.95-.46-1.29-1.57-.88-2.51.99-2.25,2.05-4.47,3.1-6.69,1.12-2.36,2.25-4.72,3.41-7.06.85-1.68,1.7-3.36,2.55-5.04.13-.15.26-.3.37-.47.24-.37.43-.74.49-1.18,0-.02,0-.03,0-.05,3.86-7.62,7.7-15.24,11.37-22.94,5.08-10.19,10.11-20.5,16.71-29.81,6.62-9.12,15.07-16.76,24.17-23.34,4.34-2.96,8.32-6.63,13.04-8.96,3.83-1.38,4.98,1.67,4.21,4.95-.5,3.09-1.48,6.1-2.6,9.02-.74,1.55-1.66,4.94-3.95,4.11-1.81-.97-.47-3.14.09-4.48,1.24-3.17,2.3-6.35,2.81-9.68-8.99,6.08-17.9,12.47-25.67,20.1-14.2,13.89-21.63,32.57-30.38,49.96-4.88,9.87-10.08,19.59-14.67,29.6-.55,1.2-1.12,2.39-1.65,3.6-.3.67-1,1.06-1.71,1.06-.28,0-.55-.06-.8-.18Z"/>
    <path d="M406.92,409.03c-.97-.32-1.53-1.4-1.2-2.37,3.74-10.92,7.55-21.82,11.61-32.63,2.2-5.75,4.46-11.47,6.77-17.18,1.81-4.35,3.47-8.81,6.01-12.8.39-.56.83-1.21,1.5-1.44,1.55-.41,2.2,1.27,1.46,2.46-6.35,14.03-11.59,28.54-16.85,43-1.86,5.26-3.74,10.52-5.56,15.79-.46,1.32-.91,2.65-1.35,3.97-.26.79-1.02,1.3-1.81,1.3-.19,0-.38-.03-.57-.09Z"/>
    <path d="M404.89,408.01c-13.14-9.41-34.4-27.61-39.5-43-2.67-9.73,2.54-16.15,11.02-15.73.28.16.58.29.88.4.42.15.91.24,1.39.24.34,0,.68-.05.99-.16,0,0,.02,0,.03,0,.48.11.96.24,1.45.39,2.56.37,3.02,3.85.09,3.67-2.77-.74-5.72-1.08-8.55-.42-3.8.93-4.6,5.42-4.04,8.77.78,5.44,4.38,9.89,7.57,14.18,5.59,7.04,11.72,13,18.42,18.75,4.99,4.04,9.61,9.15,15.8,11.29,9.51,1.66,14.42-11.11,12.85-18.86-.21-1,.48-2.01,1.48-2.21,3.87-.21,2.41,6.93,2.18,9.33-1.02,7.99-7.41,15.74-14.95,15.74-2.31,0-4.72-.72-7.12-2.39Z"/>
    <path d="M404.7,435.4c-9.9-.08-19.61-3.74-27.02-10.31-4.76-3.99-9.1-8.47-13.19-13.14-6.9-7.77-13.18-16.85-14.4-27.43-.89-6.41.05-13.45,4.66-18.3,2.74-3.39,5.64-6.67,8.68-9.79,1.04-1.06,2.09-2.12,3.22-3.07.84-.71,2.03-1.78,3.19-1.05,2.03,1.61-1.21,3.57-2.16,4.85-2.99,3.17-5.87,6.43-8.65,9.77-1.23,1.52-2.54,2.99-3.57,4.65-2.08,3.9-2.12,8.51-1.6,12.8,1.9,13.52,12,23.92,21.18,33.25,5.71,5.59,12.21,10.82,20.14,12.7,3.29.85,6.67,1.31,10.07,1.32.35.02.72,0,1.09-.03.84-.06,1.7-.12,2.38.42,1.26,1.03.54,3.21-1.09,3.3-.59.06-1.18.08-1.77.08-.38,0-.77,0-1.15-.01Z"/>
    <path d="M345.37,390.16s0-.01-.01-.02c-.08-.13-.15-.27-.22-.41-.05-.12-.09-.24-.14-.35-.03-.13-.06-.25-.09-.38-.03-.25-.05-.5-.06-.75,0-.42.02-.85.04-1.27,0-.09.01-.18.02-.28,1.33-1.59,2.73-3.11,4.21-4.56,1.77-1.46,4.13.95,2.59,2.68-1.72,1.73-3.39,3.61-4.96,5.58-.41-.25-.91-.33-1.38-.24Z"/>
    <path d="M377.98,348.84s.03,0,.04,0c-.01,0-.03,0-.04,0,0,0,0,0,0,0Z"/>
    <path d="M379.35,352.86c-.42-.29-.66-.71-.77-1.2-.14-.59-.27-1.18-.41-1.77.16.02.33.03.49.03.34,0,.68-.05.99-.16.29-.1.59-.23.88-.4.11-.02.21-.04.31-.06.34-.09.67-.22.97-.4.16.69.31,1.38.47,2.07.27,1.2-.81,2.22-1.91,2.22-.35,0-.71-.11-1.02-.34Z"/>
    <path d="M366.17,236.45c-6.52-.38-12.16-1.62-17.04-3.64.09-.04.17-.08.26-.12.14-.03.28-.06.42-.09,1.48-.4,2.75-1.27,3.99-2.15,11.71,3.72,25.23,2.51,36.94-.46,17.18-5.45,31.3-17.5,42.8-30.97-10.07-4.16-20.96-5.92-28.9-14.15-16.57-14.95-18.23-44.34-18.33-65.41-.01-8.77,1.45-16.99,4.72-25.05.75-2.27,4.3-1.23,3.56,1.13-1.19,3.2-2.25,6.46-3.09,9.77-3.28,17.31-1.54,51.7,9.37,69.33-.14.56-.05,1.19.34,1.62.56.61,1.16,1.2,1.75,1.79.5.51.99,1.03,1.48,1.54.86.9,1.74,1.77,2.69,2.57.76.73,1.53,1.41,2.3,2.04.05.06.1.12.15.18.3.35.62.66,1.06.82.06.02.11.04.17.05,7.42,5.35,15.76,6.71,24.55,10.48,5.46,3.61-1.81,8.68-4.35,11.7-16.99,18.01-36.13,29.12-60.82,29.12-1.33,0-2.67-.03-4.03-.1Z"/>
    <path d="M387.41,131.3c-.46-.91-.09-2.07.83-2.53,2.76-1.38,5.47-2.85,7.92-4.3,2.65-1.57,5.25-3.2,7.86-4.83,12.1-7.3,22.67-17.3,29.65-29.67,1.31-2.35,2.52-4.78,3.52-7.29.28-.7.51-1.53,1.24-1.89.59-.3,1.28-.21,1.79.21,1.21,1.12.25,2.87-.17,4.15-3.56,8.69-8.96,16.41-15.49,23.07-.31.19-.62.39-.93.59-.6.39-1.25.75-1.5,1.47-.05.14-.08.28-.09.42-5.19,4.88-10.98,9.15-17.05,12.78-4.9,3.07-9.85,6.08-15.03,8.65-.27.13-.55.2-.84.2-.69,0-1.36-.37-1.69-1.02Z"/>
    <path d="M457.74,105.24c-.31-.4-.63-.8-.95-1.2.02.03.05.06.07.09-.17-.21-.34-.42-.51-.63-.29-.35-.59-.62-1-.81-.14-.07-.28-.12-.42-.15-.42-.48-.85-.95-1.29-1.41-.2-.22-.41-.43-.61-.65-.02-.02-.04-.05-.06-.07h0s0,0,0,0c0,0,0,0,0,0-.19-.23-.38-.46-.58-.69-.5-.63-1.01-1.26-1.53-1.88-4.11-5.09-8.43-9.83-13.47-13.92-1.83-1.64.54-4.41,2.46-2.85,1.5,1.23,2.96,2.51,4.36,3.85,5.32,4.94,9.63,10.79,14.23,16.37-.32,1.12-.18,2.36.37,3.39.11.21.24.41.37.6,0,.05,0,.11,0,.16,0,.14,0,.28,0,.43-.05.1-.09.2-.14.31-.44-.3-.88-.61-1.31-.92Z"/>
    <path d="M457.74,105.23c-.31-.4-.62-.8-.94-1.19.02.03.05.06.07.09-.17-.21-.34-.42-.51-.63-.29-.35-.59-.62-1-.81-.14-.07-.28-.12-.42-.15-.42-.48-.85-.95-1.29-1.41,0,0-.01-.01-.01-.02.45-1.64,3.24-1.86,3.63.13.12.65.17,1.26.27,1.85.12.77.25,1.54.41,2.3-.07-.05-.14-.1-.21-.15Z"/>
    <path d="M404.84,184.27c-2.28-.53-1.66-3.91.56-3.71.78.77,1.59,1.5,2.45,2.18.27.21.55.39.85.56.02.03.04.05.07.08.27.33.54.66.82.99.3.35.62.66,1.06.82.26.09.51.12.78.12.04,0,.07,0,.11.01.25.05.49.1.74.16-2.48-.38-4.95-.79-7.42-1.21Z"/>
    <path d="M453.3,252.56c-3.02-7.56-5.24-15.43-7.27-23.3-1.93-7.64-2.89-15.75-2.01-23.57.25-.11.47-.26.68-.48,0,0,0,0,0,0,.16.1.33.18.5.25.4.18.85.32,1.28.41.43.09.86.14,1.3.17-1.15,10.33,1.18,21.15,4.29,31.09,1.4,4.66,2.8,9.4,4.65,13.89.64,1.46-.59,2.64-1.81,2.64-.63,0-1.26-.32-1.62-1.09Z"/>
    <path d="M404.45,258.09c-7.39,2.28-34.5,16.74-39.38,8.85-1.16-2.91.02-6.23-.03-9.28.39-5.33.78-10.66,1.19-15.99.29-1.83-.03-3.98,1.08-5.55.72-.74,2.02-.52,2.52.37.47.91.11,1.98.13,2.96-.23,4.1-.5,8.26-.78,12.35-.25,3.7-.51,7.4-.76,11.1.08.73-.51,2.08.29,2.44,7.27.78,15.14-3.3,21.9-5.71,4.65-1.76,9.13-4,13.88-5.45,5-.54,4.27,9.32,5.27,12.62.25,1.87,5.53,1.71,9.33,1.55,1.48-.06,2.73-.13,3.38-.07,5.58-.14,11.07-.3,16.56-1.21,1.01-.15,1.98.63,2.11,1.63.12,2.83-3.63,2.17-5.5,2.64-6.9.68-13.86.79-20.79.79-.25,0-.49,0-.72,0-10.38,0-7.46-6.36-9.68-14.05Z"/>
    <path d="M445,267c-15.65-6.49-41.17-21.18-46.63-37.97-.27-1.56,1.64-2.75,2.81-1.55.44.48.59,1.15.9,1.72,7.21,14.1,21.94,22.9,35.35,30.22,2.95,1.5,5.95,2.93,9.04,4.12,1.98.85,1.09,3.62-.71,3.62-.24,0-.5-.05-.76-.16Z"/>
    <path d="M460.25,217.76c-1.14-1.01-2.37-1.9-3.41-2.62-2.43-1.67-4.99-3.16-7.56-4.47-1.39-.92-3.43-1.09-4.32-2.59-.44-1.11.29-2.01,1.25-2.27.09.02.18.04.28.06.5.1.99.16,1.49.18,3.38,1.23,21.84,10.75,14.03,12.67-.01,0-.03,0-.04,0-.71,0-1.23-.49-1.72-.95Z"/>
    <path d="M466.36,325.1c-.13-.99.61-2,1.63-2.1,7.21-.72,14.4-1.52,21.62-2.11,18.75-1.69,37.86-2.13,56.19-6.65,1.87-.81,4.44-1.34,5.93-2.83.02,0,.03,0,.05-.01.51-.13.93-.49,1.15-.96.16-.33.24-.71.34-1.06.12-.39.24-.78.35-1.17.22-.77.45-1.53.64-2.31.22-.88.42-1.76.61-2.64.09-.39.17-.79.25-1.18,0-.04.02-.09.03-.13.75-2.54,1.48-5.1,2.21-7.64,3.71-13.1,8.02-26.01,12.06-39,4.41-13.9,9.06-27.73,13.54-41.62,1.58-5.77,13.25-37.18.77-34.47-22.81,1.37-45.63,2.84-68.49,2.41-10.51-.02-21.38-1.38-31.63,1.55-12.56,3.65-13.98,18.33-16.39,29.19-1.94,9.52-4.07,19.02-6.88,28.32-2.79,8.29-5.09,16.94-7.6,25.26-.47,1.59-3.13,1.42-3.27-.35,1.49-9.35,5.06-18.28,7.67-27.37,2.77-9.37,4.83-18.94,6.78-28.5,1.51-7.77,3.13-15.58,7.03-21.48.15-.17.28-.36.41-.55.17-.25.35-.49.52-.73.1-.14.2-.27.29-.41.49-.62,1.02-1.22,1.58-1.79.24-.06.46-.15.67-.29.25-.17.45-.37.66-.58-.02.02-.04.04-.05.06.43-.45.85-.9,1.27-1.37,2.67-1.93,5.97-3.32,10.11-3.99,9.25-1.66,18.71-.87,28.05-.75,10.43.13,20.87,0,31.3-.33,10.47-.31,20.88-.97,31.31-1.76,12.05-1.1,17.02-.58,15.88,13.32-2.18,16.8-9.04,32.57-13.9,48.7-8.21,24.49-15.46,49.28-23.06,73.94-.3.69-.72,1.32-1.24,1.9-.66.17-1.16.78-1.64,1.22-.33.3-.67.6-1.02.88-6.38,3.75-18.01,4.5-23.59,5.44-10.54,1.23-21.1,2.2-31.69,2.95-6.53.46-13.06,1.05-19.57,1.72-2.93.3-5.86.62-8.78.9-.06,0-.13.01-.19.01-.93,0-1.79-.66-1.91-1.64Z"/>
    <path d="M549.22,315.56c.07-.78.76-1.47,1.57-1.35.51.04.95.45,1.15.9.05.2.1.41.14.62-.07.05-.14.11-.21.16-.28.2-.57.38-.86.56-.46.26-.93.5-1.42.72-.16.08-.33.15-.49.22.04-.61.08-1.23.12-1.84Z"/>
    <path d="M436.09,469.93c-14.62-.37-29.14-2.47-43.47-5.27-4.93-1.02-9.97-1.92-14.6-3.96-2.16-1.05-.94-4.36,1.46-3.47,3.93,1.76,8.47,2.61,12.46,3.46,7.08,1.43,14.2,2.61,21.36,3.59,14.87,2.07,29.96,2.44,44.92,1.32,23.34-1.84,47.45-4.06,68.84-14.16,2.48-1.34,5.15-2.68,7-4.86.68-1.31.62-2.9.96-4.33.24-1.35.48-2.71.73-4.06,1.21-6.23,2.2-12.5,2.84-18.81,2.04-17.36,3.92-34.75,5.34-52.17.63-7.1,1.47-14.2,2.3-21.3.01.24.02.47.03.71.05.98.12,1.96.22,2.94-.03.79-.04,1.59-.04,2.38v-.19c0,.81.03,1.61.05,2.42,0-.07,0-.14,0-.21.06,1.69.08,3.37.15,5.06.07,1.64.11,3.28.12,4.92v-.05c0,.05,0,.1,0,.16,0-.04,0-.07,0-.11,0,.05,0,.11,0,.16v.02-.02c.02,2.28.04,4.56.03,6.84-.01,2.26-.03,4.52-.03,6.78v-.24c0,.1,0,.2,0,.29-1.63,17.07-3.27,34.14-5.55,51.14-.89,5.66-2.01,11.27-2.96,16.91-.48,5.74-11.21,9.87-15.95,11.79-13.49,5.26-27.77,8.12-42.13,9.68-12.88,1.49-25.83,2.69-38.8,2.69-1.75,0-3.5-.02-5.25-.07Z"/>
    <path d="M489.95,467.41c-1.02-.13-1.74-1.11-1.61-2.12.19-2.64.42-5.28.62-7.92.51-6.77.97-13.61,1.44-20.37,2.34-35.7,6.48-72.18-2.52-107.3-.29-1.12-.61-2.22-.93-3.33-.22-.79-.53-1.63-.23-2.44.21-.54.82-.89,1.39-.8,1.92.31,2.84,5.23,3.44,6.89,8.51,32.29,5.43,66.1,3.16,98.99-.62,8.95-1.17,17.53-1.84,26.41-.27,3.46-.49,6.94-.8,10.39-.09.94-.97,1.63-1.88,1.63-.08,0-.16,0-.24-.02Z"/>
    <path d="M476.56,466.23c1.6-41.02,5.36-98.78-11.96-136.17-2.14-2.86,1.23-5.39,2.89-1.88,12.68,24.94,13.19,54.09,14.19,81.5.25,16.74-.23,33.49-.98,50.21-.51,2.26.77,8.11-2.28,8.21-.98,0-1.92-.85-1.86-1.87Z"/>
    <path d="M479.13,337.61c-3.35-1.31-4.49-5.81-2.67-8.78.52-1.04,2.14-2.24,3.09-1.05,2.17-1.23,4.76,1.23,5.4,3.25,1.28,3.22-.77,6.98-3.96,6.98-.58,0-1.21-.13-1.85-.4ZM480.96,334.29c1.09-.4.6-2.21-.04-2.86-.5-.39-1.24-.33-1.64-.87-.37,1.4.04,3.43,1.68,3.72Z"/>
    <path d="M486.49,382.85c-3.52-1.06-3.8-5.97-1.48-8.36,1.09-1.54,3.97-1.06,3.51,1.11.64-1.11,2.31-1.18,3.08-.17,1.92,2.84-.78,7.55-4.13,7.55-.32,0-.64-.04-.97-.13ZM487.5,379.22c.58-.33.89-1.05.98-1.69-.27-.44-.32-.97-.18-1.46-.76.76-1.54,2.14-.8,3.15Z"/>
    <path d="M486.67,426.92c-3.37-1.39-2.92-7.29.49-8.3,1.95-2.89,4.68,1.03,4.84,3.19.61,2.67-1.24,5.44-3.79,5.44-.49,0-1.01-.1-1.54-.33ZM488.09,423.65h0s.05.01.08.01c.47-.43.2-1.29.05-1.83-.25.56-.42,1.25-.14,1.82Z"/>
    <path d="M553.89,309.55c-.21-.09-.4-.22-.55-.38.1-.32.2-.64.29-.97.2-.68.41-1.37.58-2.06,1.13-.1,2.12.77,3.09,1.27.13.08.27.15.4.23-.11.25-.21.5-.31.75-.22.58-.42,1.17-.61,1.76-.1.33-.22.67-.33,1.01-.86-.53-1.72-1.07-2.56-1.62Z"/>
    <path d="M613.39,324.09h0s0,0,0,0c0,0,0,0,0,0Z"/>
    <path d="M644.31,300.31h.01s0,0-.01,0c0,0,0,0,0,0Z"/>
    <path d="M644.31,300.3s0,0,0,0c0,0,0,0,0,0,0,0,0,0,0,0Z"/>
    <path d="M644.29,300.32s0,0,0,0c0,0,0,0,0,0Z"/>
    <path d="M644.29,300.32s0,0,0,0c0,0,0,0-.02,0,0,0,0,0,.01,0Z"/>
    <path d="M644.3,300.31s0,0,0,0h0s0,0,0,0Z"/>
    <path d="M646.35,299.47c-.31.18-.61.36-.92.54-.03,0-.06-.02-.1-.02-.21-.03-.44.03-.61.16-.14.02-.28.08-.41.16,0,0,0,0,0,0,0,0,0,0,0,0,0,0,0,0,0,0,0,0,0,0,0,0,0,0,0,0,0,0,0,0,0,0,0,0,0,0,0,0,0,0,0,0,0,0,0,0,0,0-.02,0-.03.01,0,0,0,0-.01,0,0,0,0,0,.01,0h0s-.04.01-.07.02c.43-.73,1.32-1.11,2.14-.87Z"/>
    <path d="M644.31,300.31h.01s-.01,0-.02,0t0,0Z"/>
    <path d="M644.01,300.69s0,0,0-.01c0,0,0,.01,0,.02,0,0,0,0,0,0Z"/>
    <path d="M644.31,300.31s0,0,0,0c0,0,0,0,0,0Z"/>
    <path d="M635.24,301.89c-11.67-1.59-29.4-6.67-35.89-17.17-4.8-9.16-8.87-20.31-4.51-30.37,1.76-5.15,3.52-10.35,6.22-15.09,1.15-1.95,7.11-12.1,8.83-6.69-.05,1.3-1.35,2.1-2.04,3.11-2.21,2.79-4.16,6.25-5.55,9.38-2.3,6.46-6,13.07-5.55,20.05.83,6.76,3.16,13.4,6.77,19.18,2.88,3.64,7.08,5.94,11.22,7.88,7.95,3.39,16.01,6.16,24.64,6.14,6.17-1.41,11.01-6.55,14.79-11.37,6.17-10.02,1.28-29.59-.94-40.83-.19-1.93-2.4-4.94.21-6.01.97-.31,2.06.24,2.37,1.22,3.16,11.08,4.8,22.62,5.15,34.14,0,7.21-2.81,14.34-8.43,18.99-2.1,2.08-4.48,4.11-7.11,5.57-.03,0-.05-.01-.08-.02-.21-.03-.44.03-.61.16-.15.02-.28.08-.41.16,0,0,0,0,0,0,0,0,0,0-.01,0,0,0,0,0,0,0,0,0-.01,0-.02,0s0,0-.01,0c0,0,0,0,.01,0,0,0,.01,0,.02,0h0c-.26.09-.5.2-.74.33-.34.18-.68.37-1.01.58-.06.04-.11.08-.15.13-1.46.5-2.98.78-4.56.78-.85,0-1.71-.08-2.59-.26Z"/>
    <path d="M630.1,273.18c-7.19-.31-12.51-4.07-14.58-10.99-3.35-9.21-7.45-18.72-7.02-28.7.07-1.85.59-3.05,1.29-3.76.47.88.88,1.78,1.27,2.69,0-.01-.01-.03-.01-.04.24.56.47,1.12.7,1.69.16.38.31.77.49,1.15-.16,5.89,2.02,11.71,3.74,17.27,2.36,5.32,2.96,12.75,8.64,15.61,5.66,2.03,12.05,1.92,17.96,1.17,3.21-1.3,4.02-5.47,5.12-8.39,1.17-5.73,5.35-16.15,1.77-21.11-1.34-2.03,1.87-4.11,3.16-2.04,2.2,3.08,2.44,6.92,1.71,10.54-1.67,7.54-2.57,19.12-9.14,23.96-2.43,1.04-5.07,1.32-7.74,1.32-2.48,0-4.98-.25-7.37-.37Z"/>
    <path d="M605.8,172.66c.08-.4.3-.72.6-.95-.08.23-.17.45-.25.68-.09.26-.19.52-.29.77-.02-.17-.04-.33-.07-.5Z"/>
    <path d="M647.84,236.4c-5.6-21.76-7.97-44.24-9.93-66.58-.07-.95.78-1.82,1.72-1.85,2.16,0,1.92,2.51,2.09,4.04,1.47,14.27,2.97,28.39,5.31,42.52,1.21,7.05,2.66,14.05,4.46,20.97.28,1.31-.86,2.17-1.95,2.17-.73,0-1.45-.38-1.69-1.27Z"/>
    <path d="M604.14,171.57c-1.11-3.73-2.88-7.24-4.38-10.83-2.95-7.09-6.72-14.13-7-21.96-.48-7.78,1.53-15.46,3.77-22.85,1.51-4.12,2.44-9.09,6.19-11.81,3.93-2.51,6.84,1.44,7.86,4.93.67,2.4-2.73,3.47-3.58,1.15-.99-2.38-1.59-4.69-3.66-1.31-1.57,2.71-2.55,6.17-3.49,9.05-2.13,7.25-4.05,14.8-3.17,22.41,1.15,8.93,6,16.8,9.17,25.09.5,1.29,1.1,2.59,1.48,3.93-.01.03-.02.05-.04.08-.13.32-.27.63-.39.95-.25.66-.5,1.32-.74,1.98-.24.65-.48,1.29-.73,1.93-.86-.56-1.03-1.81-1.28-2.75Z"/>
    <path d="M606.98,136.59c-1.08-6.03,1.33-12.81,2.73-18.71,1.33-5.58,5.01-10.51,9.58-13.83,1-3.85,12.45.16,12.19,3.99-.25,4.53-3.79,8.65-5.68,12.7-1.79,3.52-10.16,17.59-15.88,17.59-1.1,0-2.1-.52-2.94-1.74ZM615.63,113.2c-3.27,6.5-4.56,13.98-5.24,21.16,6.5-4.34,9.93-11.68,13.66-18.22,1.26-2.49,2.86-4.92,3.7-7.57-1.37-1.86-4.29-2.19-6.48-2.24-1.58,2.51-4.04,4.38-5.65,6.88Z"/>
    <path d="M619.69,147.01c-6.24-1.36-4.82-9.23-3.46-13.79.38-1.37.78-2.73,1.24-4.07.51-1.52,2.82-1.62,3.46-.15.52,1.25-.41,2.54-.66,3.76-.5,1.69-.96,3.39-1.26,5.13-.17,1.73-.78,4.46,1.14,5.39,2.08-1.08,3.6-3.19,5.16-4.92,2.59-3.33,5-6.81,7.24-10.38,1.12-1.85,2.22-3.72,3.12-5.68.89-2.01,1.24-2.91-.78-4.33-1.06-.84-2.21-1.57-3.44-2.13-1-.34-2.09-.68-2.13-1.95-.07-1.16,1.07-2.06,2.18-1.9,2.55.54,4.8,2.21,6.72,3.9,4.54,3.97-.18,9.83-2.34,13.82-2.55,3.88-10.69,17.34-15.75,17.34-.15,0-.31-.01-.45-.04Z"/>
    <path d="M626.84,148.51c-3.41-.08-4.18-5.54-1.76-7.27,2.52-.79,2.46,1.78,2.34,3.5,5.58-1.21,10.51-10.32,16.34-6.82,1.06.53,1.59,1.87.86,2.89-.58.83-1.79,1.07-2.62.46-1.07-1.25-3.92,1.1-7.1,3.46-2.57,1.9-5.36,3.81-7.6,3.81-.16,0-.31,0-.46-.03Z"/>
    <path d="M638.8,172.18c-.89-.47-1.28-1.64-.79-2.54,1.63-3,3.22-6.03,4.65-9.12,3.01-7.48,5.07-14.89,6.69-22.69.19-1.98.75-4.27-.33-6.07-2.6-3.11-6.01-5.65-9.78-6.98-3.59-1.12-1.51-4.81,1.67-3.33,3.78,1.26,7.08,3.76,9.84,6.59,5.25,5.08,1.54,13.17.22,19.24-1.66,5.72-3.18,11.53-5.85,16.88-1.24,1.72-3.07,8.27-5.53,8.27-.25,0-.51-.07-.78-.22Z"/>
    <path d="M612.14,113.85c-2.56-1.44,2.88-17.51,3.76-20.44,2.62-7.85,5.6-15.65,9.52-22.94,1.1-1.9,2.25-3.94,4.14-5.15,2.66-1.43,4.51.84,4.81,3.37.6,3.94.09,7.95-.32,11.89-1.01,8.11-2.25,16.19-4.12,24.15-.63,2.35-4.09,1.58-3.62-.83.91-4.02,1.67-8.07,2.33-12.07,1.02-7.42,2.75-14.98,2.01-22.5-2.14,2.74-3.67,6.21-5.03,9.19-3.1,6.91-5.78,14.37-7.93,21.56-1.02,3.43-1.94,6.9-2.69,10.4-.26,1.24-.56,3.65-1.96,3.65-.26,0-.56-.08-.9-.27Z"/>
    <path d="M607.48,118.39c-.23-2.12-.32-4.21-.33-6.33.01-.87.01-1.78.34-2.6.33-.83,1.22-1.33,2.08-.99,1.1.44,1.16,1.83,1.21,2.58.12,2.46.23,4.69.42,7.08,0,1.21-.94,1.84-1.88,1.84-.84,0-1.69-.51-1.84-1.59Z"/>
    <path d="M459.48,106.45s0,0,0,0c0,0,0,0,0,0,0,0,0,0,0,0Z"/>
    <path d="M356.07,234.59c-24.28-14.99-25.85-53.97-27.17-79.7-.38-11.12-.38-22.25,0-33.37.31-9.05,1.72-18.22,5.61-26.47,10.95-21.65,34.48-35.82,58.21-38.76,20.74-2.59,44.79.49,59.34,16.92,6.83,8.24,10,19.38,8.42,29.96-.24.48-.47.96-.71,1.44-.25.51-.49,1.03-.72,1.55-.44-.3-.88-.61-1.31-.92-.31-.4-.63-.8-.95-1.2.02.03.05.06.07.09-.13-.16-.25-.31-.38-.47.23-1.33.68-2.74.55-3.69.28-4.49-.26-9.05-1.75-13.3-9.55-26.7-43.74-30.45-68.03-25.67-19.9,3.99-39.21,16.65-48.91,34.72-5.21,10.38-5.79,22.19-5.89,33.59-.2,12.6-.03,25.24.83,37.81,1.46,18.55,3.56,38.12,14,54.04,2.74,4.03,5.82,7.33,9.77,10.05,2.58.86,2.34,3.62.22,3.63-.35,0-.76-.08-1.21-.25Z"/>
    <path d="M457.74,105.24c-.31-.4-.63-.8-.95-1.2.02.03.05.06.07.09-.17-.21-.34-.42-.51-.63-.29-.35-.59-.62-1-.81-.17-.09-.36-.14-.54-.17.17-.59.62-1.06,1.48-1.19,1.97-.18,2.34,2.55,3.09,4.1-.11.24-.22.48-.33.72-.44-.3-.88-.61-1.31-.92Z"/>
    <path d="M456.79,104.04s.05.06.07.09c-.17-.21-.34-.42-.51-.63-.27-.33-.56-.59-.93-.79.13-.18.28-.34.47-.48,1.29-.75,2.53.49,2.59,1.78.13.79.29,1.57.47,2.35-.04.1-.09.19-.13.29-.67-.88-1.34-1.76-2.04-2.62Z"/>
    <path d="M420.18,127.55c-1.6-2.23,2.08-3.16,3.56-3.9,4.35-1.8,8.79-3.36,13.16-5.11,3.43-1.36,6.46-2.6,9.57-4.28,2.18-1.13,3.95,2.06,1.8,3.3-6.54,3.46-13.6,5.8-20.54,8.32-1.67.58-3.32,1.19-4.99,1.75-.49.14-1.03.36-1.54.36-.37,0-.72-.11-1.01-.44Z"/>
    <path d="M442.03,121.7c-1.39-.51-1.79-2.54-.41-3.32.33-.24.7-.21,1.05-.18.26.02.53.04.79-.04,1.17-1.77,3.98-.46,3.36,1.57-.5,1.4-2,2.22-3.46,2.22-.46,0-.91-.08-1.33-.25Z"/>
    <path d="M569.99,253.4c0-1.01.84-1.85,1.85-1.85s1.85.84,1.85,1.85-.84,1.85-1.85,1.85-1.85-.84-1.85-1.85Z"/>
    <path d="M571.46,267.56c-.39-.28-.62-.8-.61-1.28.01-.38.1-.71.23-1.06.24-.63.68-1.19,1.08-1.72.76-1,1.64-1.93,2.53-2.81.9-.89,1.91-1.69,2.92-2.45.99-.75,1.99-1.47,3-2.18,1.98-1.4,4.01-2.76,6.06-4.06,1.6-1.01,3.22-1.97,4.89-2.85,1.91-1.01,3.89-1.86,5.88-2.7.94-.4,2.07.06,2.47,1,.4.95-.06,2.07-1,2.47-1.58.67-3.17,1.34-4.67,2.08-.02,0-.03.02-.05.02l-.03.02c-3.24,1.64-6.32,3.62-9.33,5.64-.04.03-.08.06-.09.06-1.26.85-2.51,1.72-3.74,2.61-1.21.87-2.41,1.74-3.53,2.72-1.17,1.05-2.26,2.19-3.3,3.36-.16.19-.32.38-.48.58-.2.25-.4.48-.67.66-.21.13-.44.19-.67.19-.31,0-.63-.11-.88-.29Z"/>
    <path d="M586.09,254.4c-4.58-1.38-9.22-3.38-12.98-6.4-1.45-2.01,1.11-3.66,2.83-2.2,3.66,2.17,7.43,3.75,11.34,5.16,1.72.97.76,3.72-1.19,3.43Z"/>
    <path d="M371.47,375.31c-1.15-.92-.43-2.54-.02-3.65,1.45-3.99,3.41-7.75,5.47-11.45.73-1.58,1.64-3.06,2.52-4.56.29-.82.97-1.67,1.94-1.26.62.26.96,1.03.67,1.65-1.46,3.9-3.11,7.73-4.82,11.54-.93,2.04-1.8,4.12-2.81,6.13-.44,1.16-1.67,2.58-2.95,1.6Z"/>
    <path d="M425.11,392.02c-.47-.31-.7-.79-.82-1.32-.45-1.76-.97-3.51-1.63-5.2-1.04-2.73-2.81-5.09-4.59-7.38-1.18-1.25-1.76-3.46.5-3.84,1.1-.11,1.92,1.01,2.55,1.75,3.13,3.54,5.3,7.81,6.46,12.38.16.57.31,1.14.45,1.71.38,1.57-1.63,2.84-2.91,1.89Z"/>
    <path d="M454.44,103.93c-.47-.31-.93-.69-1.02-1.29-.16-.83.34-1.55,1.03-1.83,1.67-.49,3.84,1.48,5.62,3.16-.1.21-.21.43-.31.64-.43.88-.83,1.77-1.21,2.68-.03.06-.06.11-.09.17-1.31-1.21-2.64-2.4-4.02-3.53Z"/>
    <path d="M480.17,165.21c.14-.07.27-.13.41-.2-.15.16-.29.33-.44.49.01-.1.02-.2.03-.29Z"/>
    <path d="M416.19,183.2s.05.01.08.02c.04,0,.08.01.12.02.19.13.38.27.58.41-.26-.14-.52-.29-.78-.44Z"/>
    <path d="M421.02,184.65c-6.73-1.42-17.55-3.47-22.67-8.04-.83-.88-.24-2.49,1.06-2.35,2.76.81,5.32,2.34,8.09,3.18,3.97,1.35,8.07,2.29,12.01,3.1,6.68,1.36,13.53,2.42,20.35,1.93,6.98-.69,18.36-2.04,23.71-6.63,4.95-4.75,7-13.42,8.47-21.18.72.36,1.46.68,2.24.88.45.12.91.23,1.37.31-1.72,8.94-4.26,18.71-10.57,23.61-3.27,2.51-7.33,3.66-11.28,4.63-4.78,1.1-9.65,1.88-14.55,2.18-.99.06-1.97.09-2.96.09-5.13,0-10.24-.74-15.28-1.71Z"/>
    <path d="M443.42,213.17c.69-9.43.65-18.88,1.15-28.32-.21-2.02,2.1-3.5,3.4-1.59.54,1.25.09,2.7.17,4.04-.23,8.62-.36,17.28-1,25.87,0,2.43-3.74,2.43-3.73,0Z"/>
    <path d="M453.7,162.31c-5.78-1.18-11.55-3.44-16-7.39-1.46-1.08-1.44-3.47.74-3.42.56.05,1.03.46,1.46.78,1.56,1.21,3.25,2.23,5,3.13,6.76,3.29,14.62,4.81,22.06,3.45,1.58-.33,3.13-.8,4.57-1.52,1.1-.77,2.73-1.29,3.56.13,1.11,2.09-1.5,3.11-3.02,3.76-5.78,2.4-12.31,2.23-18.37,1.07Z"/>
    <path d="M463.29,144.7c-1.5.11-3.52-.48-3.18-2.36.2-1.02,1.19-1.67,2.2-1.49,6.11.97,15.4-5.86,12.72-12.52-1.23-2.64-3.73-4.35-5.68-6.43-3.34-3.38-6.57-6.88-9.51-10.62-1.4-2.03-6.87-8.52-4.71-10.64,1.91-1.44,2.92,1.29,3.71,2.61,1.1,1.86,2.32,3.64,3.64,5.35,3.04,3.83,6.35,7.45,9.79,10.92,2.4,2.39,5.23,4.59,6.42,7.87,3.12,8.95-7,17.48-15.42,17.31Z"/>
    <path d="M472.99,159.52c-1.27-.24-1.73-1.55-1.42-2.69.17-1.47.24-2.95.23-4.43-.04-3.87-.35-7.78-1.5-11.49-.2-1.14.61-2.18,1.8-2.16,1.6.03,2,2.09,2.33,3.29.99,3.87,1.16,7.93,1.1,11.92-.24,1.93.42,5.86-2.55,5.55Z"/>
    <path d="M385.19,347.83c-.62-.43-.74-1.32-.86-1.97-2.84-13.31-6.09-26.54-9.59-39.69-.25-2.11-2.89-7.05-.46-8.25,2.79-.85,2.5,3.55,3.33,5.22,1.44,4.94,2.78,9.9,4.04,14.89,1.72,6.76,3.33,13.55,4.89,20.35.59,2.56,1.14,5.13,1.66,7.71.31,1.6-1.78,2.79-3.01,1.75Z"/>
    <path d="M546.76,364.11v-.05s0,.05,0,.07c0,0,0,0,0-.01Z"/>
    <path d="M543.23,397.32c-2.33-.44-1.23-3.23-1.27-4.87.11-1.7.18-3.4.27-5.1.24-4.67.48-9.34.62-14.01.5-18.3.01-37.08-5.9-54.57-.69-2.33,2.52-3.28,3.43-1.04,3.74,10.52,5.45,21.51,6.09,32.63-.01.53-.02,1.07-.02,1.6v-.19c0,.81.03,1.61.05,2.42,0-.07,0-.14,0-.21.06,1.69.08,3.37.15,5.06.07,1.64.1,3.28.12,4.92v.16c0,.17,0,.35,0,.52-.06,6.92-.37,13.84-.71,20.67-.17,3.52-.63,7.02-.86,10.53-.07.87-.91,1.51-1.75,1.51-.07,0-.14,0-.22-.01Z"/>
    <path d="M337.56,468.67c-18.54-2.26-29-14.16-36.65-30.21-16.62-33.87-9.48-72.58-6.13-108.59,1.95-18.59,4.66-37.1,8.48-55.4.53-2.05.64-7.11,3.71-5.1,0,0,0,0,0,0,1.38,2.1-.35,5.5-.48,7.88-.7,3.8-1.46,7.59-2.15,11.39-4.27,23.65-6.57,47.61-8.74,71.53-2.22,22.3-2.84,45.33,4.57,66.74,3.99,10.63,9.11,21.19,17.4,29.09,7.11,6.18,16.78,9.63,26.21,9.05,7.02-.46,13.74-2.68,20.48-4.49,2.34-.65,3.38,2.95,1,3.63-9,2.48-18.22,5.49-27.68,4.5Z"/>
    <path d="M645.82,297.65c0-2.26,3.57-2.42,3.75-.15-1.24.76-2.47,1.53-3.73,2.26.01-.71,0-1.42-.03-2.11Z"/>
    <path d="M642.35,320.13s0,0,0-.01c0,0,0,0,0-.01l-.03.04s0-.01.01-.02Z"/>
    <path d="M601.87,343.34c-16.88-1.86-32.79-9.31-46.17-19.59-1.84-1.36-3.65-2.75-5.43-4.2-1.29-1.17-4.4-2.74-2.6-4.69,1.81-1.36,3.54.97,4.97,1.89,1.79,1.39,3.6,2.76,5.23,3.97,10.71,8.24,22.96,14.44,36.16,17.5,11.76,3.12,25.03,1.59,34.53-6.43,3.61-2.99,6.94-6.51,9.7-10.42.65-.43,1.31-.86,1.96-1.29,1.08-.7,2.15-1.4,3.23-2.09-.02.03-.03.06-.04.09-.25.48-.51.95-.73,1.45,0,0,0,0,0,0,0,0,0-.01,0-.02,0,0,0,.01,0,.02-.09.2-.19.39-.29.57,0,.02-.02.03-.03.04,0,0,0,0,0,.01-.02.03-.04.06-.06.09-.04.06-.07.12-.11.19l.07-.11c-.37.6-.64,1.27-.99,1.88-.2.33-.39.67-.59,1.01,0,0,0,0,0,0,0,0,0,0,0,0,0,0,0,0,0,0-.04.07-.08.14-.12.21.03-.05.05-.09.08-.14-.45.79-.93,1.57-1.37,2.37-.39.71-.77,1.43-1.19,2.12-8.07,9.8-19.55,15.8-32.14,15.8-1.34,0-2.7-.07-4.07-.21Z"/>
    <path d="M642.69,319.49s0,0,0,0c0,0,0,0,0,0,0,0,0,0,0,0Z"/>
    <path d="M642.68,319.51s0-.01,0-.02c0,0,0,.01,0,.02,0,0,0,0,0,0Z"/>
    <path d="M642.37,320.11l-.03.04s.01-.03.03-.04Z"/>
    <path d="M637.29,326.57c-2.76-1.49.93-5.11,1.5-7.16,1.66-3.79,3.36-7.57,5.02-11.35,2.82-6.26,4.9-13.07,8.88-18.7.9-.67,2.35-.22,2.69.87.42,1.39-.73,2.66-1.27,3.86-3.86,7.52-6.72,15.5-10.23,23.2-.17.26-.34.52-.48.79-.24.47-.5.94-.72,1.42,0,0,0,.01,0,.02-.09.19-.19.38-.29.57-.03.05-.06.1-.09.15-.04.06-.07.12-.11.19l.07-.11c-.37.6-.64,1.27-.99,1.88-.2.34-.39.67-.59,1.01,0,0,0,0,0,0-.04.07-.08.14-.12.21.03-.05.05-.09.08-.14-.45.79-.93,1.57-1.37,2.37-.19.34-.37.68-.56,1.02-.2.07-.41.11-.62.11-.27,0-.54-.06-.8-.19Z"/>
    <path d="M609.12,236.36c-.77-15.07-.96-30.28-2.34-45.26-.59-6.74-.93-13.54-2.39-20.16-1.18-2.84,2.58-4.15,3.45-1.23,1.57,5.73,1.82,11.73,2.41,17.62.82,9.88,1.59,19.78,1.78,29.69.18,6.45.67,12.88.83,19.33-.04,2.43-3.67,2.48-3.75,0Z"/>
    <path d="M414.45,119.67c-1.14-.12-1.87-1.44-1.38-2.48.24-.59.68-1.13,1.05-1.64,1.89-2.59,4.07-4.95,6.28-7.27,5.16-5.48,10.77-11.02,18.05-13.5,2.47-.84,5.46-1.24,7.67.44,2.66,1.86,4.88,6.26,1.43,8.49-7.1,4.2-14.62,7.7-22,11.37-2.78,1.4-5.48,2.76-8.3,3.99-.67.29-1.36.54-2.06.72-.25.1-.54.06-.74-.12ZM418.35,115.93c8.85-5.56,18.45-9.89,27.32-15.39-.34-1.27-1.53-2.61-2.88-2.79-3.23-.02-6.16,1.74-8.86,3.34-4.84,3.1-9.21,7.93-12.9,11.81-.92.99-1.82,2-2.67,3.04Z"/>
  </g>
</svg>