<svg width="476" height="205" viewBox="0 0 476 205" fill="none" xmlns="http://www.w3.org/2000/svg">
<g clip-path="url(#clip0_454_61)">
<mask id="mask0_454_61" style="mask-type:luminance" maskUnits="userSpaceOnUse" x="0" y="0" width="476" height="205">
<path d="M476 0H0V205H476V0Z" fill="white"/>
</mask>
<g mask="url(#mask0_454_61)">
<path d="M356.09 159.87C359.67 203.23 315.43 236.78 275.8 241.51C257 243.26 241.4 228.34 222.76 236.45C220.73 237.33 218.66 238.12 216.51 238.63C167.51 250.12 123.47 212.09 75.28 211.55C47.6 214.26 32.63 195.27 34.06 171.07C34.65 161.06 32.43 151.08 27.5 142.34C17.85 125.24 4.41001 107.96 9.79001 90.75C20.51 56.45 48.6 48.33 105.68 48.33C143.56 48.33 167.16 12.26 210.75 12.26C270.51 12.26 273.73 66.85 294.1 107.01C298.61 115.91 306.3 122.81 315.67 126.23C333.82 132.85 354.77 136.81 356.09 159.88V159.87Z" fill="#E1CBF1"/>
<path d="M260.36 136.77C260.38 136.85 260.4 136.92 260.43 137C260.38 136.96 260.32 136.93 260.27 136.89C260.25 136.85 260.23 136.82 260.22 136.78C260.24 136.67 260.24 136.56 260.24 136.44C260.25 136.44 260.26 136.44 260.28 136.44C260.31 136.55 260.33 136.66 260.36 136.77Z" fill="#E1CBF1"/>
<path d="M309.35 57.21C317.98 55.71 319.47 61.97 317.59 66.48C314.77 73.23 310.09 77.62 305.67 81.42C290.93 94.08 269.94 95.2 252.33 112.74C247.81 117.24 243.37 117.34 254.48 121.64C279 114.39 277.04 132.24 275.7 134.68C277.49 138.69 284.43 150.21 263.19 163.99C265.87 171.96 269.39 180.96 253.95 187.03C256.53 207.1 228.06 202.77 223.49 202.65C198.26 227.99 179.71 221.22 159.17 228.69C138.63 236.16 113.3 255.78 94.71 273.42C66.37 300.32 68.25 306.01 40.86 285.04C24.81 272.75 2.49002 241.4 14.16 221.72C43.47 210.02 75.16 199.34 99 176.56C100.83 174.81 133.23 163.86 158.48 137.99C178.16 117.83 207.62 97.28 247.66 79.67C267.68 70.87 295.47 59.63 309.35 57.22V57.21Z" fill="white"/>
<path d="M223.2 174.9C222.64 174.9 213.28 174.6 211.86 173.95C211.08 173.56 207.49 169.92 211.14 169.08C214.32 167.71 218.05 166.78 221.48 168.04C227.26 170.16 224.32 174.93 223.21 174.9H223.2Z" fill="#E1CBF1"/>
<path d="M148.35 50.73C151.05 51.97 143.03 59.47 142.21 62.33C141.48 69.32 146.54 66.68 149.59 64C152.91 61.09 163.57 59.03 162.1 58.58C155.51 73.34 154.83 78.77 148.9 92.66L118.35 55.61L148.35 50.73Z" fill="#FFE496"/>
<path d="M223.43 175.34C223.23 175.34 223.03 175.27 222.86 175.16C222.73 175.07 222.62 174.95 222.55 174.82C221.78 174.54 222.07 173.51 221.98 172.88C221.98 172.15 221.98 171.43 222.08 170.72C222.1 170.5 222.15 170.28 222.28 170.1C222.25 169.39 222.89 168.86 223.53 169.3C224.01 169.72 224.04 170.44 224.23 171.01C224.39 170.89 224.61 170.83 224.83 170.88C226.11 171.28 224.67 173.04 224.99 173.96C224.96 174.44 224.73 175 224.24 175.15C223.95 175.18 223.71 175.33 223.42 175.35L223.43 175.34Z" fill="#A37AD4"/>
<path d="M110.87 137.68C108.44 136.37 106.4 132.9 103.67 132.63C96.1101 124.08 104.86 143.72 98.3401 140.58C94.2501 141.13 96.3701 135.51 94.2101 133.86C90.5301 133.5 83.6301 126.66 81.4901 126.95C80.6301 127.07 80.5801 130.19 81.7401 132.49C88.5801 146.03 76.0601 160.71 86.0801 176.13C86.9001 177.39 88.4201 176.72 88.9101 175.31C91.9101 166.47 96.4501 141.83 94.9301 141.44C96.2201 141.77 100.37 142.57 101.38 144.87C104.2 151.36 103.42 163.66 108.46 162.68C113.5 161.7 114.2 141.83 110.88 137.67L110.87 137.68Z" fill="#A37AD4"/>
<path d="M166.65 80.22C165.83 77.83 163.99 74.74 165.35 72.21C167.49 68.25 163.94 57.01 156.96 57.44C157.9 59.22 152.37 58.58 147.76 72.06C144.75 80.86 150.05 79.04 153.68 81C153.54 81.69 151.81 83.01 152.43 83.13C160.26 84.7 166.9 81.69 166.64 80.21L166.65 80.22Z" fill="#A37AD4"/>
<path d="M254.85 69.7C249.54 68.14 255.57 57.64 252.31 57.25C251.61 56.33 252.94 54.69 253.99 53.73C254.8 52.99 253.54 43.86 261.64 51.88C263.92 54.76 257.27 70.74 254.85 69.7Z" fill="#A37AD4"/>
<path d="M253.49 21.21C253.67 21.62 253.34 22.13 253.01 22.42C252.41 22.88 251.93 23.48 251.38 24.01C251.26 24.15 251.1 24.27 250.9 24.27C250.83 24.27 250.77 24.27 250.71 24.24C250.48 24.53 250.25 24.82 250.02 25.1C248.5 27.06 246.7 28.77 245.01 30.57C242.05 33.61 238.8 36.36 236.05 39.6C233.46 42.59 230.84 45.56 228.1 48.41C227.56 48.99 227.04 49.58 226.59 50.23C226.53 50.62 226.08 50.66 225.87 50.44C225.74 50.42 225.6 50.36 225.47 50.25C223.45 48.51 221.4 46.92 219.27 45.34C216.15 43.29 212.97 41.32 209.85 39.25C208.31 38.22 206.89 37.02 205.39 35.94C205.29 36 205.18 36.04 205.05 36.04C204.61 36.06 204.38 35.71 204.33 35.34C204.25 35.29 204.16 35.23 204.08 35.17C203.94 35.06 203.96 34.83 204.08 34.72C204.19 34.63 204.32 34.64 204.46 34.66C204.68 34.24 205.04 33.89 205.36 33.54C205.93 33.03 206.57 31.48 207.47 31.74C209.08 30.33 210.61 28.83 212.22 27.42C211.73 26.64 212.75 26.09 213.23 25.63C213.93 24.96 214.54 24.21 215.21 23.51C218.89 19.49 223.11 16.02 226.69 11.91C230.13 8.77002 233.3 5.33002 236.88 2.34002C238.31 0.870018 239.25 0.280018 240.43 2.42002C241.32 3.75002 242.19 5.09002 242.95 6.50002C243.52 6.67002 243.67 7.35002 244.1 7.72002C245.04 8.62002 246 9.67002 246.7 10.75C249.26 13.89 251.22 17.44 253.35 20.86C253.43 20.98 253.47 21.11 253.47 21.23L253.49 21.21Z" fill="#5D2B9D"/>
<path d="M92.01 97.58C91.73 97.54 91.46 97.38 91.27 97.17C90.9 97.08 90.63 96.75 90.37 96.49C90.09 96.4 89.88 96.19 89.69 95.97C88.59 94.53 87.84 92.69 87.81 90.87C84.65 91.31 83.25 85.91 86.08 84.62C86.41 83.58 87.63 82.8 88.65 83.43C89.05 83.43 89.5 83.5 89.83 83.74C89.98 83.88 90.17 83.99 90.32 84.12C90.76 84.5 91.25 84.95 91.34 85.55C91.42 85.69 91.5 85.85 91.53 86.01C91.58 85.95 91.64 85.89 91.71 85.85C91.83 85.77 91.96 85.74 92.1 85.74C92.3 85.42 92.71 85.41 93.04 85.3C93.8 84.98 94.61 85.06 95.35 85.4C95.98 84.4 97.9 85.58 98.63 86.02C99.01 86.28 99.53 86.37 99.81 86.75C100.12 86.92 100.48 87.15 100.48 87.55C100.5 88.06 99.97 88.43 99.49 88.27C99.08 88.5 98.65 88.71 98.22 88.9C98.06 89.43 97.87 89.98 97.65 90.47C97.56 90.69 97.42 90.9 97.2 91.02C97.28 91.68 97.49 92.36 97.41 93.03C97.27 93.7 96.25 93.7 96.11 93.03C95.98 92.95 95.86 92.75 95.8 92.64C95.54 91.99 94.76 92.06 94.18 92.1C93.82 92.62 93.38 93.08 92.97 93.57C93.08 94.35 93.28 95.18 93.08 95.96C93.19 96.68 92.89 97.69 91.99 97.59L92.01 97.58Z" fill="#5D2B9D"/>
<path d="M160.15 44.2C163.95 45.78 159.48 48.13 160.76 50.42C157.89 50.5 159.32 50.76 159.54 53.79C159.77 57.04 158.02 56.9 157.05 57.69C156.27 58.33 156.18 59.29 156.49 61.3C156.26 64.06 152.37 63.33 148.77 64.31C147.31 64.71 145.54 67.67 144.3 66.8C140.89 64.39 145 58.49 149.32 51.97C150.55 50.11 152.87 45.83 155.61 43.96C157.28 42.82 158.81 43.53 160.15 44.21V44.2Z" fill="#5D2B9D"/>
<path d="M91.87 98.84C90.18 98.87 84.87 96.75 83.77 97.59C75.37 75.62 37.02 90.92 52.71 114.8C59.15 124.6 71.69 124.18 79.22 118.03C84.32 118.58 92.79 119.24 90.49 112.47C88.32 114.02 86.36 115.01 81.94 115.27C84.93 111.48 86.31 106.41 84.68 100.6C84.61 100.31 84.53 100.02 84.46 99.74C84.53 99.83 84.59 99.91 84.67 100C86.45 100.16 93.38 101.99 91.87 98.85V98.84Z" fill="#A37AD4"/>
<path d="M161.24 73.51C160.87 73.18 160.96 72.66 161.04 72.23C161.17 71.54 161.25 70.84 161.26 70.14C161.24 69.21 161.08 68.29 160.9 67.38C160.85 67.05 160.72 66.68 160.9 66.37C160.37 65.4 159.98 64.27 159.33 63.38C158.95 62.82 158.42 62.4 157.96 61.92C157.65 61.59 157.36 61.25 157 60.97C156.85 60.94 156.79 60.77 156.66 60.7C156.43 60.49 156.42 60.1 156.63 59.88C156.65 59.44 156.36 59 156.54 58.58C156.46 58.25 156.82 57.95 157.13 58.1C157.83 57.96 158.41 59.15 158.84 59.59C159.64 60.63 160.45 61.68 161.05 62.84C161.72 63.59 162.11 64.64 162.56 65.54C163.01 66.54 163.05 67.65 163.21 68.72C163.39 69.92 163.9 71.11 163.82 72.34C163.73 72.81 163.16 73.08 162.75 72.84C162.48 73.38 161.86 74.07 161.25 73.52L161.24 73.51Z" fill="#FDC82E"/>
<path d="M259.2 33.1C260.03 33.92 262.94 38.07 262.67 38.29C261.26 39.43 244 30.37 248.36 27.98C250.86 26.44 257.45 30.6 259.2 33.1Z" fill="#5D2B9D"/>
<path d="M235.77 42.31C235.84 42.43 235.86 42.56 235.81 42.71C235.74 42.96 235.53 43.13 235.33 43.27C235.04 43.49 234.71 43.68 234.49 43.98C234.44 44.06 234.39 44.14 234.34 44.23C234.32 44.29 234.29 44.34 234.25 44.38C234.14 44.49 233.96 44.52 233.82 44.44C233.62 44.33 233.59 44.07 233.72 43.91C233.72 43.91 233.72 43.93 233.71 43.93C233.84 43.65 234 43.38 234.18 43.12C234.28 42.96 234.39 42.81 234.51 42.66C234.53 42.64 234.55 42.61 234.56 42.59C234.68 42.41 234.78 42.19 234.98 42.08C235.26 41.89 235.63 42.04 235.77 42.31Z" fill="#5D2B9D"/>
<path d="M253.91 41.86C254.29 42.13 254.68 42.57 254.48 43.06C254.43 43.17 254.37 43.27 254.28 43.34C254.17 43.4 254.06 43.46 253.95 43.52C253.44 43.64 252.79 43.86 252.35 44C251.19 44.4 250.04 44.84 248.88 45.21C247.79 45.42 246.68 45.57 245.58 45.67C243.65 45.83 241.69 46.18 239.75 45.9C239.35 45.85 238.95 45.79 238.56 45.72C237.23 45.32 236 44.6 234.6 44.42C234.48 44.4 234.36 44.38 234.25 44.37C234.18 44.36 234.12 44.35 234.05 44.34C233.81 44.32 233.78 43.95 234.02 43.9C234.08 43.88 234.14 43.86 234.2 43.87C234.07 43.61 234.08 43.35 234.18 43.11C234.25 42.94 234.36 42.78 234.51 42.65C234.74 42.44 235.03 42.3 235.32 42.28C235.47 42.28 235.62 42.28 235.77 42.3C236.87 42.37 237.97 42.63 239.09 42.68C241.27 43.04 243.47 42.98 245.66 42.79C246.27 42.75 246.84 42.52 247.43 42.42C248.41 42.35 249.37 42.11 250.25 41.68C251.04 41.39 251.84 41.33 252.63 41.09C253.17 41.09 253.51 41.58 253.91 41.85V41.86Z" fill="#5D2B9D"/>
<path d="M183.85 94.56C185.02 98.53 183.91 102.63 182.93 106.51C182.71 108.42 182.75 110.39 182.14 112.23C182.02 112.52 181.81 112.79 181.52 112.92C181 113.03 180.48 113.1 179.97 113.28C179.46 113.37 178.88 113.76 178.47 113.25C178.34 113.1 178.27 112.9 178.28 112.7C178.16 112.07 178.05 111.44 177.91 110.81C177.4 108.52 176.66 106.28 176.16 103.98C175.77 102.54 175.7 100.98 175.04 99.62C174.09 98.1 172.62 96.87 170.99 96.14C169.6 95.54 168.14 95.34 166.7 95C166.63 98.17 166.67 101.34 166.96 104.5C167.13 106.16 167.41 107.81 167.51 109.48C167.55 111.36 167.32 113.24 167.14 115.11C166.88 117.1 166.82 119.1 166.84 121.1C166.69 123.17 167.21 127.38 164.29 127.54C162.98 127.6 161.47 127.43 160.57 126.36C159.13 124.42 158.98 121.89 158.62 119.58C158.18 116.12 158.03 112.64 157.93 109.15C157.74 105.84 157.23 102.51 156.35 99.31C155.48 96.33 153.61 93.77 152.62 90.85C152.23 89.73 152.12 88.55 152.05 87.37C151.86 86.24 152.01 85.05 152.26 83.95C152.33 83.78 152.48 83.64 152.68 83.6C152.77 83.58 152.86 83.6 152.95 83.62C153.02 82.84 153.91 82.77 154.45 83.14C155.34 83.38 156.16 83.44 157.05 83.58C158.39 83.7 159.75 83.53 161.06 83.25C162.46 82.91 163.74 82.25 165.03 81.66C167.71 80.31 166.89 82.12 168.55 83.33C170.05 84.32 171.35 85.55 172.72 86.71C174.13 87.88 175.76 88.72 177.34 89.64C178.58 90.34 179.78 91.09 181.03 91.76C182.22 92.39 183.53 93.14 183.85 94.55V94.56Z" fill="#5D2B9D"/>
<path d="M99.09 104.92C100.19 112.4 101.19 122.27 100.14 129.3C92.82 127.59 95.48 130.21 94.21 133.87C94.21 133.87 85.31 131.1 82 126.13C80.99 124.62 81.14 119.83 81.4 118.74C81.62 117.81 93.98 119.56 90.5 112.46C90.5 112.46 86.19 115.74 81.68 115.29C81.68 115.29 83.25 110.15 84.61 106.35C86.69 100.52 96.97 94.75 99.1 104.92H99.09Z" fill="#FDC82E"/>
<path d="M272.34 47.91C272.51 48.17 272.78 48.37 272.82 48.67C273.02 50.24 271.1 50.68 271.03 50.64C269.29 52.1 258.51 45.44 256.55 43.89C255.63 50.49 252.97 55.3 248.81 60.04C248.4 61.76 243.72 58.15 243.47 57.36C241.07 55.6 233.1 51.27 236.29 45.76C242.14 45.71 249.67 46.5 255.2 42.77C254.34 42.13 253.47 41.5 252.7 40.75C245.52 43.61 238.19 42.75 238 42.43C237.14 40.96 241.45 35.89 244.24 33.32C247.03 30.75 248.34 28.51 252.29 30.89C258.07 33.85 259.9 36.32 265.41 41.99C267.22 43.85 271.63 46.83 272.33 47.9L272.34 47.91Z" fill="#FDC82E"/>
<path d="M246.2 59.85C245.32 61.7 244.34 68.72 244.37 70.91C243.42 75.06 227.12 89.92 224.3 86.22C224.11 85.97 224.39 85.23 224.54 84.88C227.69 77.61 232.62 74.59 235.1 68.51C237.27 61.57 234.24 53.96 236.26 52.02C236.79 51.52 239.81 54.74 246.19 59.85H246.2Z" fill="#A37AD4"/>
<path d="M161.16 127.55C161.16 127.55 161.04 132.11 162.72 131.99C164.4 131.87 167.1 130.4 167.45 130.06C167.8 129.72 169.84 127.87 169.84 127.87C169.84 127.87 169.65 126.31 168.16 127.32C166.67 128.33 165.06 129.31 164.29 127.54C163.93 126.7 161.16 127.54 161.16 127.54V127.55Z" fill="#FDC82E"/>
<path d="M178.89 113.76C178.89 113.76 178.44 116.63 179.29 116.63C180.14 116.63 184.35 116.03 185.19 115.22C186.03 114.41 187.42 112.19 185.52 112.94C183.62 113.69 182.22 114.7 181.9 113.23L178.89 113.77V113.76Z" fill="#FDC82E"/>
<path d="M265.11 21.27C265.45 21.9 266.4 22.72 265.66 23.38C265.28 23.68 264.74 23.52 264.51 23.12C263.46 22.92 262.4 22.56 261.31 22.65C261.05 23.43 260.52 24.08 259.69 24.29C259.88 25.5 258.85 26.75 258.2 25.13C258 25.2 257.77 25.18 257.57 25.1C257.57 25.1 257.57 25.1 257.56 25.1C258.21 28.57 253.75 29.06 254.76 26.35C254.76 26.11 254.79 25.86 254.86 25.63C252.07 18.89 261.55 15.77 265.11 21.27Z" fill="#FFE496"/>
<path d="M266.21 28.15C264.99 26.77 266.62 24.58 265.41 23.64C264.84 23.19 260.83 21.53 260.98 23.57C259.57 23.79 259.26 24.75 259.58 26.13C259.31 26.3 259.11 26.13 258.83 26.15C257.07 23.33 258.06 27.45 257.04 28.05C254.95 27.35 252.08 28.05 254.51 29.21C255.85 29.53 256.3 30.66 257.37 31.25C258.16 31.39 258.31 30.41 258.52 29.86C259.03 31.61 261.7 32.12 263.44 32.02C264.45 31.6 264.31 29.58 265.16 28.94C265.68 29.22 266.42 28.8 266.22 28.16L266.21 28.15Z" fill="#9E616A"/>
<path d="M279.51 54.22C278.89 54 278.41 53.81 277.82 53.6C277.58 53.73 277.21 53.57 277.01 53.49C275.96 53.1 274.91 52.7 273.92 52.17C273.45 51.99 272.96 51.85 272.46 51.72C272.23 51.66 272 51.59 271.85 51.39C271.71 51.21 271.71 50.93 271.83 50.74C271.95 50.56 272.17 50.49 272.28 50.29C272.41 50.12 272.51 49.95 272.59 49.76C272.72 49.56 272.97 49.44 273.21 49.49C273.59 49.54 273.9 49.78 274.25 49.94C274.98 50.17 275.84 50.38 276.3 51.04C276.59 51.14 276.87 51.23 277.16 51.33C277.72 51.19 278.29 51.26 278.86 51.3C280.02 51.4 281.35 51.42 282.25 52.25C283.13 52.73 282.4 53.99 281.54 53.48C281.54 53.48 281.54 53.48 281.55 53.48C281.57 53.49 281.6 53.5 281.62 53.52C281.51 53.45 281.39 53.43 281.28 53.37C281.04 53.25 280.89 53.03 280.62 52.96C280.56 53.06 280.47 53.15 280.36 53.21C280.64 53.74 280.08 54.42 279.5 54.21L279.51 54.22Z" fill="#9E616A"/>
<path d="M161.72 60.33C160.13 59.91 153.95 56.7 158.92 56.89C160.12 56.94 159.81 53.88 159.81 53.88C157.89 51.76 157.91 49.73 160.88 50.35C159.45 47.98 160.85 46.59 162.19 45.72C162.19 45.72 165.34 47.34 166.34 48.11C166.82 48.48 166.44 49.88 166.85 50.68C168.5 53.89 163.07 54.74 162.95 55.61C162.77 56.88 163.84 61.05 161.72 60.34V60.33Z" fill="#DCA567"/>
<path d="M161.83 79.49C161.28 79.25 161.33 78.58 161.57 78.13C161.13 77.58 161.36 76.83 161.06 76.25C160.01 76.06 160.31 74.24 161.38 74.47C161.39 74.46 161.4 74.45 161.41 74.44C161.56 73.69 162.22 72.9 163.06 73.12C163.65 72.91 164.2 73.25 164.7 73.51C165.34 73.7 165.47 74.47 165.7 75.01C165.87 75.58 166.33 76.34 165.78 76.83C165.66 77.42 165.47 78.05 164.93 78.4C164.25 78.88 163.47 79.24 162.65 79.37C162.42 79.55 162.09 79.63 161.82 79.5L161.83 79.49Z" fill="#DCA567"/>
<path d="M96.72 98.7C96.5 99.64 89.7 102.41 93.27 94.99C92.86 91.53 95.26 91.35 96.18 92.47C96.72 93.13 97.42 94.44 97.22 91.75C97.87 88.67 99.49 87.59 100.48 88.3C101.05 88.71 101.68 91.31 101.97 91.08C103.4 89.98 103.77 92.7 103.26 93.3C102.23 94.54 102.41 95.12 102.56 95.83C102.56 95.83 100.96 101.2 96.72 98.68V98.7Z" fill="#FFCBAE"/>
<path d="M100.76 136.32C98.6 129.57 101.08 128.15 93.28 129.08C95.18 132.23 94.59 141.73 98.34 140.59C98.54 140.53 98.92 139.95 99.15 140.91C101.04 140.88 101.03 137.71 100.76 136.33V136.32Z" fill="#FFCBAE"/>
<path d="M79.19 142.37C78.96 141.39 79.46 140.42 79.6 139.44C79.15 140.29 78.36 142.46 77.34 142.62C76.52 142.52 76.91 141.59 77.11 141.11C77.25 140.69 77.4 140.27 77.56 139.85C77.03 140.45 77 141.33 76.46 141.91C76.16 142.14 75.67 141.85 75.76 141.47C76.23 140.2 76.59 138.89 77.27 137.71C77.82 136.53 78.35 135.35 78.98 134.21C79.39 133.29 79.77 133 80.7 133.59C81.25 133.59 81.59 134.13 81.97 134.45C82.2 134.62 82.46 134.78 82.57 135.05C82.95 135.42 83.25 136.05 82.79 136.48C82.99 137.53 82.94 138.62 82.67 139.65C82.54 140.07 82.52 140.64 81.99 140.74C81.65 140.82 81.25 140.61 81.16 140.26C81.04 140.77 80.89 141.27 80.63 141.73C80.51 142.03 80.43 142.37 80.18 142.59C79.89 142.86 79.34 142.77 79.22 142.36L79.19 142.37Z" fill="#FFCBAE"/>
<path d="M80.6401 130.7L79.4301 133.16L81.9601 134.45L80.6401 130.7Z" fill="#FDC82E"/>
<path d="M87.1901 177.06C87.7801 180.57 90.8901 183.77 92.6201 181.41C92.8901 181.04 96.0701 179.13 92.2201 179.43C87.2001 179.51 90.7001 175.24 87.2001 177.06H87.1901Z" fill="#5D2B9D"/>
<path d="M107.4 163.06C107.68 164.38 108.51 166.96 109.22 168.1C110.13 167.64 114.64 167.05 112.79 165.52C108.9 166.41 110.44 162.2 107.4 163.07V163.06Z" fill="#5D2B9D"/>
<path d="M224.09 86.6C224.09 86.6 222.41 89.19 224.84 89.86C227.27 90.53 230.21 88.01 230.21 88.01C230.21 88.01 228.27 87.85 227.43 87.38C226.59 86.91 225.37 86.47 225.37 86.47L224.09 86.6Z" fill="#5D2B9D"/>
<path d="M253.81 69.57L253.38 72.88C253.38 72.88 253.59 73.76 255.44 74.11C257.29 74.46 258.08 74.62 258.94 74.4C259.8 74.18 260.7 72.88 259.18 72.53C257.66 72.18 255.66 72.09 255.74 69.75L253.82 69.57H253.81Z" fill="#5D2B9D"/>
<path d="M66.4001 301.02C66.1901 300.83 66.1701 300.51 66.3601 300.3C67.5101 298.97 68.6301 297.63 69.75 296.28C71.94 293.55 74.53 291.2 77.09 288.82C79.76 286.3 82.4501 283.8 85.12 281.28C87.15 279.37 89.16 277.45 91.18 275.53C94.41 272.46 97.65 269.39 100.92 266.36C105.01 262.85 109.25 259.5 113.53 256.21C117.95 252.96 122.53 249.92 126.98 246.7C130.65 244.13 134.46 241.78 138.19 239.32C143.56 236.04 148.87 232.61 154.67 230.12C156.3 229.4 157.92 228.66 159.57 228C162.88 226.74 166.35 225.9 169.84 225.29C173.01 224.72 176.24 224.46 179.44 224.11C182.81 223.52 186.19 222.92 189.5 222.1C193.23 221.24 196.74 219.74 200.2 218.12C207.17 215.01 213.39 210.74 219.26 205.94C220.38 204.98 221.55 204.06 222.64 203.07C222.68 203.03 222.73 202.99 222.77 202.94C221.23 202.49 219.85 201.7 218.21 200.31C216.4 198.79 214.99 196.86 213.76 194.86C212.49 192.89 211.25 190.9 210.19 188.81C209.12 186.51 207.28 183.17 208.23 180.6C207.84 180.21 207.49 179.79 207.21 179.32C207.17 179.26 207.12 179.2 207.08 179.14C207.04 179.09 207.03 179.03 207.02 178.98C206.97 178.87 206.91 178.76 206.87 178.64C206.83 178.5 206.79 178.35 206.76 178.2C206.67 178.31 206.58 178.41 206.49 178.51C206.25 178.77 205.99 179.01 205.74 179.25C205.37 179.58 205 179.91 204.63 180.24C204.06 180.74 203.5 181.24 202.94 181.74C202.94 181.74 202.93 181.74 202.93 181.75C202.81 181.87 202.68 181.98 202.55 182.1C201.65 182.92 200.74 183.74 199.82 184.55C198.94 185.32 198.03 186.06 197.13 186.81C196.22 187.56 195.29 188.28 194.33 188.96C192.51 190.24 190.61 191.42 188.66 192.48C186.65 193.57 184.57 194.54 182.44 195.38C180.46 196.15 178.43 196.8 176.36 197.31C175.37 197.55 174.37 197.76 173.36 197.93C172.2 198.13 171.03 198.28 169.85 198.37C167.57 198.56 165.27 198.55 163 198.31C160.76 198.08 158.53 197.64 156.38 196.95C155.24 196.59 154.12 196.15 153.04 195.65C151.93 195.14 150.85 194.55 149.79 193.93C148.98 193.45 148.19 192.93 147.43 192.38C147.14 192.17 146.86 191.94 146.58 191.72C146.39 191.56 146.19 191.41 146 191.26C145.96 191.23 145.92 191.2 145.89 191.16C145.65 191.02 145.57 190.67 145.76 190.44C145.76 190.39 145.78 190.34 145.82 190.29C145.93 190.15 146.14 190.14 146.27 190.26C146.27 190.26 146.28 190.26 146.28 190.27C146.3 190.29 146.32 190.31 146.35 190.32C146.38 190.34 146.41 190.36 146.44 190.38C146.45 190.39 146.47 190.4 146.49 190.42C146.54 190.42 146.58 190.42 146.63 190.44C146.71 190.46 146.77 190.51 146.83 190.56C146.99 190.7 147.16 190.82 147.34 190.94C147.62 191.14 147.9 191.34 148.18 191.54L148.2 191.56C148.43 191.71 148.66 191.86 148.89 192.01C149.44 192.35 149.99 192.67 150.56 192.98C150.58 192.98 150.59 193 150.61 193.01C150.71 193.07 150.81 193.12 150.92 193.17C151.02 193.22 151.12 193.27 151.22 193.32C151.25 193.34 151.28 193.35 151.31 193.37C151.34 193.39 151.37 193.4 151.4 193.41C151.5 193.46 151.61 193.51 151.72 193.56C152.46 193.92 153.19 194.23 153.91 194.52L153.98 194.55C155.43 195.12 156.91 195.6 158.38 195.97L158.45 195.99H158.46C159.89 196.35 161.33 196.61 162.79 196.78C164.31 196.95 165.83 197.02 167.31 196.99C169.01 196.96 170.7 196.81 172.38 196.56C174.26 196.27 176.12 195.85 177.95 195.32C180.07 194.69 182.15 193.93 184.14 193.04C186.12 192.16 188.05 191.16 189.93 190.06C190.42 189.77 190.91 189.48 191.31 189.23C192.25 188.65 193.16 188.05 194.08 187.44C195.08 186.78 196.06 186.11 197.04 185.41C197.46 185.11 197.87 184.79 198.28 184.47C198.73 184.12 199.17 183.77 199.6 183.43C200.52 182.68 201.42 181.89 202.28 181.07C202.72 180.66 203.14 180.24 203.57 179.82C203.7 179.69 203.83 179.56 203.97 179.43C204.46 178.91 204.94 178.39 205.44 177.88C205.62 177.7 205.81 177.53 206 177.36C206.09 177.28 206.19 177.2 206.29 177.12C206.37 177.06 206.46 177.01 206.54 176.95C206.57 176.93 206.6 176.91 206.63 176.89C206.65 176.87 206.67 176.85 206.69 176.84C206.78 174.91 207.81 172.84 209.73 172.55C209.01 171.53 208.65 170.25 208.64 169C208.59 168.83 208.89 167.41 208.92 167.3C208.92 167.29 208.92 167.28 208.93 167.27C209.28 166.34 210.35 164.87 211.57 164.04C212.09 163.65 212.65 163.29 213.18 162.96C213.38 162.86 213.58 162.75 213.78 162.65C213.95 162.54 214.12 162.42 214.29 162.31C217.25 160.41 220.56 159.1 223.97 158.24C227.43 157.23 230.93 156.39 234.49 155.85C239.13 155.06 243.77 154.28 248.36 153.31C251.55 152.55 254.67 151.28 257.74 150.18C259.65 149.41 261.57 148.66 263.42 147.75C265.53 146.56 267.61 145.19 269.45 143.64C271.1 142.1 272.51 140.27 273.41 138.19C274.13 136.75 274.82 135.29 275.18 133.72C276.01 130.1 274.95 126.33 272.96 123.27C271.79 121.92 270.07 121.08 268.3 120.78C268.2 120.74 268.1 120.71 268 120.68C267.84 120.63 267.68 120.58 267.52 120.57C267.3 120.57 267.08 120.6 266.86 120.63C264.11 120.38 261.47 120.82 258.8 121.41C255.87 121.93 253 122.6 250.17 123.52C246.99 124.7 243.8 125.79 240.57 126.76C240.54 126.76 240.51 126.76 240.47 126.78C240.4 126.8 240.32 126.82 240.25 126.85C240.21 126.87 240.16 126.89 240.12 126.91C240.07 126.92 240.02 126.94 239.97 126.95C239.97 126.95 239.92 126.96 239.89 126.97C239.89 126.97 239.83 126.99 239.8 126.99C239.8 126.99 239.76 127 239.73 127.01C239.66 127.02 239.6 127.04 239.54 127.06C239.52 127.06 239.5 127.07 239.48 127.08C237.1 127.78 234.71 128.41 232.29 128.95C228.9 129.8 225.58 130.62 222.13 131.11C220.39 131.31 218.65 131.49 216.9 131.63C216.83 131.65 216.75 131.66 216.67 131.65C214.98 131.78 213.29 131.86 211.6 131.89C207.03 131.98 202.46 131.53 197.89 131.43C195.39 131.4 192.9 131.29 190.4 131.19C189.6 131.16 188.81 131.13 188.01 131.08C187.23 131.08 186.48 131.24 185.71 131.25C185.67 131.27 185.6 131.27 185.57 131.23C185.53 131.18 185.55 131.1 185.61 131.07C188.08 130.15 190.73 130.16 193.33 130.2C195.9 130.24 198.53 130.39 201.08 130.48C203.46 130.65 205.89 130.76 208.26 130.85C210.76 130.85 213.26 130.77 215.76 130.64C215.2 129.53 214.77 127.83 214.5 127.12C213.98 125.47 213.6 123.78 213.5 122.05C213.4 120.89 213.52 119.7 213.37 118.56C213.44 118.31 213.77 118.39 213.79 118.63C214.14 120.63 214.56 122.65 215.03 124.62C215.38 126.06 215.67 127.46 216.2 128.85C216.41 129.34 216.61 129.84 216.87 130.31C216.91 130.4 216.97 130.48 217.03 130.57C217.48 130.54 217.93 130.51 218.38 130.48C218.38 130.24 218.67 130.08 218.87 129.94C219.44 129.46 219.95 128.92 220.5 128.42C222.38 126.63 224.18 124.75 225.89 122.79C226.65 121.92 227.52 121.1 228.09 120.09C228.36 119.76 228.93 120.03 228.85 120.45C228.57 121.02 228.17 121.55 227.83 122.09C225.64 125.14 223.31 128.24 220.09 130.28C220.05 130.3 220 130.32 219.95 130.36C223.83 130.08 227.63 129.04 231.38 128.13C234.18 127.47 236.94 126.67 239.68 125.83C239.89 125.52 240.1 125.2 240.33 124.89C241.14 123.78 242 122.7 242.85 121.63C246.51 116.81 251.03 112.72 255.89 109.12C260.16 105.95 264.47 102.82 269.01 100.05C274.59 96.78 280.74 94.66 286.69 92.15C289.83 90.74 293.03 89.56 296 87.82C298.7 86.2 301.15 84.22 303.53 82.17C305.13 80.78 306.8 79.47 308.35 78.03C309.36 77.08 310.31 76.08 311.31 75.14C312.45 74.17 313.49 73.08 314.37 71.87C315.58 70.17 316.9 68.5 317.52 66.48C318.21 64.52 318.53 62.27 317.35 60.44C316.3 58.65 314.56 57.92 312.59 57.56C309.48 56.92 306.37 57.77 303.44 58.75C299.83 59.95 296.2 61.06 292.58 62.22C288.22 63.68 283.73 64.72 279.45 66.4C275.72 67.72 272.04 69.2 268.37 70.68C265.73 71.89 263.08 73.08 260.41 74.23C256.8 75.7 253.3 77.41 249.78 79.08C244.01 81.56 238.5 84.56 232.87 87.32C228.84 89.28 224.79 91.2 220.76 93.17C218.18 94.39 215.55 95.5 213.02 96.82C208.28 99.14 203.92 101.97 199.6 104.97C196.67 107.13 193.7 109.23 190.77 111.39C190.01 111.88 189.25 112.39 188.51 112.92C187.03 114.52 185.19 115.8 183.45 117.08C180.38 119.58 177.46 122.26 174.47 124.85C172.97 126.12 171.41 127.31 169.93 128.59C168.53 129.85 167.16 131.14 165.73 132.37C161.37 136.06 157.13 139.88 152.95 143.77C145.59 150.49 138.15 157.23 129.61 162.45C127.93 163.54 126.27 164.65 124.53 165.63C121.88 167.13 119.09 168.38 116.3 169.62C111.43 171.64 106.63 173.81 102.02 176.38C99.16 178.05 96.51 180.07 93.83 182.02C90.68 184.4 87.72 187.03 84.55 189.4C82.15 191.14 79.64 192.71 77.11 194.25C72.03 197.29 66.7401 199.96 61.3801 202.48C55.4501 205.15 49.3801 207.62 43.38 210.11C40.7 211.24 37.98 212.3 35.27 213.36C30.25 215.53 25.25 217.74 20.21 219.85C18.01 220.69 15.88 221.69 13.7 222.56C13.2 222.74 12.69 222.93 12.18 223.1C12.02 223.13 11.85 223.04 11.77 222.89C11.68 222.7 11.77 222.47 11.95 222.38C13.71 221.57 15.47 220.77 17.23 219.96C20.93 218.41 24.61 216.79 28.31 215.23C30.18 214.45 32 213.58 33.86 212.77C36.26 211.74 38.59 210.88 40.94 209.84C47.26 207.06 53.6501 204.46 59.9501 201.63C70.1101 196.74 80.26 191.47 88.84 184.08C92.76 180.91 96.78 177.81 101.1 175.19C105.9 172.47 110.95 170.24 116.04 168.11C119.75 166.47 123.44 164.74 126.83 162.49C128.77 161.21 130.74 160 132.68 158.72C138.47 154.62 143.93 150.06 149.17 145.28C152.87 142.05 156.37 138.6 160.07 135.37C164.89 131.22 169.71 127.09 174.76 123.23C176.24 122.02 177.72 120.83 179.22 119.65C179.9 119.04 180.54 118.39 181.24 117.79C183.57 115.8 185.92 113.81 188.35 111.94C190.03 110.75 191.68 109.56 193.29 108.3C195.82 106.5 198.32 104.66 200.86 102.87C203.45 101.19 206.03 99.47 208.71 97.93C210.74 96.75 212.87 95.76 214.97 94.71C218.29 93.18 221.63 91.72 224.91 90.11C224.72 90.05 224.53 89.98 224.36 89.91C222.48 89.28 223.11 87.47 223.9 86.18C223.86 85.97 224.16 85.86 224.27 86.04C224.31 86.1 224.31 86.18 224.28 86.24C224.23 86.49 224.17 86.74 224.12 86.99C224.06 87.27 224 87.55 223.92 87.78C223.88 88.04 223.69 88.32 223.79 88.58C223.9 88.79 224.17 88.93 224.36 89.03C224.88 89.26 225.42 89.47 225.97 89.57C225.97 89.57 225.99 89.57 226 89.57C227.17 89.01 228.35 88.47 229.53 87.92C228.86 87.86 228.2 87.77 227.55 87.62C226.89 87.55 226.37 87.34 226.5 86.57C226.54 86.39 226.81 86.37 226.86 86.55C226.88 86.66 226.89 86.78 226.94 86.88C227.23 87.08 227.7 86.93 228.04 87.07C229.1 87.17 230.16 87.22 231.22 87.12C232.02 86.74 232.82 86.35 233.61 85.94C239.15 83.03 244.76 80.24 250.5 77.74C254.85 75.56 259.3 73.58 263.78 71.74C267.55 69.99 271.39 68.4 275.26 66.87C278.11 65.79 280.96 64.71 283.87 63.81C286.8 62.88 289.78 62.11 292.69 61.13C296.98 59.82 301.26 58.48 305.53 57.1C307.6 56.51 309.77 56.1 311.93 56.4C314.34 56.68 316.64 57.25 318.08 59.39C319.7 61.48 319.45 64.29 318.58 66.65C317.96 68.73 316.73 70.51 315.51 72.29C314.54 73.73 313.35 74.98 312.04 76.12C311.08 77.03 310.21 77.99 309.26 78.9C307.58 80.48 305.77 81.92 304.04 83.43C300.54 86.5 296.69 89.22 292.41 91.11C286.3 93.89 279.96 96.15 273.88 98.98C270.45 100.55 267.26 102.57 264.15 104.7C260.46 107.19 256.99 109.99 253.55 112.8C251.6 114.49 249.58 116.15 247.77 117.98C248.4 118.22 249 118.59 249.59 118.86C250.73 119.43 251.84 119.9 253.04 120.31C253.85 120.58 254.7 120.71 255.5 121C256.27 120.84 257.05 120.69 257.82 120.55C259.59 120.18 261.36 119.79 263.15 119.58C267.26 119.25 273.11 119.83 274.8 124.22C275.56 125.81 276.21 127.47 276.44 129.23C276.62 130.91 276.58 132.65 276.2 134.3C276.39 134.42 276.56 134.62 276.64 134.82C277.36 136.2 277.57 137.69 278.1 139.12C278.62 141 279.38 142.88 279.28 144.87C279.33 146.68 278.45 148.29 277.75 149.91C276.52 152.47 274.92 154.84 272.9 156.85C271.38 158.28 269.81 159.66 268.21 160.99C266.8 162.22 265.34 163.37 263.86 164.5C264.12 164.94 264.26 165.43 264.37 165.92C264.42 166.03 264.45 166.12 264.48 166.16C266.1 170.65 266.94 177.23 263.84 181.24C263.81 181.29 263.77 181.34 263.74 181.39C263.59 181.59 263.43 181.77 263.26 181.95C262.19 183.15 260.86 184.06 259.55 184.94C257.83 186.04 255.97 186.92 254.04 187.59C254.11 187.93 254.12 188.31 254.16 188.51C254.45 191.24 253.98 194.05 252.84 196.53C252.43 197.54 251.76 198.39 250.95 199.09C250.79 199.26 250.62 199.43 250.45 199.59C249.95 200.03 249.39 200.38 248.79 200.68C248.62 200.79 248.44 200.9 248.26 201C247.39 201.47 246.39 201.7 245.43 201.9C243.6 202.29 241.75 202.62 239.9 202.87C238.48 203.02 237.06 203.18 235.64 203.23C232.85 203.44 230.04 203.89 227.23 203.63C225.86 203.56 224.7 203.46 223.64 203.23C223.44 203.59 223.14 203.9 222.9 204.21C222.37 204.8 221.79 205.36 221.22 205.92C220.29 206.83 219.33 207.71 218.32 208.53C212.72 213.12 206.56 217.05 199.91 219.95C197.59 221 195.26 222.08 192.81 222.8C190.66 223.43 188.49 224 186.28 224.42C184.21 224.8 182.15 225.24 180.08 225.59C175.61 226.13 171.12 226.44 166.75 227.5C163.37 228.25 160.08 229.33 156.95 230.81C152.3 232.75 147.87 235.17 143.59 237.83C140.52 239.66 137.5 241.58 134.53 243.56C130.36 246.16 126.37 249.01 122.37 251.85C115.26 256.67 108.46 261.93 101.94 267.51C99.21 270.05 96.49 272.61 93.78 275.17C87.03 281.53 80.3101 287.92 73.53 294.25C71.85 295.93 70.35 297.79 68.7 299.51C68.17 300.07 67.6101 300.59 67.0501 301.11C66.9801 301.17 66.9 301.21 66.81 301.23C66.66 301.26 66.49 301.21 66.38 301.11L66.4001 301.02ZM209.11 182.38C209.24 183.28 209.44 184.17 209.73 185.04C210.22 186.18 210.73 187.32 211.25 188.45C212.17 190.42 213.33 192.25 214.58 194.03C215.84 195.77 217.09 197.49 218.72 198.9C220.19 200.18 221.7 201.63 223.71 201.93C226.57 202.7 229.55 202.38 232.46 202.18C234.63 202.04 236.82 201.8 238.94 201.56C241.4 201.34 243.82 200.81 246.24 200.3C247.42 200 248.59 199.59 249.59 198.9C250.46 198.18 251.36 197.37 251.84 196.34C252.51 194.87 252.71 193.23 253.05 191.66C253.11 191.11 253.21 190.57 253.29 190.02C253.34 189.27 253.35 188.51 253.36 187.76C252.88 187.91 252.39 188.05 251.9 188.18C251.15 188.23 250.41 188.33 249.67 188.44C248.84 188.6 248 188.74 247.16 188.86C244.51 189.18 241.85 189.38 239.18 189.51C237.74 189.6 236.3 189.68 234.87 189.67C233.32 189.72 231.78 189.97 230.23 190.04C227.85 190.1 225.48 190.25 223.1 190.15C221.18 190.18 219.62 189.03 218.02 188.13C216.98 187.5 215.92 186.91 214.95 186.18C213.52 185.06 212.14 183.87 210.71 182.75C210.17 182.26 209.58 181.79 209.02 181.3C209.02 181.66 209.09 182.03 209.15 182.4L209.11 182.38ZM222.9 189.02C227.43 188.92 231.98 188.61 236.5 188.38C242.76 188.13 249.14 187.91 255.08 185.78C257.83 184.79 260.34 183.14 262.49 181.18C263.6 179.9 264.16 178.24 264.36 176.58C264.59 175.39 264.72 174.19 264.57 172.99C264.46 171.64 264.38 170.28 264.12 168.95C263.95 168.11 263.74 167.27 263.45 166.46C263.24 166.04 263.06 165.6 262.99 165.13V165.11C261.9 165.93 260.82 166.74 259.74 167.57C258.94 168.21 258.06 168.76 257.21 169.32C255.93 170.17 254.71 171.1 253.42 171.93C252.13 172.69 250.88 173.52 249.51 174.12C248.13 174.68 246.68 175.04 245.21 175.28C243.87 175.49 242.53 175.54 241.18 175.52C240.48 175.55 239.78 175.56 239.08 175.55C236.86 175.75 234.64 175.89 232.4 175.9C229.95 175.86 227.5 175.69 225.04 175.72C222.31 175.76 219.61 175.48 216.91 175.2C215.84 175.01 214.64 174.98 213.59 174.8C213.34 174.74 213.09 174.66 212.84 174.58C212.06 174.42 211.32 174.15 210.69 173.62C210.51 173.47 210.34 173.31 210.18 173.13C210.14 173.23 210.07 173.32 209.95 173.37C208.07 174.13 207.31 176.42 207.87 178.28C208.13 179.03 208.73 179.65 209.29 180.18C210.19 180.98 211.1 181.76 212.04 182.51C212.33 182.73 212.61 182.95 212.9 183.19C212.9 183.19 212.9 183.19 212.91 183.2C214.03 184.05 215.15 184.88 216.24 185.74C216.73 186.12 217.24 186.5 217.75 186.85C218.03 187.02 218.31 187.2 218.6 187.37C218.95 187.56 219.28 187.76 219.62 187.97C220 188.14 220.38 188.33 220.77 188.49C220.81 188.51 220.85 188.52 220.9 188.54C221.07 188.61 221.78 188.95 222.92 189.02H222.9ZM227.98 174.43C228.35 174.45 228.72 174.47 229.09 174.48C229.34 174.48 229.59 174.48 229.84 174.48C230.1 174.48 230.37 174.48 230.63 174.5C231.17 174.51 231.7 174.5 232.24 174.52C232.5 174.52 232.76 174.53 233.02 174.53C233.28 174.53 233.55 174.53 233.81 174.5C234.09 174.48 234.36 174.47 234.64 174.46C234.9 174.46 235.17 174.46 235.43 174.46C235.73 174.46 236.04 174.45 236.34 174.44C236.6 174.44 236.86 174.46 237.12 174.46C237.7 174.46 238.28 174.46 238.86 174.46C239.31 174.46 239.77 174.48 240.23 174.49C240.93 174.41 241.63 174.33 242.33 174.24H242.5C242.68 174.22 242.87 174.22 243.05 174.21C243.32 174.19 243.59 174.15 243.86 174.11C244.02 174.09 244.19 174.06 244.35 174.04C244.83 174 245.31 173.97 245.79 173.93C246.98 173.65 248.14 173.28 249.29 172.87C251.86 171.58 254.09 169.71 256.48 168.14C258.53 166.77 260.5 165.28 262.46 163.8C264.71 162.15 266.91 160.44 268.98 158.57C272.28 155.95 275.34 152.81 276.89 148.83C277.45 147.48 278.11 146.11 278.1 144.62C278.22 143.22 277.82 141.85 277.39 140.53C277.3 140.23 277.21 139.93 277.11 139.63C276.76 138.84 276.39 138.05 276.09 137.25C275.95 136.8 275.8 136.34 275.69 135.89C274.06 139.65 271.86 143.34 268.44 145.71C266.21 147.36 263.98 148.98 261.4 150.03C259.44 150.88 257.42 151.53 255.46 152.27C253.84 152.91 252.22 153.59 250.55 154.09C246.46 155.26 242.23 155.91 238 156.56C234.04 157.17 230.07 157.78 226.21 158.82C224.32 159.33 222.39 159.74 220.54 160.4C217.76 161.52 215.03 162.81 212.53 164.47C211.86 164.98 211.18 165.49 210.64 166.09C210.23 166.66 209.91 167.28 209.81 167.97C209.79 168.28 209.8 168.58 209.82 168.89C210.65 168.36 211.76 168.02 212.53 167.76C213.18 167.55 213.84 167.39 214.51 167.28C215.59 167.1 216.69 167.02 217.78 167C218.5 166.98 219.22 167.04 219.91 167.18C221.42 167.35 222.94 167.83 223.99 168.93C224.37 169.26 224.69 169.66 224.94 170.11C225.18 170.44 225.4 170.78 225.55 171.15C225.87 171.93 226.01 172.81 225.98 173.65C225.93 173.83 225.92 174.05 225.89 174.26C225.89 174.26 225.91 174.26 225.92 174.26C225.92 174.27 225.94 174.29 225.96 174.29C225.97 174.29 225.99 174.29 226.01 174.29C226.07 174.29 226.13 174.29 226.18 174.3C226.29 174.3 226.4 174.33 226.51 174.34C226.62 174.35 226.73 174.36 226.84 174.37C227.21 174.39 227.57 174.4 227.94 174.42L227.98 174.43ZM224.54 174.39C224.54 174.39 224.54 174.39 224.55 174.39C224.59 174.38 224.63 174.35 224.64 174.31C224.64 174.29 224.64 174.27 224.64 174.26C224.64 174.26 224.66 174.26 224.67 174.26C224.67 174.14 224.68 174.02 224.7 173.91C224.7 173.56 224.72 173.21 224.72 172.85C224.62 172.41 224.5 171.97 224.34 171.56C223.97 170.84 223.51 170.1 222.93 169.51C222.83 169.8 222.72 170.1 222.65 170.4C222.41 171.38 222.32 172.32 222.49 173.31C222.56 173.63 222.53 173.94 222.54 174.23C222.54 174.29 222.54 174.35 222.52 174.4C222.54 174.4 222.55 174.4 222.57 174.4C222.57 174.4 222.57 174.4 222.58 174.4C222.62 174.41 222.65 174.41 222.69 174.42C222.75 174.42 222.81 174.42 222.87 174.42C222.99 174.42 223.11 174.42 223.23 174.43C223.35 174.43 223.48 174.43 223.6 174.43C223.68 174.43 223.75 174.43 223.83 174.43C223.92 174.43 224 174.43 224.09 174.41C224.09 174.41 224.15 174.41 224.17 174.41C224.17 174.41 224.26 174.4 224.3 174.39C224.35 174.39 224.41 174.39 224.46 174.38C224.48 174.38 224.5 174.38 224.52 174.38L224.54 174.39ZM210.98 169.36C210.64 169.49 210.3 169.64 209.97 169.78C210.17 170.7 210.55 171.58 211.08 172.35C211.65 173.04 212.55 173.35 213.36 173.67C214.53 174.09 215.81 174.02 217.02 174.21C217.19 174.23 217.36 174.24 217.53 174.25C218.83 174.33 220.13 174.37 221.43 174.39C221.43 174.37 221.41 174.35 221.41 174.34C221.08 173.44 221.03 172.48 221.21 171.54C221.27 171.17 221.38 170.81 221.51 170.46C221.57 170.04 221.86 169.32 222.24 168.91C222.09 168.8 221.93 168.7 221.76 168.61C221.72 168.6 221.69 168.58 221.65 168.57C221.12 168.36 220.57 168.22 220.01 168.12C219.59 168.06 219.17 168.01 218.74 167.98C217.4 167.91 216.04 168.05 214.75 168.28C214.69 168.29 214.63 168.3 214.57 168.31C213.34 168.52 212.15 168.93 210.99 169.37L210.98 169.36ZM246.53 119.27C244.93 121.02 243.46 122.98 242.02 124.84C241.93 124.95 241.85 125.07 241.76 125.19C242.98 124.8 244.2 124.41 245.41 124.03C247.37 123.43 249.24 122.56 251.22 122.01C251.94 121.78 252.66 121.59 253.39 121.41C253.05 121.32 252.71 121.22 252.38 121.13C251.23 120.77 250.08 120.39 249.02 119.8C248.32 119.5 247.66 119.13 247.05 118.68C246.87 118.87 246.7 119.06 246.53 119.26V119.27Z" fill="black"/>
<path d="M270.49 127.09C270.49 127.09 270.49 127.07 270.48 127.06C270.48 127.04 270.46 127.02 270.45 126.99C270.45 127 270.45 127.01 270.47 127.02C270.47 127.03 270.48 127.05 270.49 127.06C270.49 127.06 270.49 127.06 270.49 127.07C270.49 127.07 270.49 127.07 270.49 127.06C270.49 127.06 270.49 127.05 270.49 127.04C270.49 127.05 270.5 127.07 270.51 127.08L270.49 127.09Z" fill="black"/>
<path d="M100.24 87.62C97.51 83.34 92.04 86.65 91.21 85.23C89.74 80.38 82.77 85.46 84.53 88.93C85.14 90.12 88.13 91.03 88.13 91.03C87.95 93.23 89.89 96.59 91.89 97.27C94.61 98.19 91.2101 88.6 96.8701 93.43C97.6201 87.94 99.87 89.68 100.24 87.61V87.62ZM96.7 87.25C96.7 87.25 96.6701 87.32 96.6501 87.36C96.6101 87.27 96.57 87.17 96.7 87.25Z" fill="#3F3D56"/>
<path d="M256.64 127.36C256.64 127.36 256.64 127.32 256.64 127.31C256.67 127.31 256.7 127.31 256.73 127.31C256.78 127.31 256.83 127.32 256.88 127.33C256.88 127.39 256.84 127.44 256.78 127.45C256.72 127.45 256.65 127.42 256.64 127.35V127.36Z" fill="black"/>
<path d="M256.87 127.94C256.59 127.94 256.72 127.62 256.89 127.34C256.99 127.35 257.09 127.38 257.19 127.39C257.12 127.5 257.06 127.61 257 127.72C257.05 127.8 257 127.91 256.9 127.93H256.88L256.87 127.94Z" fill="black"/>
<path d="M260.65 139.92C249 133.51 257.36 122.77 267.03 122.41C275.38 129.33 271.08 141.87 260.65 139.92Z" fill="#E1CBF1"/>
<path d="M258.73 139.15C255.58 136.44 253.07 130.86 256.95 127.94C261.18 129.24 262.37 136.45 258.73 139.15Z" fill="#A37AD4"/>
<path d="M267.38 139.3C267.37 139.3 267.36 139.31 267.35 139.32C267.36 139.32 267.38 139.31 267.39 139.3H267.38Z" fill="black"/>
<path d="M272.34 130.63C272.15 128.78 271.26 127.13 270.35 125.55C269.58 124.14 268.6 122.64 267.1 121.94C266.49 121.67 265.82 121.74 265.17 121.84C264.3 121.94 263.47 122.21 262.67 122.56C261.03 123.35 259.49 124.39 258.1 125.56C254.08 128.93 254.22 132.04 255.18 134.88C255.64 136.24 256.3 137.54 257.25 138.63C258.18 139.71 259.33 140.28 260.6 140.52C260.62 140.52 260.64 140.53 260.66 140.54C260.71 140.55 260.76 140.56 260.8 140.56C264.65 141.11 267.86 139.72 269.54 138.12C270.25 137.45 270.88 136.7 271.35 135.84C272.4 134.31 272.49 132.44 272.34 130.64V130.63ZM258.95 138.68C258.95 138.68 255.86 136.22 255.6 132.46C255.52 131.34 255.7 130.23 256.23 129.17C256.95 127.93 257.8 128.81 257.8 128.81C262.7 132.58 259.09 138.47 258.95 138.68ZM270.84 133.86C269.31 139.02 263.85 139.63 263.84 139.63H263.83C263.83 139.63 263.83 139.63 263.82 139.63C263.06 139.82 262.31 139.77 261.54 139.61C261.05 139.53 260.56 139.4 260.07 139.22C260.16 138.98 260.24 138.74 260.33 138.5C260.63 137.94 260.85 137.32 260.94 137.04C261.12 136.48 261.26 135.9 261.35 135.32C261.45 134.83 261.51 134.33 261.5 133.82C261.49 133.56 261.46 133.31 261.41 133.06C261.37 132.75 261.32 132.45 261.25 132.15C260.79 130.2 259.28 128.16 257.59 127.54C257.64 127.49 259.63 125.57 262.06 124.13C263.54 123.25 264.72 122.78 266.2 122.71C267.29 122.66 268.43 124.49 268.76 124.97C270.47 127.52 271.75 130.79 270.85 133.85L270.84 133.86Z" fill="black"/>
<path d="M238.92 38.63C237.96 39.64 237 40.65 236.04 41.66C236.48 41.69 236.98 41.78 237.37 41.84C237.8 40.72 238.35 39.67 238.92 38.62V38.63ZM245.58 59.83C242.18 57.62 239.17 54.84 236.28 52.02C236.89 75.59 233.78 67.77 224.4 85.74V85.71C224.4 85.71 224.4 85.71 224.4 85.7C224.4 85.74 224.41 85.79 224.42 85.83C224.47 85.85 224.5 85.9 224.52 85.98C230.98 86.59 241.49 75.71 242.94 73.18C245.85 68.11 243.87 64.24 245.59 59.84L245.58 59.83ZM247.99 29.88C247.78 29.82 247.58 29.75 247.36 29.69C246.94 30.15 246.51 30.6 246.08 31.05C246.69 30.61 247.31 30.2 247.98 29.87L247.99 29.88ZM254.17 42.89C253.63 42.42 253.13 41.9 252.67 41.34C247.35 43.54 240.86 43.96 235.32 42.43C234.83 42.95 234.33 43.45 233.84 43.97C240.42 46.3 247.9 46.03 254.17 42.89ZM256.23 44.9C256.27 44.72 256.3 44.53 256.36 44.35C255.92 44.14 255.51 43.89 255.11 43.62C249.41 46.29 242.71 47.28 236.54 45.78C235.97 46.67 235.7 48.12 235.85 49.1C236.29 52.03 244.91 58.39 247.49 59.92C248.01 60.23 248.68 60.11 249.06 59.65C252.61 55.38 255.19 50.4 256.24 44.9H256.23ZM253.25 21.61C253.25 21.61 253.33 21.53 253.36 21.49C248.66 14.79 243.71 8.28 239.09 1.52C235.55 4.93 231.96 8.31 228.39 11.67C220.11 19.16 212.69 27.58 204.28 34.93C211.51 40.07 218.99 44.87 225.99 50.32C226 50.32 226.01 50.34 226.02 50.34C234.82 40.51 244.05 31.07 253.22 21.59L253.25 21.61ZM254.08 24.93C254.03 24.17 253.9 23.38 253.93 22.61C252.45 24.2 250.99 25.8 249.51 27.39C250.39 27.4 251.09 27.5 251.96 27.73C252.78 27.95 253.67 27.71 254.21 27.06C254.21 27.06 254.21 27.06 254.22 27.05C254.27 26.99 254.34 26.95 254.41 26.93C254.08 26.32 254.08 25.61 254.09 24.93H254.08ZM262.03 37.69C261.32 35.88 258.63 32.33 256.55 30.74C254.18 28.93 251.2 27.79 249.14 27.79C248.58 27.79 248.07 28.78 247.69 29.19C249.7 29.38 253.33 30.82 255.92 32.74C259 35.03 262.02 37.69 262.02 37.69H262.03ZM261.92 54.02C261.43 50.47 258.44 50.16 256.32 48.92C255.06 51.83 254.15 54.35 252.32 56.85C252.57 56.94 252.89 57.07 253.1 57.23C253.08 56.82 253.58 54.85 253.66 55.93C253.28 60.57 252.8 63.02 252.69 66.36C253.24 70.13 255.57 70.19 256.96 67.91C258.65 65.13 262.33 56.98 261.92 54.01V54.02ZM263.65 22.71C268.53 24.7 263.53 18.39 260.6 18.9C256.16 18 253.74 21.99 255.19 25.91C255.29 26.45 255.31 26.84 254.93 27.2C254.94 27.24 254.94 27.3 254.93 27.35C256.67 28.04 257.26 27.25 257.2 25.54C257.59 24.29 258.85 24.75 259.14 25.79C259.32 24.65 259 23.59 260.57 23.56C260.92 22.2 262.51 22.1 263.64 22.7L263.65 22.71ZM269.88 45.84C264.77 43.13 258.49 32.28 249.05 30.17C244.11 32.62 240.33 36.9 238.2 41.98C242.85 42.78 247.7 42.17 252.16 40.69C247.73 35.48 269.29 55.06 272.5 49.43C272.62 49.22 272.61 48.96 272.5 48.74C272.2 48.07 271.4 46.65 269.88 45.84ZM280.01 53.98C280.5 53.87 280.06 53.3 280.08 52.98C279.87 52.83 278.75 52.67 279.43 52.46C280.48 52.2 281.45 52.74 282.35 53.2C280.35 49.51 278.58 53.69 273.23 49.63C272.88 50.23 272.51 50.65 272.11 51.07C274.81 51.84 277.23 53.51 280.01 53.99V53.98ZM282.93 52.9C283.53 54.42 281.64 53.73 280.89 53.43C281.15 56.6 272.83 52.14 271.24 51.61C266.13 51.74 261.78 47.14 257.35 44.91C257.34 45.93 256.96 47.19 256.51 48.41C263.56 50.07 263.69 55.27 260.86 60.84C259.47 63.93 258.45 67.83 255.9 70.09C255.82 72.53 260.78 71.25 260.26 73.5C259.67 73.71 259.33 72.76 258.67 72.73C257.31 72.42 255.3 71.85 255.57 70.2C255.07 70.31 254.54 70.2 254.07 70.03C254.09 72.89 252.76 73.28 256.23 73.82C257.26 74.05 258.26 74.18 259.25 73.78C260.06 75.81 253.83 74.57 253.26 73.48C252.86 72.32 253.4 70.97 253.62 69.81C250.6 66.93 253.03 61.75 252.99 58.06C252.62 57.96 252.31 57.68 251.88 57.48C250.46 59.37 248.87 62.58 246.32 60.32C245.06 63.94 246.1 67.85 244.8 71.46C241.44 78.77 233.63 83.29 227.02 86.94C228.1 87.61 229.56 87.33 230.78 87.27C232.33 88.43 226.37 88.33 226.6 86.92C225.9 87.27 225.1 86.95 224.41 86.72C223.21 88.95 225.06 90.17 227.1 89.19C227.23 89.12 227.4 89.17 227.49 89.29C227.12 91.05 221.23 90.23 223.96 86.34C224.48 80.63 230.14 76.37 233.02 71.62C237.02 64.72 235.15 53.57 235.73 51.37C234.43 49.68 234.89 47.35 235.84 45.61C234.9 45.32 234.19 45.08 233.27 44.59C231.26 46.14 227.75 51.41 225.66 51.49C218.05 46.59 210.95 40.95 203.58 35.71C203.08 35.5 202.7 34.72 203.42 34.52C214.78 22.79 227.17 11.97 238.68 0.349996C239.02 -0.100004 239.64 0.139996 239.82 0.619996C244.82 7.28 249.45 14.21 254.35 20.94C256.41 15.94 267.9 18.25 265.86 23.72C266.24 24.58 265.92 25.52 265.97 26.4C266.3 27.57 267.21 29.56 265.1 29.29C265.21 34.51 257.36 32.55 257.75 28.57C257.75 28.11 258.49 27.36 258.59 28.16C257.15 30.61 263.03 33.32 263.96 30.99C263.15 31.03 261.82 30.6 261.86 29.65C262.58 29.65 263.47 30.32 264.33 30.16C264.47 29.89 264.43 29.6 264.58 29.31C262.08 28.9 265.19 28.72 265.89 28.76C266.22 28.06 265.32 27.44 265.32 26.72C265.13 25.78 265.41 24.82 265.37 23.87C264.09 23.92 262.63 22.34 261.46 23.27C261.74 24.32 260.59 24.35 259.95 24.56C260.21 25.32 260.12 26.97 258.97 26.69C258.35 26.46 258.6 25.57 258.03 25.31C257.25 27.64 258.42 29.03 254.54 28.04C254.34 28.21 254.08 28.35 253.81 28.43C254.83 28.89 256.64 29.78 257.66 30.81C261.66 34.81 263.89 40.42 268.54 43.9C270.28 45.52 272.49 46.62 273.36 49C277.34 52.21 281.11 49.59 282.93 52.92V52.9Z" fill="black"/>
<path d="M264.21 25.2C264.44 25.34 264.37 25.72 264.11 25.76C263.38 25.72 262.75 26.09 262.05 26.26C261.28 26.13 262.41 25.12 262.78 25.1C263.24 24.96 263.77 24.97 264.21 25.2Z" fill="black"/>
<path d="M263.89 26.08C264.23 26.21 264.04 26.75 263.7 26.69C263.2 26.6 263.43 25.91 263.89 26.08Z" fill="black"/>
<path d="M163.27 132.38C161.43 132.78 161.3 130.89 161 129.59C160.89 128.96 160.83 128.32 160.82 127.67C160.06 127.29 159.48 126.6 159.15 125.36C158.85 124.42 158.58 123.46 158.39 122.49C157.5 117.7 157.42 112.8 156.92 107.96C156.66 105.25 156.4 102.51 155.6 99.89C154.6 96.44 152.7 93.19 152.09 89.64C151.89 88.69 151.88 87.72 151.91 86.75C151.73 87.17 151.55 87.6 151.36 88.02C151.21 88.37 151.05 88.73 150.9 89.08C150.74 89.44 150.58 89.79 150.44 90.16C150.24 90.73 150.05 91.3 149.86 91.87C149.77 92.15 149.68 92.43 149.58 92.71C149.52 92.91 149.44 93.1 149.39 93.31C149.38 93.36 149.38 93.4 149.36 93.45C149.26 93.73 149.05 93.95 148.76 94H148.73C148.44 94.04 148.19 93.9 148.01 93.69C147.97 93.64 147.92 93.58 147.88 93.53C147.62 93.21 147.35 92.9 147.09 92.58C146.44 91.77 145.78 90.97 145.13 90.16C143.63 88.31 142.13 86.46 140.64 84.61C139.14 82.75 137.63 80.9 136.13 79.04C134.63 77.18 133.13 75.33 131.62 73.47C130.15 71.66 128.68 69.84 127.21 68.03C125.73 66.2 124.24 64.37 122.77 62.53C121.35 60.77 119.92 59.02 118.54 57.22C118.28 56.87 118.01 56.53 117.78 56.15C117.64 55.96 117.5 55.77 117.54 55.51C117.57 55.28 117.76 55.08 117.99 55.03C118.07 55.02 118.16 55.01 118.25 55C118.57 54.96 118.89 54.9 119.21 54.85C119.34 54.83 119.48 54.8 119.61 54.78C120.59 54.62 121.56 54.47 122.53 54.31C124.7 53.95 126.87 53.57 129.04 53.22C131.36 52.84 133.69 52.47 136.02 52.12C138.31 51.77 140.59 51.43 142.88 51.09C143.94 50.93 145 50.78 146.06 50.64C146.62 50.56 147.18 50.49 147.74 50.42C148.25 50.36 148.75 50.3 149.27 50.28C149.27 50.28 149.27 50.28 149.28 50.28C149.48 49.87 149.75 49.49 150.16 49.25C150.56 48.99 151.07 48.89 151.37 48.49C151.9 47.87 152.4 47.21 152.76 46.47C153.3 45.3 153.81 44.04 154.91 43.27C156.33 42.25 158.34 42.34 159.85 43.12C160.55 43.42 161.32 43.78 161.71 44.47C161.87 44.73 161.95 45.01 161.99 45.3C163.31 45.56 164.3 46.56 165.33 47.36C165.82 47.54 166.39 47.66 166.73 48.09C167.09 48.59 166.91 49.24 166.88 49.81C167.2 50.38 167.63 50.88 167.64 51.59C167.89 53.9 165.39 55.69 163.23 55.42C163.2 55.72 163.12 56.02 163.14 56.31C163.1 58.61 163.51 61.03 164.64 63.04C165.25 64.19 166.15 65.14 166.49 66.41C167.04 68.21 166.56 70.09 165.95 71.8C165.77 72.25 165.65 72.64 165.43 73.03C166.24 73.89 166.86 75.42 166.98 76.43C166.99 77.26 166.45 77.88 165.84 78.4C166.1 78.78 166.36 79.31 166.46 79.41C167.04 80.19 167.57 81.02 168.19 81.77C169.12 82.78 170.19 83.67 171.27 84.52C174.29 86.65 177.65 88.26 180.67 90.4C181.47 91 182.37 91.47 183.09 92.16C184.4 93.43 184.66 95.65 184.83 97.39C185.16 100.9 184.42 104.38 183.84 107.82C183.59 109.2 183.45 110.6 183.29 111.99C183.25 112.43 183.21 113.05 182.82 113.27C182.77 113.4 182.67 113.51 182.54 113.6C182.79 113.56 183.03 113.4 183.26 113.31C184.23 113.01 185.68 112.05 186.58 112.88C187.01 113.21 187.12 113.89 186.76 114.31C186.3 114.7 185.72 114.92 185.19 115.22C184.95 115.31 184.39 115.82 183.92 116.11C183.83 116.17 183.75 116.23 183.67 116.28C182.95 116.72 182.12 117.02 181.26 117C180.69 117.01 180.15 116.96 179.59 116.95C179.2 116.95 178.73 116.9 178.56 116.49C178.34 115.72 178.4 114.91 178.52 114.12C178.32 114.06 178.14 113.97 177.96 113.83C177.56 113.41 177.42 112.8 177.25 112.26C176.86 110.9 176.69 109.47 176.45 108.08C176.17 106.46 175.86 104.84 175.39 103.26C174.85 101.69 174.69 99.85 173.44 98.68C171.77 97.75 170.13 96.77 168.56 95.68C168.44 95.57 168.16 95.43 167.93 95.27C167.93 95.41 167.93 95.56 167.93 95.7C167.85 98.79 167.74 101.88 167.59 104.96C167.51 109.91 168.17 114.88 167.55 119.81C167.19 122.11 167.64 126.91 165.01 127.81C165.06 127.85 165.11 127.87 165.16 127.88C165.87 127.9 166.52 127.58 167.17 127.27C167.92 126.9 168.68 126.54 169.52 126.7C169.84 126.76 170.04 127.12 169.88 127.41C169.74 127.67 169.42 127.74 169.18 127.58C169.11 127.53 169.05 127.48 168.95 127.49C167.75 127.76 166.77 128.71 165.51 128.8C164.72 128.86 164.45 128.36 164.43 127.93C164.38 127.93 164.33 127.93 164.28 127.94C163.24 128.03 162.3 128.07 161.49 127.87C161.73 128.78 161.88 129.71 162.22 130.58C162.53 131.35 162.49 131.49 163.37 131.3C164.39 130.97 165.34 130.45 166.33 130.03C166.54 129.94 166.79 130 166.92 130.2C167.28 130.87 166.08 131.22 165.65 131.48C164.92 131.77 164.22 132.17 163.44 132.31C163.38 132.32 163.31 132.33 163.25 132.34H163.27V132.38ZM152.35 85.7C152.35 85.7 152.33 85.75 152.32 85.78C152.4 87.22 152.71 88.63 153.15 90C154.25 93.69 156.28 97.04 157.22 100.79C158.66 107.51 158.67 114.48 159.66 121.25C159.86 122.48 160.17 123.69 160.54 124.88C160.83 125.93 161.32 126.79 162.55 126.79C163.43 126.84 164.55 127.05 165.23 126.39C165.7 125.84 165.84 125.08 165.93 124.38C166 123.44 166.09 122.5 166.13 121.57C166.34 118.72 166.64 115.87 166.6 113C166.6 109.14 166.35 105.3 166.41 101.44C166.41 99.1 166.44 96.77 166.52 94.43C166.6 91.81 166.81 89.16 166.48 86.55V86.53C166.5 86.42 166.52 86.31 166.55 86.2C166.57 86.11 166.59 86.02 166.62 85.93V85.92V85.9C166.62 85.89 166.64 85.88 166.65 85.87L166.68 85.85C166.68 85.85 166.68 85.85 166.69 85.85C166.69 85.85 166.72 85.85 166.73 85.85C166.74 85.85 166.76 85.85 166.77 85.85C166.77 85.85 166.78 85.85 166.79 85.85C166.79 85.85 166.79 85.85 166.8 85.85C166.83 85.87 166.86 85.9 166.89 85.93C166.92 85.95 166.94 85.98 166.97 86C166.98 86.01 167 86.02 167.01 86.04C167.04 86.11 167.07 86.18 167.1 86.25C167.16 86.4 167.21 86.55 167.26 86.71C167.31 86.86 167.37 87.01 167.41 87.16C167.44 87.26 167.46 87.36 167.48 87.46C167.51 87.61 167.53 87.77 167.56 87.92C167.64 88.46 167.67 89 167.73 89.55C167.73 89.61 167.74 89.67 167.75 89.73C167.75 89.76 167.75 89.78 167.75 89.8C167.75 89.94 167.76 90.09 167.77 90.23C167.78 90.5 167.79 90.77 167.8 91.04C167.8 91.03 167.8 91.02 167.8 91.01C167.8 91.04 167.8 91.06 167.8 91.09C167.8 91.08 167.8 91.07 167.8 91.06C167.8 91.34 167.82 91.61 167.84 91.89C167.85 92.17 167.86 92.45 167.87 92.72C167.87 92.72 167.87 92.7 167.87 92.69C167.87 92.83 167.87 92.97 167.87 93.11C167.87 93.23 167.88 93.36 167.88 93.49C167.88 93.57 167.88 93.65 167.88 93.72C167.88 93.77 167.88 93.82 167.89 93.87C167.89 93.93 167.89 93.99 167.89 94.06C167.89 94.09 167.89 94.13 167.89 94.17C167.89 94.32 167.88 94.46 167.88 94.61C168.81 94.65 169.7 95.17 170.53 95.55C171.8 96.26 173.16 96.87 174.31 97.76C175.41 98.91 175.76 100.5 176.17 101.98C176.93 104.55 177.22 107.21 177.72 109.83C177.93 110.76 178.11 111.69 178.35 112.61C178.47 113.2 178.8 113.12 179.2 113.03C179.32 113 179.46 112.97 179.59 112.96C179.95 112.88 180.31 112.85 180.67 112.83C181.03 112.8 181.38 112.77 181.73 112.7C181.71 112.46 181.75 112.2 181.79 111.97C181.9 111.04 182.01 110.11 182.13 109.18C182.41 106.78 182.92 104.42 183.17 102.03C183.42 99.65 183.8 94.58 181.78 92.95C178.27 90.37 174.49 88.19 170.8 85.9C169.18 84.79 167.53 83.42 166.44 81.75C165.47 82.96 162.43 83.89 161.19 83.96C159.93 84.07 158.65 83.96 157.38 83.96C156.22 83.91 155.05 83.82 153.95 83.44C153.84 83.4 153.59 83.31 153.34 83.2C152.97 84.05 152.61 84.9 152.25 85.76L152.35 85.7ZM179.5 116.13C180.66 116.08 181.78 115.74 182.9 115.49C183.14 115.44 183.43 115.25 183.7 115.19C184.47 114.73 185.23 114.25 185.95 113.71C185.92 113.61 185.87 113.52 185.78 113.45C184.84 113.51 184.04 114.06 183.15 114.31C182.88 114.4 182.58 114.47 182.3 114.36C182.11 114.29 181.89 114.13 181.76 113.93C181.57 113.98 181.39 114.01 181.25 114.03C180.63 114.04 179.94 114.22 179.29 114.23C179.41 114.98 179.43 115.94 179.5 116.13ZM119.6 56.43C119.96 56.85 120.32 57.28 120.67 57.7C121.4 58.58 122.13 59.47 122.85 60.35C124.32 62.16 125.79 63.97 127.26 65.77C128.73 67.58 130.2 69.4 131.67 71.21C133.16 73.05 134.64 74.88 136.13 76.72C137.66 78.61 139.2 80.5 140.73 82.39C142.21 84.22 143.7 86.05 145.18 87.88C146.25 89.2 147.33 90.52 148.39 91.85C148.63 91.13 148.86 90.42 149.1 89.71C149.28 89.18 149.51 88.66 149.72 88.15C149.93 87.64 150.14 87.14 150.35 86.63C151.13 84.77 151.92 82.91 152.71 81.05C152.77 80.91 152.83 80.76 152.89 80.62C151.19 80.5 149.39 80.51 147.85 79.73C144.15 77.29 146.95 71.86 148.57 68.9C149.23 67.79 149.87 66.65 150.47 65.51C150.63 65.22 150.78 64.91 150.96 64.62C149.9 64.63 148.88 64.76 148.02 65.46C147.11 66.36 146.37 67.76 144.92 67.76C141.84 67.75 141.58 63.64 142.42 61.44C142.85 60.2 143.45 59.02 144.18 57.93C145.29 56.21 146.83 54.84 148 53.17C148.34 52.66 148.61 52.1 148.82 51.53C148.37 51.63 147.92 51.71 147.47 51.79C146.38 51.99 145.29 52.16 144.2 52.34C141.94 52.7 139.68 53.05 137.41 53.4C135.11 53.75 132.8 54.09 130.5 54.42C128.25 54.75 125.99 55.04 123.74 55.35C122.81 55.48 121.87 55.61 120.93 55.74C120.45 55.81 119.98 55.88 119.5 55.94C119.4 55.95 119.3 55.97 119.2 55.98C119.33 56.13 119.46 56.27 119.58 56.42L119.6 56.43ZM157.25 83.09C157.72 83.12 158.19 83.14 158.65 83.17C158.96 83.19 159.27 83.2 159.58 83.19C159.91 83.18 160.24 83.15 160.57 83.1C160.72 83.08 160.87 83.05 161.03 83.03C161.17 83.01 161.3 82.98 161.44 82.96C161.76 82.9 162.07 82.83 162.38 82.73C162.36 82.73 162.34 82.74 162.32 82.75C162.66 82.65 162.98 82.52 163.31 82.39C163.51 82.31 163.69 82.21 163.89 82.12C164.03 82.06 164.18 81.99 164.32 81.91C164.31 81.91 164.3 81.92 164.29 81.93C164.48 81.84 164.67 81.75 164.86 81.64C164.96 81.58 165.05 81.52 165.14 81.46C165.23 81.4 165.33 81.35 165.43 81.3C165.42 81.3 165.41 81.31 165.39 81.32C165.48 81.27 165.57 81.23 165.65 81.18C165.65 81.18 165.65 81.18 165.66 81.18C165.72 81.15 165.77 81.12 165.82 81.08C165.81 81.08 165.8 81.1 165.79 81.1C165.83 81.07 165.88 81.05 165.91 81.02C165.94 80.99 165.97 80.96 165.99 80.93C165.99 80.93 165.99 80.93 165.99 80.92C165.99 80.92 166 80.91 166.01 80.9C166.03 80.87 166.05 80.84 166.08 80.81C166.09 80.79 166.11 80.78 166.12 80.76C166.14 80.72 166.13 80.69 166.12 80.65C166.12 80.6 166.09 80.55 166.08 80.51C166.08 80.51 166.08 80.5 166.08 80.49C166.08 80.47 166.07 80.45 166.06 80.43C166.05 80.4 166.04 80.37 166.02 80.34C166.02 80.34 166.02 80.35 166.02 80.36C166.01 80.32 165.99 80.29 165.98 80.25C165.96 80.2 165.95 80.16 165.93 80.11C165.91 80.07 165.89 80.04 165.88 80C165.84 79.93 165.82 79.86 165.78 79.79C165.78 79.79 165.78 79.79 165.78 79.78C165.78 79.77 165.76 79.75 165.76 79.73C165.72 79.64 165.69 79.54 165.66 79.45C165.66 79.45 165.66 79.45 165.66 79.46C165.65 79.42 165.63 79.37 165.61 79.32C165.59 79.28 165.58 79.24 165.57 79.21C165.57 79.21 165.57 79.21 165.57 79.22C165.54 79.14 165.51 79.06 165.48 78.97C165.48 78.97 165.47 78.9 165.47 78.88C165.47 78.86 165.46 78.85 165.46 78.83C165.46 78.83 165.41 78.78 165.38 78.79C165.36 78.79 165.34 78.82 165.34 78.84C165.27 78.9 165.19 78.95 165.12 79.01C164.52 79.51 163.78 79.82 163.01 79.92C162.44 79.96 161.88 80.13 161.32 80.05C161.31 80.05 161.3 80.05 161.28 80.05C160.71 80.62 159.25 80.59 158.54 80.7C157.15 80.76 155.77 80.75 154.38 80.71C154.36 80.7 154.34 80.69 154.32 80.71C154.31 80.71 154.3 80.73 154.29 80.74C154.29 80.75 154.29 80.76 154.29 80.78C154.29 80.78 154.29 80.79 154.29 80.8C154.29 80.84 154.28 80.87 154.27 80.91C154.25 80.97 154.23 81.03 154.21 81.09C154.19 81.14 154.17 81.19 154.15 81.25C154.13 81.29 154.11 81.33 154.1 81.38C154.08 81.42 154.07 81.46 154.06 81.5C154.06 81.53 154.04 81.55 154.04 81.58C154.04 81.58 154.01 81.67 153.99 81.72C153.98 81.75 153.96 81.79 153.95 81.83C153.91 81.92 153.86 82.01 153.82 82.1C153.78 82.19 153.76 82.28 153.74 82.37C153.74 82.37 153.74 82.37 153.74 82.38C153.74 82.4 153.73 82.43 153.72 82.45V82.47C153.71 82.51 153.72 82.55 153.75 82.58C153.77 82.61 153.8 82.62 153.84 82.62C153.84 82.62 153.86 82.63 153.87 82.63C153.88 82.63 153.9 82.63 153.91 82.63C154.23 82.65 154.54 82.72 154.86 82.77C155.04 82.8 155.21 82.85 155.38 82.89C155.55 82.93 155.73 82.95 155.9 82.99H155.87C156.33 83.09 156.81 83.1 157.28 83.13L157.25 83.09ZM151.3 66.41C150.42 68.03 149.28 69.51 148.48 71.18C147.66 73.05 146.01 76.41 147.65 78.17C148.45 79.11 149.72 79.2 150.85 79.45C152.5 79.77 154.18 79.87 155.86 79.91C157.49 79.95 159.14 79.95 160.69 79.43C161.04 78.72 160.79 77.91 160.62 77.18C160.52 76.8 160.41 76.42 160.25 76.06C160.05 76.12 159.81 76.11 159.61 76.11C158.47 76.12 157.35 76 156.22 75.89C155.66 75.77 155.08 75.89 154.54 75.75C154.1 75.67 153.99 75.11 154.36 74.88C154.73 74.54 155.15 74.1 155.5 73.78C156.92 72.36 158.09 70.67 158.65 68.73C158.82 68.1 158.9 67.41 158.97 66.77C159.05 66.13 159.2 65.5 159.28 64.86C158.71 63.8 157.98 62.78 157.1 61.73C157.04 61.65 156.99 61.57 156.93 61.49C156.9 62.66 156.22 63.74 155.12 64.2C154.16 64.66 153.09 64.66 152.02 64.64C151.87 65.3 151.42 66.17 151.3 66.4V66.41ZM162.52 73.97C162.01 74.24 161.51 74.62 161.14 75.09C161.09 75.23 161.03 75.35 160.93 75.4C160.89 75.46 160.86 75.52 160.83 75.58C160.84 75.61 160.85 75.63 160.86 75.66C160.92 75.77 160.96 75.88 161.01 75.98C161.16 76.34 161.31 76.71 161.43 77.08C161.64 77.8 161.8 78.57 161.63 79.3C162.25 79.13 162.88 78.98 163.49 78.77C163.88 78.6 164.22 78.36 164.52 78.09C164.99 77.67 165.72 77.31 165.82 76.64C165.8 76.21 165.61 75.81 165.48 75.41C165.31 74.96 165.21 74.45 164.87 74.09C164.35 73.8 163.7 73.71 163.1 73.81C162.9 73.84 162.71 73.9 162.52 73.97ZM160.05 67.21C159.56 70.19 157.8 72.86 155.61 74.91C156.62 74.85 157.64 74.83 158.64 74.86C159.23 74.84 159.85 74.88 160.39 75.13C160.43 75.15 160.47 75.18 160.51 75.21C160.51 75.2 160.51 75.19 160.51 75.18C160.45 74.94 160.58 74.61 160.58 74.39C160.64 73.66 160.79 72.94 160.81 72.21C160.91 70.08 160.66 68.25 160.03 66.56C160.03 66.78 160.04 66.99 160.03 67.21H160.05ZM156.86 58.71C156.75 59.33 156.85 59.95 156.9 60.57C158.3 61.62 159.54 62.95 160.3 64.53C161.25 66.78 161.89 69.17 161.71 71.63C161.68 72.21 161.59 72.77 161.5 73.34C161.66 73.14 161.85 72.96 162.04 72.81C162.45 72.52 163 72.35 163.55 72.32C163.55 71.33 163.31 70.39 163.15 69.42C162.71 67.38 162.29 65.28 161.19 63.48C160.33 62.28 159.53 61.03 158.49 59.98C157.97 59.42 157.6 58.69 157.01 58.22C156.94 58.35 156.89 58.51 156.87 58.72L156.86 58.71ZM157.32 57.89C157.41 57.95 157.49 58.01 157.55 58.05C158.01 58.33 158.3 58.79 158.67 59.15C159.83 60.07 160.71 61.25 161.54 62.47C163.38 65.14 164.25 68.44 164.17 71.66C164.17 71.9 164.15 72.13 164.15 72.36C164.38 72.4 164.6 72.46 164.81 72.56C164.88 72.28 164.96 71.99 165.03 71.72C165.65 69.49 166.32 66.88 164.73 64.89C164.25 64.1 163.61 63.41 163.23 62.56C162.46 60.77 162.26 58.75 162.49 56.83C162.51 56.66 162.69 55.83 162.89 55.34C162.34 55.13 161.4 54.64 161.64 54.31C161.9 54.04 162.21 54.49 162.48 54.57C163.01 54.73 163.63 54.81 164.15 54.62C164.88 54.35 165.63 53.96 166.08 53.31C166.26 53.03 166.4 52.72 166.51 52.39C166.17 52.56 165.8 52.65 165.59 52.63C165.14 52.66 164.74 52.46 164.35 52.25C164.2 52.14 163.99 52.08 163.9 51.92C163.87 51.8 164.03 51.72 164.11 51.81C164.83 52.04 165.59 51.9 166.25 51.54C166.39 51.44 166.52 51.29 166.67 51.19C166.64 50.84 166.55 50.49 166.36 50.18C166.1 49.58 166.74 48.65 165.97 48.31C165.57 48.11 165.08 48.12 164.71 47.84C164.18 47.48 163.66 47.1 163.1 46.79C162.94 46.7 162.46 46.44 162.07 46.16C162.07 46.18 162.07 46.2 162.07 46.23C162.11 46.37 162.1 46.56 161.92 46.59C161.64 47.31 160.75 47.63 160.61 48.44C160.64 48.96 161.12 49.31 161.27 49.8C161.44 50.19 161.32 50.74 160.89 50.89C160.39 51.09 159.89 50.85 159.41 50.78C159.12 50.89 158.9 51.21 158.82 51.51C158.79 52.48 159.93 52.87 160.39 53.58C160.65 54.11 160.26 54.48 160.06 54.93C159.81 55.52 159.93 56.15 159.82 56.76C159.46 57.8 158.77 57.81 158.15 57.81C157.95 57.81 157.77 57.81 157.6 57.84C157.5 57.86 157.41 57.88 157.33 57.92L157.32 57.89ZM150.08 51.19C150.08 51.19 150.08 51.21 150.08 51.23C149.77 52.29 149.37 53.29 148.73 54.19C146.71 56.9 144.06 59.37 143.32 62.8C143.03 64.12 143.2 66.82 145.1 66.55C145.87 66.34 146.34 65.6 146.87 65.05C147.31 64.55 147.86 64.14 148.49 63.91C149.39 63.47 150.52 63.47 151.63 63.47C153.05 63.47 154.45 63.47 155.38 62.58C156.34 61.24 155.3 59.47 155.89 58C156.03 57.34 156.56 56.86 157.21 56.7C157.6 56.58 157.99 56.6 158.39 56.59C158.53 56.59 158.68 56.47 158.68 56.32C158.69 55.46 158.82 54.5 159.45 53.85C158 52.81 157.07 51.25 158.96 50.07C159.45 49.76 159.99 50.1 160.51 50.1C160.35 49.73 160.05 49.44 159.91 49.06C159.56 48.32 160.04 47.55 160.55 47.01C160.74 46.8 160.98 46.64 161.13 46.4C161.23 46.16 161.24 45.89 161.28 45.64C161.02 45.05 160.36 44.68 159.79 44.48C159.17 44.28 158.56 43.99 157.9 43.96C155.66 43.76 154.88 45.26 154.13 47.06C153.59 48.13 152.84 49.18 151.84 49.86C151.4 50.08 150.96 50.17 150.63 50.39C150.7 50.46 150.74 50.55 150.75 50.65C150.77 50.84 150.68 51.02 150.52 51.11C150.41 51.17 150.28 51.19 150.16 51.16C150.14 51.16 150.12 51.17 150.1 51.18L150.08 51.19Z" fill="black"/>
<path d="M162.4 48.29C162.75 48.19 163.05 48.63 162.82 48.91C162.58 49.18 162.44 49.53 162.4 49.88C162.39 49.92 162.34 49.95 162.3 49.94C161.83 49.68 161.89 48.47 162.4 48.29Z" fill="black"/>
<path d="M163.8 49.24C164.16 49.53 163.81 50.16 163.38 49.88C162.96 49.62 163.39 48.95 163.8 49.24Z" fill="black"/>
<path d="M82.68 136.82C82.7 136.73 82.75 136.67 82.81 136.62C82.55 136.16 82.26 135.72 82.01 135.26C81.35 133.94 80.83 132.51 80.59 131.05C79.95 132.86 78.97 134.56 78.12 136.27C77.36 138.12 76.44 139.94 76.07 141.91C77.11 141.12 77.47 139.75 78.26 138.76C78.46 138.47 78.92 138.76 78.75 139.06C78.62 139.3 78.48 139.54 78.34 139.78C78.15 140.06 77.92 140.52 77.64 140.98C77.64 140.99 77.64 141 77.63 141.02C77.38 141.98 77.19 143.01 78.21 141.64C78.61 141.05 78.88 140.39 79.2 139.76C79.37 139.45 79.52 139.13 79.65 138.8C79.71 138.66 79.86 138.59 80 138.64C80.14 138.69 80.21 138.85 80.16 138.99C80.02 139.3 79.84 139.78 79.62 140.3C79.56 140.96 79.39 141.63 79.52 142.28C80.23 141.64 80.42 140.62 80.88 139.81C80.88 139.8 80.89 139.79 80.9 139.78C80.9 139.68 80.88 139.58 80.88 139.49C80.85 139.23 80.83 138.97 80.73 138.74C80.68 138.53 80.98 138.4 81.11 138.57C81.41 139.13 81.36 139.91 81.9 140.34C82.47 139.26 82.4 137.99 82.69 136.82H82.68ZM93.9 179.85C93.9 179.85 93.84 179.78 93.8 179.76C93.12 179.55 92.39 179.66 91.7 179.74C91.2 179.76 90.67 179.82 90.2 179.61C89.82 179.36 89.49 179 89.25 178.61C88.97 178.11 88.78 177.58 88.55 177.06C88.27 177.17 87.97 177.18 87.67 177.26C87.61 177.28 87.54 177.29 87.48 177.31C87.68 178.1 87.99 178.84 88.28 179.59C88.51 180.18 88.76 180.86 89.34 181.18C89.75 181.41 90.21 181.54 90.67 181.65C90.8 181.68 90.89 181.8 90.88 181.94C90.88 182.01 90.84 182.07 90.78 182.12C90.78 182.12 90.78 182.12 90.79 182.12C91.27 181.92 91.77 181.76 92.23 181.51C92.89 181.11 93.58 180.54 93.9 179.84V179.85ZM56.49 90.88C55.82 91.43 55.2 92.03 54.66 92.6C54.07 93.24 53.52 93.9 53.01 94.6C52.5 95.32 52.04 96.08 51.62 96.86C51.28 97.49 50.98 98.14 50.72 98.81C50.48 99.46 50.27 100.12 50.1 100.78C49.95 101.41 49.83 102.05 49.76 102.7C49.69 103.36 49.67 104.02 49.68 104.68C49.7 105.5 49.77 106.33 49.9 107.15C50.03 107.92 50.19 108.67 50.41 109.42C50.65 110.21 50.94 110.99 51.27 111.72L51.29 111.77C51.6 112.43 51.94 113.08 52.32 113.7C52.71 114.32 53.14 114.91 53.6 115.48C54.06 116.03 54.55 116.55 55.08 117.05L55.14 117.11C55.69 117.61 56.26 118.08 56.87 118.52C57.54 118.99 58.24 119.42 58.96 119.81C59.56 120.13 60.17 120.41 60.8 120.65C61.49 120.91 62.2 121.12 62.92 121.29C63.65 121.46 64.39 121.59 65.06 121.66C65.86 121.75 66.66 121.78 67.46 121.77C68.24 121.75 69.01 121.69 69.77 121.57C70.48 121.46 71.17 121.28 71.86 121.08C72.52 120.88 73.15 120.64 73.77 120.37C73.77 120.37 73.79 120.37 73.8 120.36H73.83C74.48 120.05 75.11 119.73 75.71 119.36C76.42 118.92 77.1 118.42 77.74 117.89C78.31 117.42 78.85 116.91 79.36 116.37C79.81 115.88 80.23 115.37 80.62 114.84C81.09 114.18 81.51 113.48 81.86 112.83L81.91 112.74C82.23 112.14 82.51 111.52 82.75 110.9C82.75 110.89 82.75 110.88 82.76 110.86V110.84C83.08 110 83.34 109.14 83.56 108.27C83.71 107.62 83.84 106.97 83.92 106.3C83.99 105.62 84.01 104.93 84 104.27C84 104.25 84 104.23 84 104.2C83.98 103.45 83.92 102.71 83.82 102.05C83.82 102.01 83.81 101.97 83.8 101.95V101.92V101.89H83.79C83.69 101.26 83.55 100.64 83.38 100.08C83.38 100.06 83.37 100.04 83.36 100.02C83.23 99.61 83.09 99.21 82.94 98.81C82.79 98.39 82.62 97.97 82.46 97.63C82.15 96.96 81.81 96.3 81.42 95.67C80.99 94.99 80.5 94.36 80 93.76L79.97 93.73C79.56 93.23 79.1 92.78 78.63 92.33C78.03 91.78 77.4 91.28 76.75 90.81C76.12 90.36 75.47 89.96 74.8 89.6C74.17 89.27 73.52 88.96 72.93 88.73C72.07 88.4 71.2 88.12 70.34 87.91C69.72 87.76 69.1 87.66 68.47 87.59C67.87 87.53 67.26 87.49 66.69 87.5C66.67 87.5 66.64 87.5 66.62 87.5C65.84 87.52 65.06 87.6 64.32 87.71H64.25C63.37 87.86 62.51 88.07 61.67 88.32C61.22 88.45 60.78 88.6 60.34 88.75C59.87 88.92 59.4 89.08 59 89.26M87.18 102.21C87.58 101.79 88.01 101.4 88.47 101.04C87.11 100.91 85.82 100.44 84.51 100.1C84.67 100.74 84.8 101.38 84.9 102.03C85.03 102.9 85.1 103.77 85.1 104.64C85.1 104.64 85.1 104.65 85.1 104.66C85.65 103.74 86.37 102.92 87.19 102.2L87.18 102.21ZM90.25 113.1C90.25 113.1 90.18 113.14 90.15 113.17C89.82 113.4 89.51 113.67 89.15 113.86C87.97 114.5 86.74 115.13 85.4 115.36C84.16 115.55 82.91 115.5 81.66 115.49C81.64 115.55 81.59 115.54 81.54 115.52C81.3 115.83 81.06 116.14 80.8 116.44C80.55 116.73 80.29 117.01 80.03 117.28C79.92 117.39 79.81 117.5 79.71 117.61C81.28 117.62 82.85 117.84 84.42 117.78C86.46 117.74 88.5 117.36 90.3 116.37C90.35 116.35 90.41 116.34 90.45 116.34C90.43 116.1 90.42 115.86 90.41 115.62C90.41 114.78 90.33 113.93 90.25 113.1ZM93.94 133.58C93.88 133.34 93.82 133.11 93.75 132.88C93.24 130.83 92.55 128.86 92.06 126.82C91.32 123.67 90.77 120.48 90.5 117.26C90.36 117.36 90.22 117.44 90.07 117.52C88.47 118.38 86.65 118.82 84.86 119.04C83.77 119.19 82.66 119.14 81.59 118.93C81.55 119.82 81.57 120.71 81.55 121.6C81.51 122.4 81.5 123.19 81.52 123.98C81.49 124.71 81.49 125.52 81.97 126.12C82.66 126.92 83.61 127.43 84.45 128.05C86.36 129.37 88.43 130.45 90.43 131.63C91.36 132.18 93.84 133.55 93.94 133.58ZM94.55 137.49C94.52 136.53 94.38 135.57 94.18 134.63C94.18 134.63 94.17 134.63 94.16 134.62C94.09 134.55 89.43 132.11 88.59 131.65C86.27 130.38 83.95 129.04 81.9 127.38C81.73 127.25 81.59 127.11 81.46 126.96C81.35 127.53 81.28 128.06 81.25 128.63C81.17 130.69 81.93 132.62 82.88 134.39C83.79 135.73 84.68 137.16 84.7 138.84C84.88 141.54 84.16 144.2 83.99 146.88C83.46 151.8 82.78 156.73 82.85 161.68C82.85 164.02 83.03 166.35 83.41 168.66C83.79 171.4 84.54 174.61 87.08 176.14C87.6 176.04 88.14 176.05 88.57 175.71C88.81 171.42 90.32 167.36 91.31 163.22C92.09 159.73 92.77 156.22 93.46 152.71C94.17 148.2 94.59 143.61 94.57 139.06C94.57 138.93 94.62 138.82 94.71 138.76C94.65 138.29 94.63 137.83 94.58 137.5L94.55 137.49ZM90.29 99.85C90.54 99.71 90.83 99.59 91.14 99.48C90.79 99.38 90.45 99.23 90.11 99.14C88.74 98.73 87.36 98.33 85.95 98.09C85.17 97.93 84.41 97.69 83.64 97.49C83.76 97.78 83.88 98.06 83.99 98.36C84.14 98.77 84.26 99.18 84.37 99.6C84.39 99.67 84.41 99.73 84.42 99.8C85.77 99.76 87.16 99.71 88.47 100.08C88.7 100.19 89.03 100.22 89.17 100.47C89.17 100.49 89.19 100.5 89.19 100.51C89.54 100.27 89.91 100.05 90.29 99.86V99.85ZM90.69 86.23C90.88 86.06 91.08 85.91 91.29 85.77C90.84 84.78 90.07 83.87 88.99 83.57C87.32 83.23 85.5 84.85 84.8 86.27C84.28 87.29 84.68 88.49 85.22 89.42C85.84 90.13 86.83 90.48 87.76 90.56C88.2 88.88 89.48 87.23 90.68 86.23H90.69ZM97.53 108.85C97.99 106.19 98.77 103.02 96.92 100.71C96.86 100.61 96.74 100.52 96.64 100.43C95.24 99.8 93.54 99.95 92.11 100.43C89.36 101.51 87.53 103.99 85.57 106.08C85.35 106.34 85.14 106.61 84.98 106.9C84.98 106.95 84.97 107 84.96 107.05C84.89 107.74 84.78 108.42 84.62 109.1C84.46 109.78 84.25 110.45 84 111.11C83.69 111.93 83.3 112.72 82.88 113.5C82.55 114.1 82.18 114.67 81.77 115.22C84.35 114.68 87.12 114.46 89.31 112.85C89.56 112.65 89.82 112.46 90.1 112.3C90.12 112.29 90.15 112.28 90.17 112.27C90.08 111.29 89.99 110.3 89.98 109.32C89.84 107.85 90.14 106.4 90.2 104.93C90.1 104.64 90.37 104.33 90.67 104.39C90.93 104.43 91.1 104.74 90.98 104.98C91 105.19 91.03 105.4 91.05 105.61C91.39 107.71 91.24 109.83 91.23 111.95C91.44 115.72 91.76 119.54 92.48 123.24C93.12 126.81 94.22 130.27 95.07 133.79C95.52 135.5 95.59 137.26 95.79 139C95.97 138.4 96.21 137.76 96.16 137.12C96.17 136.71 95.91 135.95 96.54 135.92C96.76 135.92 96.93 136.12 96.93 136.34C96.91 137.03 96.85 137.77 96.68 138.44C96.77 138.95 96.92 139.45 97.08 139.92C97.44 138.9 97.53 137.78 97.44 136.71C97.41 136.26 98.09 136.19 98.14 136.65C98.2 137.1 98.18 138.56 97.91 139.64C97.91 139.99 97.91 140.3 97.99 140.37C98.11 140.34 98.2 140.17 98.25 140.09C98.8 139.16 98.9 138.06 98.82 137.01C98.83 136.53 99.58 136.51 99.61 136.99C99.65 137.9 99.48 138.81 99.14 139.65C99.19 139.73 99.19 139.82 99.11 139.9C99.11 139.92 99.11 139.94 99.11 139.95C99.13 140.27 99.33 140.81 99.71 140.63C100.35 140.14 100.42 139.18 100.53 138.47C100.75 137.04 100.16 135.67 99.99 134.27C99.77 132.54 99.17 130.92 98.53 129.31C98.37 129.23 98.22 129.14 98.17 128.96C98.14 128.85 98.17 128.72 98.25 128.63C98.01 128.03 97.77 127.44 97.55 126.83C96.69 124.36 95.74 121.82 95.76 119.18C96.1 115.72 96.72 112.28 97.51 108.89L97.53 108.85ZM99.62 116.51C99.47 113.37 99.51 110.17 98.97 107.07C98.75 108.73 98.32 110.36 97.97 111.99C97.51 114.01 97.2 116.06 96.96 118.11C96.62 120.5 97.4 122.82 98.22 125.03C98.7 126.31 99.1 127.62 99.49 128.93C99.6 128.99 99.7 129.05 99.8 129.11C99.67 127.46 99.68 125.81 99.71 124.15C99.71 121.6 99.65 119.05 99.62 116.51ZM111.39 165.92C110.73 165.92 109.95 165.88 109.52 165.3C109.33 165.16 109.04 164.06 109.03 163.36C108.79 163.41 107.93 163.46 107.78 163.45C108.01 164.52 108.04 166.52 109.39 167.63C109.61 167.88 110.27 167.2 110.74 167.07C111.42 166.81 112.76 166.87 112.76 166.18C112.76 165.49 111.84 165.92 111.38 165.92H111.39ZM99.2 88.09C99.47 87.96 99.8 87.91 100.02 87.72C99.29 86.65 98.02 85.93 96.77 85.67C95.65 85.58 94.48 85.48 93.38 85.74C90.96 86.46 89.04 88.57 88.43 90.99C88.06 93.23 90.1 96.92 92.56 97.03C92.99 96.78 92.97 96.29 92.93 95.86C92.84 95.09 92.68 94.32 92.76 93.54C92.81 92.69 93.49 92.03 94.28 91.8C94.73 91.64 95.28 91.54 95.71 91.82C96.19 92.13 96.48 92.62 96.7 93.13C97.05 92.33 96.85 91.46 97.04 90.64C97.29 89.49 98.11 88.53 99.21 88.11L99.2 88.09ZM101.12 92.35C101.1 92.25 101.08 92.14 101.05 92.04C101.02 91.94 100.99 91.85 100.95 91.76C100.91 91.68 100.87 91.6 100.82 91.52C100.78 91.46 100.74 91.4 100.7 91.35C100.65 91.3 100.6 91.24 100.55 91.19C100.51 91.15 100.47 91.12 100.43 91.09C100.4 91.07 100.36 91.05 100.33 91.02C100.29 91 100.25 90.98 100.2 90.96C100.17 90.95 100.13 90.94 100.1 90.93C100.07 90.93 100.03 90.92 100 90.91C99.97 90.91 99.94 90.91 99.91 90.91C99.86 90.91 99.82 90.91 99.79 90.92H99.78C99.78 90.92 99.71 90.93 99.7 90.94C99.67 90.94 99.65 90.94 99.63 90.95C99.62 90.95 99.6 90.95 99.59 90.97C99.59 90.97 99.53 91.02 99.49 91.03C99.49 91.03 99.45 91.06 99.44 91.07C99.38 91.12 99.33 91.17 99.28 91.22C99.23 91.27 99.18 91.33 99.14 91.39C99.09 91.46 99.04 91.53 99 91.61C98.96 91.69 98.92 91.78 98.88 91.86C98.84 91.96 98.81 92.07 98.78 92.17C98.75 92.29 98.73 92.42 98.71 92.54C98.69 92.69 98.69 92.83 98.69 92.97C98.69 93.1 98.7 93.23 98.72 93.36C98.74 93.46 98.76 93.56 98.78 93.66C98.81 93.76 98.85 93.86 98.89 93.95C98.92 94.02 98.96 94.09 98.99 94.15C99.04 94.22 99.09 94.3 99.14 94.37C99.18 94.42 99.22 94.46 99.27 94.51C99.31 94.54 99.35 94.58 99.38 94.61C99.41 94.63 99.45 94.66 99.49 94.68C99.53 94.7 99.56 94.72 99.6 94.74C99.64 94.75 99.68 94.77 99.72 94.78C99.75 94.78 99.79 94.8 99.82 94.8C99.85 94.8 99.88 94.8 99.91 94.8C99.94 94.8 99.98 94.8 100.02 94.8C100.06 94.8 100.1 94.78 100.14 94.77C100.18 94.76 100.22 94.74 100.26 94.73C100.29 94.71 100.32 94.7 100.36 94.68C100.39 94.66 100.42 94.63 100.45 94.61C100.5 94.57 100.55 94.52 100.57 94.51C100.63 94.45 100.68 94.38 100.74 94.31C100.78 94.25 100.82 94.19 100.86 94.14C100.91 94.05 100.95 93.97 100.98 93.88C101.02 93.78 101.05 93.68 101.08 93.58C101.11 93.47 101.13 93.35 101.15 93.23C101.17 93.09 101.17 92.96 101.17 92.84C101.17 92.84 101.17 92.83 101.17 92.82C101.17 92.68 101.16 92.53 101.14 92.39L101.12 92.35ZM101.48 91.53C101.48 91.36 101.48 91.19 101.46 91.02C101.28 90.04 100.86 89.17 100.44 88.3C99.99 88.68 99.16 88.93 98.77 89.24C98.19 89.7 97.8 90.39 97.72 91.12C97.72 91.56 97.76 92 97.72 92.43C97.9 92.43 98.09 92.43 98.24 92.46C98.29 92.17 98.38 91.88 98.51 91.61C98.69 91.26 98.94 90.92 99.29 90.73C99.29 90.73 99.3 90.71 99.31 90.7C99.34 90.67 99.38 90.66 99.42 90.65C99.48 90.62 99.53 90.59 99.59 90.56C99.74 90.49 99.91 90.47 100.07 90.47C100.59 90.47 101.03 90.8 101.31 91.22C101.37 91.32 101.43 91.41 101.48 91.52V91.53ZM102.39 94.11C103.12 93.65 103.21 92.76 103.02 91.98C102.95 91.57 102.86 90.94 102.35 90.88C102.18 90.92 102.06 91.02 101.95 91.14C101.96 91.68 101.93 92.29 101.95 93.11C101.95 93.49 102.14 93.8 102.34 94.12C102.36 94.12 102.38 94.11 102.4 94.11H102.39ZM112.21 143.84C112.12 142.63 112.03 141.42 111.71 140.25C111.61 139.89 111.56 139.51 111.46 139.15C111.33 138.9 111.14 138.68 110.97 138.46C109.96 137.24 108.71 136.26 107.45 135.33C106.15 134.36 104.84 133.4 103.5 132.48C102.6 131.87 101.69 131.29 100.78 130.7C100.85 131.65 100.82 132.6 100.77 133.55C100.77 133.67 100.77 133.87 100.76 134.02C100.82 134.37 100.87 134.72 100.92 135.07C101.02 135.78 101.32 136.45 101.38 137.17C101.5 138.37 101.15 141.95 99.33 141.36C98.98 141.2 98.83 140.85 98.76 140.49C98.58 140.81 98.32 141.07 97.92 141.07C97.64 141.06 97.47 140.91 97.38 140.7C97.19 140.87 96.97 140.93 96.69 140.81C96.49 140.58 96.37 140.25 96.3 139.88C96.24 140.01 96.17 140.13 96.06 140.24C95.89 140.41 95.65 140.53 95.41 140.43C95.41 140.68 95.4 140.92 95.39 141.17C96 141.27 96.94 141.76 97.19 141.81C103.4 143.67 101.93 144.26 103.25 149.8C104 152.73 104.66 155.69 105.37 158.63C105.66 159.66 105.77 160.8 106.4 161.7C107.05 162.24 108.02 162.19 108.82 162.19C109 162.19 109.18 162.16 109.34 162.1C109.56 161.99 109.66 161.76 109.78 161.56C110.18 160.72 110.57 159.85 110.81 158.95C111.49 156.09 111.86 153.16 112.19 150.25C112.38 148.12 112.45 145.99 112.2 143.86L112.21 143.84ZM112.23 138.55C113.07 140.34 113.3 142.34 113.4 144.3C113.55 146.88 113.44 149.48 113.1 152.03C112.55 155.11 112.35 158.31 111.07 161.2C110.7 162.21 110.28 162.86 109.53 163.19C110.29 166.03 112.01 164.01 113.53 165.54C114.37 166.54 112.98 167.48 112.07 167.69C111.23 167.89 110.41 168.19 109.58 168.37C109.15 168.42 108.35 167.55 108.26 167.5C107.86 167.32 107.29 164.54 107.31 163.39C106.56 163.27 105.82 162.92 105.42 162.29C104.63 160.94 104.47 159.33 104.01 157.86C103.23 154.95 102.4 152.05 101.75 149.11C100.78 144.43 101.87 145.07 97.33 143.02C96.64 142.7 96.02 142.23 95.36 141.84C95.23 145.99 94.97 150.13 94.3 154.23C93.67 157.44 93.12 160.67 92.4 163.87C91.87 165.99 91.25 168.09 90.65 170.19C90.23 171.94 89.63 173.67 89.49 175.48C89.47 175.78 89.56 176.12 89.32 176.36C89.18 176.5 89.03 176.63 88.88 176.76C88.93 176.83 88.98 176.9 89.02 176.96C89.45 177.7 89.95 178.44 90.66 178.93C91.52 179.13 92.39 178.83 93.26 178.94C96.36 179.21 93 182.25 91.62 182.57C91.29 182.65 90.78 183 90.56 182.58C90.49 182.44 90.53 182.24 90.66 182.14C90.62 182.16 90.58 182.16 90.53 182.16C89.36 182.02 88.26 181.49 87.88 180.3C87.52 179.36 87.16 178.37 87.03 177.37C87.01 177.37 86.98 177.37 86.96 177.37C85.99 177.28 85.22 176.48 84.61 175.78C83.39 174.29 82.84 172.43 82.47 170.57C81.54 166.24 81.36 161.81 81.58 157.4C81.8 153.6 82.23 149.82 82.67 146.04C82.79 144.94 82.93 143.85 83.07 142.75C83.3 141.05 83.61 139.26 83.17 137.57C83.01 139 83.01 141.53 81.69 141.28C81.42 141.21 81.23 141.04 81.11 140.83C80.78 141.71 80.5 143.01 79.42 143.14C78.67 143.07 78.7 142.38 78.84 141.75C78.44 142.41 77.97 142.91 77.44 142.94C76.92 142.88 76.82 142.47 76.91 141.96C76.56 142.37 76.17 142.66 75.76 142.62C74.12 142.22 76.7 138.23 77.04 137.29C78.07 134.94 79.49 132.76 80.45 130.38C80.38 129.71 80.39 129.03 80.47 128.35C80.5 128 80.76 126.89 81.06 126.37C80.67 125.61 80.57 124.7 80.6 123.85C80.52 122.47 80.56 121.08 80.63 119.7C80.65 119.51 80.68 119.1 80.76 118.71C80.54 118.65 80.33 118.59 80.11 118.51C79.74 118.41 79.37 118.33 79.01 118.23C78.76 118.45 78.5 118.67 78.24 118.88C77.62 119.38 76.96 119.82 76.28 120.22C75.62 120.61 74.95 120.97 74.25 121.28C72.83 121.91 71.33 122.36 69.8 122.64C69.72 122.65 69.64 122.67 69.56 122.68C68.08 122.93 66.58 123 65.08 122.88C64.19 122.81 63.29 122.67 62.42 122.46C61.59 122.26 60.77 122 59.98 121.69C59.33 121.44 58.68 121.15 58.06 120.83C57.36 120.47 56.7 120.07 56.1 119.64C56.08 119.63 56.07 119.62 56.05 119.6C56.05 119.6 56.04 119.59 56.03 119.59C54.65 118.6 53.41 117.43 52.35 116.1C51.81 115.43 51.32 114.72 50.87 113.98C50.44 113.27 50.07 112.53 49.74 111.77C49.39 110.97 49.11 110.14 48.89 109.3C48.67 108.46 48.51 107.6 48.42 106.74C48.33 105.89 48.3 105.04 48.33 104.18C48.37 103.3 48.46 102.42 48.6 101.54C48.88 99.8 49.41 98.09 50.15 96.5C50.9 94.91 51.93 93.46 53.14 92.19C54.32 90.95 55.73 89.92 57.23 89.1C57.31 89.06 57.39 89.01 57.47 88.97C58 88.63 58.54 88.32 59.1 88.03C59.77 87.68 60.45 87.38 61.16 87.14C61.3 87.09 61.44 87.05 61.5 87.03C63.14 86.54 64.86 86.31 66.58 86.32C67.35 86.32 68.11 86.36 68.87 86.44C69.64 86.53 70.41 86.65 71.17 86.82C72.81 87.19 74.39 87.81 75.85 88.64C77.33 89.47 78.7 90.53 79.86 91.76C80.44 92.38 81.01 93.02 81.5 93.71C81.97 94.38 82.41 95.08 82.81 95.8C82.97 96.08 83.11 96.37 83.25 96.64C84.12 96.71 84.98 96.79 85.84 96.94C86.97 97.05 88.08 97.3 89.16 97.65C89.41 97.72 90.8 98.18 91.6 98.66C91.6 98.36 91.65 98.05 91.71 97.75C89.47 97.27 87.99 94.17 87.62 92.15C87.58 91.84 87.59 91.52 87.62 91.2C87.59 91.2 87.56 91.21 87.53 91.21C86.57 91.23 85.58 90.76 84.88 90.12C84.22 89.36 83.87 88.2 83.86 87.2C84 85.45 85.42 83.99 86.9 83.18C88.97 82 91.02 83.47 91.84 85.41C92.91 84.86 94.16 84.64 95.34 84.81C97.31 84.73 99.28 85.61 100.5 87.15C100.73 87.46 100.77 87.71 100.68 87.92C101.59 89.15 101.85 89.87 101.91 90.74C102.22 90.45 102.66 90.4 103.03 90.87C103.74 91.8 103.79 93.36 102.85 94.16C102.77 94.24 102.64 94.37 102.52 94.46C102.9 95.19 103.15 96.3 102.26 96.57C102.48 98.28 100.54 99.93 98.91 99.98C97.87 99.98 96.9 99.4 96.28 98.59C96.25 98.56 96.25 98.5 96.29 98.48C96.41 98.46 96.55 98.62 96.66 98.66C97.52 99.09 98.55 99.31 99.51 99.09C100.57 98.76 101.43 97.84 101.74 96.78C101.75 96.74 101.76 96.69 101.76 96.64C101.63 96.65 101.5 96.66 101.37 96.65C101.13 96.64 101.01 96.32 101.18 96.15C101.44 95.94 101.82 96.13 102.12 96.02C102.37 96.01 102.31 95.75 102.27 95.58C102.18 94.99 101.78 94.53 101.53 94.01C101.53 94.03 101.52 94.04 101.51 94.06C101.46 94.18 101.41 94.3 101.34 94.41C101.23 94.61 101.09 94.8 100.92 94.95C100.75 95.1 100.55 95.23 100.34 95.31C100.27 95.33 100.2 95.35 100.13 95.37C99.98 95.4 99.82 95.4 99.67 95.37C99.42 95.33 99.19 95.21 99 95.05C98.71 94.81 98.51 94.48 98.38 94.13C98.24 93.78 98.18 93.4 98.18 93.03C97.98 93.03 97.79 92.96 97.61 92.88C97.6 92.93 97.58 92.98 97.56 93.03C97.42 93.43 97.26 94 96.75 94.02C96.59 94.04 96.43 93.93 96.32 93.82C95.93 93.36 95.83 92.62 95.24 92.34C95.08 92.28 94.9 92.33 94.74 92.36C94.32 92.47 93.95 92.61 93.68 92.94C92.79 94.24 94.45 96.23 93.07 97.32C92.96 97.6 92.67 97.73 92.38 97.78C92.38 98.27 92.26 98.89 92.23 99.13C93.88 98.78 95.81 98.88 96.88 99.92C98.25 100.83 98.83 102.29 99.01 103.84C99.3 104.79 99.57 105.75 99.77 106.72C100.17 108.63 100.22 110.59 100.36 112.53C100.56 116.05 100.67 119.57 100.63 123.08C100.63 125.26 100.51 127.44 100.67 129.61C101.7 130.23 102.73 130.88 103.73 131.55C105.42 132.7 107.06 133.93 108.7 135.14C110.01 136.1 111.27 137.19 112.21 138.52L112.23 138.55Z" fill="black"/>
<path d="M98.2 129.53C97.03 129.67 95.84 129.7 94.68 129.48C94.2 129.41 93.76 129.09 93.29 129.08C93.2 129.08 93.12 129 93.11 128.91C93.09 128.57 93.54 128.67 93.75 128.66C94.4 128.71 95.16 128.64 95.78 128.7C96.86 128.73 97.89 128.83 98.94 128.61C99.25 128.64 99.4 129.03 99.19 129.25C98.93 129.49 98.53 129.46 98.21 129.52L98.2 129.53Z" fill="black"/>
<path d="M97.46 126.27C96.34 126.3 95.22 126.31 94.11 126.16C93.78 126.14 93.45 126.05 93.13 126.1C93.05 126.1 92.96 126.1 92.9 126.07C92.71 125.97 92.88 125.67 93.06 125.8C93.78 125.65 94.51 125.77 95.23 125.8C95.79 125.77 96.37 125.8 96.91 125.77C97.2 125.77 97.52 125.58 97.79 125.73C98.08 125.98 97.79 126.3 97.47 126.26L97.46 126.27Z" fill="black"/>
<path d="M97.58 126.31C96.36 126.36 95.12 126.4 93.9 126.28C93.59 126.22 93.25 126.15 92.97 126.03C92.88 126 92.79 125.94 92.79 125.83C92.8 125.3 94.74 125.77 95.2 125.68C95.96 125.68 96.74 125.71 97.49 125.61C97.64 125.59 97.8 125.56 97.94 125.61C98.24 125.71 98.23 126.17 97.92 126.26C97.81 126.29 97.69 126.29 97.57 126.3L97.58 126.31Z" fill="black"/>
<path d="M96.92 128.02C96.13 128.13 96.15 126.66 96.88 126.91C97.61 126.67 97.57 128.02 96.92 128.02ZM96.97 127.71C97.5 127.45 96.97 126.97 96.72 127.16C96.56 127.28 96.52 127.9 96.97 127.71Z" fill="black"/>
<path d="M82.6 135.2C81.62 134.66 80.68 134.02 79.74 133.41C79.59 133.32 79.24 133.17 79.46 132.97C79.53 132.93 79.61 132.95 79.65 133C80.38 133.32 81.18 133.46 81.89 133.81C82.27 134.02 83.42 134.53 83.08 135.08C82.97 135.24 82.76 135.28 82.59 135.2H82.6Z" fill="black"/>
</g>
</g>
<defs>
<clipPath id="clip0_454_61">
<rect width="476" height="205" fill="white"/>
</clipPath>
</defs>
</svg>
