<svg width="436" height="260" viewBox="0 0 436 260" fill="none" xmlns="http://www.w3.org/2000/svg">
<g clip-path="url(#clip0_8740_9204)">
<path d="M435.481 112.987C434.322 185.621 354.146 219.777 290.996 214.129C251.608 208.401 215.319 180.946 174.072 189.756C131.532 197.484 95.5658 231.855 50.4395 228.856C-3.95442 226.856 -16.051 160.464 25.0611 130.686C63.4251 103.205 58.3333 129.713 86.7291 72.508C102.247 41.2438 128.057 -1.82887 168.037 3.06207C183.69 6.14255 193.954 19.4643 205.97 28.8949C224.102 43.8379 248.672 42.9732 269.82 35.7854C299.59 27.0844 330.707 18.4645 361.824 24.6254C401.885 32.5698 433.784 71.9946 435.481 112.987Z" fill="#E1CBF1"/>
<path d="M263.893 15.873C263.785 79.9957 265.186 154.792 263.732 211.484C262.331 211.484 161.598 240.559 127.679 248.233C127.275 198.973 127.679 52.8929 127.679 52.8929C127.679 52.8929 249.992 18.8995 263.893 15.873Z" fill="white"/>
<path d="M263.624 37.2469C253.252 42.5432 146.888 68.2409 128.03 74.1317C126.79 65.6468 128.919 58.7293 127.652 52.8655C136.516 49.8661 251.204 19.8719 263.893 15.8457C264.405 21.4122 263.974 33.0856 263.624 37.2469Z" fill="#5D2B9D"/>
<path d="M138.025 63.9448C131.936 62.999 136.516 53.3523 140.746 58.4323C142.012 60.3509 140.503 64.0799 138.025 63.9448Z" fill="#FDC82E"/>
<path d="M149.34 61.1605C145.164 59.296 147.858 52.7027 152.223 54.6482C156.533 56.0534 152.977 62.4305 149.34 61.1605Z" fill="#FDC82E"/>
<path d="M162.891 57.4586C158.096 57.1884 160.305 49.7304 164.4 50.8924C168.468 52.0273 166.771 57.864 162.891 57.4586Z" fill="#FDC82E"/>
<path d="M137.971 64.9438C134.792 64.8357 132.744 61.1607 134.334 58.3775C136.031 55.1889 140.8 55.3781 142.255 58.7018C143.602 61.6471 141.204 65.187 137.971 64.9438ZM138.213 63.3495C140.234 63.4036 141.689 61.0256 140.719 59.2422C139.803 57.3507 137.001 57.1615 135.869 58.945C134.603 60.7824 136.004 63.4036 138.213 63.3495Z" fill="black"/>
<path d="M150.445 61.9165C147.265 61.8084 145.218 58.1334 146.807 55.3502C148.505 52.1616 153.273 52.3507 154.728 55.6744C156.075 58.6198 153.677 62.1596 150.445 61.9165ZM150.687 60.3222C152.708 60.3762 154.162 57.9983 153.193 56.2149C152.277 54.3233 149.475 54.1342 148.343 55.9176C147.077 57.7281 148.478 60.3762 150.687 60.3222Z" fill="black"/>
<path d="M163.268 58.7016C160.089 58.5935 158.042 54.9186 159.631 52.1353C161.329 48.9467 166.097 49.1359 167.552 52.4596C168.899 55.405 166.501 58.9448 163.268 58.7016ZM163.511 57.1073C165.532 57.1614 166.986 54.7835 166.016 53C165.1 51.1085 162.299 50.9193 161.167 52.7028C159.901 54.5132 161.302 57.1614 163.511 57.1073Z" fill="black"/>
<path d="M264.621 38.111C264.621 38.057 264.621 37.9759 264.621 37.9219C264.594 33.6795 264.594 29.41 264.567 25.1676C264.513 22.6005 264.513 20.0064 264.378 17.4394C264.351 17.1151 264.351 16.8179 264.297 16.4936V16.4666C264.405 16.2774 264.459 16.0883 264.405 15.8451C264.028 14.8453 263.085 15.4127 262.304 15.5749C260.714 16.0072 259.125 16.4396 257.535 16.8449C218.174 27.4104 178.814 38.003 139.453 48.5685C135.573 49.6223 131.694 50.6491 127.814 51.703C127.383 51.8111 127.141 52.2704 127.248 52.7028C127.248 52.7298 127.275 52.7568 127.275 52.7839C127.248 52.8379 127.221 52.919 127.194 52.973C127.114 53.5675 127.114 54.162 127.06 54.7565C127.006 55.8373 126.979 56.9452 126.952 58.0261C126.521 121.23 126.898 184.461 126.79 247.665C126.79 247.962 126.952 248.232 127.194 248.367C127.194 248.422 127.194 248.503 127.221 248.557C127.356 249.124 128.003 249.259 128.488 249.043C134.361 247.476 140.207 245.881 146.08 244.314C184.175 234.073 222.296 223.832 260.391 213.59C261.442 213.293 262.492 213.023 263.57 212.726C264.082 212.672 264.54 212.212 264.405 211.672C264.378 211.645 264.378 211.591 264.351 211.564C264.54 211.429 264.675 211.186 264.675 210.942V200.242C264.621 146.252 264.809 92.1816 264.621 38.111ZM128.542 53.2162C134.415 51.6489 140.261 50.0547 146.134 48.4874C184.229 38.2461 222.35 28.0049 260.445 17.7636C261.442 17.4934 262.439 17.2232 263.435 16.953C263.408 17.3313 263.408 17.7096 263.381 18.0609C263.328 19.1418 263.301 20.2496 263.274 21.3305C263.247 26.6538 263.22 32.0041 263.193 37.3274C262.223 37.5976 261.253 37.8408 260.283 38.111C219.952 48.9738 179.622 59.8095 139.291 70.6452C137.297 71.1857 135.304 71.7261 133.337 72.2395C131.694 72.6719 130.05 73.1313 128.407 73.5636C128.38 69.6725 128.38 65.7543 128.353 61.8632C128.326 59.2961 128.299 56.702 128.164 54.1349C128.137 53.8647 128.137 53.5675 128.11 53.2973C128.245 53.2973 128.38 53.2703 128.542 53.2162ZM257.535 212.753C218.174 223.318 178.814 233.911 139.453 244.476C135.762 245.476 132.098 246.449 128.407 247.449V237.018C128.326 183.083 128.542 129.174 128.353 75.239C130.077 74.7796 131.774 74.3202 133.499 73.8608C135.627 73.2934 137.755 72.7259 139.884 72.1314C180.969 61.0795 222.054 50.0547 263.139 39.0028C262.87 96.3159 263.193 153.656 263.058 210.969C263.058 211.05 263.085 211.131 263.112 211.213C262.843 211.294 262.546 211.375 262.304 211.456C260.714 211.915 259.125 212.32 257.535 212.753Z" fill="black"/>
<path d="M171.89 113.042C154.27 68.7259 217.097 52.5129 228.115 93.7211C227.631 140.117 180.241 134.092 171.89 113.042Z" fill="#5D2B9D"/>
<path d="M179.703 122.256C192.338 132.471 214.915 129.714 222.862 115.231C214.457 96.937 183.528 103.287 179.703 122.256Z" fill="#FDC82E"/>
<path d="M208.61 92.1551C206.051 77.4823 183.448 83.2379 189.779 98.235C194.17 108.611 210.82 103.207 208.61 92.1551Z" fill="#FDC82E"/>
<path d="M194.547 129.58C171.89 126.796 160.224 100.99 173.021 82.0482C185.037 64.403 211.008 64.2409 223.212 81.805C230.136 91.5329 230.486 105.287 224.101 115.366C218.067 125.31 206.078 131.12 194.547 129.58ZM194.924 128.012C208.368 129.661 221.515 121.176 225.637 108.232C230.594 93.1271 222.243 76.6168 207.156 71.7259C194.843 67.6456 181.023 72.5365 173.991 83.4533C174.018 83.4263 174.018 83.3993 174.045 83.3723C162.326 101.45 173.587 125.526 194.924 128.012Z" fill="black"/>
<path d="M197.43 104.963C188.782 103.909 184.579 93.6676 189.94 86.804C196.056 79.0218 208.449 82.2914 209.957 92.0733C211.089 99.3692 204.731 105.935 197.43 104.963ZM198.157 103.422C204.946 103.936 210.146 97.1804 207.991 90.7222C205.377 82.8588 194.789 81.6969 190.533 88.8036C186.842 94.9376 191.018 102.963 198.157 103.422Z" fill="black"/>
<path d="M179.945 121.743C179.676 121.581 179.406 121.473 179.083 121.527C178.948 121.554 178.814 121.581 178.706 121.635C178.652 121.608 178.625 121.554 178.571 121.527C178.625 121.284 178.679 121.067 178.76 120.824C179.056 119.824 179.433 118.852 179.864 117.933C180.807 115.906 181.993 114.015 183.42 112.312C183.663 112.042 183.905 111.772 184.121 111.529C184.498 111.096 184.902 110.691 185.306 110.313C185.522 110.097 185.764 109.88 185.98 109.691C186.115 109.583 186.249 109.448 186.384 109.34C186.411 109.313 186.438 109.286 186.465 109.286C186.573 109.178 186.68 109.097 186.815 108.989C187.273 108.61 187.731 108.259 188.216 107.935C189.213 107.232 190.263 106.611 191.341 106.043C191.476 105.989 191.61 105.908 191.745 105.854C191.772 105.827 191.799 105.827 191.853 105.8C191.988 105.746 192.122 105.665 192.23 105.611C192.5 105.503 192.742 105.368 193.011 105.26C195.086 104.395 197.268 103.8 199.504 103.476C201.821 103.152 204.165 103.179 206.455 103.503C208.718 103.827 210.927 104.476 213.029 105.395C215.157 106.313 217.151 107.556 218.929 109.043C220.653 110.475 222.216 112.15 223.509 113.961C223.616 114.096 223.697 114.231 223.805 114.393C223.913 114.582 223.994 114.771 223.967 114.987C223.94 115.204 223.832 115.393 223.643 115.528C223.32 115.771 222.754 115.717 222.512 115.366C222 114.609 221.461 113.907 220.868 113.204C220.195 112.42 219.468 111.664 218.713 110.988C217.959 110.313 217.151 109.691 216.315 109.097C215.453 108.502 214.564 107.962 213.729 107.529C212.786 107.043 211.816 106.611 210.819 106.259C209.823 105.908 208.799 105.611 207.802 105.395C207.775 105.395 207.775 105.395 207.748 105.395C206.724 105.179 205.674 105.016 204.677 104.935C204.65 104.935 204.623 104.935 204.596 104.935C203.518 104.854 202.468 104.854 201.417 104.908C200.339 104.989 199.289 105.125 198.238 105.314C197.241 105.503 196.271 105.773 195.301 106.097C194.332 106.422 193.389 106.8 192.5 107.232C192.473 107.232 192.473 107.232 192.446 107.259L192.392 107.286C192.365 107.286 192.365 107.313 192.338 107.313H192.311C191.422 107.746 190.587 108.232 189.832 108.718C189.159 109.178 188.485 109.664 187.839 110.178C187.677 110.286 187.542 110.421 187.381 110.556C187.354 110.583 187.327 110.61 187.3 110.61C187.3 110.61 187.3 110.61 187.273 110.61C186.492 111.286 185.764 111.988 185.064 112.772C184.417 113.528 183.798 114.285 183.259 115.042C182.639 115.96 182.073 116.906 181.561 117.879C180.996 118.96 180.538 120.095 180.134 121.257C180.053 121.473 179.999 121.662 179.918 121.878C179.999 121.797 179.972 121.77 179.945 121.743Z" fill="black"/>
<path d="M240.939 145.144C232.237 148.792 178.032 162.195 155.563 168.059C155.455 163.087 154.081 156.169 155.752 151.548C167.31 147.738 224.344 132.876 240.751 128.877C240.939 136.389 240.67 143.631 240.939 145.144Z" fill="#E1CBF1"/>
<path d="M240.859 153.656C240.562 155.818 241.047 170.14 241.047 170.14L155.779 193.973L155.536 176.598C155.563 176.598 215.965 160.196 240.859 153.656Z" fill="#E1CBF1"/>
<path d="M241.101 197.297L155.24 220.59V203.377L241.101 180.732V197.297Z" fill="#5D2B9D"/>
<path d="M154.243 152.549C154.27 152.414 154.27 152.279 154.243 152.144C154.243 152.009 154.243 151.846 154.243 151.711C154.243 151.576 154.243 151.414 154.243 151.279C154.243 151.252 154.243 151.225 154.27 151.171C154.27 151.144 154.297 151.144 154.297 151.117C154.324 151.063 154.378 151.009 154.405 150.928C154.432 150.901 154.459 150.847 154.486 150.82C154.513 150.82 154.513 150.793 154.54 150.793C156.587 150.252 158.608 149.685 160.655 149.144C167.714 147.253 174.772 145.361 181.804 143.47C201.417 138.2 221.03 132.931 240.67 127.662C241.64 127.419 242.152 128.878 241.101 129.202C238.111 130.013 235.093 130.824 232.103 131.607C225.341 133.418 218.578 135.228 211.816 137.066C199.019 140.497 186.222 143.956 173.425 147.388C167.04 149.144 160.628 150.847 154.243 152.549Z" fill="black"/>
<path d="M154.297 168.897C154.055 167.681 155.698 167.79 156.452 167.492C157.476 167.222 158.5 166.952 159.524 166.655C171.89 163.331 184.256 160.007 196.595 156.684C210.496 152.955 224.398 149.199 238.326 145.47C239.458 145.172 240.589 144.875 241.694 144.551V144.578C241.667 144.686 241.667 144.794 241.667 144.902C241.667 145.037 241.694 145.145 241.694 145.28V145.253C241.694 145.388 241.667 145.524 241.667 145.659C241.667 145.713 241.667 145.74 241.64 145.794C241.64 145.821 241.613 145.875 241.613 145.902V145.929C241.613 145.956 241.613 145.956 241.586 145.956C241.559 145.983 241.559 146.01 241.532 146.064C241.505 146.091 241.478 146.145 241.424 146.172C241.398 146.199 241.398 146.226 241.371 146.253C241.074 146.334 240.778 146.415 240.482 146.496C227.065 150.09 213.648 153.711 200.232 157.305C185.98 161.142 171.755 164.952 157.503 168.789C156.749 168.978 155.994 169.195 155.24 169.384C155.186 169.411 155.105 169.411 155.025 169.411C154.728 169.492 154.405 169.249 154.297 168.897Z" fill="black"/>
<path d="M241.64 145.955C241.613 145.955 241.613 145.982 241.64 145.955V145.955Z" fill="black"/>
<path d="M240.131 145.333C240.131 139.712 240.104 134.092 240.131 128.444C240.212 127.877 240.912 127.579 241.37 127.931C241.801 128.201 241.721 128.741 241.721 129.174V144.414C241.694 144.468 241.721 144.549 241.694 144.603C241.667 144.711 241.667 144.819 241.667 144.927C241.667 145.062 241.694 145.17 241.694 145.306V145.279C241.694 145.387 241.694 145.495 241.667 145.603C241.559 145.927 241.236 146.116 240.912 146.116C240.535 146.116 240.131 145.846 240.131 145.333Z" fill="black"/>
<path d="M154.324 168.789C154.162 167.87 154.297 166.924 154.27 165.979V152.549C154.297 152.414 154.297 152.279 154.27 152.143C154.27 152.035 154.27 151.927 154.27 151.792C154.297 151.603 154.405 151.414 154.54 151.279C155.024 150.819 155.887 151.225 155.86 151.873V167.735C155.833 168.059 155.914 168.438 155.806 168.762C155.671 169.086 155.375 169.248 155.078 169.248C154.755 169.275 154.432 169.113 154.324 168.789Z" fill="black"/>
<path d="M154.243 177.733C154.27 177.598 154.27 177.463 154.243 177.328C154.243 177.192 154.243 177.03 154.243 176.895C154.243 176.76 154.243 176.598 154.243 176.463C154.243 176.436 154.243 176.409 154.27 176.355C154.27 176.328 154.297 176.328 154.297 176.301C154.297 176.301 154.297 176.301 154.297 176.328C154.324 176.274 154.378 176.22 154.405 176.139C154.432 176.112 154.459 176.058 154.486 176.031C154.513 176.004 154.513 176.004 154.54 176.004C156.587 175.463 158.608 174.896 160.655 174.355C167.714 172.464 174.772 170.572 181.804 168.681C201.417 163.411 221.03 158.142 240.67 152.873C241.64 152.63 242.152 154.089 241.101 154.413C238.111 155.224 235.093 156.034 232.103 156.818C225.341 158.629 218.578 160.439 211.816 162.276C199.019 165.708 186.222 169.167 173.425 172.599C167.04 174.328 160.628 176.031 154.243 177.733Z" fill="black"/>
<path d="M154.297 194.108C154.055 192.892 155.698 193 156.452 192.703C157.476 192.433 158.5 192.163 159.524 191.866C171.89 188.542 184.256 185.218 196.595 181.895C210.496 178.165 224.398 174.409 238.326 170.68C239.458 170.383 240.589 170.086 241.694 169.762V169.789C241.667 169.897 241.667 170.005 241.667 170.113C241.667 170.248 241.694 170.356 241.694 170.491V170.464C241.694 170.599 241.667 170.735 241.667 170.87V170.843C241.667 170.843 241.667 170.843 241.667 170.87C241.667 170.924 241.667 170.951 241.64 171.005C241.64 171.032 241.613 171.086 241.613 171.113V171.14C241.613 171.14 241.613 171.167 241.586 171.167C241.559 171.194 241.559 171.221 241.532 171.275C241.505 171.302 241.478 171.356 241.424 171.383C241.398 171.41 241.398 171.437 241.371 171.464C241.074 171.545 240.778 171.626 240.482 171.707C227.065 175.301 213.648 178.922 200.232 182.516C185.98 186.353 171.755 190.163 157.503 194C156.749 194.189 155.994 194.406 155.24 194.595C155.186 194.622 155.105 194.622 155.025 194.622C154.728 194.676 154.405 194.46 154.297 194.108Z" fill="black"/>
<path d="M241.64 171.139C241.613 171.139 241.613 171.166 241.64 171.139V171.139Z" fill="black"/>
<path d="M240.131 170.518C240.131 164.898 240.104 159.277 240.131 153.63C240.212 153.062 240.912 152.765 241.37 153.116C241.801 153.386 241.721 153.927 241.721 154.359V169.599C241.694 169.653 241.721 169.735 241.694 169.789C241.667 169.897 241.667 170.005 241.667 170.113C241.667 170.248 241.694 170.356 241.694 170.491V170.464C241.694 170.572 241.694 170.68 241.667 170.788C241.559 171.14 241.236 171.302 240.912 171.302C240.535 171.302 240.131 171.032 240.131 170.518Z" fill="black"/>
<path d="M154.324 193.972C154.162 193.054 154.297 192.108 154.27 191.162V177.732C154.297 177.597 154.297 177.462 154.27 177.327C154.27 177.219 154.27 177.111 154.27 176.976C154.297 176.787 154.405 176.597 154.54 176.462C155.024 176.003 155.887 176.408 155.86 177.057V192.973C155.833 193.297 155.914 193.675 155.806 194C155.671 194.324 155.375 194.486 155.078 194.486C154.755 194.459 154.432 194.297 154.324 193.972Z" fill="black"/>
<path d="M154.243 204.537C154.27 204.402 154.27 204.267 154.243 204.132C154.243 203.997 154.243 203.835 154.243 203.7C154.243 203.565 154.243 203.402 154.243 203.267C154.243 203.24 154.243 203.213 154.27 203.159C154.27 203.132 154.297 203.132 154.297 203.105C154.324 203.051 154.378 202.997 154.405 202.916C154.432 202.889 154.459 202.835 154.486 202.808C154.513 202.808 154.513 202.781 154.54 202.781C156.587 202.24 158.608 201.673 160.655 201.133C167.714 199.241 174.772 197.35 181.804 195.458C201.417 190.189 221.03 184.919 240.67 179.65C241.64 179.407 242.152 180.866 241.101 181.19C238.111 182.001 235.093 182.812 232.103 183.595C225.341 185.406 218.578 187.216 211.816 189.054C199.019 192.486 186.222 195.944 173.425 199.376C167.04 201.106 160.628 202.835 154.243 204.537Z" fill="black"/>
<path d="M154.297 220.886C154.055 219.67 155.698 219.778 156.452 219.481C157.476 219.21 158.5 218.94 159.524 218.643C171.89 215.319 184.256 211.996 196.595 208.672C210.496 204.943 224.398 201.187 238.326 197.458C239.458 197.161 240.589 196.863 241.694 196.539V196.566C241.667 196.674 241.667 196.782 241.667 196.89C241.667 197.025 241.694 197.134 241.694 197.269V197.242C241.694 197.377 241.667 197.512 241.667 197.647V197.62C241.667 197.62 241.667 197.62 241.667 197.647C241.667 197.701 241.667 197.728 241.64 197.782C241.64 197.809 241.613 197.863 241.613 197.89V197.917C241.613 197.944 241.613 197.944 241.586 197.944C241.559 197.971 241.559 197.998 241.532 198.052C241.505 198.079 241.478 198.133 241.424 198.16C241.398 198.187 241.398 198.214 241.371 198.241C241.074 198.322 240.778 198.404 240.482 198.485C227.065 202.079 213.648 205.699 200.232 209.293C185.98 213.13 171.755 216.941 157.503 220.778C156.749 220.967 155.994 221.183 155.24 221.372C155.186 221.399 155.105 221.399 155.025 221.399C154.728 221.48 154.405 221.237 154.297 220.886Z" fill="black"/>
<path d="M240.131 197.323C240.131 191.702 240.104 186.082 240.131 180.434C240.212 179.867 240.912 179.57 241.37 179.921C241.801 180.191 241.721 180.731 241.721 181.164V196.404C241.694 196.458 241.721 196.539 241.694 196.593C241.667 196.701 241.667 196.809 241.667 196.918C241.667 197.053 241.694 197.161 241.694 197.296V197.269C241.694 197.377 241.694 197.485 241.667 197.593C241.559 197.917 241.236 198.106 240.912 198.106C240.535 198.106 240.131 197.836 240.131 197.323Z" fill="black"/>
<path d="M154.324 220.779C154.162 219.86 154.297 218.915 154.27 217.969V204.539C154.297 204.404 154.297 204.269 154.27 204.134C154.27 204.026 154.27 203.918 154.27 203.782C154.297 203.593 154.405 203.404 154.54 203.269C155.024 202.81 155.887 203.215 155.86 203.864V219.725C155.833 220.05 155.914 220.428 155.806 220.752C155.671 221.076 155.375 221.239 155.078 221.239C154.755 221.266 154.432 221.103 154.324 220.779Z" fill="black"/>
<path d="M166.771 159.574C166.313 159.196 165.855 158.818 165.37 158.439C165.451 158.412 165.505 158.412 165.585 158.412C165.855 158.385 166.259 158.358 166.636 158.331C166.852 158.304 167.04 158.25 167.202 158.088C167.337 157.926 167.417 157.737 167.417 157.521C167.417 157.305 167.31 157.115 167.175 156.953C167.04 156.818 166.798 156.71 166.609 156.737C166.555 156.737 166.501 156.737 166.475 156.737C166.097 156.764 165.72 156.791 165.343 156.845C165.289 156.845 165.208 156.872 165.154 156.872C165.424 156.494 165.72 156.116 165.99 155.791C166.178 155.602 166.259 155.305 166.178 155.035C165.963 154.278 165.02 154.278 164.616 154.9C164.4 155.143 164.211 155.413 163.996 155.656C163.969 155.251 163.969 154.846 163.942 154.467C163.915 154.035 163.565 153.684 163.107 153.684C162.676 153.684 162.299 154.062 162.326 154.521C162.353 155.143 162.379 155.791 162.406 156.413C161.948 156.17 161.517 155.845 161.14 155.494C160.79 155.224 160.413 154.791 159.928 154.954C159.524 155.062 159.254 155.521 159.362 155.953C159.443 156.224 159.658 156.413 159.874 156.548C160.359 157.007 160.898 157.359 161.463 157.737C161.302 157.764 161.113 157.818 160.952 157.845C160.655 157.899 160.359 157.98 160.063 158.061C159.982 158.088 159.874 158.115 159.793 158.142C159.685 158.169 159.605 158.196 159.524 158.25C159.416 158.304 159.335 158.385 159.281 158.493C159.227 158.575 159.173 158.656 159.147 158.764C159.093 159.034 159.173 159.277 159.389 159.439C159.416 159.466 159.443 159.493 159.47 159.493C159.578 159.547 159.685 159.601 159.82 159.601C159.847 159.601 159.874 159.601 159.901 159.601C159.955 159.601 160.036 159.601 160.089 159.601C160.197 159.601 160.278 159.574 160.386 159.547C160.601 159.52 160.817 159.466 161.032 159.412C160.898 159.601 160.763 159.763 160.655 159.953C160.332 160.385 159.928 161.034 160.305 161.547C160.574 162.168 161.625 161.844 161.733 161.223C162.002 160.871 162.272 160.493 162.541 160.142C162.568 160.655 162.595 161.169 162.595 161.655C162.622 162.087 162.972 162.439 163.403 162.439H163.43C163.861 162.439 164.238 162.06 164.211 161.601C164.185 161.034 164.158 160.439 164.131 159.872C164.831 160.412 165.559 160.898 166.394 161.169C167.364 161.25 167.687 159.899 166.771 159.574Z" fill="black"/>
<path d="M180.134 156.088C179.676 155.71 179.218 155.331 178.733 154.953C178.814 154.926 178.867 154.926 178.948 154.926C179.218 154.899 179.622 154.872 179.999 154.845C180.214 154.818 180.403 154.764 180.565 154.602C180.699 154.44 180.78 154.251 180.78 154.034C180.78 153.818 180.672 153.629 180.538 153.467C180.403 153.332 180.161 153.224 179.972 153.251C179.918 153.251 179.864 153.251 179.837 153.251C179.46 153.278 179.083 153.305 178.706 153.359C178.652 153.359 178.571 153.386 178.517 153.386C178.814 153.008 179.083 152.629 179.352 152.305C179.541 152.116 179.622 151.819 179.541 151.548C179.325 150.792 178.382 150.792 177.978 151.413C177.763 151.656 177.574 151.927 177.359 152.17C177.332 151.765 177.332 151.359 177.305 150.981C177.278 150.549 176.928 150.197 176.47 150.197C176.039 150.197 175.661 150.576 175.688 151.035C175.715 151.656 175.742 152.278 175.769 152.926C175.311 152.683 174.88 152.359 174.503 152.008C174.153 151.738 173.776 151.305 173.291 151.467C172.886 151.575 172.617 152.035 172.725 152.467C172.806 152.737 173.021 152.926 173.237 153.062C173.722 153.521 174.26 153.872 174.826 154.251C174.665 154.278 174.476 154.332 174.314 154.359C174.018 154.413 173.722 154.494 173.425 154.575C173.344 154.602 173.237 154.629 173.156 154.656C173.048 154.683 172.967 154.71 172.886 154.764C172.779 154.818 172.698 154.899 172.644 155.007C172.59 155.088 172.536 155.169 172.509 155.277C172.455 155.548 172.536 155.791 172.752 155.953C172.779 155.98 172.806 156.007 172.833 156.007C172.94 156.061 173.048 156.115 173.183 156.115C173.21 156.115 173.237 156.115 173.264 156.115C173.318 156.115 173.398 156.115 173.452 156.088C173.56 156.088 173.641 156.061 173.749 156.034C173.964 156.007 174.18 155.953 174.395 155.899C174.26 156.061 174.126 156.25 174.018 156.439C173.695 156.872 173.291 157.52 173.668 158.034C173.937 158.655 174.988 158.331 175.096 157.709C175.365 157.358 175.634 156.98 175.904 156.628C175.931 157.142 175.958 157.655 175.958 158.142C175.985 158.574 176.335 158.925 176.766 158.925H176.793C177.224 158.925 177.601 158.547 177.574 158.088C177.547 157.52 177.52 156.926 177.493 156.358C178.194 156.899 178.921 157.385 179.756 157.655C180.726 157.763 181.05 156.412 180.134 156.088Z" fill="black"/>
<path d="M193.496 152.602C193.038 152.223 192.58 151.845 192.095 151.467C192.176 151.44 192.23 151.44 192.311 151.44C192.58 151.413 192.985 151.386 193.362 151.359C193.577 151.332 193.766 151.278 193.927 151.115C194.062 150.953 194.143 150.764 194.143 150.548C194.143 150.332 194.035 150.143 193.901 149.981C193.766 149.845 193.523 149.737 193.335 149.764C193.281 149.764 193.227 149.764 193.2 149.764C192.823 149.791 192.446 149.818 192.069 149.872C192.015 149.872 191.934 149.9 191.88 149.9C192.176 149.521 192.446 149.143 192.715 148.819C192.904 148.629 192.985 148.332 192.904 148.062C192.688 147.305 191.745 147.305 191.341 147.927C191.126 148.17 190.937 148.44 190.722 148.684C190.695 148.278 190.695 147.9 190.668 147.495C190.641 147.062 190.29 146.711 189.832 146.711C189.401 146.711 189.024 147.089 189.051 147.549C189.078 148.17 189.105 148.819 189.132 149.44C188.674 149.197 188.243 148.873 187.866 148.521C187.516 148.251 187.138 147.819 186.653 147.981C186.249 148.089 185.98 148.548 186.088 148.981C186.168 149.251 186.384 149.44 186.6 149.575C187.084 150.035 187.623 150.386 188.189 150.764C188.027 150.791 187.839 150.845 187.677 150.872C187.381 150.926 187.084 151.007 186.788 151.088C186.707 151.115 186.6 151.143 186.519 151.17C186.411 151.197 186.33 151.224 186.249 151.278C186.142 151.332 186.061 151.413 186.007 151.521C185.953 151.602 185.899 151.683 185.872 151.791C185.818 152.061 185.899 152.304 186.115 152.467C186.142 152.494 186.168 152.521 186.195 152.521C186.303 152.575 186.411 152.629 186.546 152.629C186.573 152.629 186.6 152.629 186.626 152.629C186.68 152.629 186.761 152.629 186.815 152.602C186.923 152.602 187.004 152.575 187.111 152.548C187.327 152.521 187.542 152.467 187.758 152.413C187.623 152.575 187.489 152.764 187.381 152.953C187.058 153.385 186.653 154.034 187.031 154.547C187.327 155.169 188.351 154.844 188.458 154.223C188.728 153.872 188.997 153.493 189.267 153.142C189.294 153.656 189.321 154.169 189.321 154.682C189.348 155.115 189.698 155.466 190.129 155.466H190.156C190.587 155.466 190.964 155.088 190.937 154.628C190.91 154.061 190.883 153.466 190.856 152.899C191.557 153.439 192.284 153.926 193.119 154.196C194.089 154.304 194.385 152.926 193.496 152.602Z" fill="black"/>
<path d="M166.771 184.516C166.313 184.137 165.855 183.759 165.37 183.381C165.451 183.354 165.505 183.354 165.586 183.354C165.855 183.327 166.259 183.3 166.636 183.273C166.852 183.246 167.04 183.192 167.202 183.03C167.337 182.867 167.418 182.678 167.418 182.462C167.418 182.246 167.31 182.057 167.175 181.895C167.04 181.76 166.798 181.651 166.609 181.678C166.555 181.678 166.502 181.678 166.475 181.678C166.097 181.705 165.72 181.732 165.343 181.787C165.289 181.787 165.208 181.814 165.154 181.814C165.424 181.435 165.72 181.057 165.99 180.733C166.178 180.544 166.259 180.246 166.178 179.976C165.963 179.219 165.02 179.219 164.616 179.841C164.4 180.084 164.212 180.354 163.996 180.598C163.969 180.192 163.969 179.787 163.942 179.409C163.915 178.976 163.565 178.625 163.107 178.625C162.676 178.625 162.299 179.003 162.326 179.463C162.353 180.084 162.38 180.733 162.406 181.354C161.948 181.111 161.517 180.787 161.14 180.435C160.79 180.165 160.413 179.733 159.928 179.895C159.524 180.003 159.254 180.462 159.362 180.895C159.443 181.165 159.658 181.354 159.874 181.489C160.359 181.949 160.898 182.3 161.437 182.651C161.275 182.678 161.113 182.732 160.925 182.759C160.628 182.813 160.332 182.894 160.036 182.975C159.955 183.003 159.847 183.03 159.766 183.057C159.658 183.084 159.578 183.111 159.497 183.165C159.389 183.219 159.308 183.3 159.254 183.408C159.201 183.489 159.147 183.57 159.12 183.678C159.066 183.948 159.147 184.191 159.362 184.354C159.389 184.381 159.416 184.408 159.443 184.408C159.551 184.462 159.659 184.516 159.793 184.516C159.82 184.516 159.847 184.516 159.874 184.516C159.928 184.516 160.009 184.516 160.063 184.516C160.17 184.516 160.251 184.489 160.359 184.462C160.574 184.435 160.79 184.381 161.006 184.327C160.871 184.516 160.736 184.678 160.628 184.867C160.305 185.299 159.901 185.948 160.278 186.461C160.548 187.083 161.598 186.759 161.706 186.137C161.975 185.786 162.245 185.407 162.514 185.056C162.541 185.57 162.568 186.083 162.568 186.569C162.595 187.002 162.945 187.353 163.376 187.353H163.403C163.834 187.353 164.212 186.975 164.185 186.515C164.158 185.948 164.131 185.353 164.104 184.786C164.804 185.326 165.532 185.813 166.367 186.083C167.364 186.191 167.687 184.813 166.771 184.516Z" fill="black"/>
<path d="M180.133 181.029C179.675 180.651 179.217 180.273 178.733 179.894C178.813 179.867 178.867 179.867 178.948 179.867C179.217 179.84 179.622 179.813 179.999 179.786C180.214 179.759 180.403 179.705 180.565 179.543C180.699 179.381 180.78 179.192 180.78 178.976C180.78 178.76 180.672 178.57 180.538 178.408C180.403 178.273 180.16 178.165 179.972 178.192C179.918 178.192 179.864 178.192 179.837 178.192C179.46 178.219 179.083 178.246 178.706 178.3C178.652 178.3 178.571 178.327 178.517 178.327C178.786 177.949 179.083 177.571 179.352 177.246C179.541 177.057 179.622 176.76 179.541 176.49C179.325 175.733 178.382 175.733 177.978 176.355C177.763 176.598 177.574 176.868 177.359 177.111C177.332 176.706 177.332 176.301 177.305 175.922C177.278 175.49 176.927 175.139 176.469 175.139C176.038 175.139 175.661 175.517 175.688 175.976C175.715 176.598 175.742 177.246 175.769 177.868C175.311 177.625 174.88 177.3 174.503 176.949C174.153 176.679 173.775 176.247 173.29 176.409C172.886 176.517 172.617 176.976 172.725 177.409C172.806 177.679 173.021 177.868 173.237 178.003C173.722 178.462 174.26 178.814 174.799 179.165C174.638 179.192 174.476 179.246 174.287 179.273C173.991 179.327 173.695 179.408 173.398 179.489C173.317 179.516 173.21 179.543 173.129 179.57C173.021 179.597 172.94 179.624 172.859 179.678C172.752 179.732 172.671 179.813 172.617 179.922C172.563 180.003 172.509 180.084 172.482 180.192C172.428 180.462 172.509 180.705 172.725 180.867C172.752 180.894 172.779 180.921 172.806 180.921C172.913 180.975 173.021 181.029 173.156 181.029C173.183 181.029 173.21 181.029 173.237 181.029C173.29 181.029 173.371 181.029 173.425 181.002C173.533 181.002 173.614 180.975 173.722 180.948C173.937 180.921 174.153 180.867 174.368 180.813C174.233 181.002 174.099 181.165 173.991 181.354C173.668 181.786 173.264 182.435 173.641 182.948C173.91 183.569 174.961 183.245 175.069 182.624C175.338 182.272 175.607 181.894 175.877 181.543C175.904 182.056 175.931 182.57 175.931 183.056C175.958 183.488 176.308 183.84 176.739 183.84H176.766C177.197 183.84 177.574 183.461 177.547 183.002C177.52 182.435 177.493 181.84 177.466 181.273C178.167 181.813 178.894 182.299 179.729 182.57C180.726 182.705 181.049 181.327 180.133 181.029Z" fill="black"/>
<path d="M193.496 177.543C193.038 177.165 192.58 176.786 192.095 176.408C192.176 176.381 192.23 176.381 192.311 176.381C192.58 176.354 192.984 176.327 193.362 176.3C193.577 176.273 193.766 176.219 193.927 176.057C194.062 175.895 194.143 175.706 194.143 175.489C194.143 175.273 194.035 175.084 193.9 174.922C193.766 174.787 193.523 174.679 193.335 174.706C193.281 174.706 193.227 174.706 193.2 174.706C192.823 174.733 192.446 174.76 192.068 174.814C192.015 174.814 191.934 174.841 191.88 174.841C192.149 174.463 192.446 174.084 192.715 173.76C192.904 173.571 192.984 173.274 192.904 173.003C192.688 172.247 191.745 172.247 191.341 172.868C191.125 173.112 190.937 173.382 190.721 173.625C190.694 173.22 190.694 172.841 190.667 172.436C190.641 172.004 190.29 171.652 189.832 171.652C189.401 171.652 189.024 172.031 189.051 172.49C189.078 173.112 189.105 173.76 189.132 174.382C188.674 174.138 188.243 173.814 187.866 173.463C187.515 173.193 187.138 172.76 186.653 172.922C186.249 173.03 185.98 173.49 186.087 173.922C186.168 174.192 186.384 174.382 186.599 174.517C187.084 174.976 187.623 175.327 188.162 175.679C188 175.706 187.839 175.76 187.65 175.787C187.354 175.841 187.057 175.922 186.761 176.003C186.68 176.03 186.572 176.057 186.492 176.084C186.384 176.111 186.303 176.138 186.222 176.192C186.114 176.246 186.034 176.327 185.98 176.435C185.926 176.516 185.872 176.597 185.845 176.705C185.791 176.976 185.872 177.219 186.087 177.381C186.114 177.408 186.141 177.435 186.168 177.435C186.276 177.489 186.384 177.543 186.519 177.543C186.545 177.543 186.572 177.543 186.599 177.543C186.653 177.543 186.734 177.543 186.788 177.516C186.896 177.516 186.977 177.489 187.084 177.462C187.3 177.435 187.515 177.381 187.731 177.327C187.596 177.516 187.461 177.678 187.354 177.867C187.03 178.3 186.626 178.948 187.003 179.462C187.3 180.083 188.324 179.759 188.431 179.137C188.701 178.786 188.97 178.408 189.24 178.057C189.267 178.57 189.293 179.083 189.293 179.57C189.32 180.002 189.671 180.353 190.102 180.353H190.129C190.56 180.353 190.937 179.975 190.91 179.516C190.883 178.948 190.856 178.354 190.829 177.786C191.53 178.327 192.257 178.813 193.092 179.083C194.089 179.218 194.385 177.867 193.496 177.543Z" fill="black"/>
<path d="M207.398 174.057C206.94 173.678 206.482 173.3 205.997 172.922C206.078 172.895 206.132 172.895 206.212 172.895C206.482 172.868 206.886 172.841 207.263 172.814C207.479 172.787 207.667 172.733 207.829 172.571C207.964 172.408 208.044 172.219 208.044 172.003C208.044 171.787 207.937 171.598 207.802 171.436C207.667 171.301 207.425 171.192 207.236 171.219C207.182 171.219 207.128 171.219 207.101 171.219C206.724 171.246 206.347 171.274 205.97 171.328C205.916 171.328 205.835 171.355 205.781 171.355C206.051 170.976 206.347 170.598 206.617 170.274C206.805 170.085 206.886 169.787 206.805 169.517C206.59 168.76 205.647 168.76 205.243 169.382C205.027 169.625 204.838 169.895 204.623 170.139C204.596 169.733 204.596 169.328 204.569 168.95C204.542 168.517 204.192 168.166 203.734 168.166C203.303 168.166 202.926 168.544 202.953 169.004C202.979 169.625 203.006 170.274 203.033 170.895C202.575 170.652 202.144 170.328 201.767 169.976C201.417 169.706 201.04 169.274 200.555 169.436C200.151 169.544 199.881 170.003 199.989 170.436C200.07 170.706 200.285 170.895 200.501 171.03C200.986 171.49 201.525 171.841 202.09 172.219C201.929 172.246 201.74 172.3 201.579 172.327C201.282 172.381 200.986 172.462 200.689 172.544C200.609 172.571 200.501 172.598 200.42 172.625C200.312 172.652 200.231 172.679 200.151 172.733C200.043 172.787 199.962 172.868 199.908 172.976C199.854 173.057 199.8 173.138 199.773 173.246C199.72 173.516 199.8 173.76 200.016 173.922C200.043 173.949 200.07 173.976 200.097 173.976C200.205 174.03 200.312 174.084 200.447 174.084C200.474 174.084 200.501 174.084 200.528 174.084C200.582 174.084 200.663 174.084 200.716 174.084C200.824 174.084 200.905 174.057 201.013 174.03C201.228 174.003 201.444 173.949 201.659 173.895C201.525 174.084 201.39 174.246 201.282 174.435C200.959 174.867 200.555 175.516 200.932 176.029C201.228 176.651 202.252 176.327 202.36 175.705C202.629 175.354 202.899 174.975 203.168 174.624C203.195 175.138 203.222 175.651 203.222 176.137C203.249 176.57 203.599 176.921 204.03 176.921C204.03 176.921 204.03 176.921 204.057 176.921C204.488 176.921 204.865 176.543 204.838 176.083C204.811 175.516 204.785 174.921 204.758 174.354C205.458 174.894 206.185 175.381 207.021 175.651C207.991 175.732 208.287 174.381 207.398 174.057Z" fill="black"/>
<path d="M223.428 169.762C222.97 169.384 222.512 169.005 222.027 168.627C222.108 168.6 222.162 168.6 222.242 168.6C222.512 168.573 222.916 168.546 223.293 168.519C223.509 168.492 223.697 168.438 223.859 168.276C223.994 168.114 224.074 167.924 224.074 167.708C224.074 167.492 223.967 167.303 223.832 167.141C223.697 167.006 223.455 166.898 223.266 166.925C223.212 166.925 223.158 166.925 223.131 166.925C222.754 166.952 222.377 166.979 222 167.033C221.946 167.033 221.865 167.06 221.811 167.06C222.081 166.681 222.377 166.303 222.647 165.979C222.835 165.79 222.916 165.492 222.835 165.222C222.62 164.466 221.677 164.466 221.273 165.087C221.057 165.33 220.868 165.6 220.653 165.844C220.626 165.438 220.626 165.06 220.599 164.655C220.572 164.222 220.222 163.871 219.764 163.871C219.333 163.871 218.956 164.249 218.983 164.709C219.01 165.33 219.036 165.979 219.063 166.6C218.605 166.357 218.174 166.033 217.797 165.682C217.447 165.411 217.07 164.979 216.585 165.141C216.181 165.249 215.911 165.709 216.019 166.141C216.1 166.411 216.315 166.6 216.531 166.735C217.016 167.195 217.555 167.546 218.12 167.924C217.959 167.951 217.77 168.005 217.609 168.032C217.312 168.086 217.016 168.168 216.72 168.249C216.639 168.276 216.531 168.303 216.45 168.33C216.342 168.357 216.262 168.384 216.181 168.438C216.073 168.492 215.992 168.573 215.938 168.681C215.884 168.762 215.83 168.843 215.804 168.951C215.75 169.221 215.83 169.465 216.046 169.627C216.073 169.654 216.1 169.681 216.127 169.681C216.235 169.735 216.342 169.789 216.477 169.789C216.504 169.789 216.531 169.789 216.558 169.789C216.612 169.789 216.693 169.789 216.746 169.762C216.854 169.762 216.935 169.735 217.043 169.708C217.258 169.681 217.474 169.627 217.689 169.573C217.555 169.762 217.42 169.924 217.312 170.113C216.989 170.545 216.585 171.194 216.962 171.707C217.258 172.329 218.282 172.005 218.39 171.383C218.659 171.032 218.929 170.654 219.198 170.302C219.225 170.816 219.252 171.329 219.252 171.816C219.279 172.248 219.629 172.599 220.06 172.599C220.06 172.599 220.06 172.599 220.087 172.599C220.518 172.599 220.895 172.221 220.868 171.761C220.842 171.194 220.815 170.6 220.788 170.032C221.488 170.572 222.215 171.059 223.051 171.329C224.021 171.437 224.317 170.086 223.428 169.762Z" fill="black"/>
<path d="M118.439 53.7296C118.412 53.7026 118.358 53.6756 118.331 53.7026C118.304 53.7296 118.277 53.7837 118.304 53.8107C118.331 53.8377 118.385 53.8647 118.412 53.8377C118.466 53.8107 118.466 53.7566 118.439 53.7296Z" fill="black"/>
<path d="M264.971 203.536C264.836 200.78 264.729 197.997 264.594 195.241C264.432 191.728 264.271 188.188 264.109 184.675C263.947 181 263.786 177.325 263.597 173.65C263.57 172.894 263.543 172.137 263.489 171.354C263.678 171.435 263.866 171.516 264.082 171.57C264.217 171.624 264.378 171.651 264.513 171.678C264.594 171.678 264.675 171.705 264.729 171.705C264.863 171.705 264.998 171.678 265.106 171.651C265.16 172.569 265.187 173.488 265.24 174.407C265.402 178.055 265.564 181.703 265.752 185.351C265.914 188.837 266.076 192.349 266.237 195.835C266.345 198.348 266.453 200.888 266.587 203.401C266.587 203.618 266.534 203.834 266.399 203.996C266.264 204.158 266.049 204.266 265.833 204.266C265.806 204.266 265.779 204.266 265.779 204.266C265.375 204.293 264.971 203.969 264.971 203.536Z" fill="black"/>
<path d="M355.978 72.5358C358.78 78.5887 355.304 85.4252 352.503 90.8836C349.404 95.9637 342.885 98.9091 341.187 104.827C340.325 107.043 337.2 104.097 335.961 103.395C332.458 101.044 334.156 95.8827 331.489 93.2075C327.798 90.7755 327.69 96.1799 326.72 98.5038C324.322 99.9359 325.966 91.289 325.157 89.8028C324.268 86.7763 320.2 85.3442 317.425 86.7493C315.028 87.9653 309.612 87.614 313.707 84.3984C315.755 77.2376 310.313 81.2098 306.353 80.9126C302.662 80.0209 301.746 82.1826 300.803 85.5333C300.91 86.1548 300.318 86.6412 299.698 86.4791C293.798 86.2899 289.272 80.4262 288.814 74.8057C289.838 62.1325 301.53 53.2153 313.654 50.9995C323.056 50.6482 329.091 50.7563 335.53 58.3224C338.817 62.9701 345.175 61.4569 349.351 63.9429C352.449 66.3749 355.574 68.2394 355.978 72.5358Z" fill="#3F3D56"/>
<path d="M358.403 241.772C342.4 240.475 314.139 237.259 286.659 227.423C284.881 225.586 285.15 221.37 284.8 218.911C286.12 203.563 292.801 216.75 293.178 204.13C293.178 204.157 293.178 204.184 293.178 204.211C293.367 202.941 293.825 201.725 293.96 200.428C293.96 200.482 293.933 200.536 293.933 200.591C294.552 197.807 294.903 194.997 295.388 192.187C295.388 192.214 295.388 192.214 295.388 192.241C295.388 192.214 295.414 192.16 295.414 192.133V192.16C295.414 192.133 295.414 192.106 295.441 192.106V192.133C295.441 192.133 295.441 192.133 295.441 192.106V192.133L295.468 191.971C295.468 191.998 295.441 192.052 295.441 192.079C303.497 174.082 293.987 189.458 276.906 194.538C268.716 196.97 261.145 185.674 255.138 179.946C241.667 178.676 252.39 184.594 258.505 190.052C274.562 215.561 222.889 179.432 213.514 173.055C205.674 167.732 219.656 160.49 219.656 160.49C227.846 164.814 244.065 173.569 258.155 172.812C267.315 172.326 277.58 165.543 289.757 156.248C296.573 151.654 303.2 145.196 311.633 144.223C315.27 141.71 319.904 117.688 323.918 128.118C331.623 121.498 343.801 113.094 345.228 115.202C347.572 116.661 349.216 121.957 351.048 128.037C356.867 131.253 362.821 135.468 367.212 140.602C383.135 156.194 375.753 180.54 375.86 200.32C372.681 216.02 382.515 244.15 358.403 241.772Z" fill="#FDC82E"/>
<path d="M292.316 193.16C292.343 193.16 292.343 193.16 292.37 193.187C292.343 193.16 292.316 193.16 292.316 193.16Z" fill="#FDC82E"/>
<path d="M292.343 205.969C292.343 205.969 265.645 187.135 255.973 181.001C253.333 179.352 246.517 180.001 246.517 180.001C247.082 181.082 250.342 183.189 253.602 186.216C255.057 187.459 257.374 191.08 257.724 187.162C257.482 189.81 260.445 190.188 261.55 192.134C264.513 190.296 266.318 193.187 269.309 194.809C276.475 199.186 282.887 211.157 291.939 210.157L292.343 205.969Z" fill="#3F3D56"/>
<path d="M302.635 233.396C303.389 238.26 302.904 242.665 302.743 245.313C299.079 248.88 291.293 253.662 286.497 258.58C286.497 258.58 285.931 235.207 289.218 228.451C293.367 230.991 302.635 233.396 302.635 233.396Z" fill="#5D2B9D"/>
<path d="M323.864 135.74C328.148 137.064 324.161 141.063 322.733 143.117C317.533 156.412 312.791 169.193 310.313 183.298C307.834 191.594 306.864 201.052 305.329 208.915C301.719 209.672 292.667 210.077 292.667 210.077C296.223 191.702 300.991 172.76 307.538 155.277C311.768 148.521 312.172 131.173 323.864 135.74Z" fill="#5D2B9D"/>
<path d="M340.864 113.933C344.097 117.311 332.862 118.338 330.438 122.067C328.282 123.067 324.376 128.417 323.406 127.012C318.772 112.312 312.037 136.875 301.261 111.69C290.888 113.663 300.533 102.584 300.506 98.0444C300.075 93.0184 299.644 87.9923 302.069 83.3986C302.662 82.615 303.416 79.3724 304.655 81.1828C308.804 83.4527 317.829 75.8866 311.552 85.8306C310.555 89.6406 319.958 84.9929 322.894 87.8842C326.558 90.6675 323.002 96.3691 326.612 99.1793C329.279 87.1006 331.677 92.9914 333.913 101.638C341.861 105.638 339.948 108.961 340.864 113.933Z" fill="#9E616A"/>
<path d="M263.031 196.863C263.139 197.052 263.247 197.214 263.327 197.403C263.301 197.214 263.139 197.052 263.031 196.863ZM287.871 210.211C284.53 216.697 284.826 220.804 284.665 225.317C277.929 218.48 275.208 218.642 264.567 204.105C263.112 202.132 254.787 186.297 258.801 187.081C260.175 188.918 261.522 192.161 261.9 192.566C265.564 187.27 283.129 209.077 287.871 210.211Z" fill="#9E616A"/>
<path d="M187.192 162.437C187.219 162.464 187.246 162.464 187.246 162.491C187.192 162.437 187.138 162.356 187.111 162.302C187.084 162.302 187.057 162.302 187.031 162.302C187.084 162.356 187.138 162.41 187.192 162.437ZM217.393 159.356C217.851 159.654 218.498 159.951 218.498 160.599C218.309 161.545 217.501 162.221 217.016 163.004C216.154 164.328 215.588 165.842 214.915 167.274C214.376 168.301 214.16 169.462 213.918 170.597C213.837 171.327 213.379 172.111 212.517 171.759C212.113 171.597 211.735 171.219 211.277 171.192C210.173 171.084 209.149 171.543 208.045 171.462C206.886 171.435 205.782 171.003 204.704 170.57C203.303 170.03 202.01 169.273 200.824 168.355C198.858 167.058 196.756 165.923 194.385 165.706C193.577 165.598 192.769 165.49 191.961 165.409C190.371 165.382 188.674 165.328 187.273 164.49C186.33 163.869 184.956 162.95 185.441 161.653C185.764 160.87 186.761 160.897 187.408 161.248C188.162 160.951 189.024 160.978 189.832 161.167C190.533 161.194 191.206 161.302 191.88 161.491C192.042 161.518 192.149 161.626 192.257 161.734C193.712 161.896 195.194 161.815 196.648 161.788C195.248 160.626 193.523 159.951 191.907 159.14C190.748 158.6 189.482 158.302 188.297 157.789C187.354 157.411 186.68 156.627 186.115 155.816C185.71 155.276 185.145 154.411 185.845 153.871C186.599 153.33 187.462 154.195 188.189 154.465C189.213 154.979 190.21 155.519 191.179 156.087C191.88 156.411 192.607 156.708 193.389 156.897C194.709 157.113 196.002 157.086 197.322 157.113C194.574 155.357 191.503 154.195 188.674 152.601C188 152.141 187.273 151.547 187.165 150.709C187.004 149.331 188.108 148.791 189.321 149.088C191.206 149.737 193.2 150.196 194.978 151.115C196.568 152.006 197.969 153.222 199.45 154.303C197.969 152.709 196.11 151.52 194.466 150.061C193.712 149.304 193.011 148.494 192.257 147.764C191.664 147.142 190.29 146.197 191.53 145.44C192.095 145.197 192.58 145.764 193.146 145.845C193.766 145.981 194.412 146.062 195.032 146.251C195.759 146.44 196.487 146.791 197.268 146.764C196.918 146.035 196.648 144.819 197.78 144.711C198.049 144.683 198.292 144.819 198.507 144.954C199.154 145.413 199.801 145.845 200.447 146.305C203.06 147.953 205.458 149.872 207.856 151.79C208.61 152.331 209.284 152.952 209.984 153.601C211.87 155.222 213.864 156.735 215.804 158.248C216.396 158.681 216.827 159.005 217.393 159.356Z" fill="#9E616A"/>
<path d="M303.389 79.9121C303.416 79.9121 303.416 79.9391 303.443 79.9391C303.443 79.9391 303.416 79.9121 303.389 79.9121Z" fill="black"/>
<path d="M303.362 79.8848C303.389 79.9118 303.416 79.9118 303.443 79.9388C303.416 79.9388 303.389 79.9118 303.362 79.8848Z" fill="black"/>
<path d="M343.45 115.066C343.208 115.066 342.965 114.985 342.777 114.85C343.127 114.823 343.504 114.796 343.854 114.742C344.151 114.715 344.42 114.661 344.69 114.58C344.366 114.877 343.989 115.066 343.45 115.066Z" fill="black"/>
<path d="M285.904 259.337C285.743 259.337 285.554 259.201 285.446 259.093C285.258 258.904 285.177 258.634 285.177 258.364V257.391C285.177 256.31 285.177 255.256 285.177 254.175C285.177 253.041 285.177 251.906 285.177 250.771C285.204 249.582 285.258 248.366 285.311 247.177C285.446 244.772 285.662 242.367 285.958 239.962C286.227 237.665 286.551 235.341 286.901 233.044C287.063 231.964 287.224 230.91 287.386 229.829C287.521 228.91 287.682 227.991 287.844 227.1C287.898 227.1 287.925 227.127 287.979 227.127C288.059 227.154 288.167 227.208 288.248 227.235C288.302 227.262 288.356 227.262 288.41 227.289C288.437 227.289 288.437 227.289 288.437 227.289C288.598 227.37 288.76 227.424 288.922 227.505C289.002 227.532 289.083 227.559 289.164 227.586C289.218 227.586 289.272 227.613 289.326 227.613C289.191 228.343 289.083 229.099 288.975 229.829C288.787 231.072 288.625 232.315 288.437 233.558C288.275 234.585 288.14 235.638 287.979 236.665C287.844 237.665 287.709 238.692 287.601 239.692C287.359 241.854 287.143 244.015 286.982 246.177C286.901 247.366 286.847 248.555 286.793 249.744C286.766 250.879 286.766 252.041 286.766 253.203C286.766 254.365 286.793 255.499 286.793 256.634C286.793 257.04 286.793 257.472 286.793 257.904C286.793 258.256 286.847 258.688 286.605 258.985C286.578 259.012 286.551 259.066 286.497 259.093C286.362 259.256 286.174 259.337 285.985 259.337C285.958 259.337 285.958 259.337 285.904 259.337Z" fill="black"/>
<path d="M285.797 259.067C285.419 258.797 285.581 258.338 285.985 258.203C286.524 257.986 287.036 257.689 287.521 257.365C289.703 255.663 291.966 253.852 294.014 251.988C296.007 250.231 297.92 248.502 299.941 246.772C300.372 246.448 300.776 246.097 301.153 245.719C301.584 245.259 302.177 244.719 302.769 245.259C303.335 245.881 302.769 246.475 302.284 246.88C301.692 247.475 300.991 247.988 300.372 248.529C299.456 249.393 298.486 250.177 297.516 250.988C295.441 252.906 293.313 254.717 291.104 256.419C289.865 257.23 287.197 259.824 285.797 259.067Z" fill="black"/>
<path d="M301.772 245.637C301.746 242.961 301.88 240.313 302.096 237.665C302.15 235.666 302.311 233.666 302.5 231.693C302.527 231.693 302.581 231.72 302.608 231.72C302.635 231.72 302.662 231.72 302.688 231.72H302.715C302.769 231.747 302.823 231.747 302.904 231.774C302.904 231.774 302.904 231.774 302.877 231.774C302.931 231.774 302.985 231.801 303.066 231.828C303.12 231.828 303.173 231.855 303.227 231.855H303.254C303.281 231.855 303.281 231.855 303.308 231.883C303.362 231.91 303.389 231.91 303.443 231.937C303.497 231.937 303.551 231.964 303.604 231.964C303.631 231.964 303.685 231.964 303.712 231.991C303.739 231.991 303.766 231.991 303.793 232.018C303.82 232.018 303.847 232.045 303.901 232.045C303.928 232.045 303.955 232.072 303.982 232.072C304.009 232.072 304.062 232.099 304.089 232.099C303.901 234.044 303.766 235.963 303.712 237.908C303.497 240.475 303.389 243.07 303.416 245.664C303.416 246.177 302.985 246.474 302.581 246.474C302.15 246.42 301.799 246.177 301.772 245.637Z" fill="black"/>
<path d="M303.712 221.019C303.712 221.019 303.712 220.992 303.712 220.965C303.766 220.992 303.847 220.992 303.901 221.019C303.82 221.046 303.766 221.019 303.712 221.019Z" fill="black"/>
<path d="M199.181 154.222C197.161 153.168 195.436 151.492 193.685 150.06C192.931 149.439 192.23 148.79 191.584 148.061C190.91 147.358 189.994 146.52 190.183 145.439C190.317 144.872 190.91 144.602 191.449 144.629C192.123 144.629 192.769 144.899 193.389 145.115C193.981 145.466 197.619 146.196 197.376 146.872C197.322 146.98 197.214 146.98 197.107 146.98C196.999 147.007 196.837 147.007 196.81 146.845C196.002 146.682 195.194 146.628 194.386 146.493C193.47 146.385 192.581 146.007 191.665 146.007C193.092 147.98 195.14 149.358 197.026 150.817C197.942 151.654 199.073 152.195 199.962 153.06C200.42 153.681 199.855 154.465 199.181 154.222Z" fill="black"/>
<path d="M197.214 156.6C196.325 156.33 195.463 155.898 194.574 155.573C192.742 154.871 190.829 154.222 189.186 153.141C187.812 152.169 185.764 150.466 186.68 148.602C187.273 147.71 188.405 147.629 189.347 147.872C191.341 148.196 193.065 149.304 194.79 150.304C196.46 151.331 198.319 152.196 199.801 153.493C199.962 153.709 199.612 153.952 199.477 153.709C198.4 153.114 197.214 152.736 196.083 152.277C194.412 151.601 192.823 150.79 191.206 150.007C190.398 149.656 189.536 149.466 188.647 149.304C188.351 149.25 188 149.25 187.785 149.466C187.731 151.709 191.961 153.493 193.712 154.222C195.005 154.763 196.352 155.141 197.591 155.79C197.996 156.033 197.672 156.708 197.214 156.6Z" fill="black"/>
<path d="M195.329 161.815C194.197 161.409 193.092 160.896 192.015 160.41C189.913 159.545 187.731 158.626 186.007 157.113C183.879 155.302 184.66 152.979 187.543 153.789C189.401 154.357 191.18 155.14 193.039 155.735C194.278 156.14 195.517 156.735 196.837 156.762C196.81 156.491 196.622 156.221 196.352 156.14C196.218 156.194 196.11 156.032 196.191 155.924C196.271 155.816 196.46 155.87 196.568 155.897C197.538 156.167 198.4 157.275 197.161 157.87C196.083 158.221 194.924 157.843 193.874 157.545C192.985 157.275 192.069 156.978 191.18 156.681C190.264 156.356 189.348 156.059 188.432 155.681C187.704 155.411 186.923 155.059 186.142 155.14C186.977 157.41 192.203 159.004 194.386 160.004C194.871 160.22 195.409 160.356 195.84 160.653C196.406 161.031 195.975 162.004 195.329 161.815Z" fill="black"/>
<path d="M271.437 196.267C271.14 196.078 271.221 195.889 271.437 195.727C271.437 195.727 271.437 195.727 271.464 195.754C271.491 195.781 271.545 195.835 271.571 195.862C271.625 195.916 271.706 195.997 271.787 196.051C271.814 196.078 271.841 196.105 271.868 196.132C271.868 196.132 271.868 196.132 271.841 196.132C271.895 196.186 271.976 196.24 272.03 196.294C271.949 196.294 271.895 196.294 271.814 196.294C271.679 196.267 271.545 196.267 271.437 196.267Z" fill="black"/>
<path d="M275.99 195.24C275.936 195.186 275.855 195.132 275.801 195.105C275.775 195.078 275.721 195.051 275.694 195.024C275.505 194.889 275.343 194.754 275.155 194.646C275.047 194.565 274.939 194.511 274.832 194.43C275.64 194.132 276.448 193.835 277.256 193.565C281.055 192.214 284.557 190.16 288.087 188.269C290.35 186.972 292.774 185.945 294.903 184.405C295.684 183.891 296.492 183.405 297.139 182.729C297.839 182.108 298.809 183.053 298.216 183.783C295.765 186.215 292.532 187.593 289.568 189.241C285.527 191.376 281.513 193.754 277.095 194.997C276.744 195.078 276.421 195.186 276.071 195.294C276.044 195.294 276.017 195.267 275.99 195.24Z" fill="black"/>
<path d="M273.969 194.727C274.023 194.754 274.077 194.781 274.104 194.808C274.05 194.781 274.023 194.754 273.969 194.727Z" fill="black"/>
<path d="M213.406 173.056C212.678 172.597 213.594 170.381 213.702 169.597C214.43 166.219 216.288 163.247 218.336 160.518C218.74 160.086 219.117 159.41 219.791 159.491C220.06 159.545 220.276 159.707 220.383 159.95C220.626 160.518 220.114 160.923 219.764 161.274C219.306 161.815 218.902 162.355 218.498 162.95C216.854 165.247 215.507 167.706 214.726 170.435C214.51 171.137 214.187 171.894 214.052 172.57C214.052 172.921 213.756 173.272 213.406 173.056Z" fill="black"/>
<path d="M291.589 205.914C291.616 205.941 291.643 205.941 291.67 205.968C291.589 205.914 291.589 205.914 291.589 205.914Z" fill="black"/>
<path d="M287.44 34.8945C287.467 34.9486 287.494 35.0026 287.548 35.0567C287.548 35.0837 287.521 35.0837 287.521 35.0837C287.494 35.0567 287.467 34.9756 287.44 34.8945Z" fill="black"/>
<path d="M312.549 89.1535C311.606 88.8293 310.609 88.5861 309.585 88.5861C307.699 88.5591 305.625 88.6401 304.009 89.667C303.793 89.8291 303.551 89.9372 303.389 90.1804C303.146 90.5857 303.308 91.1532 303.739 91.3423C304.386 91.6125 304.763 90.964 305.356 90.7478C307.538 90.0182 310.016 89.9372 312.199 90.7208C312.63 90.8019 313.061 90.4776 313.115 90.0453C313.169 89.6399 312.926 89.2887 312.549 89.1535Z" fill="black"/>
<path d="M306.218 95.9898C305.194 96.2601 304.17 96.7464 303.47 97.5571C303.2 97.8273 303.039 98.4488 303.524 98.5839C304.009 98.665 304.467 98.3407 304.898 98.1786C305.706 97.7733 306.568 97.5031 307.457 97.3409C308.077 97.2328 308.696 97.1788 309.289 97.2869C309.612 97.395 309.989 97.449 310.259 97.2328C310.636 96.9626 310.69 96.3681 310.367 96.0439C309.262 95.2873 307.484 95.6926 306.218 95.9898Z" fill="black"/>
<path d="M392.375 119.12C388.738 116.958 385.99 112.932 386.206 108.609C386.313 107.636 386.394 105.528 387.795 105.825C388.981 106.339 387.607 110.284 388.846 112.148C391.136 117.904 398.976 120.985 404.256 117.472C409.833 117.391 400.458 124.254 392.375 119.12Z" fill="black"/>
<path d="M392.833 126.012C392.106 125.714 391.486 125.201 390.813 124.823C390.355 124.579 390.355 124.579 390.813 124.823C386.637 121.553 382.407 117.527 381.329 112.095C380.602 108.718 380.79 104.448 383.889 102.313C386.475 100.125 391.001 100.017 393.022 102.989C394.827 105.448 394.854 108.528 396.12 111.204C401.158 117.581 404.579 106.421 403.259 102.205C402.478 99.4761 400.754 97.1523 398.949 95.0176C394.315 90.667 387.768 90.2077 382.003 92.2343C376.103 94.6663 372.6 100.881 371.523 106.961C371.065 110.015 371.199 113.23 372.385 116.122C372.789 118.256 370.283 117.878 370.122 115.959C367.185 106.556 371.738 94.8284 380.683 90.5319C388.415 87.3163 398.437 89.0728 402.828 96.7199C406.438 101.476 406.6 108.907 402.667 113.473C400.404 116.013 396.012 115.446 394.45 112.42C392.402 108.42 392.456 99.9896 385.694 103.529C380.925 106.637 383.242 114.041 386.313 117.635C387.849 119.526 389.654 121.121 391.432 122.769C392.375 123.336 395.716 126.039 392.833 126.012Z" fill="black"/>
<path d="M371.415 116.662C371.442 116.608 371.496 116.554 371.55 116.581C371.603 116.581 371.657 116.662 371.63 116.717C371.603 116.771 371.55 116.825 371.496 116.798C371.415 116.798 371.388 116.717 371.415 116.662Z" fill="black"/>
<path d="M380.925 123.255C373.866 117.743 373.031 105.935 378.096 98.8278C383.565 90.8564 394.611 93.1803 398.679 101.287C399.407 102.773 402.343 108.583 400.161 109.366C399.622 109.474 399.029 109.096 398.949 108.529C398.679 106.664 398.14 104.827 397.305 103.124C391.001 90.397 376.884 95.9905 376.938 109.069C376.884 112.204 377.638 115.392 379.174 118.148C379.47 119.364 384.508 123.904 380.925 123.255Z" fill="black"/>
<path d="M368.532 95.6381C369.125 90.9093 374.325 87.5856 378.366 85.6671C389.169 80.9112 403.852 84.8024 409.078 95.8813C409.321 96.3947 409.078 97.0162 408.594 97.2594C406.869 97.7458 406.681 94.9896 405.657 94.0708C397.602 82.9919 379.201 83.1 370.957 93.8547C370.984 93.8276 370.957 93.8547 371.038 93.7736C370.31 94.3411 369.556 96.4758 368.532 95.6381Z" fill="black"/>
<path d="M375.807 81.9117C377.208 78.7502 381.626 77.8314 384.751 77.0478C391.675 75.8318 399.515 77.8314 404.122 83.3709C405.038 85.2894 402.721 85.5867 401.886 83.9654C396.524 78.507 387.768 77.5072 380.845 80.2904C379.578 80.4525 376.534 83.2628 375.807 81.9117Z" fill="black"/>
<path d="M379.928 74.9676C378.5 73.1301 384.859 71.779 386.152 71.6439C390.597 71.1305 395.339 71.5358 399.38 73.6435C400.323 74.238 402.451 75.2648 401.427 76.5889C400.835 77.2104 400.026 76.8051 399.568 76.2376C393.83 72.2654 386.206 73.3193 379.928 74.9676Z" fill="black"/>
<path d="M284.261 51.2418C283.964 50.1879 283.291 49.5664 281.809 49.5664C279.169 49.5664 278.872 53.7278 281.297 54.2682C280.974 57.2946 285.311 55.9706 283.695 53.5386C284.234 52.9441 284.503 52.0524 284.261 51.2418Z" fill="black"/>
<path d="M290.673 47.0539C290.08 44.9192 289.03 41.1902 286.174 41.7846C282.51 42.0819 278.954 43.7032 275.478 44.9192C274.347 40.5416 272.38 36.2722 272.218 31.7325C272.622 28.3818 276.475 25.5175 279.789 26.3822C281.944 27.1118 282.941 29.4357 283.722 31.4083C284.18 32.1919 284.018 34.0564 285.312 33.8402C285.743 33.7321 285.985 33.2728 285.877 32.8404C284.584 23.653 274.454 21.4102 270.925 30.3544C270.413 31.9217 270.925 33.57 271.41 35.0562C272.111 38.5961 272.919 42.1089 274.05 45.5136C270.413 47.216 270.521 49.1075 271.679 53.5931C272.757 56.2683 272.649 62.4293 275.909 63.1589C279.088 63.5912 281.944 61.6456 284.773 60.4837C292.828 57.0519 293.906 55.6468 290.673 47.0539ZM286.201 57.9166C283.857 59.0245 276.125 64.2938 274.912 59.8892C274.05 56.7547 271.087 50.1884 273.134 48.2158C275.586 45.8379 280.435 44.757 283.749 43.8653C286.12 43.2168 287.602 42.9195 288.571 45.946C289.38 48.405 290.161 50.2965 290.592 52.5393C291.454 55.9981 288.841 56.7817 286.201 57.9166Z" fill="black"/>
<path d="M269.767 39.73C269.605 39.6219 269.497 39.4868 269.416 39.2977C269.12 38.46 268.958 37.5953 268.878 36.7036C268.689 35.2984 268.15 33.7582 268.716 32.3531C268.851 32.0288 269.309 31.8937 269.47 32.272C269.551 32.6773 269.497 33.1097 269.605 33.515C269.767 34.3527 269.955 35.1633 270.198 35.974C270.413 36.9468 270.575 37.9466 270.871 38.9193C271.033 39.5138 270.305 40.0813 269.767 39.73Z" fill="black"/>
<path d="M275.424 68.2658C272.541 67.9955 270.359 65.9689 269.793 63.1316C269.578 61.8886 269.309 60.5646 269.686 59.3216C269.767 59.1324 270.036 59.1324 270.117 59.3216C270.305 59.835 270.305 60.3754 270.467 60.8888C270.683 61.5914 270.871 62.2939 271.087 62.9965C271.599 64.2936 272.407 65.5636 273.727 66.1851C274.347 66.5093 275.047 66.5904 275.721 66.7796C276.637 67.0228 276.367 68.3738 275.424 68.2658Z" fill="black"/>
<path d="M270.575 69.643C270.036 69.4809 269.578 69.1566 269.147 68.8054C268.446 68.2649 267.8 67.6164 267.477 66.7787C267.234 66.1032 266.884 65.3466 267.046 64.617C267.18 64.2657 267.692 64.1846 267.935 64.5089C268.312 65.1844 268.5 65.9681 268.958 66.6166C269.497 67.2921 270.252 67.8866 271.06 68.2109C271.949 68.5622 271.491 69.8862 270.575 69.643Z" fill="black"/>
<path d="M293.663 142.25C292.909 141.98 292.181 141.683 291.427 141.386C290.673 141.088 289.891 140.764 289.164 140.413C287.521 139.602 286.093 138.413 284.907 137.035C284.341 136.36 283.83 135.603 283.399 134.819C282.967 134.009 282.617 133.144 282.375 132.252C282.132 131.361 282.052 130.442 282.132 129.523C282.159 129.091 282.213 128.658 282.294 128.253C282.321 128.064 282.375 127.902 282.402 127.713C282.483 127.388 282.563 127.064 282.671 126.767C282.698 126.713 282.698 126.659 282.725 126.605H282.698C282.429 126.497 282.132 126.389 281.863 126.28C281.567 126.145 281.297 126.037 281.001 125.902C280.839 125.821 280.678 125.74 280.516 125.659C280.354 125.578 280.22 125.524 280.058 125.443C279.896 125.362 279.762 125.281 279.6 125.2C279.465 125.119 279.33 125.064 279.196 124.983C278.926 124.794 278.63 124.632 278.361 124.443C278.064 124.254 277.768 124.011 277.472 123.794C277.202 123.605 276.96 123.389 276.69 123.173C276.367 122.903 276.071 122.633 275.828 122.416C275.532 122.146 275.262 121.876 274.993 121.579C274.858 121.444 274.75 121.281 274.616 121.146C274.481 120.984 274.319 120.822 274.266 120.741C274.023 120.471 273.808 120.147 273.592 119.849C273.403 119.579 273.215 119.309 273.026 119.039C272.676 118.525 272.353 117.985 272.029 117.444C271.356 116.336 270.736 115.202 270.224 114.013C269.686 112.797 269.201 111.554 268.797 110.284C268.608 109.689 268.446 109.068 268.312 108.473C268.15 107.852 267.988 107.23 267.881 106.609C267.827 106.284 267.746 105.987 267.719 105.663C267.665 105.312 267.638 104.987 267.611 104.636C267.557 104.042 267.53 103.42 267.53 102.799C267.53 101.501 267.557 100.231 267.584 98.9344C267.584 98.7182 267.584 98.5021 267.584 98.2859C267.584 98.0427 267.638 97.7725 267.907 97.7184C267.934 97.7184 267.988 97.6914 268.015 97.6914C268.15 97.6914 268.312 97.7725 268.392 97.9076C268.5 98.0967 268.5 98.3399 268.527 98.5561C268.554 98.8263 268.554 99.0965 268.581 99.3668C268.608 99.7991 268.608 100.258 268.635 100.718C268.662 101.691 268.689 102.663 268.743 103.636C268.797 104.042 268.823 104.447 268.877 104.852C268.931 105.203 268.985 105.528 269.039 105.879C269.201 106.555 269.389 107.257 269.551 107.933C269.712 108.554 269.874 109.176 270.063 109.77C270.117 109.932 270.17 110.094 270.224 110.175C270.494 110.905 270.79 111.635 271.087 112.364C271.383 113.067 271.706 113.769 272.029 114.472C272.326 115.066 272.622 115.634 272.972 116.201C273.161 116.499 273.323 116.796 273.511 117.12C273.7 117.417 273.888 117.715 274.104 118.012C274.292 118.309 274.508 118.579 274.697 118.876C274.804 119.012 274.912 119.147 275.02 119.309C275.128 119.471 275.262 119.633 275.37 119.795C275.586 120.065 275.828 120.309 276.044 120.579C276.151 120.714 276.286 120.822 276.394 120.93C276.529 121.065 276.69 121.2 276.744 121.281C276.96 121.471 277.175 121.66 277.418 121.849C277.579 121.984 277.768 122.119 277.93 122.281C278.118 122.416 278.28 122.551 278.468 122.687C278.711 122.849 278.926 123.011 279.169 123.173C279.438 123.335 279.708 123.497 279.977 123.686C280.112 123.767 280.246 123.848 280.381 123.903C280.516 123.984 280.678 124.065 280.812 124.146C281.082 124.281 281.324 124.389 281.594 124.524C281.863 124.659 282.132 124.767 282.402 124.875C282.698 125.01 282.994 125.119 283.264 125.227C283.291 125.146 283.318 125.091 283.372 125.01C283.668 124.416 284.018 123.848 284.449 123.335C284.988 122.687 285.662 122.146 286.416 121.741C287.17 121.335 288.059 121.173 288.895 121.39C289.703 121.579 290.457 122.011 291.05 122.578C291.319 122.849 291.562 123.146 291.723 123.47C291.912 123.876 292.02 124.308 292.047 124.74C292.074 125.146 292.02 125.524 291.912 125.875C291.804 126.226 291.616 126.524 291.373 126.794C290.969 127.226 290.457 127.55 289.918 127.821C289.514 128.01 289.083 128.037 288.652 128.064C288.356 128.091 288.059 128.064 287.763 128.037C287.44 128.01 287.116 127.956 286.82 127.902C286.173 127.794 285.527 127.632 284.88 127.469C284.638 127.415 284.395 127.334 284.18 127.253C284.18 127.253 284.18 127.253 284.18 127.28C284.099 127.523 284.045 127.767 283.964 128.01C283.937 128.118 283.91 128.253 283.884 128.388C283.857 128.523 283.83 128.631 283.803 128.766C283.749 129.118 283.695 129.469 283.668 129.847C283.641 130.145 283.641 130.442 283.668 130.739C283.695 131.036 283.722 131.334 283.776 131.631C283.857 131.982 283.964 132.333 284.072 132.685C284.234 133.09 284.395 133.495 284.584 133.901C284.799 134.333 285.042 134.765 285.311 135.171C285.608 135.576 285.904 135.981 286.227 136.36C286.551 136.738 286.928 137.089 287.305 137.44C287.736 137.819 288.167 138.17 288.652 138.467C289.002 138.683 289.353 138.9 289.703 139.089C290.43 139.44 291.211 139.764 291.966 140.062C292.72 140.359 293.448 140.656 294.202 140.926C294.606 141.088 294.795 141.602 294.633 141.98C294.552 142.169 294.39 142.331 294.202 142.412C294.094 142.466 293.986 142.466 293.906 142.466C293.906 142.331 293.798 142.304 293.663 142.25ZM288.787 126.362C288.895 126.362 289.002 126.334 289.137 126.307C289.191 126.307 289.218 126.28 289.245 126.28C289.299 126.253 289.353 126.226 289.433 126.199C289.568 126.118 289.73 126.037 289.864 125.956C289.945 125.902 290.026 125.848 290.107 125.767C290.188 125.686 290.269 125.632 290.322 125.551C290.349 125.524 290.376 125.47 290.403 125.443C290.43 125.416 290.43 125.389 290.457 125.362C290.457 125.335 290.484 125.335 290.484 125.308C290.511 125.254 290.511 125.173 290.538 125.119C290.538 125.064 290.565 125.01 290.565 124.956C290.565 124.875 290.565 124.794 290.565 124.713C290.565 124.632 290.538 124.524 290.538 124.443C290.511 124.389 290.511 124.308 290.484 124.227C290.457 124.173 290.43 124.092 290.403 124.038C290.376 124.011 290.349 123.957 290.322 123.93C290.269 123.876 290.242 123.821 290.188 123.767C290.107 123.686 290.026 123.605 289.945 123.524C289.864 123.443 289.757 123.362 289.649 123.308C289.514 123.227 289.406 123.146 289.272 123.092C289.137 123.038 289.002 122.957 288.841 122.903C288.76 122.876 288.679 122.849 288.598 122.849C288.517 122.822 288.437 122.822 288.356 122.822C288.275 122.822 288.194 122.822 288.113 122.822C288.032 122.822 287.952 122.849 287.898 122.849C287.817 122.876 287.763 122.876 287.682 122.903C287.547 122.957 287.44 123.011 287.332 123.065C287.17 123.146 287.009 123.254 286.874 123.335C286.685 123.47 286.524 123.578 286.362 123.74C286.2 123.876 286.039 124.038 285.904 124.2C285.742 124.389 285.608 124.578 285.473 124.767C285.284 125.064 285.123 125.362 284.961 125.686C285.123 125.74 285.257 125.794 285.419 125.821C285.796 125.929 286.2 126.01 286.605 126.118C287.197 126.226 287.79 126.334 288.383 126.389C288.463 126.389 288.625 126.389 288.787 126.362Z" fill="black"/>
<path d="M294.849 140.575C294.849 140.521 294.903 140.494 294.929 140.494C294.956 140.494 295.01 140.548 295.01 140.575C295.01 140.602 294.956 140.656 294.929 140.656C294.903 140.656 294.849 140.629 294.849 140.575Z" fill="black"/>
<path d="M266.426 208.401C272.353 214.751 277.849 222.074 285.338 226.614C287.467 229.775 298.593 232.018 302.635 233.396C317.398 236.504 332.378 239.881 347.411 242.043C355.277 242.637 365.919 244.205 372.574 239.098C376.776 233.153 375.914 225.127 376.318 218.183C376.238 200.213 378.959 182.271 378.204 164.301C377.207 142.333 365.273 138.739 350.671 126.525C349.458 122.607 349.081 117.662 345.929 114.743C345.39 113.717 343.423 114.284 342.507 114.608C341.942 112.825 341.484 110.987 340.918 109.204C340.487 99.7463 355.655 94.1258 357.702 81.4796C359.507 71.9679 354.2 62.6184 344.285 61.1862C331.3 59.2136 336.284 48.3239 316.913 49.8371C306.649 50.4586 296.465 56.2142 290.888 64.9152C286.793 71.1573 286.335 79.9934 293.232 84.3979C295.199 85.749 297.597 87.4784 300.021 86.7759C299.509 89.8023 299.698 92.7747 300.21 95.7471C300.237 100.206 296.815 103.854 296.034 108.177C295.145 111.744 297.219 113.69 300.695 112.42C303.335 117.175 305.598 124.606 312.226 124.498C314.866 124.174 317.452 123.363 319.904 122.228C319.931 122.282 319.958 122.337 319.985 122.391C320.146 122.742 320.335 123.12 320.497 123.471C320.82 124.147 321.251 124.768 321.655 125.39C321.008 125.39 320.523 126.336 320.092 126.741C317.641 129.335 315.432 132.794 315.162 136.415C313.519 138.252 311.983 140.441 311.444 142.873C303.335 146.008 295.845 150.439 288.895 155.627C281.324 160.951 273.565 166.814 265.052 170.489C262.358 171.84 261.523 171.976 259.475 172.327C251.258 173.732 243.31 169.733 235.605 167.139C221.946 163.275 211.897 153.249 200.582 145.278C199.558 144.711 197.134 142.63 196.083 143.684C195.275 144.656 195.975 145.954 196.514 146.899C198.346 150.115 201.713 151.979 204.435 154.33C204.758 154.546 205.189 154.492 205.431 154.168C206.051 153.087 203.545 151.952 202.899 151.142C200.905 149.358 198.561 147.845 197.457 145.251C205.809 150.169 212.678 157.276 220.869 162.383C230.352 167.139 249.938 176.002 260.202 173.489C279.385 167.949 293.071 151.655 311.444 144.224C311.471 144.305 311.471 144.386 311.498 144.44C307.511 152.979 304.278 161.815 301.53 170.841C297.543 181.865 294.768 193.215 292.505 204.699C280.489 196.863 268.824 188.459 256.619 180.866C254.356 178.677 249.803 178.947 246.786 179.028C242.664 179.812 250.558 184.081 251.393 185.405C253.279 187.027 255.299 188.675 257.454 189.918C258.37 193.188 259.879 196.322 260.607 198.025C251.635 199.349 237.734 188.459 230.19 183.595C225.718 180.893 214.214 170.246 209.957 170.597C204.246 171.813 200.178 165.977 194.736 165.301C191.853 164.761 186.411 165.679 185.899 161.761C187.381 159.897 199.962 165.247 195.275 160.464C194.682 160.275 195.76 161.329 195.652 161.626C193.362 160.788 191.018 159.978 188.566 160.059C184.741 159.924 183.636 162.464 186.842 164.788C189.671 166.652 193.281 166.085 196.325 167.247C200.986 168.976 204.327 173.137 209.661 172.246C210.173 172.165 210.927 172.057 211.466 172.354C223.509 179.001 247.54 201.997 261.307 199.43C262.546 201.916 263.786 204.429 265.294 206.78M342.427 116.311C345.39 114.96 345.794 116.338 346.791 118.905C347.761 121.364 348.246 123.958 349.054 126.471C346.575 128.443 343.612 129.768 341.268 131.956C338.332 134.145 335.664 137.496 331.785 137.901C327.555 137.874 324.134 134.523 320.039 133.686C320.874 132.497 321.844 131.416 322.84 130.389C327.986 124.174 334.587 118.851 342.346 116.365C342.373 116.311 342.4 116.311 342.427 116.311ZM305.113 118.094C307.107 117.959 309.02 117.067 310.609 115.851C311.364 115.419 313.734 112.609 311.525 112.987C309.558 114.933 307.161 116.257 304.413 116.77C303.389 115.176 302.85 113.095 301.665 111.663C302.581 111.041 303.335 109.988 304.547 110.204C305.275 110.609 306.433 110.339 306.083 109.312C304.089 107.285 301.476 109.717 300.048 111.285C298.216 112.122 296.6 111.609 296.95 109.339C297.354 104.718 301.018 100.908 301.099 96.2335C300.668 92.8287 300.318 89.3699 301.395 86.0463C301.826 84.2088 302.635 82.4794 303.712 80.9121C306.137 82.9658 309.154 81.3985 311.822 80.8581C317.021 81.993 304.386 87.7216 316.078 88.5593C316.994 88.5052 317.802 88.0189 318.691 87.7216C321.951 86.4786 324.996 89.9104 324.295 93.126C324.161 95.0175 324.053 97.1252 325.023 98.8276C325.858 100.233 327.609 100.098 328.013 98.4493C328.956 95.0445 328.552 90.2076 332.108 95.9092C332.566 97.0982 332.889 101.908 333.132 103.07C332.997 111.041 329.279 114.365 323.218 118.824C316.994 122.715 309.505 126.363 305.113 118.094ZM320.928 121.823C320.901 121.796 320.901 121.769 320.874 121.742C325.723 119.256 329.953 115.392 332.916 110.96C334.56 107.691 335.152 103.475 334.075 99.9355C333.832 98.2871 334.317 96.4496 333.374 94.8554C332.351 92.8828 329.549 90.0995 327.69 92.7477C326.828 94.2879 327.07 96.3686 326.424 98.0439C324.672 94.5041 327.582 91.0453 324.161 87.6946C321.844 85.3167 319.284 85.5869 316.482 86.8839C315.135 87.1812 313.492 87.0461 312.387 86.1814C313.384 84.533 315.728 82.8307 314.381 80.723C312.576 77.9397 309.558 80.1825 307.107 80.4798C305.76 80.0745 303.928 78.6153 302.985 80.3987C302.958 80.3987 302.931 80.3987 302.931 80.3717C301.476 81.8579 300.695 83.7764 300.237 85.776C295.28 86.2895 289.326 79.8853 289.299 74.9944C290.538 59.4298 308.158 50.2424 322.436 51.3503C329.899 51.7016 332.162 55.944 337.065 60.3486C340.056 62.4022 343.881 62.4292 347.195 63.6452C355.924 66.3744 358.322 77.2642 354.954 84.9924C351.802 93.18 342.858 97.5035 339.732 105.556C339.49 105.232 339.059 102.34 338.628 103.313C338.628 107.366 340.056 111.339 341.053 115.23C334.91 118.256 328.848 121.958 324.053 126.984C323.945 126.849 323.918 126.822 323.837 126.687C322.948 125.012 322.005 123.363 320.928 121.823ZM321.763 125.525C321.763 125.498 321.763 125.498 321.763 125.525C321.871 125.714 322.005 125.876 322.113 126.066C322.409 126.552 322.733 127.011 323.137 127.417C323.245 127.498 319.85 131.956 318.476 134.523C317.695 134.821 316.913 135.172 316.186 135.604C317.371 131.956 319.904 128.687 321.763 125.525ZM312.738 143.441C313.761 140.009 316.051 136.712 319.284 135.037C321.439 135.523 323.379 136.631 325.4 137.496C323.837 141.441 319.392 147.791 314.516 145.602C313.68 145.116 312.414 144.602 312.738 143.441ZM293.636 206.617C297.731 185.703 304.224 165.301 312.172 145.548C314.974 147.602 318.853 147.575 321.466 145.143C313.465 165.49 307.942 187 305.086 208.671C301.072 208.671 297.085 208.968 293.098 209.347C293.286 208.428 293.421 207.617 293.636 206.617ZM257.131 188.432C253.871 185.757 250.881 182.757 247.352 180.379C249.857 180.595 254.302 180.217 256.296 181.541C259.448 183.919 262.708 186.135 265.968 188.351C274.535 194.187 283.049 200.024 291.589 205.915C291.777 206.05 291.966 206.185 292.155 206.32C291.939 207.374 291.75 208.401 291.508 209.482C290.7 209.428 288.113 209.536 287.952 209.671C281.432 207.212 267.584 188.378 261.954 191.485C260.93 190.026 259.906 185.784 257.535 186.837C257.158 187.081 257.05 187.648 257.131 188.432ZM284.611 224.695C281.567 222.506 279.034 219.696 276.421 217.021C272.919 213.184 269.201 209.401 265.995 205.293C262.762 199.781 259.475 193.971 258.128 187.675C258.721 187.432 260.418 190.783 261.442 191.945C260.149 195.133 263.786 197.295 265.725 199.213C267.18 200.375 276.394 210.103 270.925 203.051C268.393 199.916 264.89 197.673 262.466 194.485C261.738 193.052 262.169 191.755 263.947 192.269C272.622 196.836 278.253 206.077 287.117 210.482C284.423 214.535 283.291 219.939 284.611 224.695ZM376.749 171.624C376.453 187.324 374.729 202.969 374.675 218.669C374.136 224.803 375.672 237.341 368.452 239.638C350.59 244.421 321.628 234.963 302.877 231.748C302.796 231.748 302.742 231.694 302.662 231.694C298.162 230.559 293.744 229.127 289.353 227.586C288.868 227.586 288.41 227.235 287.952 227.1C287.871 227.046 287.709 227.073 287.655 226.992C283.911 223.884 285.473 213.481 288.383 211.13C288.598 210.968 296.681 210.644 298.27 210.563C300.83 210.536 303.362 210.373 305.921 210.292C306.837 210.238 307.78 210.238 308.723 210.211C320.416 210.536 332.324 211.968 343.935 210.184C346.387 209.698 344.932 204.185 344.743 202.78C342.777 193.62 341.888 184.27 341.241 174.948C340.756 168.571 340.002 162.167 340.487 155.762C340.541 155.087 340.999 151.007 340.11 152.304C338.17 159.897 339.194 167.787 339.706 175.515C340.029 186.297 342.211 196.863 343.72 207.509C343.801 208.104 343.396 208.644 342.804 208.725C330.869 210.428 318.665 208.617 306.649 208.644C309.343 186.432 315.863 164.896 322.921 143.738C324.619 142.17 325.966 140.225 326.316 137.874C332.351 142.116 338.224 136.631 342.642 132.659C344.851 130.686 347.572 129.416 349.916 127.606C354.011 131.794 358.968 134.902 363.602 138.414C374.567 146.17 377.288 158.924 376.749 171.624Z" fill="black"/>
<path d="M126.925 225.695C109.71 223.533 112.646 207.239 107.42 195.538C103.675 190.918 96.5356 190.593 91.1474 191.972C84.2236 193.728 78.539 199.997 71.0763 199.213C56.0432 195.944 52.8373 173.543 61.1082 162.572C61.2968 162.329 61.9703 162.167 61.7817 162.68C58.3602 168.3 57.3364 175.515 58.441 181.946C59.8689 189.161 64.7721 197.943 73.0969 197.727C78.8623 197.052 83.4692 192.89 88.8574 191.053C96.3201 188.324 107.743 189.161 110.356 198.078C111.299 201.024 111.488 204.131 112.134 207.158C113.589 214.4 117.226 222.56 125.309 223.83C125.901 223.938 126.521 224.046 127.114 224.1C128.137 224.236 128.03 225.83 126.925 225.695Z" fill="black"/>
<path d="M65.2031 201.538C61.8624 200.295 57.6866 196.269 58.0907 192.459C58.1985 192.162 58.4948 191.946 58.845 192.054C59.4916 192.243 59.2222 192.972 59.3569 193.459C59.6802 194.729 60.5693 195.756 61.3506 196.755C62.509 198.134 63.91 199.377 65.6073 199.971C66.6041 200.214 66.2269 201.809 65.2031 201.538Z" fill="black"/>
<path d="M113.347 198.647C110.976 192.864 110.275 190.649 103.81 188.46C103.405 188.649 102.974 188.028 103.379 187.73C105.076 187.325 107.204 188.514 108.713 189.325C110.168 190.135 111.407 191.243 112.269 192.675C112.754 193.54 115.987 199.485 113.347 198.647Z" fill="black"/>
<path d="M115.502 51.4327C115.475 51.4057 115.421 51.3787 115.394 51.4057C115.367 51.4327 115.34 51.4868 115.367 51.5138C115.394 51.5408 115.448 51.5679 115.475 51.5408C115.502 51.5138 115.529 51.4868 115.502 51.4327Z" fill="black"/>
<path d="M102.975 58.4584C104.699 56.1615 105.372 52.9189 104.106 50.2438C103.783 49.6493 103.19 48.3522 102.382 48.9197C101.843 49.8655 103.406 51.1625 103.298 52.3515C103.971 56.8371 99.6069 61.4308 95.0808 60.5661C94.1917 60.4039 93.9493 61.8091 94.8383 61.9442C97.9365 62.5387 101.143 60.9714 102.975 58.4584Z" fill="black"/>
<path d="M104.483 62.9162C104.86 62.5379 105.13 62.0515 105.453 61.6462C105.669 61.376 105.669 61.376 105.453 61.6462C107.824 57.647 109.548 52.4588 107.016 48.1353C105.75 45.5682 102.22 44.7846 99.8764 46.3249C98.0444 47.5679 98.0983 50.0539 98.3946 52.0264C99.9033 61.6192 89.2347 54.2422 92.2251 46.3789C93.3028 41.7312 98.0174 39.1371 102.517 38.9209C106.477 38.8939 110.06 41.4339 112.296 44.5414C113.589 46.2978 114.505 48.3785 114.694 50.5403C114.802 51.1347 114.559 52.0535 115.421 52.1075C115.799 52.1345 116.149 51.8103 116.149 51.432C116.014 44.4874 109.845 37.867 102.894 37.5158C96.8859 37.4887 90.932 41.6771 90.5009 47.9732C89.7196 51.6481 91.7402 55.9716 95.0809 57.647C98.8796 59.1332 100.792 55.134 99.7956 51.8913C99.0412 48.6757 100.496 46.0006 104.052 47.2166C107.016 48.7298 107.339 53.1073 106.423 55.9716C105.938 57.5659 105.238 59.0251 104.537 60.5113C104.079 61.1058 102.678 63.6728 104.483 62.9162Z" fill="black"/>
<path d="M111.245 58.0796C114.236 52.7833 111.703 45.1631 106.665 42.0286C101.25 38.4347 94.7575 42.8663 94.4073 48.9462C94.3803 50.1892 93.9493 54.3235 95.5657 54.4046C96.7781 53.9993 95.458 51.7024 95.7004 50.6486C96.5626 35.8947 112.512 42.5961 111.003 54.4316C111.138 55.2423 109.171 59.4306 111.245 58.0796Z" fill="black"/>
<path d="M111.838 37.4886C110.249 34.6783 106.127 33.9757 103.082 33.8136C95.0809 33.6515 86.8908 39.9475 86.4867 48.2432C86.4597 48.6215 86.783 48.9458 87.1602 48.9728C88.3726 48.8377 87.7529 47.0543 88.184 46.2166C90.3392 37.1643 101.924 32.4085 109.898 37.0022C109.872 36.9752 109.898 37.0022 109.845 36.9752C110.383 37.1373 111.407 38.2992 111.838 37.4886Z" fill="black"/>
<path d="M103.702 30.8147C97.8557 27.2748 88.1031 32.7873 86.325 39.1374C86.0556 40.0021 87.4026 40.4344 87.672 39.5697C89.3424 34.3815 94.8653 31.22 100.119 31.1389C100.981 30.8687 103.54 31.8685 103.702 30.8147Z" fill="black"/>
<path d="M99.3104 27.5177C99.7146 26.0044 95.3771 26.8151 94.5419 27.0583C92.4944 27.3285 84.3043 31.7601 86.244 34.138C86.5673 34.3001 87.0253 34.138 87.16 33.7867C89.5039 29.5173 94.8652 28.1662 99.3104 27.5177Z" fill="black"/>
<path d="M144.302 145.413C144.41 145.9 143.925 146.413 143.413 146.224C141.743 145.575 135.25 143.954 134.657 143.63C132.071 149.169 123.234 156.708 121.591 157.654C110.491 165.761 96.9666 168.138 83.6039 165.734C78.2157 164.788 65.284 161.005 56.1779 149.034C50.3586 141.414 46.7216 131.956 45.9942 122.337C44.6741 108.096 49.3888 91.6398 65.5264 80.2637C71.3457 75.9402 80.8828 72.0761 84.924 71.5897C123.073 67.05 137.243 94.1259 140.396 110.717C143.171 118.499 140.53 129.308 137.836 136.928C137.971 137.009 143.332 143.278 144.302 145.413Z" fill="#A37AD4"/>
<path d="M114.263 141.28C112.215 129.904 105.48 99.3419 104.133 97.2342C103.379 96.0723 101.385 96.7208 99.2029 97.1532C97.8827 97.4234 98.5293 101.26 98.9873 105.26C99.122 106.395 97.4248 106.124 97.4248 106.124C95.943 105.773 95.2695 100.234 95.2156 98.2881C95.2156 98.2881 95.6736 97.0451 88.5073 99.5311L89.4502 107.097L85.4899 107.205C84.7355 106.043 83.7926 102.909 83.4154 100.99L77.3806 102.152C77.8386 113.447 78.9432 138.74 79.8592 150.008C79.8592 150.008 83.3885 153.061 90.3931 153.467C99.3106 153.791 111.353 149.792 114.263 141.28Z" fill="white"/>
<path d="M102.974 84.317C103.648 84.3711 103.459 85.1817 102.84 85.3168C101.735 86.803 99.553 85.0466 98.5831 86.6679C95.3232 94.9906 88.6418 92.3965 88.5341 84.3711C87.7797 83.5334 89.019 82.3444 89.6387 83.3983C91.9017 83.9928 93.9492 80.8582 96.2392 80.7502C98.9333 80.7231 99.7954 84.0738 102.974 84.317Z" fill="#FDC82E"/>
<path d="M143.898 144.496C142.228 141.767 140.099 139.281 138.806 136.335C140.099 133.336 141.338 128.148 140.961 129.418C148.586 96.7212 120.136 65.7272 87.0253 70.4831C49.254 75.4821 31.6615 120.96 56.2048 150.197C77.111 175.679 118.088 172.652 135.034 144.361C136.974 144.117 147.723 150.035 143.898 144.496ZM140.827 144.847C139.183 144.496 135.196 142.037 134.037 143.739C134.037 143.739 134.037 143.739 134.01 143.739C117.523 171.247 77.7037 174.301 57.2555 149.576C34.167 122.365 48.769 79.5894 83.6577 72.2935C115.017 65.3219 144.598 92.3167 140.773 124.283C138.968 141.172 133.526 131.444 143.224 145.631C142.443 145.333 141.635 145.09 140.827 144.847Z" fill="black"/>
<path d="M115.152 141.631C115.071 141.279 114.99 140.928 114.909 140.577C114.505 138.874 114.128 137.145 113.724 135.443C113.32 133.659 112.916 131.903 112.512 130.119C112.108 128.363 111.703 126.579 111.299 124.823C110.895 123.013 110.464 121.175 110.06 119.365C109.629 117.5 109.198 115.663 108.794 113.798C108.39 112.015 107.986 110.231 107.581 108.448C107.177 106.691 106.773 104.935 106.369 103.179C105.965 101.449 105.561 99.6928 105.184 97.9634C105.076 97.531 104.968 97.0717 104.887 96.6393C104.887 96.5853 104.86 96.5582 104.86 96.5042C104.807 96.3421 104.726 96.207 104.591 96.0989C104.429 95.9638 104.214 95.9367 103.998 95.9638C103.944 95.9638 103.891 95.9638 103.837 95.9908C103.567 96.0178 103.325 96.0719 103.055 96.0989C102.22 96.207 101.385 96.315 100.577 96.4502C100.119 96.5312 99.6608 96.5853 99.2028 96.6934C99.0142 96.7204 98.8256 96.7744 98.664 96.8014C98.5562 96.8285 98.4754 96.8555 98.3677 96.8825C98.2599 96.9095 98.1521 96.9636 98.0713 97.0717C97.9905 97.1527 97.9635 97.2878 97.9635 97.3959C97.9635 97.531 97.9366 97.6391 97.9366 97.7742C97.9366 98.0444 97.9366 98.3147 97.9366 98.5849C97.9366 99.3685 97.9905 100.152 98.0444 100.936C98.0982 101.773 98.1521 102.638 98.206 103.476C98.2329 103.908 98.2599 104.341 98.2868 104.773C98.2868 104.908 98.3138 105.07 98.3138 105.205C98.1791 105.232 98.0713 105.232 97.9366 105.259C97.7749 105.286 97.6402 105.286 97.4786 105.313C97.29 104.395 97.1284 103.503 96.9398 102.611C96.6434 101.098 96.3471 99.6117 96.0507 98.0985C96.0238 97.9634 95.9968 97.8553 95.9699 97.7202C95.8891 97.531 95.7005 97.3689 95.485 97.3149C95.3503 97.2878 95.2156 97.2878 95.0539 97.3419C94.8384 97.3959 94.6498 97.4229 94.4612 97.477C94.2457 97.531 94.0571 97.5581 93.8416 97.6121C93.8146 97.6121 93.7877 97.6121 93.7877 97.6121C93.7607 97.6121 93.7338 97.6121 93.7069 97.6391C93.6799 97.6391 93.6799 97.6391 93.653 97.6391C93.626 97.6391 93.5991 97.6391 93.5722 97.6661C93.3566 97.7202 93.1411 97.7742 92.9256 97.8012C92.2251 97.9634 91.5246 98.1255 90.8242 98.2876C90.8242 98.2606 90.8242 98.2336 90.8242 98.2066C90.7972 97.8553 90.7703 97.531 90.7433 97.1797C90.6625 96.5042 90.5817 95.8287 90.4739 95.1531C90.2315 93.5318 89.989 91.8835 89.7196 90.2622C89.7196 90.2622 89.7196 90.2352 89.7196 90.2081C90.5009 91.235 91.2822 92.0997 92.4406 92.4509C92.71 92.532 93.0064 92.586 93.3566 92.586C93.5452 92.6131 93.7338 92.6131 93.9224 92.6131C96.1315 92.586 97.5325 90.9647 98.5024 89.0462C98.9873 88.1815 99.3645 86.9385 100.55 86.8844C101.897 86.8844 103.217 87.2898 103.81 85.6685C104.025 85.1821 104.025 84.5876 104.402 84.1823C104.537 84.1012 104.672 84.0201 104.753 83.9121C105.076 83.6689 105.318 83.4257 105.103 82.9663C104.941 82.6961 104.618 82.588 104.322 82.7231C104.133 82.8042 103.971 82.8852 103.81 82.9933C102.948 83.2635 101.951 83.0203 101.196 82.5339C100.577 82.1016 100.065 81.5341 99.5261 80.9937C98.5562 80.129 97.1822 79.6967 95.916 79.9939C94.7037 80.2371 93.626 80.9126 92.6561 81.6693C92.0634 82.1286 91.5246 82.6961 90.7703 82.8042C89.989 82.9663 89.2616 82.588 88.615 82.2097C88.5611 82.1827 88.5072 82.1556 88.4533 82.1286C88.4264 81.9935 88.3995 81.8584 88.3995 81.6963C88.3725 81.4531 88.3186 81.1829 88.2917 80.9397C88.2378 80.5614 87.8606 80.2911 87.4835 80.3992C87.3218 80.4533 87.1871 80.5614 87.0794 80.6965C86.9985 80.8316 86.9716 80.9937 86.9985 81.1558V81.1829C87.0524 81.4801 87.1063 81.8044 87.1602 82.1016C87.2949 82.8852 87.4026 83.6418 87.5374 84.4255C87.6721 85.2361 87.8068 86.0738 87.9415 86.8844C88.2109 88.5598 88.4803 90.2352 88.7497 91.9105C89.0191 93.5318 89.2885 95.1801 89.6118 96.8014C89.6926 97.1797 89.7735 97.558 89.8543 97.9364C89.8812 98.0985 89.9351 98.2606 89.989 98.4498C89.8273 98.5038 89.6657 98.5308 89.504 98.5849C89.2346 98.6659 88.9922 98.747 88.7228 98.8011H88.6958C88.6419 98.8011 88.588 98.8011 88.5611 98.8011C88.5072 98.8011 88.4264 98.8011 88.3456 98.8281C88.1839 98.8821 88.0762 98.9632 87.9954 99.0983C87.9145 99.2604 87.9145 99.4226 87.9145 99.6117C87.9145 99.9089 87.9415 100.179 87.9684 100.476C88.0223 101.044 88.0762 101.611 88.1301 102.179C88.2109 102.989 88.3186 103.827 88.3995 104.638C88.4534 105.043 88.4803 105.448 88.5342 105.854C88.5611 105.989 88.5611 106.151 88.588 106.286C88.5072 106.286 88.3995 106.286 88.3186 106.286C87.699 106.286 87.0794 106.313 86.4597 106.34C86.2711 106.34 86.0825 106.367 85.8939 106.367C85.867 106.232 85.8401 106.07 85.8131 105.935C85.7054 105.475 85.5976 105.016 85.4629 104.557C85.2474 103.773 85.0588 102.989 84.8432 102.206C84.7355 101.8 84.6277 101.395 84.52 100.99C84.4661 100.72 84.3852 100.476 84.3044 100.206C84.3044 100.179 84.2775 100.098 84.2236 99.99C84.1158 99.8009 83.9272 99.6928 83.7117 99.6658C83.577 99.6387 83.4154 99.6928 83.2807 99.7198C83.119 99.7468 82.9574 99.8009 82.7688 99.8279C82.23 99.963 81.6642 100.098 81.0984 100.233C80.398 100.395 79.6975 100.557 78.997 100.774C78.6737 100.855 78.3505 100.963 78.0272 101.071C77.8925 101.125 77.7577 101.179 77.65 101.233C77.5961 101.26 77.5153 101.314 77.4614 101.368C77.3806 101.368 77.2998 101.395 77.2459 101.449C77.2189 101.476 77.2189 101.476 77.192 101.503C77.1381 101.611 77.1112 101.719 77.1112 101.827C77.1112 101.936 77.0842 102.071 77.0842 102.179C77.0842 102.422 77.0842 102.665 77.0842 102.881C77.0842 103.395 77.0842 103.881 77.1112 104.368C77.1381 105.367 77.1651 106.34 77.192 107.34C77.2459 109.394 77.3267 111.447 77.4345 113.501C77.5153 115.528 77.5961 117.554 77.7039 119.581C77.8116 121.634 77.8925 123.715 78.0002 125.769C78.108 127.795 78.1888 129.795 78.2966 131.795C78.4043 133.848 78.4852 135.875 78.5929 137.929C78.7007 139.928 78.7815 141.955 78.8893 143.954C78.997 145.9 79.0779 147.819 79.1587 149.764C79.1587 149.953 79.2395 150.115 79.3473 150.223C79.4281 150.305 79.5089 150.359 79.6167 150.386C79.6436 150.386 79.6706 150.386 79.6975 150.386C79.913 150.602 80.1286 150.791 80.371 150.98C81.5564 151.926 82.9035 152.628 84.3314 153.142C84.6816 153.277 85.0318 153.385 85.3821 153.493C85.7323 153.601 86.0556 153.682 86.4058 153.763C87.8606 154.088 89.3424 154.25 90.8242 154.277C91.0936 154.277 91.336 154.277 91.6055 154.277C92.8447 154.277 94.111 154.169 95.3233 153.98C96.832 153.763 98.3407 153.412 99.7955 152.953C101.223 152.52 102.651 151.98 103.998 151.331C105.345 150.71 106.639 149.98 107.878 149.143L107.905 149.116C108.093 149.008 108.282 148.872 108.471 148.737C109.683 147.9 110.841 146.954 111.892 145.927C112.97 144.9 113.913 143.765 114.775 142.522C114.883 142.36 115.017 142.171 115.125 142.009C115.152 141.955 115.179 141.901 115.206 141.82C115.179 141.928 115.179 141.793 115.152 141.631ZM89.3693 88.6679C89.2077 87.56 89.0191 86.4521 88.8305 85.3442C88.7228 84.6416 88.615 83.9661 88.5072 83.2635C88.6419 83.3716 88.7497 83.4527 88.8036 83.5067C89.073 83.7229 89.3693 83.858 89.6926 83.9661C89.9351 84.0472 90.2045 84.0742 90.4739 84.0742C91.336 84.0742 92.1443 83.6959 92.8178 83.1554C96.7512 80.129 97.8019 81.399 99.2836 82.7771C100.092 83.5608 101.062 84.3714 102.732 84.5065C102.597 84.9659 102.544 85.5874 102.112 85.6685C100.631 85.6144 99.3375 85.4253 98.2868 86.7223C97.3708 87.9923 96.9128 89.5866 95.7274 90.6405C94.7306 91.5322 93.168 91.5862 92.0096 91.0458C91.3899 90.7215 90.9858 90.1 90.4739 89.6137C90.0967 89.2624 89.7196 88.9921 89.3693 88.6679ZM113.589 142.036C113.589 142.036 113.589 142.063 113.562 142.063C113.562 142.063 113.562 142.063 113.562 142.09C113.077 142.765 112.566 143.441 112 144.063C111.353 144.792 110.599 145.495 109.845 146.197C109.009 146.927 108.093 147.602 107.123 148.251C107.123 148.251 107.07 148.278 107.043 148.305C106.046 148.953 104.968 149.575 103.837 150.142C102.678 150.71 101.412 151.223 100.146 151.656C98.9065 152.061 97.6402 152.412 96.3471 152.655C95.1617 152.872 93.9493 153.034 92.737 153.115H92.71C92.71 153.115 92.71 153.115 92.6831 153.115C92.6561 153.115 92.6292 153.115 92.6023 153.115C92.252 153.142 91.9018 153.142 91.5516 153.142C90.8511 153.142 90.1237 153.142 89.4232 153.088C89.3963 153.088 89.3424 153.088 89.2885 153.088C88.4264 153.007 87.4835 152.872 86.5675 152.682C85.7862 152.493 85.0318 152.304 84.2775 152.034C84.2775 152.034 84.2505 152.034 84.2236 152.007C83.6578 151.791 83.0651 151.548 82.4994 151.25C81.9606 150.953 81.4217 150.656 80.9099 150.305C80.7482 150.196 80.5866 150.061 80.4249 149.953C80.3441 148.089 80.2363 146.224 80.1555 144.36C80.0477 142.306 79.9669 140.279 79.8592 138.226C79.7514 136.199 79.6706 134.173 79.5628 132.119C79.455 130.092 79.3473 128.066 79.2664 126.039C79.1856 124.012 79.0509 121.986 78.9701 119.959C78.8623 117.905 78.7546 115.879 78.6468 113.825C78.539 111.799 78.4043 109.745 78.2696 107.718C78.2158 106.691 78.1349 105.665 78.0541 104.638C78.0272 104.124 77.9733 103.584 77.9194 103.07C77.8925 102.827 77.8655 102.557 77.8386 102.314C77.8386 102.314 77.8386 102.287 77.8386 102.26C77.8655 102.26 77.8655 102.26 77.8925 102.26C78.0272 102.26 78.1888 102.26 78.3235 102.233C78.6468 102.206 78.9701 102.152 79.2934 102.098C79.6436 102.044 80.0208 101.963 80.371 101.882C80.4788 101.855 80.5866 101.855 80.6943 101.827H80.7213C80.8021 101.8 80.8829 101.8 80.9637 101.773C81.1523 101.746 81.314 101.692 81.5026 101.665C81.8528 101.584 82.203 101.503 82.5533 101.422C82.7688 101.368 82.9574 101.341 83.1729 101.287C83.1998 101.449 83.2537 101.611 83.3076 101.773C83.4423 102.26 83.5501 102.746 83.6848 103.233C83.8734 103.989 84.0889 104.746 84.2775 105.502C84.4391 106.07 84.5738 106.664 84.7894 107.232C84.7894 107.259 84.8163 107.286 84.8163 107.34C84.8163 107.34 84.8163 107.313 84.8163 107.286C84.8163 107.286 84.8163 107.286 84.8163 107.313C84.8432 107.394 84.8702 107.502 84.951 107.583C85.0318 107.691 85.1665 107.772 85.3012 107.799C85.3821 107.826 85.4629 107.826 85.5437 107.826C85.5976 107.826 85.6515 107.826 85.7054 107.826C85.894 107.826 86.0556 107.826 86.2442 107.826C86.5136 107.826 86.7561 107.826 86.9985 107.826C87.3218 107.826 87.6451 107.799 87.9415 107.799C88.2378 107.799 88.5342 107.772 88.8575 107.772C88.9383 107.772 89.046 107.772 89.1269 107.772C89.2077 107.772 89.2885 107.772 89.3693 107.745C89.4771 107.718 89.5849 107.691 89.6926 107.61C89.7735 107.529 89.8543 107.448 89.9082 107.34C89.989 107.178 89.962 106.989 89.9351 106.799C89.9082 106.664 89.9082 106.556 89.9082 106.421C89.8273 105.638 89.7465 104.827 89.6657 104.043C89.5849 103.206 89.504 102.395 89.3963 101.557C89.3424 101.017 89.2616 100.476 89.1808 99.936C89.2077 99.936 89.2077 99.936 89.2346 99.936C90.0159 99.8279 90.7972 99.6928 91.5516 99.5306C92.3059 99.3685 93.0603 99.2064 93.8416 99.0442H93.8685C93.8954 99.0442 93.9224 99.0442 93.9763 99.0172H94.0032C94.0032 99.0172 94.0032 99.0172 94.0301 99.0172H94.0571C94.111 99.0172 94.1379 98.9902 94.1918 98.9902C94.1918 98.9902 94.1918 98.9902 94.2187 98.9902C94.2187 98.9902 94.2187 98.9902 94.2457 98.9902C94.4881 98.9362 94.7306 98.8821 94.9461 98.8281C95.027 99.2064 95.0808 99.6117 95.1617 99.99C95.2964 100.72 95.4311 101.422 95.5927 102.152C95.8352 103.395 96.0777 104.665 96.3471 105.935C96.374 106.07 96.401 106.178 96.4279 106.313C96.4818 106.556 96.6973 106.745 96.9398 106.827C97.0475 106.854 97.1553 106.854 97.2631 106.827C97.4247 106.8 97.6133 106.772 97.7749 106.772C98.1791 106.718 98.6101 106.664 99.0412 106.61C99.0951 106.61 99.122 106.61 99.1759 106.583C99.4453 106.529 99.6608 106.34 99.7416 106.07C99.7955 105.908 99.7686 105.773 99.7686 105.611C99.7417 105.205 99.7147 104.8 99.6878 104.422C99.6339 103.557 99.58 102.665 99.5261 101.8C99.4722 100.936 99.4183 100.044 99.3375 99.1794C99.3106 98.8551 99.2837 98.5038 99.2298 98.1796C99.2298 98.1255 99.2028 98.0444 99.2028 97.9904C99.4722 97.9904 99.7147 97.9634 99.9572 97.9364C100.846 97.8553 101.762 97.7472 102.651 97.6391C102.975 97.6121 103.325 97.5581 103.648 97.504C103.702 97.504 103.756 97.477 103.837 97.477C104.106 98.6119 104.376 99.7738 104.618 100.936C105.022 102.719 105.426 104.476 105.83 106.259C106.234 108.015 106.639 109.799 107.043 111.555C107.447 113.366 107.878 115.203 108.282 117.014C108.713 118.851 109.117 120.662 109.548 122.499C109.952 124.283 110.356 126.066 110.787 127.849C111.192 129.633 111.623 131.443 112.027 133.254C112.431 135.01 112.835 136.794 113.239 138.577C113.482 139.658 113.751 140.766 113.993 141.874C113.751 141.82 113.67 141.928 113.589 142.036Z" fill="black"/>
<path d="M42.9499 133.173C42.5996 132.876 42.4919 132.363 42.3572 131.957C41.953 130.633 41.6836 129.255 41.3873 127.904C40.2558 123.148 40.3905 118.095 41.6567 113.366C41.9261 112.475 43.2462 112.853 43.0037 113.745C41.7375 117.69 41.522 121.959 42.1147 126.04C42.3841 127.688 42.7074 129.336 42.9768 130.984C42.9768 131.363 43.6773 133.443 42.9499 133.173Z" fill="black"/>
<path d="M37.8041 123.986C37.6155 123.688 37.6964 123.31 37.6425 122.959C37.5347 121.175 37.6694 119.419 37.8311 117.636C38.1005 115.096 38.2891 112.528 38.9357 110.042C39.0973 109.556 39.6092 108.935 40.148 109.34C40.4982 109.61 40.4174 110.096 40.1211 110.367C39.3937 111.88 39.259 113.636 38.9626 115.258C38.5854 117.771 38.2352 120.311 38.1813 122.851C38.1544 123.202 38.1813 123.553 38.1544 123.878C38.1813 124.094 37.9119 124.175 37.8041 123.986Z" fill="black"/>
<path d="M144.086 106.421C143.763 105.989 143.844 105.395 143.709 104.881C143.494 103.638 143.251 102.422 142.82 101.233C141.958 98.7472 140.396 96.5854 139.022 94.3426C138.86 94.0994 138.644 93.8562 138.617 93.586C138.564 93.3158 138.779 93.0996 139.049 93.0996C139.345 93.0996 139.587 93.3158 139.803 93.532C141.635 95.6397 143.332 97.9906 144.329 100.612C144.841 101.936 145.11 103.287 145.353 104.665C145.407 105.178 145.622 105.746 145.434 106.259C145.191 106.773 144.41 106.881 144.086 106.421Z" fill="black"/>
<path d="M145.622 100.963C145.218 99.8284 144.976 98.6394 144.464 97.5316C143.763 95.9102 142.74 94.4781 141.851 92.9919C141.581 92.5055 141.177 92.0732 141.096 91.5057C141.15 90.9653 141.716 90.9923 141.985 91.3165C142.713 91.9651 143.225 92.8028 143.79 93.5864C144.868 94.9645 145.784 96.4507 146.35 98.099C146.619 98.8826 146.835 99.6663 147.077 100.45C147.185 100.828 146.969 101.234 146.619 101.369C146.269 101.531 145.784 101.369 145.622 100.963Z" fill="black"/>
<path d="M105.965 140.577C104.672 138.47 103.325 136.281 101.843 134.308C101.493 133.849 101.547 133.227 101.951 132.822C105.399 129.39 102.355 122.716 97.0206 123.77C92.3598 124.661 91.1744 131.012 94.8922 133.498C95.2963 133.768 95.4849 134.254 95.3772 134.741C94.5959 137.767 94.1109 140.875 93.4913 143.955C93.4913 143.982 93.4913 143.982 93.4913 144.009C93.3835 145.82 93.3835 146.63 95.4041 146.549H95.3772C98.5293 146.846 103.783 143.604 105.749 142.118C106.127 141.712 106.261 141.064 105.965 140.577Z" fill="black"/>
</g>
<defs>
<clipPath id="clip0_8740_9204">
<rect width="436" height="259" fill="white" transform="translate(0 0.5)"/>
</clipPath>
</defs>
</svg>
