<?xml version="1.0" encoding="UTF-8" standalone="no"?>
<!-- Generator: Adobe Illustrator 22.0.1, SVG Export Plug-In . SVG Version: 6.00 Build 0)  -->

<svg
   xmlns:dc="http://purl.org/dc/elements/1.1/"
   xmlns:cc="http://creativecommons.org/ns#"
   xmlns:rdf="http://www.w3.org/1999/02/22-rdf-syntax-ns#"
   xmlns:svg="http://www.w3.org/2000/svg"
   xmlns="http://www.w3.org/2000/svg"
   xmlns:sodipodi="http://sodipodi.sourceforge.net/DTD/sodipodi-0.dtd"
   xmlns:inkscape="http://www.inkscape.org/namespaces/inkscape"
   version="1.1"
   id="Calque_1"
   x="0px"
   y="0px"
   viewBox="0 0 1564.3325 813.99866"
   xml:space="preserve"
   sodipodi:docname="Commission_nationale_de_l'informatique_et_des_libertés_(logo).svg"
   width="1564.3325"
   height="813.99866"
   inkscape:version="0.92.4 (5da689c313, 2019-01-14)"><metadata
   id="metadata107"><rdf:RDF><cc:Work
       rdf:about=""><dc:format>image/svg+xml</dc:format><dc:type
         rdf:resource="http://purl.org/dc/dcmitype/StillImage" /><dc:title></dc:title></cc:Work></rdf:RDF></metadata><defs
   id="defs105" /><sodipodi:namedview
   pagecolor="#ffffff"
   bordercolor="#666666"
   borderopacity="1"
   objecttolerance="10"
   gridtolerance="10"
   guidetolerance="10"
   inkscape:pageopacity="0"
   inkscape:pageshadow="2"
   inkscape:window-width="1920"
   inkscape:window-height="1001"
   id="namedview103"
   showgrid="false"
   fit-margin-top="0"
   fit-margin-left="0"
   fit-margin-right="0"
   fit-margin-bottom="0"
   inkscape:zoom="0.23964257"
   inkscape:cx="2012.5837"
   inkscape:cy="214.0859"
   inkscape:window-x="-9"
   inkscape:window-y="-9"
   inkscape:window-maximized="1"
   inkscape:current-layer="Calque_1" />
<style
   type="text/css"
   id="style2">
	.st0{fill:#004D9D;}
	.st1{fill:#E30613;}
	.st2{fill:none;}
</style>
<g
   id="g84"
   transform="matrix(11.368696,0,0,11.368696,-261.48001,-321.7341)">
	<path
   class="st0"
   d="m 24,84.8 c -0.6,-0.6 -1,-1.5 -1,-2.6 0,-1.2 0.3,-2.1 0.9,-2.7 0.6,-0.6 1.5,-1 2.7,-1 0.8,0 1.5,0.1 2.1,0.3 v 1.3 c -0.6,-0.3 -1.3,-0.4 -2,-0.4 -0.8,0 -1.4,0.2 -1.7,0.6 -0.4,0.4 -0.5,1 -0.5,1.8 0,0.8 0.2,1.3 0.6,1.7 0.4,0.4 1,0.6 1.7,0.6 0.7,0 1.4,-0.1 2,-0.4 v 1.3 c -0.7,0.2 -1.4,0.3 -2.1,0.3 -1.2,0.1 -2.1,-0.2 -2.7,-0.8 z"
   id="path4"
   inkscape:connector-curvature="0"
   style="fill:#004d9d" />
	<path
   class="st0"
   d="m 29.9,82.2 c 0,-1.3 0.3,-2.2 0.9,-2.8 0.6,-0.6 1.4,-0.9 2.6,-0.9 1.2,0 2,0.3 2.6,0.9 0.6,0.6 0.9,1.5 0.9,2.8 0,2.4 -1.2,3.6 -3.5,3.6 -2.4,-0.1 -3.5,-1.2 -3.5,-3.6 z m 4.9,1.7 c 0.3,-0.4 0.5,-1 0.5,-1.7 0,-0.9 -0.2,-1.5 -0.5,-1.8 -0.3,-0.4 -0.8,-0.5 -1.5,-0.5 -0.7,0 -1.2,0.2 -1.5,0.5 -0.3,0.4 -0.5,1 -0.5,1.8 0,0.8 0.2,1.4 0.5,1.7 0.3,0.4 0.8,0.6 1.5,0.6 0.7,0 1.2,-0.2 1.5,-0.6 z"
   id="path6"
   inkscape:connector-curvature="0"
   style="fill:#004d9d" />
	<path
   class="st0"
   d="m 38.2,78.7 h 1.5 l 2.1,4.2 2.1,-4.2 h 1.5 v 7 h -1.5 v -4.5 l -1.7,3.3 h -0.9 l -1.7,-3.3 v 4.5 h -1.5 v -7 z"
   id="path8"
   inkscape:connector-curvature="0"
   style="fill:#004d9d" />
	<path
   class="st0"
   d="m 47.3,78.7 h 1.5 l 2.1,4.2 2.1,-4.2 h 1.5 v 7 H 53 v -4.5 l -1.7,3.3 h -0.9 l -1.7,-3.3 v 4.5 h -1.5 v -7 z"
   id="path10"
   inkscape:connector-curvature="0"
   style="fill:#004d9d" />
	<path
   class="st0"
   d="M 56.5,78.7 H 58 v 7 h -1.5 z"
   id="path12"
   inkscape:connector-curvature="0"
   style="fill:#004d9d" />
	<path
   class="st0"
   d="m 59.9,85.4 v -1.3 c 0.3,0.1 0.7,0.2 1.1,0.3 0.4,0.1 0.7,0.1 1.1,0.1 0.6,0 0.9,-0.1 1.2,-0.2 0.3,-0.1 0.3,-0.3 0.3,-0.6 0,-0.2 -0.1,-0.4 -0.2,-0.5 -0.1,-0.1 -0.3,-0.2 -0.5,-0.3 -0.2,-0.1 -0.6,-0.2 -1.1,-0.3 -0.7,-0.2 -1.3,-0.5 -1.6,-0.8 -0.3,-0.3 -0.5,-0.7 -0.5,-1.3 0,-0.6 0.2,-1.1 0.7,-1.5 0.5,-0.4 1.2,-0.5 2.1,-0.5 0.4,0 0.8,0 1.2,0.1 0.4,0.1 0.7,0.1 0.9,0.2 v 1.3 c -0.6,-0.2 -1.2,-0.3 -1.9,-0.3 -0.5,0 -0.9,0.1 -1.1,0.2 -0.2,0.1 -0.4,0.3 -0.4,0.6 0,0.2 0,0.3 0.1,0.4 0.1,0.1 0.2,0.2 0.5,0.3 0.2,0.1 0.6,0.2 1,0.3 0.8,0.2 1.4,0.5 1.7,0.8 0.3,0.3 0.5,0.8 0.5,1.3 0,0.6 -0.2,1.1 -0.7,1.5 -0.5,0.4 -1.2,0.5 -2.2,0.5 -0.9,0 -1.6,-0.1 -2.2,-0.3 z"
   id="path14"
   inkscape:connector-curvature="0"
   style="fill:#004d9d" />
	<path
   class="st0"
   d="m 66.4,85.4 v -1.3 c 0.3,0.1 0.7,0.2 1.1,0.3 0.4,0.1 0.7,0.1 1.1,0.1 0.6,0 0.9,-0.1 1.2,-0.2 0.3,-0.1 0.3,-0.3 0.3,-0.6 0,-0.2 -0.1,-0.4 -0.2,-0.5 -0.1,-0.1 -0.3,-0.2 -0.5,-0.3 -0.2,-0.1 -0.6,-0.2 -1.1,-0.3 -0.7,-0.2 -1.3,-0.5 -1.6,-0.8 -0.3,-0.3 -0.5,-0.7 -0.5,-1.3 0,-0.6 0.2,-1.1 0.7,-1.5 0.5,-0.4 1.2,-0.5 2.1,-0.5 0.4,0 0.8,0 1.2,0.1 0.4,0.1 0.7,0.1 0.9,0.2 v 1.3 c -0.6,-0.2 -1.2,-0.3 -1.9,-0.3 -0.5,0 -0.9,0.1 -1.1,0.2 -0.2,0.1 -0.4,0.3 -0.4,0.6 0,0.2 0,0.3 0.1,0.4 0.1,0.1 0.2,0.2 0.5,0.3 0.2,0.1 0.6,0.2 1,0.3 0.8,0.2 1.4,0.5 1.7,0.8 0.3,0.3 0.5,0.8 0.5,1.3 0,0.6 -0.2,1.1 -0.7,1.5 -0.5,0.4 -1.2,0.5 -2.2,0.5 -0.9,0 -1.7,-0.1 -2.2,-0.3 z"
   id="path16"
   inkscape:connector-curvature="0"
   style="fill:#004d9d" />
	<path
   class="st0"
   d="m 73.3,78.7 h 1.5 v 7 h -1.5 z"
   id="path18"
   inkscape:connector-curvature="0"
   style="fill:#004d9d" />
	<path
   class="st0"
   d="m 76.6,82.2 c 0,-1.3 0.3,-2.2 0.9,-2.8 0.6,-0.6 1.4,-0.9 2.6,-0.9 1.2,0 2,0.3 2.6,0.9 0.6,0.6 0.9,1.5 0.9,2.8 0,2.4 -1.2,3.6 -3.5,3.6 -2.4,-0.1 -3.5,-1.2 -3.5,-3.6 z m 4.9,1.7 c 0.3,-0.4 0.5,-1 0.5,-1.7 0,-0.9 -0.2,-1.5 -0.5,-1.8 -0.3,-0.4 -0.8,-0.5 -1.5,-0.5 -0.7,0 -1.2,0.2 -1.5,0.5 -0.3,0.4 -0.5,1 -0.5,1.8 0,0.8 0.2,1.4 0.5,1.7 0.3,0.4 0.8,0.6 1.5,0.6 0.7,0 1.2,-0.2 1.5,-0.6 z"
   id="path20"
   inkscape:connector-curvature="0"
   style="fill:#004d9d" />
	<path
   class="st0"
   d="m 85.3,78.7 h 1.3 l 3.4,4.6 v -4.6 h 1.5 v 7 H 90.2 L 86.7,81 v 4.6 h -1.5 v -6.9 z"
   id="path22"
   inkscape:connector-curvature="0"
   style="fill:#004d9d" />
	<path
   class="st0"
   d="m 98.1,78.7 h 1.3 l 3.4,4.6 v -4.6 h 1.5 v 7 H 103 L 99.6,81 v 4.6 h -1.5 z"
   id="path24"
   inkscape:connector-curvature="0"
   style="fill:#004d9d" />
	<path
   class="st0"
   d="m 108.7,78.7 h 1.6 l 2.7,7 h -1.5 L 110.8,84 h -2.6 l -0.7,1.7 H 106 Z m 1.9,4.1 -1.1,-2.8 -1.1,2.8 z"
   id="path26"
   inkscape:connector-curvature="0"
   style="fill:#004d9d" />
	<path
   class="st0"
   d="M 115.2,79.8 H 113 v -1.1 h 5.8 v 1.1 h -2.2 v 5.8 h -1.5 v -5.8 z"
   id="path28"
   inkscape:connector-curvature="0"
   style="fill:#004d9d" />
	<path
   class="st0"
   d="m 120.4,78.7 h 1.5 v 7 h -1.5 z"
   id="path30"
   inkscape:connector-curvature="0"
   style="fill:#004d9d" />
	<path
   class="st0"
   d="m 123.7,82.2 c 0,-1.3 0.3,-2.2 0.9,-2.8 0.6,-0.6 1.4,-0.9 2.6,-0.9 1.2,0 2,0.3 2.6,0.9 0.6,0.6 0.9,1.5 0.9,2.8 0,2.4 -1.2,3.6 -3.5,3.6 -2.4,-0.1 -3.5,-1.2 -3.5,-3.6 z m 4.9,1.7 c 0.3,-0.4 0.5,-1 0.5,-1.7 0,-0.9 -0.2,-1.5 -0.5,-1.8 -0.3,-0.4 -0.8,-0.5 -1.5,-0.5 -0.7,0 -1.2,0.2 -1.5,0.5 -0.3,0.4 -0.5,1 -0.5,1.8 0,0.8 0.2,1.4 0.5,1.7 0.3,0.3 0.8,0.6 1.5,0.6 0.7,0 1.2,-0.2 1.5,-0.6 z"
   id="path32"
   inkscape:connector-curvature="0"
   style="fill:#004d9d" />
	<path
   class="st0"
   d="m 132.4,78.7 h 1.3 l 3.4,4.6 v -4.6 h 1.5 v 7 h -1.3 l -3.4,-4.6 v 4.6 h -1.5 z"
   id="path34"
   inkscape:connector-curvature="0"
   style="fill:#004d9d" />
	<path
   class="st0"
   d="m 143,78.7 h 1.6 l 2.7,7 h -1.5 L 145.1,84 h -2.6 l -0.7,1.7 h -1.6 z m 1.9,4.1 -1.1,-2.8 -1.1,2.8 z"
   id="path36"
   inkscape:connector-curvature="0"
   style="fill:#004d9d" />
	<path
   class="st0"
   d="m 149.1,78.7 h 1.5 v 5.8 h 3.5 v 1.1 h -5 z"
   id="path38"
   inkscape:connector-curvature="0"
   style="fill:#004d9d" />
	<path
   class="st0"
   d="m 155.5,78.7 h 5.1 v 1.1 H 157 v 1.8 h 3.2 v 1.1 H 157 v 1.8 h 3.6 v 1.1 h -5.1 z"
   id="path40"
   inkscape:connector-curvature="0"
   style="fill:#004d9d" />
	<path
   class="st0"
   d="m 23.2,91 h 1.5 v 7 h -1.5 z"
   id="path42"
   inkscape:connector-curvature="0"
   style="fill:#004d9d" />
	<path
   class="st0"
   d="m 26.2,91 h 1.3 l 3.4,4.6 V 91 h 1.5 v 7 H 31.1 L 27.7,93.4 V 98 h -1.5 z"
   id="path44"
   inkscape:connector-curvature="0"
   style="fill:#004d9d" />
	<path
   class="st0"
   d="m 33.8,91 h 5 v 1.1 h -3.5 v 1.8 h 3.1 V 95 h -3.1 v 3 h -1.5 z"
   id="path46"
   inkscape:connector-curvature="0"
   style="fill:#004d9d" />
	<path
   class="st0"
   d="m 39,94.5 c 0,-1.3 0.3,-2.2 0.9,-2.8 0.6,-0.6 1.4,-0.9 2.6,-0.9 1.2,0 2,0.3 2.6,0.9 0.6,0.6 0.9,1.5 0.9,2.8 0,2.4 -1.2,3.6 -3.5,3.6 -2.3,0 -3.5,-1.2 -3.5,-3.6 z m 5,1.8 c 0.3,-0.4 0.5,-1 0.5,-1.7 0,-0.9 -0.2,-1.5 -0.5,-1.8 -0.3,-0.4 -0.8,-0.5 -1.5,-0.5 -0.7,0 -1.2,0.2 -1.5,0.5 -0.3,0.4 -0.5,1 -0.5,1.8 0,0.8 0.2,1.4 0.5,1.7 0.3,0.4 0.8,0.6 1.5,0.6 0.7,0 1.1,-0.2 1.5,-0.6 z"
   id="path48"
   inkscape:connector-curvature="0"
   style="fill:#004d9d" />
	<path
   class="st0"
   d="m 47.2,91 h 3.4 c 0.8,0 1.4,0.2 1.8,0.6 0.4,0.4 0.6,1 0.6,1.7 0,0.5 -0.1,0.9 -0.4,1.2 -0.2,0.3 -0.6,0.6 -1,0.7 0.1,0.1 0.2,0.2 0.3,0.3 0.1,0.1 0.1,0.3 0.2,0.4 L 53,97.8 H 51.5 L 50.7,95.9 C 50.6,95.7 50.5,95.6 50.5,95.6 50.4,95.5 50.3,95.5 50.1,95.5 H 48.9 V 98 h -1.5 v -7 z m 3,3.5 c 0.4,0 0.7,-0.1 0.9,-0.3 0.2,-0.2 0.3,-0.5 0.3,-0.8 0,-0.3 -0.1,-0.7 -0.3,-0.9 -0.2,-0.2 -0.5,-0.3 -0.9,-0.3 h -1.6 v 2.2 h 1.6 z"
   id="path50"
   inkscape:connector-curvature="0"
   style="fill:#004d9d" />
	<path
   class="st0"
   d="m 54.2,91 h 1.5 l 2.1,4.2 2.1,-4.2 h 1.5 v 7 h -1.5 v -4.5 l -1.7,3.3 H 57.3 L 55.6,93.5 V 98 h -1.5 v -7 z"
   id="path52"
   inkscape:connector-curvature="0"
   style="fill:#004d9d" />
	<path
   class="st0"
   d="m 65.1,91 h 1.6 l 2.7,7 H 67.9 L 67.2,96.3 H 64.6 L 63.9,98 h -1.6 z m 1.9,4.2 -1.1,-2.8 -1.1,2.8 z"
   id="path54"
   inkscape:connector-curvature="0"
   style="fill:#004d9d" />
	<path
   class="st0"
   d="M 71,92.2 H 68.8 V 91 h 5.8 v 1.1 H 72.4 V 98 H 71 Z"
   id="path56"
   inkscape:connector-curvature="0"
   style="fill:#004d9d" />
	<path
   class="st0"
   d="m 75.7,91 h 1.5 v 7 h -1.5 z"
   id="path58"
   inkscape:connector-curvature="0"
   style="fill:#004d9d" />
	<path
   class="st0"
   d="m 81.7,99.4 c -0.3,-0.3 -0.4,-0.8 -0.4,-1.3 -1.8,-0.2 -2.7,-1.4 -2.7,-3.5 0,-1.3 0.3,-2.2 0.9,-2.8 0.6,-0.6 1.4,-0.9 2.6,-0.9 1.2,0 2,0.3 2.6,0.9 0.6,0.6 0.9,1.5 0.9,2.8 0,2.2 -1,3.4 -2.9,3.5 0,0.3 0.1,0.5 0.2,0.6 0.1,0.1 0.3,0.2 0.6,0.2 0.3,0 0.5,0 0.8,-0.1 v 1 c -0.1,0 -0.3,0.1 -0.5,0.1 -0.2,0 -0.4,0 -0.6,0 -0.8,-0.1 -1.3,-0.2 -1.5,-0.5 z m 1.7,-3.1 c 0.3,-0.4 0.5,-1 0.5,-1.7 0,-0.9 -0.2,-1.5 -0.5,-1.8 -0.3,-0.4 -0.8,-0.5 -1.5,-0.5 -0.7,0 -1.2,0.2 -1.5,0.5 -0.3,0.4 -0.5,1 -0.5,1.8 0,0.8 0.2,1.4 0.5,1.7 0.3,0.4 0.8,0.6 1.5,0.6 0.7,0 1.2,-0.2 1.5,-0.6 z"
   id="path60"
   inkscape:connector-curvature="0"
   style="fill:#004d9d" />
	<path
   class="st0"
   d="m 87.4,97.4 c -0.6,-0.5 -0.8,-1.1 -0.8,-2 V 91 h 1.5 v 4.2 c 0,0.5 0.1,0.9 0.4,1.2 0.3,0.3 0.7,0.4 1.3,0.4 0.5,0 1,-0.1 1.2,-0.4 0.3,-0.3 0.4,-0.7 0.4,-1.2 V 91 h 1.5 v 4.3 c 0,0.9 -0.3,1.5 -0.8,2 -0.6,0.5 -1.3,0.7 -2.3,0.7 -1,0 -1.8,-0.1 -2.4,-0.6 z"
   id="path62"
   inkscape:connector-curvature="0"
   style="fill:#004d9d" />
	<path
   class="st0"
   d="m 94.4,91 h 5.1 v 1.1 h -3.6 v 1.8 h 3.2 V 95 h -3.2 v 1.8 h 3.6 V 98 h -5.1 z"
   id="path64"
   inkscape:connector-curvature="0"
   style="fill:#004d9d" />
	<path
   class="st1"
   d="m 107.9,97.3 c -0.3,0.3 -0.6,0.4 -1,0.6 -0.4,0.1 -0.8,0.2 -1.3,0.2 -0.8,0 -1.4,-0.2 -1.9,-0.5 -0.5,-0.3 -0.7,-0.8 -0.7,-1.4 0,-0.5 0.1,-0.9 0.4,-1.2 0.3,-0.3 0.7,-0.6 1.2,-0.9 -0.3,-0.3 -0.5,-0.6 -0.7,-0.8 -0.1,-0.2 -0.2,-0.5 -0.2,-0.8 0,-0.5 0.2,-0.9 0.5,-1.2 0.4,-0.3 0.8,-0.5 1.4,-0.5 0.6,0 1.1,0.1 1.4,0.4 0.4,0.3 0.5,0.7 0.5,1.2 0,0.4 -0.1,0.7 -0.3,0.9 -0.2,0.3 -0.4,0.5 -0.8,0.8 l 1.5,1.5 c 0.1,-0.2 0.2,-0.4 0.2,-0.7 v -0.2 h 1.1 v 0.2 c 0,0.3 0,0.5 -0.1,0.8 -0.1,0.3 -0.2,0.5 -0.3,0.7 l 0.7,0.7 -0.9,0.8 z m -1.5,-0.4 c 0.2,-0.1 0.4,-0.2 0.6,-0.4 L 105.4,95 c -0.4,0.2 -0.6,0.3 -0.8,0.5 -0.2,0.2 -0.3,0.4 -0.3,0.7 0,0.3 0.1,0.5 0.3,0.7 0.2,0.2 0.5,0.2 0.9,0.2 0.4,0 0.6,-0.1 0.9,-0.2 z m -0.2,-3.7 c 0.1,-0.1 0.2,-0.3 0.2,-0.6 0,-0.2 -0.1,-0.4 -0.2,-0.5 -0.1,-0.1 -0.3,-0.2 -0.6,-0.2 -0.3,0 -0.5,0.1 -0.6,0.2 -0.1,0.1 -0.2,0.3 -0.2,0.5 0,0.2 0.1,0.4 0.2,0.5 0.1,0.1 0.3,0.3 0.6,0.5 0.3,-0.1 0.5,-0.2 0.6,-0.4 z"
   id="path66"
   inkscape:connector-curvature="0"
   style="fill:#e30613" />
	<path
   class="st0"
   d="m 113.5,91 h 1.5 v 5.8 h 3.5 V 98 h -5 z"
   id="path68"
   inkscape:connector-curvature="0"
   style="fill:#004d9d" />
	<path
   class="st0"
   d="m 119.5,91 h 1.5 v 7 h -1.5 z"
   id="path70"
   inkscape:connector-curvature="0"
   style="fill:#004d9d" />
	<path
   class="st0"
   d="m 122.5,91 h 3.6 c 0.7,0 1.2,0.2 1.6,0.5 0.4,0.3 0.5,0.8 0.5,1.4 0,0.4 -0.1,0.7 -0.2,0.9 -0.1,0.3 -0.3,0.5 -0.6,0.6 0.4,0.1 0.6,0.3 0.8,0.5 0.2,0.2 0.3,0.6 0.3,1 0,0.7 -0.2,1.2 -0.6,1.5 -0.4,0.3 -0.9,0.5 -1.7,0.5 h -3.7 z m 3.3,2.9 c 0.7,0 1,-0.3 1,-0.9 0,-0.3 -0.1,-0.5 -0.2,-0.7 -0.2,-0.1 -0.5,-0.2 -0.9,-0.2 H 124 v 1.8 z m 0,3 c 0.4,0 0.7,-0.1 0.8,-0.2 0.1,-0.1 0.3,-0.4 0.3,-0.8 0,-0.3 -0.1,-0.5 -0.3,-0.7 -0.2,-0.1 -0.5,-0.2 -0.9,-0.2 H 124 v 1.9 z"
   id="path72"
   inkscape:connector-curvature="0"
   style="fill:#004d9d" />
	<path
   class="st0"
   d="m 129.7,91 h 5.1 v 1.1 h -3.6 v 1.8 h 3.2 V 95 h -3.2 v 1.8 h 3.6 V 98 h -5.1 z"
   id="path74"
   inkscape:connector-curvature="0"
   style="fill:#004d9d" />
	<path
   class="st0"
   d="m 136,91 h 3.4 c 0.8,0 1.4,0.2 1.8,0.6 0.4,0.4 0.6,1 0.6,1.7 0,0.5 -0.1,0.9 -0.4,1.2 -0.2,0.3 -0.6,0.6 -1,0.7 0.1,0.1 0.2,0.2 0.3,0.3 0.1,0.1 0.1,0.3 0.2,0.4 l 0.9,1.9 h -1.5 l -0.8,-1.9 c -0.1,-0.2 -0.2,-0.3 -0.2,-0.3 -0.1,-0.1 -0.2,-0.1 -0.4,-0.1 h -1.2 V 98 H 136 Z m 3.1,3.5 c 0.4,0 0.7,-0.1 0.9,-0.3 0.2,-0.2 0.3,-0.5 0.3,-0.8 0,-0.3 -0.1,-0.7 -0.3,-0.9 -0.2,-0.2 -0.5,-0.3 -0.9,-0.3 h -1.6 v 2.2 h 1.6 z"
   id="path76"
   inkscape:connector-curvature="0"
   style="fill:#004d9d" />
	<path
   class="st0"
   d="m 144.4,92.2 h -2.2 V 91 h 5.8 v 1.1 h -2.2 V 98 h -1.5 v -5.8 z"
   id="path78"
   inkscape:connector-curvature="0"
   style="fill:#004d9d" />
	<path
   class="st0"
   d="m 149.1,91 h 5.1 v 1.1 h -3.6 v 1.8 h 3.2 V 95 h -3.2 v 1.8 h 3.6 V 98 h -5.1 z m 2.7,-2.5 h 1.3 l -1,2 H 151 Z"
   id="path80"
   inkscape:connector-curvature="0"
   style="fill:#004d9d" />
	<path
   class="st0"
   d="m 155.4,97.7 v -1.3 c 0.3,0.1 0.7,0.2 1.1,0.3 0.4,0.1 0.7,0.1 1.1,0.1 0.6,0 0.9,0 1.2,-0.2 0.2,-0.1 0.3,-0.3 0.3,-0.6 0,-0.2 -0.1,-0.4 -0.2,-0.5 -0.1,-0.1 -0.3,-0.2 -0.5,-0.3 -0.2,-0.1 -0.6,-0.2 -1.1,-0.3 -0.7,-0.2 -1.3,-0.5 -1.6,-0.8 -0.3,-0.3 -0.5,-0.7 -0.5,-1.3 0,-0.6 0.2,-1.1 0.7,-1.5 0.5,-0.3 1.2,-0.5 2.1,-0.5 0.4,0 0.8,0 1.2,0.1 0.4,0.1 0.7,0.1 0.9,0.2 v 1.3 c -0.6,-0.2 -1.2,-0.3 -1.9,-0.3 -0.5,0 -0.9,0.1 -1.1,0.2 -0.2,0.1 -0.4,0.3 -0.4,0.6 0,0.2 0,0.3 0.1,0.4 0.1,0.1 0.2,0.2 0.5,0.3 0.2,0.1 0.6,0.2 1,0.3 0.8,0.2 1.4,0.5 1.7,0.8 0.3,0.3 0.5,0.8 0.5,1.3 0,0.6 -0.2,1.1 -0.7,1.5 -0.5,0.4 -1.2,0.5 -2.2,0.5 -0.8,0.1 -1.6,0 -2.2,-0.3 z"
   id="path82"
   inkscape:connector-curvature="0"
   style="fill:#004d9d" />
</g>
<rect
   x="1481.3409"
   y="389.94623"
   class="st1"
   width="82.991493"
   height="82.991493"
   id="rect86"
   style="fill:#e30613;stroke-width:11.36869526" />
<g
   id="g98"
   transform="matrix(11.368696,0,0,11.368696,-261.48001,-321.7341)">
	<g
   id="g96">
		<path
   class="st0"
   d="m 52.5,62.1 0.8,6.7 c -3.6,1.1 -7.9,1.7 -13.1,1.7 -6.3,0 -10.8,-1.6 -13.3,-4.7 C 24.3,62.6 23,57.2 23,49.4 23,41.6 24.3,36.2 26.9,33 c 2.6,-3.2 7,-4.7 13.3,-4.7 4.6,0 8.7,0.5 12.3,1.4 l -0.8,6.7 c -3.2,-0.2 -7,-0.3 -11.5,-0.3 -3,0 -5,0.9 -6.1,2.8 -1.1,1.9 -1.6,5.4 -1.6,10.5 0,5.1 0.5,8.6 1.6,10.5 1.1,1.9 3.1,2.8 6.1,2.8 5.5,0 9.6,-0.2 12.3,-0.6 z"
   id="path88"
   inkscape:connector-curvature="0"
   style="fill:#004d9d" />
		<path
   class="st0"
   d="m 93.6,29 v 37.5 c 0,2.2 -1.1,3.3 -3.2,3.3 h -5.6 c -0.9,0 -1.6,-0.2 -2.1,-0.6 -0.5,-0.4 -1,-1.1 -1.5,-2 L 70.4,45.4 c -1.3,-2.9 -2.2,-5 -2.5,-6.3 h -0.7 c 0.3,2 0.4,4.1 0.4,6.5 V 69.8 H 59 V 32.2 c 0,-2.2 1.1,-3.3 3.3,-3.3 h 5.5 c 0.9,0 1.6,0.2 2.1,0.6 0.5,0.4 1,1.1 1.5,2 l 10.4,21.1 c 1,2 2,4.2 3,6.6 h 0.6 C 85.2,56.1 85,53.8 85,52.3 V 29 Z"
   id="path90"
   inkscape:connector-curvature="0"
   style="fill:#004d9d" />
		<path
   class="st0"
   d="m 110.9,69.8 h -9 V 29 h 9 z"
   id="path92"
   inkscape:connector-curvature="0"
   style="fill:#004d9d" />
		<path
   class="st0"
   d="m 145.2,69.9 h -16.8 c -3.2,0 -5.5,-0.8 -7.1,-2.4 -1.5,-1.6 -2.3,-3.7 -2.3,-6.3 V 29 h 9 v 30.4 c 0,1.1 0.2,1.8 0.7,2.3 0.5,0.5 1.3,0.7 2.5,0.7 h 14 z"
   id="path94"
   inkscape:connector-curvature="0"
   style="fill:#004d9d" />
	</g>
</g>
<rect
   y="-230.11662"
   class="st2"
   width="184.10001"
   height="123.1"
   id="rect100"
   x="2910.8257"
   style="fill:none" />
</svg>