<?xml version="1.0" encoding="UTF-8"?>
<svg id="layer" xmlns="http://www.w3.org/2000/svg" version="1.1" viewBox="0 0 761 505">
  <defs>
    <style>
      .cls-1 {
        fill: #e30613;
      }

      .cls-1, .cls-2, .cls-3 {
        stroke-width: 0px;
      }

      .cls-2 {
        fill: #273375;
      }

      .cls-3 {
        fill: #000;
      }
    </style>
  </defs>
  <path class="cls-2" d="M166.9,1.5C76,1.5,2.2,75.2,2.2,166.2s13.5,74.4,36.1,102.6h20.1v21.2c8.7,7.6,18.3,14.2,28.5,19.9h12.6v6.5c20.6,9.2,43.4,14.4,67.3,14.4s25.7-1.6,37.9-4.5l-39-74.1c-8.8-.1-17.2-1.5-25.1-4.1v.2h-20.6v-10c-4.8-3.1-9.2-6.8-13.2-10.8h-7.3v20.6h-20.5v-20.6h20.6v-7.8c-11.7-14.7-18.8-33.3-18.8-53.7,0-47.6,38.6-86.2,86.2-86.2s53.3,13.7,69,34.7l55.8-55.8C261.5,23.7,216.8,1.5,166.9,1.5M120.1,268.9h20.6v20.6h-20.6v-20.6Z"/>
  <path class="cls-1" d="M444.9,173.1h-14.6l12.8,24.3h14.6l-12.8-24.3h0Z"/>
  <path class="cls-1" d="M120.1,248.2v-20.6h-20.6v20.6h-41.1v20.6h20.6v20.6h-20.6v20.6h-20.6v20.6h41.1v-20.6h20.6v-20.6h20.6v-20.6h20.6v-20.6h-20.6ZM17.3,268.7h20.6v20.6h-20.6v-20.6ZM99.5,330.4h20.6v-20.6h-20.6v20.6ZM240.6,162.2h0c-2.6-3.4-6.7-5.6-11.3-5.6s-.8.1-1.1.1c-7.4.6-13.3,6.7-13.3,14.3s6,13.8,13.5,14.3c.3,0,.6.1.9.1,4.5,0,8.5-2.1,11.2-5.4l.2-.2,9.4,9.4c-.9,1.1-2,2.1-3.1,3-4.8,4-10.9,6.4-17.6,6.4s-5-.4-7.3-1c-11.8-3.3-20.4-13.9-20.4-26.6s8.5-23.2,20-26.5c2.4-.7,4.9-1,7.6-1,6.8,0,13,2.5,17.7,6.6,1,.9,2,1.8,3,2.8l-9.4,9.3h0ZM440,144.8c10.1,0,18.3,8.4,18.3,18.4s-7.9,18.4-18.3,18.4h-13.5v15.7h-13.5v-52.5h27M440,168.7c2.8,0,5.2-2.4,5.2-5.3s-2.2-5.4-5.2-5.4h-13.5v10.8h13.5M346.1,168.9c4.4,1.1,8.3,5.3,8.3,12.6s-6.7,15.8-16.1,15.8h-29.9v-52.5h29.9c7.2,0,13.5,5.8,13.5,13.3s-2.5,9-5.7,10.8M321.3,163.9h13.9c2.1,0,3.4-1.3,3.4-3.1s-1.3-3.2-3.4-3.2h-13.9v6.3ZM336.1,184.5c2.5,0,3.9-1.9,3.9-3.9s-1.7-3.9-3.9-3.9h-14.8v7.8h14.8M361.4,144.8h41.7v13h-28.5v6.9h22v12.9h-22v6.8h28.5v13h-41.7v-52.6h0ZM287,144.8h14.6l-27.6,52.5h-14.7l11.8-22.3-15.9-30.2h15l8.4,16.1,8.4-16.1h0ZM140.7,207h20.6v20.6h-20.6v-20.6ZM99.5,207h20.6v-20.6h-20.6v20.6Z"/>
  <path class="cls-2" d="M241.6,236.7c.1-.1.2-.1.3-.2v28.2h13.1v-53.4h0c0,.1-13.3,25.4-13.3,25.4h-.1Z"/>
  <path class="cls-2" d="M370.8,237.9l11.3-21.7-11.4,21.6h.1Z"/>
  <path class="cls-2" d="M382.1,216.2l2.1-4h0l-2.1,4Z"/>
  <path class="cls-2" d="M697.3,229.4c1-1,8.6-8.9,9.2-9.5-.8-.8-1.8-1.7-2.9-2.6l-6.3,12.1h0"/>
  <path class="cls-2" d="M233.2,318.7c2.1,0,3.8,1.7,3.8,3.8s-1.6,3.7-3.8,3.7-3.7-1.6-3.7-3.7,1.7-3.8,3.7-3.8M297.2,301.7h-19v4.9h13.2c-.6,9-7.5,15.2-16.6,15.2s-18.1-7.8-18.1-18.9,7.4-19.6,18.1-19.6,11.5,2.8,14.8,8.4l4.6-3.7c-4.3-6.5-10.8-9.7-19.6-9.7s-12.2,2-16.4,6c-5,4.7-7.4,10.9-7.4,18.6s4.3,17,11.9,21.1c3.1,1.7,7,2.7,11.6,2.7,14.1,0,23-8.8,23-23.5v-1.5h-.1ZM348.6,319.7c4.7-4.5,7.2-10.5,7.2-17.1s-2.4-12.6-7.2-17.2c-4.6-4.5-11-7-17.5-7s-12.8,2.5-17.4,7c-4.7,4.6-7.2,10.6-7.2,17.2s2.5,12.5,7.2,17.1c4.7,4.5,10.9,7.1,17.4,7.1s12.8-2.6,17.5-7.1M344.4,316c-3.7,3.7-8.3,5.6-13.4,5.6s-9.7-1.9-13.4-5.6c-3.6-3.7-5.5-8.2-5.5-13.4s1.9-9.9,5.5-13.5,8.3-5.5,13.4-5.5,9.8,1.9,13.4,5.5,5.5,8.4,5.5,13.5c.1,5.1-1.8,9.8-5.5,13.4M365.8,279.4v28.7c0,12.5,5.9,18.6,17.9,18.6s17.9-6.2,17.9-18.6v-28.7h-5.6v28.7c0,9.2-3.7,13.5-12.3,13.5s-12.3-4.3-12.3-13.5v-28.7h-5.6ZM430.1,327.3l19.4-48h-5.9l-13.5,35.3-13.5-35.3h-6l19.5,48ZM453.3,318.7c-2,0-3.7,1.7-3.7,3.8s1.6,3.7,3.7,3.7,3.8-1.6,3.8-3.7-1.6-3.8-3.8-3.8M473,325.5h5.5v-22.8h18.8v-5.1h-18.8v-13.2h18.8v-5.1h-24.3v46.2ZM510.2,325.5h5.4v-22h.8l16.8,22h7l-17.6-22h1c8.2,0,12.5-4,12.5-11.5s-1.7-8.2-4.3-10.3c-2.9-2.2-6.2-2.3-10.6-2.3h-10.8v46.1h-.2,0ZM515.5,284h4.2c7.3,0,10.8,1.3,10.8,8s-3.6,7.4-10.8,7.4h-4.2v-15.4ZM205.1,211.3v53.4h13.1v-28.2c1.9,1.2,10.1,6.4,11.8,7.5,1.5-.9,9.3-5.8,11.6-7.3l13.4-25.4c-2.9,2-22.5,14.7-25,16.4-2.5-1.6-21.3-14-24.9-16.4M332.7,212.2h-13.5v52.5h28.8v-12.8h-15.3v-39.7ZM491.3,212.2h-13.5v52.5h28.8v-12.8h-15.3v-39.7ZM528.8,212.2h-13.5v52.5h28.8v-12.8h-15.3v-39.7ZM384.2,212.2l-2.1,4-11.3,21.7h-.1c0-.1-13.3-25.7-13.3-25.7h-14.4c.9,2.3,12.7,24,20.7,38.8,3.4,6.4,6.2,11.6,6.9,13.2v.5c0-.1.1-.2.1-.3.1.1.1.2.1.3v-.5c2.4-5.3,26.3-48.7,27.6-52h-14.2ZM286.6,212.7v-.5.3-.3.5c-2.5,5.3-26.3,48.7-27.6,52h14.2l2.1-4,1-1.9h20.5l3.1,6h14.4c-.9-2.3-12.7-24-20.7-38.8-3.3-6.6-6-11.7-6.8-13.3M282.5,246.6l3.9-7.6h0c0,.1,3.9,7.6,3.9,7.6h-7.9.1ZM575.5,212.7v-.5c0,.1,0,.2,0,.3,0-.1,0-.2,0-.3v.5c-2.5,5.3-26.3,48.7-27.6,52h14.3l2.1-4,1-1.9h20.5l3.1,6h14.3c-.9-2.3-12.7-24-20.6-38.8-3.4-6.6-6.1-11.7-6.9-13.3M571.4,246.6l3.9-7.6h0c0,.1,3.9,7.6,3.9,7.6h-7.9ZM404,264.7h41.7v-13h-28.5v-6.8h21.9v-12.9h-21.9v-6.9h28.5v-13h-41.7v52.6h0ZM454.7,212.2h13.6v52.5h-13.6v-52.5h0ZM637.7,236.8c-2.6-2.2-26.7-23.8-28.8-25.7v53.6h13.2v-24.6c2.2,2,26.1,23.4,28.7,25.7v-53.6h-13.1v24.6h0ZM686.4,252.8c4.6,0,8.6-2.6,11.2-5.8.7.8,8.3,8.5,9.1,9.3-3.6,3.9-10.6,9.7-20.3,9.7s-5.3-.5-7.8-1.3c-11.2-3.2-19.9-13.2-19.9-26.2s12.7-27.6,27.7-27.6,13.4,3.2,17.2,6.3l-6.3,12.1c-2-1.9-4.9-5.2-10.9-5.2s-14.1,6.4-14.1,14.4,5.5,13.5,12.7,14.2h1.4M754.7,225.2v-13h-41.8v52.5h41.8v-13h-28.5v-6.8h22v-12.9h-22v-6.9h28.5Z"/>
  <path class="cls-3" d="M50.9,388.7h6.5l14.5,36.4h-5.2l-4.2-10.7h-16.8l-4.2,10.7h-5.2s14.6-36.4,14.6-36.4ZM61,410.2l-6.8-17.2-6.7,17.2h13.5ZM83,418.8c1.8,2.3,4,3.6,6.6,3.6s4.6-1.8,4.6-4.1c0-5.9-12.8-3.7-12.8-13.1s3.5-7.4,8.4-7.4,7,1.7,8.9,4.3l-3.1,2.6c-1.4-2.1-3.4-3.3-5.8-3.3s-4.2,1.5-4.2,3.6c0,6,12.8,3.9,12.8,13.1s-3.9,7.9-8.9,7.9-7.4-1.7-9.8-4.6l3.3-2.6ZM110.5,418.8c1.8,2.3,4,3.6,6.7,3.6s4.6-1.8,4.6-4.1c0-5.9-12.8-3.7-12.8-13.1s3.5-7.4,8.4-7.4,7.1,1.7,8.9,4.3l-3.1,2.6c-1.4-2.1-3.4-3.3-5.8-3.3s-4.2,1.5-4.2,3.6c0,6,12.8,3.9,12.8,13.1s-3.9,7.9-8.8,7.9-7.4-1.7-9.8-4.6c0,0,3.1-2.6,3.1-2.6ZM137.1,389c0-1.7,1.4-3.1,3.1-3.1s3.1,1.4,3.1,3.1-1.4,3.1-3.1,3.1-3.1-1.4-3.1-3.1M138,398.9h4.4v26.2h-4.4v-26.2ZM156.5,418.8c1.8,2.3,4,3.6,6.7,3.6s4.6-1.8,4.6-4.1c0-5.9-12.8-3.7-12.8-13.1s3.5-7.4,8.4-7.4,7.1,1.7,8.9,4.3l-3.1,2.6c-1.4-2.1-3.4-3.3-5.8-3.3s-4.2,1.5-4.2,3.6c0,6,12.8,3.9,12.8,13.1s-4,7.9-8.9,7.9-7.4-1.7-9.8-4.6c0,0,3.2-2.6,3.2-2.6ZM185.6,403h-5v-4.1h5v-6.6h4.5v6.6h9.1v4.1h-9.1v13.4c0,4.1,2.1,5.2,5.3,5.2s2.9-.2,3.9-.6v3.9c-1.2.5-2.6.7-4.5.7-5.8,0-9.1-2.9-9.1-9.3v-13.3h-.1,0ZM209.2,418.7c0-4.1,3-7,8.6-7.8l8.8-1.5v-1.8c0-3.6-2.6-5.7-6.3-5.7s-5.6,1.3-7.1,3.6l-3.3-2.6c2.3-3.1,6-5,10.6-5,6.6,0,10.6,3.9,10.6,9.7v17.6h-4.4v-3.3c-2,2.8-5.3,4.4-8.8,4.4-5.2-.1-8.7-3.1-8.7-7.6M218.6,422.5c3.5,0,6.2-1.8,8.1-4.8v-5l-7.8,1.3c-3.6.6-5.3,2.2-5.3,4.5s1.9,4,5,4M244.7,398.9h4.4v3c2.1-2.3,4.8-4,8.7-4,5.9,0,10.3,3.9,10.3,11.4v15.9h-4.5v-15.7c0-4.7-2.6-7.4-6.7-7.4s-6.2,2.2-7.8,4.9v18.1h-4.4v-26.2h0ZM301.1,418.1c-1.6,2.3-4.2,3.9-7.4,3.9-5.7,0-9.7-4.4-9.7-10s4-10,9.6-10,5.9,1.6,7.5,3.9l3.5-2.7c-2.4-3.3-6.3-5.4-11-5.4-8.7,0-14.3,6.5-14.3,14.1s5.6,14.1,14.3,14.1,8.6-2.1,11-5.4l-3.5-2.5M326.4,426.2c-8.9,0-14.3-6.5-14.3-14.1s5.1-14.1,13.2-14.1,11.8,4.8,11.8,11.4-.2,2.1-.3,2.8h-20.1c0,5.9,3.9,10.1,9.8,10.1s6.1-1.6,7.9-3.9l3.3,2.6c-2.5,3.1-6.3,5.2-11.3,5.2M317.1,408.6h15.6c-.2-3.8-2.9-6.9-7.2-6.9s-7.4,2.4-8.4,6.9M380.1,426.2c-8.9,0-14.3-6.5-14.3-14.1s5.1-14.1,13.2-14.1,11.7,4.8,11.7,11.4-.2,2.1-.3,2.8h-20.1c0,5.9,3.9,10.1,9.8,10.1s6.1-1.6,7.9-3.9l3.3,2.6c-2.4,3.1-6.4,5.2-11.2,5.2M370.7,408.6h15.5c-.2-3.8-2.9-6.9-7.2-6.9s-7.3,2.4-8.3,6.9M404.2,403h-4.9v-4.1h4.9v-6.6h4.5v6.6h9.1v4.1h-9.1v13.4c0,4.1,2.1,5.2,5.2,5.2s2.9-.2,3.9-.6v3.9c-1.3.5-2.7.7-4.5.7-5.8,0-9.1-2.9-9.1-9.3v-13.3h0ZM448,398.9h4.4v2.9c2.4-2.6,5.5-4,9.3-4,8.2,0,13.5,6.5,13.5,14.1s-5.2,14.2-13.5,14.2-6.9-1.4-9.3-4v15.7h-4.4v-38.9h0ZM461.2,422c5.6,0,9.4-4.4,9.4-10s-3.8-10-9.4-10-6.8,1.8-8.8,5v10c2,3.2,5.1,5,8.8,5M487,398.9h4.4v3.3c1.9-2.3,4.3-3.8,7.6-3.8s1.6.1,2.3.3v4.6c-.8-.2-1.6-.4-2.6-.4-3.4,0-5.7,1.8-7.3,4.4v17.8h-4.4v-26.2h0ZM523,426.2c-8.8,0-14.3-6.5-14.3-14.1s5.1-14.1,13.2-14.1,11.8,4.8,11.8,11.4-.1,2.1-.3,2.8h-20.1c0,5.9,3.9,10.1,9.8,10.1s6.1-1.6,7.9-3.9l3.3,2.6c-2.4,3.1-6.4,5.2-11.3,5.2M513.7,408.6h15.6c-.1-3.8-2.9-6.9-7.2-6.9s-7.4,2.4-8.4,6.9M520,394.7l5.4-8.6h5l-6.1,8.6h-4.3ZM546.2,398.9l8.4,21.6,8.4-21.6h4.8l-10.3,26.2h-5.8l-10.3-26.2h4.8ZM589.4,426.2c-8.8,0-14.3-6.5-14.3-14.1s5.1-14.1,13.2-14.1,11.7,4.8,11.7,11.4,0,2.1-.3,2.8h-20.1c0,5.9,3.9,10.1,9.8,10.1s6.1-1.6,7.9-3.9l3.3,2.6c-2.4,3.1-6.2,5.2-11.2,5.2M580.1,408.6h15.6c0-3.8-2.9-6.9-7.2-6.9s-7.4,2.4-8.4,6.9M612.3,398.9h4.5v3c2.1-2.3,4.8-4,8.7-4,5.9,0,10.2,3.9,10.2,11.4v15.9h-4.5v-15.7c0-4.7-2.6-7.4-6.7-7.4s-6.2,2.2-7.8,4.9v18.1h-4.4v-26.2h0ZM650.7,403h-4.9v-4.1h4.9v-6.6h4.5v6.6h9.1v4.1h-9.1v13.4c0,4.1,2.1,5.2,5.3,5.2s2.9-.2,3.9-.6v3.9c-1.2.5-2.7.7-4.5.7-5.8,0-9.1-2.9-9.1-9.3v-13.3h-.1ZM674.9,389c0-1.7,1.4-3.1,3.1-3.1s3.1,1.4,3.1,3.1-1.4,3.1-3.1,3.1-3.1-1.4-3.1-3.1M675.8,398.9h4.4v26.2h-4.4v-26.2ZM720.4,412c0,7.6-5.8,14.1-14.2,14.1s-14.2-6.5-14.2-14.1,5.7-14.1,14.2-14.1,14.2,6.5,14.2,14.1M715.7,412c0-5.5-4-10-9.5-10s-9.6,4.5-9.6,10,4,10,9.6,10,9.5-4.6,9.5-10M732.2,398.9h4.4v3c2.1-2.3,4.8-4,8.8-4,5.9,0,10.2,3.9,10.2,11.4v15.9h-4.5v-15.7c0-4.7-2.6-7.4-6.6-7.4s-6.2,2.2-7.8,4.9v18.1h-4.5v-26.2h0ZM51.7,489.7c-8.9,0-14.3-6.5-14.3-14.1s5.1-14.1,13.2-14.1,11.7,4.8,11.7,11.4,0,2.1-.3,2.8h-20c0,5.9,3.9,10.1,9.8,10.1s6.1-1.6,7.9-3.9l3.3,2.6c-2.5,3.1-6.4,5.2-11.3,5.2M42.4,472.1h15.6c-.1-3.8-2.9-6.9-7.2-6.9s-7.4,2.4-8.4,6.9M74.6,462.5h4.4v3c2.1-2.3,4.8-4,8.8-4,5.9,0,10.2,3.9,10.2,11.4v15.9h-4.5v-15.8c0-4.7-2.6-7.4-6.7-7.4s-6.2,2.2-7.8,4.9v18.1h-4.4v-26.1h0ZM130.6,482.4c1.8,2.3,4,3.6,6.7,3.6s4.6-1.8,4.6-4.1c0-5.9-12.8-3.7-12.8-13.1s3.5-7.4,8.4-7.4,7.1,1.7,8.9,4.3l-3.1,2.6c-1.5-2.1-3.4-3.3-5.8-3.3s-4.2,1.5-4.2,3.6c0,6,12.8,3.9,12.8,13.1s-3.9,7.9-8.9,7.9-7.4-1.7-9.8-4.6c0,0,3.2-2.6,3.2-2.6ZM169.7,489.7c-8.8,0-14.3-6.5-14.3-14.1s5.1-14.1,13.2-14.1,11.7,4.8,11.7,11.4-.2,2.1-.3,2.8h-20c0,5.9,3.9,10.1,9.8,10.1s6.1-1.6,7.8-3.9l3.3,2.6c-2.4,3.1-6.3,5.2-11.2,5.2M160.4,472.1h15.6c-.2-3.8-2.9-6.9-7.3-6.9s-7.3,2.4-8.3,6.9M166.7,458.3l5.4-8.6h5l-6.1,8.6h-4.3ZM212,481.7c-1.6,2.3-4.2,3.9-7.4,3.9-5.7,0-9.7-4.4-9.7-10s4-10,9.6-10,5.9,1.6,7.5,3.9l3.5-2.7c-2.4-3.3-6.3-5.4-11-5.4-8.7,0-14.3,6.5-14.3,14.1s5.6,14.1,14.3,14.1,8.6-2.1,11-5.4l-3.5-2.5M244.4,462.5h4.5v14.8c0,7.8-4.5,12.5-11.6,12.5s-11.6-4.6-11.6-12.5v-14.8h4.4v15c0,5.1,2.7,8.1,7.2,8.1s7.1-3,7.1-8.1v-15h0ZM262.3,462.5h4.4v3.3c1.9-2.3,4.3-3.8,7.6-3.8s1.6,0,2.2.3v4.6c-.8-.2-1.6-.4-2.6-.4-3.4,0-5.7,1.8-7.3,4.4v17.8h-4.4v-26.2h.1ZM286.8,452.5c0-1.7,1.4-3.1,3.1-3.1s3.1,1.4,3.1,3.1-1.4,3.1-3.1,3.1-3.1-1.4-3.1-3.1M287.7,462.5h4.4v26.2h-4.4v-26.2ZM307.6,466.5h-4.9v-4.1h4.9v-6.6h4.5v6.6h9.1v4.1h-9.1v13.4c0,4.1,2.1,5.2,5.2,5.2s2.9-.2,3.9-.6v3.9c-1.2.5-2.7.7-4.5.7-5.8,0-9.1-2.9-9.1-9.3v-13.3h0ZM344.2,489.7c-8.9,0-14.3-6.5-14.3-14.1s5.1-14.1,13.2-14.1,11.7,4.8,11.7,11.4-.1,2.1-.3,2.8h-20.1c0,5.9,3.9,10.1,9.8,10.1s6.1-1.6,7.8-3.9l3.3,2.6c-2.3,3.1-6.2,5.2-11.1,5.2M334.8,472.1h15.6c-.1-3.8-2.9-6.9-7.2-6.9s-7.4,2.4-8.4,6.9M341.1,458.3l5.4-8.6h5l-6.1,8.6h-4.3ZM385.7,462.5h4.4v3c2.1-2.3,4.8-4,8.7-4,5.9,0,10.2,3.9,10.2,11.4v15.9h-4.5v-15.8c0-4.7-2.6-7.4-6.6-7.4s-6.2,2.2-7.9,4.9v18.1h-4.4v-26.1h.1,0ZM440.9,462.5h4.5v14.8c0,7.8-4.5,12.5-11.6,12.5s-11.6-4.6-11.6-12.5v-14.8h4.4v15c0,5.1,2.8,8.1,7.2,8.1s7.1-3,7.1-8.1v-15h0ZM458.8,462.5h4.4v2.9c2-2.3,4.6-3.9,8.2-3.9s7,1.8,8.6,5.3c2.1-3,4.9-5.3,9.3-5.3s9.7,3.8,9.7,10.9v16.4h-4.4v-16.2c0-4.4-2.4-6.9-6.2-6.9s-5.6,1.9-7.4,5c.1.6.1,1.2.1,1.7v16.4h-4.5v-16.2c0-4.4-2.3-6.9-6.1-6.9s-5.8,2.2-7.3,4.9v18.1h-4.4v-26.2h0ZM524.7,489.7c-8.8,0-14.3-6.5-14.3-14.1s5.1-14.1,13.2-14.1,11.7,4.8,11.7,11.4-.1,2.1-.3,2.8h-20.1c0,5.9,3.9,10.1,9.8,10.1s6.1-1.6,7.9-3.9l3.3,2.6c-2.5,3.1-6.4,5.2-11.2,5.2M515.3,472.1h15.5c-.1-3.8-2.9-6.9-7.2-6.9s-7.3,2.4-8.3,6.9M521.6,458.3l5.4-8.6h5l-6.1,8.6h-4.3ZM547.5,462.5h4.4v3.3c1.9-2.3,4.3-3.8,7.6-3.8s1.6,0,2.3.3v4.6c-.8-.2-1.6-.4-2.6-.4-3.4,0-5.7,1.8-7.3,4.4v17.8h-4.4v-26.2h0ZM571.9,452.5c0-1.7,1.4-3.1,3.1-3.1s3.1,1.4,3.1,3.1-1.4,3.1-3.1,3.1-3.1-1.4-3.1-3.1M572.8,462.5h4.4v26.2h-4.4v-26.2ZM602.5,461.4c3.9,0,7,1.5,9.3,4v-3h4.4v39h-4.4v-15.8c-2.3,2.6-5.5,4-9.3,4-8.2,0-13.5-6.5-13.5-14.2s5.3-14,13.5-14M603,485.5c3.7,0,6.8-1.7,8.9-5v-10c-2-3.2-5.1-5-8.9-5-5.5,0-9.3,4.4-9.3,10s3.8,10,9.3,10M648.5,462.5h4.5v14.8c0,7.8-4.5,12.5-11.6,12.5s-11.6-4.6-11.6-12.5v-14.8h4.4v15c0,5.1,2.7,8.1,7.2,8.1s7.1-3,7.1-8.1v-15h0ZM678.4,489.7c-8.8,0-14.3-6.5-14.3-14.1s5.1-14.1,13.2-14.1,11.7,4.8,11.7,11.4,0,2.1-.3,2.8h-20.1c0,5.9,3.9,10.1,9.8,10.1s6.1-1.6,7.8-3.9l3.3,2.6c-2.3,3.1-6.2,5.2-11.1,5.2M669,472.1h15.6c-.2-3.8-2.9-6.9-7.2-6.9s-7.3,2.4-8.4,6.9"/>
</svg>
