<svg xmlns="http://www.w3.org/2000/svg" xmlns:xlink="http://www.w3.org/1999/xlink" version="1.1" id="Calque_1" x="0px" y="0px" viewBox="0 0 554.11 476.33" style="enable-background:new 0 0 554.11 476.33;" xml:space="preserve" class="fr-artwork" aria-hidden="true" aria-focusable="false" focusable="false" width="100%">
    <style type="text/css">
<![CDATA[
    .fr-artwork-major {
        fill: #000091;
    }
    .fr-artwork-minor {
        fill: #e1000f;
    }

]]>
</style>
    <g><path class="fr-artwork-major" d="M139.88,476.33l6.24-26.71c0,0-75.07-53.76-116.67-143.82c0,0-75.81-144.46,68.37-305.8   c0,0-127.78,108.27-91.25,263.47C6.57,263.47,25.34,367.2,139.88,476.33z"></path><path class="fr-artwork-major" d="M122.76,366.93c0,0,31.36,29.44,23.17,77.69l-24.29-22.61C121.64,422.01,132.21,399.24,122.76,366.93z"></path></g><g><path class="fr-artwork-major" d="M146.35,291.22v0.8c0,0.64-0.11,1.49-0.32,2.56c-0.21,1.07-0.77,2.13-1.68,3.2c-0.91,1.07-2.27,1.99-4.08,2.76   c-1.81,0.77-4.32,1.16-7.51,1.16s-5.7-0.39-7.52-1.16c-1.81-0.77-3.17-1.69-4.08-2.76c-0.91-1.07-1.47-2.14-1.68-3.24   c-0.21-1.09-0.32-1.93-0.32-2.52v-2V254.2v-2.08c0-0.59,0.11-1.43,0.32-2.52c0.21-1.09,0.77-2.17,1.68-3.24   c0.9-1.07,2.26-1.99,4.08-2.76c1.81-0.77,4.32-1.16,7.52-1.16s5.7,0.39,7.51,1.16c1.81,0.77,3.17,1.69,4.08,2.76   c0.91,1.07,1.46,2.15,1.68,3.24c0.21,1.09,0.32,1.93,0.32,2.52v2.08h-6.8v-0.88c0-0.48-0.08-1-0.24-1.56   c-0.16-0.56-0.49-1.08-1-1.56c-0.51-0.48-1.21-0.89-2.12-1.24c-0.91-0.35-2.13-0.52-3.68-0.52c-1.44,0-2.6,0.17-3.48,0.52   c-0.88,0.35-1.56,0.79-2.04,1.32c-0.48,0.53-0.79,1.08-0.92,1.64c-0.13,0.56-0.2,1.08-0.2,1.56v0.72v35.82v0.72   c0,0.48,0.06,1,0.2,1.56c0.13,0.56,0.44,1.09,0.92,1.6c0.48,0.51,1.16,0.93,2.04,1.28c0.88,0.35,2.04,0.52,3.48,0.52   c1.55,0,2.77-0.18,3.68-0.52c0.91-0.35,1.61-0.76,2.12-1.24c0.5-0.48,0.84-1,1-1.56c0.16-0.56,0.24-1.05,0.24-1.48v-0.88v-4.08   v-6.96c0-0.9-0.05-1.64-0.16-2.2c-0.11-0.56-0.39-0.94-0.84-1.16c-0.45-0.21-1.13-0.24-2.04-0.08c-0.91,0.16-2.16,0.51-3.76,1.04   v-6.72c0.69-0.26,1.37-0.51,2.04-0.72c0.66-0.21,1.29-0.43,1.88-0.64c1.28-0.43,2.66-0.48,4.16-0.16c1.49,0.32,2.72,0.99,3.68,2   c0.48,0.48,0.84,0.96,1.08,1.44c0.24,0.48,0.43,1,0.56,1.56c0.13,0.56,0.2,1.21,0.2,1.96c0,0.69,0,1.55,0,2.56v4.96V291.22z"></path><path class="fr-artwork-major" d="M167.94,258.76c3.2,0,5.7,0.39,7.51,1.16c1.81,0.77,3.17,1.69,4.08,2.76c0.91,1.07,1.46,2.15,1.68,3.24   c0.21,1.09,0.32,1.93,0.32,2.52v2v0.08v1.76c0,0.91-0.17,1.92-0.52,3.04c-0.35,1.12-1.16,2.32-2.44,3.6   c-0.59,0.64-1.25,1.12-2,1.44c-0.75,0.32-1.41,0.56-2,0.72c-0.69,0.21-1.41,0.32-2.16,0.32h-6.08c-1.39,0-2.61,0.51-3.68,1.52   c-1.07,1.01-1.6,2.27-1.6,3.76v3.6c0,1.28,0.24,2.29,0.72,3.04c0.21,0.37,0.45,0.69,0.72,0.96c0.27,0.27,0.67,0.51,1.2,0.72   c0.43,0.21,0.97,0.4,1.64,0.56c0.67,0.16,1.53,0.24,2.6,0.24c1.39,0,2.48-0.15,3.28-0.44c0.8-0.29,1.36-0.55,1.68-0.76   c0.69-0.53,1.17-1.17,1.44-1.92c0.27-0.74,0.4-1.54,0.4-2.4h6.79v1.92c0,1.44-0.31,2.77-0.92,4c-0.61,1.23-1.56,2.29-2.84,3.2   c-0.91,0.64-2.16,1.2-3.76,1.68c-1.6,0.48-3.63,0.72-6.08,0.72c-1.81,0-3.38-0.15-4.72-0.44c-1.33-0.29-2.49-0.67-3.48-1.12   c-0.98-0.45-1.8-0.97-2.44-1.56c-0.64-0.58-1.17-1.17-1.6-1.76c-0.96-1.38-1.41-2.98-1.36-4.8v-1.84v-3.6v-16.15v-0.08v-2   c0-0.64,0.11-1.49,0.32-2.56c0.21-1.07,0.77-2.13,1.68-3.2c0.91-1.06,2.26-1.99,4.08-2.76   C162.23,259.15,164.74,258.76,167.94,258.76z M174.73,270.43v-0.72c0-0.48-0.07-1-0.2-1.56c-0.13-0.56-0.44-1.09-0.92-1.6   c-0.48-0.51-1.16-0.93-2.04-1.28c-0.88-0.35-2.04-0.52-3.48-0.52c-1.49,0-2.7,0.17-3.64,0.52c-0.93,0.35-1.65,0.76-2.16,1.24   c-0.5,0.48-0.84,1-1,1.56c-0.16,0.56-0.24,1.05-0.24,1.48v0.88v0.08v0.64v6.72c0.1-0.48,0.35-0.87,0.72-1.16   c0.37-0.29,0.8-0.52,1.28-0.68c0.48-0.16,0.96-0.27,1.44-0.32c0.48-0.05,0.85-0.08,1.12-0.08h4.56c1.23,0,2.29-0.44,3.2-1.32   c0.9-0.88,1.36-1.93,1.36-3.16v-0.64V270.43z"></path><path class="fr-artwork-major" d="M215.18,301.13h-6.79v-30.7v-0.72c0-0.48-0.07-1-0.2-1.56c-0.13-0.56-0.44-1.09-0.92-1.6   c-0.48-0.51-1.16-0.93-2.04-1.28c-0.88-0.35-2.04-0.52-3.47-0.52c-1.49,0-2.71,0.17-3.64,0.52c-0.93,0.35-1.65,0.76-2.16,1.24   c-0.51,0.48-0.84,1-1,1.56c-0.16,0.56-0.24,1.05-0.24,1.48v0.88v30.7h-6.8v-31.26v-1.44c0-0.64,0.11-1.49,0.32-2.56   c0.21-1.07,0.79-2.13,1.72-3.2c0.93-1.06,2.3-1.99,4.12-2.76c1.81-0.77,4.32-1.16,7.51-1.16c3.2,0,5.7,0.39,7.51,1.16   c1.81,0.77,3.17,1.69,4.08,2.76c0.9,1.07,1.46,2.15,1.68,3.24c0.21,1.09,0.32,1.93,0.32,2.52v0.8V301.13z"></path><path class="fr-artwork-major" d="M250.2,292.18c-0.05,2.77-1.17,5.08-3.36,6.92c-2.19,1.84-5.6,2.76-10.24,2.76c-2.4,0-4.47-0.26-6.2-0.76   c-1.73-0.51-3.15-1.2-4.27-2.08c-1.12-0.88-1.93-1.91-2.44-3.08c-0.51-1.17-0.76-2.43-0.76-3.76v-1.92h0.08v-16.23h-0.08v-1.84   c0-2.03,0.52-3.86,1.56-5.52c1.04-1.65,2.54-2.82,4.52-3.52c0.96-0.32,2.05-0.69,3.27-1.12c1.23-0.43,2.4-0.84,3.52-1.24   c1.12-0.4,2.1-0.76,2.96-1.08c0.85-0.32,1.39-0.5,1.6-0.56c0.21-0.11,0.49-0.25,0.84-0.44c0.35-0.19,0.68-0.47,1-0.84   c0.32-0.37,0.6-0.8,0.84-1.28c0.24-0.48,0.36-1.04,0.36-1.68v-1.52v-10.23h6.79V292.18z M236.61,295.86c1.33,0,2.44-0.15,3.32-0.44   c0.88-0.29,1.57-0.68,2.08-1.16c0.51-0.48,0.87-1.01,1.08-1.6c0.21-0.58,0.32-1.14,0.32-1.68v-16.95v-0.4v-9.91   c-0.11,0.59-0.36,1.01-0.76,1.28c-0.4,0.27-0.81,0.45-1.24,0.56c-0.8,0.27-1.67,0.56-2.6,0.88c-0.94,0.32-1.8,0.61-2.6,0.88   c-0.96,0.32-1.86,0.64-2.71,0.96c-0.64,0.27-1.25,0.67-1.84,1.2c-0.48,0.43-0.92,0.97-1.32,1.64c-0.4,0.67-0.6,1.51-0.6,2.52v0.4   v16.55c0.05,0.69,0.2,1.36,0.44,2c0.24,0.64,0.61,1.2,1.12,1.68c0.5,0.48,1.2,0.87,2.08,1.16   C234.25,295.71,235.33,295.86,236.61,295.86z"></path><path class="fr-artwork-major" d="M271.62,258.76c4.69,0,8.13,0.92,10.31,2.76c2.19,1.84,3.28,4.14,3.28,6.91v3.84v17.51v2.32   c0,0.96-0.17,2.01-0.52,3.16c-0.34,1.15-1.03,2.2-2.04,3.16c-1.01,0.96-2.4,1.76-4.16,2.4c-1.76,0.64-4.05,0.96-6.88,0.96   s-5.12-0.32-6.88-0.96c-1.76-0.64-3.14-1.44-4.16-2.4c-1.01-0.96-1.69-2.01-2.04-3.16c-0.35-1.15-0.52-2.2-0.52-3.16v-3.76   c0-2.02,0.52-3.86,1.56-5.51c1.04-1.65,2.52-2.83,4.44-3.52c0.96-0.32,2.05-0.69,3.28-1.12c1.22-0.43,2.41-0.84,3.56-1.24   c1.15-0.4,2.14-0.76,3-1.08c0.85-0.32,1.38-0.5,1.6-0.56c0.21-0.11,0.49-0.25,0.84-0.44c0.35-0.19,0.68-0.47,1-0.84   c0.32-0.37,0.6-0.8,0.84-1.28c0.24-0.48,0.36-1.04,0.36-1.68v-1.52c0-0.53-0.11-1.08-0.32-1.64c-0.21-0.56-0.59-1.08-1.12-1.56   c-0.53-0.48-1.24-0.87-2.12-1.16c-0.88-0.29-1.99-0.44-3.32-0.44c-2.67,0-4.46,0.55-5.4,1.64c-0.93,1.09-1.4,2.41-1.4,3.95h-6.79   v-1.92c0-1.33,0.25-2.58,0.76-3.76c0.5-1.17,1.32-2.2,2.44-3.08c1.12-0.88,2.53-1.57,4.24-2.08   C267.17,259.01,269.23,258.76,271.62,258.76z M278.5,279.94c-0.11,0.53-0.38,0.93-0.8,1.2c-0.43,0.27-0.83,0.45-1.2,0.56   c-0.8,0.27-1.67,0.57-2.6,0.92c-0.93,0.35-1.8,0.65-2.6,0.92c-0.96,0.32-1.87,0.64-2.72,0.96c-0.64,0.27-1.25,0.64-1.84,1.12   c-0.48,0.43-0.92,0.97-1.32,1.64c-0.4,0.67-0.6,1.51-0.6,2.52c0,2.03,0.48,3.53,1.44,4.52c0.96,0.99,2.74,1.48,5.36,1.48   c2.66,0,4.48-0.52,5.43-1.56c0.96-1.04,1.44-2.52,1.44-4.44V279.94z"></path><path class="fr-artwork-major" d="M306.64,258.84c0.91,0,1.69-0.01,2.36-0.04c0.67-0.03,1.37,0.01,2.12,0.12l-1.52,5.84   c-0.64,0-1.17,0.01-1.6,0.04c-0.43,0.03-0.93,0.04-1.52,0.04c-1.44,0-2.6,0.19-3.48,0.56c-0.88,0.37-1.56,0.81-2.04,1.32   c-0.48,0.51-0.79,1.04-0.92,1.6c-0.13,0.56-0.2,1.08-0.2,1.56v0.72v30.54h-6.8v-30.78v-1.84c0-0.58,0.11-1.42,0.32-2.52   c0.21-1.09,0.77-2.17,1.68-3.24c0.9-1.07,2.26-1.98,4.07-2.76C300.93,259.23,303.44,258.84,306.64,258.84z"></path><path class="fr-artwork-major" d="M363.56,301.13h-6.79v-30.7v-0.72c0-0.48-0.07-1-0.2-1.56c-0.13-0.56-0.43-1.09-0.88-1.6   c-0.45-0.51-1.12-0.93-2-1.28c-0.88-0.35-2.07-0.52-3.56-0.52c-1.49,0-2.71,0.17-3.64,0.52c-0.93,0.35-1.65,0.76-2.16,1.24   c-0.51,0.48-0.84,1-1,1.56c-0.16,0.56-0.24,1.05-0.24,1.48v0.88v30.7h-6.8v-30.7v-0.72c0-0.48-0.07-1-0.2-1.56   c-0.13-0.56-0.43-1.09-0.88-1.6c-0.45-0.51-1.12-0.93-2-1.28c-0.88-0.35-2.07-0.52-3.56-0.52c-1.49,0-2.7,0.17-3.64,0.52   c-0.93,0.35-1.65,0.76-2.16,1.24c-0.51,0.48-0.84,1-1,1.56c-0.16,0.56-0.24,1.05-0.24,1.48v0.88v30.7h-6.72v-31.26v-1.44   c0-0.64,0.11-1.49,0.32-2.56c0.22-1.07,0.77-2.13,1.68-3.2c0.91-1.06,2.27-1.99,4.08-2.76c1.81-0.77,4.32-1.16,7.51-1.16   c2.56,0,4.65,0.25,6.28,0.76c1.62,0.51,2.94,1.13,3.96,1.88c1.01-0.75,2.33-1.37,3.96-1.88c1.62-0.5,3.72-0.76,6.28-0.76   c3.19,0,5.7,0.39,7.51,1.16c1.81,0.77,3.17,1.69,4.08,2.76c0.91,1.07,1.47,2.15,1.68,3.24c0.21,1.09,0.32,1.93,0.32,2.52v0.8   V301.13z"></path><path class="fr-artwork-major" d="M385.07,258.76c3.2,0,5.7,0.39,7.52,1.16c1.81,0.77,3.17,1.69,4.08,2.76c0.91,1.07,1.47,2.15,1.68,3.24   c0.21,1.09,0.32,1.93,0.32,2.52v2v0.08v1.76c0,0.91-0.18,1.92-0.52,3.04c-0.35,1.12-1.16,2.32-2.44,3.6   c-0.59,0.64-1.25,1.12-2,1.44c-0.75,0.32-1.41,0.56-2,0.72c-0.7,0.21-1.41,0.32-2.16,0.32h-6.08c-1.39,0-2.61,0.51-3.68,1.52   c-1.07,1.01-1.6,2.27-1.6,3.76v3.6c0,1.28,0.24,2.29,0.72,3.04c0.22,0.37,0.45,0.69,0.72,0.96c0.27,0.27,0.67,0.51,1.2,0.72   c0.43,0.21,0.97,0.4,1.64,0.56c0.67,0.16,1.53,0.24,2.6,0.24c1.38,0,2.48-0.15,3.28-0.44c0.8-0.29,1.36-0.55,1.68-0.76   c0.69-0.53,1.17-1.17,1.44-1.92c0.27-0.74,0.4-1.54,0.4-2.4h6.8v1.92c0,1.44-0.31,2.77-0.92,4c-0.62,1.23-1.56,2.29-2.84,3.2   c-0.91,0.64-2.16,1.2-3.76,1.68c-1.6,0.48-3.62,0.72-6.07,0.72c-1.81,0-3.39-0.15-4.72-0.44c-1.33-0.29-2.49-0.67-3.48-1.12   c-0.99-0.45-1.8-0.97-2.44-1.56c-0.64-0.58-1.17-1.17-1.6-1.76c-0.96-1.38-1.41-2.98-1.36-4.8v-1.84v-3.6v-16.15v-0.08v-2   c0-0.64,0.1-1.49,0.32-2.56c0.21-1.07,0.78-2.13,1.68-3.2c0.91-1.06,2.27-1.99,4.08-2.76   C379.36,259.15,381.87,258.76,385.07,258.76z M391.86,270.43v-0.72c0-0.48-0.07-1-0.2-1.56c-0.14-0.56-0.44-1.09-0.92-1.6   c-0.48-0.51-1.16-0.93-2.04-1.28c-0.88-0.35-2.04-0.52-3.48-0.52c-1.49,0-2.71,0.17-3.64,0.52c-0.93,0.35-1.65,0.76-2.16,1.24   c-0.51,0.48-0.84,1-1,1.56c-0.16,0.56-0.24,1.05-0.24,1.48v0.88v0.08v0.64v6.72c0.1-0.48,0.35-0.87,0.72-1.16   c0.38-0.29,0.8-0.52,1.28-0.68c0.48-0.16,0.96-0.27,1.43-0.32c0.48-0.05,0.85-0.08,1.12-0.08h4.56c1.23,0,2.29-0.44,3.2-1.32   c0.9-0.88,1.36-1.93,1.36-3.16v-0.64V270.43z"></path><path class="fr-artwork-major" d="M418.64,258.84c0.91,0,1.69-0.01,2.36-0.04c0.67-0.03,1.37,0.01,2.12,0.12l-1.52,5.84   c-0.64,0-1.17,0.01-1.6,0.04c-0.43,0.03-0.94,0.04-1.52,0.04c-1.44,0-2.6,0.19-3.48,0.56c-0.88,0.37-1.56,0.81-2.04,1.32   c-0.48,0.51-0.79,1.04-0.92,1.6c-0.14,0.56-0.2,1.08-0.2,1.56v0.72v30.54h-6.79v-30.78v-1.84c0-0.58,0.11-1.42,0.32-2.52   c0.21-1.09,0.77-2.17,1.68-3.24c0.91-1.07,2.26-1.98,4.08-2.76C412.94,259.23,415.44,258.84,418.64,258.84z"></path><path class="fr-artwork-major" d="M435.59,243.25v8.07h-6.72v-8.07H435.59z M428.87,259.4h6.72v41.73h-6.72V259.4z"></path><path class="fr-artwork-major" d="M457.1,258.76c3.2,0,5.7,0.39,7.52,1.16c1.81,0.77,3.17,1.69,4.08,2.76c0.91,1.07,1.46,2.15,1.68,3.24   c0.21,1.09,0.32,1.93,0.32,2.52v2v0.08v1.76c0,0.91-0.17,1.92-0.52,3.04c-0.35,1.12-1.16,2.32-2.44,3.6   c-0.59,0.64-1.25,1.12-2,1.44c-0.75,0.32-1.41,0.56-2,0.72c-0.7,0.21-1.41,0.32-2.16,0.32h-6.08c-1.39,0-2.61,0.51-3.68,1.52   c-1.07,1.01-1.6,2.27-1.6,3.76v3.6c0,1.28,0.24,2.29,0.72,3.04c0.21,0.37,0.45,0.69,0.72,0.96c0.26,0.27,0.66,0.51,1.2,0.72   c0.43,0.21,0.97,0.4,1.64,0.56c0.66,0.16,1.53,0.24,2.6,0.24c1.39,0,2.48-0.15,3.28-0.44c0.8-0.29,1.36-0.55,1.68-0.76   c0.69-0.53,1.17-1.17,1.44-1.92c0.27-0.74,0.4-1.54,0.4-2.4h6.79v1.92c0,1.44-0.31,2.77-0.92,4c-0.61,1.23-1.56,2.29-2.84,3.2   c-0.91,0.64-2.16,1.2-3.76,1.68c-1.6,0.48-3.62,0.72-6.08,0.72c-1.81,0-3.38-0.15-4.72-0.44c-1.33-0.29-2.49-0.67-3.48-1.12   c-0.99-0.45-1.8-0.97-2.44-1.56c-0.64-0.58-1.17-1.17-1.6-1.76c-0.96-1.38-1.41-2.98-1.36-4.8v-1.84v-3.6v-16.15v-0.08v-2   c0-0.64,0.11-1.49,0.32-2.56c0.21-1.07,0.77-2.13,1.68-3.2c0.9-1.06,2.26-1.99,4.08-2.76C451.39,259.15,453.9,258.76,457.1,258.76z    M463.89,270.43v-0.72c0-0.48-0.07-1-0.2-1.56c-0.13-0.56-0.44-1.09-0.92-1.6c-0.48-0.51-1.16-0.93-2.04-1.28   c-0.88-0.35-2.04-0.52-3.48-0.52c-1.49,0-2.71,0.17-3.64,0.52c-0.93,0.35-1.65,0.76-2.16,1.24c-0.51,0.48-0.84,1-1,1.56   c-0.16,0.56-0.24,1.05-0.24,1.48v0.88v0.08v0.64v6.72c0.11-0.48,0.35-0.87,0.72-1.16c0.37-0.29,0.8-0.52,1.28-0.68   c0.48-0.16,0.96-0.27,1.44-0.32c0.48-0.05,0.85-0.08,1.12-0.08h4.56c1.23,0,2.29-0.44,3.2-1.32c0.91-0.88,1.36-1.93,1.36-3.16   v-0.64V270.43z"></path><path class="fr-artwork-major" d="M135.63,349.41h-4.1v-18.54v-0.44c0-0.29-0.04-0.6-0.12-0.94c-0.08-0.34-0.26-0.66-0.55-0.97   c-0.29-0.31-0.7-0.56-1.23-0.77c-0.53-0.21-1.23-0.32-2.1-0.32c-0.9,0-1.63,0.1-2.2,0.32c-0.56,0.21-1,0.46-1.3,0.75   c-0.31,0.29-0.51,0.6-0.6,0.94c-0.1,0.34-0.14,0.64-0.14,0.89v0.53v18.54h-4.1v-18.87v-0.87c0-0.39,0.06-0.9,0.19-1.55   c0.13-0.64,0.48-1.29,1.04-1.93c0.56-0.64,1.39-1.2,2.48-1.67c1.1-0.46,2.61-0.7,4.54-0.7c1.94,0,3.44,0.23,4.54,0.7   c1.1,0.47,1.92,1.02,2.46,1.67c0.55,0.64,0.89,1.29,1.02,1.96c0.12,0.66,0.19,1.17,0.19,1.52v0.48V349.41z"></path><path class="fr-artwork-major" d="M169.91,323.82c2.83,0,4.91,0.55,6.23,1.67c1.32,1.11,1.98,2.5,1.98,4.18v2.32v10.57v1.4   c0,0.58-0.11,1.21-0.32,1.91c-0.21,0.69-0.62,1.32-1.23,1.9c-0.61,0.58-1.45,1.06-2.51,1.45c-1.06,0.39-2.45,0.58-4.15,0.58   c-1.7,0-3.09-0.2-4.15-0.58c-1.06-0.39-1.9-0.87-2.51-1.45c-0.61-0.58-1.02-1.21-1.23-1.9c-0.21-0.7-0.32-1.33-0.32-1.91v-2.27   c0-1.22,0.32-2.33,0.94-3.33c0.63-1,1.52-1.7,2.68-2.12c0.58-0.19,1.24-0.42,1.98-0.67c0.74-0.26,1.46-0.51,2.15-0.75   c0.69-0.24,1.3-0.46,1.81-0.65c0.52-0.19,0.84-0.31,0.97-0.34c0.13-0.06,0.3-0.15,0.51-0.26c0.21-0.11,0.41-0.28,0.6-0.51   c0.19-0.22,0.36-0.48,0.51-0.77c0.14-0.29,0.22-0.63,0.22-1.02v-0.91c0-0.32-0.07-0.65-0.19-0.99c-0.13-0.34-0.35-0.65-0.68-0.94   c-0.32-0.29-0.75-0.52-1.28-0.7c-0.53-0.18-1.2-0.27-2-0.27c-1.61,0-2.69,0.33-3.26,0.99c-0.56,0.66-0.85,1.46-0.85,2.39h-4.11   v-1.16c0-0.81,0.15-1.56,0.46-2.27c0.31-0.71,0.8-1.33,1.47-1.86c0.68-0.53,1.53-0.95,2.56-1.26   C167.22,323.97,168.46,323.82,169.91,323.82z M174.06,336.62c-0.07,0.32-0.23,0.56-0.48,0.72c-0.26,0.16-0.5,0.27-0.73,0.34   c-0.48,0.16-1,0.35-1.57,0.56c-0.56,0.21-1.09,0.39-1.57,0.56c-0.58,0.19-1.13,0.38-1.64,0.58c-0.39,0.16-0.76,0.39-1.11,0.68   c-0.29,0.26-0.56,0.59-0.8,0.99c-0.24,0.4-0.36,0.91-0.36,1.52c0,1.23,0.29,2.13,0.87,2.73c0.58,0.6,1.66,0.89,3.23,0.89   c1.61,0,2.7-0.31,3.28-0.94c0.58-0.63,0.87-1.52,0.87-2.68V336.62z"></path><path class="fr-artwork-major" d="M217.51,345.79v3.62c-1.93,0-3.44-0.23-4.54-0.7c-1.09-0.47-1.92-1.02-2.48-1.67   c-0.56-0.64-0.91-1.29-1.04-1.95c-0.13-0.66-0.2-1.17-0.2-1.52v-0.87v-15.45h-3.09v-3.43h3.09v-6.42h4.1v6.42h4.15v3.43h-4.15   v15.06v0.43c0,0.29,0.04,0.6,0.12,0.94c0.08,0.34,0.26,0.67,0.55,0.99c0.29,0.32,0.7,0.59,1.23,0.79c0.53,0.21,1.23,0.31,2.1,0.31   H217.51z"></path><path class="fr-artwork-major" d="M248.84,314.45v4.88h-4.06v-4.88H248.84z M244.78,324.21h4.06v25.2h-4.06V324.21z"></path><path class="fr-artwork-major" d="M293.3,343.18v0.77c0,0.39-0.07,0.9-0.2,1.55c-0.12,0.64-0.46,1.29-1.01,1.93c-0.55,0.64-1.37,1.2-2.46,1.66   c-1.1,0.47-2.61,0.7-4.54,0.7c-1.93,0-3.45-0.24-4.54-0.7c-1.1-0.47-1.92-1.02-2.46-1.66c-0.54-0.64-0.88-1.3-1.01-1.96   c-0.13-0.66-0.19-1.17-0.19-1.52v-0.53v-13.76c0-0.36,0.06-0.86,0.19-1.52c0.13-0.66,0.47-1.31,1.01-1.96   c0.55-0.64,1.37-1.2,2.46-1.67c1.09-0.46,2.61-0.7,4.54-0.7c1.93,0,3.44,0.23,4.54,0.7c1.09,0.47,1.91,1.02,2.46,1.67   c0.54,0.64,0.88,1.29,1.01,1.93c0.13,0.65,0.2,1.16,0.2,1.55V343.18z M289.2,342.7v-11.78v-0.53c0-0.29-0.05-0.6-0.14-0.94   c-0.1-0.34-0.3-0.66-0.6-0.94c-0.31-0.29-0.73-0.54-1.28-0.75c-0.55-0.21-1.29-0.32-2.22-0.32c-0.87,0-1.57,0.1-2.1,0.32   c-0.53,0.21-0.94,0.46-1.23,0.77c-0.29,0.31-0.48,0.64-0.55,0.99c-0.08,0.35-0.12,0.66-0.12,0.92v0.49v11.78v0.48   c0,0.26,0.04,0.56,0.12,0.92c0.08,0.35,0.26,0.68,0.55,0.99c0.29,0.31,0.7,0.56,1.23,0.77c0.53,0.21,1.23,0.31,2.1,0.31   c0.93,0,1.67-0.11,2.22-0.31c0.55-0.21,0.97-0.46,1.28-0.75c0.3-0.29,0.51-0.6,0.6-0.94c0.1-0.34,0.14-0.65,0.14-0.94V342.7z"></path><path class="fr-artwork-major" d="M337.81,349.41h-4.11v-18.54v-0.44c0-0.29-0.04-0.6-0.12-0.94c-0.08-0.34-0.27-0.66-0.56-0.97   c-0.29-0.31-0.7-0.56-1.23-0.77c-0.53-0.21-1.23-0.32-2.1-0.32c-0.9,0-1.63,0.1-2.2,0.32c-0.56,0.21-1,0.46-1.3,0.75   c-0.31,0.29-0.51,0.6-0.6,0.94c-0.1,0.34-0.14,0.64-0.14,0.89v0.53v18.54h-4.1v-18.87v-0.87c0-0.39,0.06-0.9,0.19-1.55   c0.13-0.64,0.47-1.29,1.04-1.93c0.56-0.64,1.39-1.2,2.49-1.67c1.1-0.46,2.61-0.7,4.54-0.7c1.93,0,3.44,0.23,4.54,0.7   c1.09,0.47,1.91,1.02,2.46,1.67c0.55,0.64,0.89,1.29,1.01,1.96c0.13,0.66,0.2,1.17,0.2,1.52v0.48V349.41z"></path><path class="fr-artwork-major" d="M374.07,323.82c2.83,0,4.91,0.55,6.23,1.67c1.32,1.11,1.98,2.5,1.98,4.18v2.32v10.57v1.4   c0,0.58-0.11,1.21-0.31,1.91c-0.21,0.69-0.62,1.32-1.23,1.9c-0.61,0.58-1.45,1.06-2.51,1.45c-1.06,0.39-2.44,0.58-4.15,0.58   c-1.71,0-3.09-0.2-4.15-0.58c-1.06-0.39-1.9-0.87-2.51-1.45c-0.61-0.58-1.02-1.21-1.23-1.9c-0.21-0.7-0.31-1.33-0.31-1.91v-2.27   c0-1.22,0.31-2.33,0.94-3.33c0.63-1,1.52-1.7,2.68-2.12c0.58-0.19,1.24-0.42,1.98-0.67c0.74-0.26,1.46-0.51,2.15-0.75   c0.7-0.24,1.3-0.46,1.81-0.65c0.51-0.19,0.83-0.31,0.96-0.34c0.13-0.06,0.3-0.15,0.51-0.26c0.21-0.11,0.41-0.28,0.61-0.51   c0.19-0.22,0.36-0.48,0.5-0.77c0.15-0.29,0.22-0.63,0.22-1.02v-0.91c0-0.32-0.06-0.65-0.19-0.99c-0.12-0.34-0.35-0.65-0.67-0.94   c-0.32-0.29-0.75-0.52-1.28-0.7c-0.53-0.18-1.2-0.27-2-0.27c-1.61,0-2.7,0.33-3.26,0.99c-0.56,0.66-0.84,1.46-0.84,2.39h-4.1v-1.16   c0-0.81,0.15-1.56,0.46-2.27c0.31-0.71,0.79-1.33,1.47-1.86c0.68-0.53,1.53-0.95,2.56-1.26   C371.38,323.97,372.62,323.82,374.07,323.82z M378.22,336.62c-0.06,0.32-0.22,0.56-0.48,0.72c-0.25,0.16-0.5,0.27-0.72,0.34   c-0.48,0.16-1,0.35-1.57,0.56c-0.56,0.21-1.09,0.39-1.57,0.56c-0.58,0.19-1.13,0.38-1.64,0.58c-0.39,0.16-0.75,0.39-1.11,0.68   c-0.29,0.26-0.56,0.59-0.8,0.99c-0.24,0.4-0.36,0.91-0.36,1.52c0,1.23,0.29,2.13,0.87,2.73c0.58,0.6,1.66,0.89,3.23,0.89   c1.61,0,2.7-0.31,3.28-0.94c0.58-0.63,0.87-1.52,0.87-2.68V336.62z"></path><path class="fr-artwork-major" d="M411.58,314.41h4.06v35h-4.06V314.41z"></path><path class="fr-artwork-major" d="M451.94,323.82c1.93,0,3.44,0.23,4.54,0.7c1.1,0.47,1.92,1.02,2.46,1.67c0.55,0.64,0.89,1.29,1.02,1.96   c0.13,0.66,0.19,1.17,0.19,1.52v1.21v0.05v1.06c0,0.55-0.11,1.16-0.32,1.83c-0.21,0.68-0.7,1.4-1.47,2.17   c-0.35,0.39-0.75,0.68-1.21,0.87c-0.45,0.19-0.85,0.34-1.21,0.43c-0.42,0.13-0.85,0.19-1.3,0.19h-3.67c-0.84,0-1.58,0.31-2.22,0.92   c-0.65,0.61-0.97,1.37-0.97,2.27v2.17c0,0.77,0.14,1.38,0.43,1.84c0.13,0.22,0.28,0.42,0.44,0.58c0.16,0.16,0.4,0.31,0.72,0.43   c0.26,0.13,0.59,0.24,0.99,0.34c0.4,0.1,0.93,0.15,1.57,0.15c0.84,0,1.5-0.09,1.98-0.26c0.48-0.17,0.82-0.33,1.02-0.46   c0.42-0.32,0.71-0.71,0.87-1.16c0.16-0.45,0.24-0.94,0.24-1.45h4.11V344c0,0.87-0.19,1.67-0.56,2.41   c-0.37,0.74-0.94,1.38-1.72,1.93c-0.54,0.39-1.3,0.72-2.27,1.01c-0.96,0.29-2.19,0.44-3.67,0.44c-1.1,0-2.04-0.09-2.85-0.27   c-0.8-0.18-1.5-0.4-2.1-0.67c-0.6-0.28-1.08-0.59-1.47-0.94c-0.39-0.35-0.71-0.71-0.97-1.06c-0.58-0.84-0.85-1.8-0.82-2.9v-1.11   v-2.17v-9.75v-0.05v-1.21c0-0.39,0.06-0.9,0.19-1.55c0.12-0.64,0.46-1.29,1.01-1.93c0.55-0.64,1.37-1.2,2.46-1.67   C448.49,324.05,450,323.82,451.94,323.82z M456.04,330.87v-0.44c0-0.29-0.04-0.6-0.12-0.94c-0.08-0.34-0.27-0.66-0.56-0.97   c-0.29-0.31-0.7-0.56-1.23-0.77c-0.53-0.21-1.24-0.32-2.1-0.32c-0.9,0-1.63,0.1-2.2,0.32c-0.56,0.21-1,0.46-1.3,0.75   c-0.31,0.29-0.51,0.6-0.6,0.94c-0.1,0.34-0.14,0.64-0.14,0.89v0.53v0.05v0.39v4.06c0.07-0.29,0.21-0.52,0.43-0.7   c0.23-0.17,0.48-0.31,0.77-0.41c0.29-0.1,0.58-0.16,0.87-0.19c0.29-0.03,0.51-0.05,0.68-0.05h2.75c0.74,0,1.38-0.27,1.93-0.8   c0.55-0.53,0.82-1.17,0.82-1.91v-0.39V330.87z"></path></g><path class="fr-artwork-major" d="M90.73,258.79c2.18,32.04,12.15,43.06,12.15,43.06H50.17c0,0-11-5.21-14.14-43.06H90.73z"></path><path class="fr-artwork-minor" d="M541.96,258.79c2.18,32.04,12.15,43.06,12.15,43.06H501.4c0,0-11-5.21-14.14-43.06H541.96z"></path></svg>
