<?xml version="1.0" encoding="UTF-8"?>
<svg id="Calque_2" data-name="Calque 2" xmlns="http://www.w3.org/2000/svg" viewBox="0 0 241.54 241.54">
  <defs>
    <style>
      .cls-1 {
        fill: #034269;
      }

      .cls-2 {
        fill: #002c49;
      }

      .cls-3 {
        fill: #fff;
      }

      .cls-4 {
        fill: #e3271c;
      }

      .cls-5 {
        fill: #a2a2a3;
      }
    </style>
  </defs>
  <g id="Calque_1-2" data-name="Calque 1">
    <g>
      <path class="cls-3" d="M120.77,240.79C54.49,240.79,.75,187.05,.75,120.77S54.49,.75,120.77,.75s120.02,53.74,120.02,120.02-53.73,120.02-120.02,120.02h0Z"/>
      <path class="cls-1" d="M221.26,166.58c.37,.03,.75,.06,1.03,.18l.02-.04c-.21-.13-.5-.41-.81-.73l-2.03-2.09-1.11,2.43,2.9,.26h0Zm.34-74.56c.42,1.53,1.77,2.82,4.41,2.08,2.1-.59,3.2-1.87,2.65-3.84l-.42-1.49-6.6,1.84c-.32,.09-.36,.28-.3,.5l.25,.9h0ZM38.1,56.31l.59-.73c.99-1.24,1.25-3.08-.88-4.8-1.7-1.37-3.38-1.51-4.66,.08l-.97,1.21,5.35,4.29c.26,.21,.44,.12,.58-.06h0Zm190.73,73.95c-2.96-.33-3.95,.79-4.08,2.07-.14,1.27,.58,2.58,3.54,2.9,3,.33,4.01-.81,4.15-2.06,.13-1.17-.56-2.58-3.6-2.91h0Zm4.6-3.95l.14-6.35h-.22s-.28,.79-.28,.79c-.06,.18-.16,.19-.46,.18l-6.7-.15c-.29,0-.4-.02-.46-.2l-.25-.82h-.2s-.09,3.96-.09,3.96h.21s.32-1.04,.32-1.04c.04-.16,.17-.19,.46-.18l2.98,.06-.05,2.21c0,.29-.02,.39-.19,.44l-.82,.26v.33s2.53,.05,2.53,.05v-.33s-.7-.29-.7-.29c-.15-.07-.16-.16-.16-.45l.05-2.21,3.3,.07-.06,2.49c0,.31-.12,.47-.31,.53l-.84,.21v.39s1.8,.04,1.8,.04h0Zm-4.39,2.12c-2.94-.32-4.63,1.24-4.92,3.83-.26,2.41,1.37,4.53,3.96,4.82,3.14,.35,4.72-1.46,4.98-3.83,.25-2.23-1.25-4.51-4.03-4.81h0Zm2.94,11.46l-.21-.04-.43,.74c-.08,.15-.18,.14-.48,.08l-6.56-1.37c-.29-.06-.38-.09-.41-.27l-.09-.86-.2-.04-.76,3.64,.2,.04,.43-.74c.09-.15,.2-.15,.49-.09l6.93,1.44-.12,.58c-.24,1.16-.73,1.94-2.16,1.64-1.3-.27-1.63-1.26-1.41-2.34l.07-.32-4.91,2.17-.47,2.25,.2,.04,.29-.32c.14-.15,.28-.24,.5-.35l3.87-1.82c0,1.09,.45,2.25,1.74,2.52,1.68,.35,2.37-1.1,2.69-2.64l.82-3.94h0Zm-2.3,10.71l-.21-.07-.55,.73c-.12,.15-.22,.13-.5,.04l-6.35-2.08c-.28-.09-.37-.13-.37-.32v-.85s-.19-.06-.19-.06l-.96,2.92,.19,.06,.55-.8c.12-.15,.22-.14,.51-.05l4.74,1.55c.6,.2,.84,.28,1,.32l-.02,.07c-.32-.04-.68,0-1.06,.02l-6.44,.39-.25,.77,4.98,4.14c.43,.37,.77,.64,.91,.74l-.02,.06c-.29-.11-.68-.24-.99-.34l-4.89-1.6c-.28-.09-.37-.13-.38-.32v-.84s-.2-.06-.2-.06l-1.14,3.49,.2,.06,.51-.69c.11-.14,.22-.13,.5-.04l6.37,2.08c.28,.09,.37,.15,.37,.33v.85l.21,.07,.93-2.84-4.61-3.84c-.39-.31-.66-.54-.95-.7v-.04c.4,.07,.7,.06,1.2,.04l5.93-.27,.96-2.93h0Zm-5.91,16.59l-5.82-6.13c-.2-.21-.25-.34-.28-.53l-.06-.48-.19-.09-1.12,2.46,.19,.09,.57-.61c.12-.14,.27-.17,.48,.04l1.41,1.44-1.31,2.87-2-.18c-.29-.02-.37-.14-.34-.34l.09-.83-.18-.08-1.47,3.22,.18,.09,.41-.28c.16-.11,.26-.14,.55-.13l8.37,.6,.51-1.13h0Zm-2.86,5.59l-1.79-1.01-.2,.35,.82,.77c.15,.13,.17,.33,.01,.6l-.87,1.55-6.08-3.43c-.25-.14-.34-.22-.3-.39l.2-.89-.17-.1-1.89,3.34,.18,.1,.66-.62c.13-.13,.24-.09,.49,.06l6.08,3.43-.86,1.53c-.16,.27-.34,.36-.53,.31l-1.08-.32-.2,.35,1.79,1.01,3.75-6.65h0Zm-5.07,8.67l-.18-.12-.66,.52c-.14,.12-.23,.08-.49-.09l-5.59-3.71c-.24-.16-.32-.23-.28-.41l.23-.82-.17-.11-2.06,3.1,.17,.11,.67-.53c.14-.1,.24-.07,.49,.09l5.59,3.7c.25,.17,.33,.25,.28,.41l-.23,.83,.18,.12,2.05-3.09h0Zm-6.71,2.37c-2.33-1.81-4.6-1.37-6.19,.69-1.49,1.92-1.21,4.58,.86,6.18,2.5,1.94,4.79,1.23,6.25-.66,1.38-1.77,1.29-4.5-.92-6.21h0Zm-3.35,11.18l-.17-.17-.94,.56c-.16,.09-.25,.02-.46-.18l-4.82-4.58c-.21-.2-.28-.28-.19-.44l.35-.77-.15-.14-2.2,2.32,.15,.14,.93-.55c.15-.1,.25-.04,.47,.17l3.53,3.36c.24,.23,.49,.45,.62,.57l-.04,.04c-.22-.12-.57-.17-.88-.2l-7.52-.82-.68,.72,5.62,5.34c.21,.2,.28,.28,.2,.45l-.37,.77,.16,.15,2.21-2.33-.16-.15-.94,.56c-.15,.1-.24,.03-.45-.17l-3.07-2.91c-.31-.3-.62-.58-.75-.7l.04-.04c.23,.15,.79,.21,1.09,.25l6.48,.79,1.95-2.05h0Zm12.12-74.21c0-53.64-43.48-97.13-97.13-97.13S23.64,67.13,23.64,120.77s43.48,97.13,97.13,97.13,97.13-43.49,97.13-97.13h0Zm-38.83,91.75c-.57-.93-1.56-1.23-2.57-.6-1.09,.67-1.32,1.95-.76,2.86,.57,.94,1.6,1.17,2.62,.55,1.1-.67,1.28-1.87,.71-2.81h0Zm-26.91,18.55l-.07-.26-1.13-.07c-.23-.03-.3-.15-.4-.52l-2.25-8.61c-.1-.39-.11-.53,.09-.65l.95-.61-.07-.28-4.76,1.24,.07,.28,1.11,.07c.25,0,.3,.13,.4,.52l2.25,8.61c.1,.37,.12,.51-.09,.65l-.96,.61,.07,.26,4.78-1.25h0Zm-9.95-1.2c-.25-1.61-1.51-2.31-2.95-2.73l-1.09-.33c-1.11-.32-2.08-.64-2.25-1.67-.18-1.12,.8-1.72,1.68-1.86,.57-.09,1.1-.06,1.58,.09,.32,.1,.49,.26,.62,.55l.45,1,.55-.09-.39-2.4c-1.06-.27-2.34-.12-2.88-.03-2.15,.34-3.65,1.91-3.33,3.93,.25,1.6,1.56,2.19,2.92,2.6l1.13,.33c.89,.27,1.98,.67,2.16,1.8,.21,1.28-.75,2.1-1.9,2.28-.62,.1-1.34,.05-1.78-.12-.36-.15-.49-.3-.62-.58l-.47-1.15-.58,.09,.42,2.61c.82,.24,2,.27,2.97,.12,2.23-.36,4.16-1.92,3.76-4.44h0Zm-12.23,1.69c-.08-1.63-1.25-2.47-2.62-3.04l-1.05-.46c-1.07-.44-2-.87-2.05-1.91-.06-1.13,.98-1.62,1.87-1.66,.57-.03,1.1,.07,1.57,.26,.31,.13,.45,.31,.55,.61l.34,1.05,.55-.03-.12-2.42c-1.03-.39-2.31-.38-2.87-.35-2.17,.1-3.84,1.5-3.74,3.53,.08,1.62,1.31,2.35,2.62,2.91l1.09,.45c.86,.36,1.9,.89,1.95,2.03,.06,1.3-.98,2-2.14,2.06-.62,.03-1.34-.11-1.75-.32-.34-.19-.45-.35-.55-.65l-.34-1.2-.59,.03,.13,2.64c.79,.33,1.96,.5,2.94,.45,2.25-.11,4.35-1.44,4.22-4h0Zm-11.39-7.38l-4.25-.34-.02,.28,1.37,.5c.23,.07,.24,.22,.21,.61l-.44,5.59c-.04,.57-.07,1.13-.09,1.36h-.07c-.04-.36-.45-1-.65-1.34l-4.59-7.34-3.75-.3-.03,.32,1.36,.5c.23,.09,.24,.24,.21,.62l-.7,8.8c-.03,.38-.06,.52-.3,.57l-1.09,.29-.02,.27,4.23,.33,.02-.27-1.35-.5c-.23-.07-.25-.22-.22-.62l.51-6.45c.04-.44,.05-.88,.07-1.11h.08c.06,.33,.3,.74,.52,1.08l5.43,8.44,1.31,.1,.81-10.26c.03-.39,.06-.52,.3-.59l1.1-.27,.02-.28h0Zm-17.91,9.34l-.46-.45c-.18-.18-.26-.3-.31-.68l-1.44-11.03-1.61-.37-6.42,9.18c-.23,.31-.37,.42-.62,.5l-.6,.21-.06,.26,3.5,.8,.06-.26-.94-.58c-.21-.12-.29-.31-.08-.64l1.5-2.21,4.07,.94,.29,2.64c.05,.39-.09,.52-.34,.53l-1.1,.11-.06,.26,4.58,1.06,.06-.26h0Zm-35.37-21.44c-1.1-.67-2.34-.28-2.9,.63-.57,.93-.3,1.96,.71,2.58,1.1,.67,2.25,.29,2.82-.65,.57-.94,.38-1.95-.64-2.57h0Zm-17.58-16.91l-1.85-1.98-.15,.14,.34,.76c.08,.16,.05,.32-.22,.43l-1.87,.76-2.15-2.3,.93-1.78c.13-.27,.27-.29,.44-.18l.73,.39,.15-.14-2.42-2.59-.15,.14,.1,.48c.04,.19,.03,.3-.09,.55l-3.74,7.51,.85,.91,7.89-3.05c.27-.1,.4-.1,.59-.05l.46,.12,.15-.14h0Zm-10.02-4.54c2.21-1.71,2.52-4.05,.72-6.37-.72-.92-1.53-1.75-2.51-2.41l-2.03,1.57c-.23,.18-.32,.23-.48,.13l-.71-.48-.17,.13,2.46,3.18,.18-.14-.46-1.08c-.06-.16,.01-.25,.25-.44l1.62-1.26c.36,.19,.79,.51,1.14,.95,1.36,1.75,.43,3.47-1.33,4.83-1.64,1.27-3.47,1.47-4.83-.29-.47-.6-.71-1.19-.82-1.73-.05-.23-.04-.4,.08-.56l.45-.66-.26-.33-1.45,1.12c.32,.93,.85,1.8,1.46,2.59,1.73,2.24,4.38,3,6.67,1.23h0Zm-9.85-7.62l5.65-3.61c.25-.16,.34-.2,.49-.09l.66,.54,.17-.11-3.47-5.42-1.7,.69,.13,.37,1.05-.08c.19-.01,.38,.03,.54,.27l1.21,1.89c.12,.19,.16,.38-.12,.56l-2.62,1.68-1.15-1.8c-.16-.25-.2-.34-.09-.48l.43-.6-.17-.27-2.03,1.3,.17,.27,.73-.15c.17-.04,.24,.04,.4,.29l1.15,1.8-2.58,1.65-1.3-2.03c-.17-.27-.16-.46-.03-.61l.46-.57-.21-.33-1.4,.9,3.38,5.29,.18-.12-.21-.82c-.05-.18,.03-.24,.28-.41h0Zm-4.81-7.9l5.91-3.05c.26-.13,.36-.17,.48-.04l.62,.58,.18-.09-1.47-2.84-.18,.09,.22,1.06c.05,.18-.04,.25-.31,.39l-4.33,2.24c-.29,.15-.58,.31-.74,.4l-.03-.06c.19-.17,.35-.48,.48-.76l3.24-6.83-.46-.88-6.89,3.56c-.26,.13-.36,.17-.49,.04l-.61-.6-.19,.1,1.47,2.85,.19-.1-.23-1.07c-.05-.18,.05-.24,.31-.37l3.76-1.94c.38-.2,.75-.4,.91-.48l.02,.04c-.21,.17-.46,.68-.6,.95l-2.87,5.86,1.3,2.52,.21-.11-.22-1.07c-.04-.18,.06-.24,.32-.38h0Zm-1.53-10.43c2.45-.99,3.46-3.35,2.48-5.77-.43-1.06-1.18-1.88-2.01-2.48l-.35,.39c.49,.39,.96,.93,1.26,1.66,.84,2.09-.36,3.76-2.27,4.53-1.65,.66-3.64,.72-4.41-1.21-.17-.41-.25-.87-.22-1.36,.02-.28,.13-.43,.34-.59l.79-.58-.17-.42-1.9,.76c.02,.69,.16,1.52,.51,2.39,1.02,2.53,3.26,3.76,5.95,2.68h0Zm-6.95-8.84l6.41-1.96c.28-.09,.38-.1,.49,.05l.49,.7,.19-.06-1.88-6.15-1.82,.21,.03,.39,1.03,.2c.18,.04,.36,.13,.44,.41l.66,2.15c.07,.22,.05,.41-.27,.51l-2.98,.91-.62-2.04c-.08-.28-.1-.38,.04-.49l.58-.46-.09-.3-2.31,.71,.09,.3,.75,.05c.18,.01,.22,.11,.3,.38l.62,2.04-2.93,.89-.7-2.31c-.09-.3-.03-.48,.13-.6l.6-.42-.11-.38-1.59,.49,1.83,6,.21-.06,.02-.84c0-.19,.09-.23,.38-.32h0Zm-3.59-13.94l6.57-1.04c.29-.05,.39-.05,.47,.12l.4,.75,.2-.03-.5-3.16-.2,.03-.12,1.08c0,.18-.12,.22-.42,.27l-4.81,.77c-.33,.05-.65,.12-.83,.14v-.06c.22-.1,.47-.35,.68-.57l5.22-5.47-.16-.98-7.66,1.22c-.29,.04-.39,.05-.48-.12l-.39-.76-.21,.03,.51,3.17,.21-.03,.12-1.09c.01-.18,.12-.21,.41-.26l4.17-.66c.43-.07,.84-.15,1.01-.17v.05c-.25,.09-.65,.5-.86,.72l-4.57,4.66,.45,2.8,.24-.04,.12-1.09c.02-.18,.13-.21,.42-.26h0Zm-2.88-13.67l8.02,2.68c.27,.1,.38,.18,.49,.34l.28,.39h.2s-.17-2.71-.17-2.71h-.2s-.22,.81-.22,.81c-.04,.18-.16,.28-.45,.19l-1.92-.61-.19-3.14,1.85-.77c.27-.12,.39-.05,.45,.14l.32,.77h.2s-.21-3.55-.21-3.55h-.2s-.23,.45-.23,.45c-.09,.17-.16,.25-.42,.37l-7.67,3.41,.08,1.24h0Zm-.1-6.25l2.06,.05v-.41s-1.08-.29-1.08-.29c-.19-.04-.3-.21-.29-.53l.04-1.78,6.98,.16c.29,0,.41,.03,.45,.2l.24,.88h.2s.09-3.83,.09-3.83h-.21s-.29,.85-.29,.85c-.05,.18-.17,.19-.46,.18l-6.98-.16,.04-1.75c0-.32,.13-.48,.32-.53l1.1-.23v-.41s-2.05-.05-2.05-.05l-.17,7.63h0Zm.38-10.04l.21,.02,.34-.77c.07-.17,.17-.18,.47-.15l6.68,.63c.29,.03,.39,.05,.44,.23l.19,.83,.2,.02,.35-3.71-.2-.02-.34,.78c-.08,.16-.18,.17-.48,.15l-6.67-.63c-.3-.03-.4-.06-.44-.23l-.19-.84-.21-.02-.35,3.69h0Zm4.8-5.25c2.91,.5,4.7-.96,5.13-3.53,.41-2.39-1.09-4.6-3.67-5.05-3.12-.53-4.8,1.18-5.2,3.53-.38,2.21,.98,4.57,3.74,5.04h0Zm-2.32-11.44l.23,.06,.56-.94c.1-.16,.21-.14,.49-.06l6.41,1.77c.28,.08,.38,.12,.38,.3l.06,.85,.19,.06,.85-3.09-.19-.05-.56,.93c-.09,.16-.2,.16-.5,.07l-4.7-1.3c-.32-.09-.64-.16-.81-.21l.02-.06c.25,0,.58-.12,.87-.23l7.02-2.82,.26-.95-7.48-2.07c-.28-.08-.37-.12-.39-.31l-.04-.85-.21-.06-.86,3.09,.21,.06,.56-.94c.09-.16,.2-.14,.48-.06l4.08,1.13c.41,.11,.82,.21,.99,.26v.05c-.28-.02-.82,.19-1.1,.3l-6.09,2.35-.75,2.73h0Zm4.33-14.58l6.18,5.77c.21,.2,.27,.32,.3,.51l.09,.47,.19,.07,.97-2.53-.19-.07-.53,.64c-.11,.15-.26,.19-.49-.01l-1.49-1.35,1.13-2.94,2,.06c.3,0,.38,.12,.36,.31l-.03,.83,.19,.07,1.27-3.31-.19-.07-.39,.3c-.16,.12-.26,.16-.54,.16l-8.39-.09-.45,1.16h0Zm2.99-6.78l.2,.09,.6-.61c.12-.13,.21-.09,.49,.04l6.01,2.96c.26,.13,.35,.19,.33,.36l-.12,.86,.18,.09,2.77-5.64-1.67-1.22-.27,.31,.82,1.01c.12,.14,.17,.34,.04,.6l-.91,1.84c-.1,.2-.25,.33-.54,.18l-5.89-2.9c-.27-.13-.36-.21-.32-.38l.2-1.01-.19-.1-1.72,3.5h0Zm4.04-7.99l.18,.11,.64-.55c.13-.13,.23-.08,.49,.07l5.76,3.44c.25,.15,.33,.21,.29,.4l-.18,.83,.17,.11,3.31-5.53-1.38-1.21-.27,.28,.54,.9c.1,.16,.14,.35,0,.6l-1.15,1.93c-.12,.2-.28,.31-.56,.14l-2.67-1.6,1.09-1.83c.15-.25,.21-.33,.39-.3l.72,.12,.16-.27-2.07-1.24-.16,.27,.46,.59c.11,.14,.07,.23-.08,.48l-1.09,1.83-2.63-1.57,1.24-2.07c.16-.27,.34-.34,.54-.3l.72,.16,.2-.34-1.43-.85-3.22,5.38h0Zm7.78-12.14l.17,.13,.71-.46c.15-.11,.24-.05,.47,.14l5.23,4.2c.23,.18,.3,.26,.24,.43l-.3,.8,.16,.13,2.62-3.26c1.82-2.27,1.71-5.01-.39-6.7-2.33-1.87-4.4-1.03-6.09,1.08l-2.81,3.49h0Zm7.29-8.83l.15,.15,.75-.39c.16-.09,.24-.03,.46,.18l4.83,4.66c.21,.2,.27,.28,.2,.45l-.37,.77,.14,.14,4.47-4.63-1.07-1.49-.33,.21,.32,1c.06,.18,.06,.38-.14,.59l-1.56,1.62c-.16,.16-.34,.24-.58,0l-2.24-2.16,1.48-1.54c.2-.21,.29-.27,.45-.21l.68,.28,.22-.23-1.74-1.67-.22,.23,.32,.68c.07,.16,.01,.24-.19,.45l-1.48,1.54-2.2-2.13,1.67-1.73c.22-.23,.41-.26,.59-.17l.66,.32,.28-.28-1.2-1.16-4.35,4.51h0Zm10.31-9.99l.14,.17,.8-.3c.16-.07,.23,0,.43,.24l4.21,5.22c.18,.23,.24,.31,.15,.47l-.48,.73,.13,.16,4.9-3.94-1.01-1.82-.37,.17,.32,1.26c.04,.18,.01,.38-.21,.56l-1.6,1.29c-.18,.14-.36,.2-.57-.06l-4.12-5.11c-.19-.24-.24-.34-.13-.48l.6-.83-.13-.17-3.04,2.45h0Zm10.06-7.83l1.73,8.27c.05,.28,.04,.42-.04,.59l-.2,.44,.11,.17,2.25-1.5-.11-.17-.8,.21c-.18,.06-.32,0-.39-.29l-.44-1.96,2.62-1.75,1.6,1.2c.24,.18,.24,.31,.11,.46l-.5,.66,.11,.17,2.94-1.97-.11-.17-.49,.02c-.19,0-.3-.01-.53-.18l-6.81-4.9-1.03,.69h0Zm11.89-4.22c.54,1.09,1.62,1.23,2.69,1.22h.89c.7-.02,1.58,.03,1.96,.8,.43,.88-.08,1.68-.86,2.07-.42,.21-.96,.33-1.31,.31-.3-.02-.42-.1-.58-.28l-.6-.73-.4,.2,.88,1.79c.65,0,1.51-.25,2.17-.57,1.53-.76,2.57-2.31,1.71-4.04-.54-1.1-1.61-1.33-2.73-1.31h-.86c-.87,.02-1.64,0-1.99-.7-.38-.76,.19-1.41,.8-1.71,.39-.19,.78-.29,1.16-.29,.26,0,.41,.08,.57,.26l.55,.62,.37-.19-.81-1.64c-.83,.04-1.71,.44-2.09,.62-1.47,.73-2.2,2.19-1.52,3.57h0Zm6.12-5.54l.08,.2,.84-.05c.18-.02,.23,.07,.35,.35l2.5,6.22c.11,.27,.13,.37,0,.49l-.65,.55,.07,.19,5.98-2.4-.37-1.8-.39,.06-.12,1.05c-.02,.19-.1,.37-.37,.48l-2.08,.84c-.21,.09-.41,.08-.53-.22l-1.16-2.89,1.98-.8c.27-.11,.37-.14,.49,0l.5,.54,.3-.12-.9-2.24-.29,.12v.75c.02,.18-.07,.23-.34,.34l-1.98,.79-1.14-2.84,2.24-.9c.29-.12,.48-.07,.61,.09l.47,.56,.37-.15-.62-1.54-5.82,2.34h0Zm2.29-1.7l.35,.13,1.61-2.7c.13-.23,.11-.4,.04-.58l-1.52,.61-.49,2.53h0Zm7.56,2.46c.77,2.53,3.03,3.73,5.54,2.97,1.09-.33,1.97-1.01,2.64-1.79l-.36-.38c-.43,.45-1,.88-1.76,1.11-2.15,.66-3.72-.69-4.31-2.65-.52-1.7-.41-3.68,1.58-4.29,.43-.13,.89-.18,1.38-.1,.28,.05,.42,.16,.55,.39l.51,.84,.44-.13-.59-1.95c-.69-.04-1.53,.03-2.43,.3-2.61,.8-4.03,2.93-3.18,5.7h0Zm8.2-6.91l.04,.21,.84,.1c.17,.02,.22,.11,.28,.41l.93,4.51c.37,1.82,1.44,3,3.86,2.5,2.57-.53,2.97-2.28,2.59-4.09l-.88-4.27c-.06-.3-.06-.4,.09-.49l.74-.43-.04-.21-3.03,.62,.04,.21,.84,.1c.17,.02,.22,.11,.28,.41l.93,4.5c.28,1.38,0,2.48-1.42,2.77-1.39,.29-2.07-.74-2.3-1.84l-.96-4.66c-.06-.3-.05-.4,.1-.49l.74-.42-.04-.21-3.63,.75h0Zm11.02-2.12l.02,.21,.84,.18c.17,.03,.19,.13,.23,.43l.71,6.67c.03,.29,.03,.39-.13,.47l-.79,.35,.02,.2,3.7-.39-.02-.2-.84-.18c-.17-.04-.21-.14-.24-.43l-.75-7.03,.59-.06c1.17-.12,2.07,.1,2.22,1.55,.14,1.33-.7,1.94-1.8,2.06l-.33,.03,3.57,4.01,2.29-.24-.02-.2-.39-.18c-.19-.08-.31-.2-.48-.37l-2.91-3.13c1.04-.34,2-1.12,1.86-2.43-.18-1.7-1.77-1.92-3.34-1.75l-4,.43h0Zm10.79-.96v.21s.81,.24,.81,.24c.18,.04,.2,.15,.21,.45l.2,6.7c0,.29,0,.39-.18,.46l-.81,.29v.2s3.73-.11,3.73-.11v-.2s-.83-.24-.83-.24c-.16-.06-.2-.16-.2-.45l-.2-6.7c0-.31,.01-.41,.18-.46l.8-.29v-.22s-3.71,.11-3.71,.11h0Zm6.03,1.89l.41,.02,.31-1.08c.05-.19,.21-.3,.53-.28l1.78,.07-.28,6.98c-.01,.29-.04,.4-.21,.45l-.89,.23v.2s3.83,.15,3.83,.15v-.2s-.85-.3-.85-.3c-.17-.06-.18-.17-.17-.46l.29-6.98,1.75,.07c.32,.01,.48,.13,.52,.33l.21,1.1,.41,.02,.08-2.06-7.63-.31-.08,2.06h0Zm9.06,6.98l6.39,.81,.55-1.75-.37-.14-.61,.86c-.11,.15-.27,.27-.55,.24l-2.23-.28c-.23-.03-.39-.13-.35-.45l.39-3.09,2.12,.27c.29,.04,.39,.06,.43,.24l.18,.71,.32,.04,.3-2.39-.31-.04-.35,.66c-.08,.16-.18,.16-.48,.12l-2.12-.27,.38-3.04,2.4,.3c.31,.04,.45,.17,.49,.37l.14,.72,.39,.05,.21-1.65-6.22-.79-.03,.21,.76,.36c.17,.07,.17,.18,.13,.48l-.84,6.65c-.04,.29-.06,.39-.25,.43l-.84,.16-.03,.2h0Zm3.91-8.87l.25,.29,2.72-1.58c.22-.14,.29-.3,.32-.48l-1.62-.21-1.66,1.98h0Zm9.17,10.89l4.03,1.1c2.81,.76,5.28-.44,5.98-3.04,.78-2.88-.82-4.45-3.43-5.16l-4.33-1.17-.06,.21,.7,.47c.16,.1,.15,.2,.07,.49l-1.76,6.47c-.08,.28-.12,.38-.3,.39l-.85,.04-.05,.2h0Zm10.28,2.92l6.03,2.25,.94-1.57-.32-.22-.79,.69c-.14,.12-.32,.21-.6,.1l-2.11-.78c-.21-.08-.35-.21-.24-.52l1.08-2.92,2,.74c.28,.1,.37,.15,.37,.33v.73s.31,.11,.31,.11l.84-2.26-.29-.11-.49,.56c-.12,.13-.22,.11-.49,0l-2-.74,1.07-2.87,2.26,.84c.3,.11,.4,.27,.39,.47l-.03,.74,.37,.14,.58-1.56-5.88-2.19-.07,.2,.65,.53c.15,.11,.13,.21,.02,.49l-2.34,6.28c-.1,.27-.15,.37-.34,.36l-.86-.03-.07,.19h0Zm9.26,1.19l-.84,1.81c.41,.5,1.14,1.02,1.81,1.33,1.54,.72,3.41,.56,4.22-1.19,.52-1.12,.03-2.09-.68-2.95l-.54-.67c-.56-.66-1.03-1.28-.7-1.99,.36-.77,1.22-.73,1.83-.45,.39,.18,.71,.43,.95,.72,.16,.2,.19,.37,.15,.6l-.14,.81,.38,.18,.77-1.66c-.55-.62-1.41-1.06-1.79-1.24-1.49-.69-3.09-.34-3.74,1.05-.51,1.11,.05,2.03,.73,2.86l.57,.68c.45,.55,.95,1.26,.59,2.04-.41,.89-1.36,.99-2.15,.62-.43-.2-.86-.54-1.06-.83-.16-.25-.18-.39-.14-.63l.19-.92-.4-.19h0Zm10.36,7.51c.35,.55,1.01,1.15,1.63,1.54,1.44,.9,3.31,.97,4.34-.67,.65-1.05,.28-2.07-.33-3.01l-.46-.73c-.47-.73-.87-1.39-.45-2.06,.45-.72,1.3-.58,1.88-.23,.37,.23,.65,.51,.86,.83,.13,.22,.15,.39,.08,.62l-.24,.79,.36,.22,.97-1.55c-.47-.68-1.27-1.23-1.63-1.45-1.39-.86-3.03-.71-3.84,.59-.64,1.04-.19,2.02,.38,2.93l.48,.75c.38,.59,.8,1.36,.34,2.1-.51,.83-1.47,.82-2.21,.36-.4-.25-.79-.64-.95-.95-.13-.27-.13-.41-.07-.64l.3-.89-.38-.23-1.06,1.69h0Zm8.59,5.38l-.81-.27-.12,.16,2.98,2.21,.12-.16-.48-.69c-.11-.16-.05-.25,.12-.48l1.57-2.11,4.27-1.93c.28-.12,.4-.16,.6-.14l.49,.06,.13-.17-2.25-1.66-.13,.17,.51,.7c.09,.15,.08,.32-.17,.44l-3.33,1.58,.54-3.67c.03-.26,.2-.33,.38-.27l.78,.26,.13-.17-2.93-2.17-.13,.17,.21,.45c.07,.18,.07,.29,.04,.58l-.57,4.81-1.51,2.04c-.17,.23-.24,.31-.42,.25h0Zm8.96-.4c-.8,.92-.51,1.96-.09,2.95l.35,.81c.28,.65,.57,1.47,0,2.12-.64,.74-1.58,.58-2.24,0-.36-.31-.68-.75-.79-1.09-.09-.28-.07-.43,.04-.64l.43-.83-.33-.29-1.31,1.5c.26,.6,.81,1.29,1.37,1.78,1.29,1.11,3.12,1.48,4.38,.02,.81-.93,.61-1.99,.16-3.02l-.33-.79c-.35-.79-.64-1.51-.12-2.11,.56-.64,1.38-.37,1.89,.07,.33,.28,.57,.61,.71,.96,.1,.24,.08,.41-.02,.62l-.36,.74,.32,.28,1.2-1.38c-.36-.75-1.06-1.41-1.38-1.68-1.24-1.07-2.87-1.18-3.88-.02h0Zm5.93,4.85l.28,.29,.97-.58c.16-.11,.36-.07,.58,.16l1.25,1.27-4.98,4.89c-.21,.2-.31,.27-.46,.18l-.8-.44-.15,.14,2.69,2.74,.14-.14-.41-.8c-.09-.16-.02-.25,.19-.46l4.98-4.89,1.23,1.25c.22,.23,.26,.42,.16,.6l-.6,.94,.28,.29,1.47-1.44-5.35-5.44-1.47,1.44h0Zm8.28,5.97l.3,.79c.08,.17,0,.24-.23,.44l-5.17,4.27c-.22,.19-.31,.24-.48,.15l-.72-.46-.16,.13,4.11,4.96,1.6-.89-.17-.35-1.03,.21c-.19,.04-.38,.02-.57-.21l-1.43-1.73c-.14-.18-.2-.36,.06-.57l2.4-1.98,1.36,1.64c.19,.23,.24,.31,.16,.47l-.36,.64,.2,.24,1.86-1.54-.2-.24-.71,.24c-.17,.06-.24-.01-.43-.24l-1.36-1.64,2.36-1.95,1.54,1.86c.21,.25,.21,.43,.11,.6l-.39,.62,.25,.3,1.28-1.06-4-4.83-.17,.14h0Zm2.92-.55l.13,3.14,.37,.04,.77-2.45-1.05-1.26c-.14,.11-.24,.27-.22,.53h0Zm2.94,9l-5.55,3.72c-.24,.16-.33,.21-.49,.1l-.68-.53-.17,.11,1.71,2.55,.17-.11-.28-.93c-.04-.18,.02-.26,.28-.43l4.15-2.78c.53-.35,.74-.49,.87-.6l.04,.06c-.23,.23-.42,.53-.64,.84l-3.66,5.31,.45,.68,6.33-1.37c.55-.11,.98-.21,1.14-.26l.03,.05c-.26,.16-.61,.39-.87,.57l-4.27,2.86c-.24,.16-.33,.21-.49,.1l-.66-.52-.17,.11,2.04,3.05,.17-.11-.23-.82c-.04-.17,.03-.25,.27-.41l5.57-3.73c.25-.16,.34-.2,.49-.1l.67,.53,.18-.12-1.66-2.48-5.87,1.25c-.49,.12-.83,.19-1.13,.32l-.02-.03c.3-.26,.48-.5,.76-.91l3.45-4.83-1.72-2.56-.18,.12,.24,.88c.05,.18-.03,.25-.27,.41h0Zm7.33,11.52l-5.92,3.14c-.26,.14-.36,.17-.5,.05l-.61-.59-.18,.09,3.01,5.69,1.75-.55-.1-.38h-1.05c-.19,0-.38-.06-.51-.32l-1.05-1.99c-.11-.2-.12-.39,.17-.55l2.75-1.46,1,1.88c.13,.26,.17,.35,.06,.49l-.48,.56,.15,.28,2.13-1.13-.15-.28-.74,.09c-.18,.02-.23-.06-.37-.32l-1-1.89,2.71-1.43,1.13,2.13c.15,.28,.12,.47-.02,.61l-.51,.53,.18,.35,1.47-.78-2.94-5.54-.19,.1,.14,.83c.04,.18-.05,.24-.31,.38h0Zm2.58,8.11c-1.12,.48-1.31,1.55-1.35,2.62l-.03,.88c-.03,.7-.12,1.57-.92,1.92-.9,.39-1.67-.16-2.02-.97-.19-.43-.28-.97-.24-1.32,.04-.29,.13-.42,.31-.56l.75-.56-.18-.41-1.83,.79c-.02,.65,.17,1.52,.46,2.19,.67,1.56,2.17,2.69,3.94,1.92,1.13-.49,1.41-1.54,1.45-2.66l.04-.86c.03-.87,.08-1.64,.8-1.95,.79-.34,1.4,.27,1.67,.88,.17,.4,.25,.79,.23,1.17-.02,.26-.1,.4-.29,.55l-.64,.51,.16,.39,1.68-.73c0-.83-.35-1.73-.51-2.12-.65-1.5-2.08-2.31-3.49-1.7h0Zm6.4,12.67l-6.46,1.8c-.28,.08-.38,.09-.49-.06l-.47-.71-.19,.05,1.12,4.02c.78,2.8,3.07,4.31,5.67,3.59,2.87-.8,3.4-2.98,2.67-5.59l-1.2-4.32-.21,.06-.04,.84c0,.18-.09,.22-.39,.3h0Zm.85,10.7l-.33,.31c.69,.89,1.68,1.59,2.87,1.35,.58-.12,1.4-.53,1.28-1.12-.03-.15-.13-.34-.33-.52l-.59-.55-.19,.04c-.02,.61-.51,1.05-1.04,1.15-.62,.12-1.2-.15-1.68-.66h0Zm4.16,7.68l-.56-3.67-.21,.03-.14,.83c-.02,.18-.12,.21-.42,.26l-6.63,1c-.29,.05-.39,.05-.48-.12l-.38-.76-.2,.03,.56,3.68,.21-.03,.14-.84c.04-.17,.13-.21,.43-.26l6.63-1.01c.3-.04,.4-.03,.48,.12l.39,.76,.22-.03h0Zm.15,2.5l-.22,1.07c-.04,.18-.15,.2-.44,.22l-6.64,.46c-.29,.02-.39,.02-.46-.16l-.33-.78h-.21s.23,3.21,.23,3.21h.2s.22-1.07,.22-1.07c.03-.18,.14-.21,.44-.23l4.87-.34c.33-.02,.66-.06,.84-.07v.06c-.23,.08-.51,.3-.74,.51l-5.68,4.99,.07,.99,7.74-.54c.29-.02,.39-.01,.47,.16l.32,.79,.22-.02-.22-3.2-.21,.02-.22,1.07c-.02,.18-.14,.2-.43,.22l-4.22,.3c-.43,.03-.85,.07-1.02,.08v-.05c.26-.07,.69-.44,.92-.64l4.96-4.24-.2-2.82-.24,.02h0Zm8.88,12.69c0,66.7-54.07,120.77-120.77,120.77S0,187.47,0,120.77,54.07,0,120.77,0s120.77,54.07,120.77,120.77h0ZM13.46,104.88c2.94,.5,3.99-.56,4.2-1.82,.22-1.26-.43-2.61-3.36-3.11-2.98-.51-4.05,.57-4.26,1.81-.2,1.16,.41,2.61,3.42,3.12h0Zm4.23-23.75c-.38-.01-.75-.02-1.04-.12l-.02,.05c.21,.11,.52,.38,.85,.68l2.16,1.96,.96-2.49-2.91-.08h0Zm-7.12,46.47c-.35,.15-.69,.29-1,.33v.05c.25,0,.63,.13,1.07,.27l2.77,.89-.16-2.66-2.68,1.13h0ZM61.78,30.69l-2.33-1.74c-.3-.23-.61-.45-.79-.7l-.04,.03c.11,.21,.21,.61,.31,1.05l.63,2.84,2.22-1.48h0Zm90.04-13.96c.57-2.11,.03-3.7-1.94-4.24l-1.5-.41-1.8,6.62c-.08,.32,.06,.45,.29,.51l.9,.25c1.53,.42,3.33-.08,4.05-2.73h0Zm-55.15,206.27h-.07c-.1,.29-.4,.74-.73,1.23l-2.17,3.2,3.45,.79-.43-3.83c-.06-.5-.12-1-.04-1.39h0Zm111.33-37.74c-2.36-1.83-3.78-1.39-4.56-.38-.79,1.01-.85,2.51,1.49,4.33,2.39,1.85,3.84,1.41,4.62,.42,.72-.93,.87-2.49-1.54-4.37h0Zm-166.51,8.36l1.82,1.95-2.71,1.09c-.42,.17-.79,.32-.99,.47l-.04-.04c.22-.22,.39-.55,.56-.89l1.34-2.58h0Z"/>
      <path class="cls-5" d="M75.47,52.01c.92-1,1.84-2.08,1.84-2.08,0,0-1.07,.66-1.52,1.1-.45,.44-.78,.87-.78,.87,0,0-.34,.06-.65,.46-.3,.4-.57,.53-.57,.53l.24,.32s.52-.2,1.44-1.2h0Zm2.12-3.16s-.28,.14-.39,.13h-.1s-.48,.2-.78,.49c-.31,.29-.31,.55-.31,.55,0,0-.28,.09-.51,.46-.24,.37-.82,.91-.82,.91l-.28-.21-.85,.81s.12,.09,.12,.29v.2s1.22-.98,2.02-1.61c.81-.63,1.89-1.47,1.89-1.47,0,0-.07-.11,.39-.48,.46-.37,1.96-1.8,1.96-1.8l.12-.34s-1.23,.78-1.72,1.22c-.49,.44-.75,.85-.75,.85h0Zm-.28-.77c.43-.38,1.31-1.01,1.31-1.01,0,0-.7-.17-1.18,.31-.48,.48-.99,1.18-.99,1.18,0,0,.43-.09,.86-.48h0Zm-2.12,.66s-.49,.29-.94,.62c-.45,.33-.7,.71-.7,.71v.29l1.02-.74s.07-.05,.3-.24c.24-.2,.57-.17,.57-.17l.41-.32s.04-.1,.13-.46c.09-.36,.6-.75,.6-.75,0,0-.57,.29-.89,.53-.32,.24-.5,.53-.5,.53h0Zm-33.67,121.04c.1,.36,1.13,1.53,1.13,1.53l.56,.14s-.3-.5-.69-.91c-.4-.42-.99-.75-.99-.75h0Zm30.51-120.15l-1.41,1.13s1.02-.27,1.77-.73c.75-.46,1-.82,1.31-.9,.3-.08,.42-.11,.42-.11l1.43-1.03s-.24,.11-.28,0c-.06-.15-.11-.2-.11-.2,0,0-1.16,.54-1.81,.75-.65,.21-1.06,.21-1.76,.65-.7,.44-.85,.64-1.18,.95-.33,.32-.52,.54-.52,.54l.72-.23,1.41-.84h0Zm1.32,4.32c.16-.42,.12-.92-.85,.16l-.17,.87,.49-.28s.37-.33,.53-.75h0Zm-15.6,10.66c-.02,.18-.26,.63-.91,1.58-.65,.95-1.45,2.24-1.45,2.24,0,0,.46-.28,.99-.61,.54-.34,.85-.22,.85-.22,0,0,.14-.24,.4-.6,.26-.36,.86-.57,1.86-1.68,1.01-1.1,.22-1,.22-1,0,0,.34-.24,1.03-.62,.69-.38,1.55-1.29,1.55-1.29,0,0-.92-.46,.05-.38,.6,.05,.52-.53,.52-.53l-.8-.08c-.79-.08-1.21,.62-1.21,.62,0,0-.32,.47-.77,1.09-.46,.61-1.37,1.27-1.37,1.27l1.09-1.55s.04-.28-.58,.18c-.62,.46-1.47,1.39-1.49,1.57h0Zm2.75-3.98c-.37,.41-1.26,1.43-1.26,1.43,0,0,.91-.37,1.49-.83,.58-.46,1.02-1.14,1.02-1.14,0,0-.13-.17,0-.52l-.79,.36s-.1,.29-.47,.7h0Zm-18.68,107.43l-.12-.52-.32-.14c-.32-.14-.89-.97-.89-.97l-1.37-1.77-.34-.26c-.34-.26-2.08-2.72-2.08-2.72-.38-.46-.87-.47-.87-.47l.18,.85,.52,.22s-.04-.42,.51,.4c.56,.81,1.69,2.32,1.69,2.32l.65,.48s.12,.24,.4,.73c.28,.5,.58,.83,.58,.83l.77,.84-.04,.24c-.04,.24,.18,.54,.18,.54,0,0,.24,.06,.56,.24,.32,.18,.63,.56,.63,.56l.75,.16c-.02-.18-.24-.62-.54-.97-.3-.36-.85-.57-.85-.57h0Zm17.84-101.07s2.04-1.37,3.06-2.16c1.01-.79,.28-1.05,.28-1.05l.4-.85s-.11-.89-1.63,.63c-1.52,1.53-1.96,1.77-2.69,2.56-.73,.79-1.43,1.43-1.43,1.43v.46s.91-.56,1.61-1.27c.7-.71,.42,.26,.42,.26h0Zm50.93-23.81c.43,.1,1.94,.91,1.94,.91,0,0,.12-.31,.4-.6,.29-.29,.94-.52,.94-.52,0,0-1.44,0-1.76-.48-.32-.48-1.55-.69-1.55-.69,0,0-.19-.45-1.4-.9-.8-.29-2.08-.22-2.08-.22,0,0,1.33,.45,1.81,.85,.48,.4-.62,.34-1.33-.05-.71-.4-1.98-.48-1.98-.48,0,0,3.29,1.31,3.73,1.78,.44,.48-.41,1.27-.41,1.27l1.09,1.03s.75-.2,1.43,0l.67,.2,1.11-.63s-2.54-.71-2.42-.67c.07,.02-1.6-1.11-.2-.79h0Zm-38.99,13.09c.22,.03,.52-.15,.83-.45,.32-.3,.4-.73,.4-.73,0,0-1.27,1.17-1.23,1.18h0Zm6.51-5.97c-.22,.38-.57,.55-.57,.55l.27-.44s-.21,.1-.46,.25c-.25,.15-.8,.7-1.25,1.15-.45,.45-1.31,1.44-1.31,1.44l-.27,1.68,.05,.32-.76-.18s-.83,.95-1.05,1.17c-.23,.22-.48,.71-.48,.71l-.22,.34-.31-.45s-.67,.42-1,.56c-.33,.14-.02-.25-.02-.25l-.35-.08-.03-.3,.7-.86,.24-.43,.03-.18c.03-.18,.12-.36,.12-.36l-.43,.14-1.04,1.14s-.17,.21-.4,.51c-.23,.3-.41,.29-.41,.29,0,0-.05,.73-.32,1.06-.27,.34-.53,.64-.53,.64,0,0-.17,.25-.51,.64-.34,.39-.65,.44-.65,.44l-.77,.69s-.62,.68-.98,1.09c-.87,.99-.42,1.62-.49,1.74-.23,.39,0,.87,0,.87l.48,.34,.07,.29,.38-.12-.12,.39,.12,.42,.42-.26,.21,.26s.4-.49,.63-.61c.24-.13,.28,0,.28,0l.32-.6h-.26l.8-.43,.74-1.2-.25-.13s.13-.18,.28-.37c.15-.19,.14-.42,.14-.42l-.52,.1,.17-.51s-.36,.06-.64,.09c-.28,.03-.44-.08-.44-.08l.12-.96-.18,.04c-.18,.04,.3-.38,.3-.38l.66-.94,.45-.85s-.05,.2-.09,.39c-.04,.19,.05,.4,.05,.4l.63-.52s-.03,.52-.05,.88c-.02,.36-.13,.64-.13,.64l.16,.15s.05,.02,.18-.16c.13-.18,.3-.31,.3-.31l.09,.61,.27,.03c.27,.03,.18,.21,.02,.44-.16,.23-.67,.56-.67,.56l.26,.08s.4-.2,.75-.42c.35-.22,.19,.12,.19,.12l.64-.44s.28-.24,.56-.62c.28-.39,.33-.59,.33-.59l-.21,.07c-.21,.07,.1-.27,.3-.51,.2-.24,1.03-.77,1.03-.77,0,0,.55-.4,1-1.03,.45-.63,.79-.15,.79-.15l1.37-1.41,.89-.67s.08-.2,.3-.66c.21-.47,.41-.06,.41-.06l.62-.83s-.27-.08-.19-.37c.08-.29,.07-.14,.73-.35,.66-.21,.87,0,.87,0l.93-.98-.13-.21h.4s1.64-1.43,2.49-2.04c.85-.61,1.19-1.3,1.19-1.3l.56-.56s1.43-1.22,2.2-2.42c.77-1.2,1.72-3.64,1.72-3.64l-.16-.05s-.36,.21-.7,.48c-.35,.27-1.56,.91-1.56,.91,0,0-.25,.11-.91,.6-.67,.49-.93,.45-.93,.45l-.61,.47s-.08,.12-.33,.35c-.25,.23-.45,.21-.45,.21,0,0-.52,.4-1.03,.82-.52,.43-.59,.26-.59,.26l-.55,.52c-.54,.51-1.39,1.09-1.95,1.56-.57,.47-1.6,1.4-1.6,1.4,0,0-.14,.32-.36,.7h0Zm-28.59,20.73c.03,.58,.42,.74,.42,.74,0,0,.69-.42,.82-.95,.13-.53,.34-.93,.34-.93,0,0,.32,.19,.32,.58s-.11,.5-.11,.5c0,0,1.06-.82,1.38-1.54,.32-.71,.85-1.93,1.51-2.75,.66-.82,1.19-1.03,1.19-1.03,0,0,.74-.95,1.77-1.91,1.03-.95,1.75-1.56,1.75-1.56,0,0,1.16-1.22,1.35-1.64,.19-.42,.24-.61,.24-.61l-3.97,3.39s1.77-1.75,2.25-2.36c.48-.61-.5,.03-.5,.03,0,0,.64-.77,1.32-1.64,.69-.87,1.48-1.9,1.48-1.9,0,0-1.64,.03-2.99,.93-1.35,.9-1.75,1.4-1.75,1.4,0,0,.08,.29,0,.64-.08,.34-.24,.53-.24,.53l-.56-.68-1.4,1.5s-.06,.13-.11,.58c-.05,.45-.11,.9-.5,1.51-.4,.61-.82,1.27-.82,1.27,0,0-.05-.64,.16-1.08,.21-.45,.26-.56,.26-.56l-.16-.83s-1.27,.89-1.77,1.76c-.51,.87-.42,1.32-1.04,1.93-.61,.61-1.48,1.51-1.48,1.51,0,0,.16,.17,.16,.57s-.16,.75-.16,.75l1.01-.37,.08,.37,.98-.47-.66,.69s-.11,.95-.61,.71c-.5-.24-.53-.5-.53-.5,0,0-.42,.26-.63,.69-.21,.42-.24,.53-.24,.53,0,0,.32-.05,.61-.11,.29-.05,.37,.03,.22,.32l-.16,.29s.74-.87,.77-.29h0Zm-10.48,38.15s1.01-.26,1.01-.34v-1.22l-.82,.26-.19,1.3h0Zm6.6-14.21s-.5,.09-.77,.71c-.24,.56-.24,.66-.24,.66v.72l1.21-1.69-.2-.4h0Zm-.58-1.25c.28-.36,.2-.31,.2-.31l-.71-.46s-.56,.2-.85,.63c-.29,.44-.25,.91-.25,.91,0,0,1.34-.41,1.61-.77h0Zm25.79-39.46l-.46,.05-.25,.26,.65-.13,.07-.18h0Zm-23.46,119.15c.52,.1,1.57,.68,1.57,.68-.02-.48-.5-.77-1.01-1.17-.52-.4-1.41-1.37-2.22-1.85-.82-.48-1.75-.81-1.75-.81,0,0,.38,.36,.64,.69,.26,.34,.48,.71,.48,.71l.24,.2c.24,.2,.32,.54,.32,.54l-1.67-1.03,.77,.97s.48,.14,1.03,.48c.56,.34,1.07,1.07,1.07,1.07,0,0,.02-.57,.53-.48h0Zm-11.15-60.07l-.36,.58s.66,.85,.66,.74,.11-.35,0-.85c-.11-.5-.31-.48-.31-.48h0Zm67.87,99.16s.52-.63,1.39-.79c.87-.16,1.91,0,1.91,0l.4-.56s-.87-.16-.84-.63l.04-.48s-.6-.59-1.67-1.55c-1.07-.95-2.38-1.67-2.38-1.67,0,0,.72-.71,.56-1.23l-.16-.52s.99-.83,.95-1.47c-.04-.64-.28-.95-.28-.95l-2.38-1.75s-.47-.1-.97-.1-.79,.18-.79,.18l-1.81-.5-1.55-.6s-1.19-.51-2.5-.59c-1.31-.08-1.43,.21-1.43,.21l-.62-.23-2.48-.23-.59,.56-.58-.7s-.18-.2-.58-.38c-.4-.18-.91,0-.91,0l-.54-.24-2.78-.65s-.5-.04-.44,.24c.06,.28-.26,.41-.26,.41l-.39-.97-.87-.28s-.4,.32-.79,.18c-.4-.14-.77-.18-.77-.18l.2,.56-1.13-.02-.16-.67s.69-.46,.51-1.01c-.18-.56-.81-.56-.81-.56l-2.02-1.43-.64-.77-1.33-.54-1.13-.74-3.31-1.11s-.26,.12-.93,0c-.67-.12-1.21-.22-1.21-.22l-.28-.36-1.33-.76-.42,.2-.28-.57-3-1.87-1.01-.18,.12-.36-2.91-1.9h.81s-.36-.32-1.15-.48c-.79-.16-1.49,.22-1.49,.22l-.99-.77s-1.17-.14-1.59-.42c-.42-.28-.79-.95-.79-.95l-1.71-.85h-.63l1.25,1.82-.22,.12s-.81-.73-.87-1.09c-.06-.35-.1-.48-.34-.85-.24-.38-.66-.79-.66-.79l.24-.26-.71-.73-.5,.57-.97-.46s.06,.69,.32,.91c.26,.22,.22,.87,.22,.87l-2.2-2.24-.42-.16c.35,.44,.7,.88,1.06,1.31-.06-.21-.01-.29,.28,.02,1.06,1.11,3.61,4.01,4.7,5.28,.4,.46,.62,.82,.74,1.09,14.51,14.79,33.84,24.84,55.46,27.58-.63-.42-1.41-.89-2.03-1.09-1.23-.4-2.62-.91-2.62-.91h0Zm82.64-41.33c.12,.74,.22,.8,.22,.8,0,0-.36,.97,.24,.99,.4,.01,.48,0,.5,0,.01,.02,.15,.29,.1,.55-.06,.28-.14,.5-.14,.5l.79-.2-.42-1.57-.61-.1s.29-.82,.17-1.47c-.12-.66-.54-.55-.62-1.17,0,0-.34,.93-.22,1.67h0Zm2.92-3.75s1.75-1.51,2.34-2.94c.59-1.43,1.31-2.46,1.31-2.46,0,0-1.31,.36-2.1,1.03-.79,.67-1.23,1.15-1.23,1.15l-.32,3.21h0Zm1.65,5.16h-.49s.04,.97-.14,1.63c-.23,.84-.62,1.19-.62,1.19v1.47h.71s-.16-1.11,.24-1.95c.4-.83,.3-2.34,.3-2.34h0Zm-44.32,5.15c-.32-.87-.37-1.14-.37-1.14,0,0-.42,1.35-2.59-.37l-.37,.85s1.75-.08,2.43,.5c.69,.58,.74,1.35,.74,1.35,0,0,.47-.32,.16-1.19h0Zm48.94-103.94l-1.96-3.28-.53,.53,1.38,2.75h1.11Zm-2.86-10.1l-.58-.95-.69,.11c-.69,.11-1.75-1.11-1.75-1.11,.58,1.27,2.12,2.22,2.12,2.22l.9-.26h0Zm-1.06,19.89c-.63-1.06-1.27-1.53-1.96-2.7,0,0,.42,1.43,.32,2.01-.1,.58-.32,1-.32,1l1.32,2.38,.9-.64s.37-1.01-.27-2.06h0Zm23.21,35.36c-.28-2.22-.74-5.83-1.09-7.69-.53-2.8-1.16-4.92-1.16-4.92v2.86l-.85-1.22-.26-.58c-.26-.58-.85-.26-.85-.26l-1.01-1.59s-.42,1.85-1.43,3.81c-1.01,1.96-2.57,3.12-2.57,3.12l-1.23-1.55-.68,2.46-.75,.56s-.24-.28-1.07-.24c-.83,.04-1.27,.43-1.27,.43,0,0-2.06-2.34-2.94-1.39-.87,.95-.16,1.79-.16,1.79l-.48,.63h.68l1.15,1.39,.56-.24,2.46,2.66-.36-2.3s.4,.56,.8,1.63c.4,1.07,.75,1.11,.75,1.11l.36-1.15s1.03-.55,1.15-2.1c.12-1.55,.04-3.97,.04-3.97,0,0,.39,.83,.79,1.9,.4,1.07,1.03,1.11,1.03,1.11l.87-1.11,.95,.99s.16,2.15,0,3.61c-.16,1.47,.32,2.31,.32,2.31,0,0-.2,.34-.48,1.1-.28,.75,0,1.23,0,1.23,0,0-.12,.36-.55,1.07-.44,.72,0,1.55,0,1.55,0,0-.71,1.35-1.3,2.14-.58,.79-.21,1.91-.21,1.91l-1.79,3.53s-.16,.75-.76,2.02c-.59,1.27-1.74,2.14-1.74,2.14,0,0-.32,.63-.55,1.43-.24,.79-1.15,1.35-1.15,1.35l-1.43-2.78s.16-1.15-.32-1.71c-.48-.56-1.83-.99-1.83-.99,0,0,.08-.32-.48-.91-.55-.6-1.51-.36-1.51-.36l-1.07-.48s0-1.19-.99-2.42c-.99-1.23-1.86-.36-1.86-.36,0,0-.67-1.03-2.46-2.42-1.79-1.39-2.3-.76-2.3-.76l-.55-2.14s-.08,.44,0,1.31c.08,.87,.12,1.75,.12,1.75l-.72-.16c-.71-.16-2.42-1.27-2.42-1.27,0,0,.12,.36,.6,.95,.47,.6,2.58,1.63,2.58,1.63,0,0,.48,.71,1.07,1.31,.59,.6,2.26,1.51,2.26,1.51l.2,1.03c.2,1.03,1.07,.32,1.07,.32l1.07,.44,1.75,3.53s1.78,.08,2.02,.64c.24,.55,1.23,2.34,1.23,2.34l1.19-.51s1.35,.32,2.18,.91c.83,.6,.24,1.31,.24,1.31,0,0,.68,.36,1.15,.67,.48,.32,1.55-1.71,3.05-3.73,1.51-2.03,2.3-3.61,2.3-3.61,0,0,.12,.56,0,1.71-.12,1.15-.52,3.53-1.31,7.5-.79,3.97-4.01,9.48-5.95,13.45-1.94,3.97-3.45,7.58-3.45,7.58l.44,.08s.12,.28-.2,.99c-.32,.71-.4,2.38-.4,2.38l.6-.24s-.08,.4-.55,2.02c-.48,1.63-1.55,3.81-3.45,6.23-1.91,2.42-4.21,4.56-4.21,4.56,0,0-.48,2.3-1.19,3.41-.71,1.11-3.09,3.02-3.09,3.02,0,0-.32,.79-1.75,2.3-1.43,1.51-5.87,5.63-7.9,7.14-2.02,1.51-5.52,3.02-5.52,3.02,0,0,.52-.71,.68-1.23,.16-.52-.24-1.06-.24-1.06l-.9-.32s.11-2.43-.74-3.44c-.84-1.01-1.8-.9-1.8-.9,0,0,0-.58,.26-1.69,.27-1.11,.64-2.12,.64-2.12,0,0,1.9-2.01,1.96-2.59,.05-.58-1.16-1.48-1.16-1.48,0,0,.53-1.01-.32-1.96-.85-.95-1.64-1.27-3.76-1.59-2.12-.32-2.38-1.43-2.38-1.43,0,0,.48-.48,.48-1.11s-.11-.9,.21-1.32c.32-.42,1-2.01-.48-2.75-1.48-.74-2.8,.74-3.7,1.37-.9,.64-2.27,.69-2.27,.69,0,0-.42-.74-1.27-1.06-.85-.32-2.49,.16-2.49,.16l-5.29,3.49-2.17,1.27s-.21,.11-1.27,.21c-1.06,.11-2.22,.79-3.86,1.16-1.64,.37-3.02,1.85-3.02,1.85,0,0-1.93-.17-4.08-.4,12.79-9.53,29.21-24.3,39.34-43,2.06-3.81,3.87-8.1,5.42-12.75l1.74-.67s.32-.74,.95-1.85c.64-1.11,1.64-1.06,2.59-1.48,.95-.43,1.53-1.01,1.53-1.01,0,0,.11-1.91,0-4.29-.11-2.38-1.27-3.54-1.27-3.54l-.2-.69s.06-.79-.08-.92c-.34-.32-.62,.81-.62,.81l-.95,.26s-.03,.66-.35,1.38c-.04,.09-.09,.19-.16,.28,.83-3.78,1.52-7.72,2.07-11.78,.03,0,.05-.01,.05-.01,0,0,.77-1.03,.73-1.62-.02-.27-.17-.69-.44-1.07,.37-3.11,.65-6.28,.86-9.51l1,2.35s.98-.21,1.77,.79c.79,1.01,4.97,1.91,4.97,1.91,0,0-.95,1.06,0,2.64,.95,1.59,1.59,2.38,1.59,2.38l1.11-.74s1.16,.74,2.06-.53c.9-1.27,1.32-1.85,1.32-1.85,0,0-.74-.37-1.37-1.38-.63-1-.9-1.48-.9-1.48,0,0-1.27,.21-1.9-.79-.63-1.01-.85-1.35-.85-1.35,0,0-1.43-.56-1.64-1.25-.21-.69-.32-.9-.32-.9l-.79,.53-2.75-.85,.64-1.11s-1.33-.74-.8-1.32c.53-.58,1.11-1.06,1.11-1.06,0,0-1.01-.69-1.27-1.27-.27-.58-.85-.9-.85-.9,0,0-1.16,.37-1.59,2.01-.18,.69-.33,1.48-.44,2.16,.18-3.37,.27-6.78,.27-10.23,0,0-1.2-1.7-13.89-8.31-7.65-3.98-15.22-7.47-22.16-10.42l.11-.16-.82-1.9s.24-.48,.11-1.27c-.13-.79-.06-1.32-.06-1.32l.95,.87s.13,.87,.53,.5c.4-.37,.24-.85,.24-.85l-.4-.77s.58-.29,.45-.85c-.13-.56-.29-1.16-.29-1.16l1.56,.9,.26-.37-.71-.37-.18-.82-2.14-.5s-.4,.4-.7,.21c-.3-.19-.51-.21-.51-.21l.05,.26s-.55,0-1.11-.26c-.56-.26-.77-.58-.77-.58,0,0,1.85,.42,2.51,0,.66-.42,1.06-1.24,1.06-1.24h.98l.64,.24-.13-.45,1.77-.32,1.98,.21-1.96-1.22-.21,.34s-.13,.05-.74-.08c-.61-.13-.98-.27-.98-.27l.42,.58-2.01-.58s.16-.16-.42-.4c-.58-.24-2.11-.4-2.11-.4l-1.08-.48-.74-.9-4.28-1.82,.53-.72,.78-.29-1.3-.93,1.53-.87-1.83-.85,1.56-.21-2.92-.45s.08-.43-.4-1.14c-.47-.71-.95-1.11-.95-1.11l.92,.16s-.42-.58-1.53-.29c-1.11,.29-.9,.76-3.07-.08-2.17-.85-3.6-1.93-4.18-2.01-.58-.08-1.48-.21-1.48-.21l-.24-.5,.58-.16s-.37-.21-.82-.29c-.45-.08-.77-.29-.77-.29l-.85,.16-.26-.58s-.16,.05-.64,.16c-.48,.11-1.43,.03-2.75-.05-1.32-.08-3.31-.24-3.31-.24l.77-.42s.69,.32,1.08,.11c.4-.21,.34-.37,.34-.37h2.51s-.48-.13-1.1-.16l-.62-.03-.95-.32s1.32-.61,2.91-.82c1.59-.21,5.61,.08,7.41,.32,1.8,.24,4.79,.66,4.79,.66,0,0-1.24-.61-2.17-.72-.93-.1-1.19-.05-1.19-.05l-1.48-.28-.13-.43,.95-.11-1.98-.85,1.38-.21s.1-.37-.77-.64c-.87-.26-2.83,0-2.83,0l-.66-.12-.45-.54s1.11-.45,2.3-.63c1.19-.19,1.59,.13,1.59,.13l2.01-.95-4.02,.29,.63-.29-.39-.27s-.66,.16-1.53,0c-.87-.16-1.48-.34-1.48-.34,0,0-.93,.24-2.04,.42-1.11,.19-2.14,.32-2.14,.32l-1.64-.55s-1.08,.18-1.43,.03c-.34-.16,1.72-1,1.72-1,0,0-.34-.11-1.76,0-1.42,.1-2.4,.16-2.4,.16,0,0,.24-.29,.87-.48,.63-.18,.9-.29,.9-.29,0,0-3.07,.05-4.1,.24-1.03,.19-2.06,.53-2.06,.53,0,0,1.74-.82,.34-.56-1.4,.26-1.48,.74-1.48,.74,0,0-.5,0-1.27,.13-.77,.13-1.46,.29-1.46,.29,0,0-1.24-.16-2.28-.08-1.03,.08-1.3,.11-1.3,.11l.21-.26-1.72,.66-1.01,.08,1.35-.96c6.26-1.3,12.74-1.99,19.38-1.99,51.57,0,93.49,41.32,94.46,92.66h0ZM47.27,94.5l.48-.19,.18-.59-.21-.44h-.34l-.11,1.22h0Zm149.15,78.99c-.71,1.23-.91,2.1-.91,2.1,0,0-.6,1.23-1.31,2.1-.72,.87-2.18,3.65-2.18,3.65h.39s1.91-2.02,3.37-4.25c0,0,3.41-5.36,4.4-7.26,.99-1.9,1.67-3.85,1.59-4.68,0,0-1.27,2.54-2.42,4.29-1.15,1.74-2.22,2.82-2.94,4.05h0ZM117.32,29.77l-1.75,.9,3.28-.58-1.54-.32h0ZM46.37,87.1c-1.29,1.88-1.45,2.14-1.45,2.14,0,0-.22-.25-.51,.34l-.29,.59s.65-.12,.28,.49c-.37,.61-.46,.93-.46,.93,0,0,.5,.21,.85-.2l.34-.41,.38-.04s.36-.85,.64-.79c.28,.05-.11,.56-.11,.56,0,0,.44,.17,.23,.45-.21,.28-.4,.49-.4,.49l.54,.92s.65-.32,.81-.87c.16-.55-.48-.63-.48-.63,0,0,.61-.44,.67-1.43,.07-.99,.18-1.72,.18-1.72,0,0-.12-.57,.07-1.39,.19-.82,.28-1.04,.28-1.04,0,0-.26-.26-1.56,1.61h0Zm5.45-15.17c-.42,.27-.41,.37-.69,.7-.28,.33-.9,.28-.9,.28,0,0-.08-.01-.36,.75-.28,.76-.33,1.88-.33,1.88l.94-.33s.07-.36,.38-.77c.32-.41,1.03-.98,1.03-.98,0,0-.16-.2-.14-.57,.01-.37,.65-1.12,.65-1.12,0,0-.16-.11-.58,.15h0Zm-3.57,21.36v1.03s.5-.12,.48-.59c-.03-.47-.48-.44-.48-.44h0Zm-7.38,27.75l.11-.56s-.76-.21-1.08,.4c-.32,.61-.19,1.06-.19,1.06l1.16-.9h0Zm-1.96,4.79s-.37-.85-.24-1.46l-.79,.29,1.03,1.16h0Zm-2.66,6.22s-.36-.5-.54-.13l-.19,.37s-.13-.53-.61-.71c-.48-.19-1.11,0-1.01,.53,.11,.61,.99,.61,.99,.61,0,0,.37,.9,.82,.87,.45-.02,.54-1.53,.54-1.53h0Zm-2.31,.87c-.4-.31-.77,0-.77,0,0,0-.19-.84-.66-.5l-.47,.34s-.43-.24-.27-.85c0,0-.66,1.08-.21,1.72,.45,.63,2.59,0,2.59,0,0,0,.19-.4-.21-.72h0Zm-2.12-5.74c0,1.01-.42,2.12-.42,2.12,0,0,.95-.53,.79,.58-.16,1.11-.16,1.67-.16,1.67l.55-.51s.05-.85,.27-1.53c.21-.69,.29-1.03,.29-1.03l.53,1.46,.4-.48-.48-2.78s-1.48-1.48-1.67-2.38c-.18-.9-.02-2.99-.02-2.99,0,0-.48-.37-.45-1.08,.03-.71,.08-1.14,.08-1.14l-.69-1.43s-.34,.87-.82,1c-.48,.13-.85,0-.85,0l-.63,.95h.58s-.29,1.24,.32,1.27c.61,.03,.95-.32,.95-.32,0,0-.34,.64-.08,1.48,.26,.85,1.06,1.19,1.06,1.19l.45,1.88s-.26-.53-.79-.95c-.53-.42-1.14-.42-1.43,1.22-.29,1.64-.37,3.94-.26,4.63,.11,.69,.34,.74,.34,.74,0,0,.42-.53,.5-2.2,.08-1.67,.4-2.35,.4-2.35l.71-.87s.53,.85,.53,1.85h0Zm-.74-10.05l.4-1.61-.4-.35s-.21,.32-.32,.95c-.1,.63,.32,1.01,.32,1.01h0Zm13.25-.98c.29,.55,.95,.82,.95,.82,0,0-.29-.56-.24-.9,.05-.34,.18-.61,.32-.33l.13,.28,.32-.34s-.03-.29-.24-.61c-.21-.32-.5-.56-.5-.56,0,0-1.03,1.09-.74,1.64h0Zm3.57,1.88c-.13,.4-.13,.53-.13,.53l.37,1s-.13-.87,.16-1.3c.42-.61,.55,.1,.98,.16,.38,.06,.79-.16,.79-.16v-.84s-.74,.26-.71-.29c.02-.56-.05-.72-.05-.72,0,0-.24,1.03-.85,.85-.61-.19-.69-.29-.69-.29,0,0,.27,.66,.13,1.06h0Zm3.92,1s.45,.53,.37,.82c-.08,.29-.18,.66-.18,.66l1.61-1.3-.34-.19s-.48,.66-1.46,0h0Zm-7.94,15.69s-.53-.21-2.41,.29c-1.88,.5-1.32,1.98-.84,2.83,.48,.85,0,.93,0,.93,0,0,.05,.13-.9,.13s-.72,.45-.72,.45c0,0-.13,.03-1.08-.05-.95-.08-.58,1.35-.58,1.35,0,0-.87,2.06-1.06,3.55-.19,1.48,.18,2.43,.18,2.43l-.29,1s-.13-.02-.77,.24c-.63,.27-.95,1.4-.95,1.4l-.63,.08s-.16,.34-.1,1.11c.05,.77,.69,2.86,1.64,5.29,.95,2.44,1.24,4.05,1.24,4.05h-.29s-.8-1.53-1.75-3.6c-.95-2.06-1.93-5.26-1.93-5.26h-.5s.24-.5-.98-2.49c-1.22-1.98-.4,.56-.4,.56l-.36-.56c-2.68-8.75-4.12-18.04-4.12-27.67,0-31.43,15.35-59.28,38.97-76.45-.98,.95-.82,.98-.15,.59,.9-.53,3.25-1.53,3.25-1.53l-.98,.87h1.53s-.11,.08-.45,.4c-.34,.32,.13,.34,.13,.34,0,0-1.43,.64-2.22,1.27-.79,.64-1.96,1.35-3.94,2.77-1.98,1.42-2.17,2.07-2.17,2.07,0,0-2.12,1.77-3.26,2.77-1.15,1-1.95,1.96-1.95,1.96l.85-.14s-.11,.03-.5,1.16c-.4,1.12,1.13,.19,1.13,.19,0,0-1.22,1.12-2.7,2.33-1.48,1.22,.26,.24,.26,.24l-.9,.66c-.9,.66-.16,.54-.16,.54,0,0-.34,.73-.85,1.24-.5,.52-1.27,1.66-2.25,3.58-.98,1.93-1.56,2.1-1.56,2.1,0,0,.08-1.01-.71,.26-.79,1.26-.85,2.06-.5,2.08,.34,.03,.58,.03,.58,.03,0,0-2.14,2.88-1.27,2.12,.87-.77,.98-.87,.98-.87l1.06-.21,.24,.19s-.82,.79-.93,1.32c-.11,.53-.03,.74-.03,.74,0,0-1.03,1.85-.58,1.75l.45-.11s-.08,1.61,.42,.77l.5-.85s.84-.69,.66,.32l-.19,1.01s-1.98,1.74-1.22,1.32c.77-.42,1.06-.74,1.06-.74,0,0,.56,.4,1.19-.48,.63-.87,.58-1.11,.58-1.11,0,0,.43-.45,.9-.79,.21-.15,.36-.25,.47-.32,0-.4,.07-.82,.23-1.24,.51-1.35,1.21-1.9,1.59-2.14l.37-.24s.76-1.01,1.41-1.53c.66-.52,1.26-.76,1.79-1.27v.34s-.44,.95-1.17,1.96c-.74,1.01-1.29,1.57-1.81,2.54-.52,.97-.52,.87-.52,.87,0,0-1.03,.36-1.21,.82-.14,.35,.08,1.2,.08,1.2l-.2,.12c-.2,.13-.5,.35-.71,.65-.34,.48-.31,.93,.15,.53,.46-.4,.62-.58,.62-.58,0,0-.05,.98-.62,1.75-.57,.77-1.44,1.35-1.84,2.19-.4,.85-.69,1.73-.69,1.73,0,0,.79-.83,1.51-1.31,.71-.48,1.56-1.77,1.56-1.77,0,0,.48,.19,.82-.45,.34-.63,.42-.9,.87-1.4,.45-.5,.82-.42,.82-.42,0,0,.32,1.3-.1,2.43-.42,1.14-.93,1.75-.93,1.75l-.61,.26-.16-.71s-.48,.48-.87,1.77c-.4,1.29-.38,1.56-.38,1.56,0,0-.49,.56-1.23,1.03-.74,.47-1.7,.77-1.7,.77,0,0-.34-.61-.34-.69s.34-.77,.34-.77c0,0-.18,.28-.34,0-.16-.29-.18-.34-.18-.34,0,0-.4,.34-.37,.67,.03,.33,0,.54,0,.54,0,0-.45,.21-1.03,.74-.58,.53-.77,.71-.77,.71,0,0-.31-.26-.18-1.08,.13-.82,.29-1.25,.29-1.25,0,0-.77,.98-.74,1.59,.03,.61,.45,1.06,.45,1.06l-2.36,2.14s.11-1.48-.5-.71c-.61,.77-1.11,.71-1.11,.71,0,0,.11,.58-.42,.92-.53,.35-.77-.34-.77-.34,0,0,.05,.16-.4,.69-.45,.53-1.16,.69-1.16,.69,0,0-.32,.55-.95,1.19-.63,.64-1.59,1.43-2.27,2.86-.69,1.43-.79,1.85-.79,1.85,0,0,.61,.18,.24,.93-.37,.74-.64,1.69-.74,2.2l-.1,.5-.79,.66s1.08-.13,1.17,.69c.08,.82,.34,1.48,.29,2.46-.05,.98-.16,1.38-.16,1.38,0,0,.21,.58,.34,.93,.13,.34,.18,.66,.18,1.11s-.03,.69-.03,.69c0,0,.34,0,.63,.45,.29,.45,.32,.64,.32,.64l.45,.11-.79,1.77s.05,.69-.34,1.43c-.4,.74-.58,1.3-.42,2.41,.16,1.11,.18,1.69,.16,2.09l-.03,.4,.42,.79s.11-.53,.55-.9c.45-.37,.64-.58,.64-.58,0,0-.03-1.38,.37-2.67,.4-1.3,.42-2.83,.42-2.83,0,0,1.3-.02,2.04-.63,.74-.61,1.4-1.72,1.61-2.88,.21-1.16,.37-2.41,.32-2.99-.05-.58-.13-.71-.13-.71l.27-.64s.95-.71,1.43-1.43c.48-.71,.85-2.83,.85-2.83,0,0,.95-.37,1.06-1.09,.1-.71,.03-.95,.03-.95l.61-1.24,.63-.18s.48,1.14,1.06,1.4c.58,.26,.79,.03,.79,.03,0,0,.24,.45,.16,1.8-.08,1.35-.13,1.82,.42,2.17,.56,.34,.69,.48,.69,.48,0,0-.29,.37-.77,1.38-.48,1.01-.48,1.56-.48,1.56,0,0-.74,1.19-.48,1.85,.26,.66,.34,.82,.34,.82,0,0-.19,1.22,.61,.93,.79-.29,1.06-.87,1.06-.87,0,0,.32,.27,.9-.79l.58-1.06,.93-1.46,.34,.08s-.29,1.06-.29,1.98,.05,1.24,.05,1.24c0,0-.29,1.43-.16,2.7,.13,1.27,.37,2.49,.37,2.49,0,0-1.25,.61-.79,1.61,.45,1.01,.87,1.69,.87,1.69,0,0-.42,.32,.11,.61,.53,.29,.85,.48,.85,.48,0,0-.29,.4,.24,.71,.53,.32,1.11,.37,1.11,.37l-2.04,1.24s1.4-.37,1.69,0c.29,.37-.34,1.03-.34,1.03,0,0,1.06-.58,1.4,.21,.34,.79-.42,1.93-.42,1.93,0,0,.66,.37,.13,1.08-.53,.72-1.56,1.14-1.56,1.14,0,0-1.03-.53-1.48,0-.45,.53-.45,.93-.45,.93l-1.19,.74s-.37,.03-2.38-.58c-2.01-.61-3.2-1.21-3.2-1.21,0,0-.82,.66-1.01,1.06-.18,.4-.21,.74-.21,.74,0,0-.66-.48-1.59,.58-.93,1.06-2.17,2.49-2.17,2.49h.53s1.16-1.59,2.11-2.01c.95-.42,2.54-.71,3.12,.19,.58,.9-.69,1.82-.69,1.82l-.57-.45-.52,.05s.33,.05,.52,.4c.2,.34,.2,.48,.2,.48l.55-.24,.4,.35s-.58,.4-.48,1.3c.1,.9,.18,1.4,.18,1.4,0,0,.55,.31,.61,.4,1.14,1.69,1.74,.9,1.74,.9l.77,1.24s-1.59,.32-2.62,.66c-1.03,.34-1.16,.95-1.16,.95l-.74,.37s-.63-1.45-.32-2.01c.32-.56,.98-.95,.11-1.03-.87-.08-.56,.77-.56,.77h0ZM109.7,53.87s.32-.08,1.33,.66c1,.74,1.27,1.38,1.27,1.38l1.22-.16-.53-1.59s-4.07-1.37-4.82-2.06c-.74-.69,1.64-.79,1.64-.79l-1.16-2.17-3.6-.37s.9,.69,.42,2.12c-.38,1.14-1.16,1.69-1.16,1.69,0,0,.63,1.75,3.01,2.96,.95,.48,2.31,2.07,2.31,2.07l1.34,.6c.36-.12,.71-.23,1.06-.34l-2.33-4h0Zm-.79-21.03l2.59-.32,4.07-1.32h-5.45l-1.96,.48s1.17,.21,.95,.69l-.21,.47h0Zm-38.38,20.67l-1.02,.9s-.08,.3-.07,.29c.01-.01,1.18-1.03,1.18-1.03l-.09-.16h0Zm40.5-15.75c2.75-.32,3.86-1.27,3.86-1.27l2.86,.05-3.75-.74s-2.65,.79-4.23,1c-1.59,.21-5.45,.64-5.45,.64,0,0,3.97,.64,6.72,.32h0ZM51.41,175.38l.12-.4s-.42-.42-1.55-.65l.18,.61,1.25,.44h0Zm-3.66-41.86l.66-.95s-.95-.03-1.85-.66l1.19,1.61h0Zm2.96,.53c0-.08-.9-.29-.84-1.99l-1.17,1.45,.59,1.19s1.43-.58,1.43-.66h0Zm5.56-.45l1.48,.34s.34-.85,.4-1.61c.05-.77-.16-1.4-.58-.9l-.43,.5s-.21-.69,.24-1.11l.45-.42,.03-.5s-1.06,.93-.79,.21c.26-.71,.53-1.22,.53-1.22,0,0-.03-.79-1.03-.66-1.01,.13-.9-.74-.9-.74,0,0-.95-.29-.55-1.16,.4-.87,1.03-1.96,1.03-1.96,0,0-.9-.5-2.04,1.38-1.14,1.88-1.96,3.97-2.25,4.26-.29,.29-.66,.56-.66,.56l.32,.85s.74-.19,1.48,0c.74,.18,.68,.21,.68,.21,0,0,1.41,.13,1.41,.53s-.74,.95-.74,.95h1s.47-.56,.79-1c.32-.45,.74-.66,.45,.32-.29,.98-.32,1.19-.32,1.19h0Zm4.8,52l-.36-.85h-.69s.26,.18,.4,.36c.14,.18,0,.34,0,.34l.65,.16h0ZM138.43,45.7l-1.96-.37,.32,.5,1.32,.5,.32-.64h0Zm-10.95-1.59l-2.96-.74,.32,.85s.53,.16,1.43,.74c.9,.58,.21,1.38,.21,1.38l3.02,3.12s.37-.21,2.85,1.48c2.49,1.69,4.29,2.8,4.29,2.8,0,0,.79,1.43,3.39,1.75,2.59,.32,3.76-1,3.76-1l-.85-.74s-.95,.27-2.49,0c-1.53-.26-4.12-1.9-7.62-4.44-3.49-2.54-5.35-5.19-5.35-5.19h0ZM48.75,126.67c-1.06-1.08-1.51-1-1.51-1,0,0-.37,.53,.61,1.43,.98,.9,1.4,.98,1.4,.98,0,0,.55-.32-.5-1.4h0ZM142.56,59.45c.16,.05,2.33,1.43,2.33,1.43l-.21-1.9s-2.28,.42-2.12,.48h0Zm-72.92-3.36l.88-1s-.34,.29-.28,0c.07-.29,.15-.37,.15-.37,0,0-.7,.4-.9,.64-.2,.24-.38,.46-.38,.46,0,0-.09-.15,.08-.37,.17-.22,.38-.46,.38-.46,0,0-.26,.17-.32-.05l-.05-.23s-.44,.23-.53,.44c-.09,.21-.15,.37-.15,.37l-.24-.09-.19,.46-.57,.2v.31s-.54,.42-.54,.42c0,0,.17,.24,.23,.48,.05,.24,.03,.3-.25,.32-.28,.01-.53,.07-.53,.07l-1.14,1.07,.12,.63s.46-.37,.89-.73c.44-.36,.73-.4,.73-.4,0,0,.71-.69,1.25-1.07,.54-.38,1.35-1.08,1.35-1.08h0Zm-.74-4.69c-.37,.25-.54,.5-.54,.5l1.93-.95h-.32s-.7,.2-1.07,.45h0Zm-4.24,10.28s.76-.81,1.37-1.4c.61-.59,1.11-1.4,1.11-1.4h-.28s-.82,.5-1.53,1.19c-.71,.69-.67,1.61-.67,1.61h0Zm.71-6.88s-.73,.45-1.07,.89c-.34,.44,0,.56,.44,.51,.44-.05,.62-.05,.62-.05l-.21,.69s.36,.11,.97-.29c.61-.4,.79-.6,.79-.6,0,0,.58-.16,1.19-.73,.61-.57,.74-.79,.74-.79l-.48-.06s.4-.28,1.14-.9c.74-.62,2.01-1.65,2.01-1.65,0,0-.92,.26-1.68,.93-.76,.66-.9,.85-1.06,.9-.16,.05-.29,.08-.29,.08,0,0-.89,.96-1.06,.87-.17-.09-.08-.32-.08-.32,0,0,1.56-1.22,2.38-1.92,.82-.7,1.36-1.34,1.36-1.34l-.11-.13-3.73,1.89s-.87,.64-1.08,1.15c-.21,.52,.08,1.06,.08,1.06l-.16,.12-.72-.3h0Zm.61,2.05c-.36,.33-.41,.62-.41,.62l.3-.12,.85-.86s-.38,.03-.74,.36h0Zm1.08,1.71h-.32l-.37,.4,.53-.2,.16-.2h0Zm112.87,61.35c.67-.58,.9-1.42,.9-1.42,0,0-.09-.38,.17-1.38,0,0-.5,1.11-.87,1.27-.37,.16-.74,.29-.74,.29,0,0,.34,.4,0,.56-.12,.06-.2,.09-.25,.11-.05,.19-.09,.39-.14,.58,.17,.18,.49,.37,.93,0h0ZM56.3,79.92c.2-.26,0-.33,0-.33l-1.26,.92,.26,.3s.8-.62,.99-.88h0Zm-2.66,11.07s-.19,.56-.48,.98c-.29,.42-.84,.9-.84,.9l1,.48s.21-.45,.32-1.18v-1.18h0Zm4.65,2.49c-.18,.37-.28,.69-.28,.69l-.48-.95s.13-.69,.18-1.64c.05-.95-.21-2.2-.21-2.2,0,0-.72,1.32-1.17,2.3-.46,.98,0,1.9,0,1.9,.18,1.32-.12,1.85-.12,1.85-.15,.6,0,1.24,0,1.24,0,0-.13,.42-.69,1.35-.55,.92-.85,1.53-.85,1.53,0,0-.08-1.14-.4-1.91-.32-.77-1.14-2.14-1.14-2.14,0,0,.21,1.64,.32,2.57,.11,.93-.13,2.41-.13,2.41,0,0-.95-.93-1.61-2.07-.66-1.14-.69-2.85-.69-2.85l.63-.4s-.16-.26-.26-1.03c-.11-.77,.03-1.67,.03-1.67l-.58-.16c-.58-.16-1.67-.19-1.67-.19,0,0-.13-.29,0-1.16,.13-.87,1.09-1.09,1.09-1.09l.4-.85s.18,.63,.66,1.16c.48,.53,1.4,.1,1.4,.1l.34-1.67s1.35-1.14,1.94-1.64c.59-.5,.57-.21,.57-.21l1.48-2.83-.32-.34c-.32-.34,.16-.74,.16-.74l-.74,.16s.13-.4,.37-.77c.24-.37,.42-.58,.42-.58l-.84,.12,.28-.67s.22,.04,.52,0c.3-.04,.26-.45,.3-1.09,.04-.64,.14-1.19,.14-1.19l1.05-1.45-.36-.04,.34-1.19s-.51,.02-.57,.55c-.06,.53-.56,1.59-.56,1.59l-.38-.14s-.02-.54-.3-.6c-.28-.06-.02,.93-.02,.93l-.4,.16s-.04-.91-.22-1.45c-.18-.54-.58-.79-.58-.79l.04-.36c.04-.36-.39-.26-.39-.26l.39-.97s-.7-.3-.22-1.17c.48-.87,1.19-1.62,1.19-1.62v.93h.36l.24-.77s-.44-.69,.16-1.37c.6-.68,1.45-1.53,2.64-2.66,1.19-1.13,2.38-2.08,3.21-2.32,.84-.24,.54,.77,.54,.77,0,0-.6,.38-1.24,.8-.64,.42-2.06,1.99-2.06,1.99,0,0,1.06-.77,1.93-1.48,.88-.72,2.14-.64,2.49,0,.34,.63,.32,1.11,0,1.96-.32,.85-1.07,1.48-1.07,1.48,0,0,.03-.21-.28-.58-.32-.37-1.3,.74-1.3,.74,0,0,.92-.29,1.14-.03,.21,.27,.16,.95,.16,.95,0,0-.11,.26-.4,1.38-.23,.87-.21,2.73-.22,4.31-3.17,1.66-4.78,2.62-4.78,2.62,0,4.3,.14,8.55,.42,12.72h0Zm-1.57-34.78l.16,.06s.52-.25,1.07-.65c.55-.4,1.03-.37,1.03-.37,0,0,.59-.46,1.06-.52,.46-.05,1.32,0,1.32,0l2.83-2.51s-.03-.22,.22-.59c.25-.37,.98-1.11,.98-1.11,0,0-.24,.07-.32-.09-.08-.16,0-.28,0-.28,0,0-1.41,1.04-1.81,1.24-.4,.19-1.58,.72-1.58,.72,0,0-.74,.46-1.31,.78-.57,.31-1.31,.55-1.31,.55,0,0-.4,.47-.99,1.06-.6,.58-1.56,1.37-1.56,1.37,0,0,.29,.01,.48,.04,.18,.03-.28,.29-.28,.29h0Zm-3.13,43.43l.48-.77-.13-.87-.69,.87,.34,.77h0Zm34.3-52.03l.79-3.53-1.47,2.74,.87-2.74-1.55,1.07-4.84,4.8,.24,.56-2.19,2.5-.16-.44-.79,.4c-.79,.4-1.87,.79-2.3,1.67-.44,.87-.91,2.34-.91,2.34l.52,.04c.51,.04-.08,.91-.08,.91l-.59-.32-.08,.87-.51-.87s-.75,.87-.75,1.59-.95,1.03-.95,1.03l-.24,1.82,1.75-.44,.71,2.46-.87,1.43-1.3,4.95c1.84-.86,3.85-1.78,6.02-2.74,4.62-2.04,9.13-3.89,13.38-5.52,0-.08,.02-.17,.05-.26,.19-.81,.79-.56,1.23-.23,.17-.06,.33-.13,.5-.19l-.02-1.25-1.27-1.95,.63-.16s-.16-2.46,.24-4.37c.4-1.9,1.59-5,1.47-5.87-.12-.87-1.35-.95-1.35-.95l-2.54,4.52s.12-.75,.55-1.63c.44-.87,.96-3.21,.96-3.21l-1.36,1.31,.55-1.35-.67-.04-1.31,1.23s.24-.83,.4-.99c.16-.16,1.15-.91,1.74-.91s.88-1.35,.4-2.54c-.48-1.19-1.03-2.26-1.03-2.26,0,0-.6,.4-1.15,1.03-.55,.64-1.31,1.94-1.31,1.94l-1.39,3.53h0Zm-31.82,34.84l.24-.67-.24-.67-.63,.95,.63,.4h0Zm-4.48,95.61l-.18,.34,.91,.64-.73-.97h0Zm4.2-97.87s.28,.91-.63,1.75c-.91,.83-1.55,.75-1.55,.75,0,0,.4-.91,.95-1.63,.56-.71,1.23-.87,1.23-.87h0Z"/>
      <path class="cls-4" d="M169.45,72.45c-27.71-14.42-54.28-22.3-54.28-22.3,12.39,13.46,21.17,28.45,26.02,43.88,.09,0,.17,0,.26,0,3.64,0,7.61-.45,12.14-1.37,.8-.16,1.52,.24,1.89,.94,.32,.62,.29,1.35-.09,1.91-12.63,18.37-12.8,33.54-.48,45.08,.48,.45,.65,1.06,.44,1.59-.25,.62-.96,.93-1.67,.71-3.35-1.05-6.86-1.67-10.22-1.82-4.33,19.44-14.97,39.3-30.34,55.55,0,0,39.48-21.03,57.96-55.16,8.07-14.92,12.29-37.03,12.29-60.69,0,0-1.2-1.7-13.89-8.31h0Z"/>
      <path class="cls-1" d="M121.06,187.32c-14.71-12.86-26.71-40.73-26.71-65.21,0-1.27,.04-2.55,.1-3.83-3.52-3.06-8.07-5.53-13.54-7.3-.84-.27-1.35-.92-1.29-1.66,.06-.73,.65-1.3,1.52-1.44,5.84-.92,10.98-2.71,15.39-5.35,3.97-18.24,13.08-35.41,24.84-45.14-.49-.62-.99-1.24-1.5-1.85-3.97,1.1-21.41,6.12-40.68,14.66-14.02,6.21-21.32,10.56-21.32,10.56,0,23.66,4.22,45.78,12.29,60.69,15.55,28.72,41.65,44.12,49.3,47.89,.54-.67,1.07-1.33,1.6-2.01h0Z"/>
      <path class="cls-2" d="M151.4,140.06c-10.8-11.84-10.19-27.39,1.83-45.18-4.35,.85-8.21,1.26-11.79,1.26-12.17,0-20.5-4.83-26.16-15.18-5.12,15.91-15.81,25.54-31.82,28.67,9.59,3.51,16.29,9.22,19.47,16.62,2.93,6.81,2.7,14.93-.6,22.46,3.56,.16,7.82,1.21,11.95,2.23,3.12,.77,6.33,1.57,9.12,1.94-.62-2.75-.12-5.34,1.47-7.54,2.91-4.02,9.26-6.43,16.98-6.43,3.1,0,6.35,.4,9.54,1.16h0Z"/>
    </g>
  </g>
</svg>
