<svg width="671" height="120" viewBox="0 0 671 120" fill="none" xmlns="http://www.w3.org/2000/svg">
<g clip-path="url(#clip0_11_29399)">
<path d="M89.8467 105.493H91.7179V119.589H89.8467V105.493Z" fill="#757575"/>
<path d="M95.6411 105.493H98.0904L105.973 117.274V105.493H107.844V119.589H105.395L97.5123 107.808V119.589H95.6411V105.493Z" fill="#757575"/>
<path d="M111.767 105.493H114.217L122.099 117.274V105.493H123.97V119.589H121.521L113.639 107.808V119.589H111.767V105.493Z" fill="#757575"/>
<path d="M141.329 112.54C141.329 116.567 138.362 119.992 134.022 119.992C129.682 119.992 126.696 116.567 126.696 112.54C126.696 108.512 129.663 105.088 134.022 105.088C138.381 105.088 141.329 108.512 141.329 112.54ZM139.397 112.54C139.397 109.397 137.148 106.86 134.022 106.86C130.896 106.86 128.628 109.397 128.628 112.54C128.628 115.682 130.877 118.219 134.022 118.219C137.167 118.219 139.397 115.682 139.397 112.54Z" fill="#757575"/>
<path d="M144.016 105.493L148.833 117.677L153.649 105.493H155.641L150.066 119.589H147.597L142.022 105.493H144.014H144.016Z" fill="#757575"/>
<path d="M160.203 105.493H162.713L168.266 119.589H166.274L164.66 115.441H158.25L156.636 119.589H154.644L160.197 105.493H160.203ZM164.044 113.811L161.455 107.145L158.866 113.811H164.041H164.044Z" fill="#757575"/>
<path d="M167.608 105.493H178.718V107.225H174.099V119.589H172.228V107.225H167.608V105.493Z" fill="#757575"/>
<path d="M181.145 105.493H183.016V119.589H181.145V105.493Z" fill="#757575"/>
<path d="M200.378 112.54C200.378 116.567 197.411 119.992 193.071 119.992C188.732 119.992 185.745 116.567 185.745 112.54C185.745 108.512 188.712 105.088 193.071 105.088C197.43 105.088 200.378 108.512 200.378 112.54ZM198.447 112.54C198.447 109.397 196.197 106.86 193.071 106.86C189.945 106.86 187.677 109.397 187.677 112.54C187.677 115.682 189.926 118.219 193.071 118.219C196.217 118.219 198.447 115.682 198.447 112.54Z" fill="#757575"/>
<path d="M203.104 105.493H205.554L213.436 117.274V105.493H215.307V119.589H212.858L204.976 107.808V119.589H203.104V105.493Z" fill="#757575"/>
<path d="M230.08 105.493H232.589L238.143 119.589H236.151L234.537 115.441H228.126L226.513 119.589H224.521L230.074 105.493H230.08ZM233.921 113.811L231.332 107.145L228.743 113.811H233.918H233.921Z" fill="#757575"/>
<path d="M240.392 105.493H242.841L250.723 117.274V105.493H252.595V119.589H250.145L242.263 107.808V119.589H240.392V105.493Z" fill="#757575"/>
<path d="M256.858 116.367C257.814 117.616 258.929 118.279 260.222 118.279C261.776 118.279 262.671 117.332 262.671 116.044C262.671 112.863 256.063 113.545 256.063 108.896C256.063 106.803 257.775 105.09 260.203 105.09C262.154 105.09 263.586 105.997 264.622 107.386L263.208 108.636C262.392 107.447 261.417 106.784 260.222 106.784C258.849 106.784 257.973 107.649 257.973 108.858C257.973 112.019 264.562 111.293 264.562 115.986C264.562 118.422 262.71 119.973 260.241 119.973C258.192 119.973 256.677 119.186 255.463 117.658L256.858 116.37V116.367Z" fill="#757575"/>
<path d="M267.726 116.367C268.682 117.616 269.797 118.279 271.09 118.279C272.644 118.279 273.54 117.332 273.54 116.044C273.54 112.863 266.932 113.545 266.932 108.896C266.932 106.803 268.644 105.09 271.071 105.09C273.022 105.09 274.455 105.997 275.49 107.386L274.077 108.636C273.26 107.447 272.285 106.784 271.09 106.784C269.718 106.784 268.841 107.649 268.841 108.858C268.841 112.019 275.43 111.293 275.43 115.986C275.43 118.422 273.578 119.973 271.11 119.973C269.06 119.973 267.545 119.186 266.332 117.658L267.726 116.37V116.367Z" fill="#757575"/>
<path d="M278.597 105.493H280.469V119.589H278.597V105.493Z" fill="#757575"/>
<path d="M89.7151 33.7863H107.748L119.06 54.5123L130.455 33.7863H148.488V91.8219H133.899V54.5123L124.063 71.9233H114.145L104.31 54.5123V91.8219H89.7206V33.7863H89.7151Z" fill="#282828"/>
<path d="M202.011 70.9288C202.011 83.6959 192.748 93.4795 179.225 93.4795C165.701 93.4795 156.356 83.6959 156.356 70.9288C156.356 58.1616 165.619 48.3781 179.225 48.3781C192.83 48.3781 202.011 58.1616 202.011 70.9288ZM188.57 70.9288C188.57 64.6274 184.553 60.7315 179.307 60.7315C174.06 60.7315 169.88 64.7123 169.88 70.9288C169.88 77.1452 173.896 81.126 179.307 81.126C184.718 81.126 188.57 77.063 188.57 70.9288Z" fill="#282828"/>
<path d="M208.156 50.0383H221.189V52.3589C223.893 50.0383 227.337 48.3781 232.173 48.3781C240.943 48.3781 248.156 54.5972 248.156 67.2822V91.8219H235.041V67.8603C235.041 63.6329 232.828 60.7315 228.647 60.7315C224.058 60.7315 222.008 64.3808 221.189 65.789V91.8219H208.156V50.0356V50.0383Z" fill="#282828"/>
<path d="M278.074 33.7863H297.091L317.91 91.8219H302.419L297.748 78.1424H277.419L272.748 91.8219H257.258L278.077 33.7863H278.074ZM293.485 65.7068L287.584 48.6274L281.682 65.7068H293.485Z" fill="#282828"/>
<path d="M323.318 37.1041C323.318 32.6274 327.088 28.8137 331.597 28.8137C336.107 28.8137 339.712 32.6274 339.712 37.1041C339.712 41.5808 335.943 45.4767 331.597 45.4767C327.252 45.4767 323.318 41.5808 323.318 37.1041ZM324.956 50.0383H337.989V91.8246H324.956V50.0383Z" fill="#282828"/>
<path d="M364.956 48.3781C370.039 48.3781 373.562 49.7863 376.351 52.274V29.6411H389.466V91.8219H376.351V89.5835C373.565 92.0712 370.039 93.4794 364.956 93.4794C351.841 93.4794 344.137 83.1151 344.137 70.9288C344.137 58.7425 351.841 48.3781 364.956 48.3781ZM366.841 81.126C370.858 81.126 373.973 79.4685 376.351 76.3178V65.5397C373.973 62.389 370.858 60.7315 366.841 60.7315C361.104 60.7315 357.661 64.7945 357.661 70.9288C357.661 77.063 361.104 81.126 366.841 81.126Z" fill="#282828"/>
<path d="M418.809 93.4795C403.644 93.4795 395.611 83.1151 395.611 70.9288C395.611 58.7425 403.072 48.3781 417.085 48.3781C428.806 48.3781 436.513 56.2548 436.513 67.6137C436.513 70.4329 436.102 73.0849 435.694 74.5781H408.973C410.203 80.2164 413.809 81.7068 418.726 81.7068C422.661 81.7068 426.105 80.1315 427.989 77.726L437.17 85.1041C433.236 90.326 426.759 93.4767 418.809 93.4767V93.4795ZM409.055 65.2904H423.891C423.726 62.4712 421.595 58.989 416.759 58.989C412.578 58.989 410.039 61.0603 409.055 65.2904Z" fill="#282828"/>
<path d="M490.279 72.8356L501.836 81.7068C496.507 88.8356 487.984 93.4794 477.49 93.4794C459.211 93.4794 446.753 79.3863 446.753 62.8027C446.753 46.2192 459.211 32.126 477.49 32.126C487.981 32.126 496.507 36.7699 501.836 43.8164L490.279 52.7698C487.575 48.789 483.23 45.9726 477.493 45.9726C468.312 45.9726 461.756 53.1013 461.756 62.8027C461.756 72.5041 468.312 79.6328 477.493 79.6328C483.148 79.6328 487.575 76.8137 490.279 72.8356Z" fill="#5D2A9D"/>
<path d="M507.905 112.551C504.379 112.551 502.168 112.052 499.954 111.143V99.7836C501.184 100.197 503.233 100.614 504.872 100.614C508.97 100.614 510.855 99.2877 512.25 95.8055L513.806 91.8247L496.839 50.0384H511.266L520.694 74.4959L530.365 50.0384H544.053L523.888 100.86C521.102 107.825 516.51 112.551 507.905 112.551Z" fill="#5D2A9D"/>
<path d="M571.51 93.4794C566.428 93.4794 562.822 92.0712 560.033 89.4986V91.8192H547V29.6383H560.033V52.3561C562.819 49.7863 566.428 48.3753 571.51 48.3753C584.707 48.3753 592.329 58.7397 592.329 70.926C592.329 83.1123 584.707 93.4767 571.51 93.4767V93.4794ZM560.033 65.6219V76.2329C562.493 79.3835 565.606 81.1233 569.622 81.1233C575.359 81.1233 578.885 77.0603 578.885 70.926C578.885 64.7918 575.359 60.7287 569.622 60.7287C565.441 60.7287 562.244 62.5534 560.033 65.6192V65.6219Z" fill="#5D2A9D"/>
<path d="M619.132 93.4795C603.967 93.4795 595.935 83.1151 595.935 70.9288C595.935 58.7425 603.395 48.3781 617.409 48.3781C629.129 48.3781 636.836 56.2548 636.836 67.6137C636.836 70.4329 636.425 73.0849 636.017 74.5781H609.296C610.526 80.2164 614.132 81.7068 619.05 81.7068C622.984 81.7068 626.428 80.1315 628.313 77.726L637.494 85.1041C633.559 90.326 627.083 93.4767 619.132 93.4767V93.4795ZM609.378 65.2904H624.214C624.05 62.4712 621.918 58.989 617.083 58.989C612.902 58.989 610.362 61.0603 609.378 65.2904Z" fill="#5D2A9D"/>
<path d="M643.639 50.0384H656.672V53.4384C659.211 51.0329 662.409 49.211 666.672 49.211C668.146 49.211 669.458 49.4603 670.441 49.7918V62.8082C669.047 62.4767 667.491 62.2274 665.359 62.2274C660.606 62.2274 657.491 65.0466 656.672 66.4548V91.8247H643.639V50.0384Z" fill="#5D2A9D"/>
<path d="M65.7781 33.8192H37.9753H0.0273438V85.6465C0.0273438 86.715 0.893097 87.5808 1.96159 87.5808H29.7644V117.655C29.7644 118.723 30.6329 119.589 31.7014 119.589C50.5068 119.589 67.7123 104.43 67.7123 85.6465V35.7534C67.7123 34.6849 66.8466 33.8192 65.7781 33.8192Z" fill="#5D2A9D"/>
<path d="M36.0384 -0.106842C17.2302 -0.106842 0.0246582 15.0493 0.0246582 33.8356H37.9726V1.8274C37.9726 0.75891 37.1069 -0.106842 36.0384 -0.106842Z" fill="#FDC82E"/>
<path d="M0.0273438 33.8356H37.9726V31.9014V31.8028V23.5178L0.0273438 33.8356Z" fill="#EDA82E"/>
</g>
<defs>
<clipPath id="clip0_11_29399">
<rect width="670.411" height="120" fill="white"/>
</clipPath>
</defs>
</svg>
