<svg width="290" height="46" viewBox="0 0 290 46" fill="none" xmlns="http://www.w3.org/2000/svg">
<g clip-path="url(#clip0_8782_71989)">
<path d="M21.4337 20.6854L26.9897 24.9478C24.4268 28.3773 20.3249 30.6065 15.2778 30.6065C6.49231 30.6126 0.5 23.8393 0.5 15.8657C0.5 7.89215 6.49231 1.125 15.2838 1.125C20.331 1.125 24.4329 3.35418 26.9958 6.74081L21.4397 11.0461C20.1371 9.13534 18.0467 7.77579 15.2899 7.77579C10.8729 7.77579 7.72227 11.2053 7.72227 15.8657C7.72227 20.5262 10.879 23.9557 15.2899 23.9557C18.0104 23.9557 20.1371 22.6023 21.4397 20.6854H21.4337Z" fill="#1E2342"/>
<path d="M58.6905 15.8657C58.6905 23.8332 52.6982 30.6065 43.943 30.6065C35.1878 30.6065 29.1592 23.8332 29.1592 15.8657C29.1592 7.89827 35.1515 1.125 43.943 1.125C52.7346 1.125 58.6905 7.89827 58.6905 15.8719V15.8657ZM51.4743 15.8657C51.4743 11.1624 48.3176 7.77579 43.943 7.77579C39.5685 7.77579 36.3754 11.2053 36.3754 15.8657C36.3754 20.5262 39.5321 23.9557 43.943 23.9557C48.3539 23.9557 51.4743 20.5262 51.4743 15.8657Z" fill="#1E2342"/>
<path d="M63.9678 1.92188H72.6442L78.0851 11.8858L83.5624 1.92188H92.2328V29.8172H85.2165V11.8858L80.4845 20.2514H75.7161L70.984 11.8858V29.8172H63.9678V1.92188Z" fill="#1E2342"/>
<path d="M112.263 31.2308C103.484 31.2308 96.8613 24.6229 96.8613 15.8654C96.8613 7.10792 103.484 0.5 112.263 0.5C117.195 0.5 121.642 2.63732 124.46 6.36078L124.836 6.85683L118.274 11.9398L117.904 11.4009C116.589 9.4657 114.584 8.40011 112.263 8.40011C108.234 8.40011 105.308 11.5418 105.308 15.8654C105.308 20.189 108.167 23.3307 112.263 23.3307C114.59 23.3307 116.589 22.2651 117.904 20.3299L118.268 19.791L124.829 24.825L124.46 25.321C121.612 29.1302 117.28 31.2247 112.257 31.2247L112.263 31.2308ZM112.263 1.7432C104.187 1.7432 98.0974 7.81219 98.0974 15.8654C98.0974 23.9186 104.187 29.9876 112.263 29.9876C116.668 29.9876 120.491 28.2422 123.097 25.0638L118.534 21.5608C117.001 23.4838 114.747 24.5739 112.263 24.5739C107.519 24.5739 104.078 20.9117 104.078 15.8654C104.078 10.8191 107.519 7.15079 112.263 7.15079C114.784 7.15079 116.989 8.21638 118.534 10.1639L123.097 6.63024C120.479 3.4702 116.656 1.7432 112.263 1.7432Z" fill="#1E2342"/>
<path d="M143.273 30.4354H135.021V18.6955L122.939 1.29688H133.003L139.184 10.4586L145.364 1.29688H155.391L143.267 18.6955V30.4354H143.273ZM136.251 29.1922H142.037V18.3035L153.016 2.54619H146.012L139.184 12.6694L132.355 2.54619H125.309L136.251 18.3035V29.1922Z" fill="#1E2342"/>
<path d="M167.133 30.4354H156.857V1.29688H166.582C173.114 1.29688 177.016 4.45079 177.016 9.72978C177.016 11.7201 176.222 13.5329 174.756 14.9292C177.24 16.4724 178.591 18.7629 178.591 21.4452C178.591 26.9937 174.198 30.4354 167.133 30.4354ZM158.093 29.1922H167.133C173.538 29.1922 177.361 26.2955 177.361 21.4452C177.361 18.9772 175.955 16.895 173.398 15.5844L172.514 15.1313L173.307 14.5311C174.901 13.3246 175.78 11.616 175.78 9.72978C175.78 5.16119 172.429 2.54007 166.576 2.54007H158.087V29.1861L158.093 29.1922ZM167.57 24.5808H163.88V17.6789H167.57C169.921 17.6789 171.381 19.0017 171.381 21.1329C171.381 23.2641 169.884 24.5869 167.57 24.5869V24.5808ZM165.11 23.3314H167.57C169.206 23.3314 170.145 22.5292 170.145 21.1268C170.145 19.3018 168.745 18.9221 167.57 18.9221H165.11V23.3376V23.3314ZM166.782 13.0613H163.88V7.15153H166.782C168.648 7.15153 169.805 8.25999 169.805 10.0482C169.805 11.9345 168.678 13.0613 166.782 13.0613ZM165.11 11.8181H166.782C167.988 11.8181 168.569 11.2424 168.569 10.0482C168.569 8.95202 167.97 8.40085 166.782 8.40085H165.11V11.8181Z" fill="#1E2342"/>
<path d="M201.3 30.4354H183.038V1.29688H201.3V8.40085H191.284V12.0569H199.718V19.1609H191.284V23.3376H201.3V30.4415V30.4354ZM184.268 29.1922H200.07V24.5808H190.054V17.9177H198.488V13.3063H190.054V7.15765H200.07V2.54007H184.268V29.1861V29.1922Z" fill="#1E2342"/>
<path d="M232.243 30.4354H222.506L215.569 19.8774H214.86V30.4354H206.607V1.29688H216.49C223.312 1.29688 227.553 4.86111 227.553 10.6055C227.553 13.9003 226.123 16.5643 223.506 18.1811L232.243 30.4354ZM223.167 29.1922H229.831L221.676 17.7585L222.312 17.4278C224.93 16.0682 226.317 13.7105 226.317 10.6117C226.317 5.55926 222.639 2.54619 216.484 2.54619H207.831V29.1922H213.618V18.6342H216.223L223.16 29.1922H223.167ZM216.926 14.0167H213.63V7.15153H216.926C218.968 7.15153 220.343 8.50496 220.343 10.5259C220.343 12.6449 219.004 14.0167 216.926 14.0167ZM214.86 12.7735H216.926C218.313 12.7735 219.107 11.9528 219.107 10.5259C219.107 9.19698 218.289 8.40085 216.926 8.40085H214.86V12.7735Z" fill="#1E2342"/>
<path d="M241.246 12.7969V18.9332H230.601V12.7969H241.246Z" fill="#1E2342"/>
<path d="M245.857 1.91992H254.527L259.968 11.8839L265.445 1.91992H274.116V29.8153H267.099V11.8839L262.367 20.2494H257.599L252.867 11.8839V29.8153H245.851V1.91992H245.857Z" fill="#1E2342"/>
<path d="M281.732 1.91992H288.749V29.8153H281.732V1.91992Z" fill="#1E2342"/>
<path d="M4.2146 38.9219H97.159V45.4992H4.2146C2.42115 45.4992 0.960938 44.0233 0.960938 42.2105C0.960938 40.3978 2.42115 38.9219 4.2146 38.9219Z" fill="#293273"/>
<path d="M193.363 38.9219H97.165V45.4992H193.363V38.9219Z" fill="white"/>
<path d="M193.303 38.9219H286.247C288.041 38.9219 289.501 40.3978 289.501 42.2105C289.501 44.0233 288.041 45.4992 286.247 45.4992H193.303V38.9219Z" fill="#E00814"/>
</g>
<defs>
<clipPath id="clip0_8782_71989">
<rect width="289" height="45" fill="white" transform="translate(0.5 0.5)"/>
</clipPath>
</defs>
</svg>
