<?xml version="1.0" encoding="utf-8"?>
<!-- Generator: Adobe Illustrator 28.2.0, SVG Export Plug-In . SVG Version: 6.00 Build 0)  -->
<svg version="1.1" id="Calque_1" xmlns="http://www.w3.org/2000/svg" xmlns:xlink="http://www.w3.org/1999/xlink" x="0px" y="0px"
	 viewBox="0 0 987.6 732.8" style="enable-background:new 0 0 987.6 732.8;" xml:space="preserve">
<style type="text/css">
	.st0{fill:#173F87;}
	.st1{fill:#FFFFFF;}
	.st2{fill:#E0E0E0;}
	.st3{fill:#E00814;}
</style>
<g>
	<path d="M282.6,156.6c-23,0-41.3-2-55-6c-13.7-4-24-11.6-31-22.8c-6.9-11.2-10.4-27.5-10.4-48.9c0-21.4,3.5-37.7,10.6-49
		c7.1-11.2,17.4-18.9,31.1-23.1c13.7-4.1,31.9-6.2,54.6-6.2c22.9,0,41.2,2.1,54.8,6.2c13.6,4.1,23.8,11.8,30.8,23.1
		c6.9,11.2,10.4,27.6,10.4,49c0,21.4-3.5,37.7-10.4,48.9c-6.9,11.2-17.2,18.8-30.8,22.8C323.8,154.6,305.5,156.6,282.6,156.6z
		 M282.6,124.9c11.6,0,20.4-1.2,26.4-3.5s10.3-6.8,12.9-13.3c2.6-6.5,3.9-16.2,3.9-29.1c0-13.4-1.3-23.4-3.9-29.9
		c-2.6-6.5-6.9-10.9-12.9-13.2s-14.8-3.4-26.4-3.4c-11.4,0-20.2,1.1-26.1,3.4s-10.4,6.7-13.1,13.3c-2.8,6.6-4.2,16.5-4.2,29.8
		c0,13,1.3,22.8,3.9,29.2c2.6,6.5,6.9,10.9,12.9,13.2C261.9,123.7,270.8,124.9,282.6,124.9z"/>
	<path d="M542.2,154.9h-90.3c-20.9,0-33.7-1.2-44.5-7.6C398,141.7,394,133.4,394,119V3.1h53.6v108.4c0,8.5,1.1,12.7,20.8,12.7h73.8
		V154.9L542.2,154.9z M713.1,156.6c-20.4,0-34.1-1.2-48.9-7c-12.1-4.8-21-11.4-27.9-22.8c-6.6-11.4-11.2-27.1-11.2-48.4
		c0-20.5,3-36.6,9.8-48c6.9-11.4,16.1-19.3,28.9-23.6c13.1-4.3,26.6-6,49.9-6c14.8,0,28.9,0.6,42,2.1c13.1,1.4,24.3,3.3,33.8,5.2
		v27.1c-6.6-1-15.8-1.4-27.9-2.1c-12.1-0.6-24.6-1-37.8-1c-13.1,0-28.9,0-35.5,6.4c-9.2,9.3-10.5,19.7-10.5,40.2
		c0,14.1,1,21.3,3.6,28.4c2.3,5.4,4.9,9.9,11.5,13.5c7.6,3.9,17.1,5,30.9,5c26.6,0,48.6-0.6,65.7-2.1v27.3
		C770.2,154.5,744.6,156.6,713.1,156.6L713.1,156.6z M863.4,155.8c-19.9,0-29.4-1.4-41.1-5.8c-11.8-4.3-17.6-13.4-17.6-27V35.8
		c0-12.4,5.2-20.2,15.7-26c10.8-5.8,24.2-7.2,39.5-7.2c33.3,0,68.2,1.2,104.4,3.1v28.9h-90.1c-14,0-17,3.3-17,10.5v18.8l91.7,1.6
		v28.2l-91.7,2.1v14.4c0,12.8,5.5,13.6,20.2,13.6h86.8v28.4C935.2,154.3,901.6,155.8,863.4,155.8L863.4,155.8z M557.5,1.9h52.6v153
		h-52.6V1.9z M0,2.6h102.4c20.4,0,36.8,2.3,49.9,9.5c13.1,7.2,21,20.2,19.7,42.8c-2.3,34-25.6,46.9-63,46.1
		c-6.9-0.2-45.3-3.1-55.8-4.3v58.2H0V2.6z M99.5,71.4c15.4,0,19.4-9.9,19.4-19.1c-0.3-14.4-7.9-20.2-18.4-20.2H53.2v39.3H99.5z"/>
	<path d="M924.7,275.9c-5.5,0.2-10-0.2-13.8-2.4c-3.8-2-5.7-6.5-5.7-12.5v-48.1c0-5.6,1-10.1,4.7-12.5c3.7-2.5,8.9-3.5,14.2-3.3
		c14,0.6,40.2,1.8,40.2,1.8v8h-37.6c-7.4,0-9.4-0.1-9.4,6.1v18.6l41.2,1.4v7.8l-41.2,1v15.9c0,3.6-0.3,6,1.4,7
		c2.1,1.3,5,1.6,8.5,1.6h37v7.6C948.2,275.1,934.5,275.4,924.7,275.9L924.7,275.9z M0.1,197.1h11.7l48.1,60.4v-60.4h12v78.8H60.2
		l-48.1-60.4v60.4h-12V197.1z M545.9,196.4h11.7l48.1,60.4v-60.4h12v78.8H606l-48.1-60.4v60.4h-12V196.4z M155.9,197.1h12.8
		l33.4,78.8h-13.7l-8-21.2h-36.1l-9,21.2h-13.6L155.9,197.1L155.9,197.1z M176.5,245.7l-14-34.5l-15.3,34.5H176.5L176.5,245.7z
		 M701.7,197.1h12.8l33.4,78.8h-13.7l-8-21.2H690l-9,21.2h-13.6L701.7,197.1L701.7,197.1z M722.3,245.7l-14-34.5L693,245.7H722.3
		L722.3,245.7z M263.8,206.8h-27.6v-9.7h67.5v9.7h-27.9v69h-12V206.8z M354,197.1h12.1v78.8H354V197.1z M455.9,276.5
		c-9.1,0-16.3-1-21.5-2.9c-5.3-2-9.2-5.9-11.9-11.6c-2.8-5.7-4.1-14-4.1-25.3c0-11.1,1.5-19.6,4.2-25.5c2.8-5.8,6.7-9.7,12-11.8
		c5.3-2,12.4-3.1,21.2-3.1c9.1,0,16.3,1,21.6,3c5.3,2,9.2,6,11.9,11.8c2.6,5.9,4,14.3,4,25.6c0,11.2-1.3,19.6-4,25.3
		c-2.8,5.7-6.7,9.5-12,11.6C472.3,275.5,465,276.5,455.9,276.5L455.9,276.5z M455.9,266.4c7,0,12-0.9,15.7-2.4c3.8-1.6,5.3-3.4,7-8
		c1.8-4.5,2.6-10.2,2.6-19.3c0-9.5-0.8-14.5-2.6-19.2c-1.7-4.6-2.8-7.7-6.5-9.2c-3.8-1.5-9.2-2.4-16.2-2.4c-6.7,0-11.9,0.9-15.7,2.4
		c-3.8,1.5-5,4.6-6.9,9.3c-1.8,4.7-2.8,9.7-2.8,19.1c0,9.2,0.4,14,2,18.5c1.7,4.5,3.2,7.2,7,8.8
		C443.3,265.6,448.7,266.4,455.9,266.4L455.9,266.4z M815.7,275.9c-6.1,0-12.1-1.2-15.5-3.6c-3.4-2.4-3.8-6.4-3.8-12.2v-62.9h11.7
		v61.8c0,3.5,0.1,5,2.1,6.4c2.1,1.3,5.6,1.1,9,1.1h35.2v9.5H815.7L815.7,275.9z"/>
</g>
<g>
	<path class="st0" d="M451.5,357.6H317.9v58.2c0.1,58.3-28.5,115.2-58.8,147.8C348.5,520.3,414.6,450.6,451.5,357.6z"/>
	<path class="st1" d="M560.1,357.6H451.5c-15.7,39.7-36.8,75.2-62.7,106.1c-2.2,47.5-13.6,102.4-68.1,168.8l-0.4,0.5
		C479.6,558.1,543.2,415.8,560.1,357.6z"/>
	<path class="st2" d="M590.4,357.6h-30.3c-16.9,58.2-80.5,200.5-239.9,275.5C442.8,585.7,541.2,516.8,590.4,357.6z"/>
	<path class="st3" d="M700.2,357.6H590.4c-24.3,78.7-60.7,135.3-106,178.2c-8.5,57.1-29.8,122.5-82.2,181.6
		C535.4,655.8,657.5,527.5,700.2,357.6z"/>
</g>
</svg>
