<?xml version="1.0" encoding="UTF-8"?>
<svg id="Calque_1" data-name="Calque 1" xmlns="http://www.w3.org/2000/svg" xmlns:xlink="http://www.w3.org/1999/xlink" viewBox="0 0 1197 874">
  <defs>
    <style>
      .cls-1 {
        clip-path: url(#clippath);
      }

      .cls-2 {
        fill: none;
      }

      .cls-2, .cls-3, .cls-4, .cls-5, .cls-6, .cls-7 {
        stroke-width: 0px;
      }

      .cls-3 {
        fill: #e0e0e0;
      }

      .cls-4 {
        fill: #000;
      }

      .cls-5 {
        fill: #174087;
      }

      .cls-6 {
        fill: #e00814;
      }

      .cls-7 {
        fill: #fff;
      }
    </style>
    <clipPath id="clippath">
      <rect class="cls-2" x="3.25" y="2.37" width="1186.75" height="864.29"/>
    </clipPath>
  </defs>
  <g class="cls-1">
    <path class="cls-4" d="M351.03,152.13c14.3,0,25.13-1.4,32.51-4.23,7.38-2.83,12.65-8.17,15.84-16.03,3.19-7.87,4.76-19.59,4.76-35.16s-1.57-28.2-4.76-36.06c-3.19-7.87-8.46-13.18-15.84-15.93-7.38-2.73-18.21-4.12-32.51-4.12s-24.81,1.38-32.19,4.12c-7.38,2.75-12.76,8.1-16.18,16.05-3.4,7.93-5.1,19.92-5.1,35.94s1.59,27.48,4.76,35.28c3.19,7.78,8.46,13.09,15.84,15.91,7.38,2.83,18.34,4.23,32.87,4.23M351.05,190.37c-28.24,0-50.79-2.41-67.64-7.25-16.84-4.82-29.55-13.98-38.1-27.46-8.55-13.47-12.82-33.12-12.82-58.91s4.34-45.48,13.01-59.04c8.69-13.56,21.45-22.86,38.29-27.84,16.84-4.99,39.26-7.49,67.26-7.49s50.72,2.5,67.45,7.49c16.71,4.99,29.34,14.28,37.9,27.84,8.55,13.56,12.84,33.25,12.84,59.04s-4.29,45.44-12.84,58.91c-8.55,13.49-21.19,22.65-37.9,27.46-16.73,4.84-39.2,7.25-67.45,7.25"/>
    <path class="cls-4" d="M125.68,87.59c18.99,0,23.84-11.91,23.84-23.08-.42-17.37-9.71-24.32-22.63-24.32h-58.19v47.4h56.98ZM3.24,4.68h126.05c25.06,0,45.26,2.73,61.42,11.42,16.16,8.69,25.87,24.33,24.24,51.63-2.83,40.95-31.5,56.6-77.56,55.59-8.5-.25-55.76-3.72-68.7-5.2v70.23H3.24V4.68ZM689.45,3.77h64.7v184.59h-64.7V3.77ZM1065.87,189.38c-24.51,0-36.15-1.74-50.6-6.96-14.47-5.23-21.7-16.16-21.7-32.57V44.7c0-14.91,6.43-24.35,19.29-31.31,13.24-6.96,29.72-8.71,48.59-8.71,40.99,0,83.97,1.5,128.56,3.74v34.8h-110.88c-17.28,0-20.88,3.96-20.88,12.67v22.63l112.87,1.99v34.05l-112.87,2.48v17.39c0,15.42,6.83,16.41,24.9,16.41h106.86v34.31c-35.75,2.48-77.14,4.23-124.14,4.23ZM880.92,190.37c-25.04,0-42.01-1.5-60.2-8.48-14.95-5.75-25.85-13.73-34.33-27.46-8.08-13.73-13.75-32.72-13.75-58.44s3.64-44.17,12.12-57.91c8.5-13.73,19.8-23.23,35.56-28.47,16.16-5.23,32.72-7.25,61.42-7.25,18.19,0,35.56.76,51.72,2.5,16.16,1.75,29.89,4,41.61,6.24v32.7c-8.08-1.23-19.4-1.74-34.35-2.48-14.95-.76-30.31-1.25-46.47-1.25s-35.54,0-43.62,7.74c-11.32,11.23-12.94,23.71-12.94,48.44,0,16.98,1.21,25.7,4.44,34.2,2.83,6.49,6.07,11.99,14.15,16.22,9.29,4.76,21.02,5.99,37.97,5.99,32.74,0,59.8-.74,80.82-2.48v32.95c-23.84,4.74-55.36,7.25-94.15,7.25ZM670.54,188.36h-111.11c-25.68,0-41.54-1.48-54.74-9.14-11.66-6.77-16.46-16.82-16.46-34.18V5.19h65.93v130.68c0,10.22,1.35,15.33,25.59,15.33h90.8v37.16Z"/>
    <path class="cls-4" d="M1007.19,334.18c-7.55,0-14.93-1.42-19.1-4.38-4.17-2.85-4.65-7.76-4.65-14.72v-75.91h14.43v74.48c0,4.27.17,6.07,2.58,7.74,2.56,1.56,6.9,1.29,11.08,1.29h43.32v11.49h-47.66ZM564.41,322.82c8.61,0,14.78-1.02,19.33-2.85,4.7-1.93,6.49-4.12,8.59-9.67,2.28-5.42,3.24-12.27,3.24-23.23s-.97-17.43-3.24-23.1c-2.11-5.56-3.41-9.29-7.95-11.11-4.7-1.8-11.36-2.83-19.97-2.83s-14.6,1.02-19.31,2.83c-4.7,1.82-6.16,5.56-8.44,11.23-2.26,5.69-3.4,11.76-3.4,22.99s.47,16.9,2.43,22.32c2.11,5.42,3.89,8.65,8.59,10.58,4.55,1.82,11.21,2.85,20.12,2.85M564.41,334.96c-11.19,0-20.11-1.16-26.44-3.49-6.49-2.45-11.36-7.09-14.6-13.94-3.41-6.85-5.03-16.92-5.03-30.46s1.78-23.63,5.18-30.73c3.41-6.96,8.29-11.74,14.78-14.21,6.49-2.45,15.25-3.74,26.12-3.74s20.12,1.16,26.63,3.62c6.49,2.45,11.34,7.23,14.6,14.19,3.24,7.11,4.86,17.3,4.86,30.86s-1.61,23.61-4.86,30.46c-3.41,6.85-8.29,11.49-14.78,13.94-6.33,2.33-15.25,3.49-26.46,3.49ZM438.92,239.17h14.93v95.01h-14.93v-95.01ZM327.87,250.91h-34.01v-11.74h83.11v11.74h-34.33v83.27h-14.78v-83.27ZM892.17,297.78l-17.18-41.58-18.78,41.58h35.96ZM866.82,239.17h15.72l41.08,95.01h-16.86l-9.79-25.57h-44.44l-11.08,25.57h-16.69l42.05-95.01ZM220.53,297.78l-17.18-41.58-18.76,41.58h35.94ZM195.18,239.17h15.72l41.08,95.01h-16.84l-9.81-25.57h-44.44l-11.08,25.57h-16.69l42.05-95.01ZM675.12,238.4h14.4l59.22,72.81v-72.81h14.72v95.01h-14.4l-59.21-72.8v72.8h-14.72v-95.01ZM3.38,239.17h14.38l59.22,72.8v-72.8h14.72v95.01h-14.38l-59.21-72.8v72.8H3.38v-95.01ZM1141.38,334.18c-6.73.27-12.35-.27-17.01-2.85-4.65-2.45-7.06-7.87-7.06-15.1v-57.96c0-6.71,1.29-12.14,5.77-15.1,4.5-2.98,10.92-4.27,17.51-4,17.17.78,49.43,2.2,49.43,2.2v9.67h-46.22c-9.14,0-11.55-.13-11.55,7.36v22.46l50.7,1.69v9.41l-50.7,1.18v19.23c0,4.38-.32,7.23,1.76,8.38,2.56,1.56,6.09,1.93,10.43,1.93h45.58v9.18c-19.74,1.4-36.59,1.8-48.63,2.31Z"/>
    <path class="cls-5" d="M558.88,432.73h-164.41v70.18c.09,70.25-35.09,138.91-72.36,178.29,110.07-52.16,191.36-136.28,236.77-248.47"/>
    <path class="cls-7" d="M692.6,432.73h-133.72c-19.38,47.87-45.31,90.64-77.21,128.01-2.71,57.34-16.71,123.46-83.74,203.59l-.55.64c196.16-90.45,274.45-261.99,295.22-332.24"/>
    <path class="cls-3" d="M729.87,432.73h-37.27c-20.77,70.25-99.06,241.79-295.2,332.24,150.86-57.09,271.89-140.24,332.47-332.24"/>
    <path class="cls-6" d="M865.05,432.73h-135.18c-29.95,94.91-74.67,163.21-130.45,214.93-10.47,68.81-36.72,147.77-101.19,218.99,164.03-74.27,314.28-229.03,366.82-433.93"/>
  </g>
</svg>
