<svg version="1.1" xmlns="http://www.w3.org/2000/svg" xmlns:xlink="http://www.w3.org/1999/xlink" x="0px" y="0px" width="171.891" height="126.203" viewBox="0 0 171.891 126.203" xml:space="preserve">
<g id="logo-acyma">
	<defs>
		<rect id="SVGID_1_" width="171.891" height="126.203"></rect>
	<rect id="SVGID_1_" width="171.891" height="126.203"></rect></defs>
	<clipPath id="SVGID_2_">
		<use xlink:href="#SVGID_1_" overflow="visible"></use>
	</clipPath>
	<path clip-path="url(#SVGID_2_)" fill="#273375" d="M49.47,21.044c-15.741,0-28.502,12.76-28.502,28.502
		c0,6.734,2.341,12.88,6.247,17.758h3.481v3.598v0.079c1.512,1.324,3.163,2.457,4.933,3.441h2.185v1.131
		c3.559,1.599,7.502,2.494,11.656,2.494c2.258,0,4.453-0.269,6.559-0.767l-6.75-12.831c-1.515-0.021-2.974-0.266-4.347-0.704v0.038
		h-3.559v-1.735c-0.823-0.533-1.59-1.181-2.29-1.861h-1.269v3.558h-3.56v-3.558h3.56v-1.355c-2.034-2.547-3.256-5.771-3.256-9.286
		c0-8.238,6.677-14.914,14.912-14.914c4.892,0,9.217,2.365,11.937,6.001l9.667-9.667C65.849,24.894,58.11,21.044,49.47,21.044
		 M41.373,67.342h3.558v3.56h-3.558V67.342z"></path>
	<polygon clip-path="url(#SVGID_2_)" fill="#E30613" points="41.373,63.745 41.373,60.187 37.813,60.187 37.813,63.745
		34.253,63.745 30.695,63.745 30.695,67.305 34.253,67.305 34.253,70.862 30.695,70.862 30.695,74.423 27.136,74.423 27.136,77.98
		30.695,77.98 34.253,77.98 34.253,74.423 37.813,74.423 37.813,70.862 41.373,70.862 41.373,67.305 44.932,67.305 44.932,63.745
		"></polygon>
	<rect x="23.579" y="67.304" clip-path="url(#SVGID_2_)" fill="#E30613" width="3.557" height="3.56"></rect>
	<rect x="37.813" y="74.422" clip-path="url(#SVGID_2_)" fill="#E30613" width="3.56" height="3.56"></rect>
	<polygon clip-path="url(#SVGID_2_)" fill="#E30613" points="97.592,50.751 95.071,50.751 97.28,54.949 99.8,54.949 	"></polygon>
	<path clip-path="url(#SVGID_2_)" fill="#E30613" d="M63.848,47.249c-0.155-0.176-0.331-0.34-0.512-0.494
		c-0.824-0.704-1.893-1.134-3.072-1.134c-0.455,0-0.89,0.067-1.309,0.185c-1.994,0.568-3.459,2.404-3.459,4.583
		c0,2.194,1.486,4.039,3.498,4.594c0.405,0.114,0.83,0.177,1.27,0.177c1.161,0,2.219-0.422,3.045-1.111
		c0.19-0.161,0.377-0.33,0.539-0.52l-1.618-1.618c-0.01,0.011-0.021,0.023-0.031,0.035c-0.456,0.567-1.149,0.936-1.935,0.936
		c-0.052,0-0.099-0.013-0.152-0.013c-1.3-0.083-2.341-1.156-2.341-2.48c0-1.309,1.02-2.37,2.3-2.473
		c0.065-0.003,0.126-0.018,0.193-0.018c0.8,0,1.506,0.385,1.96,0.969v0.003L63.848,47.249z"></path>
	<path clip-path="url(#SVGID_2_)" fill="#E30613" d="M96.748,45.859h-4.666v9.09h2.337v-2.722h2.329c1.8,0,3.162-1.503,3.162-3.178
		C99.91,47.317,98.507,45.859,96.748,45.859 M96.748,49.988h-2.329V48.12h2.329c0.52,0,0.9,0.437,0.9,0.943
		C97.648,49.568,97.235,49.988,96.748,49.988"></path>
	<path clip-path="url(#SVGID_2_)" fill="#E30613" d="M80.486,50.031c0.558-0.315,0.992-1.009,0.992-1.88
		c0-1.284-1.102-2.292-2.341-2.292h-5.181v9.09h5.168c1.623,0,2.794-1.223,2.794-2.737C81.918,50.956,81.238,50.222,80.486,50.031
		 M76.193,48.083h2.413c0.366,0,0.586,0.229,0.586,0.542s-0.22,0.546-0.586,0.546h-2.413V48.083z M78.756,52.729h-2.563v-1.35h2.563
		c0.381,0,0.678,0.275,0.678,0.683C79.435,52.401,79.179,52.729,78.756,52.729"></path>
	<polygon clip-path="url(#SVGID_2_)" fill="#E30613" points="83.142,54.949 90.365,54.949 90.365,52.703 85.433,52.703
		85.433,51.53 89.232,51.53 89.232,49.295 85.433,49.295 85.433,48.108 90.365,48.108 90.365,45.859 83.142,45.859 	"></polygon>
	<polygon clip-path="url(#SVGID_2_)" fill="#E30613" points="68.795,48.636 67.336,45.857 64.751,45.857 67.503,51.087
		65.468,54.949 68,54.949 72.783,45.857 70.259,45.857 	"></polygon>
	<path clip-path="url(#SVGID_2_)" fill="#273375" d="M60.952,75.952c0.369,0,0.659,0.291,0.659,0.648
		c0,0.358-0.29,0.636-0.659,0.636c-0.368,0-0.648-0.277-0.648-0.636C60.304,76.243,60.595,75.952,60.952,75.952"></path>
	<path clip-path="url(#SVGID_2_)" fill="#273375" d="M72.03,73.015v0.27c0,2.545-1.552,4.064-3.986,4.064
		c-0.794,0-1.475-0.179-2.011-0.47c-1.307-0.714-2.055-2.032-2.055-3.652c0-1.327,0.424-2.399,1.284-3.216
		c0.726-0.691,1.686-1.039,2.837-1.039c1.518,0,2.647,0.549,3.395,1.677l-0.793,0.637c-0.581-0.972-1.441-1.453-2.568-1.453
		c-1.854,0-3.128,1.374-3.128,3.395c0,1.91,1.307,3.263,3.128,3.263c1.585,0,2.77-1.062,2.881-2.624h-2.279v-0.851H72.03z"></path>
	<path clip-path="url(#SVGID_2_)" fill="#273375" d="M80.918,76.121c-0.816,0.793-1.91,1.228-3.027,1.228
		c-1.128,0-2.211-0.447-3.015-1.228c-0.816-0.793-1.252-1.822-1.252-2.96c0-1.14,0.436-2.179,1.252-2.972
		c0.804-0.78,1.887-1.218,3.015-1.218c1.128,0,2.223,0.438,3.027,1.218c0.815,0.793,1.24,1.832,1.24,2.972
		C82.158,74.299,81.722,75.339,80.918,76.121 M80.203,75.483c0.625-0.625,0.96-1.43,0.96-2.322c0-0.894-0.335-1.721-0.96-2.346
		c-0.626-0.626-1.43-0.961-2.312-0.961c-0.882,0-1.698,0.335-2.312,0.961c-0.626,0.637-0.961,1.452-0.961,2.346
		c0,0.893,0.335,1.686,0.961,2.322c0.636,0.638,1.43,0.973,2.312,0.973C78.763,76.456,79.567,76.121,80.203,75.483"></path>
	<path clip-path="url(#SVGID_2_)" fill="#273375" d="M84.858,69.15v4.972c0,1.596,0.648,2.344,2.133,2.344
		c1.486,0,2.134-0.748,2.134-2.344V69.15h0.959v4.972c0,2.154-1.016,3.227-3.093,3.227c-2.078,0-3.094-1.072-3.094-3.227V69.15
		H84.858z"></path>
	<polygon clip-path="url(#SVGID_2_)" fill="#273375" points="91.657,69.15 92.685,69.15 95.029,75.26 97.363,69.15 98.392,69.15
		95.029,77.45 	"></polygon>
	<path clip-path="url(#SVGID_2_)" fill="#273375" d="M99.052,75.952c0.369,0,0.658,0.291,0.658,0.648
		c0,0.358-0.289,0.636-0.658,0.636c-0.368,0-0.646-0.277-0.646-0.636C98.405,76.243,98.695,75.952,99.052,75.952"></path>
	<polygon clip-path="url(#SVGID_2_)" fill="#273375" points="102.445,69.15 106.656,69.15 106.656,70.022 103.395,70.022
		103.395,72.312 106.656,72.312 106.656,73.194 103.395,73.194 103.395,77.136 102.445,77.136 	"></polygon>
	<path clip-path="url(#SVGID_2_)" fill="#273375" d="M108.889,69.15h1.63h0.246c0.759,0,1.34,0.022,1.831,0.404
		c0.458,0.356,0.749,0.992,0.749,1.774c0,1.307-0.749,1.999-2.156,1.999h-0.167l3.049,3.809h-1.206l-2.915-3.809h-0.134v3.809
		h-0.927V69.15z M109.815,72.625h0.727c1.251,0,1.864-0.18,1.864-1.285c0-1.161-0.604-1.385-1.864-1.385h-0.727V72.625z"></path>
	<path clip-path="url(#SVGID_2_)" fill="#273375" d="M62.399,61.758c0.013-0.009,0.038-0.023,0.05-0.032v4.878h2.279v-9.241
		c0,0.002-0.01,0.006-0.013,0.008L62.399,61.758z"></path>
	<polygon clip-path="url(#SVGID_2_)" fill="#273375" points="84.766,61.965 86.722,58.208 84.753,61.94 	"></polygon>
	<polygon clip-path="url(#SVGID_2_)" fill="#273375" points="86.722,58.208 87.09,57.515 87.082,57.515 	"></polygon>
	<path clip-path="url(#SVGID_2_)" fill="#273375" d="M141.281,60.498c0.176-0.177,1.481-1.54,1.595-1.647
		c-0.143-0.144-0.316-0.299-0.506-0.456l-1.099,2.089C141.272,60.49,141.275,60.495,141.281,60.498"></path>
	<path clip-path="url(#SVGID_2_)" fill="#273375" d="M56.083,57.363v9.241h2.267v-4.878c0.322,0.205,1.739,1.117,2.043,1.295
		c0.261-0.158,1.607-0.997,2.007-1.263l2.316-4.387c-0.494,0.341-3.89,2.543-4.323,2.844C59.969,59.927,56.715,57.774,56.083,57.363
		"></path>
	<polygon clip-path="url(#SVGID_2_)" fill="#273375" points="78.169,57.515 75.836,57.515 75.836,66.604 80.813,66.604
		80.813,64.397 78.169,64.397 	"></polygon>
	<polygon clip-path="url(#SVGID_2_)" fill="#273375" points="105.613,57.515 103.283,57.515 103.283,66.604 108.258,66.604
		108.258,64.397 105.613,64.397 	"></polygon>
	<polygon clip-path="url(#SVGID_2_)" fill="#273375" points="112.118,57.515 109.787,57.515 109.787,66.604 114.765,66.604
		114.765,64.397 112.118,64.397 	"></polygon>
	<path clip-path="url(#SVGID_2_)" fill="#273375" d="M87.09,57.515l-0.367,0.693l-1.957,3.757l-0.013-0.025l-2.302-4.425H79.97
		c0.158,0.394,2.199,4.154,3.575,6.714c0.594,1.118,1.069,2.01,1.203,2.287v0.088c0.003-0.006,0.015-0.032,0.018-0.044
		c0.009,0.012,0.024,0.038,0.025,0.044l-0.001-0.088c0.425-0.918,4.547-8.433,4.774-9.001H87.09z"></path>
	<path clip-path="url(#SVGID_2_)" fill="#273375" d="M70.186,57.603v-0.089c-0.003,0.011-0.013,0.036-0.018,0.044
		c-0.007-0.008-0.02-0.033-0.024-0.044l0.004,0.089c-0.434,0.919-4.552,8.436-4.777,9.001h2.474l0.369-0.694l0.177-0.34h3.553
		l0.539,1.034h2.483c-0.16-0.396-2.199-4.155-3.577-6.714C70.794,58.775,70.32,57.883,70.186,57.603 M69.484,63.47l0.684-1.314
		l0.012,0.024l0.671,1.29H69.484z"></path>
	<path clip-path="url(#SVGID_2_)" fill="#273375" d="M120.191,57.603v-0.089c-0.005,0.011-0.02,0.036-0.02,0.044
		c-0.007-0.008-0.022-0.033-0.026-0.044l0.004,0.089c-0.433,0.919-4.548,8.436-4.771,9.001h2.473l0.37-0.694l0.177-0.34h3.553
		l0.539,1.034h2.479c-0.157-0.396-2.196-4.155-3.572-6.714C120.794,58.775,120.326,57.883,120.191,57.603 M119.488,63.47
		l0.684-1.314l0.012,0.024l0.672,1.29H119.488z"></path>
	<polygon clip-path="url(#SVGID_2_)" fill="#273375" points="90.516,66.604 97.74,66.604 97.74,64.356 92.808,64.356 92.808,63.183
		96.606,63.183 96.606,60.949 92.808,60.949 92.808,59.762 97.74,59.762 97.74,57.515 90.516,57.515 	"></polygon>
	<rect x="99.292" y="57.515" clip-path="url(#SVGID_2_)" fill="#273375" width="2.356" height="9.089"></rect>
	<path clip-path="url(#SVGID_2_)" fill="#273375" d="M130.967,61.779c-0.452-0.378-4.613-4.113-4.979-4.442v9.268h2.286v-4.263
		c0.385,0.341,4.514,4.045,4.964,4.442v-9.269h-2.271V61.779z"></path>
	<path clip-path="url(#SVGID_2_)" fill="#273375" d="M139.386,64.546c-0.083,0-0.161-0.017-0.248-0.026
		c-1.245-0.129-2.202-1.213-2.202-2.453c0-1.392,1.115-2.494,2.45-2.494c1.037,0,1.54,0.584,1.886,0.911l1.099-2.089
		c-0.668-0.552-1.647-1.099-2.984-1.099c-2.602,0-4.796,2.045-4.796,4.771c0,2.25,1.502,3.981,3.445,4.542
		c0.436,0.127,0.882,0.215,1.351,0.215c1.68,0,2.891-0.993,3.519-1.677c-0.142-0.138-1.447-1.472-1.58-1.609
		C140.875,64.1,140.181,64.546,139.386,64.546"></path>
	<polygon clip-path="url(#SVGID_2_)" fill="#273375" points="151.205,59.762 151.205,57.514 143.98,57.514 143.98,66.604
		151.205,66.604 151.205,64.357 146.271,64.357 146.271,63.183 150.072,63.183 150.072,60.949 146.271,60.949 146.271,59.762 	"></polygon>
	<rect x="44.93" y="56.628" clip-path="url(#SVGID_2_)" fill="#E30613" width="3.557" height="3.559"></rect>
	<rect x="37.814" y="53.07" clip-path="url(#SVGID_2_)" fill="#E30613" width="3.557" height="3.558"></rect>

	<g id="logo-cm-baseline">
		<path clip-path="url(#SVGID_2_)" d="M29.398,88.07h1.133l2.513,6.302h-0.9l-0.73-1.854h-2.898l-0.73,1.854h-0.9L29.398,88.07z
			 M31.135,91.788l-1.17-2.979l-1.171,2.979H31.135z"></path>
		<path clip-path="url(#SVGID_2_)" d="M34.958,93.283c0.315,0.396,0.693,0.63,1.152,0.63c0.504,0,0.792-0.306,0.792-0.701
			c0-1.027-2.223-0.649-2.223-2.278c0-0.729,0.603-1.278,1.459-1.278c0.666,0,1.223,0.307,1.539,0.747l-0.531,0.459
			c-0.252-0.359-0.585-0.566-1-0.566c-0.468,0-0.72,0.252-0.72,0.62c0,1.035,2.223,0.677,2.223,2.261
			c-0.008,0.846-0.683,1.378-1.53,1.378c-0.72,0-1.287-0.289-1.701-0.802L34.958,93.283z"></path>
		<path clip-path="url(#SVGID_2_)" d="M39.72,93.283c0.315,0.396,0.693,0.63,1.152,0.63c0.504,0,0.792-0.306,0.792-0.701
			c0-1.027-2.223-0.649-2.223-2.278c0-0.729,0.603-1.278,1.459-1.278c0.666,0,1.223,0.307,1.539,0.747l-0.531,0.459
			c-0.252-0.359-0.585-0.566-1-0.566c-0.468,0-0.72,0.252-0.72,0.62c0,1.035,2.223,0.677,2.223,2.261
			c-0.008,0.846-0.683,1.378-1.53,1.378c-0.72,0-1.287-0.289-1.701-0.802L39.72,93.283z"></path>
		<path clip-path="url(#SVGID_2_)" d="M44.31,88.115c0-0.288,0.243-0.531,0.54-0.531s0.531,0.243,0.531,0.531
			c0,0.297-0.234,0.54-0.531,0.54S44.31,88.412,44.31,88.115 M44.463,89.835h0.765v4.537h-0.765V89.835z"></path>
		<path clip-path="url(#SVGID_2_)" d="M47.676,93.283c0.315,0.396,0.693,0.63,1.152,0.63c0.504,0,0.792-0.306,0.792-0.701
			c0-1.027-2.223-0.649-2.223-2.278c0-0.729,0.603-1.278,1.459-1.278c0.666,0,1.223,0.307,1.539,0.747l-0.531,0.459
			c-0.252-0.359-0.585-0.566-1-0.566c-0.467,0-0.72,0.252-0.72,0.62c0,1.035,2.223,0.677,2.223,2.261
			c-0.008,0.846-0.683,1.378-1.53,1.378c-0.72,0-1.287-0.289-1.701-0.802L47.676,93.283z"></path>
		<path clip-path="url(#SVGID_2_)" d="M52.716,90.537h-0.855v-0.702h0.855V88.7h0.774v1.135h1.576v0.702H53.49v2.313
			c0,0.712,0.361,0.91,0.91,0.91c0.296,0,0.504-0.036,0.674-0.108v0.685c-0.215,0.091-0.459,0.126-0.783,0.126
			c-1.008,0-1.575-0.505-1.575-1.612V90.537z"></path>
		<path clip-path="url(#SVGID_2_)" d="M56.794,93.257c0-0.702,0.521-1.206,1.494-1.36l1.522-0.252v-0.315
			c0-0.63-0.451-0.989-1.09-0.989c-0.532,0-0.972,0.233-1.234,0.631l-0.576-0.442c0.397-0.54,1.036-0.873,1.828-0.873
			c1.153,0,1.836,0.675,1.836,1.674v3.043H59.81v-0.575c-0.342,0.477-0.91,0.757-1.522,0.757
			C57.396,94.554,56.794,94.049,56.794,93.257 M58.414,93.913c0.604,0,1.08-0.314,1.396-0.837v-0.863l-1.342,0.232
			c-0.63,0.101-0.909,0.388-0.909,0.783C57.559,93.616,57.892,93.913,58.414,93.913"></path>
		<path clip-path="url(#SVGID_2_)" d="M62.932,89.835h0.765v0.514c0.369-0.405,0.838-0.693,1.512-0.693
			c1.018,0,1.774,0.684,1.774,1.972v2.745h-0.775v-2.719c0-0.81-0.45-1.278-1.152-1.278c-0.657,0-1.071,0.378-1.359,0.856v3.141
			h-0.765V89.835z"></path>
		<path clip-path="url(#SVGID_2_)" d="M72.707,93.157l0.612,0.469c-0.424,0.566-1.081,0.928-1.909,0.928
			c-1.503,0-2.467-1.126-2.467-2.45c0-1.323,0.964-2.448,2.467-2.448c0.819,0,1.485,0.369,1.909,0.928l-0.612,0.469
			c-0.279-0.406-0.738-0.676-1.297-0.676c-0.972,0-1.665,0.765-1.665,1.728c0,0.973,0.693,1.729,1.674,1.729
			C71.978,93.833,72.428,93.563,72.707,93.157"></path>
		<path clip-path="url(#SVGID_2_)" d="M77.089,94.553c-1.53,0-2.475-1.126-2.475-2.448c0-1.377,0.882-2.448,2.287-2.448
			c1.233,0,2.034,0.836,2.034,1.971c0,0.18-0.027,0.36-0.054,0.486h-3.474v0.018c0,0.999,0.683,1.729,1.701,1.729
			c0.576,0,1.062-0.271,1.359-0.676l0.567,0.44C78.611,94.193,77.936,94.553,77.089,94.553 M75.469,91.51h2.691
			c-0.026-0.656-0.503-1.196-1.251-1.196C76.171,90.313,75.649,90.728,75.469,91.51"></path>
		<path clip-path="url(#SVGID_2_)" d="M86.367,94.553c-1.53,0-2.475-1.126-2.475-2.448c0-1.377,0.882-2.448,2.287-2.448
			c1.233,0,2.034,0.836,2.034,1.971c0,0.18-0.026,0.36-0.054,0.486h-3.474v0.018c0,0.999,0.683,1.729,1.701,1.729
			c0.576,0,1.062-0.271,1.359-0.676l0.567,0.44C87.89,94.193,87.214,94.553,86.367,94.553 M84.747,91.51h2.691
			c-0.026-0.656-0.503-1.196-1.251-1.196C85.449,90.313,84.927,90.728,84.747,91.51"></path>
		<path clip-path="url(#SVGID_2_)" d="M90.551,90.537h-0.854v-0.702h0.854V88.7h0.774v1.135h1.576v0.702h-1.576v2.313
			c0,0.712,0.36,0.91,0.91,0.91c0.296,0,0.504-0.036,0.674-0.108v0.685c-0.215,0.091-0.459,0.126-0.783,0.126
			c-1.008,0-1.575-0.505-1.575-1.612V90.537z"></path>
		<path clip-path="url(#SVGID_2_)" d="M98.12,89.835h0.766v0.504c0.414-0.44,0.954-0.684,1.61-0.684c1.423,0,2.332,1.125,2.332,2.448
			c0,1.324-0.909,2.45-2.332,2.45c-0.656,0-1.196-0.243-1.61-0.686v2.719H98.12V89.835z M100.406,93.832
			c0.964,0,1.621-0.765,1.621-1.729c0-0.962-0.657-1.729-1.621-1.729c-0.63,0-1.17,0.308-1.521,0.864v1.729
			C99.236,93.526,99.776,93.832,100.406,93.832"></path>
		<path clip-path="url(#SVGID_2_)" d="M104.87,89.835h0.766v0.567c0.333-0.396,0.746-0.657,1.322-0.657
			c0.145,0,0.279,0.019,0.389,0.055v0.792c-0.136-0.036-0.271-0.063-0.451-0.063c-0.594,0-0.981,0.306-1.26,0.765v3.079h-0.766
			V89.835z"></path>
		<path clip-path="url(#SVGID_2_)" d="M111.116,94.553c-1.53,0-2.476-1.126-2.476-2.449c0-1.377,0.884-2.448,2.287-2.448
			c1.233,0,2.034,0.837,2.034,1.973c0,0.179-0.025,0.358-0.054,0.484h-3.474v0.02c0,0.999,0.683,1.728,1.7,1.728
			c0.576,0,1.063-0.27,1.359-0.676l0.568,0.442C112.638,94.192,111.963,94.553,111.116,94.553 M109.496,91.511h2.692
			c-0.027-0.658-0.504-1.198-1.251-1.198C110.198,90.313,109.676,90.727,109.496,91.511 M110.586,89.114l0.937-1.493h0.863
			l-1.053,1.493H110.586z"></path>
		<polygon clip-path="url(#SVGID_2_)" points="115.12,89.835 116.569,93.571 118.02,89.835 118.849,89.835 117.074,94.372
			116.065,94.372 114.292,89.835 	"></polygon>
		<path clip-path="url(#SVGID_2_)" d="M122.608,94.553c-1.53,0-2.475-1.126-2.475-2.448c0-1.377,0.882-2.448,2.287-2.448
			c1.232,0,2.033,0.836,2.033,1.971c0,0.18-0.026,0.36-0.054,0.486h-3.474v0.018c0,0.999,0.683,1.729,1.701,1.729
			c0.575,0,1.062-0.271,1.358-0.676l0.567,0.44C124.131,94.193,123.455,94.553,122.608,94.553 M120.988,91.51h2.691
			c-0.026-0.656-0.503-1.196-1.251-1.196C121.69,90.313,121.169,90.728,120.988,91.51"></path>
		<path clip-path="url(#SVGID_2_)" d="M126.559,89.835h0.766v0.514c0.368-0.405,0.838-0.693,1.512-0.693
			c1.018,0,1.773,0.684,1.773,1.972v2.745h-0.774v-2.719c0-0.81-0.45-1.278-1.152-1.278c-0.657,0-1.071,0.378-1.358,0.856v3.141
			h-0.766V89.835z"></path>
		<path clip-path="url(#SVGID_2_)" d="M133.219,90.537h-0.854v-0.702h0.854V88.7h0.774v1.135h1.576v0.702h-1.576v2.313
			c0,0.712,0.36,0.91,0.91,0.91c0.296,0,0.504-0.036,0.674-0.108v0.685c-0.215,0.091-0.459,0.126-0.783,0.126
			c-1.008,0-1.575-0.505-1.575-1.612V90.537z"></path>
		<path clip-path="url(#SVGID_2_)" d="M137.395,88.115c0-0.288,0.243-0.531,0.54-0.531c0.298,0,0.531,0.243,0.531,0.531
			c0,0.297-0.233,0.54-0.531,0.54C137.638,88.655,137.395,88.412,137.395,88.115 M137.548,89.835h0.766v4.537h-0.766V89.835z"></path>
		<path clip-path="url(#SVGID_2_)" d="M145.272,92.104c0,1.323-1,2.449-2.458,2.449c-1.469,0-2.458-1.126-2.458-2.449
			c0-1.322,0.989-2.447,2.458-2.447C144.272,89.656,145.272,90.781,145.272,92.104 M144.461,92.104c0-0.944-0.692-1.729-1.639-1.729
			c-0.971,0-1.665,0.784-1.665,1.729c0,0.945,0.694,1.729,1.665,1.729C143.769,93.833,144.461,93.041,144.461,92.104"></path>
		<path clip-path="url(#SVGID_2_)" d="M147.313,89.835h0.766v0.514c0.368-0.405,0.838-0.693,1.512-0.693
			c1.018,0,1.773,0.684,1.773,1.972v2.745h-0.774v-2.719c0-0.81-0.45-1.278-1.152-1.278c-0.657,0-1.071,0.378-1.358,0.856v3.141
			h-0.766V89.835z"></path>
		<path clip-path="url(#SVGID_2_)" d="M29.541,105.553c-1.53,0-2.475-1.126-2.475-2.448c0-1.377,0.882-2.448,2.287-2.448
			c1.233,0,2.034,0.836,2.034,1.971c0,0.18-0.027,0.36-0.054,0.486h-3.474v0.018c0,0.999,0.683,1.729,1.701,1.729
			c0.576,0,1.062-0.271,1.359-0.676l0.567,0.44C31.063,105.193,30.388,105.553,29.541,105.553 M27.921,102.51h2.691
			c-0.026-0.656-0.503-1.196-1.251-1.196C28.623,101.313,28.101,101.728,27.921,102.51"></path>
		<path clip-path="url(#SVGID_2_)" d="M33.491,100.835h0.765v0.514c0.369-0.405,0.838-0.693,1.512-0.693
			c1.018,0,1.774,0.684,1.774,1.972v2.745h-0.775v-2.719c0-0.81-0.45-1.278-1.152-1.278c-0.657,0-1.071,0.378-1.359,0.856v3.141
			h-0.765V100.835z"></path>
		<path clip-path="url(#SVGID_2_)" d="M43.184,104.283c0.315,0.396,0.693,0.63,1.152,0.63c0.504,0,0.792-0.306,0.792-0.701
			c0-1.027-2.223-0.649-2.223-2.278c0-0.729,0.603-1.278,1.459-1.278c0.666,0,1.223,0.307,1.539,0.747l-0.531,0.459
			c-0.252-0.359-0.585-0.566-1-0.566c-0.467,0-0.72,0.252-0.72,0.62c0,1.035,2.223,0.677,2.223,2.261
			c-0.008,0.846-0.683,1.378-1.53,1.378c-0.72,0-1.287-0.289-1.701-0.802L43.184,104.283z"></path>
		<path clip-path="url(#SVGID_2_)" d="M49.962,105.553c-1.53,0-2.475-1.126-2.475-2.449c0-1.377,0.883-2.448,2.287-2.448
			c1.233,0,2.034,0.837,2.034,1.973c0,0.179-0.026,0.358-0.054,0.484H48.28v0.02c0,0.999,0.683,1.728,1.701,1.728
			c0.576,0,1.062-0.27,1.359-0.676l0.568,0.442C51.484,105.192,50.809,105.553,49.962,105.553 M48.342,102.511h2.692
			c-0.027-0.658-0.504-1.198-1.251-1.198C49.044,101.313,48.522,101.727,48.342,102.511 M49.432,100.114l0.936-1.493h0.864
			l-1.053,1.493H49.432z"></path>
		<path clip-path="url(#SVGID_2_)" d="M57.27,104.157l0.612,0.469c-0.424,0.566-1.081,0.928-1.909,0.928
			c-1.503,0-2.467-1.126-2.467-2.45c0-1.323,0.964-2.448,2.467-2.448c0.819,0,1.485,0.369,1.909,0.928l-0.612,0.469
			c-0.279-0.406-0.738-0.676-1.297-0.676c-0.972,0-1.665,0.765-1.665,1.728c0,0.973,0.693,1.729,1.674,1.729
			C56.541,104.833,56.991,104.563,57.27,104.157"></path>
		<path clip-path="url(#SVGID_2_)" d="M62.895,100.835h0.774v2.565c0,1.36-0.783,2.153-2.016,2.153c-1.225,0-2.008-0.793-2.008-2.153
			v-2.565h0.766v2.594c0,0.891,0.476,1.403,1.251,1.403c0.756,0,1.233-0.513,1.233-1.403V100.835z"></path>
		<path clip-path="url(#SVGID_2_)" d="M65.989,100.835h0.765v0.567c0.333-0.396,0.747-0.657,1.323-0.657
			c0.144,0,0.279,0.019,0.388,0.055v0.792c-0.135-0.036-0.271-0.063-0.451-0.063c-0.594,0-0.981,0.306-1.26,0.765v3.079h-0.765
			V100.835z"></path>
		<path clip-path="url(#SVGID_2_)" d="M70.22,99.115c0-0.288,0.243-0.531,0.54-0.531c0.297,0,0.531,0.243,0.531,0.531
			c0,0.297-0.234,0.54-0.531,0.54C70.463,99.655,70.22,99.412,70.22,99.115 M70.373,100.835h0.765v4.537h-0.765V100.835z"></path>
		<path clip-path="url(#SVGID_2_)" d="M73.828,101.537h-0.855v-0.702h0.855V99.7h0.774v1.135h1.576v0.702h-1.576v2.313
			c0,0.712,0.361,0.91,0.91,0.91c0.296,0,0.504-0.036,0.674-0.108v0.684c-0.215,0.092-0.459,0.127-0.783,0.127
			c-1.008,0-1.575-0.505-1.575-1.612V101.537z"></path>
		<path clip-path="url(#SVGID_2_)" d="M80.155,105.553c-1.53,0-2.475-1.126-2.475-2.449c0-1.377,0.883-2.448,2.287-2.448
			c1.233,0,2.034,0.837,2.034,1.973c0,0.179-0.026,0.358-0.054,0.484h-3.474v0.02c0,0.999,0.683,1.728,1.701,1.728
			c0.576,0,1.062-0.27,1.359-0.676l0.568,0.442C81.677,105.192,81.002,105.553,80.155,105.553 M78.535,102.511h2.692
			c-0.027-0.658-0.504-1.198-1.251-1.198C79.237,101.313,78.715,101.727,78.535,102.511 M79.625,100.114l0.936-1.493h0.864
			l-1.053,1.493H79.625z"></path>
		<path clip-path="url(#SVGID_2_)" d="M87.346,100.835h0.766v0.514c0.368-0.405,0.838-0.693,1.512-0.693
			c1.018,0,1.773,0.684,1.773,1.972v2.745h-0.774v-2.719c0-0.81-0.45-1.278-1.152-1.278c-0.657,0-1.071,0.378-1.358,0.856v3.141
			h-0.766V100.835z"></path>
		<path clip-path="url(#SVGID_2_)" d="M96.896,100.835h0.774v2.565c0,1.36-0.783,2.153-2.017,2.153c-1.225,0-2.008-0.793-2.008-2.153
			v-2.565h0.767v2.594c0,0.891,0.476,1.403,1.251,1.403c0.756,0,1.232-0.513,1.232-1.403V100.835z"></path>
		<path clip-path="url(#SVGID_2_)" d="M99.99,100.835h0.766v0.495c0.342-0.396,0.793-0.675,1.423-0.675
			c0.666,0,1.214,0.306,1.494,0.909c0.359-0.513,0.854-0.909,1.602-0.909c0.973,0,1.684,0.648,1.684,1.881v2.836h-0.766v-2.808
			c0-0.756-0.423-1.189-1.071-1.189c-0.576,0-0.972,0.333-1.277,0.864c0.009,0.1,0.018,0.199,0.018,0.297v2.836h-0.774v-2.808
			c0-0.756-0.405-1.189-1.063-1.189c-0.621,0-1.008,0.389-1.269,0.856v3.141H99.99V100.835z"></path>
		<path clip-path="url(#SVGID_2_)" d="M111.394,105.553c-1.53,0-2.475-1.126-2.475-2.449c0-1.377,0.883-2.448,2.286-2.448
			c1.233,0,2.034,0.837,2.034,1.973c0,0.179-0.025,0.358-0.054,0.484h-3.474v0.02c0,0.999,0.683,1.728,1.7,1.728
			c0.576,0,1.063-0.27,1.359-0.676l0.568,0.442C112.915,105.192,112.24,105.553,111.394,105.553 M109.773,102.511h2.692
			c-0.027-0.658-0.504-1.198-1.251-1.198C110.476,101.313,109.953,101.727,109.773,102.511 M110.863,100.114l0.937-1.493h0.863
			l-1.053,1.493H110.863z"></path>
		<path clip-path="url(#SVGID_2_)" d="M115.344,100.835h0.766v0.567c0.333-0.396,0.746-0.657,1.322-0.657
			c0.145,0,0.279,0.019,0.389,0.055v0.792c-0.136-0.036-0.271-0.063-0.451-0.063c-0.594,0-0.981,0.306-1.26,0.765v3.079h-0.766
			V100.835z"></path>
		<path clip-path="url(#SVGID_2_)" d="M119.573,99.115c0-0.288,0.244-0.531,0.54-0.531c0.297,0,0.531,0.243,0.531,0.531
			c0,0.297-0.234,0.54-0.531,0.54C119.817,99.655,119.573,99.412,119.573,99.115 M119.727,100.835h0.766v4.537h-0.766V100.835z"></path>
		<path clip-path="url(#SVGID_2_)" d="M124.866,100.655c0.666,0,1.206,0.252,1.611,0.693v-0.514h0.766v6.752h-0.766v-2.728
			c-0.405,0.441-0.945,0.694-1.611,0.694c-1.423,0-2.332-1.126-2.332-2.45C122.534,101.78,123.443,100.655,124.866,100.655
			 M124.947,104.832c0.64,0,1.181-0.306,1.53-0.863v-1.729c-0.35-0.557-0.891-0.864-1.53-0.864c-0.954,0-1.61,0.767-1.61,1.729
			C123.337,104.067,123.993,104.832,124.947,104.832"></path>
		<path clip-path="url(#SVGID_2_)" d="M132.821,100.835h0.774v2.565c0,1.36-0.783,2.153-2.017,2.153
			c-1.225,0-2.008-0.793-2.008-2.153v-2.565h0.767v2.594c0,0.891,0.476,1.403,1.251,1.403c0.756,0,1.232-0.513,1.232-1.403V100.835z"></path>
		<path clip-path="url(#SVGID_2_)" d="M138.005,105.553c-1.53,0-2.475-1.126-2.475-2.448c0-1.377,0.882-2.448,2.287-2.448
			c1.232,0,2.033,0.836,2.033,1.971c0,0.18-0.026,0.36-0.054,0.486h-3.474v0.018c0,0.999,0.683,1.729,1.701,1.729
			c0.575,0,1.062-0.271,1.358-0.676l0.567,0.44C139.527,105.193,138.852,105.553,138.005,105.553 M136.385,102.51h2.691
			c-0.026-0.656-0.503-1.196-1.251-1.196C137.087,101.313,136.565,101.728,136.385,102.51"></path>
	</g>
</g>
</svg>
