<svg width="276" height="51" viewBox="0 0 276 51" fill="none" xmlns="http://www.w3.org/2000/svg">
<path d="M36.9434 44.3594H37.7128V50.1747H36.9434V44.3594Z" fill="#F5F1F9"/>
<path d="M39.3262 44.3594H40.3333L43.5743 49.2196V44.3594H44.3437V50.1747H43.3366L40.0956 45.3145V50.1747H39.3262V44.3594Z" fill="#F5F1F9"/>
<path d="M45.957 44.3594H46.9641L50.2051 49.2196V44.3594H50.9745V50.1747H49.9674L46.7264 45.3145V50.1747H45.957V44.3594Z" fill="#F5F1F9"/>
<path d="M58.1124 47.2697C58.1124 48.9312 56.8924 50.344 55.108 50.344C53.3236 50.344 52.0957 48.9312 52.0957 47.2697C52.0957 45.6082 53.3157 44.1953 55.108 44.1953C56.9003 44.1953 58.1124 45.6082 58.1124 47.2697ZM57.3182 47.2697C57.3182 45.9732 56.3934 44.9266 55.108 44.9266C53.8227 44.9266 52.8899 45.9732 52.8899 47.2697C52.8899 48.5661 53.8148 49.6128 55.108 49.6128C56.4013 49.6128 57.3182 48.5661 57.3182 47.2697Z" fill="#F5F1F9"/>
<path d="M59.2166 44.3594L61.197 49.3857L63.1774 44.3594H63.9964L61.7039 50.1747H60.6889L58.3965 44.3594H59.2155H59.2166Z" fill="#F5F1F9"/>
<path d="M65.8716 44.3594H66.9035L69.187 50.1747H68.368L67.7045 48.4634H65.0684L64.4049 50.1747H63.5859L65.8694 44.3594H65.8716ZM67.451 47.7909L66.3865 45.0409L65.3219 47.7909H67.4499H67.451Z" fill="#F5F1F9"/>
<path d="M68.918 44.3594H73.486V45.0737H71.5867V50.1747H70.8173V45.0737H68.918V44.3594Z" fill="#F5F1F9"/>
<path d="M74.4844 44.3594H75.2538V50.1747H74.4844V44.3594Z" fill="#F5F1F9"/>
<path d="M82.3917 47.2697C82.3917 48.9312 81.1717 50.344 79.3873 50.344C77.6029 50.344 76.375 48.9312 76.375 47.2697C76.375 45.6082 77.595 44.1953 79.3873 44.1953C81.1796 44.1953 82.3917 45.6082 82.3917 47.2697ZM81.5975 47.2697C81.5975 45.9732 80.6727 44.9266 79.3873 44.9266C78.102 44.9266 77.1692 45.9732 77.1692 47.2697C77.1692 48.5661 78.0941 49.6128 79.3873 49.6128C80.6806 49.6128 81.5975 48.5661 81.5975 47.2697Z" fill="#F5F1F9"/>
<path d="M83.5117 44.3594H84.5188L87.7598 49.2196V44.3594H88.5292V50.1747H87.5221L84.2811 45.3145V50.1747H83.5117V44.3594Z" fill="#F5F1F9"/>
<path d="M94.6041 44.3594H95.636L97.9194 50.1747H97.1004L96.4369 48.4634H93.8009L93.1373 50.1747H92.3184L94.6018 44.3594H94.6041ZM96.1835 47.7909L95.1189 45.0409L94.0543 47.7909H96.1823H96.1835Z" fill="#F5F1F9"/>
<path d="M98.8438 44.3594H99.8509L103.092 49.2196V44.3594H103.861V50.1747H102.854L99.6132 45.3145V50.1747H98.8438V44.3594Z" fill="#F5F1F9"/>
<path d="M105.614 48.8476C106.008 49.363 106.466 49.6365 106.998 49.6365C107.637 49.6365 108.005 49.2454 108.005 48.7142C108.005 47.4019 105.288 47.6834 105.288 45.7653C105.288 44.9017 105.992 44.1953 106.99 44.1953C107.792 44.1953 108.381 44.5694 108.807 45.1425L108.226 45.6579C107.89 45.1674 107.489 44.8938 106.998 44.8938C106.433 44.8938 106.073 45.251 106.073 45.7495C106.073 47.0538 108.782 46.7543 108.782 48.6904C108.782 49.6953 108.021 50.335 107.006 50.335C106.163 50.335 105.54 50.0106 105.041 49.3799L105.614 48.8487V48.8476Z" fill="#F5F1F9"/>
<path d="M110.083 48.8476C110.476 49.363 110.935 49.6365 111.467 49.6365C112.105 49.6365 112.474 49.2454 112.474 48.7142C112.474 47.4019 109.756 47.6834 109.756 45.7653C109.756 44.9017 110.461 44.1953 111.459 44.1953C112.261 44.1953 112.85 44.5694 113.276 45.1425L112.694 45.6579C112.359 45.1674 111.958 44.8938 111.467 44.8938C110.902 44.8938 110.542 45.251 110.542 45.7495C110.542 47.0538 113.251 46.7543 113.251 48.6904C113.251 49.6953 112.489 50.335 111.474 50.335C110.632 50.335 110.009 50.0106 109.51 49.3799L110.083 48.8487V48.8476Z" fill="#F5F1F9"/>
<path d="M114.555 44.3594H115.324V50.1747H114.555V44.3594Z" fill="#F5F1F9"/>
<path d="M36.8887 14.7812H44.3034L48.9548 23.3318L53.64 14.7812H61.0548V38.724H55.056V23.3318L51.0118 30.5148H46.9338L42.8896 23.3318V38.724H36.8909V14.7812H36.8887Z" fill="white"/>
<path d="M83.0633 30.1081C83.0633 35.3752 79.2546 39.4114 73.6941 39.4114C68.1336 39.4114 64.291 35.3752 64.291 30.1081C64.291 24.8409 68.0998 20.8047 73.6941 20.8047C79.2884 20.8047 83.0633 24.8409 83.0633 30.1081ZM77.5366 30.1081C77.5366 27.5084 75.8852 25.9011 73.7279 25.9011C71.5706 25.9011 69.8515 27.5434 69.8515 30.1081C69.8515 32.6727 71.503 34.315 73.7279 34.315C75.9527 34.315 77.5366 32.6388 77.5366 30.1081Z" fill="white"/>
<path d="M85.5898 21.4896H90.9487V22.447C92.0606 21.4896 93.4766 20.8047 95.4649 20.8047C99.0709 20.8047 102.037 23.3704 102.037 28.6036V38.7276H96.6444V28.8421C96.6444 27.0981 95.7342 25.9011 94.0151 25.9011C92.1282 25.9011 91.2855 27.4067 90.9487 27.9876V38.7276H85.5898V21.4885V21.4896Z" fill="white"/>
<path d="M114.339 14.7812H122.158L130.718 38.724H124.349L122.428 33.0805H114.069L112.149 38.724H105.779L114.34 14.7812H114.339ZM120.675 27.9502L118.249 20.904L115.822 27.9502H120.675Z" fill="white"/>
<path d="M132.941 16.1546C132.941 14.3077 134.491 12.7344 136.346 12.7344C138.2 12.7344 139.682 14.3077 139.682 16.1546C139.682 18.0015 138.132 19.6088 136.346 19.6088C134.559 19.6088 132.941 18.0015 132.941 16.1546ZM133.615 21.4907H138.974V38.7297H133.615V21.4907Z" fill="white"/>
<path d="M150.062 20.8003C152.152 20.8003 153.601 21.3813 154.748 22.4076V13.0703H160.14V38.7232H154.748V37.7998C153.602 38.8261 152.152 39.407 150.062 39.407C144.67 39.407 141.502 35.1312 141.502 30.1037C141.502 25.0762 144.67 20.8003 150.062 20.8003ZM150.837 34.3106C152.489 34.3106 153.77 33.6268 154.748 32.3269V27.8804C153.77 26.5806 152.489 25.8968 150.837 25.8968C148.478 25.8968 147.062 27.573 147.062 30.1037C147.062 32.6344 148.478 34.3106 150.837 34.3106Z" fill="white"/>
<path d="M172.206 39.4114C165.971 39.4114 162.668 35.1356 162.668 30.1081C162.668 25.0805 165.735 20.8047 171.498 20.8047C176.317 20.8047 179.486 24.0542 179.486 28.7404C179.486 29.9035 179.317 30.9976 179.149 31.6136H168.162C168.668 33.9397 170.15 34.5546 172.172 34.5546C173.79 34.5546 175.206 33.9047 175.981 32.9123L179.756 35.9561C178.138 38.1105 175.475 39.4103 172.206 39.4103V39.4114ZM168.196 27.7819H174.296C174.228 26.6189 173.352 25.1823 171.364 25.1823C169.645 25.1823 168.6 26.0368 168.196 27.7819Z" fill="white"/>
<path d="M201.592 30.8886L206.344 34.5485C204.153 37.4895 200.648 39.4053 196.334 39.4053C188.818 39.4053 183.695 33.5911 183.695 26.7495C183.695 19.9079 188.818 14.0938 196.334 14.0938C200.647 14.0938 204.153 16.0096 206.344 18.9167L201.592 22.6104C200.48 20.9681 198.694 19.8062 196.335 19.8062C192.56 19.8062 189.864 22.7472 189.864 26.7495C189.864 30.7518 192.56 33.6928 196.335 33.6928C198.66 33.6928 200.48 32.5298 201.592 30.8886Z" fill="#CD86FF"/>
<path d="M208.839 47.2741C207.389 47.2741 206.48 47.0683 205.57 46.6931V42.0069C206.076 42.1776 206.918 42.3494 207.592 42.3494C209.277 42.3494 210.052 41.8024 210.626 40.3658L211.266 38.7235L204.289 21.4844H210.221L214.098 31.5744L218.074 21.4844H223.702L215.411 42.4511C214.266 45.3243 212.377 47.2741 208.839 47.2741Z" fill="#CD86FF"/>
<path d="M234.992 39.4082C232.902 39.4082 231.42 38.8272 230.273 37.7659V38.7232H224.914V13.0703H230.273V22.4426C231.419 21.3824 232.902 20.8003 234.992 20.8003C240.418 20.8003 243.552 25.0762 243.552 30.1037C243.552 35.1312 240.418 39.407 234.992 39.407V39.4082ZM230.273 27.9154V32.293C231.285 33.5929 232.564 34.3106 234.216 34.3106C236.575 34.3106 238.024 32.6344 238.024 30.1037C238.024 27.573 236.575 25.8968 234.216 25.8968C232.497 25.8968 231.182 26.6495 230.273 27.9143V27.9154Z" fill="#CD86FF"/>
<path d="M254.573 39.4114C248.338 39.4114 245.035 35.1356 245.035 30.1081C245.035 25.0805 248.103 20.8047 253.865 20.8047C258.684 20.8047 261.853 24.0542 261.853 28.7404C261.853 29.9035 261.684 30.9976 261.516 31.6136H250.529C251.035 33.9397 252.518 34.5546 254.54 34.5546C256.157 34.5546 257.573 33.9047 258.348 32.9123L262.123 35.9561C260.506 38.1105 257.843 39.4103 254.573 39.4103V39.4114ZM250.563 27.7819H256.663C256.595 26.6189 255.719 25.1823 253.731 25.1823C252.012 25.1823 250.967 26.0368 250.563 27.7819Z" fill="#CD86FF"/>
<path d="M264.65 21.4898H270.009V22.8925C271.054 21.9001 272.368 21.1484 274.121 21.1484C274.727 21.1484 275.267 21.2513 275.671 21.3881V26.758C275.098 26.6213 274.458 26.5184 273.581 26.5184C271.627 26.5184 270.346 27.6815 270.009 28.2624V38.7289H264.65V21.4898Z" fill="#CD86FF"/>
<path d="M27.0471 14.7969H15.6151H0.0117188V36.1784C0.0117188 36.6192 0.367699 36.9764 0.807042 36.9764H12.239V49.3835C12.239 49.8243 12.5961 50.1815 13.0354 50.1815C20.7679 50.1815 27.8424 43.9276 27.8424 36.1784V15.5949C27.8424 15.154 27.4864 14.7969 27.0471 14.7969Z" fill="#CD86FF"/>
<path d="M14.8179 0.796875C7.08431 0.796875 0.00976562 7.0496 0.00976562 14.7999H15.6132V1.59485C15.6132 1.15404 15.2572 0.796875 14.8179 0.796875Z" fill="#FECA52"/>
<path d="M0.0117188 14.8035H15.614V14.0055V13.9648V10.5469L0.0117188 14.8035Z" fill="#EDA82E"/>
</svg>
