<svg width="170" height="95" viewBox="0 0 170 95" fill="none" xmlns="http://www.w3.org/2000/svg">
<g clip-path="url(#clip0_6493_74040)">
<path d="M59.9023 27.1217L65.6443 27.1084L69.2617 33.7001L72.8744 27.0914L78.6164 27.0781L78.659 45.5582L74.0129 45.5686L73.9855 33.6887L70.8663 39.2403L67.7083 39.2479L64.5636 33.7114L64.591 45.5914L59.945 45.6018L59.9023 27.1217Z" fill="#282828"/>
<path d="M95.6863 38.8669C95.6957 42.9323 92.7537 46.0544 88.4467 46.0648C84.1142 46.0752 81.1579 42.9664 81.1485 38.901C81.139 34.8356 84.081 31.7136 88.4136 31.7032C92.7196 31.6927 95.6768 34.8015 95.6863 38.8669ZM91.4058 38.8764C91.4011 36.8702 90.1195 35.6322 88.4486 35.636C86.7256 35.6398 85.4498 36.91 85.4545 38.8906C85.4592 40.8703 86.7408 42.1348 88.4638 42.131C90.1337 42.1272 91.4096 40.8305 91.4058 38.8773V38.8764Z" fill="#282828"/>
<path d="M97.6299 32.2097L101.78 32.2002L101.781 32.939C102.642 32.1974 103.737 31.6669 105.276 31.6641C108.068 31.6574 110.37 33.6324 110.379 37.6713L110.397 45.4858L106.221 45.4953L106.203 37.8655C106.2 36.5195 105.493 35.5969 104.162 35.5997C102.7 35.6035 102.05 36.7658 101.79 37.2157L101.809 45.5057L97.6592 45.5152L97.6289 32.2097H97.6299Z" fill="#282828"/>
<path d="M119.096 26.983L125.151 26.9688L131.823 45.4337L126.89 45.4451L125.393 41.0926L118.92 41.1078L117.443 45.4668L112.51 45.4782L119.097 26.983H119.096ZM124.026 37.1361L122.134 31.702L120.267 37.1446L124.026 37.1361Z" fill="#282828"/>
<path d="M133.506 28.0059C133.503 26.5803 134.7 25.3632 136.136 25.3594C137.519 25.3565 138.723 26.568 138.726 27.9936C138.729 29.4191 137.532 30.6628 136.149 30.6657C134.714 30.6694 133.51 29.4305 133.507 28.0049L133.506 28.0059ZM134.037 32.1234L138.187 32.1139L138.217 45.4194L134.068 45.4289L134.037 32.1234Z" fill="#282828"/>
<path d="M146.774 31.5626C148.391 31.5588 149.515 32.005 150.404 32.7949L150.387 25.5876L154.563 25.5781L154.609 45.3786L150.433 45.3881L150.431 44.6749C149.545 45.4686 148.424 45.9204 146.806 45.9242C142.63 45.9337 140.169 42.6393 140.16 38.7586C140.152 34.8778 142.597 31.5721 146.773 31.5626H146.774ZM147.398 41.9895C148.677 41.9867 149.667 41.4562 150.422 40.4512L150.415 37.0195C149.655 36.0183 148.662 35.4926 147.384 35.4954C145.556 35.4992 144.463 36.796 144.468 38.7491C144.473 40.7023 145.572 41.9943 147.399 41.9895H147.398Z" fill="#282828"/>
<path d="M163.953 45.8841C159.124 45.8955 156.559 42.6011 156.551 38.7204C156.542 34.8662 158.909 31.5339 163.373 31.5235C167.105 31.5149 169.564 34.0175 169.572 37.6339C169.574 38.5319 169.446 39.3768 169.316 39.8523L160.808 39.8722C161.204 41.6662 162.352 42.1389 163.918 42.1351C165.171 42.1322 166.266 41.6283 166.865 40.8611L169.794 43.2045C168.544 44.8706 166.485 45.8785 163.953 45.8841ZM160.827 36.915L165.55 36.9036C165.496 36.0057 164.815 34.8984 163.275 34.9022C161.944 34.905 161.136 35.5671 160.827 36.914V36.915Z" fill="#282828"/>
<path d="M80.551 72.9574L86.2883 77.3401C83.656 80.8799 79.4371 83.1901 74.2369 83.2024C65.1787 83.2233 58.9877 76.2527 58.9688 68.0347C58.9498 59.8177 65.1077 52.8178 74.1668 52.7969C79.366 52.7846 83.5963 55.0759 86.2447 58.5626L80.5273 63.0136C79.1823 61.0443 77.0264 59.6519 74.1829 59.6585C69.6335 59.6689 66.3921 63.2096 66.4025 68.0177C66.4139 72.8664 69.6713 76.3512 74.2208 76.3408C77.0236 76.3342 79.2135 74.9323 80.5501 72.9574H80.551Z" fill="#5D2A9D"/>
<path d="M89.3308 92.6159C87.5841 92.6197 86.4863 92.3762 85.3885 91.9263L85.3752 86.297C85.9852 86.5007 87.0006 86.7043 87.8134 86.7024C89.8442 86.6977 90.7772 86.0384 91.4639 84.3107L92.2312 82.3367L83.7754 61.6477L90.925 61.6316L95.6241 73.7417L100.389 61.6099L107.173 61.5938L97.2391 86.8038C95.8656 90.2583 93.5961 92.6055 89.3317 92.6159H89.3308Z" fill="#5D2A9D"/>
<path d="M120.83 83.1002C118.312 83.1059 116.522 82.4115 115.139 81.1413L115.141 82.2922L108.682 82.3074L108.611 51.4917L115.07 51.4766L115.096 62.7342C116.474 61.4573 118.26 60.7545 120.778 60.7488C127.318 60.7337 131.108 65.8609 131.122 71.9013C131.136 77.9407 127.37 83.086 120.829 83.1011L120.83 83.1002ZM115.111 69.3078L115.123 74.5667C116.345 76.1249 117.891 76.985 119.881 76.9802C122.725 76.9736 124.467 74.956 124.46 71.9155C124.453 68.8749 122.702 66.8659 119.859 66.8725C117.787 66.8773 116.205 67.7847 115.111 69.3078Z" fill="#5D2A9D"/>
<path d="M144.475 83.0457C136.96 83.0628 132.967 77.9365 132.953 71.8961C132.939 65.8974 136.624 60.7114 143.57 60.6953C149.38 60.6821 153.206 64.5761 153.22 70.2053C153.223 71.6025 153.023 72.9172 152.822 73.6579L139.58 73.6882C140.196 76.4806 141.985 77.2166 144.422 77.2109C146.371 77.2062 148.076 76.4219 149.007 75.2284L153.565 78.8752C151.622 81.4686 148.416 83.0372 144.476 83.0457H144.475ZM139.609 69.0867L146.961 69.0696C146.877 67.6725 145.817 65.9495 143.42 65.9552C141.348 65.9599 140.091 66.9896 139.608 69.0867H139.609Z" fill="#5D2A9D"/>
<path d="M156.527 61.4836L162.986 61.4684L162.99 63.1535C164.246 61.9591 165.829 61.0516 167.941 61.0469C168.672 61.045 169.322 61.1672 169.81 61.3301L169.825 67.7806C169.135 67.6177 168.362 67.4965 167.306 67.4993C164.95 67.505 163.409 68.905 163.004 69.6049L163.034 82.1782L156.575 82.1934L156.527 61.4855V61.4836Z" fill="#5D2A9D"/>
<path d="M49.9464 26.6328H28.8378H0.0292969V65.979C0.0292969 66.7899 0.686662 67.4472 1.49748 67.4472H22.6061V90.2788C22.6061 91.0906 23.2653 91.747 24.0771 91.747C38.3544 91.746 51.4146 80.2393 51.4146 65.979V28.101C51.4146 27.2902 50.7572 26.6328 49.9464 26.6328Z" fill="#5D2A9D"/>
<path d="M27.3696 0.875C13.0913 0.875 0.0292969 12.3817 0.0292969 26.6429H28.8378V2.34318C28.8378 1.53236 28.1804 0.875 27.3696 0.875Z" fill="#FECA52"/>
<path d="M0.0292969 26.645H28.8378V25.1768V25.101V18.8125L0.0292969 26.645Z" fill="#EDA82E"/>
<path d="M108.611 89.4844H109.212V94.0111H108.611V89.4844Z" fill="#757575"/>
<path d="M110.473 89.4844H111.259L113.791 93.2675V89.4844H114.391V94.0111H113.605L111.073 90.2279V94.0111H110.473V89.4844Z" fill="#757575"/>
<path d="M115.65 89.4844H116.437L118.968 93.2675V89.4844H119.569V94.0111H118.783L116.251 90.2279V94.0111H115.65V89.4844Z" fill="#757575"/>
<path d="M125.144 91.7442C125.144 93.0372 124.192 94.1369 122.798 94.1369C121.405 94.1369 120.445 93.0372 120.445 91.7442C120.445 90.4513 121.398 89.3516 122.798 89.3516C124.198 89.3516 125.144 90.4513 125.144 91.7442ZM124.524 91.7442C124.524 90.7354 123.801 89.9208 122.798 89.9208C121.795 89.9208 121.066 90.7354 121.066 91.7442C121.066 92.753 121.788 93.5676 122.798 93.5676C123.808 93.5676 124.524 92.753 124.524 91.7442Z" fill="#757575"/>
<path d="M126.008 89.4844L127.554 93.3964L129.101 89.4844H129.74L127.95 94.0111H127.157L125.367 89.4844H126.007H126.008Z" fill="#757575"/>
<path d="M131.204 89.4844H132.01L133.793 94.0111H133.154L132.636 92.6793H130.577L130.059 94.0111H129.42L131.204 89.4844H131.204ZM132.439 92.1555L131.608 90.0148L130.777 92.1555H132.44H132.439Z" fill="#757575"/>
<path d="M133.582 89.4844H137.149V90.0404H135.666V94.0111H135.065V90.0404H133.582V89.4844Z" fill="#757575"/>
<path d="M137.93 89.4844H138.53V94.0111H137.93V89.4844Z" fill="#757575"/>
<path d="M144.105 91.7442C144.105 93.0372 143.152 94.1369 141.759 94.1369C140.366 94.1369 139.406 93.0372 139.406 91.7442C139.406 90.4513 140.359 89.3516 141.759 89.3516C143.159 89.3516 144.105 90.4513 144.105 91.7442ZM143.485 91.7442C143.485 90.7354 142.762 89.9208 141.759 89.9208C140.756 89.9208 140.027 90.7354 140.027 91.7442C140.027 92.753 140.749 93.5676 141.759 93.5676C142.769 93.5676 143.485 92.753 143.485 91.7442Z" fill="#757575"/>
<path d="M144.98 89.4844H145.767L148.299 93.2675V89.4844H148.899V94.0111H148.113L145.581 90.2279V94.0111H144.98V89.4844Z" fill="#757575"/>
<path d="M153.644 89.4844H154.449L156.233 94.0111H155.593L155.075 92.6793H153.017L152.499 94.0111H151.859L153.643 89.4844H153.644ZM154.878 92.1555L154.047 90.0148L153.217 92.1555H154.879H154.878Z" fill="#757575"/>
<path d="M156.955 89.4844H157.741L160.273 93.2675V89.4844H160.874V94.0111H160.088L157.556 90.2279V94.0111H156.955V89.4844Z" fill="#757575"/>
<path d="M162.243 92.9728C162.55 93.3734 162.908 93.5875 163.324 93.5875C163.822 93.5875 164.11 93.2834 164.11 92.8695C164.11 91.8475 161.987 92.0672 161.987 90.5735C161.987 89.9009 162.537 89.3516 163.317 89.3516C163.943 89.3516 164.404 89.6424 164.736 90.0885L164.282 90.4892C164.02 90.1074 163.707 89.8943 163.324 89.8943C162.882 89.8943 162.601 90.1728 162.601 90.5602C162.601 91.5756 164.717 91.3426 164.717 92.8496C164.717 93.632 164.122 94.1303 163.329 94.1303C162.671 94.1303 162.185 93.8783 161.795 93.3867L162.242 92.9728H162.243Z" fill="#757575"/>
<path d="M165.733 92.9728C166.04 93.3734 166.398 93.5875 166.814 93.5875C167.312 93.5875 167.6 93.2834 167.6 92.8695C167.6 91.8475 165.477 92.0672 165.477 90.5735C165.477 89.9009 166.027 89.3516 166.807 89.3516C167.433 89.3516 167.894 89.6424 168.226 90.0885L167.773 90.4892C167.51 90.1074 167.198 89.8943 166.814 89.8943C166.373 89.8943 166.091 90.1728 166.091 90.5602C166.091 91.5756 168.207 91.3426 168.207 92.8496C168.207 93.632 167.612 94.1303 166.82 94.1303C166.161 94.1303 165.675 93.8783 165.285 93.3867L165.732 92.9728H165.733Z" fill="#757575"/>
<path d="M169.225 89.4844H169.825V94.0111H169.225V89.4844Z" fill="#757575"/>
</g>
<defs>
<clipPath id="clip0_6493_74040">
<rect width="169.835" height="93.3003" fill="white" transform="translate(0 0.828125)"/>
</clipPath>
</defs>
</svg>
