<svg width="80" height="60" viewBox="0 0 80 60" fill="none" xmlns="http://www.w3.org/2000/svg">
<g clip-path="url(#clip0_6780_20749)">
<path d="M34.6045 23.4256L24.4075 23.4256L24.4075 3.88235C24.4075 3.1893 23.8503 2.62632 23.1643 2.62632C11.0421 2.62632 0.958444 12.1096 0.0688245 24.2778C0.02655 24.404 0.00349395 24.5399 0.00349394 24.6816L0.00349056 60.9862C0.0034905 61.6792 0.560703 62.2422 1.24665 62.2422L34.6045 62.2422C35.2904 62.2422 35.8477 61.6792 35.8477 60.9862L35.8477 24.6816C35.8477 23.9886 35.2904 23.4256 34.6045 23.4256Z" fill="#5D2A9D"/>
</g>
<g clip-path="url(#clip1_6780_20749)">
<path d="M78.7329 23.5053L68.4516 23.5053L68.4516 4.17922C68.4516 3.49388 67.8898 2.93715 67.1982 2.93715C54.9757 2.93715 44.8088 12.3151 43.9118 24.3481C43.8692 24.4729 43.8459 24.6072 43.8459 24.7474L43.8459 60.6485C43.8459 61.3339 44.4077 61.8906 45.0994 61.8906L78.7329 61.8906C79.4245 61.8906 79.9863 61.3339 79.9863 60.6485L79.9863 24.7474C79.9863 24.062 79.4245 23.5053 78.7329 23.5053Z" fill="#5D2A9D"/>
</g>
<defs>
<clipPath id="clip0_6780_20749">
<rect width="36.0656" height="59.0164" fill="white" transform="translate(36.0664 59.5156) rotate(-180)"/>
</clipPath>
<clipPath id="clip1_6780_20749">
<rect width="36.0656" height="59.0164" fill="white" transform="translate(80 59.5156) rotate(-180)"/>
</clipPath>
</defs>
</svg>
