<svg width="473" height="430" viewBox="0 0 473 430" fill="none" xmlns="http://www.w3.org/2000/svg">
<g clip-path="url(#clip0_1269_21376)">
<path d="M472.591 215C472.639 244.95 466.404 274.578 454.293 301.965C453.902 302.85 453.505 303.729 453.103 304.603C452.905 305.043 452.702 305.477 452.498 305.917C452.295 306.351 452.091 306.791 451.882 307.225C451.614 307.788 451.346 308.345 451.073 308.903C450.736 309.605 450.393 310.302 450.039 310.999C449.997 311.096 449.948 311.192 449.895 311.289C449.6 311.879 449.306 312.468 449 313.058C448.936 313.187 448.872 313.316 448.802 313.439C448.454 314.125 448.095 314.811 447.731 315.492C447.345 316.222 446.959 316.945 446.568 317.664C445.604 319.444 444.613 321.208 443.596 322.956C443.29 323.476 442.99 323.996 442.68 324.511C442.396 324.993 442.112 325.47 441.823 325.948C441.624 326.28 441.426 326.607 441.223 326.934C440.901 327.465 440.574 327.996 440.242 328.526C440.242 328.526 440.241 328.53 440.237 328.537C439.503 329.717 438.753 330.891 437.998 332.054H437.993C437.644 332.596 437.291 333.132 436.937 333.668C435.871 335.282 434.784 336.874 433.675 338.451C433.675 338.451 433.67 338.456 433.664 338.462L433.654 338.478C432.775 339.738 431.881 340.987 430.965 342.225C430.381 343.024 429.792 343.818 429.197 344.6C428.71 345.244 428.217 345.887 427.719 346.525C427.617 346.665 427.51 346.799 427.397 346.938C427.263 347.12 427.129 347.292 426.985 347.469C424.869 350.182 422.689 352.836 420.444 355.436H420.439C420.321 355.581 420.198 355.72 420.075 355.86C419.957 355.999 419.828 356.139 419.705 356.283H419.7C419.512 356.503 419.32 356.723 419.127 356.943C418.939 357.163 418.741 357.383 418.543 357.602C406.844 370.819 393.565 382.545 379.012 392.512C377.072 393.847 375.107 395.144 373.119 396.41C372.627 396.726 372.134 397.037 371.636 397.348C371.486 397.45 371.336 397.541 371.186 397.632C370.923 397.798 370.655 397.964 370.387 398.131C370.125 398.292 369.857 398.458 369.589 398.619C368.523 399.273 367.447 399.916 366.37 400.549C366.102 400.71 365.829 400.865 365.556 401.026C365.288 401.181 365.015 401.337 364.742 401.492C364.736 401.503 364.72 401.514 364.71 401.514H364.699L364.688 401.53H364.683C363.333 402.307 361.978 403.074 360.606 403.814C358.153 405.154 355.673 406.447 353.172 407.69C352.55 408.001 351.923 408.307 351.297 408.613C350.777 408.865 350.252 409.117 349.733 409.363C349.588 409.433 349.449 409.503 349.304 409.567C348.87 409.771 348.436 409.974 348.002 410.173C347.531 410.398 347.054 410.612 346.583 410.827C346.053 411.068 345.528 411.304 344.997 411.54C343.005 412.43 340.991 413.288 338.971 414.114C331.756 417.068 324.385 419.625 316.886 421.759C316.538 421.861 316.184 421.963 315.831 422.06C312.622 422.96 309.392 423.786 306.136 424.531C300.452 425.839 294.715 426.912 288.93 427.754C288.92 427.754 288.904 427.759 288.893 427.759C288.202 427.861 287.506 427.957 286.814 428.054C286.756 428.064 286.691 428.075 286.627 428.081C286.622 428.086 286.616 428.086 286.606 428.081C286.606 428.081 286.606 428.086 286.6 428.081C285.834 428.182 285.068 428.284 284.297 428.381C284.243 428.392 284.19 428.397 284.136 428.402C283.418 428.488 282.695 428.574 281.972 428.654C281.195 428.74 280.419 428.82 279.637 428.901C279.042 428.96 278.448 429.019 277.853 429.072C277.799 429.083 277.746 429.089 277.692 429.089C277.151 429.137 276.61 429.185 276.069 429.228C276.048 429.228 276.021 429.233 276 429.233C275.528 429.276 275.057 429.308 274.585 429.346C269.041 429.786 263.444 430.005 257.793 430C251.659 430 245.59 429.743 239.58 429.233C239.559 429.233 239.538 429.228 239.516 429.228C238.236 429.121 236.956 429.003 235.681 428.874C235.343 428.842 235.011 428.804 234.674 428.772C234.609 428.767 234.545 428.761 234.481 428.751C234.379 428.74 234.277 428.729 234.17 428.719C234.117 428.713 234.058 428.708 234.004 428.697C233.56 428.649 233.115 428.601 232.665 428.547C232.167 428.488 231.663 428.429 231.165 428.365C230.667 428.306 230.164 428.241 229.665 428.172C229.558 428.161 229.446 428.15 229.339 428.129C228.974 428.086 228.61 428.038 228.251 427.984C228.075 427.963 227.903 427.936 227.732 427.909C227.383 427.861 227.041 427.812 226.693 427.759C226.682 427.759 226.666 427.754 226.655 427.754C215.717 426.172 204.918 423.738 194.36 420.467H194.355C193.782 420.29 193.209 420.108 192.636 419.926C192.464 419.877 192.293 419.824 192.121 419.765C190.632 419.288 189.154 418.794 187.681 418.285C185.651 417.588 183.637 416.859 181.633 416.097C181.087 415.888 180.546 415.679 179.999 415.47C178.912 415.041 177.83 414.612 176.753 414.173C174.916 413.422 173.089 412.65 171.279 411.851H171.274C169.581 411.1 167.899 410.334 166.233 409.54C166.185 409.524 166.137 409.503 166.094 409.476C166.088 409.476 166.088 409.47 166.083 409.47C165.713 409.299 165.344 409.122 164.974 408.945H164.964C155.777 404.532 146.917 399.466 138.454 393.788C135.738 391.97 133.071 390.094 130.446 388.153C128.33 386.593 126.246 384.995 124.189 383.354C113.953 375.21 104.477 366.149 95.8854 356.283H95.88C95.2747 355.586 94.6855 354.9 94.0856 354.203C93.9999 354.101 93.9195 354.005 93.8392 353.908C93.4589 353.463 93.0893 353.024 92.7197 352.573C92.2162 351.973 91.7234 351.378 91.2413 350.777C91.1341 350.648 91.0324 350.525 90.9306 350.396H90.9252C90.5288 349.909 90.1378 349.421 89.7521 348.933C89.554 348.691 89.3611 348.445 89.1683 348.198C88.0005 346.718 86.8543 345.228 85.7347 343.727C85.424 343.308 85.1187 342.896 84.8188 342.477H84.8134C83.3778 340.536 81.9798 338.574 80.6192 336.585C80.105 335.834 79.5961 335.084 79.0926 334.328C78.5891 333.572 78.0909 332.816 77.5981 332.054H77.5928C77.0839 331.272 76.5804 330.483 76.0822 329.695C76.0554 329.652 76.0286 329.615 76.0072 329.577C75.5144 328.8 75.027 328.017 74.5502 327.229C74.1646 326.602 73.7843 325.98 73.4147 325.352C73.1575 324.929 72.9058 324.511 72.6594 324.082C72.5683 323.937 72.488 323.792 72.4076 323.653C71.8398 322.682 71.2827 321.712 70.7257 320.736C70.0775 319.589 69.4347 318.431 68.808 317.272C68.5509 316.795 68.2938 316.313 68.042 315.83C67.951 315.675 67.8706 315.519 67.7903 315.358C67.4903 314.79 67.1903 314.222 66.8957 313.648C66.6011 313.08 66.3065 312.506 66.0172 311.932C65.728 311.359 65.4387 310.785 65.1548 310.206C64.9406 309.772 64.7263 309.332 64.5174 308.898C64.496 308.86 64.4746 308.823 64.4585 308.785C64.3621 308.581 64.2603 308.383 64.1692 308.179C64.1478 308.147 64.1317 308.115 64.121 308.077C63.9014 307.627 63.6871 307.182 63.4782 306.732C63.1997 306.153 62.9319 305.568 62.664 304.984C62.4712 304.576 62.2891 304.163 62.1016 303.751C61.8338 303.171 61.5713 302.587 61.3142 301.997C61.041 301.391 60.7785 300.78 60.5161 300.169C60.4464 300.013 60.3821 299.863 60.3179 299.708C60.1947 299.429 60.0768 299.15 59.959 298.871C59.6429 298.132 59.3323 297.381 59.0269 296.636C58.6788 295.794 58.3413 294.952 58.0092 294.105C57.6932 293.317 57.3878 292.529 57.0879 291.735L56.9754 291.446C52.3205 279.194 48.8013 266.552 46.4551 253.662C45.116 246.301 44.1678 238.875 43.6054 231.417C43.5733 231.01 43.5465 230.602 43.5197 230.195C43.1662 225.15 42.9948 220.083 43.0001 215C43.0001 212.743 43.0376 210.496 43.1073 208.26C44.4946 161.518 61.1428 116.518 90.5021 80.1398C91.793 78.5367 93.1054 76.955 94.4445 75.3894C133.831 29.2475 192.4 0 257.793 0C334.247 0 401.375 39.9814 439.433 100.198C441.415 103.318 443.312 106.497 445.122 109.73C463.19 141.862 472.65 178.128 472.591 215Z" fill="#E1CBF1"/>
<path d="M24.6133 238.639C6.29919 222.141 -4.78888 195.907 2.02466 172.203C17.4033 194.164 40.0509 209.976 65.9552 216.833C75.9558 219.444 87.3492 221.299 93.4289 229.663C97.216 234.864 98.0945 241.738 97.2 248.113C96.3054 254.488 93.7985 260.503 91.3185 266.444L91.4524 268.047C67.2675 263.334 42.9327 255.142 24.6186 238.644L24.6133 238.639Z" fill="#A37BD4"/>
<path d="M2.53894 172.28C7.19379 191.935 18.1533 210.229 33.5266 223.354C36.853 226.19 40.4687 228.78 44.529 230.458C48.4982 232.061 52.8263 232.571 57.058 231.933C61.0165 231.418 65.0071 230.432 69.0192 230.887C73.2508 231.37 76.7862 233.74 79.2555 237.16C82.2766 241.342 83.6158 246.361 84.7567 251.31C86.0209 256.811 87.2529 262.542 90.8793 267.035C91.3185 267.582 90.4507 268.231 90.0115 267.689C83.7015 259.872 84.5639 249.047 79.9947 240.404C77.8628 236.372 74.5043 232.957 69.8762 232.11C65.832 231.37 61.7182 232.383 57.7115 232.941C53.5066 233.525 49.4409 233.386 45.4075 231.96C41.2829 230.501 37.5547 228.046 34.1748 225.306C26.5524 219.033 19.9638 211.602 14.6448 203.28C8.52221 193.817 4.06556 183.373 1.46227 172.408C1.30158 171.727 2.3836 171.609 2.53894 172.285V172.28Z" fill="white"/>
<path d="M28.3041 219.347C22.9582 224.071 14.9823 224.226 9.45435 219.712C8.91334 219.267 9.57755 218.409 10.1186 218.854C15.2555 223.068 22.6958 222.913 27.6506 218.479C28.1702 218.012 28.8183 218.886 28.3041 219.347Z" fill="white"/>
<path d="M55.0815 232.452C55.5797 225.407 53.4103 218.426 48.9965 212.909C48.5572 212.362 49.4304 211.713 49.8642 212.255C54.4441 218.002 56.6885 225.267 56.1528 232.602C56.0993 233.299 55.028 233.143 55.0762 232.446L55.0815 232.452Z" fill="white"/>
<path d="M9.93633 193.575C12.3468 192.203 13.9002 189.704 14.0769 186.938C14.1198 186.241 15.1965 186.396 15.1536 187.093C14.9447 190.149 13.2306 192.905 10.5845 194.444C10.3434 194.616 10.0113 194.567 9.82384 194.337C9.64708 194.096 9.69529 193.758 9.93098 193.575H9.93633Z" fill="white"/>
<path d="M78.5111 138.859C78.495 139.299 78.4843 139.733 78.4736 140.178C78.3129 146.06 78.6289 151.942 79.4217 157.775C79.4753 158.225 79.5395 158.681 79.6038 159.132C81.6607 173.158 86.2995 186.679 93.2845 199.006C96.0699 203.912 99.2249 208.592 102.717 213.021C107.544 219.133 113.264 225.374 115.718 232.51C115.98 233.25 116.2 234.012 116.371 234.778L93.3862 267.758C93.2952 267.806 93.2148 267.859 93.1238 267.908L92.2667 269.264C92.0685 269.05 91.8703 268.819 91.6775 268.605C91.565 268.481 91.4525 268.347 91.34 268.224C91.265 268.138 91.19 268.052 91.1204 267.977C91.0936 267.951 91.0722 267.918 91.0508 267.897C90.9811 267.822 90.9169 267.747 90.8526 267.682C89.7384 266.412 88.6296 265.13 87.5315 263.844C87.5315 263.844 87.5279 263.838 87.5208 263.827C79.1592 253.973 71.5422 243.33 65.7839 231.872C65.6125 231.529 65.4304 231.175 65.2697 230.816C62.7039 225.637 60.5612 220.254 58.8686 214.726C57.9526 211.697 57.192 208.619 56.5813 205.515C55.0333 197.483 54.7547 189.258 55.7564 181.136C57.7598 164.949 64.9108 149.588 77.5308 139.61C77.8522 139.353 78.1736 139.106 78.5004 138.859H78.5111Z" fill="#A37BD4"/>
<path d="M78.8753 139.229C70.7708 157.727 68.5157 178.937 72.8974 198.684C73.8455 202.952 75.1739 207.204 77.413 210.984C79.6199 214.656 82.7642 217.669 86.5298 219.707C90.0009 221.68 93.7773 223.299 96.7073 226.082C99.798 229.015 101.191 233.041 101.105 237.255C101.003 242.413 99.0535 247.228 96.9858 251.871C94.6879 257.024 92.2239 262.342 92.4167 268.117C92.4381 268.814 91.3561 268.814 91.3293 268.117C90.9918 258.069 98.1964 249.946 99.7445 240.295C100.468 235.792 99.8355 231.041 96.6537 227.578C93.8683 224.548 89.9741 222.876 86.4441 220.908C82.7374 218.844 79.577 216.275 77.2148 212.71C74.799 209.059 73.2991 204.855 72.2439 200.63C69.9299 191.028 69.1371 181.119 69.8977 171.276C70.7012 160.032 73.4223 149.009 77.9433 138.682C78.2218 138.044 79.1592 138.602 78.8807 139.235L78.8753 139.229Z" fill="white"/>
<path d="M71.135 192.336C64.0269 192.889 57.5615 188.203 55.8688 181.27C55.7028 180.589 56.7526 180.305 56.9187 180.986C58.4828 187.447 64.5197 191.806 71.1404 191.253C71.8367 191.194 71.8314 192.283 71.1404 192.342L71.135 192.336Z" fill="white"/>
<path d="M84.6335 218.941C89.2723 213.617 91.7309 206.732 91.5274 199.671C91.5059 198.974 92.5933 198.974 92.6147 199.671C92.8129 207.022 90.2364 214.174 85.3995 219.707C84.9388 220.233 84.1728 219.461 84.6335 218.935V218.941Z" fill="white"/>
<path d="M71.9761 160.691C74.724 161.045 77.4665 159.995 79.2771 157.887C79.7324 157.357 80.493 158.129 80.043 158.659C78.0343 160.976 75.0132 162.144 71.9761 161.78C71.6815 161.769 71.4458 161.533 71.4351 161.233C71.4351 160.933 71.6815 160.691 71.9814 160.691H71.9761Z" fill="white"/>
<path d="M288.461 141.063C291.654 123.391 286.345 103.334 271.867 92.7285C272.799 112.239 266.805 131.45 254.945 146.961C250.349 152.929 244.618 159.084 244.843 166.611C244.982 171.297 247.537 175.646 250.896 178.916C254.249 182.187 258.374 184.53 262.45 186.841L263.087 187.822C274.915 174.311 285.269 158.73 288.461 141.058V141.063Z" fill="#BBA1DC"/>
<path d="M271.604 93.0015C277.743 106.54 279.462 121.67 276.521 136.243C275.943 139.39 274.872 142.43 273.35 145.245C271.781 147.936 269.515 150.161 266.794 151.684C264.287 153.153 261.55 154.37 259.445 156.424C257.297 158.585 256.167 161.56 256.349 164.606C256.472 168.364 257.934 171.849 259.488 175.211C261.207 178.943 263.055 182.792 262.969 186.996C262.959 187.505 263.751 187.494 263.762 186.985C263.912 179.666 258.593 173.817 257.372 166.804C256.804 163.528 257.216 160.064 259.504 157.512C261.502 155.282 264.325 154.027 266.874 152.558C269.553 151.111 271.829 149.03 273.522 146.5C275.182 143.77 276.366 140.779 277.025 137.653C278.621 130.64 279.103 123.418 278.455 116.255C277.764 108.073 275.675 100.073 272.284 92.594C272.075 92.1329 271.401 92.5458 271.609 93.0069L271.604 93.0015Z" fill="white"/>
<path d="M277.743 131.605C282.928 131.937 287.588 128.468 288.756 123.402C288.868 122.903 288.102 122.705 287.99 123.203C286.913 127.927 282.558 131.155 277.732 130.811C277.223 130.774 277.239 131.567 277.743 131.605Z" fill="white"/>
<path d="M268.165 151.101C264.737 147.268 262.878 142.282 262.964 137.135C262.975 136.625 262.182 136.636 262.171 137.145C262.096 142.501 264.041 147.686 267.614 151.67C267.956 152.05 268.503 151.477 268.165 151.101Z" fill="white"/>
<path d="M276.832 108.566C274.834 108.85 272.825 108.11 271.492 106.593C271.154 106.207 270.608 106.781 270.94 107.161C272.424 108.829 274.636 109.649 276.848 109.354C277.062 109.343 277.234 109.167 277.239 108.952C277.239 108.732 277.057 108.561 276.837 108.561L276.832 108.566Z" fill="white"/>
<path d="M212.971 107.678C213.175 107.924 213.379 108.171 213.577 108.423C216.292 111.736 218.73 115.264 220.872 118.975C221.044 119.259 221.21 119.548 221.371 119.838C226.438 128.829 229.791 138.684 231.264 148.903C231.848 152.967 232.116 157.074 232.078 161.181C232.025 166.854 231.51 172.998 233.278 178.204C233.455 178.751 233.669 179.282 233.91 179.802L261.834 188.531C261.909 188.52 261.979 188.515 262.054 188.498L263.152 188.895C263.168 188.686 263.184 188.466 263.2 188.252C263.211 188.128 263.216 188.005 263.227 187.882C263.227 187.801 263.237 187.716 263.243 187.641C263.243 187.614 263.243 187.587 263.243 187.566C263.253 187.49 263.253 187.421 263.259 187.356C263.334 186.129 263.403 184.895 263.462 183.662C263.462 183.662 263.462 183.657 263.462 183.646C263.885 174.237 263.527 164.714 261.738 155.546C261.684 155.273 261.63 154.988 261.566 154.71C260.736 150.581 259.568 146.528 258.079 142.592C257.254 140.437 256.327 138.33 255.288 136.271C252.599 130.952 249.096 126.095 244.902 121.87C236.535 113.447 225.575 107.796 213.861 107.683C213.561 107.683 213.266 107.683 212.966 107.683L212.971 107.678Z" fill="#BBA1DC"/>
<path d="M212.923 108.052C225.966 115.162 236.444 126.206 242.856 139.61C244.286 142.474 245.261 145.54 245.737 148.709C246.102 151.808 245.636 154.945 244.377 157.802C243.257 160.488 241.806 163.105 241.356 166.016C240.938 169.035 241.827 172.091 243.804 174.413C246.161 177.335 249.428 179.238 252.69 180.986C256.311 182.927 260.098 184.889 262.562 188.299C262.862 188.712 263.484 188.224 263.184 187.811C258.898 181.876 251.137 180.418 245.941 175.549C243.52 173.276 241.763 170.263 242.052 166.847C242.304 163.861 243.804 161.159 244.961 158.451C246.225 155.684 246.798 152.65 246.621 149.61C246.305 146.43 245.453 143.326 244.098 140.436C241.152 133.874 237.194 127.82 232.367 122.491C226.893 116.379 220.417 111.248 213.212 107.318C212.768 107.076 212.479 107.811 212.918 108.052H212.923Z" fill="white"/>
<path d="M241.051 135.172C245.389 132.314 247.023 126.733 244.907 121.982C244.698 121.516 243.97 121.821 244.179 122.288C246.155 126.706 244.623 131.912 240.563 134.55C240.135 134.829 240.627 135.451 241.051 135.172Z" fill="white"/>
<path d="M245.127 156.516C240.081 155.519 235.597 152.656 232.571 148.5C232.271 148.088 231.65 148.575 231.95 148.988C235.11 153.31 239.781 156.28 245.03 157.304C245.529 157.401 245.625 156.618 245.127 156.516Z" fill="white"/>
<path d="M226.459 117.327C225.034 118.759 222.983 119.375 221.006 118.973C220.508 118.871 220.412 119.654 220.91 119.761C223.095 120.196 225.356 119.52 226.947 117.954C227.113 117.815 227.145 117.574 227.016 117.397C226.882 117.225 226.636 117.193 226.459 117.327Z" fill="white"/>
<path d="M70.3156 202.679C78.3665 202.679 84.8908 209.21 84.8908 217.268C84.8908 224.249 79.952 230.254 73.1063 231.589V255.453H63.802V202.674H70.3156V202.679Z" fill="#3F3D56"/>
<path d="M427.394 342.477V347.474C425.278 350.181 423.098 352.835 420.854 355.436C420.613 355.72 420.367 355.999 420.115 356.283C419.734 356.728 419.343 357.167 418.952 357.607V342.477H427.394Z" fill="#CACACA"/>
<path d="M402.625 332.055C398.742 332.055 395.592 335.213 395.587 339.1V349.239C395.587 353.126 398.742 356.278 402.625 356.284H420.115C420.366 356 420.613 355.721 420.854 355.437C423.098 352.836 425.278 350.182 427.394 347.475C427.533 347.298 427.673 347.121 427.807 346.944C429.017 345.394 430.206 343.818 431.374 342.231C432.285 340.987 433.19 339.733 434.074 338.467C434.079 338.462 434.084 338.462 434.084 338.456C435.563 336.355 437.004 334.221 438.407 332.055H402.625Z" fill="#3F3D56"/>
<path d="M447.658 245.272C446.581 244.902 445.451 244.715 444.316 244.715H441.439C440.389 244.715 439.35 244.87 438.348 245.181C434.015 246.543 431.063 250.564 431.058 255.111V339.69C431.058 340.006 431.074 340.317 431.101 340.623C431.149 341.165 431.24 341.706 431.374 342.232C432.285 340.988 433.19 339.733 434.074 338.468C434.079 338.462 434.085 338.462 434.085 338.457C435.563 336.355 437.004 334.221 438.407 332.055C439.163 330.892 439.913 329.718 440.646 328.538C445.949 320.024 450.647 311.145 454.702 301.966V255.111C454.702 250.661 451.868 246.709 447.658 245.272Z" fill="#3F3D56"/>
<path d="M93.1292 342.477V352.572C90.7187 349.688 88.3886 346.739 86.1389 343.726C85.8282 343.313 85.5229 342.895 85.2175 342.477H93.1292Z" fill="#CACACA"/>
<path d="M109.456 332.055H77.9968C78.9878 333.583 79.9948 335.095 81.0233 336.585C82.3838 338.574 83.7819 340.537 85.2175 342.478C85.5228 342.896 85.8281 343.314 86.1388 343.727C88.3939 346.74 90.724 349.689 93.1291 352.574C93.579 353.12 94.0344 353.662 94.495 354.203C95.0842 354.9 95.6842 355.592 96.2895 356.284H109.456C113.339 356.284 116.489 353.126 116.489 349.239V339.1C116.489 335.213 113.339 332.06 109.456 332.055Z" fill="#3F3D56"/>
<path d="M75.4363 245.889C73.9526 245.117 72.3081 244.715 70.6369 244.715H67.7658C66.4052 244.715 65.0607 244.983 63.8073 245.503C59.9184 247.111 57.3848 250.902 57.3794 255.111V291.447C62.7895 305.676 69.6995 319.295 77.9968 332.055C78.9877 333.583 79.9948 335.095 81.0232 336.586V255.111C81.0232 251.235 78.8699 247.685 75.4363 245.889Z" fill="#3F3D56"/>
<path d="M192.456 402.919L201.894 400.752L198.032 363.291L184.105 366.487L192.456 402.919Z" fill="#9E616A"/>
<path d="M201.042 370.416C200.849 369.757 200.715 369.081 200.651 368.395C200.571 367.585 200.416 366.786 200.18 366.009C199.912 365.301 199.58 364.62 199.189 363.972C199.001 363.628 198.803 363.285 198.626 362.937C198.45 362.588 198.294 362.229 198.166 361.859C192.643 345.533 184.935 323.347 179.589 310.361C176.445 302.721 157.108 300.179 138.863 299.53C136.64 299.45 134.433 299.396 132.275 299.37C131.53 299.359 130.791 299.348 130.057 299.343C128.182 299.332 126.356 299.332 124.599 299.354C124.368 299.354 124.138 299.354 123.908 299.359C122.628 299.37 121.385 299.386 120.185 299.413C111.925 299.573 105.856 299.949 104.774 300.018L95.1378 293.954L93.2576 292.77L93.0594 293.954L91.5435 302.994L88.9563 318.419L95.4431 320.242L99.6533 321.422L124.599 328.424L129.902 329.915L129.934 329.925L138.863 329.909L163.279 329.866L164.457 332.992C162.812 335.55 163.546 338.96 166.107 340.611C166.3 340.734 166.503 340.852 166.712 340.949L167.628 341.383L178.786 370.936C178.818 373.612 179.654 376.212 181.18 378.405C181.368 378.678 181.571 378.946 181.785 379.209L182.032 379.504L186.322 387.906L188.877 387.316L199.751 384.823L199.805 384.716C199.805 384.716 199.95 384.405 200.153 383.89V383.874C201.005 381.745 202.89 375.928 201.042 370.416Z" fill="#2F2E41"/>
<path d="M227.552 405.411C225.848 397.868 218.365 393.139 210.829 394.838C210.797 394.844 210.77 394.854 210.738 394.86L203.201 391.455L201.09 392.94L192.338 399.085L191.615 399.251L189.269 399.787L192.509 413.926L227.659 405.856L227.552 405.411Z" fill="#2F2E41"/>
<path d="M180.929 383.611L177.741 409.476L177.634 410.323L177.163 414.178C175.326 413.427 173.494 412.65 171.683 411.851C169.99 411.106 168.308 410.339 166.643 409.545V383.617H180.929V383.611Z" fill="#9E616A"/>
<path d="M111.764 205.8C122.435 205.8 131.086 197.141 131.086 186.46C131.086 175.78 122.435 167.121 111.764 167.121C101.094 167.121 92.4434 175.78 92.4434 186.46C92.4434 197.141 101.094 205.8 111.764 205.8Z" fill="#9E616A"/>
<path d="M182.98 393.483C182.444 392.748 181.887 391.981 181.855 391.247C181.732 388.657 181.603 386.094 181.469 383.585C181.373 381.832 181.277 380.1 181.18 378.406C181.169 378.191 181.153 377.977 181.143 377.768C180.977 374.964 181.807 372.004 182.605 369.136C182.868 368.197 183.13 367.248 183.366 366.299C183.955 364.187 184.201 361.989 184.1 359.796C182.728 342.43 176.6 326.098 173.852 323.348C169.674 319.166 150.782 309.504 138.863 303.628C136.748 302.582 134.851 301.66 133.298 300.909C131.921 300.239 130.813 299.708 130.057 299.344C129.479 299.07 129.104 298.893 128.975 298.829L128.911 298.797L124.599 299.279L123.908 299.36L120.105 299.789L95.3628 302.566L91.5436 302.995L86.1388 303.606L81.259 304.153L81.0769 304.169L81.0447 304.352C81.0447 304.352 81.034 304.394 81.0233 304.464C80.1823 309.767 80.1823 315.166 81.0233 320.463C81.6554 324.061 82.8499 327.717 84.9711 330.795C85.2604 331.213 85.5603 331.615 85.8817 332.001C85.8924 332.023 85.9085 332.039 85.9246 332.055C85.9942 332.141 86.0638 332.226 86.1388 332.312C88.5653 335.143 91.8221 337.127 95.4432 337.985C95.9788 338.13 96.5252 338.248 97.0876 338.344C103.082 339.406 109.852 340.381 116.489 341.239C119.237 341.593 121.963 341.926 124.599 342.237C129.875 342.858 134.803 343.384 138.863 343.802C144.552 344.381 148.548 344.74 149.437 344.815L159.374 391.215C157.767 393.933 158.243 397.397 160.52 399.584L161.334 400.372L162.277 404.79L165.384 408.951L165.775 409.476H179.482L179.557 409.385C179.605 409.321 184.426 403.123 184.1 395.74C184.067 394.979 183.537 394.255 182.98 393.483Z" fill="#2F2E41"/>
<path d="M182.605 237.975C178.684 236.903 174.635 239.214 173.563 243.139C173.451 243.557 173.37 243.986 173.333 244.415L157.279 249.438L157.949 259.947L180.521 252.537C184.608 252.634 187.999 249.401 188.101 245.31C188.181 241.889 185.91 238.855 182.605 237.975Z" fill="#9E616A"/>
<path d="M172.128 255.367L160.129 259.913L159.824 260.509C158.292 263.484 154.638 264.653 151.671 263.12L124.701 273.339C124.701 273.339 112.654 261.275 104.083 250.509L107.008 232.516C107.683 228.339 109.124 224.328 111.25 220.672C128.836 224.532 138.933 249.137 138.933 249.137L170.628 243.083L172.133 255.367H172.128Z" fill="#FDB52E"/>
<path d="M109.022 204.769C104.185 206.077 98.85 204.34 95.079 201.043C91.3079 197.746 88.9403 193.07 87.5798 188.245C86.5835 184.711 86.1121 180.787 87.6816 177.468C89.251 174.149 93.4881 171.908 96.7502 173.586C94.7361 171.238 95.7432 167.351 98.0947 165.34C100.446 163.329 103.676 162.756 106.756 162.439C111.224 161.984 115.836 161.93 120.083 163.378C124.331 164.825 128.193 167.989 129.522 172.283C132.312 173.586 135.633 172.836 137.599 170.46C138.103 173.189 136.721 175.918 134.219 177.119L140.728 175.007C141.847 177.377 139.887 180.315 137.374 181.076C134.862 181.838 132.157 181.007 129.779 179.907C127.4 178.808 125.092 177.425 122.505 176.996C119.917 176.567 116.88 177.398 115.686 179.736C115.059 180.958 115.027 182.39 114.663 183.714C114.298 185.039 113.377 186.411 112.011 186.524C111.149 186.593 110.302 186.132 109.44 186.223C108.358 186.438 107.506 187.269 107.27 188.347C107.056 189.403 107.051 190.497 107.265 191.553L108.92 204.206L109.033 204.78L109.022 204.769Z" fill="#2F2E41"/>
<path d="M133.298 300.909L132.275 299.371L124.808 288.16L124.658 287.94L126.967 275.951L127.684 272.209L129.254 264.065L128.798 245.422L128.472 232.233L128.423 230.163L126.768 225.113C125.183 220.341 121.69 216.438 117.127 214.33L105.985 209.226C103.253 207.982 100.034 209.189 98.791 211.923C98.7428 212.03 98.6946 212.143 98.6518 212.256C97.1251 212.465 90.4991 213.58 84.8801 217.944C80.943 220.941 78.1951 225.241 77.1238 230.072C77.113 230.11 77.1077 230.147 77.097 230.185C76.3524 233.514 75.7953 238.769 75.4364 245.889C75.1954 250.596 75.0454 256.113 74.9811 262.435C74.8794 272.976 75.4739 283.511 76.7541 293.972C76.8774 294.969 77.0059 295.961 77.1398 296.958C77.2523 297.794 78.0558 298.593 78.8325 299.36C79.5449 300.062 80.2788 300.792 80.3805 301.451C80.4716 302.03 80.102 302.636 79.6628 303.269C79.6092 303.349 79.5503 303.429 79.4967 303.51C78.9503 304.287 78.3879 305.097 78.5325 305.949C78.87 307.869 79.0682 309.82 79.2557 311.708C79.4646 314.308 79.8395 316.887 80.3805 319.439C80.568 320.222 80.7823 321.01 81.0233 321.798C81.5858 323.648 82.2661 325.492 82.9303 327.294C83.5034 328.86 84.098 330.468 84.6015 332.055C84.6979 332.35 84.789 332.639 84.8747 332.929L84.9175 333.079L85.0729 333.106H85.0836C85.2925 332.731 85.5443 332.377 85.8335 332.055C85.8442 332.034 85.8603 332.017 85.8817 332.001C85.9567 331.91 86.0424 331.814 86.1388 331.712C87.3119 330.43 89.8616 328.13 95.4432 324.254C96.6913 323.391 98.0893 322.452 99.6534 321.423C105.39 317.664 113.404 312.769 124.599 306.448C127.406 304.861 130.416 303.183 133.635 301.413L133.298 300.909Z" fill="#FDC82E"/>
<path d="M193.383 418.853C190.752 416.21 187.18 414.73 183.457 414.741L177.634 410.323L176.868 409.738L171.683 411.851C173.494 412.65 175.326 413.427 177.163 414.178C182.91 416.526 188.781 418.622 194.77 420.472C194.347 419.898 193.886 419.357 193.383 418.853Z" fill="#2F2E41"/>
<path d="M322.706 402.554L315.416 399.064L325.432 368.551L336.194 373.703L322.706 402.554Z" fill="#FFB6B6"/>
<path d="M371.595 397.637C369.474 398.961 367.326 400.248 365.151 401.497V401.513H365.119L365.108 401.524L364.283 401.728L363.1 398.597L360.368 391.375L352.922 371.698L364.498 368.84L365.151 371.494L370.047 391.369L371.45 397.053L371.595 397.637Z" fill="#FFB6B6"/>
<path d="M342.07 269.94C344.234 273.457 348.803 274.604 352.37 272.524C352.713 272.315 353.04 272.079 353.345 271.816L376.4 285.06L375.398 271.463L353.656 260.97C351.224 258.525 347.448 258.032 344.469 259.774C341.02 261.849 339.9 266.332 341.973 269.784C342.005 269.838 342.038 269.886 342.07 269.94Z" fill="#FFB6B6"/>
<path d="M366.49 280.079L370.567 282.567L388.87 293.74C393.921 296.904 400.579 295.37 403.745 290.314V290.304C405.106 288.068 405.588 285.409 405.095 282.84L396.958 242.162C395.807 236.034 389.909 232.007 383.787 233.16C383.229 233.267 382.683 233.412 382.153 233.599C376.807 235.481 373.839 241.197 375.377 246.655L383.883 275.527L370.845 269.442L366.49 280.09V280.079Z" fill="#5D2A9D"/>
<path d="M441.541 320.189C441.541 320.189 441.525 320.114 441.509 320.023L441.493 319.964C441.455 319.771 441.412 319.557 441.364 319.321C440.271 313.889 438.868 308.522 437.159 303.252C436.147 300.024 434.808 296.909 433.158 293.955C433.104 293.858 433.045 293.762 432.986 293.665L432.788 293.344L431.122 293.955L431.058 293.976L405.732 303.268L398.41 305.954L398.179 306.04L396.931 311.134L379.421 308.866L365.151 307.016L361.053 306.485C357.464 306.019 353.838 307.01 350.988 309.241C348.015 311.552 346.087 314.956 345.648 318.699C345.594 319.106 345.562 319.519 345.546 319.927L344.309 366.127V366.186L344.882 367.334L356.854 391.375H370.047L374.027 391.37L365.751 370.411L365.938 370.127C367.519 367.704 367.867 364.68 366.886 361.961L367.818 359.259C369.752 353.678 368.836 350.997 367.679 347.608C366.64 344.853 366.029 341.952 365.869 339.014L365.676 335.191C370.534 336.043 375.061 336.993 379.421 337.947C380.878 338.263 382.319 338.585 383.749 338.907C387.815 339.813 391.741 340.687 395.587 341.416C403.375 342.901 410.837 343.807 418.502 343.244C418.652 343.233 418.802 343.223 418.952 343.207C420.816 343.056 422.691 342.815 424.587 342.477C425.653 342.284 426.725 342.065 427.807 341.807C428.107 341.732 428.412 341.657 428.712 341.582C429.542 341.362 430.346 341.041 431.101 340.622C432.172 340.022 433.168 339.298 434.074 338.467C434.079 338.462 434.084 338.462 434.084 338.456C435.563 336.354 437.004 334.221 438.407 332.054C439.162 330.891 439.912 329.717 440.646 328.537C441.718 325.594 442.125 322.623 441.541 320.189Z" fill="#2F2E41"/>
<path d="M441.718 311.509C441.637 311.166 441.535 310.817 441.428 310.479C440.577 307.922 439.586 305.413 438.461 302.962C437.197 300.174 435.681 297.188 433.876 293.955C433.002 292.389 432.065 290.759 431.058 289.07C430.554 288.223 430.03 287.36 429.489 286.481C429.467 286.438 429.446 286.4 429.419 286.363L429.264 286.105L404.206 289.462L394.874 290.711L394.317 295.365L394.183 296.518C394.183 296.518 394.178 296.518 394.183 296.523L393.809 299.665L393.31 303.82H393.267L379.421 302.019L365.151 300.169L357.486 299.177C353.897 298.711 350.27 299.702 347.421 301.933C344.448 304.244 342.519 307.648 342.08 311.391C342.032 311.766 342 312.152 341.984 312.533L334.752 329.685C330.424 339.941 327.671 350.793 326.578 361.876L321.275 378.845L322.031 378.915L333.269 379.96L336.236 380.239L342.771 370.69C343.516 369.602 344.223 368.481 344.882 367.334C345.969 365.457 346.933 363.516 347.769 361.522L361.905 327.851C362.998 328.039 364.08 328.215 365.151 328.387C370.106 329.191 374.862 329.845 379.421 330.355C394.242 332.011 407.077 332.14 418.502 330.735C421.711 330.344 424.812 329.829 427.807 329.191C428.905 328.961 429.987 328.714 431.058 328.446C431.31 328.387 431.556 328.328 431.803 328.264C436.302 327.1 439.902 323.733 441.364 319.321C442.221 316.806 442.344 314.093 441.718 311.509Z" fill="#2F2E41"/>
<path d="M388.431 210.244C398.004 210.244 405.765 202.303 405.765 192.508C405.765 182.712 398.004 174.771 388.431 174.771C378.858 174.771 371.097 182.712 371.097 192.508C371.097 202.303 378.858 210.244 388.431 210.244Z" fill="#FFB6B6"/>
<path d="M429.591 287.076C429.564 286.878 429.532 286.68 429.489 286.481C429.076 284.304 428.005 282.17 426.971 280.101C425.986 278.128 425.048 276.262 424.663 274.407C424.282 272.579 424.507 270.745 424.727 268.976C424.962 267.056 425.209 265.072 424.657 263.147C421.861 253.32 418.015 243.814 413.194 234.806C410.709 226.715 403.718 220.828 395.33 219.761C395.812 218.866 396.01 217.847 395.903 216.834C395.769 215.515 395.11 214.303 394.077 213.472C393.086 212.673 391.811 212.303 390.547 212.443L382.49 213.349C379.801 213.687 377.889 216.132 378.2 218.823C378.243 219.22 378.334 219.611 378.468 219.992C370.99 229.525 367.149 238.211 366.796 246.425C366.753 247.379 366.758 248.328 366.812 249.277C366.983 252.344 367.647 255.362 368.783 258.215C370.122 261.512 371.922 264.6 374.118 267.399C374.568 267.968 375.034 268.525 375.516 269.072C375.966 269.608 376.47 270.171 377.027 270.761L378.435 272.97L379.748 275.034L386.765 291.242L390.338 291.124L390.836 294.69L390.954 295.521L393.268 303.815L393.439 304.437L396.605 302.931L415.492 293.955L429.612 287.242L429.591 287.076Z" fill="#5D2A9D"/>
<path opacity="0.2" d="M368.992 258.129C370.604 262.075 372.864 265.726 375.687 268.922C376.169 269.501 376.684 270.069 377.214 270.638L379.957 274.943C390.064 267.362 398.255 237.503 398.255 237.503L386.85 235.283L368.992 258.134V258.129Z" fill="black"/>
<path d="M362.092 211.902C364.171 215.472 363.03 220.046 359.521 222.223C359.173 222.432 358.814 222.609 358.434 222.753L359.243 249.347L347.737 242.098L348.733 217.955C347.726 214.652 349.071 211.081 352.006 209.269C355.445 207.189 359.912 208.288 361.991 211.73C362.023 211.789 362.06 211.843 362.092 211.902Z" fill="#FFB6B6"/>
<path d="M360.25 239.309L347.598 241.11L348.144 267.339C348.208 271.146 350.238 274.642 353.506 276.588C357.539 278.963 362.655 278.384 366.056 275.162L395.93 246.402C400.295 242.258 400.66 235.422 396.766 230.832C392.936 226.296 386.16 225.728 381.628 229.556C381.542 229.626 381.456 229.701 381.376 229.776C381.081 230.039 380.798 230.317 380.535 230.612L360.807 253.324L360.255 239.303L360.25 239.309Z" fill="#5D2A9D"/>
<path d="M371.917 396.967L371.451 397.053L365.151 398.216L363.1 398.597L359.87 399.192L361.016 403.819C362.393 403.074 363.753 402.307 365.108 401.524H365.119L365.151 401.513V401.497C367.326 400.253 369.474 398.967 371.595 397.637C371.745 397.546 371.895 397.455 372.045 397.353L371.917 396.967Z" fill="#2F2E41"/>
<path d="M325.036 397.574L317.146 393.789L315.908 393.193L313.932 398.051L300.133 401.091C298.366 401.477 297.251 403.225 297.637 404.994C297.867 406.045 298.601 406.919 299.598 407.327L313.08 412.833L317.36 408.978L316.31 414.152L321.388 416.227L326.953 398.496L325.036 397.574Z" fill="#2F2E41"/>
<path d="M434.813 184.815C431.867 181.378 430.463 176.816 428.112 172.907C425.755 169.004 421.657 165.508 417.329 166.414C414.346 167.041 412.037 169.679 410.869 172.617C409.701 175.556 409.482 178.799 409.278 181.973C409.353 175.448 405.057 169.122 399.138 167.041C393.219 164.961 386.143 167.283 382.42 172.526C379.062 169.411 373.909 169.304 370.422 172.274C367.095 175.25 366.362 180.912 368.804 184.708C371.247 188.504 376.544 189.914 380.433 187.812L381.81 189.078C381.038 191.785 382.538 194.986 385.056 196.005C387.102 196.83 389.989 196.696 390.75 198.841C391.286 200.342 390.284 201.945 389.223 203.098C388.163 204.251 386.899 205.441 386.77 207.039C386.577 209.446 389.063 211.135 391.323 211.639C396.771 212.862 402.818 210.336 405.957 205.527C406.016 205.436 406.086 205.339 406.155 205.248C409.718 200.691 411.244 194.868 410.387 189.147C410.21 188.037 410.387 187.206 411.153 186.944C414.463 185.807 423.741 188.193 426.553 190.354C429.36 192.514 431.61 195.372 434.315 197.672C437.02 199.972 440.464 201.747 443.903 201.12C446.656 200.616 448.992 198.621 450.567 196.209C452.141 193.796 453.047 190.986 453.856 188.193C447.776 191.71 439.446 190.236 434.813 184.826V184.815Z" fill="#2F2E41"/>
<path d="M379.421 290.535V392.512C377.482 393.847 375.516 395.145 373.529 396.41V297.296C373.529 294.422 372.564 292.09 371.381 292.084H282.199C281.01 292.09 280.051 294.422 280.046 297.296V428.902C278.857 429.02 277.668 429.132 276.479 429.229C275.986 429.271 275.488 429.309 274.995 429.347C274.711 428.821 274.432 428.29 274.154 427.754V290.535C274.154 289.741 274.186 288.942 274.24 288.154C274.722 281.463 277.116 276.573 279.917 276.562H373.657C373.995 276.562 374.332 276.638 374.643 276.772C376.989 277.769 378.842 282.144 379.308 287.8C379.383 288.701 379.426 289.618 379.421 290.535Z" fill="white"/>
<path d="M236.331 290.535V428.494C236.251 428.623 236.171 428.746 236.09 428.875C234.076 428.671 232.073 428.435 230.075 428.172V297.296C230.075 294.422 229.052 292.09 227.793 292.084H133.137C131.878 292.09 130.855 294.422 130.855 297.296V388.153C128.739 386.593 126.656 384.995 124.599 383.355V290.535C124.599 289.741 124.631 288.942 124.69 288.154C125.199 281.463 127.743 276.573 130.721 276.562H230.209C230.568 276.562 230.921 276.632 231.253 276.772C233.744 277.769 235.715 282.144 236.213 287.8C236.294 288.701 236.331 289.618 236.331 290.535Z" fill="white"/>
<path d="M309.957 244.688L303.749 272.011L299.785 276.353H296.93L308.714 226.684L309.298 235.123V235.128L309.957 244.688Z" fill="#3F3D56"/>
<path d="M339.809 272.61L303.417 272.38L300.187 272.358L297.883 272.342L295.2 272.326H295.178C294.787 272.326 294.418 272.482 294.139 272.755L289.608 277.291C289.506 277.388 289.425 277.505 289.367 277.634C289.34 277.672 289.313 277.709 289.297 277.752C288.965 278.519 289.318 279.409 290.09 279.741C290.272 279.816 290.465 279.859 290.657 279.865H337.8C338.379 279.865 338.904 279.527 339.15 279.007L339.52 278.202L340.281 276.567L341.143 274.723C341.234 274.524 341.282 274.31 341.282 274.095C341.282 273.281 340.623 272.621 339.809 272.61Z" fill="#3F3D56"/>
<path opacity="0.17" d="M339.52 278.198L339.15 279.007C338.904 279.527 338.379 279.86 337.806 279.865H290.663C289.827 279.849 289.163 279.163 289.179 278.326C289.179 278.128 289.227 277.935 289.302 277.753C289.318 277.71 289.34 277.672 289.372 277.635L339.525 278.198H339.52Z" fill="black"/>
<path opacity="0.17" d="M309.298 235.123V235.128L299.206 276.353H296.93L308.714 226.684L309.298 235.123Z" fill="black"/>
<path d="M321.683 242.677L307.397 133.885C307.343 133.478 307.134 133.108 306.808 132.856L296.973 120.535L296.089 119.854C295.762 119.607 295.35 119.495 294.943 119.548L293.464 119.747C292.613 119.854 292.018 120.631 292.125 121.484L306.931 234.206L307.836 241.106L308.913 249.294V249.304L310.584 262.043C310.638 262.483 310.884 262.88 311.254 263.126C311.618 263.378 312.073 263.459 312.502 263.352L313.439 263.116C313.798 263.025 314.114 262.805 314.328 262.505L314.746 261.909L314.939 261.631L321.41 243.776C321.635 243.46 321.736 243.063 321.683 242.677Z" fill="#3F3D56"/>
<path opacity="0.17" d="M296.967 120.533L314.939 261.629L314.746 261.908L314.328 262.503C314.114 262.803 313.798 263.023 313.439 263.114L312.502 263.35C311.666 263.559 310.825 263.05 310.616 262.213C310.6 262.16 310.589 262.101 310.584 262.042L292.131 121.482C292.018 120.63 292.618 119.852 293.464 119.74L294.948 119.547C295.355 119.493 295.768 119.6 296.089 119.852L296.973 120.533H296.967Z" fill="black"/>
<path d="M297.498 124.566L307.038 138.19L318.372 224.512L312.223 236.715L297.498 124.566Z" fill="#9C51D0"/>
<path d="M120.255 298.609C120.255 298.877 120.233 299.15 120.185 299.413C120.164 299.542 120.137 299.665 120.105 299.788C119.569 301.837 117.716 303.268 115.6 303.268H95.4431V351.388C95.4431 352.407 95.111 353.394 94.495 354.203C94.0343 353.662 93.579 353.12 93.129 352.573C90.7186 349.689 88.3885 346.74 86.1387 343.727V303.268H77.1397C74.5686 303.268 72.4902 301.183 72.4902 298.609C72.4902 296.191 74.3436 294.175 76.754 293.971C76.8826 293.96 77.0112 293.955 77.1397 293.955H115.6C118.171 293.955 120.255 296.035 120.255 298.609Z" fill="#3F3D56"/>
<path d="M441.45 298.609C441.45 300.539 440.261 302.271 438.461 302.963C438.043 303.123 437.604 303.22 437.159 303.252C437.042 303.263 436.918 303.268 436.801 303.268H427.807V346.944C427.673 347.121 427.534 347.298 427.394 347.475C425.279 350.182 423.098 352.836 420.854 355.436C419.397 354.616 418.497 353.067 418.502 351.388V303.268H398.34C397.746 303.268 397.157 303.156 396.605 302.93C395.196 302.367 394.152 301.15 393.809 299.671C393.557 298.609 393.691 297.494 394.184 296.523C394.184 296.523 394.184 296.521 394.184 296.518C394.398 296.089 394.677 295.698 395.009 295.36C395.887 294.459 397.087 293.955 398.34 293.955H436.801C439.366 293.955 441.45 296.035 441.45 298.609Z" fill="#3F3D56"/>
<path d="M441.139 208.888C433.088 208.888 426.564 215.419 426.564 223.477C426.564 230.458 431.503 236.463 438.348 237.798V261.662H447.653V208.883H441.139V208.888Z" fill="#3F3D56"/>
<path d="M186.622 262.167C183.114 260.108 178.604 261.282 176.547 264.789C176.327 265.164 176.14 265.555 175.99 265.963L159.181 266.617L156.915 274.456L180.811 275.678C184.732 276.842 188.845 274.6 190.008 270.681C190.977 267.4 189.579 263.877 186.617 262.162L186.622 262.167Z" fill="#9E616A"/>
<path d="M172.819 276.53L155.554 276.315L153.369 276.283L118.241 275.838C118.241 275.838 108.701 266.729 100.398 257.351L101.56 248.923C102.696 240.65 106.794 233.074 113.098 227.6C124.995 235.556 131.895 251.303 131.895 251.303L143.465 256.483C151.607 256.847 159.54 259.174 166.589 263.26L170.392 265.463L172.824 276.519L172.819 276.53Z" fill="#FDC82E"/>
<path d="M227.064 427.76H289.34C285.092 428.382 280.807 428.875 276.479 429.234H239.926C235.597 428.875 231.312 428.382 227.064 427.76Z" fill="#CCCCCC"/>
<path d="M239.583 396.377C240.788 385.488 247.376 374.69 257.682 371.012C253.745 382.255 253.911 394.528 258.148 405.658C259.798 409.948 262.08 414.543 260.639 418.907C259.745 421.62 257.495 423.722 254.961 425.046C252.433 426.37 249.615 427.024 246.83 427.668L246.289 428.129C241.725 418.172 238.377 407.261 239.583 396.372V396.377Z" fill="#BBA1DC"/>
<path d="M257.79 371.216C251.849 378.062 248.212 386.603 247.398 395.638C247.189 397.579 247.285 399.541 247.687 401.45C248.137 403.299 249.074 404.994 250.403 406.356C251.613 407.653 253.001 408.838 253.879 410.404C254.763 412.039 254.902 413.974 254.27 415.722C253.547 417.894 252.085 419.679 250.596 421.373C248.94 423.255 247.194 425.185 246.514 427.657C246.434 427.957 245.973 427.813 246.053 427.512C247.237 423.207 251.362 420.719 253.295 416.827C254.195 415.014 254.56 412.913 253.665 411.025C252.883 409.374 251.453 408.146 250.215 406.849C248.903 405.535 247.928 403.927 247.382 402.152C246.884 400.27 246.712 398.313 246.873 396.372C247.162 391.992 248.132 387.686 249.755 383.612C251.581 378.952 254.19 374.636 257.473 370.856C257.677 370.62 257.998 370.98 257.795 371.216H257.79Z" fill="white"/>
<path d="M247.494 392.715C244.404 392.008 242.282 389.166 242.481 386.003C242.491 385.869 242.604 385.772 242.738 385.778C242.866 385.788 242.963 385.89 242.963 386.019C242.775 388.968 244.757 391.611 247.639 392.254C247.944 392.324 247.794 392.78 247.494 392.715Z" fill="white"/>
<path d="M249.706 405.782C252.379 404.136 254.329 401.547 255.176 398.523C255.261 398.223 255.717 398.367 255.636 398.668C254.752 401.81 252.711 404.501 249.931 406.211C249.664 406.372 249.444 405.943 249.706 405.782Z" fill="white"/>
<path d="M252.031 379.403C253.151 379.918 254.452 379.832 255.497 379.178C255.759 379.012 255.979 379.441 255.722 379.607C254.565 380.326 253.129 380.417 251.887 379.864C251.763 379.822 251.694 379.688 251.731 379.564C251.774 379.436 251.908 379.366 252.031 379.409V379.403Z" fill="white"/>
<path d="M289.517 390.002C289.356 390.109 289.195 390.216 289.035 390.329C286.87 391.792 284.835 393.433 282.939 395.229C282.789 395.363 282.639 395.508 282.494 395.647C277.968 400.022 274.299 405.196 271.663 410.917C270.619 413.19 269.746 415.544 269.055 417.952C268.101 421.276 267.33 424.959 265.396 427.694C265.198 427.983 264.978 428.257 264.748 428.519L246.905 428.761C246.862 428.739 246.825 428.723 246.782 428.707L246.07 428.75C246.096 428.621 246.129 428.492 246.155 428.364C246.171 428.289 246.187 428.219 246.203 428.144C246.214 428.096 246.225 428.047 246.236 427.999C246.236 427.983 246.241 427.967 246.246 427.956C246.252 427.913 246.268 427.871 246.273 427.828C246.445 427.098 246.616 426.364 246.798 425.635C246.798 425.635 246.798 425.631 246.798 425.624C248.116 420.032 250.098 414.622 252.69 409.496C252.771 409.346 252.851 409.191 252.937 409.035C254.142 406.767 255.524 404.601 257.083 402.558C257.94 401.443 258.85 400.371 259.815 399.347C262.311 396.709 265.203 394.479 268.39 392.736C274.743 389.267 282.135 387.873 289.002 389.846C289.179 389.894 289.351 389.948 289.527 390.002H289.517Z" fill="#BBA1DC"/>
<path d="M289.479 390.233C280.619 392.12 272.574 396.747 266.494 403.471C265.16 404.892 264.057 406.522 263.226 408.286C262.477 410.033 262.203 411.948 262.444 413.84C262.632 415.604 263.028 417.39 262.782 419.17C262.503 421.009 261.448 422.639 259.895 423.652C258.009 424.949 255.77 425.496 253.558 425.947C251.105 426.451 248.549 426.939 246.519 428.504C246.273 428.692 245.994 428.3 246.241 428.113C249.776 425.389 254.57 425.888 258.448 423.947C260.259 423.041 261.807 421.582 262.235 419.534C262.605 417.743 262.198 415.904 261.994 414.119C261.737 412.28 261.93 410.409 262.557 408.661C263.296 406.859 264.33 405.192 265.626 403.739C268.487 400.415 271.856 397.568 275.605 395.289C279.869 392.667 284.546 390.796 289.441 389.756C289.747 389.692 289.784 390.174 289.484 390.238L289.479 390.233Z" fill="white"/>
<path d="M268.326 401.186C266.285 398.762 266.301 395.213 268.363 392.806C268.567 392.57 268.942 392.875 268.738 393.111C266.815 395.352 266.805 398.661 268.722 400.907C268.926 401.143 268.529 401.422 268.331 401.186H268.326Z" fill="white"/>
<path d="M262.23 412.956C265.353 413.251 268.471 412.361 270.961 410.458C271.208 410.27 271.486 410.662 271.24 410.849C268.642 412.822 265.396 413.745 262.15 413.434C261.839 413.401 261.919 412.93 262.23 412.956Z" fill="white"/>
<path d="M279.95 393.3C280.534 394.383 281.626 395.102 282.853 395.209C283.164 395.236 283.083 395.713 282.773 395.686C281.417 395.563 280.212 394.769 279.559 393.579C279.484 393.472 279.51 393.322 279.618 393.241C279.725 393.166 279.875 393.188 279.955 393.3H279.95Z" fill="white"/>
<path d="M266.735 74.3653C233.358 83.1529 196.377 88.4984 158.774 89.9621C153.262 90.2624 147.739 90.2249 142.233 89.8496C130.132 88.8308 119.767 85.0241 108.224 82.9438C102.674 81.9466 96.4929 81.2174 90.906 80.1397C92.1969 78.5366 93.5093 76.9549 94.8484 75.3893C106.895 76.408 119.13 79.7429 131.321 81.2924C152.046 83.9303 175.266 80.9868 190.977 73.7272C198.6 70.2047 204.438 65.8082 212.034 62.2695C213.068 61.7387 214.187 61.3956 215.339 61.2562C217.744 61.0363 219.854 62.0068 221.574 62.8754C234.317 69.3146 252.819 74.5476 269.992 71.6684C271.272 72.671 268.84 73.813 266.735 74.3653Z" fill="white"/>
<path d="M342.729 97.0286C342.884 97.0018 343.045 96.975 343.2 96.9482C342.541 96.5407 341.92 96.0689 341.347 95.5488L342.734 97.0286H342.729Z" fill="white"/>
<path d="M445.532 109.729C438.359 110.303 431.149 110.732 423.902 111.011C418.39 111.311 412.867 111.274 407.361 110.898C395.26 109.874 384.895 106.073 373.352 103.993C362.773 102.089 349.917 101.172 343.2 96.9474C360.561 93.9396 378.548 100.063 396.449 102.341C410.928 104.121 425.611 103.397 439.843 100.197C441.825 103.317 443.721 106.496 445.532 109.729Z" fill="white"/>
<path d="M288.186 180.161C271.383 122.432 261.495 62.9131 261.495 2.78281V-1.57617H255.913V2.78281C255.913 62.9131 246.025 122.432 229.221 180.161C228.407 182.954 228 185.849 228 188.76C228 193.388 231.75 197.141 236.372 197.141H247.541C247.541 203.312 252.533 208.32 258.698 208.325C264.864 208.33 269.867 203.328 269.872 197.157V197.146H278.561V221.236C275.909 221.311 273.825 223.525 273.906 226.179C273.981 228.833 276.193 230.919 278.844 230.838C281.496 230.763 283.58 228.549 283.499 225.895C283.435 223.654 281.828 221.756 279.632 221.321V197.146H281.035C285.658 197.146 289.408 193.393 289.408 188.766C289.408 185.855 288.995 182.959 288.186 180.166V180.161Z" fill="#5D2A9D"/>
</g>
<defs>
<clipPath id="clip0_1269_21376">
<rect width="473" height="430" fill="white"/>
</clipPath>
</defs>
</svg>
