<svg width="40" height="32" viewBox="0 0 32 32" fill="none" xmlns="http://www.w3.org/2000/svg">
<g clip-path="url(#clip0_659_16882)">
<path d="M9.9737 26.0881C9.6537 25.8824 9.22704 25.9814 9.02894 26.3014L8.64037 26.9109C8.44227 27.2309 8.5337 27.6576 8.8537 27.8557C8.96799 27.9243 9.08989 27.9624 9.21942 27.9624C9.44799 27.9624 9.66894 27.8481 9.79846 27.6424L10.187 27.0328C10.3851 26.7128 10.2937 26.2862 9.9737 26.0881Z" fill="black"/>
<path d="M33.2496 30.9562L20.4344 10.2248V0.685714C20.4344 0.304762 20.1296 0 19.7487 0C19.3677 0 19.063 0.304762 19.063 0.685714V1.76762H14.4839C14.103 1.76762 13.7982 2.07238 13.7982 2.45333V3.19238H8.48012C8.20584 3.19238 7.95441 3.36 7.84774 3.61905C7.74107 3.8781 7.80203 4.16762 7.9925 4.36571L9.88203 6.25524L7.95441 8.58667C7.78679 8.79238 7.74869 9.07429 7.86298 9.3181C7.97726 9.5619 8.22108 9.71429 8.48012 9.71429H14.4839C14.8649 9.71429 15.1696 9.40952 15.1696 9.02857V8.41905H19.063V10.3543L11.9392 21.6762L10.5677 20.4038C10.4382 20.2819 10.2782 20.2133 10.0725 20.221C9.88965 20.221 9.72203 20.3048 9.5925 20.4419L8.54869 21.5771L7.90869 20.8381L10.1182 17.2343L11.3449 19.0933C11.5582 19.4133 11.9773 19.4971 12.2973 19.2838C12.6173 19.0705 12.7011 18.6514 12.4877 18.3314L10.6668 15.581C10.5373 15.3829 10.2935 15.2762 10.0801 15.2762C9.84393 15.2762 9.6306 15.4057 9.50869 15.6038L0.0991698 30.9562C-0.030354 31.1695 -0.0379731 31.4362 0.0839317 31.6495C0.205836 31.8629 0.434408 32 0.685836 32H32.6706C32.922 32 33.1506 31.8629 33.2725 31.6495C33.3944 31.4362 33.3868 31.1695 33.2573 30.9562H33.2496ZM13.7982 8.33524H9.93536L11.3373 6.64381C11.5658 6.36952 11.543 5.97333 11.2916 5.72191L10.1335 4.56381H13.7982V8.33524ZM19.7792 11.779L23.1773 17.28L22.0039 18.7124L20.5335 16.9067C20.4039 16.7467 20.2135 16.6552 20.0154 16.6552C19.802 16.6552 19.6192 16.739 19.4896 16.8914L17.8211 18.7886L16.3506 17.2571L19.7868 11.7867L19.7792 11.779ZM15.1696 7.04V3.14667H19.063V7.04H15.1696ZM1.9125 30.6286L7.16203 22.0571L8.01536 23.0476C8.14488 23.1924 8.32774 23.2838 8.52584 23.2838C8.71631 23.2838 8.90679 23.2076 9.04393 23.0629L10.1487 21.8667L11.2077 22.8495L10.0954 24.6171C9.89727 24.9371 9.98869 25.3638 10.3087 25.5619C10.6287 25.76 11.0554 25.6686 11.2535 25.3486L15.5963 18.4381L17.3487 20.259C17.4782 20.3962 17.6535 20.4724 17.8439 20.4724H17.8592C18.0496 20.4724 18.2325 20.381 18.362 20.2362L19.9925 18.3848L21.4858 20.2133C21.6154 20.3733 21.8135 20.4648 22.0192 20.4648C22.2401 20.4571 22.423 20.3733 22.5525 20.2133L23.962 18.499L31.4515 30.621H1.9125V30.6286Z" fill="black"/>
</g>
<defs>
<clipPath id="clip0_659_16882">
<rect width="40" height="32" fill="black"/>
</clipPath>
</defs>
</svg>
