<svg width="476" height="205" viewBox="0 0 476 205" fill="none" xmlns="http://www.w3.org/2000/svg">
<g clip-path="url(#clip0_1828_5540)">
<mask id="mask0_1828_5540" style="mask-type:luminance" maskUnits="userSpaceOnUse" x="0" y="0" width="476" height="205">
<path d="M476 0H0V205H476V0Z" fill="white"/>
</mask>
<g mask="url(#mask0_1828_5540)">
<path d="M356.09 159.87C359.67 203.23 315.43 236.78 275.8 241.51C257 243.26 241.4 228.34 222.76 236.45C220.73 237.33 218.66 238.12 216.51 238.63C167.51 250.12 123.47 212.09 75.2804 211.55C47.6004 214.26 32.6304 195.27 34.0604 171.07C34.6504 161.06 32.4304 151.08 27.5004 142.34C17.8504 125.24 4.41038 107.96 9.79038 90.7503C20.5104 56.4503 48.6004 48.3303 105.68 48.3303C143.56 48.3303 167.16 12.2603 210.75 12.2603C270.51 12.2603 273.73 66.8503 294.1 107.01C298.61 115.91 306.3 122.81 315.67 126.23C333.82 132.85 354.77 136.81 356.09 159.88V159.87Z" fill="#E1CBF1"/>
<path d="M260.361 136.77C260.381 136.85 260.401 136.92 260.431 137C260.381 136.96 260.321 136.93 260.271 136.89C260.251 136.85 260.231 136.82 260.221 136.78C260.241 136.67 260.241 136.56 260.241 136.44C260.251 136.44 260.261 136.44 260.281 136.44C260.311 136.55 260.331 136.66 260.361 136.77Z" fill="#E1CBF1"/>
<path d="M309.35 57.2103C317.98 55.7103 319.47 61.9703 317.59 66.4803C314.77 73.2303 310.09 77.6203 305.67 81.4203C290.93 94.0803 269.94 95.2003 252.33 112.74C247.81 117.24 243.37 117.34 254.48 121.64C279 114.39 277.04 132.24 275.7 134.68C277.49 138.69 284.43 150.21 263.19 163.99C265.87 171.96 269.39 180.96 253.95 187.03C256.53 207.1 228.06 202.77 223.49 202.65C198.26 227.99 179.71 221.22 159.17 228.69C138.63 236.16 113.3 255.78 94.7103 273.42C66.3703 300.32 68.2503 306.01 40.8603 285.04C24.8103 272.75 2.49026 241.4 14.1603 221.72C43.4703 210.02 75.1603 199.34 99.0003 176.56C100.83 174.81 133.23 163.86 158.48 137.99C178.16 117.83 207.62 97.2803 247.66 79.6703C267.68 70.8703 295.47 59.6303 309.35 57.2203V57.2103Z" fill="white"/>
<path d="M223.201 174.9C222.641 174.9 213.281 174.6 211.861 173.95C211.081 173.56 207.491 169.92 211.141 169.08C214.321 167.71 218.051 166.78 221.481 168.04C227.261 170.16 224.321 174.93 223.211 174.9H223.201Z" fill="#E1CBF1"/>
<path d="M148.35 50.7305C151.05 51.9705 143.03 59.4705 142.21 62.3305C141.48 69.3205 146.54 66.6805 149.59 64.0005C152.91 61.0905 163.57 59.0305 162.1 58.5805C155.51 73.3405 154.83 78.7705 148.9 92.6605L118.35 55.6105L148.35 50.7305Z" fill="#FFE496"/>
<path d="M223.43 175.34C223.23 175.34 223.03 175.27 222.86 175.16C222.73 175.07 222.62 174.95 222.55 174.82C221.78 174.54 222.07 173.51 221.98 172.88C221.98 172.15 221.98 171.43 222.08 170.72C222.1 170.5 222.15 170.28 222.28 170.1C222.25 169.39 222.89 168.86 223.53 169.3C224.01 169.72 224.04 170.44 224.23 171.01C224.39 170.89 224.61 170.83 224.83 170.88C226.11 171.28 224.67 173.04 224.99 173.96C224.96 174.44 224.73 175 224.24 175.15C223.95 175.18 223.71 175.33 223.42 175.35L223.43 175.34Z" fill="#A37AD4"/>
<path d="M110.87 137.68C108.44 136.37 106.4 132.9 103.67 132.63C96.1098 124.08 104.86 143.72 98.3398 140.58C94.2498 141.13 96.3698 135.51 94.2098 133.86C90.5298 133.5 83.6298 126.66 81.4898 126.95C80.6298 127.07 80.5798 130.19 81.7398 132.49C88.5798 146.03 76.0598 160.71 86.0798 176.13C86.8998 177.39 88.4198 176.72 88.9098 175.31C91.9098 166.47 96.4498 141.83 94.9298 141.44C96.2198 141.77 100.37 142.57 101.38 144.87C104.2 151.36 103.42 163.66 108.46 162.68C113.5 161.7 114.2 141.83 110.88 137.67L110.87 137.68Z" fill="#A37AD4"/>
<path d="M166.651 80.2202C165.831 77.8302 163.991 74.7402 165.351 72.2102C167.491 68.2502 163.941 57.0102 156.961 57.4402C157.901 59.2202 152.371 58.5802 147.761 72.0602C144.751 80.8602 150.051 79.0402 153.681 81.0002C153.541 81.6902 151.811 83.0102 152.431 83.1302C160.261 84.7002 166.901 81.6902 166.641 80.2102L166.651 80.2202Z" fill="#A37AD4"/>
<path d="M254.85 69.7002C249.54 68.1402 255.57 57.6402 252.31 57.2502C251.61 56.3302 252.94 54.6902 253.99 53.7302C254.8 52.9902 253.54 43.8602 261.64 51.8802C263.92 54.7602 257.27 70.7402 254.85 69.7002Z" fill="#A37AD4"/>
<path d="M253.49 21.2104C253.67 21.6204 253.34 22.1304 253.01 22.4204C252.41 22.8804 251.93 23.4804 251.38 24.0104C251.26 24.1504 251.1 24.2704 250.9 24.2704C250.83 24.2704 250.77 24.2704 250.71 24.2404C250.48 24.5304 250.25 24.8204 250.02 25.1004C248.5 27.0604 246.7 28.7704 245.01 30.5704C242.05 33.6104 238.8 36.3604 236.05 39.6004C233.46 42.5904 230.84 45.5604 228.1 48.4104C227.56 48.9904 227.04 49.5804 226.59 50.2304C226.53 50.6204 226.08 50.6604 225.87 50.4404C225.74 50.4204 225.6 50.3604 225.47 50.2504C223.45 48.5104 221.4 46.9204 219.27 45.3404C216.15 43.2904 212.97 41.3204 209.85 39.2504C208.31 38.2204 206.89 37.0204 205.39 35.9404C205.29 36.0004 205.18 36.0404 205.05 36.0404C204.61 36.0604 204.38 35.7104 204.33 35.3404C204.25 35.2904 204.16 35.2304 204.08 35.1704C203.94 35.0604 203.96 34.8304 204.08 34.7204C204.19 34.6304 204.32 34.6404 204.46 34.6604C204.68 34.2404 205.04 33.8904 205.36 33.5404C205.93 33.0304 206.57 31.4804 207.47 31.7404C209.08 30.3304 210.61 28.8304 212.22 27.4204C211.73 26.6404 212.75 26.0904 213.23 25.6304C213.93 24.9604 214.54 24.2104 215.21 23.5104C218.89 19.4904 223.11 16.0204 226.69 11.9104C230.13 8.77044 233.3 5.33044 236.88 2.34044C238.31 0.870445 239.25 0.280445 240.43 2.42044C241.32 3.75044 242.19 5.09045 242.95 6.50044C243.52 6.67044 243.67 7.35044 244.1 7.72044C245.04 8.62044 246 9.67044 246.7 10.7504C249.26 13.8904 251.22 17.4404 253.35 20.8604C253.43 20.9804 253.47 21.1104 253.47 21.2304L253.49 21.2104Z" fill="#5D2B9D"/>
<path d="M92.0103 97.5802C91.7303 97.5402 91.4603 97.3802 91.2703 97.1702C90.9003 97.0802 90.6303 96.7502 90.3703 96.4902C90.0903 96.4002 89.8803 96.1902 89.6903 95.9702C88.5903 94.5302 87.8403 92.6902 87.8103 90.8702C84.6503 91.3102 83.2503 85.9102 86.0803 84.6202C86.4103 83.5802 87.6303 82.8002 88.6503 83.4302C89.0503 83.4302 89.5003 83.5002 89.8303 83.7402C89.9803 83.8802 90.1703 83.9902 90.3203 84.1202C90.7603 84.5002 91.2503 84.9502 91.3403 85.5502C91.4203 85.6902 91.5003 85.8502 91.5303 86.0102C91.5803 85.9502 91.6403 85.8902 91.7103 85.8502C91.8303 85.7702 91.9603 85.7402 92.1003 85.7402C92.3003 85.4202 92.7103 85.4102 93.0403 85.3002C93.8003 84.9802 94.6103 85.0602 95.3503 85.4002C95.9803 84.4002 97.9003 85.5802 98.6303 86.0202C99.0103 86.2802 99.5303 86.3702 99.8103 86.7502C100.12 86.9202 100.48 87.1502 100.48 87.5502C100.5 88.0602 99.9703 88.4302 99.4903 88.2702C99.0803 88.5002 98.6503 88.7102 98.2203 88.9002C98.0603 89.4302 97.8703 89.9802 97.6503 90.4702C97.5603 90.6902 97.4203 90.9002 97.2003 91.0202C97.2803 91.6802 97.4903 92.3602 97.4103 93.0302C97.2703 93.7002 96.2503 93.7002 96.1103 93.0302C95.9803 92.9502 95.8603 92.7502 95.8003 92.6402C95.5403 91.9902 94.7603 92.0602 94.1803 92.1002C93.8203 92.6202 93.3803 93.0802 92.9703 93.5702C93.0803 94.3502 93.2803 95.1802 93.0803 95.9602C93.1903 96.6802 92.8903 97.6902 91.9903 97.5902L92.0103 97.5802Z" fill="#5D2B9D"/>
<path d="M160.15 44.2002C163.95 45.7802 159.48 48.1302 160.76 50.4202C157.89 50.5002 159.32 50.7602 159.54 53.7902C159.77 57.0402 158.02 56.9002 157.05 57.6902C156.27 58.3302 156.18 59.2902 156.49 61.3002C156.26 64.0602 152.37 63.3302 148.77 64.3102C147.31 64.7102 145.54 67.6702 144.3 66.8002C140.89 64.3902 145 58.4902 149.32 51.9702C150.55 50.1102 152.87 45.8302 155.61 43.9602C157.28 42.8202 158.81 43.5302 160.15 44.2102V44.2002Z" fill="#5D2B9D"/>
<path d="M91.871 98.8404C90.181 98.8704 84.871 96.7504 83.771 97.5904C75.371 75.6204 37.021 90.9204 52.711 114.8C59.151 124.6 71.691 124.18 79.221 118.03C84.321 118.58 92.791 119.24 90.491 112.47C88.321 114.02 86.361 115.01 81.941 115.27C84.931 111.48 86.311 106.41 84.681 100.6C84.611 100.31 84.531 100.02 84.461 99.7404C84.531 99.8304 84.591 99.9104 84.671 100C86.451 100.16 93.381 101.99 91.871 98.8504V98.8404Z" fill="#A37AD4"/>
<path d="M161.241 73.5103C160.871 73.1803 160.961 72.6603 161.041 72.2303C161.171 71.5403 161.251 70.8403 161.261 70.1403C161.241 69.2103 161.081 68.2903 160.901 67.3803C160.851 67.0503 160.721 66.6803 160.901 66.3703C160.371 65.4003 159.981 64.2703 159.331 63.3803C158.951 62.8203 158.421 62.4003 157.961 61.9203C157.651 61.5903 157.361 61.2503 157.001 60.9703C156.851 60.9403 156.791 60.7703 156.661 60.7003C156.431 60.4903 156.421 60.1003 156.631 59.8803C156.651 59.4403 156.361 59.0003 156.541 58.5803C156.461 58.2503 156.821 57.9503 157.131 58.1003C157.831 57.9603 158.411 59.1503 158.841 59.5903C159.641 60.6303 160.451 61.6803 161.051 62.8403C161.721 63.5903 162.111 64.6403 162.561 65.5403C163.011 66.5403 163.051 67.6503 163.211 68.7203C163.391 69.9203 163.901 71.1103 163.821 72.3403C163.731 72.8103 163.161 73.0803 162.751 72.8403C162.481 73.3803 161.861 74.0703 161.251 73.5203L161.241 73.5103Z" fill="#FDC82E"/>
<path d="M259.2 33.1001C260.03 33.9201 262.94 38.0701 262.67 38.2901C261.26 39.4301 244 30.3701 248.36 27.9801C250.86 26.4401 257.45 30.6001 259.2 33.1001Z" fill="#5D2B9D"/>
<path d="M235.771 42.3103C235.841 42.4303 235.861 42.5603 235.811 42.7103C235.741 42.9603 235.531 43.1303 235.331 43.2703C235.041 43.4903 234.711 43.6803 234.491 43.9803C234.441 44.0603 234.391 44.1403 234.341 44.2303C234.321 44.2903 234.291 44.3403 234.251 44.3803C234.141 44.4903 233.961 44.5203 233.821 44.4403C233.621 44.3303 233.591 44.0703 233.721 43.9103C233.721 43.9103 233.721 43.9303 233.711 43.9303C233.841 43.6503 234.001 43.3803 234.181 43.1203C234.281 42.9603 234.391 42.8103 234.511 42.6603C234.531 42.6403 234.551 42.6103 234.561 42.5903C234.681 42.4103 234.781 42.1903 234.981 42.0803C235.261 41.8903 235.631 42.0403 235.771 42.3103Z" fill="#5D2B9D"/>
<path d="M253.911 41.8603C254.291 42.1303 254.681 42.5703 254.481 43.0603C254.431 43.1703 254.371 43.2703 254.281 43.3403C254.171 43.4003 254.061 43.4603 253.951 43.5203C253.441 43.6403 252.791 43.8603 252.351 44.0003C251.191 44.4003 250.041 44.8403 248.881 45.2103C247.791 45.4203 246.681 45.5703 245.581 45.6703C243.651 45.8303 241.691 46.1803 239.751 45.9003C239.351 45.8503 238.951 45.7903 238.561 45.7203C237.231 45.3203 236.001 44.6003 234.601 44.4203C234.481 44.4003 234.361 44.3803 234.251 44.3703C234.181 44.3603 234.121 44.3503 234.051 44.3403C233.811 44.3203 233.781 43.9503 234.021 43.9003C234.081 43.8803 234.141 43.8603 234.201 43.8703C234.071 43.6103 234.081 43.3503 234.181 43.1103C234.251 42.9403 234.361 42.7803 234.511 42.6503C234.741 42.4403 235.031 42.3003 235.321 42.2803C235.471 42.2803 235.621 42.2803 235.771 42.3003C236.871 42.3703 237.971 42.6303 239.091 42.6803C241.271 43.0403 243.471 42.9803 245.661 42.7903C246.271 42.7503 246.841 42.5203 247.431 42.4203C248.411 42.3503 249.371 42.1103 250.251 41.6803C251.041 41.3903 251.841 41.3303 252.631 41.0903C253.171 41.0903 253.511 41.5803 253.911 41.8503V41.8603Z" fill="#5D2B9D"/>
<path d="M183.851 94.5604C185.021 98.5304 183.911 102.63 182.931 106.51C182.711 108.42 182.751 110.39 182.141 112.23C182.021 112.52 181.811 112.79 181.521 112.92C181.001 113.03 180.481 113.1 179.971 113.28C179.461 113.37 178.881 113.76 178.471 113.25C178.341 113.1 178.271 112.9 178.281 112.7C178.161 112.07 178.051 111.44 177.911 110.81C177.401 108.52 176.661 106.28 176.161 103.98C175.771 102.54 175.701 100.98 175.041 99.6204C174.091 98.1004 172.621 96.8704 170.991 96.1404C169.601 95.5404 168.141 95.3404 166.701 95.0004C166.631 98.1704 166.671 101.34 166.961 104.5C167.131 106.16 167.411 107.81 167.511 109.48C167.551 111.36 167.321 113.24 167.141 115.11C166.881 117.1 166.821 119.1 166.841 121.1C166.691 123.17 167.211 127.38 164.291 127.54C162.981 127.6 161.471 127.43 160.571 126.36C159.131 124.42 158.981 121.89 158.621 119.58C158.181 116.12 158.031 112.64 157.931 109.15C157.741 105.84 157.231 102.51 156.351 99.3104C155.481 96.3304 153.611 93.7704 152.621 90.8504C152.231 89.7304 152.121 88.5504 152.051 87.3704C151.861 86.2404 152.011 85.0504 152.261 83.9504C152.331 83.7804 152.481 83.6404 152.681 83.6004C152.771 83.5804 152.861 83.6004 152.951 83.6204C153.021 82.8404 153.911 82.7704 154.451 83.1404C155.341 83.3804 156.161 83.4404 157.051 83.5804C158.391 83.7004 159.751 83.5304 161.061 83.2504C162.461 82.9104 163.741 82.2504 165.031 81.6604C167.711 80.3104 166.891 82.1204 168.551 83.3304C170.051 84.3204 171.351 85.5504 172.721 86.7104C174.131 87.8804 175.761 88.7204 177.341 89.6404C178.581 90.3404 179.781 91.0904 181.031 91.7604C182.221 92.3904 183.531 93.1404 183.851 94.5504V94.5604Z" fill="#5D2B9D"/>
<path d="M99.091 104.92C100.191 112.4 101.191 122.27 100.141 129.3C92.821 127.59 95.481 130.21 94.211 133.87C94.211 133.87 85.311 131.1 82.001 126.13C80.991 124.62 81.141 119.83 81.401 118.74C81.621 117.81 93.981 119.56 90.501 112.46C90.501 112.46 86.191 115.74 81.681 115.29C81.681 115.29 83.251 110.15 84.611 106.35C86.691 100.52 96.971 94.7503 99.101 104.92H99.091Z" fill="#FDC82E"/>
<path d="M272.34 47.9103C272.51 48.1703 272.78 48.3703 272.82 48.6703C273.02 50.2403 271.1 50.6803 271.03 50.6403C269.29 52.1003 258.51 45.4403 256.55 43.8903C255.63 50.4903 252.97 55.3003 248.81 60.0403C248.4 61.7603 243.72 58.1503 243.47 57.3603C241.07 55.6003 233.1 51.2703 236.29 45.7603C242.14 45.7103 249.67 46.5003 255.2 42.7703C254.34 42.1303 253.47 41.5003 252.7 40.7503C245.52 43.6103 238.19 42.7503 238 42.4303C237.14 40.9603 241.45 35.8903 244.24 33.3203C247.03 30.7503 248.34 28.5103 252.29 30.8903C258.07 33.8503 259.9 36.3203 265.41 41.9903C267.22 43.8503 271.63 46.8303 272.33 47.9003L272.34 47.9103Z" fill="#FDC82E"/>
<path d="M246.2 59.8502C245.32 61.7002 244.34 68.7202 244.37 70.9102C243.42 75.0602 227.12 89.9202 224.3 86.2202C224.11 85.9702 224.39 85.2302 224.54 84.8802C227.69 77.6102 232.62 74.5902 235.1 68.5102C237.27 61.5702 234.24 53.9602 236.26 52.0202C236.79 51.5202 239.81 54.7402 246.19 59.8502H246.2Z" fill="#A37AD4"/>
<path d="M161.16 127.55C161.16 127.55 161.04 132.11 162.72 131.99C164.4 131.87 167.1 130.4 167.45 130.06C167.8 129.72 169.84 127.87 169.84 127.87C169.84 127.87 169.65 126.31 168.16 127.32C166.67 128.33 165.06 129.31 164.29 127.54C163.93 126.7 161.16 127.54 161.16 127.54V127.55Z" fill="#FDC82E"/>
<path d="M178.891 113.76C178.891 113.76 178.441 116.63 179.291 116.63C180.141 116.63 184.351 116.03 185.191 115.22C186.031 114.41 187.421 112.19 185.521 112.94C183.621 113.69 182.221 114.7 181.901 113.23L178.891 113.77V113.76Z" fill="#FDC82E"/>
<path d="M265.11 21.2704C265.45 21.9004 266.4 22.7204 265.66 23.3804C265.28 23.6804 264.74 23.5204 264.51 23.1204C263.46 22.9204 262.4 22.5604 261.31 22.6504C261.05 23.4304 260.52 24.0804 259.69 24.2904C259.88 25.5004 258.85 26.7504 258.2 25.1304C258 25.2004 257.77 25.1804 257.57 25.1004C257.57 25.1004 257.57 25.1004 257.56 25.1004C258.21 28.5704 253.75 29.0604 254.76 26.3504C254.76 26.1104 254.79 25.8604 254.86 25.6304C252.07 18.8904 261.55 15.7704 265.11 21.2704Z" fill="#FFE496"/>
<path d="M266.211 28.1504C264.991 26.7704 266.621 24.5804 265.411 23.6404C264.841 23.1904 260.831 21.5304 260.981 23.5704C259.571 23.7904 259.261 24.7504 259.581 26.1304C259.311 26.3004 259.111 26.1304 258.831 26.1504C257.071 23.3304 258.061 27.4504 257.041 28.0504C254.951 27.3504 252.081 28.0504 254.511 29.2104C255.851 29.5304 256.301 30.6604 257.371 31.2504C258.161 31.3904 258.311 30.4104 258.521 29.8604C259.031 31.6104 261.701 32.1204 263.441 32.0204C264.451 31.6004 264.311 29.5804 265.161 28.9404C265.681 29.2204 266.421 28.8004 266.221 28.1604L266.211 28.1504Z" fill="#9E616A"/>
<path d="M279.51 54.2203C278.89 54.0003 278.41 53.8103 277.82 53.6003C277.58 53.7303 277.21 53.5703 277.01 53.4903C275.96 53.1003 274.91 52.7003 273.92 52.1703C273.45 51.9903 272.96 51.8503 272.46 51.7203C272.23 51.6603 272 51.5903 271.85 51.3903C271.71 51.2103 271.71 50.9303 271.83 50.7403C271.95 50.5603 272.17 50.4903 272.28 50.2903C272.41 50.1203 272.51 49.9503 272.59 49.7603C272.72 49.5603 272.97 49.4403 273.21 49.4903C273.59 49.5403 273.9 49.7803 274.25 49.9403C274.98 50.1703 275.84 50.3803 276.3 51.0403C276.59 51.1403 276.87 51.2303 277.16 51.3303C277.72 51.1903 278.29 51.2603 278.86 51.3003C280.02 51.4003 281.35 51.4203 282.25 52.2503C283.13 52.7303 282.4 53.9903 281.54 53.4803C281.54 53.4803 281.54 53.4803 281.55 53.4803C281.57 53.4903 281.6 53.5003 281.62 53.5203C281.51 53.4503 281.39 53.4303 281.28 53.3703C281.04 53.2503 280.89 53.0303 280.62 52.9603C280.56 53.0603 280.47 53.1503 280.36 53.2103C280.64 53.7403 280.08 54.4203 279.5 54.2103L279.51 54.2203Z" fill="#9E616A"/>
<path d="M161.72 60.3302C160.13 59.9102 153.95 56.7002 158.92 56.8902C160.12 56.9402 159.81 53.8802 159.81 53.8802C157.89 51.7602 157.91 49.7302 160.88 50.3502C159.45 47.9802 160.85 46.5902 162.19 45.7202C162.19 45.7202 165.34 47.3402 166.34 48.1102C166.82 48.4802 166.44 49.8802 166.85 50.6802C168.5 53.8902 163.07 54.7402 162.95 55.6102C162.77 56.8802 163.84 61.0502 161.72 60.3402V60.3302Z" fill="#DCA567"/>
<path d="M161.83 79.4901C161.28 79.2501 161.33 78.5801 161.57 78.1301C161.13 77.5801 161.36 76.8301 161.06 76.2501C160.01 76.0601 160.31 74.2401 161.38 74.4701C161.39 74.4601 161.4 74.4501 161.41 74.4401C161.56 73.6901 162.22 72.9001 163.06 73.1201C163.65 72.9101 164.2 73.2501 164.7 73.5101C165.34 73.7001 165.47 74.4701 165.7 75.0101C165.87 75.5801 166.33 76.3401 165.78 76.8301C165.66 77.4201 165.47 78.0501 164.93 78.4001C164.25 78.8801 163.47 79.2401 162.65 79.3701C162.42 79.5501 162.09 79.6301 161.82 79.5001L161.83 79.4901Z" fill="#DCA567"/>
<path d="M96.7206 98.7004C96.5006 99.6404 89.7006 102.41 93.2706 94.9904C92.8606 91.5304 95.2606 91.3504 96.1806 92.4704C96.7206 93.1304 97.4206 94.4404 97.2206 91.7504C97.8706 88.6704 99.4906 87.5904 100.481 88.3004C101.051 88.7104 101.681 91.3104 101.971 91.0804C103.401 89.9804 103.771 92.7004 103.261 93.3004C102.231 94.5404 102.411 95.1204 102.561 95.8304C102.561 95.8304 100.961 101.2 96.7206 98.6804V98.7004Z" fill="#FFCBAE"/>
<path d="M100.761 136.32C98.6013 129.57 101.081 128.15 93.2812 129.08C95.1812 132.23 94.5912 141.73 98.3412 140.59C98.5412 140.53 98.9213 139.95 99.1513 140.91C101.041 140.88 101.031 137.71 100.761 136.33V136.32Z" fill="#FFCBAE"/>
<path d="M79.1909 142.37C78.9609 141.39 79.4609 140.42 79.6009 139.44C79.1509 140.29 78.3609 142.46 77.3409 142.62C76.5209 142.52 76.9109 141.59 77.1109 141.11C77.2509 140.69 77.4009 140.27 77.5609 139.85C77.0309 140.45 77.0009 141.33 76.4609 141.91C76.1609 142.14 75.6709 141.85 75.7609 141.47C76.2309 140.2 76.5909 138.89 77.2709 137.71C77.8209 136.53 78.3509 135.35 78.9809 134.21C79.3909 133.29 79.7709 133 80.7009 133.59C81.2509 133.59 81.5909 134.13 81.9709 134.45C82.2009 134.62 82.4609 134.78 82.5709 135.05C82.9509 135.42 83.2509 136.05 82.7909 136.48C82.9909 137.53 82.9409 138.62 82.6709 139.65C82.5409 140.07 82.5209 140.64 81.9909 140.74C81.6509 140.82 81.2509 140.61 81.1609 140.26C81.0409 140.77 80.8909 141.27 80.6309 141.73C80.5109 142.03 80.4309 142.37 80.1809 142.59C79.8909 142.86 79.3409 142.77 79.2209 142.36L79.1909 142.37Z" fill="#FFCBAE"/>
<path d="M80.6397 130.7L79.4297 133.16L81.9597 134.45L80.6397 130.7Z" fill="#FDC82E"/>
<path d="M87.1895 177.06C87.7795 180.57 90.8895 183.77 92.6195 181.41C92.8895 181.04 96.0695 179.13 92.2195 179.43C87.1995 179.51 90.6994 175.24 87.1994 177.06H87.1895Z" fill="#5D2B9D"/>
<path d="M107.4 163.06C107.68 164.38 108.51 166.96 109.22 168.1C110.13 167.64 114.64 167.05 112.79 165.52C108.9 166.41 110.44 162.2 107.4 163.07V163.06Z" fill="#5D2B9D"/>
<path d="M224.091 86.6002C224.091 86.6002 222.411 89.1902 224.841 89.8602C227.271 90.5302 230.211 88.0102 230.211 88.0102C230.211 88.0102 228.271 87.8502 227.431 87.3802C226.591 86.9102 225.371 86.4702 225.371 86.4702L224.091 86.6002Z" fill="#5D2B9D"/>
<path d="M253.811 69.5703L253.381 72.8803C253.381 72.8803 253.591 73.7603 255.441 74.1103C257.291 74.4603 258.081 74.6203 258.941 74.4003C259.801 74.1803 260.701 72.8803 259.181 72.5303C257.661 72.1803 255.661 72.0903 255.741 69.7503L253.821 69.5703H253.811Z" fill="#5D2B9D"/>
<path d="M66.3997 301.02C66.1897 300.83 66.1697 300.51 66.3597 300.3C67.5097 298.97 68.6297 297.63 69.7497 296.28C71.9397 293.55 74.5297 291.2 77.0897 288.82C79.7597 286.3 82.4497 283.8 85.1197 281.28C87.1497 279.37 89.1597 277.45 91.1797 275.53C94.4097 272.46 97.6497 269.39 100.92 266.36C105.01 262.85 109.25 259.5 113.53 256.21C117.95 252.96 122.53 249.92 126.98 246.7C130.65 244.13 134.46 241.78 138.19 239.32C143.56 236.04 148.87 232.61 154.67 230.12C156.3 229.4 157.92 228.66 159.57 228C162.88 226.74 166.35 225.9 169.84 225.29C173.01 224.72 176.24 224.46 179.44 224.11C182.81 223.52 186.19 222.92 189.5 222.1C193.23 221.24 196.74 219.74 200.2 218.12C207.17 215.01 213.39 210.74 219.26 205.94C220.38 204.98 221.55 204.06 222.64 203.07C222.68 203.03 222.73 202.99 222.77 202.94C221.23 202.49 219.85 201.7 218.21 200.31C216.4 198.79 214.99 196.86 213.76 194.86C212.49 192.89 211.25 190.9 210.19 188.81C209.12 186.51 207.28 183.17 208.23 180.6C207.84 180.21 207.49 179.79 207.21 179.32C207.17 179.26 207.12 179.2 207.08 179.14C207.04 179.09 207.03 179.03 207.02 178.98C206.97 178.87 206.91 178.76 206.87 178.64C206.83 178.5 206.79 178.35 206.76 178.2C206.67 178.31 206.58 178.41 206.49 178.51C206.25 178.77 205.99 179.01 205.74 179.25C205.37 179.58 205 179.91 204.63 180.24C204.06 180.74 203.5 181.24 202.94 181.74C202.94 181.74 202.93 181.74 202.93 181.75C202.81 181.87 202.68 181.98 202.55 182.1C201.65 182.92 200.74 183.74 199.82 184.55C198.94 185.32 198.03 186.06 197.13 186.81C196.22 187.56 195.29 188.28 194.33 188.96C192.51 190.24 190.61 191.42 188.66 192.48C186.65 193.57 184.57 194.54 182.44 195.38C180.46 196.15 178.43 196.8 176.36 197.31C175.37 197.55 174.37 197.76 173.36 197.93C172.2 198.13 171.03 198.28 169.85 198.37C167.57 198.56 165.27 198.55 163 198.31C160.76 198.08 158.53 197.64 156.38 196.95C155.24 196.59 154.12 196.15 153.04 195.65C151.93 195.14 150.85 194.55 149.79 193.93C148.98 193.45 148.19 192.93 147.43 192.38C147.14 192.17 146.86 191.94 146.58 191.72C146.39 191.56 146.19 191.41 146 191.26C145.96 191.23 145.92 191.2 145.89 191.16C145.65 191.02 145.57 190.67 145.76 190.44C145.76 190.39 145.78 190.34 145.82 190.29C145.93 190.15 146.14 190.14 146.27 190.26C146.27 190.26 146.28 190.26 146.28 190.27C146.3 190.29 146.32 190.31 146.35 190.32C146.38 190.34 146.41 190.36 146.44 190.38C146.45 190.39 146.47 190.4 146.49 190.42C146.54 190.42 146.58 190.42 146.63 190.44C146.71 190.46 146.77 190.51 146.83 190.56C146.99 190.7 147.16 190.82 147.34 190.94C147.62 191.14 147.9 191.34 148.18 191.54L148.2 191.56C148.43 191.71 148.66 191.86 148.89 192.01C149.44 192.35 149.99 192.67 150.56 192.98C150.58 192.98 150.59 193 150.61 193.01C150.71 193.07 150.81 193.12 150.92 193.17C151.02 193.22 151.12 193.27 151.22 193.32C151.25 193.34 151.28 193.35 151.31 193.37C151.34 193.39 151.37 193.4 151.4 193.41C151.5 193.46 151.61 193.51 151.72 193.56C152.46 193.92 153.19 194.23 153.91 194.52L153.98 194.55C155.43 195.12 156.91 195.6 158.38 195.97L158.45 195.99H158.46C159.89 196.35 161.33 196.61 162.79 196.78C164.31 196.95 165.83 197.02 167.31 196.99C169.01 196.96 170.7 196.81 172.38 196.56C174.26 196.27 176.12 195.85 177.95 195.32C180.07 194.69 182.15 193.93 184.14 193.04C186.12 192.16 188.05 191.16 189.93 190.06C190.42 189.77 190.91 189.48 191.31 189.23C192.25 188.65 193.16 188.05 194.08 187.44C195.08 186.78 196.06 186.11 197.04 185.41C197.46 185.11 197.87 184.79 198.28 184.47C198.73 184.12 199.17 183.77 199.6 183.43C200.52 182.68 201.42 181.89 202.28 181.07C202.72 180.66 203.14 180.24 203.57 179.82C203.7 179.69 203.83 179.56 203.97 179.43C204.46 178.91 204.94 178.39 205.44 177.88C205.62 177.7 205.81 177.53 206 177.36C206.09 177.28 206.19 177.2 206.29 177.12C206.37 177.06 206.46 177.01 206.54 176.95C206.57 176.93 206.6 176.91 206.63 176.89C206.65 176.87 206.67 176.85 206.69 176.84C206.78 174.91 207.81 172.84 209.73 172.55C209.01 171.53 208.65 170.25 208.64 169C208.59 168.83 208.89 167.41 208.92 167.3C208.92 167.29 208.92 167.28 208.93 167.27C209.28 166.34 210.35 164.87 211.57 164.04C212.09 163.65 212.65 163.29 213.18 162.96C213.38 162.86 213.58 162.75 213.78 162.65C213.95 162.54 214.12 162.42 214.29 162.31C217.25 160.41 220.56 159.1 223.97 158.24C227.43 157.23 230.93 156.39 234.49 155.85C239.13 155.06 243.77 154.28 248.36 153.31C251.55 152.55 254.67 151.28 257.74 150.18C259.65 149.41 261.57 148.66 263.42 147.75C265.53 146.56 267.61 145.19 269.45 143.64C271.1 142.1 272.51 140.27 273.41 138.19C274.13 136.75 274.82 135.29 275.18 133.72C276.01 130.1 274.95 126.33 272.96 123.27C271.79 121.92 270.07 121.08 268.3 120.78C268.2 120.74 268.1 120.71 268 120.68C267.84 120.63 267.68 120.58 267.52 120.57C267.3 120.57 267.08 120.6 266.86 120.63C264.11 120.38 261.47 120.82 258.8 121.41C255.87 121.93 253 122.6 250.17 123.52C246.99 124.7 243.8 125.79 240.57 126.76C240.54 126.76 240.51 126.76 240.47 126.78C240.4 126.8 240.32 126.82 240.25 126.85C240.21 126.87 240.16 126.89 240.12 126.91C240.07 126.92 240.02 126.94 239.97 126.95C239.97 126.95 239.92 126.96 239.89 126.97C239.89 126.97 239.83 126.99 239.8 126.99C239.8 126.99 239.76 127 239.73 127.01C239.66 127.02 239.6 127.04 239.54 127.06C239.52 127.06 239.5 127.07 239.48 127.08C237.1 127.78 234.71 128.41 232.29 128.95C228.9 129.8 225.58 130.62 222.13 131.11C220.39 131.31 218.65 131.49 216.9 131.63C216.83 131.65 216.75 131.66 216.67 131.65C214.98 131.78 213.29 131.86 211.6 131.89C207.03 131.98 202.46 131.53 197.89 131.43C195.39 131.4 192.9 131.29 190.4 131.19C189.6 131.16 188.81 131.13 188.01 131.08C187.23 131.08 186.48 131.24 185.71 131.25C185.67 131.27 185.6 131.27 185.57 131.23C185.53 131.18 185.55 131.1 185.61 131.07C188.08 130.15 190.73 130.16 193.33 130.2C195.9 130.24 198.53 130.39 201.08 130.48C203.46 130.65 205.89 130.76 208.26 130.85C210.76 130.85 213.26 130.77 215.76 130.64C215.2 129.53 214.77 127.83 214.5 127.12C213.98 125.47 213.6 123.78 213.5 122.05C213.4 120.89 213.52 119.7 213.37 118.56C213.44 118.31 213.77 118.39 213.79 118.63C214.14 120.63 214.56 122.65 215.03 124.62C215.38 126.06 215.67 127.46 216.2 128.85C216.41 129.34 216.61 129.84 216.87 130.31C216.91 130.4 216.97 130.48 217.03 130.57C217.48 130.54 217.93 130.51 218.38 130.48C218.38 130.24 218.67 130.08 218.87 129.94C219.44 129.46 219.95 128.92 220.5 128.42C222.38 126.63 224.18 124.75 225.89 122.79C226.65 121.92 227.52 121.1 228.09 120.09C228.36 119.76 228.93 120.03 228.85 120.45C228.57 121.02 228.17 121.55 227.83 122.09C225.64 125.14 223.31 128.24 220.09 130.28C220.05 130.3 220 130.32 219.95 130.36C223.83 130.08 227.63 129.04 231.38 128.13C234.18 127.47 236.94 126.67 239.68 125.83C239.89 125.52 240.1 125.2 240.33 124.89C241.14 123.78 242 122.7 242.85 121.63C246.51 116.81 251.03 112.72 255.89 109.12C260.16 105.95 264.47 102.82 269.01 100.05C274.59 96.7801 280.74 94.6601 286.69 92.1501C289.83 90.7401 293.03 89.5601 296 87.8201C298.7 86.2001 301.15 84.2201 303.53 82.1701C305.13 80.7801 306.8 79.4701 308.35 78.0301C309.36 77.0801 310.31 76.0801 311.31 75.1401C312.45 74.1701 313.49 73.0801 314.37 71.8701C315.58 70.1701 316.9 68.5001 317.52 66.4801C318.21 64.5201 318.53 62.2701 317.35 60.4401C316.3 58.6501 314.56 57.9201 312.59 57.5601C309.48 56.9201 306.37 57.7701 303.44 58.7501C299.83 59.9501 296.2 61.0601 292.58 62.2201C288.22 63.6801 283.73 64.7201 279.45 66.4001C275.72 67.7201 272.04 69.2001 268.37 70.6801C265.73 71.8901 263.08 73.0801 260.41 74.2301C256.8 75.7001 253.3 77.4101 249.78 79.0801C244.01 81.5601 238.5 84.5601 232.87 87.3201C228.84 89.2801 224.79 91.2001 220.76 93.1701C218.18 94.3901 215.55 95.5001 213.02 96.8201C208.28 99.1401 203.92 101.97 199.6 104.97C196.67 107.13 193.7 109.23 190.77 111.39C190.01 111.88 189.25 112.39 188.51 112.92C187.03 114.52 185.19 115.8 183.45 117.08C180.38 119.58 177.46 122.26 174.47 124.85C172.97 126.12 171.41 127.31 169.93 128.59C168.53 129.85 167.16 131.14 165.73 132.37C161.37 136.06 157.13 139.88 152.95 143.77C145.59 150.49 138.15 157.23 129.61 162.45C127.93 163.54 126.27 164.65 124.53 165.63C121.88 167.13 119.09 168.38 116.3 169.62C111.43 171.64 106.63 173.81 102.02 176.38C99.1597 178.05 96.5097 180.07 93.8297 182.02C90.6797 184.4 87.7197 187.03 84.5497 189.4C82.1497 191.14 79.6397 192.71 77.1097 194.25C72.0297 197.29 66.7397 199.96 61.3797 202.48C55.4497 205.15 49.3797 207.62 43.3797 210.11C40.6997 211.24 37.9797 212.3 35.2697 213.36C30.2497 215.53 25.2497 217.74 20.2097 219.85C18.0097 220.69 15.8797 221.69 13.6997 222.56C13.1997 222.74 12.6897 222.93 12.1797 223.1C12.0197 223.13 11.8497 223.04 11.7697 222.89C11.6797 222.7 11.7697 222.47 11.9497 222.38C13.7097 221.57 15.4697 220.77 17.2297 219.96C20.9297 218.41 24.6097 216.79 28.3097 215.23C30.1797 214.45 31.9997 213.58 33.8597 212.77C36.2597 211.74 38.5897 210.88 40.9397 209.84C47.2597 207.06 53.6497 204.46 59.9497 201.63C70.1097 196.74 80.2597 191.47 88.8397 184.08C92.7597 180.91 96.7797 177.81 101.1 175.19C105.9 172.47 110.95 170.24 116.04 168.11C119.75 166.47 123.44 164.74 126.83 162.49C128.77 161.21 130.74 160 132.68 158.72C138.47 154.62 143.93 150.06 149.17 145.28C152.87 142.05 156.37 138.6 160.07 135.37C164.89 131.22 169.71 127.09 174.76 123.23C176.24 122.02 177.72 120.83 179.22 119.65C179.9 119.04 180.54 118.39 181.24 117.79C183.57 115.8 185.92 113.81 188.35 111.94C190.03 110.75 191.68 109.56 193.29 108.3C195.82 106.5 198.32 104.66 200.86 102.87C203.45 101.19 206.03 99.4701 208.71 97.9301C210.74 96.7501 212.87 95.7601 214.97 94.7101C218.29 93.1801 221.63 91.7201 224.91 90.1101C224.72 90.0501 224.53 89.9801 224.36 89.9101C222.48 89.2801 223.11 87.4701 223.9 86.1801C223.86 85.9701 224.16 85.8601 224.27 86.0401C224.31 86.1001 224.31 86.1801 224.28 86.2401C224.23 86.4901 224.17 86.7401 224.12 86.9901C224.06 87.2701 224 87.5501 223.92 87.7801C223.88 88.0401 223.69 88.3201 223.79 88.5801C223.9 88.7901 224.17 88.9301 224.36 89.0301C224.88 89.2601 225.42 89.4701 225.97 89.5701C225.97 89.5701 225.99 89.5701 226 89.5701C227.17 89.0101 228.35 88.4701 229.53 87.9201C228.86 87.8601 228.2 87.7701 227.55 87.6201C226.89 87.5501 226.37 87.3401 226.5 86.5701C226.54 86.3901 226.81 86.3701 226.86 86.5501C226.88 86.6601 226.89 86.7801 226.94 86.8801C227.23 87.0801 227.7 86.9301 228.04 87.0701C229.1 87.1701 230.16 87.2201 231.22 87.1201C232.02 86.7401 232.82 86.3501 233.61 85.9401C239.15 83.0301 244.76 80.2401 250.5 77.7401C254.85 75.5601 259.3 73.5801 263.78 71.7401C267.55 69.9901 271.39 68.4001 275.26 66.8701C278.11 65.7901 280.96 64.7101 283.87 63.8101C286.8 62.8801 289.78 62.1101 292.69 61.1301C296.98 59.8201 301.26 58.4801 305.53 57.1001C307.6 56.5101 309.77 56.1001 311.93 56.4001C314.34 56.6801 316.64 57.2501 318.08 59.3901C319.7 61.4801 319.45 64.2901 318.58 66.6501C317.96 68.7301 316.73 70.5101 315.51 72.2901C314.54 73.7301 313.35 74.9801 312.04 76.1201C311.08 77.0301 310.21 77.9901 309.26 78.9001C307.58 80.4801 305.77 81.9201 304.04 83.4301C300.54 86.5001 296.69 89.2201 292.41 91.1101C286.3 93.8901 279.96 96.1501 273.88 98.9801C270.45 100.55 267.26 102.57 264.15 104.7C260.46 107.19 256.99 109.99 253.55 112.8C251.6 114.49 249.58 116.15 247.77 117.98C248.4 118.22 249 118.59 249.59 118.86C250.73 119.43 251.84 119.9 253.04 120.31C253.85 120.58 254.7 120.71 255.5 121C256.27 120.84 257.05 120.69 257.82 120.55C259.59 120.18 261.36 119.79 263.15 119.58C267.26 119.25 273.11 119.83 274.8 124.22C275.56 125.81 276.21 127.47 276.44 129.23C276.62 130.91 276.58 132.65 276.2 134.3C276.39 134.42 276.56 134.62 276.64 134.82C277.36 136.2 277.57 137.69 278.1 139.12C278.62 141 279.38 142.88 279.28 144.87C279.33 146.68 278.45 148.29 277.75 149.91C276.52 152.47 274.92 154.84 272.9 156.85C271.38 158.28 269.81 159.66 268.21 160.99C266.8 162.22 265.34 163.37 263.86 164.5C264.12 164.94 264.26 165.43 264.37 165.92C264.42 166.03 264.45 166.12 264.48 166.16C266.1 170.65 266.94 177.23 263.84 181.24C263.81 181.29 263.77 181.34 263.74 181.39C263.59 181.59 263.43 181.77 263.26 181.95C262.19 183.15 260.86 184.06 259.55 184.94C257.83 186.04 255.97 186.92 254.04 187.59C254.11 187.93 254.12 188.31 254.16 188.51C254.45 191.24 253.98 194.05 252.84 196.53C252.43 197.54 251.76 198.39 250.95 199.09C250.79 199.26 250.62 199.43 250.45 199.59C249.95 200.03 249.39 200.38 248.79 200.68C248.62 200.79 248.44 200.9 248.26 201C247.39 201.47 246.39 201.7 245.43 201.9C243.6 202.29 241.75 202.62 239.9 202.87C238.48 203.02 237.06 203.18 235.64 203.23C232.85 203.44 230.04 203.89 227.23 203.63C225.86 203.56 224.7 203.46 223.64 203.23C223.44 203.59 223.14 203.9 222.9 204.21C222.37 204.8 221.79 205.36 221.22 205.92C220.29 206.83 219.33 207.71 218.32 208.53C212.72 213.12 206.56 217.05 199.91 219.95C197.59 221 195.26 222.08 192.81 222.8C190.66 223.43 188.49 224 186.28 224.42C184.21 224.8 182.15 225.24 180.08 225.59C175.61 226.13 171.12 226.44 166.75 227.5C163.37 228.25 160.08 229.33 156.95 230.81C152.3 232.75 147.87 235.17 143.59 237.83C140.52 239.66 137.5 241.58 134.53 243.56C130.36 246.16 126.37 249.01 122.37 251.85C115.26 256.67 108.46 261.93 101.94 267.51C99.2097 270.05 96.4897 272.61 93.7797 275.17C87.0297 281.53 80.3097 287.92 73.5297 294.25C71.8497 295.93 70.3497 297.79 68.6997 299.51C68.1697 300.07 67.6097 300.59 67.0497 301.11C66.9797 301.17 66.8997 301.21 66.8097 301.23C66.6597 301.26 66.4897 301.21 66.3797 301.11L66.3997 301.02ZM209.11 182.38C209.24 183.28 209.44 184.17 209.73 185.04C210.22 186.18 210.73 187.32 211.25 188.45C212.17 190.42 213.33 192.25 214.58 194.03C215.84 195.77 217.09 197.49 218.72 198.9C220.19 200.18 221.7 201.63 223.71 201.93C226.57 202.7 229.55 202.38 232.46 202.18C234.63 202.04 236.82 201.8 238.94 201.56C241.4 201.34 243.82 200.81 246.24 200.3C247.42 200 248.59 199.59 249.59 198.9C250.46 198.18 251.36 197.37 251.84 196.34C252.51 194.87 252.71 193.23 253.05 191.66C253.11 191.11 253.21 190.57 253.29 190.02C253.34 189.27 253.35 188.51 253.36 187.76C252.88 187.91 252.39 188.05 251.9 188.18C251.15 188.23 250.41 188.33 249.67 188.44C248.84 188.6 248 188.74 247.16 188.86C244.51 189.18 241.85 189.38 239.18 189.51C237.74 189.6 236.3 189.68 234.87 189.67C233.32 189.72 231.78 189.97 230.23 190.04C227.85 190.1 225.48 190.25 223.1 190.15C221.18 190.18 219.62 189.03 218.02 188.13C216.98 187.5 215.92 186.91 214.95 186.18C213.52 185.06 212.14 183.87 210.71 182.75C210.17 182.26 209.58 181.79 209.02 181.3C209.02 181.66 209.09 182.03 209.15 182.4L209.11 182.38ZM222.9 189.02C227.43 188.92 231.98 188.61 236.5 188.38C242.76 188.13 249.14 187.91 255.08 185.78C257.83 184.79 260.34 183.14 262.49 181.18C263.6 179.9 264.16 178.24 264.36 176.58C264.59 175.39 264.72 174.19 264.57 172.99C264.46 171.64 264.38 170.28 264.12 168.95C263.95 168.11 263.74 167.27 263.45 166.46C263.24 166.04 263.06 165.6 262.99 165.13V165.11C261.9 165.93 260.82 166.74 259.74 167.57C258.94 168.21 258.06 168.76 257.21 169.32C255.93 170.17 254.71 171.1 253.42 171.93C252.13 172.69 250.88 173.52 249.51 174.12C248.13 174.68 246.68 175.04 245.21 175.28C243.87 175.49 242.53 175.54 241.18 175.52C240.48 175.55 239.78 175.56 239.08 175.55C236.86 175.75 234.64 175.89 232.4 175.9C229.95 175.86 227.5 175.69 225.04 175.72C222.31 175.76 219.61 175.48 216.91 175.2C215.84 175.01 214.64 174.98 213.59 174.8C213.34 174.74 213.09 174.66 212.84 174.58C212.06 174.42 211.32 174.15 210.69 173.62C210.51 173.47 210.34 173.31 210.18 173.13C210.14 173.23 210.07 173.32 209.95 173.37C208.07 174.13 207.31 176.42 207.87 178.28C208.13 179.03 208.73 179.65 209.29 180.18C210.19 180.98 211.1 181.76 212.04 182.51C212.33 182.73 212.61 182.95 212.9 183.19C212.9 183.19 212.9 183.19 212.91 183.2C214.03 184.05 215.15 184.88 216.24 185.74C216.73 186.12 217.24 186.5 217.75 186.85C218.03 187.02 218.31 187.2 218.6 187.37C218.95 187.56 219.28 187.76 219.62 187.97C220 188.14 220.38 188.33 220.77 188.49C220.81 188.51 220.85 188.52 220.9 188.54C221.07 188.61 221.78 188.95 222.92 189.02H222.9ZM227.98 174.43C228.35 174.45 228.72 174.47 229.09 174.48C229.34 174.48 229.59 174.48 229.84 174.48C230.1 174.48 230.37 174.48 230.63 174.5C231.17 174.51 231.7 174.5 232.24 174.52C232.5 174.52 232.76 174.53 233.02 174.53C233.28 174.53 233.55 174.53 233.81 174.5C234.09 174.48 234.36 174.47 234.64 174.46C234.9 174.46 235.17 174.46 235.43 174.46C235.73 174.46 236.04 174.45 236.34 174.44C236.6 174.44 236.86 174.46 237.12 174.46C237.7 174.46 238.28 174.46 238.86 174.46C239.31 174.46 239.77 174.48 240.23 174.49C240.93 174.41 241.63 174.33 242.33 174.24H242.5C242.68 174.22 242.87 174.22 243.05 174.21C243.32 174.19 243.59 174.15 243.86 174.11C244.02 174.09 244.19 174.06 244.35 174.04C244.83 174 245.31 173.97 245.79 173.93C246.98 173.65 248.14 173.28 249.29 172.87C251.86 171.58 254.09 169.71 256.48 168.14C258.53 166.77 260.5 165.28 262.46 163.8C264.71 162.15 266.91 160.44 268.98 158.57C272.28 155.95 275.34 152.81 276.89 148.83C277.45 147.48 278.11 146.11 278.1 144.62C278.22 143.22 277.82 141.85 277.39 140.53C277.3 140.23 277.21 139.93 277.11 139.63C276.76 138.84 276.39 138.05 276.09 137.25C275.95 136.8 275.8 136.34 275.69 135.89C274.06 139.65 271.86 143.34 268.44 145.71C266.21 147.36 263.98 148.98 261.4 150.03C259.44 150.88 257.42 151.53 255.46 152.27C253.84 152.91 252.22 153.59 250.55 154.09C246.46 155.26 242.23 155.91 238 156.56C234.04 157.17 230.07 157.78 226.21 158.82C224.32 159.33 222.39 159.74 220.54 160.4C217.76 161.52 215.03 162.81 212.53 164.47C211.86 164.98 211.18 165.49 210.64 166.09C210.23 166.66 209.91 167.28 209.81 167.97C209.79 168.28 209.8 168.58 209.82 168.89C210.65 168.36 211.76 168.02 212.53 167.76C213.18 167.55 213.84 167.39 214.51 167.28C215.59 167.1 216.69 167.02 217.78 167C218.5 166.98 219.22 167.04 219.91 167.18C221.42 167.35 222.94 167.83 223.99 168.93C224.37 169.26 224.69 169.66 224.94 170.11C225.18 170.44 225.4 170.78 225.55 171.15C225.87 171.93 226.01 172.81 225.98 173.65C225.93 173.83 225.92 174.05 225.89 174.26C225.89 174.26 225.91 174.26 225.92 174.26C225.92 174.27 225.94 174.29 225.96 174.29C225.97 174.29 225.99 174.29 226.01 174.29C226.07 174.29 226.13 174.29 226.18 174.3C226.29 174.3 226.4 174.33 226.51 174.34C226.62 174.35 226.73 174.36 226.84 174.37C227.21 174.39 227.57 174.4 227.94 174.42L227.98 174.43ZM224.54 174.39C224.54 174.39 224.54 174.39 224.55 174.39C224.59 174.38 224.63 174.35 224.64 174.31C224.64 174.29 224.64 174.27 224.64 174.26C224.64 174.26 224.66 174.26 224.67 174.26C224.67 174.14 224.68 174.02 224.7 173.91C224.7 173.56 224.72 173.21 224.72 172.85C224.62 172.41 224.5 171.97 224.34 171.56C223.97 170.84 223.51 170.1 222.93 169.51C222.83 169.8 222.72 170.1 222.65 170.4C222.41 171.38 222.32 172.32 222.49 173.31C222.56 173.63 222.53 173.94 222.54 174.23C222.54 174.29 222.54 174.35 222.52 174.4C222.54 174.4 222.55 174.4 222.57 174.4C222.57 174.4 222.57 174.4 222.58 174.4C222.62 174.41 222.65 174.41 222.69 174.42C222.75 174.42 222.81 174.42 222.87 174.42C222.99 174.42 223.11 174.42 223.23 174.43C223.35 174.43 223.48 174.43 223.6 174.43C223.68 174.43 223.75 174.43 223.83 174.43C223.92 174.43 224 174.43 224.09 174.41C224.09 174.41 224.15 174.41 224.17 174.41C224.17 174.41 224.26 174.4 224.3 174.39C224.35 174.39 224.41 174.39 224.46 174.38C224.48 174.38 224.5 174.38 224.52 174.38L224.54 174.39ZM210.98 169.36C210.64 169.49 210.3 169.64 209.97 169.78C210.17 170.7 210.55 171.58 211.08 172.35C211.65 173.04 212.55 173.35 213.36 173.67C214.53 174.09 215.81 174.02 217.02 174.21C217.19 174.23 217.36 174.24 217.53 174.25C218.83 174.33 220.13 174.37 221.43 174.39C221.43 174.37 221.41 174.35 221.41 174.34C221.08 173.44 221.03 172.48 221.21 171.54C221.27 171.17 221.38 170.81 221.51 170.46C221.57 170.04 221.86 169.32 222.24 168.91C222.09 168.8 221.93 168.7 221.76 168.61C221.72 168.6 221.69 168.58 221.65 168.57C221.12 168.36 220.57 168.22 220.01 168.12C219.59 168.06 219.17 168.01 218.74 167.98C217.4 167.91 216.04 168.05 214.75 168.28C214.69 168.29 214.63 168.3 214.57 168.31C213.34 168.52 212.15 168.93 210.99 169.37L210.98 169.36ZM246.53 119.27C244.93 121.02 243.46 122.98 242.02 124.84C241.93 124.95 241.85 125.07 241.76 125.19C242.98 124.8 244.2 124.41 245.41 124.03C247.37 123.43 249.24 122.56 251.22 122.01C251.94 121.78 252.66 121.59 253.39 121.41C253.05 121.32 252.71 121.22 252.38 121.13C251.23 120.77 250.08 120.39 249.02 119.8C248.32 119.5 247.66 119.13 247.05 118.68C246.87 118.87 246.7 119.06 246.53 119.26V119.27Z" fill="black"/>
<path d="M270.491 127.09C270.491 127.09 270.491 127.07 270.481 127.06C270.481 127.04 270.461 127.02 270.451 126.99C270.451 127 270.451 127.01 270.471 127.02C270.471 127.03 270.481 127.05 270.491 127.06C270.491 127.06 270.491 127.06 270.491 127.07C270.491 127.07 270.491 127.07 270.491 127.06C270.491 127.06 270.491 127.05 270.491 127.04C270.491 127.05 270.501 127.07 270.511 127.08L270.491 127.09Z" fill="black"/>
<path d="M100.241 87.6204C97.5109 83.3404 92.0409 86.6504 91.2109 85.2304C89.7409 80.3804 82.7709 85.4604 84.5309 88.9304C85.1409 90.1204 88.1309 91.0304 88.1309 91.0304C87.9509 93.2304 89.8909 96.5904 91.8909 97.2704C94.6109 98.1904 91.2109 88.6004 96.8709 93.4304C97.6209 87.9404 99.8709 89.6804 100.241 87.6104V87.6204ZM96.7009 87.2504C96.7009 87.2504 96.6709 87.3204 96.6509 87.3604C96.6109 87.2704 96.5709 87.1704 96.7009 87.2504Z" fill="#3F3D56"/>
<path d="M256.641 127.36C256.641 127.36 256.641 127.32 256.641 127.31C256.671 127.31 256.701 127.31 256.731 127.31C256.781 127.31 256.831 127.32 256.881 127.33C256.881 127.39 256.841 127.44 256.781 127.45C256.721 127.45 256.651 127.42 256.641 127.35V127.36Z" fill="black"/>
<path d="M256.87 127.94C256.59 127.94 256.72 127.62 256.89 127.34C256.99 127.35 257.09 127.38 257.19 127.39C257.12 127.5 257.06 127.61 257 127.72C257.05 127.8 257 127.91 256.9 127.93H256.88L256.87 127.94Z" fill="black"/>
<path d="M260.65 139.92C249 133.51 257.36 122.77 267.03 122.41C275.38 129.33 271.08 141.87 260.65 139.92Z" fill="#E1CBF1"/>
<path d="M258.731 139.15C255.581 136.44 253.071 130.86 256.951 127.94C261.181 129.24 262.371 136.45 258.731 139.15Z" fill="#A37AD4"/>
<path d="M267.38 139.3C267.37 139.3 267.36 139.31 267.35 139.32C267.36 139.32 267.38 139.31 267.39 139.3H267.38Z" fill="black"/>
<path d="M272.341 130.63C272.151 128.78 271.261 127.13 270.351 125.55C269.581 124.14 268.601 122.64 267.101 121.94C266.491 121.67 265.821 121.74 265.171 121.84C264.301 121.94 263.471 122.21 262.671 122.56C261.031 123.35 259.491 124.39 258.101 125.56C254.081 128.93 254.221 132.04 255.181 134.88C255.641 136.24 256.301 137.54 257.251 138.63C258.181 139.71 259.331 140.28 260.601 140.52C260.621 140.52 260.641 140.53 260.661 140.54C260.711 140.55 260.761 140.56 260.801 140.56C264.651 141.11 267.861 139.72 269.541 138.12C270.251 137.45 270.881 136.7 271.351 135.84C272.401 134.31 272.491 132.44 272.341 130.64V130.63ZM258.951 138.68C258.951 138.68 255.861 136.22 255.601 132.46C255.521 131.34 255.701 130.23 256.231 129.17C256.951 127.93 257.801 128.81 257.801 128.81C262.701 132.58 259.091 138.47 258.951 138.68ZM270.841 133.86C269.311 139.02 263.851 139.63 263.841 139.63H263.831C263.831 139.63 263.831 139.63 263.821 139.63C263.061 139.82 262.311 139.77 261.541 139.61C261.051 139.53 260.561 139.4 260.071 139.22C260.161 138.98 260.241 138.74 260.331 138.5C260.631 137.94 260.851 137.32 260.941 137.04C261.121 136.48 261.261 135.9 261.351 135.32C261.451 134.83 261.511 134.33 261.501 133.82C261.491 133.56 261.461 133.31 261.411 133.06C261.371 132.75 261.321 132.45 261.251 132.15C260.791 130.2 259.281 128.16 257.591 127.54C257.641 127.49 259.631 125.57 262.061 124.13C263.541 123.25 264.721 122.78 266.201 122.71C267.291 122.66 268.431 124.49 268.761 124.97C270.471 127.52 271.751 130.79 270.851 133.85L270.841 133.86Z" fill="black"/>
<path d="M238.92 38.6302C237.96 39.6402 237 40.6502 236.04 41.6602C236.48 41.6902 236.98 41.7802 237.37 41.8402C237.8 40.7202 238.35 39.6702 238.92 38.6202V38.6302ZM245.58 59.8302C242.18 57.6202 239.17 54.8402 236.28 52.0202C236.89 75.5902 233.78 67.7702 224.4 85.7402V85.7102C224.4 85.7102 224.4 85.7102 224.4 85.7002C224.4 85.7402 224.41 85.7902 224.42 85.8302C224.47 85.8502 224.5 85.9002 224.52 85.9802C230.98 86.5902 241.49 75.7102 242.94 73.1802C245.85 68.1102 243.87 64.2402 245.59 59.8402L245.58 59.8302ZM247.99 29.8802C247.78 29.8202 247.58 29.7502 247.36 29.6902C246.94 30.1502 246.51 30.6002 246.08 31.0502C246.69 30.6102 247.31 30.2002 247.98 29.8702L247.99 29.8802ZM254.17 42.8902C253.63 42.4202 253.13 41.9002 252.67 41.3402C247.35 43.5402 240.86 43.9602 235.32 42.4302C234.83 42.9502 234.33 43.4502 233.84 43.9702C240.42 46.3002 247.9 46.0302 254.17 42.8902ZM256.23 44.9002C256.27 44.7202 256.3 44.5302 256.36 44.3502C255.92 44.1402 255.51 43.8902 255.11 43.6202C249.41 46.2902 242.71 47.2802 236.54 45.7802C235.97 46.6702 235.7 48.1202 235.85 49.1002C236.29 52.0302 244.91 58.3902 247.49 59.9202C248.01 60.2302 248.68 60.1102 249.06 59.6502C252.61 55.3802 255.19 50.4002 256.24 44.9002H256.23ZM253.25 21.6102C253.25 21.6102 253.33 21.5302 253.36 21.4902C248.66 14.7902 243.71 8.28024 239.09 1.52024C235.55 4.93024 231.96 8.31024 228.39 11.6702C220.11 19.1602 212.69 27.5802 204.28 34.9302C211.51 40.0702 218.99 44.8702 225.99 50.3202C226 50.3202 226.01 50.3402 226.02 50.3402C234.82 40.5102 244.05 31.0702 253.22 21.5902L253.25 21.6102ZM254.08 24.9302C254.03 24.1702 253.9 23.3802 253.93 22.6102C252.45 24.2002 250.99 25.8002 249.51 27.3902C250.39 27.4002 251.09 27.5002 251.96 27.7302C252.78 27.9502 253.67 27.7102 254.21 27.0602C254.21 27.0602 254.21 27.0602 254.22 27.0502C254.27 26.9902 254.34 26.9502 254.41 26.9302C254.08 26.3202 254.08 25.6102 254.09 24.9302H254.08ZM262.03 37.6902C261.32 35.8802 258.63 32.3302 256.55 30.7402C254.18 28.9302 251.2 27.7902 249.14 27.7902C248.58 27.7902 248.07 28.7802 247.69 29.1902C249.7 29.3802 253.33 30.8202 255.92 32.7402C259 35.0302 262.02 37.6902 262.02 37.6902H262.03ZM261.92 54.0202C261.43 50.4702 258.44 50.1602 256.32 48.9202C255.06 51.8302 254.15 54.3502 252.32 56.8502C252.57 56.9402 252.89 57.0702 253.1 57.2302C253.08 56.8202 253.58 54.8502 253.66 55.9302C253.28 60.5702 252.8 63.0202 252.69 66.3602C253.24 70.1302 255.57 70.1902 256.96 67.9102C258.65 65.1302 262.33 56.9802 261.92 54.0102V54.0202ZM263.65 22.7102C268.53 24.7002 263.53 18.3902 260.6 18.9002C256.16 18.0002 253.74 21.9902 255.19 25.9102C255.29 26.4502 255.31 26.8402 254.93 27.2002C254.94 27.2402 254.94 27.3002 254.93 27.3502C256.67 28.0402 257.26 27.2502 257.2 25.5402C257.59 24.2902 258.85 24.7502 259.14 25.7902C259.32 24.6502 259 23.5902 260.57 23.5602C260.92 22.2002 262.51 22.1002 263.64 22.7002L263.65 22.7102ZM269.88 45.8402C264.77 43.1302 258.49 32.2802 249.05 30.1702C244.11 32.6202 240.33 36.9002 238.2 41.9802C242.85 42.7802 247.7 42.1702 252.16 40.6902C247.73 35.4802 269.29 55.0602 272.5 49.4302C272.62 49.2202 272.61 48.9602 272.5 48.7402C272.2 48.0702 271.4 46.6502 269.88 45.8402ZM280.01 53.9802C280.5 53.8702 280.06 53.3002 280.08 52.9802C279.87 52.8302 278.75 52.6702 279.43 52.4602C280.48 52.2002 281.45 52.7402 282.35 53.2002C280.35 49.5102 278.58 53.6902 273.23 49.6302C272.88 50.2302 272.51 50.6502 272.11 51.0702C274.81 51.8402 277.23 53.5102 280.01 53.9902V53.9802ZM282.93 52.9002C283.53 54.4202 281.64 53.7302 280.89 53.4302C281.15 56.6002 272.83 52.1402 271.24 51.6102C266.13 51.7402 261.78 47.1402 257.35 44.9102C257.34 45.9302 256.96 47.1902 256.51 48.4102C263.56 50.0702 263.69 55.2702 260.86 60.8402C259.47 63.9302 258.45 67.8302 255.9 70.0902C255.82 72.5302 260.78 71.2502 260.26 73.5002C259.67 73.7102 259.33 72.7602 258.67 72.7302C257.31 72.4202 255.3 71.8502 255.57 70.2002C255.07 70.3102 254.54 70.2002 254.07 70.0302C254.09 72.8902 252.76 73.2802 256.23 73.8202C257.26 74.0502 258.26 74.1802 259.25 73.7802C260.06 75.8102 253.83 74.5702 253.26 73.4802C252.86 72.3202 253.4 70.9702 253.62 69.8102C250.6 66.9302 253.03 61.7502 252.99 58.0602C252.62 57.9602 252.31 57.6802 251.88 57.4802C250.46 59.3702 248.87 62.5802 246.32 60.3202C245.06 63.9402 246.1 67.8502 244.8 71.4602C241.44 78.7702 233.63 83.2902 227.02 86.9402C228.1 87.6102 229.56 87.3302 230.78 87.2702C232.33 88.4302 226.37 88.3302 226.6 86.9202C225.9 87.2702 225.1 86.9502 224.41 86.7202C223.21 88.9502 225.06 90.1702 227.1 89.1902C227.23 89.1202 227.4 89.1702 227.49 89.2902C227.12 91.0502 221.23 90.2302 223.96 86.3402C224.48 80.6302 230.14 76.3702 233.02 71.6202C237.02 64.7202 235.15 53.5702 235.73 51.3702C234.43 49.6802 234.89 47.3502 235.84 45.6102C234.9 45.3202 234.19 45.0802 233.27 44.5902C231.26 46.1402 227.75 51.4102 225.66 51.4902C218.05 46.5902 210.95 40.9502 203.58 35.7102C203.08 35.5002 202.7 34.7202 203.42 34.5202C214.78 22.7902 227.17 11.9702 238.68 0.35024C239.02 -0.0997596 239.64 0.14024 239.82 0.62024C244.82 7.28024 249.45 14.2102 254.35 20.9402C256.41 15.9402 267.9 18.2502 265.86 23.7202C266.24 24.5802 265.92 25.5202 265.97 26.4002C266.3 27.5702 267.21 29.5602 265.1 29.2902C265.21 34.5102 257.36 32.5502 257.75 28.5702C257.75 28.1102 258.49 27.3602 258.59 28.1602C257.15 30.6102 263.03 33.3202 263.96 30.9902C263.15 31.0302 261.82 30.6002 261.86 29.6502C262.58 29.6502 263.47 30.3202 264.33 30.1602C264.47 29.8902 264.43 29.6002 264.58 29.3102C262.08 28.9002 265.19 28.7202 265.89 28.7602C266.22 28.0602 265.32 27.4402 265.32 26.7202C265.13 25.7802 265.41 24.8202 265.37 23.8702C264.09 23.9202 262.63 22.3402 261.46 23.2702C261.74 24.3202 260.59 24.3502 259.95 24.5602C260.21 25.3202 260.12 26.9702 258.97 26.6902C258.35 26.4602 258.6 25.5702 258.03 25.3102C257.25 27.6402 258.42 29.0302 254.54 28.0402C254.34 28.2102 254.08 28.3502 253.81 28.4302C254.83 28.8902 256.64 29.7802 257.66 30.8102C261.66 34.8102 263.89 40.4202 268.54 43.9002C270.28 45.5202 272.49 46.6202 273.36 49.0002C277.34 52.2102 281.11 49.5902 282.93 52.9202V52.9002Z" fill="black"/>
<path d="M264.21 25.2001C264.44 25.3401 264.37 25.7201 264.11 25.7601C263.38 25.7201 262.75 26.0901 262.05 26.2601C261.28 26.1301 262.41 25.1201 262.78 25.1001C263.24 24.9601 263.77 24.9701 264.21 25.2001Z" fill="black"/>
<path d="M263.89 26.0801C264.23 26.2101 264.04 26.7501 263.7 26.6901C263.2 26.6001 263.43 25.9101 263.89 26.0801Z" fill="black"/>
<path d="M163.27 132.38C161.43 132.78 161.3 130.89 161 129.59C160.89 128.96 160.83 128.32 160.82 127.67C160.06 127.29 159.48 126.6 159.15 125.36C158.85 124.42 158.58 123.46 158.39 122.49C157.5 117.7 157.42 112.8 156.92 107.96C156.66 105.25 156.4 102.51 155.6 99.8902C154.6 96.4402 152.7 93.1902 152.09 89.6402C151.89 88.6902 151.88 87.7202 151.91 86.7502C151.73 87.1702 151.55 87.6002 151.36 88.0202C151.21 88.3702 151.05 88.7302 150.9 89.0802C150.74 89.4402 150.58 89.7902 150.44 90.1602C150.24 90.7302 150.05 91.3002 149.86 91.8702C149.77 92.1502 149.68 92.4302 149.58 92.7102C149.52 92.9102 149.44 93.1002 149.39 93.3102C149.38 93.3602 149.38 93.4002 149.36 93.4502C149.26 93.7302 149.05 93.9502 148.76 94.0002H148.73C148.44 94.0402 148.19 93.9002 148.01 93.6902C147.97 93.6402 147.92 93.5802 147.88 93.5302C147.62 93.2102 147.35 92.9002 147.09 92.5802C146.44 91.7702 145.78 90.9702 145.13 90.1602C143.63 88.3102 142.13 86.4602 140.64 84.6102C139.14 82.7502 137.63 80.9002 136.13 79.0402C134.63 77.1802 133.13 75.3302 131.62 73.4702C130.15 71.6602 128.68 69.8402 127.21 68.0302C125.73 66.2002 124.24 64.3702 122.77 62.5302C121.35 60.7702 119.92 59.0202 118.54 57.2202C118.28 56.8702 118.01 56.5302 117.78 56.1502C117.64 55.9602 117.5 55.7702 117.54 55.5102C117.57 55.2802 117.76 55.0802 117.99 55.0302C118.07 55.0202 118.16 55.0102 118.25 55.0002C118.57 54.9602 118.89 54.9002 119.21 54.8502C119.34 54.8302 119.48 54.8002 119.61 54.7802C120.59 54.6202 121.56 54.4702 122.53 54.3102C124.7 53.9502 126.87 53.5702 129.04 53.2202C131.36 52.8402 133.69 52.4702 136.02 52.1202C138.31 51.7702 140.59 51.4302 142.88 51.0902C143.94 50.9302 145 50.7802 146.06 50.6402C146.62 50.5602 147.18 50.4902 147.74 50.4202C148.25 50.3602 148.75 50.3002 149.27 50.2802C149.27 50.2802 149.27 50.2802 149.28 50.2802C149.48 49.8702 149.75 49.4902 150.16 49.2502C150.56 48.9902 151.07 48.8902 151.37 48.4902C151.9 47.8702 152.4 47.2102 152.76 46.4702C153.3 45.3002 153.81 44.0402 154.91 43.2702C156.33 42.2502 158.34 42.3402 159.85 43.1202C160.55 43.4202 161.32 43.7802 161.71 44.4702C161.87 44.7302 161.95 45.0102 161.99 45.3002C163.31 45.5602 164.3 46.5602 165.33 47.3602C165.82 47.5402 166.39 47.6602 166.73 48.0902C167.09 48.5902 166.91 49.2402 166.88 49.8102C167.2 50.3802 167.63 50.8802 167.64 51.5902C167.89 53.9002 165.39 55.6902 163.23 55.4202C163.2 55.7202 163.12 56.0202 163.14 56.3102C163.1 58.6102 163.51 61.0302 164.64 63.0402C165.25 64.1902 166.15 65.1402 166.49 66.4102C167.04 68.2102 166.56 70.0902 165.95 71.8002C165.77 72.2502 165.65 72.6402 165.43 73.0302C166.24 73.8902 166.86 75.4202 166.98 76.4302C166.99 77.2602 166.45 77.8802 165.84 78.4002C166.1 78.7802 166.36 79.3102 166.46 79.4102C167.04 80.1902 167.57 81.0202 168.19 81.7702C169.12 82.7802 170.19 83.6702 171.27 84.5202C174.29 86.6502 177.65 88.2602 180.67 90.4002C181.47 91.0002 182.37 91.4702 183.09 92.1602C184.4 93.4302 184.66 95.6502 184.83 97.3902C185.16 100.9 184.42 104.38 183.84 107.82C183.59 109.2 183.45 110.6 183.29 111.99C183.25 112.43 183.21 113.05 182.82 113.27C182.77 113.4 182.67 113.51 182.54 113.6C182.79 113.56 183.03 113.4 183.26 113.31C184.23 113.01 185.68 112.05 186.58 112.88C187.01 113.21 187.12 113.89 186.76 114.31C186.3 114.7 185.72 114.92 185.19 115.22C184.95 115.31 184.39 115.82 183.92 116.11C183.83 116.17 183.75 116.23 183.67 116.28C182.95 116.72 182.12 117.02 181.26 117C180.69 117.01 180.15 116.96 179.59 116.95C179.2 116.95 178.73 116.9 178.56 116.49C178.34 115.72 178.4 114.91 178.52 114.12C178.32 114.06 178.14 113.97 177.96 113.83C177.56 113.41 177.42 112.8 177.25 112.26C176.86 110.9 176.69 109.47 176.45 108.08C176.17 106.46 175.86 104.84 175.39 103.26C174.85 101.69 174.69 99.8502 173.44 98.6802C171.77 97.7502 170.13 96.7702 168.56 95.6802C168.44 95.5702 168.16 95.4302 167.93 95.2702C167.93 95.4102 167.93 95.5602 167.93 95.7002C167.85 98.7902 167.74 101.88 167.59 104.96C167.51 109.91 168.17 114.88 167.55 119.81C167.19 122.11 167.64 126.91 165.01 127.81C165.06 127.85 165.11 127.87 165.16 127.88C165.87 127.9 166.52 127.58 167.17 127.27C167.92 126.9 168.68 126.54 169.52 126.7C169.84 126.76 170.04 127.12 169.88 127.41C169.74 127.67 169.42 127.74 169.18 127.58C169.11 127.53 169.05 127.48 168.95 127.49C167.75 127.76 166.77 128.71 165.51 128.8C164.72 128.86 164.45 128.36 164.43 127.93C164.38 127.93 164.33 127.93 164.28 127.94C163.24 128.03 162.3 128.07 161.49 127.87C161.73 128.78 161.88 129.71 162.22 130.58C162.53 131.35 162.49 131.49 163.37 131.3C164.39 130.97 165.34 130.45 166.33 130.03C166.54 129.94 166.79 130 166.92 130.2C167.28 130.87 166.08 131.22 165.65 131.48C164.92 131.77 164.22 132.17 163.44 132.31C163.38 132.32 163.31 132.33 163.25 132.34H163.27V132.38ZM152.35 85.7002C152.35 85.7002 152.33 85.7502 152.32 85.7802C152.4 87.2202 152.71 88.6302 153.15 90.0002C154.25 93.6902 156.28 97.0402 157.22 100.79C158.66 107.51 158.67 114.48 159.66 121.25C159.86 122.48 160.17 123.69 160.54 124.88C160.83 125.93 161.32 126.79 162.55 126.79C163.43 126.84 164.55 127.05 165.23 126.39C165.7 125.84 165.84 125.08 165.93 124.38C166 123.44 166.09 122.5 166.13 121.57C166.34 118.72 166.64 115.87 166.6 113C166.6 109.14 166.35 105.3 166.41 101.44C166.41 99.1002 166.44 96.7702 166.52 94.4302C166.6 91.8102 166.81 89.1602 166.48 86.5502V86.5302C166.5 86.4202 166.52 86.3102 166.55 86.2002C166.57 86.1102 166.59 86.0202 166.62 85.9302V85.9202V85.9002C166.62 85.8902 166.64 85.8802 166.65 85.8702L166.68 85.8502C166.68 85.8502 166.68 85.8502 166.69 85.8502C166.69 85.8502 166.72 85.8502 166.73 85.8502C166.74 85.8502 166.76 85.8502 166.77 85.8502C166.77 85.8502 166.78 85.8502 166.79 85.8502C166.79 85.8502 166.79 85.8502 166.8 85.8502C166.83 85.8702 166.86 85.9002 166.89 85.9302C166.92 85.9502 166.94 85.9802 166.97 86.0002C166.98 86.0102 167 86.0202 167.01 86.0402C167.04 86.1102 167.07 86.1802 167.1 86.2502C167.16 86.4002 167.21 86.5502 167.26 86.7102C167.31 86.8602 167.37 87.0102 167.41 87.1602C167.44 87.2602 167.46 87.3602 167.48 87.4602C167.51 87.6102 167.53 87.7702 167.56 87.9202C167.64 88.4602 167.67 89.0002 167.73 89.5502C167.73 89.6102 167.74 89.6702 167.75 89.7302C167.75 89.7602 167.75 89.7802 167.75 89.8002C167.75 89.9402 167.76 90.0902 167.77 90.2302C167.78 90.5002 167.79 90.7702 167.8 91.0402C167.8 91.0302 167.8 91.0202 167.8 91.0102C167.8 91.0402 167.8 91.0602 167.8 91.0902C167.8 91.0802 167.8 91.0702 167.8 91.0602C167.8 91.3402 167.82 91.6102 167.84 91.8902C167.85 92.1702 167.86 92.4502 167.87 92.7202C167.87 92.7202 167.87 92.7002 167.87 92.6902C167.87 92.8302 167.87 92.9702 167.87 93.1102C167.87 93.2302 167.88 93.3602 167.88 93.4902C167.88 93.5702 167.88 93.6502 167.88 93.7202C167.88 93.7702 167.88 93.8202 167.89 93.8702C167.89 93.9302 167.89 93.9902 167.89 94.0602C167.89 94.0902 167.89 94.1302 167.89 94.1702C167.89 94.3202 167.88 94.4602 167.88 94.6102C168.81 94.6502 169.7 95.1702 170.53 95.5502C171.8 96.2602 173.16 96.8702 174.31 97.7602C175.41 98.9102 175.76 100.5 176.17 101.98C176.93 104.55 177.22 107.21 177.72 109.83C177.93 110.76 178.11 111.69 178.35 112.61C178.47 113.2 178.8 113.12 179.2 113.03C179.32 113 179.46 112.97 179.59 112.96C179.95 112.88 180.31 112.85 180.67 112.83C181.03 112.8 181.38 112.77 181.73 112.7C181.71 112.46 181.75 112.2 181.79 111.97C181.9 111.04 182.01 110.11 182.13 109.18C182.41 106.78 182.92 104.42 183.17 102.03C183.42 99.6502 183.8 94.5802 181.78 92.9502C178.27 90.3702 174.49 88.1902 170.8 85.9002C169.18 84.7902 167.53 83.4202 166.44 81.7502C165.47 82.9602 162.43 83.8902 161.19 83.9602C159.93 84.0702 158.65 83.9602 157.38 83.9602C156.22 83.9102 155.05 83.8202 153.95 83.4402C153.84 83.4002 153.59 83.3102 153.34 83.2002C152.97 84.0502 152.61 84.9002 152.25 85.7602L152.35 85.7002ZM179.5 116.13C180.66 116.08 181.78 115.74 182.9 115.49C183.14 115.44 183.43 115.25 183.7 115.19C184.47 114.73 185.23 114.25 185.95 113.71C185.92 113.61 185.87 113.52 185.78 113.45C184.84 113.51 184.04 114.06 183.15 114.31C182.88 114.4 182.58 114.47 182.3 114.36C182.11 114.29 181.89 114.13 181.76 113.93C181.57 113.98 181.39 114.01 181.25 114.03C180.63 114.04 179.94 114.22 179.29 114.23C179.41 114.98 179.43 115.94 179.5 116.13ZM119.6 56.4302C119.96 56.8502 120.32 57.2802 120.67 57.7002C121.4 58.5802 122.13 59.4702 122.85 60.3502C124.32 62.1602 125.79 63.9702 127.26 65.7702C128.73 67.5802 130.2 69.4002 131.67 71.2102C133.16 73.0502 134.64 74.8802 136.13 76.7202C137.66 78.6102 139.2 80.5002 140.73 82.3902C142.21 84.2202 143.7 86.0502 145.18 87.8802C146.25 89.2002 147.33 90.5202 148.39 91.8502C148.63 91.1302 148.86 90.4202 149.1 89.7102C149.28 89.1802 149.51 88.6602 149.72 88.1502C149.93 87.6402 150.14 87.1402 150.35 86.6302C151.13 84.7702 151.92 82.9102 152.71 81.0502C152.77 80.9102 152.83 80.7602 152.89 80.6202C151.19 80.5002 149.39 80.5102 147.85 79.7302C144.15 77.2902 146.95 71.8602 148.57 68.9002C149.23 67.7902 149.87 66.6502 150.47 65.5102C150.63 65.2202 150.78 64.9102 150.96 64.6202C149.9 64.6302 148.88 64.7602 148.02 65.4602C147.11 66.3602 146.37 67.7602 144.92 67.7602C141.84 67.7502 141.58 63.6402 142.42 61.4402C142.85 60.2002 143.45 59.0202 144.18 57.9302C145.29 56.2102 146.83 54.8402 148 53.1702C148.34 52.6602 148.61 52.1002 148.82 51.5302C148.37 51.6302 147.92 51.7102 147.47 51.7902C146.38 51.9902 145.29 52.1602 144.2 52.3402C141.94 52.7002 139.68 53.0502 137.41 53.4002C135.11 53.7502 132.8 54.0902 130.5 54.4202C128.25 54.7502 125.99 55.0402 123.74 55.3502C122.81 55.4802 121.87 55.6102 120.93 55.7402C120.45 55.8102 119.98 55.8802 119.5 55.9402C119.4 55.9502 119.3 55.9702 119.2 55.9802C119.33 56.1302 119.46 56.2702 119.58 56.4202L119.6 56.4302ZM157.25 83.0902C157.72 83.1202 158.19 83.1402 158.65 83.1702C158.96 83.1902 159.27 83.2002 159.58 83.1902C159.91 83.1802 160.24 83.1502 160.57 83.1002C160.72 83.0802 160.87 83.0502 161.03 83.0302C161.17 83.0102 161.3 82.9802 161.44 82.9602C161.76 82.9002 162.07 82.8302 162.38 82.7302C162.36 82.7302 162.34 82.7402 162.32 82.7502C162.66 82.6502 162.98 82.5202 163.31 82.3902C163.51 82.3102 163.69 82.2102 163.89 82.1202C164.03 82.0602 164.18 81.9902 164.32 81.9102C164.31 81.9102 164.3 81.9202 164.29 81.9302C164.48 81.8402 164.67 81.7502 164.86 81.6402C164.96 81.5802 165.05 81.5202 165.14 81.4602C165.23 81.4002 165.33 81.3502 165.43 81.3002C165.42 81.3002 165.41 81.3102 165.39 81.3202C165.48 81.2702 165.57 81.2302 165.65 81.1802C165.65 81.1802 165.65 81.1802 165.66 81.1802C165.72 81.1502 165.77 81.1202 165.82 81.0802C165.81 81.0802 165.8 81.1002 165.79 81.1002C165.83 81.0702 165.88 81.0502 165.91 81.0202C165.94 80.9902 165.97 80.9602 165.99 80.9302C165.99 80.9302 165.99 80.9302 165.99 80.9202C165.99 80.9202 166 80.9102 166.01 80.9002C166.03 80.8702 166.05 80.8402 166.08 80.8102C166.09 80.7902 166.11 80.7802 166.12 80.7602C166.14 80.7202 166.13 80.6902 166.12 80.6502C166.12 80.6002 166.09 80.5502 166.08 80.5102C166.08 80.5102 166.08 80.5002 166.08 80.4902C166.08 80.4702 166.07 80.4502 166.06 80.4302C166.05 80.4002 166.04 80.3702 166.02 80.3402C166.02 80.3402 166.02 80.3502 166.02 80.3602C166.01 80.3202 165.99 80.2902 165.98 80.2502C165.96 80.2002 165.95 80.1602 165.93 80.1102C165.91 80.0702 165.89 80.0402 165.88 80.0002C165.84 79.9302 165.82 79.8602 165.78 79.7902C165.78 79.7902 165.78 79.7902 165.78 79.7802C165.78 79.7702 165.76 79.7502 165.76 79.7302C165.72 79.6402 165.69 79.5402 165.66 79.4502C165.66 79.4502 165.66 79.4502 165.66 79.4602C165.65 79.4202 165.63 79.3702 165.61 79.3202C165.59 79.2802 165.58 79.2402 165.57 79.2102C165.57 79.2102 165.57 79.2102 165.57 79.2202C165.54 79.1402 165.51 79.0602 165.48 78.9702C165.48 78.9702 165.47 78.9002 165.47 78.8802C165.47 78.8602 165.46 78.8502 165.46 78.8302C165.46 78.8302 165.41 78.7802 165.38 78.7902C165.36 78.7902 165.34 78.8202 165.34 78.8402C165.27 78.9002 165.19 78.9502 165.12 79.0102C164.52 79.5102 163.78 79.8202 163.01 79.9202C162.44 79.9602 161.88 80.1302 161.32 80.0502C161.31 80.0502 161.3 80.0502 161.28 80.0502C160.71 80.6202 159.25 80.5902 158.54 80.7002C157.15 80.7602 155.77 80.7502 154.38 80.7102C154.36 80.7002 154.34 80.6902 154.32 80.7102C154.31 80.7102 154.3 80.7302 154.29 80.7402C154.29 80.7502 154.29 80.7602 154.29 80.7802C154.29 80.7802 154.29 80.7902 154.29 80.8002C154.29 80.8402 154.28 80.8702 154.27 80.9102C154.25 80.9702 154.23 81.0302 154.21 81.0902C154.19 81.1402 154.17 81.1902 154.15 81.2502C154.13 81.2902 154.11 81.3302 154.1 81.3802C154.08 81.4202 154.07 81.4602 154.06 81.5002C154.06 81.5302 154.04 81.5502 154.04 81.5802C154.04 81.5802 154.01 81.6702 153.99 81.7202C153.98 81.7502 153.96 81.7902 153.95 81.8302C153.91 81.9202 153.86 82.0102 153.82 82.1002C153.78 82.1902 153.76 82.2802 153.74 82.3702C153.74 82.3702 153.74 82.3702 153.74 82.3802C153.74 82.4002 153.73 82.4302 153.72 82.4502V82.4702C153.71 82.5102 153.72 82.5502 153.75 82.5802C153.77 82.6102 153.8 82.6202 153.84 82.6202C153.84 82.6202 153.86 82.6302 153.87 82.6302C153.88 82.6302 153.9 82.6302 153.91 82.6302C154.23 82.6502 154.54 82.7202 154.86 82.7702C155.04 82.8002 155.21 82.8502 155.38 82.8902C155.55 82.9302 155.73 82.9502 155.9 82.9902H155.87C156.33 83.0902 156.81 83.1002 157.28 83.1302L157.25 83.0902ZM151.3 66.4102C150.42 68.0302 149.28 69.5102 148.48 71.1802C147.66 73.0502 146.01 76.4102 147.65 78.1702C148.45 79.1102 149.72 79.2002 150.85 79.4502C152.5 79.7702 154.18 79.8702 155.86 79.9102C157.49 79.9502 159.14 79.9502 160.69 79.4302C161.04 78.7202 160.79 77.9102 160.62 77.1802C160.52 76.8002 160.41 76.4202 160.25 76.0602C160.05 76.1202 159.81 76.1102 159.61 76.1102C158.47 76.1202 157.35 76.0002 156.22 75.8902C155.66 75.7702 155.08 75.8902 154.54 75.7502C154.1 75.6702 153.99 75.1102 154.36 74.8802C154.73 74.5402 155.15 74.1002 155.5 73.7802C156.92 72.3602 158.09 70.6702 158.65 68.7302C158.82 68.1002 158.9 67.4102 158.97 66.7702C159.05 66.1302 159.2 65.5002 159.28 64.8602C158.71 63.8002 157.98 62.7802 157.1 61.7302C157.04 61.6502 156.99 61.5702 156.93 61.4902C156.9 62.6602 156.22 63.7402 155.12 64.2002C154.16 64.6602 153.09 64.6602 152.02 64.6402C151.87 65.3002 151.42 66.1702 151.3 66.4002V66.4102ZM162.52 73.9702C162.01 74.2402 161.51 74.6202 161.14 75.0902C161.09 75.2302 161.03 75.3502 160.93 75.4002C160.89 75.4602 160.86 75.5202 160.83 75.5802C160.84 75.6102 160.85 75.6302 160.86 75.6602C160.92 75.7702 160.96 75.8802 161.01 75.9802C161.16 76.3402 161.31 76.7102 161.43 77.0802C161.64 77.8002 161.8 78.5702 161.63 79.3002C162.25 79.1302 162.88 78.9802 163.49 78.7702C163.88 78.6002 164.22 78.3602 164.52 78.0902C164.99 77.6702 165.72 77.3102 165.82 76.6402C165.8 76.2102 165.61 75.8102 165.48 75.4102C165.31 74.9602 165.21 74.4502 164.87 74.0902C164.35 73.8002 163.7 73.7102 163.1 73.8102C162.9 73.8402 162.71 73.9002 162.52 73.9702ZM160.05 67.2102C159.56 70.1902 157.8 72.8602 155.61 74.9102C156.62 74.8502 157.64 74.8302 158.64 74.8602C159.23 74.8402 159.85 74.8802 160.39 75.1302C160.43 75.1502 160.47 75.1802 160.51 75.2102C160.51 75.2002 160.51 75.1902 160.51 75.1802C160.45 74.9402 160.58 74.6102 160.58 74.3902C160.64 73.6602 160.79 72.9402 160.81 72.2102C160.91 70.0802 160.66 68.2502 160.03 66.5602C160.03 66.7802 160.04 66.9902 160.03 67.2102H160.05ZM156.86 58.7102C156.75 59.3302 156.85 59.9502 156.9 60.5702C158.3 61.6202 159.54 62.9502 160.3 64.5302C161.25 66.7802 161.89 69.1702 161.71 71.6302C161.68 72.2102 161.59 72.7702 161.5 73.3402C161.66 73.1402 161.85 72.9602 162.04 72.8102C162.45 72.5202 163 72.3502 163.55 72.3202C163.55 71.3302 163.31 70.3902 163.15 69.4202C162.71 67.3802 162.29 65.2802 161.19 63.4802C160.33 62.2802 159.53 61.0302 158.49 59.9802C157.97 59.4202 157.6 58.6902 157.01 58.2202C156.94 58.3502 156.89 58.5102 156.87 58.7202L156.86 58.7102ZM157.32 57.8902C157.41 57.9502 157.49 58.0102 157.55 58.0502C158.01 58.3302 158.3 58.7902 158.67 59.1502C159.83 60.0702 160.71 61.2502 161.54 62.4702C163.38 65.1402 164.25 68.4402 164.17 71.6602C164.17 71.9002 164.15 72.1302 164.15 72.3602C164.38 72.4002 164.6 72.4602 164.81 72.5602C164.88 72.2802 164.96 71.9902 165.03 71.7202C165.65 69.4902 166.32 66.8802 164.73 64.8902C164.25 64.1002 163.61 63.4102 163.23 62.5602C162.46 60.7702 162.26 58.7502 162.49 56.8302C162.51 56.6602 162.69 55.8302 162.89 55.3402C162.34 55.1302 161.4 54.6402 161.64 54.3102C161.9 54.0402 162.21 54.4902 162.48 54.5702C163.01 54.7302 163.63 54.8102 164.15 54.6202C164.88 54.3502 165.63 53.9602 166.08 53.3102C166.26 53.0302 166.4 52.7202 166.51 52.3902C166.17 52.5602 165.8 52.6502 165.59 52.6302C165.14 52.6602 164.74 52.4602 164.35 52.2502C164.2 52.1402 163.99 52.0802 163.9 51.9202C163.87 51.8002 164.03 51.7202 164.11 51.8102C164.83 52.0402 165.59 51.9002 166.25 51.5402C166.39 51.4402 166.52 51.2902 166.67 51.1902C166.64 50.8402 166.55 50.4902 166.36 50.1802C166.1 49.5802 166.74 48.6502 165.97 48.3102C165.57 48.1102 165.08 48.1202 164.71 47.8402C164.18 47.4802 163.66 47.1002 163.1 46.7902C162.94 46.7002 162.46 46.4402 162.07 46.1602C162.07 46.1802 162.07 46.2002 162.07 46.2302C162.11 46.3702 162.1 46.5602 161.92 46.5902C161.64 47.3102 160.75 47.6302 160.61 48.4402C160.64 48.9602 161.12 49.3102 161.27 49.8002C161.44 50.1902 161.32 50.7402 160.89 50.8902C160.39 51.0902 159.89 50.8502 159.41 50.7802C159.12 50.8902 158.9 51.2102 158.82 51.5102C158.79 52.4802 159.93 52.8702 160.39 53.5802C160.65 54.1102 160.26 54.4802 160.06 54.9302C159.81 55.5202 159.93 56.1502 159.82 56.7602C159.46 57.8002 158.77 57.8102 158.15 57.8102C157.95 57.8102 157.77 57.8102 157.6 57.8402C157.5 57.8602 157.41 57.8802 157.33 57.9202L157.32 57.8902ZM150.08 51.1902C150.08 51.1902 150.08 51.2102 150.08 51.2302C149.77 52.2902 149.37 53.2902 148.73 54.1902C146.71 56.9002 144.06 59.3702 143.32 62.8002C143.03 64.1202 143.2 66.8202 145.1 66.5502C145.87 66.3402 146.34 65.6002 146.87 65.0502C147.31 64.5502 147.86 64.1402 148.49 63.9102C149.39 63.4702 150.52 63.4702 151.63 63.4702C153.05 63.4702 154.45 63.4702 155.38 62.5802C156.34 61.2402 155.3 59.4702 155.89 58.0002C156.03 57.3402 156.56 56.8602 157.21 56.7002C157.6 56.5802 157.99 56.6002 158.39 56.5902C158.53 56.5902 158.68 56.4702 158.68 56.3202C158.69 55.4602 158.82 54.5002 159.45 53.8502C158 52.8102 157.07 51.2502 158.96 50.0702C159.45 49.7602 159.99 50.1002 160.51 50.1002C160.35 49.7302 160.05 49.4402 159.91 49.0602C159.56 48.3202 160.04 47.5502 160.55 47.0102C160.74 46.8002 160.98 46.6402 161.13 46.4002C161.23 46.1602 161.24 45.8902 161.28 45.6402C161.02 45.0502 160.36 44.6802 159.79 44.4802C159.17 44.2802 158.56 43.9902 157.9 43.9602C155.66 43.7602 154.88 45.2602 154.13 47.0602C153.59 48.1302 152.84 49.1802 151.84 49.8602C151.4 50.0802 150.96 50.1702 150.63 50.3902C150.7 50.4602 150.74 50.5502 150.75 50.6502C150.77 50.8402 150.68 51.0202 150.52 51.1102C150.41 51.1702 150.28 51.1902 150.16 51.1602C150.14 51.1602 150.12 51.1702 150.1 51.1802L150.08 51.1902Z" fill="black"/>
<path d="M162.4 48.2904C162.75 48.1904 163.05 48.6304 162.82 48.9104C162.58 49.1804 162.44 49.5304 162.4 49.8804C162.39 49.9204 162.34 49.9504 162.3 49.9404C161.83 49.6804 161.89 48.4704 162.4 48.2904Z" fill="black"/>
<path d="M163.801 49.2404C164.161 49.5304 163.811 50.1604 163.381 49.8804C162.961 49.6204 163.391 48.9504 163.801 49.2404Z" fill="black"/>
<path d="M82.6796 136.82C82.6996 136.73 82.7496 136.67 82.8096 136.62C82.5496 136.16 82.2596 135.72 82.0096 135.26C81.3496 133.94 80.8296 132.51 80.5896 131.05C79.9496 132.86 78.9696 134.56 78.1196 136.27C77.3596 138.12 76.4396 139.94 76.0696 141.91C77.1096 141.12 77.4696 139.75 78.2596 138.76C78.4596 138.47 78.9196 138.76 78.7496 139.06C78.6196 139.3 78.4796 139.54 78.3396 139.78C78.1496 140.06 77.9196 140.52 77.6396 140.98C77.6396 140.99 77.6396 141 77.6296 141.02C77.3796 141.98 77.1896 143.01 78.2096 141.64C78.6096 141.05 78.8796 140.39 79.1996 139.76C79.3696 139.45 79.5196 139.13 79.6496 138.8C79.7096 138.66 79.8596 138.59 79.9996 138.64C80.1396 138.69 80.2096 138.85 80.1596 138.99C80.0196 139.3 79.8396 139.78 79.6196 140.3C79.5596 140.96 79.3896 141.63 79.5196 142.28C80.2296 141.64 80.4196 140.62 80.8796 139.81C80.8796 139.8 80.8896 139.79 80.8996 139.78C80.8996 139.68 80.8796 139.58 80.8796 139.49C80.8496 139.23 80.8296 138.97 80.7296 138.74C80.6796 138.53 80.9796 138.4 81.1096 138.57C81.4096 139.13 81.3596 139.91 81.8996 140.34C82.4696 139.26 82.3996 137.99 82.6896 136.82H82.6796ZM93.8996 179.85C93.8996 179.85 93.8396 179.78 93.7996 179.76C93.1196 179.55 92.3896 179.66 91.6996 179.74C91.1996 179.76 90.6696 179.82 90.1996 179.61C89.8196 179.36 89.4896 179 89.2496 178.61C88.9696 178.11 88.7796 177.58 88.5496 177.06C88.2696 177.17 87.9696 177.18 87.6696 177.26C87.6096 177.28 87.5396 177.29 87.4796 177.31C87.6796 178.1 87.9896 178.84 88.2796 179.59C88.5096 180.18 88.7596 180.86 89.3396 181.18C89.7496 181.41 90.2096 181.54 90.6696 181.65C90.7996 181.68 90.8896 181.8 90.8796 181.94C90.8796 182.01 90.8396 182.07 90.7796 182.12C90.7796 182.12 90.7796 182.12 90.7896 182.12C91.2696 181.92 91.7696 181.76 92.2296 181.51C92.8896 181.11 93.5796 180.54 93.8996 179.84V179.85ZM56.4896 90.88C55.8196 91.43 55.1996 92.03 54.6596 92.6C54.0696 93.24 53.5196 93.9 53.0096 94.6C52.4996 95.32 52.0396 96.08 51.6196 96.86C51.2796 97.49 50.9796 98.14 50.7196 98.81C50.4796 99.46 50.2696 100.12 50.0996 100.78C49.9496 101.41 49.8296 102.05 49.7596 102.7C49.6896 103.36 49.6696 104.02 49.6796 104.68C49.6996 105.5 49.7696 106.33 49.8996 107.15C50.0296 107.92 50.1896 108.67 50.4096 109.42C50.6496 110.21 50.9396 110.99 51.2696 111.72L51.2896 111.77C51.5996 112.43 51.9396 113.08 52.3196 113.7C52.7096 114.32 53.1396 114.91 53.5996 115.48C54.0596 116.03 54.5496 116.55 55.0796 117.05L55.1396 117.11C55.6896 117.61 56.2596 118.08 56.8696 118.52C57.5396 118.99 58.2396 119.42 58.9596 119.81C59.5596 120.13 60.1696 120.41 60.7996 120.65C61.4896 120.91 62.1996 121.12 62.9196 121.29C63.6496 121.46 64.3896 121.59 65.0596 121.66C65.8596 121.75 66.6596 121.78 67.4596 121.77C68.2396 121.75 69.0096 121.69 69.7696 121.57C70.4796 121.46 71.1696 121.28 71.8596 121.08C72.5196 120.88 73.1496 120.64 73.7696 120.37C73.7696 120.37 73.7896 120.37 73.7996 120.36H73.8296C74.4796 120.05 75.1096 119.73 75.7096 119.36C76.4196 118.92 77.0996 118.42 77.7396 117.89C78.3096 117.42 78.8496 116.91 79.3596 116.37C79.8096 115.88 80.2296 115.37 80.6196 114.84C81.0896 114.18 81.5096 113.48 81.8596 112.83L81.9096 112.74C82.2296 112.14 82.5096 111.52 82.7496 110.9C82.7496 110.89 82.7496 110.88 82.7596 110.86V110.84C83.0796 110 83.3396 109.14 83.5596 108.27C83.7096 107.62 83.8396 106.97 83.9196 106.3C83.9896 105.62 84.0096 104.93 83.9996 104.27C83.9996 104.25 83.9996 104.23 83.9996 104.2C83.9796 103.45 83.9196 102.71 83.8196 102.05C83.8196 102.01 83.8096 101.97 83.7996 101.95V101.92V101.89H83.7896C83.6896 101.26 83.5496 100.64 83.3796 100.08C83.3796 100.06 83.3696 100.04 83.3596 100.02C83.2296 99.61 83.0896 99.21 82.9396 98.81C82.7896 98.39 82.6196 97.97 82.4596 97.63C82.1496 96.96 81.8096 96.3 81.4196 95.67C80.9896 94.99 80.4996 94.36 79.9996 93.76L79.9696 93.73C79.5596 93.23 79.0996 92.78 78.6296 92.33C78.0296 91.78 77.3996 91.28 76.7496 90.81C76.1196 90.36 75.4696 89.96 74.7996 89.6C74.1696 89.27 73.5196 88.96 72.9296 88.73C72.0696 88.4 71.1996 88.12 70.3396 87.91C69.7196 87.76 69.0996 87.66 68.4696 87.59C67.8696 87.53 67.2596 87.49 66.6896 87.5C66.6696 87.5 66.6396 87.5 66.6196 87.5C65.8396 87.52 65.0596 87.6 64.3196 87.71H64.2496C63.3696 87.86 62.5096 88.07 61.6696 88.32C61.2196 88.45 60.7796 88.6 60.3396 88.75C59.8696 88.92 59.3996 89.08 58.9996 89.26M87.1796 102.21C87.5796 101.79 88.0096 101.4 88.4696 101.04C87.1096 100.91 85.8196 100.44 84.5096 100.1C84.6696 100.74 84.7996 101.38 84.8996 102.03C85.0296 102.9 85.0996 103.77 85.0996 104.64C85.0996 104.64 85.0996 104.65 85.0996 104.66C85.6496 103.74 86.3696 102.92 87.1896 102.2L87.1796 102.21ZM90.2496 113.1C90.2496 113.1 90.1796 113.14 90.1496 113.17C89.8196 113.4 89.5096 113.67 89.1496 113.86C87.9696 114.5 86.7396 115.13 85.3996 115.36C84.1596 115.55 82.9096 115.5 81.6596 115.49C81.6396 115.55 81.5896 115.54 81.5396 115.52C81.2996 115.83 81.0596 116.14 80.7996 116.44C80.5496 116.73 80.2896 117.01 80.0296 117.28C79.9196 117.39 79.8096 117.5 79.7096 117.61C81.2796 117.62 82.8496 117.84 84.4196 117.78C86.4596 117.74 88.4996 117.36 90.2996 116.37C90.3496 116.35 90.4096 116.34 90.4496 116.34C90.4296 116.1 90.4196 115.86 90.4096 115.62C90.4096 114.78 90.3296 113.93 90.2496 113.1ZM93.9396 133.58C93.8796 133.34 93.8196 133.11 93.7496 132.88C93.2396 130.83 92.5496 128.86 92.0596 126.82C91.3196 123.67 90.7696 120.48 90.4996 117.26C90.3596 117.36 90.2196 117.44 90.0696 117.52C88.4696 118.38 86.6496 118.82 84.8596 119.04C83.7696 119.19 82.6596 119.14 81.5896 118.93C81.5496 119.82 81.5696 120.71 81.5496 121.6C81.5096 122.4 81.4996 123.19 81.5196 123.98C81.4896 124.71 81.4896 125.52 81.9696 126.12C82.6596 126.92 83.6096 127.43 84.4496 128.05C86.3596 129.37 88.4296 130.45 90.4296 131.63C91.3596 132.18 93.8396 133.55 93.9396 133.58ZM94.5496 137.49C94.5196 136.53 94.3796 135.57 94.1796 134.63C94.1796 134.63 94.1696 134.63 94.1596 134.62C94.0896 134.55 89.4296 132.11 88.5896 131.65C86.2696 130.38 83.9496 129.04 81.8996 127.38C81.7296 127.25 81.5896 127.11 81.4596 126.96C81.3496 127.53 81.2796 128.06 81.2496 128.63C81.1696 130.69 81.9296 132.62 82.8796 134.39C83.7896 135.73 84.6796 137.16 84.6996 138.84C84.8796 141.54 84.1596 144.2 83.9896 146.88C83.4596 151.8 82.7796 156.73 82.8496 161.68C82.8496 164.02 83.0296 166.35 83.4096 168.66C83.7896 171.4 84.5396 174.61 87.0796 176.14C87.5996 176.04 88.1396 176.05 88.5696 175.71C88.8096 171.42 90.3196 167.36 91.3096 163.22C92.0896 159.73 92.7696 156.22 93.4596 152.71C94.1696 148.2 94.5896 143.61 94.5696 139.06C94.5696 138.93 94.6196 138.82 94.7096 138.76C94.6496 138.29 94.6296 137.83 94.5796 137.5L94.5496 137.49ZM90.2896 99.85C90.5396 99.71 90.8296 99.59 91.1396 99.48C90.7896 99.38 90.4496 99.23 90.1096 99.14C88.7396 98.73 87.3596 98.33 85.9496 98.09C85.1696 97.93 84.4096 97.69 83.6396 97.49C83.7596 97.78 83.8796 98.06 83.9896 98.36C84.1396 98.77 84.2596 99.18 84.3696 99.6C84.3896 99.67 84.4096 99.73 84.4196 99.8C85.7696 99.76 87.1596 99.71 88.4696 100.08C88.6996 100.19 89.0296 100.22 89.1696 100.47C89.1696 100.49 89.1896 100.5 89.1896 100.51C89.5396 100.27 89.9096 100.05 90.2896 99.86V99.85ZM90.6896 86.23C90.8796 86.06 91.0796 85.91 91.2896 85.77C90.8396 84.78 90.0696 83.87 88.9896 83.57C87.3196 83.23 85.4996 84.85 84.7996 86.27C84.2796 87.29 84.6796 88.49 85.2196 89.42C85.8396 90.13 86.8296 90.48 87.7596 90.56C88.1996 88.88 89.4796 87.23 90.6796 86.23H90.6896ZM97.5296 108.85C97.9896 106.19 98.7696 103.02 96.9196 100.71C96.8596 100.61 96.7396 100.52 96.6396 100.43C95.2396 99.8 93.5396 99.95 92.1096 100.43C89.3596 101.51 87.5296 103.99 85.5696 106.08C85.3496 106.34 85.1396 106.61 84.9796 106.9C84.9796 106.95 84.9696 107 84.9596 107.05C84.8896 107.74 84.7796 108.42 84.6196 109.1C84.4596 109.78 84.2496 110.45 83.9996 111.11C83.6896 111.93 83.2996 112.72 82.8796 113.5C82.5496 114.1 82.1796 114.67 81.7696 115.22C84.3496 114.68 87.1196 114.46 89.3096 112.85C89.5596 112.65 89.8196 112.46 90.0996 112.3C90.1196 112.29 90.1496 112.28 90.1696 112.27C90.0796 111.29 89.9896 110.3 89.9796 109.32C89.8396 107.85 90.1396 106.4 90.1996 104.93C90.0996 104.64 90.3696 104.33 90.6696 104.39C90.9296 104.43 91.0996 104.74 90.9796 104.98C90.9996 105.19 91.0296 105.4 91.0496 105.61C91.3896 107.71 91.2396 109.83 91.2296 111.95C91.4396 115.72 91.7596 119.54 92.4796 123.24C93.1196 126.81 94.2196 130.27 95.0696 133.79C95.5196 135.5 95.5896 137.26 95.7896 139C95.9696 138.4 96.2096 137.76 96.1596 137.12C96.1696 136.71 95.9096 135.95 96.5396 135.92C96.7596 135.92 96.9296 136.12 96.9296 136.34C96.9096 137.03 96.8496 137.77 96.6796 138.44C96.7696 138.95 96.9196 139.45 97.0796 139.92C97.4396 138.9 97.5296 137.78 97.4396 136.71C97.4096 136.26 98.0896 136.19 98.1396 136.65C98.1996 137.1 98.1796 138.56 97.9096 139.64C97.9096 139.99 97.9096 140.3 97.9896 140.37C98.1096 140.34 98.1996 140.17 98.2496 140.09C98.7996 139.16 98.8996 138.06 98.8196 137.01C98.8296 136.53 99.5796 136.51 99.6096 136.99C99.6496 137.9 99.4796 138.81 99.1396 139.65C99.1896 139.73 99.1896 139.82 99.1096 139.9C99.1096 139.92 99.1096 139.94 99.1096 139.95C99.1296 140.27 99.3296 140.81 99.7096 140.63C100.35 140.14 100.42 139.18 100.53 138.47C100.75 137.04 100.16 135.67 99.9896 134.27C99.7696 132.54 99.1696 130.92 98.5296 129.31C98.3696 129.23 98.2196 129.14 98.1696 128.96C98.1396 128.85 98.1696 128.72 98.2496 128.63C98.0096 128.03 97.7696 127.44 97.5496 126.83C96.6896 124.36 95.7396 121.82 95.7596 119.18C96.0996 115.72 96.7196 112.28 97.5096 108.89L97.5296 108.85ZM99.6196 116.51C99.4696 113.37 99.5096 110.17 98.9696 107.07C98.7496 108.73 98.3196 110.36 97.9696 111.99C97.5096 114.01 97.1996 116.06 96.9596 118.11C96.6196 120.5 97.3996 122.82 98.2196 125.03C98.6996 126.31 99.0996 127.62 99.4896 128.93C99.5996 128.99 99.6996 129.05 99.7996 129.11C99.6696 127.46 99.6796 125.81 99.7096 124.15C99.7096 121.6 99.6496 119.05 99.6196 116.51ZM111.39 165.92C110.73 165.92 109.95 165.88 109.52 165.3C109.33 165.16 109.04 164.06 109.03 163.36C108.79 163.41 107.93 163.46 107.78 163.45C108.01 164.52 108.04 166.52 109.39 167.63C109.61 167.88 110.27 167.2 110.74 167.07C111.42 166.81 112.76 166.87 112.76 166.18C112.76 165.49 111.84 165.92 111.38 165.92H111.39ZM99.1996 88.09C99.4696 87.96 99.7996 87.91 100.02 87.72C99.2896 86.65 98.0196 85.93 96.7696 85.67C95.6496 85.58 94.4796 85.48 93.3796 85.74C90.9596 86.46 89.0396 88.57 88.4296 90.99C88.0596 93.23 90.0996 96.92 92.5596 97.03C92.9896 96.78 92.9696 96.29 92.9296 95.86C92.8396 95.09 92.6796 94.32 92.7596 93.54C92.8096 92.69 93.4896 92.03 94.2796 91.8C94.7296 91.64 95.2796 91.54 95.7096 91.82C96.1896 92.13 96.4796 92.62 96.6996 93.13C97.0496 92.33 96.8496 91.46 97.0396 90.64C97.2896 89.49 98.1096 88.53 99.2096 88.11L99.1996 88.09ZM101.12 92.35C101.1 92.25 101.08 92.14 101.05 92.04C101.02 91.94 100.99 91.85 100.95 91.76C100.91 91.68 100.87 91.6 100.82 91.52C100.78 91.46 100.74 91.4 100.7 91.35C100.65 91.3 100.6 91.24 100.55 91.19C100.51 91.15 100.47 91.12 100.43 91.09C100.4 91.07 100.36 91.05 100.33 91.02C100.29 91 100.25 90.98 100.2 90.96C100.17 90.95 100.13 90.94 100.1 90.93C100.07 90.93 100.03 90.92 99.9996 90.91C99.9696 90.91 99.9396 90.91 99.9096 90.91C99.8596 90.91 99.8196 90.91 99.7896 90.92H99.7796C99.7796 90.92 99.7096 90.93 99.6996 90.94C99.6696 90.94 99.6496 90.94 99.6296 90.95C99.6196 90.95 99.5996 90.95 99.5896 90.97C99.5896 90.97 99.5296 91.02 99.4896 91.03C99.4896 91.03 99.4496 91.06 99.4396 91.07C99.3796 91.12 99.3296 91.17 99.2796 91.22C99.2296 91.27 99.1796 91.33 99.1396 91.39C99.0896 91.46 99.0396 91.53 98.9996 91.61C98.9596 91.69 98.9196 91.78 98.8796 91.86C98.8396 91.96 98.8096 92.07 98.7796 92.17C98.7496 92.29 98.7296 92.42 98.7096 92.54C98.6896 92.69 98.6896 92.83 98.6896 92.97C98.6896 93.1 98.6996 93.23 98.7196 93.36C98.7396 93.46 98.7596 93.56 98.7796 93.66C98.8096 93.76 98.8496 93.86 98.8896 93.95C98.9196 94.02 98.9596 94.09 98.9896 94.15C99.0396 94.22 99.0896 94.3 99.1396 94.37C99.1796 94.42 99.2196 94.46 99.2696 94.51C99.3096 94.54 99.3496 94.58 99.3796 94.61C99.4096 94.63 99.4496 94.66 99.4896 94.68C99.5296 94.7 99.5596 94.72 99.5996 94.74C99.6396 94.75 99.6796 94.77 99.7196 94.78C99.7496 94.78 99.7896 94.8 99.8196 94.8C99.8496 94.8 99.8796 94.8 99.9096 94.8C99.9396 94.8 99.9796 94.8 100.02 94.8C100.06 94.8 100.1 94.78 100.14 94.77C100.18 94.76 100.22 94.74 100.26 94.73C100.29 94.71 100.32 94.7 100.36 94.68C100.39 94.66 100.42 94.63 100.45 94.61C100.5 94.57 100.55 94.52 100.57 94.51C100.63 94.45 100.68 94.38 100.74 94.31C100.78 94.25 100.82 94.19 100.86 94.14C100.91 94.05 100.95 93.97 100.98 93.88C101.02 93.78 101.05 93.68 101.08 93.58C101.11 93.47 101.13 93.35 101.15 93.23C101.17 93.09 101.17 92.96 101.17 92.84C101.17 92.84 101.17 92.83 101.17 92.82C101.17 92.68 101.16 92.53 101.14 92.39L101.12 92.35ZM101.48 91.53C101.48 91.36 101.48 91.19 101.46 91.02C101.28 90.04 100.86 89.17 100.44 88.3C99.9896 88.68 99.1596 88.93 98.7696 89.24C98.1896 89.7 97.7996 90.39 97.7196 91.12C97.7196 91.56 97.7596 92 97.7196 92.43C97.8996 92.43 98.0896 92.43 98.2396 92.46C98.2896 92.17 98.3796 91.88 98.5096 91.61C98.6896 91.26 98.9396 90.92 99.2896 90.73C99.2896 90.73 99.2996 90.71 99.3096 90.7C99.3396 90.67 99.3796 90.66 99.4196 90.65C99.4796 90.62 99.5296 90.59 99.5896 90.56C99.7396 90.49 99.9096 90.47 100.07 90.47C100.59 90.47 101.03 90.8 101.31 91.22C101.37 91.32 101.43 91.41 101.48 91.52V91.53ZM102.39 94.11C103.12 93.65 103.21 92.76 103.02 91.98C102.95 91.57 102.86 90.94 102.35 90.88C102.18 90.92 102.06 91.02 101.95 91.14C101.96 91.68 101.93 92.29 101.95 93.11C101.95 93.49 102.14 93.8 102.34 94.12C102.36 94.12 102.38 94.11 102.4 94.11H102.39ZM112.21 143.84C112.12 142.63 112.03 141.42 111.71 140.25C111.61 139.89 111.56 139.51 111.46 139.15C111.33 138.9 111.14 138.68 110.97 138.46C109.96 137.24 108.71 136.26 107.45 135.33C106.15 134.36 104.84 133.4 103.5 132.48C102.6 131.87 101.69 131.29 100.78 130.7C100.85 131.65 100.82 132.6 100.77 133.55C100.77 133.67 100.77 133.87 100.76 134.02C100.82 134.37 100.87 134.72 100.92 135.07C101.02 135.78 101.32 136.45 101.38 137.17C101.5 138.37 101.15 141.95 99.3296 141.36C98.9796 141.2 98.8296 140.85 98.7596 140.49C98.5796 140.81 98.3196 141.07 97.9196 141.07C97.6396 141.06 97.4696 140.91 97.3796 140.7C97.1896 140.87 96.9696 140.93 96.6896 140.81C96.4896 140.58 96.3696 140.25 96.2996 139.88C96.2396 140.01 96.1696 140.13 96.0596 140.24C95.8896 140.41 95.6496 140.53 95.4096 140.43C95.4096 140.68 95.3996 140.92 95.3896 141.17C95.9996 141.27 96.9396 141.76 97.1896 141.81C103.4 143.67 101.93 144.26 103.25 149.8C104 152.73 104.66 155.69 105.37 158.63C105.66 159.66 105.77 160.8 106.4 161.7C107.05 162.24 108.02 162.19 108.82 162.19C109 162.19 109.18 162.16 109.34 162.1C109.56 161.99 109.66 161.76 109.78 161.56C110.18 160.72 110.57 159.85 110.81 158.95C111.49 156.09 111.86 153.16 112.19 150.25C112.38 148.12 112.45 145.99 112.2 143.86L112.21 143.84ZM112.23 138.55C113.07 140.34 113.3 142.34 113.4 144.3C113.55 146.88 113.44 149.48 113.1 152.03C112.55 155.11 112.35 158.31 111.07 161.2C110.7 162.21 110.28 162.86 109.53 163.19C110.29 166.03 112.01 164.01 113.53 165.54C114.37 166.54 112.98 167.48 112.07 167.69C111.23 167.89 110.41 168.19 109.58 168.37C109.15 168.42 108.35 167.55 108.26 167.5C107.86 167.32 107.29 164.54 107.31 163.39C106.56 163.27 105.82 162.92 105.42 162.29C104.63 160.94 104.47 159.33 104.01 157.86C103.23 154.95 102.4 152.05 101.75 149.11C100.78 144.43 101.87 145.07 97.3296 143.02C96.6396 142.7 96.0196 142.23 95.3596 141.84C95.2296 145.99 94.9696 150.13 94.2996 154.23C93.6696 157.44 93.1196 160.67 92.3996 163.87C91.8696 165.99 91.2496 168.09 90.6496 170.19C90.2296 171.94 89.6296 173.67 89.4896 175.48C89.4696 175.78 89.5596 176.12 89.3196 176.36C89.1796 176.5 89.0296 176.63 88.8796 176.76C88.9296 176.83 88.9796 176.9 89.0196 176.96C89.4496 177.7 89.9496 178.44 90.6596 178.93C91.5196 179.13 92.3896 178.83 93.2596 178.94C96.3596 179.21 92.9996 182.25 91.6196 182.57C91.2896 182.65 90.7796 183 90.5596 182.58C90.4896 182.44 90.5296 182.24 90.6596 182.14C90.6196 182.16 90.5796 182.16 90.5296 182.16C89.3596 182.02 88.2596 181.49 87.8796 180.3C87.5196 179.36 87.1596 178.37 87.0296 177.37C87.0096 177.37 86.9796 177.37 86.9596 177.37C85.9896 177.28 85.2196 176.48 84.6096 175.78C83.3896 174.29 82.8396 172.43 82.4696 170.57C81.5396 166.24 81.3596 161.81 81.5796 157.4C81.7996 153.6 82.2296 149.82 82.6696 146.04C82.7896 144.94 82.9296 143.85 83.0696 142.75C83.2996 141.05 83.6096 139.26 83.1696 137.57C83.0096 139 83.0096 141.53 81.6896 141.28C81.4196 141.21 81.2296 141.04 81.1096 140.83C80.7796 141.71 80.4996 143.01 79.4196 143.14C78.6696 143.07 78.6996 142.38 78.8396 141.75C78.4396 142.41 77.9696 142.91 77.4396 142.94C76.9196 142.88 76.8196 142.47 76.9096 141.96C76.5596 142.37 76.1696 142.66 75.7596 142.62C74.1196 142.22 76.6996 138.23 77.0396 137.29C78.0696 134.94 79.4896 132.76 80.4496 130.38C80.3796 129.71 80.3896 129.03 80.4696 128.35C80.4996 128 80.7596 126.89 81.0596 126.37C80.6696 125.61 80.5696 124.7 80.5996 123.85C80.5196 122.47 80.5596 121.08 80.6296 119.7C80.6496 119.51 80.6796 119.1 80.7596 118.71C80.5396 118.65 80.3296 118.59 80.1096 118.51C79.7396 118.41 79.3696 118.33 79.0096 118.23C78.7596 118.45 78.4996 118.67 78.2396 118.88C77.6196 119.38 76.9596 119.82 76.2796 120.22C75.6196 120.61 74.9496 120.97 74.2496 121.28C72.8296 121.91 71.3296 122.36 69.7996 122.64C69.7196 122.65 69.6396 122.67 69.5596 122.68C68.0796 122.93 66.5796 123 65.0796 122.88C64.1896 122.81 63.2896 122.67 62.4196 122.46C61.5896 122.26 60.7696 122 59.9796 121.69C59.3296 121.44 58.6796 121.15 58.0596 120.83C57.3596 120.47 56.6996 120.07 56.0996 119.64C56.0796 119.63 56.0696 119.62 56.0496 119.6C56.0496 119.6 56.0396 119.59 56.0296 119.59C54.6496 118.6 53.4096 117.43 52.3496 116.1C51.8096 115.43 51.3196 114.72 50.8696 113.98C50.4396 113.27 50.0696 112.53 49.7396 111.77C49.3896 110.97 49.1096 110.14 48.8896 109.3C48.6696 108.46 48.5096 107.6 48.4196 106.74C48.3296 105.89 48.2996 105.04 48.3296 104.18C48.3696 103.3 48.4596 102.42 48.5996 101.54C48.8796 99.8 49.4096 98.09 50.1496 96.5C50.8996 94.91 51.9296 93.46 53.1396 92.19C54.3196 90.95 55.7296 89.92 57.2296 89.1C57.3096 89.06 57.3896 89.01 57.4696 88.97C57.9996 88.63 58.5396 88.32 59.0996 88.03C59.7696 87.68 60.4496 87.38 61.1596 87.14C61.2996 87.09 61.4396 87.05 61.4996 87.03C63.1396 86.54 64.8596 86.31 66.5796 86.32C67.3496 86.32 68.1096 86.36 68.8696 86.44C69.6396 86.53 70.4096 86.65 71.1696 86.82C72.8096 87.19 74.3896 87.81 75.8496 88.64C77.3296 89.47 78.6996 90.53 79.8596 91.76C80.4396 92.38 81.0096 93.02 81.4996 93.71C81.9696 94.38 82.4096 95.08 82.8096 95.8C82.9696 96.08 83.1096 96.37 83.2496 96.64C84.1196 96.71 84.9796 96.79 85.8396 96.94C86.9696 97.05 88.0796 97.3 89.1596 97.65C89.4096 97.72 90.7996 98.18 91.5996 98.66C91.5996 98.36 91.6496 98.05 91.7096 97.75C89.4696 97.27 87.9896 94.17 87.6196 92.15C87.5796 91.84 87.5896 91.52 87.6196 91.2C87.5896 91.2 87.5596 91.21 87.5296 91.21C86.5696 91.23 85.5796 90.76 84.8796 90.12C84.2196 89.36 83.8696 88.2 83.8596 87.2C83.9996 85.45 85.4196 83.99 86.8996 83.18C88.9696 82 91.0196 83.47 91.8396 85.41C92.9096 84.86 94.1596 84.64 95.3396 84.81C97.3096 84.73 99.2796 85.61 100.5 87.15C100.73 87.46 100.77 87.71 100.68 87.92C101.59 89.15 101.85 89.87 101.91 90.74C102.22 90.45 102.66 90.4 103.03 90.87C103.74 91.8 103.79 93.36 102.85 94.16C102.77 94.24 102.64 94.37 102.52 94.46C102.9 95.19 103.15 96.3 102.26 96.57C102.48 98.28 100.54 99.93 98.9096 99.98C97.8696 99.98 96.8996 99.4 96.2796 98.59C96.2496 98.56 96.2496 98.5 96.2896 98.48C96.4096 98.46 96.5496 98.62 96.6596 98.66C97.5196 99.09 98.5496 99.31 99.5096 99.09C100.57 98.76 101.43 97.84 101.74 96.78C101.75 96.74 101.76 96.69 101.76 96.64C101.63 96.65 101.5 96.66 101.37 96.65C101.13 96.64 101.01 96.32 101.18 96.15C101.44 95.94 101.82 96.13 102.12 96.02C102.37 96.01 102.31 95.75 102.27 95.58C102.18 94.99 101.78 94.53 101.53 94.01C101.53 94.03 101.52 94.04 101.51 94.06C101.46 94.18 101.41 94.3 101.34 94.41C101.23 94.61 101.09 94.8 100.92 94.95C100.75 95.1 100.55 95.23 100.34 95.31C100.27 95.33 100.2 95.35 100.13 95.37C99.9796 95.4 99.8196 95.4 99.6696 95.37C99.4196 95.33 99.1896 95.21 98.9996 95.05C98.7096 94.81 98.5096 94.48 98.3796 94.13C98.2396 93.78 98.1796 93.4 98.1796 93.03C97.9796 93.03 97.7896 92.96 97.6096 92.88C97.5996 92.93 97.5796 92.98 97.5596 93.03C97.4196 93.43 97.2596 94 96.7496 94.02C96.5896 94.04 96.4296 93.93 96.3196 93.82C95.9296 93.36 95.8296 92.62 95.2396 92.34C95.0796 92.28 94.8996 92.33 94.7396 92.36C94.3196 92.47 93.9496 92.61 93.6796 92.94C92.7896 94.24 94.4496 96.23 93.0696 97.32C92.9596 97.6 92.6696 97.73 92.3796 97.78C92.3796 98.27 92.2596 98.89 92.2296 99.13C93.8796 98.78 95.8096 98.88 96.8796 99.92C98.2496 100.83 98.8296 102.29 99.0096 103.84C99.2996 104.79 99.5696 105.75 99.7696 106.72C100.17 108.63 100.22 110.59 100.36 112.53C100.56 116.05 100.67 119.57 100.63 123.08C100.63 125.26 100.51 127.44 100.67 129.61C101.7 130.23 102.73 130.88 103.73 131.55C105.42 132.7 107.06 133.93 108.7 135.14C110.01 136.1 111.27 137.19 112.21 138.52L112.23 138.55Z" fill="black"/>
<path d="M98.2 129.53C97.03 129.67 95.84 129.7 94.68 129.48C94.2 129.41 93.76 129.09 93.29 129.08C93.2 129.08 93.12 129 93.11 128.91C93.09 128.57 93.54 128.67 93.75 128.66C94.4 128.71 95.16 128.64 95.78 128.7C96.86 128.73 97.89 128.83 98.94 128.61C99.25 128.64 99.4 129.03 99.19 129.25C98.93 129.49 98.53 129.46 98.21 129.52L98.2 129.53Z" fill="black"/>
<path d="M97.4597 126.27C96.3397 126.3 95.2197 126.31 94.1097 126.16C93.7797 126.14 93.4497 126.05 93.1297 126.1C93.0497 126.1 92.9597 126.1 92.8997 126.07C92.7097 125.97 92.8797 125.67 93.0597 125.8C93.7797 125.65 94.5097 125.77 95.2297 125.8C95.7897 125.77 96.3697 125.8 96.9097 125.77C97.1997 125.77 97.5197 125.58 97.7897 125.73C98.0797 125.98 97.7897 126.3 97.4697 126.26L97.4597 126.27Z" fill="black"/>
<path d="M97.581 126.31C96.361 126.36 95.121 126.4 93.901 126.28C93.591 126.22 93.251 126.15 92.971 126.03C92.881 126 92.791 125.94 92.791 125.83C92.801 125.3 94.741 125.77 95.201 125.68C95.961 125.68 96.741 125.71 97.491 125.61C97.641 125.59 97.801 125.56 97.941 125.61C98.241 125.71 98.231 126.17 97.921 126.26C97.811 126.29 97.691 126.29 97.571 126.3L97.581 126.31Z" fill="black"/>
<path d="M96.9201 128.02C96.1301 128.13 96.1501 126.66 96.8801 126.91C97.6101 126.67 97.5701 128.02 96.9201 128.02ZM96.9701 127.71C97.5001 127.45 96.9701 126.97 96.7201 127.16C96.5601 127.28 96.5201 127.9 96.9701 127.71Z" fill="black"/>
<path d="M82.6013 135.2C81.6213 134.66 80.6813 134.02 79.7413 133.41C79.5913 133.32 79.2413 133.17 79.4613 132.97C79.5313 132.93 79.6113 132.95 79.6513 133C80.3813 133.32 81.1813 133.46 81.8913 133.81C82.2713 134.02 83.4213 134.53 83.0813 135.08C82.9713 135.24 82.7613 135.28 82.5913 135.2H82.6013Z" fill="black"/>
</g>
</g>
<defs>
<clipPath id="clip0_1828_5540">
<rect width="476" height="205" fill="white"/>
</clipPath>
</defs>
</svg>
