<svg width="40" height="32" viewBox="0 0 32 32" fill="none" xmlns="http://www.w3.org/2000/svg">
<g clip-path="url(#clip0_659_20891)">
<path d="M25.2573 19.9592C28.5057 19.9592 31.1432 17.3143 31.1432 14.0659C31.1432 11.0484 28.8559 8.55993 25.9278 8.22466C25.9204 7.85958 25.8831 7.50195 25.831 7.15178C25.7714 6.7867 25.4286 6.53339 25.0636 6.59299C24.6985 6.65259 24.4452 6.99532 24.5048 7.36039C24.5644 7.72547 24.5942 8.098 24.5942 8.47797C24.5942 8.59718 24.5942 8.70894 24.5942 8.8207C24.5867 9.00696 24.6538 9.18577 24.7804 9.31243C24.9071 9.44654 25.0859 9.52105 25.2647 9.52105C27.7681 9.52105 29.8095 11.555 29.8095 14.0584C29.8095 16.5618 27.7681 18.6107 25.2647 18.6107H4.76088C2.8759 18.6107 1.34109 17.0684 1.34109 15.1834C1.34109 13.3879 2.74179 11.8903 4.52992 11.7711C4.87264 11.7488 5.14831 11.4656 5.15576 11.1229C5.23772 8.41092 7.51013 6.20556 10.2221 6.19811C10.4978 6.19811 10.7362 6.0342 10.8405 5.78088C11.9432 3.08379 14.536 1.33292 17.4491 1.33292C18.9541 1.33292 20.3921 1.79485 21.614 2.67401C21.912 2.89008 22.3367 2.82302 22.5527 2.51755C22.7688 2.21953 22.7017 1.79485 22.3963 1.57879C20.9434 0.535714 19.2373 -0.015625 17.4491 -0.015625C14.1336 -0.015625 11.1683 1.88426 9.77509 4.86447C6.73527 5.08798 4.22445 7.48705 3.85937 10.4971C1.65402 10.9217 0 12.8738 0 15.176C0 17.806 2.1383 19.9443 4.76088 19.9443H14.901V23.7515H5.51339C5.14086 23.7515 4.84284 24.0496 4.84284 24.4221V27.1788C3.81467 27.4694 3.05471 28.4081 3.05471 29.5257C3.05471 30.8817 4.15739 31.9844 5.51339 31.9844C6.86938 31.9844 7.97206 30.8817 7.97206 29.5257C7.97206 28.4081 7.21211 27.4694 6.18394 27.1788V25.0926H14.901V27.1788C13.8729 27.4694 13.1129 28.4081 13.1129 29.5257C13.1129 30.8817 14.2156 31.9844 15.5716 31.9844C16.9276 31.9844 18.0303 30.8817 18.0303 29.5257C18.0303 28.4081 17.2703 27.4694 16.2421 27.1788V25.0926H24.9593V27.1788C23.9311 27.4694 23.1711 28.4081 23.1711 29.5257C23.1711 30.8817 24.2738 31.9844 25.6298 31.9844C26.9858 31.9844 28.0885 30.8817 28.0885 29.5257C28.0885 28.4081 27.3285 27.4694 26.3003 27.1788V24.4221C26.3003 24.0496 26.0023 23.7515 25.6298 23.7515H16.2421V19.9443H25.2573V19.9592ZM6.62352 29.5481C6.62352 30.159 6.12433 30.6656 5.50594 30.6656C4.88754 30.6656 4.38836 30.1664 4.38836 29.5481C4.38836 28.9297 4.88754 28.4305 5.50594 28.4305C6.12433 28.4305 6.62352 28.9297 6.62352 29.5481ZM16.6817 29.5481C16.6817 30.159 16.1825 30.6656 15.5641 30.6656C14.9458 30.6656 14.4466 30.1664 14.4466 29.5481C14.4466 28.9297 14.9458 28.4305 15.5641 28.4305C16.1825 28.4305 16.6817 28.9297 16.6817 29.5481ZM26.7399 29.5481C26.7399 30.159 26.2407 30.6656 25.6224 30.6656C25.004 30.6656 24.5048 30.1664 24.5048 29.5481C24.5048 28.9297 25.004 28.4305 25.6224 28.4305C26.2407 28.4305 26.7399 28.9297 26.7399 29.5481Z" fill="black"/>
<path d="M23.8934 5.40074C24.0051 5.63916 24.251 5.78072 24.4969 5.78072C24.5937 5.78072 24.6906 5.75837 24.7874 5.71367C25.1227 5.54975 25.2643 5.15488 25.1003 4.8196C25.0035 4.61844 24.8992 4.42473 24.7874 4.23846C24.6012 3.91809 24.1914 3.80633 23.871 3.9926C23.5506 4.17886 23.4389 4.58864 23.6326 4.90901C23.722 5.06547 23.8114 5.22938 23.8934 5.40074Z" fill="black"/>
</g>
<defs>
<clipPath id="clip0_659_20891">
<rect width="40" height="32" fill="white"/>
</clipPath>
</defs>
</svg>
