<svg xmlns="http://www.w3.org/2000/svg" width="180" height="180" viewBox="0 0 180 180" fill="none">
    <path fill-rule="evenodd" clip-rule="evenodd" d="M141.75 11.25C140.509 11.25 139.5 10.2407 139.5 9C139.5 7.75924 140.509 6.75 141.75 6.75C142.991 6.75 144 7.75924 144 9C144 10.2407 142.991 11.25 141.75 11.25Z" fill="#9C51D0" fill-opacity="0.3"/>
    <path d="M119.501 112C104.501 122 105.001 144.5 107.001 150.5H128.501C129.668 150.5 132.001 150.1 132.001 148.5C132.001 146.5 144.001 124.5 146.501 120C148.501 116.4 150.334 110.167 151.001 107.5C149.501 101.334 146.001 86.5002 144.001 76.5002C141.501 64.0002 138.501 60.0003 134.001 58.5003C129.501 57.0003 126.001 61.5003 124.001 66.0003C122.001 70.5003 126.001 80.5003 122.501 83.5003C119.001 86.5003 121.001 92.0003 122.501 101C124.001 110 121.001 110 119.501 112Z" fill="#9C51D0" fill-opacity="0.3"/>
    <path d="M60.4991 112C75.4991 122 74.9991 144.5 72.9991 150.5H51.499C50.3324 150.5 47.999 150.1 47.999 148.5C47.999 146.5 35.999 124.5 33.499 120C31.499 116.4 29.6657 110.167 28.999 107.5C30.499 101.334 33.999 86.5002 35.999 76.5002C38.499 64.0002 41.499 60.0003 45.999 58.5003C50.499 57.0003 53.999 61.5003 55.999 66.0003C57.999 70.5003 53.999 80.5003 57.499 83.5003C60.999 86.5003 58.999 92.0003 57.499 101C55.999 110 58.999 110 60.4991 112Z" fill="#9C51D0" fill-opacity="0.3"/>
    <path fill-rule="evenodd" clip-rule="evenodd" d="M60.75 173.25C59.5093 173.25 58.5 172.241 58.5 171C58.5 169.759 59.5093 168.75 60.75 168.75C61.9907 168.75 63 169.759 63 171C63 172.241 61.9907 173.25 60.75 173.25Z" fill="#9C51D0" fill-opacity="0.3"/>
    <path fill-rule="evenodd" clip-rule="evenodd" d="M38.25 29.25C37.0093 29.25 36 28.2407 36 27C36 25.7592 37.0093 24.75 38.25 24.75C39.4907 24.75 40.5 25.7592 40.5 27C40.5 28.2407 39.4907 29.25 38.25 29.25Z" fill="#9C51D0" fill-opacity="0.3"/>
    <path fill-rule="evenodd" clip-rule="evenodd" d="M110.628 27.5611C109.846 25.1028 108.949 23.4308 107.64 22.6131C105.267 21.1313 103.26 22.671 102.119 25.5289L101.915 26.024C100.892 28.4103 99.8488 29.4953 97.4248 31.2197L96.34 32.0019C94.0696 33.6928 92.664 35.2067 91.2878 37.7744C88.036 43.8417 89.1817 51.5795 93.3346 55.1904C92.6618 56.6182 92.0143 58.1537 91.3914 59.797C90.1093 57.4754 88.2096 55.3728 85.8093 53.8839C83.3336 52.3483 81.3593 51.74 78.5476 51.4108L77.2171 51.2759C74.2556 50.9945 72.8093 50.5767 70.731 49.0212L70.3063 48.6946C67.8893 46.7901 65.3812 46.4603 64.0672 48.9299C63.342 50.2928 63.4018 52.1889 63.9531 54.7093C64.8696 58.8993 67.1843 64.4619 69.5553 68.09C73.6358 74.3337 81.2291 77.1891 86.8991 75.4299C84.6101 86.2266 84.1483 96.4418 85.5235 106.068C85.6992 107.298 86.8389 108.153 88.069 107.977C89.2992 107.802 90.154 106.662 89.9782 105.432C88.8811 97.752 89.0243 89.6419 90.4135 81.0972C90.8967 82.0418 91.563 82.8982 92.4238 83.6205C97.6772 88.0286 106.983 86.0967 111.302 79.3257C113.335 76.1379 115.229 71.2229 115.902 67.4768C116.309 65.2053 116.288 63.4621 115.561 62.1904C114.274 59.9369 111.899 60.1416 109.68 61.8236L109.301 62.1033C107.568 63.3403 106.333 63.6381 103.732 63.7682L102.478 63.8397C99.9322 64.0272 98.135 64.5044 95.9118 65.8001C95.0368 66.31 94.2413 66.9135 93.5308 67.5875C94.7259 63.5443 96.0195 60.0514 97.4039 57.1111C104.523 58.2611 111.968 50.9695 112.467 41.9502C112.707 37.6227 111.93 31.6481 110.628 27.5611ZM102.842 48.841C101.807 49.8762 100.806 51.1455 99.8416 52.6482C103.675 51.9834 107.66 47.3767 107.974 41.7017C108.183 37.9244 107.477 32.4963 106.341 28.9264L106.104 28.2322L105.992 27.9329L105.774 28.4163C104.529 31.0908 103.088 32.6442 100.586 34.4867L99.5005 35.266C97.4187 36.7574 96.362 37.8329 95.254 39.9002C93.1676 43.7931 93.6722 48.5289 95.563 51.0078C96.8465 48.8906 98.2109 47.108 99.6599 45.659C100.539 44.7803 101.963 44.7803 102.842 45.659C103.721 46.5377 103.721 47.9623 102.842 48.841ZM68.153 52.7107L68.5846 53.0227C71.0003 54.7163 73.0247 55.3413 76.1129 55.6858L77.4427 55.8179C79.9912 56.0687 81.4441 56.4717 83.4373 57.708C87.2697 60.0852 89.202 64.5739 88.6953 67.6755L82.2489 63.3779C81.215 62.6886 79.818 62.968 79.1287 64.0019C78.4887 64.962 78.6839 66.2351 79.5428 66.964L79.7528 67.1221L85.7038 71.0895C82.0463 72.3337 76.3936 70.3279 73.3222 65.6282C71.2526 62.4614 69.1497 57.4077 68.3491 53.7477L68.2071 53.0281L68.153 52.7107ZM111.581 65.9989L111.441 66.0934C109.273 67.54 107.423 68.0331 104.621 68.2236L103.371 68.2921C101.12 68.4122 99.8681 68.7028 98.1776 69.688C95.7784 71.0862 94.3363 73.5293 94.005 75.7936L98.2893 74.3655L98.5431 74.2969C99.6457 74.0663 100.771 74.6938 101.135 75.7885C101.528 76.9674 100.891 78.2416 99.7124 78.6346L95.2548 80.1204C95.2751 80.1383 95.2956 80.1559 95.3164 80.1733C98.3989 82.7599 104.594 81.4737 107.508 76.9057C109.222 74.2194 110.903 69.8572 111.472 66.6819C111.514 66.4477 111.548 66.2262 111.581 65.9989Z" fill="#FDC82E"/>
    <path d="M49.8906 56.2837C55.2666 57.2317 59.4955 64.2995 58.4657 70.1403C58.2499 71.364 57.0829 72.1812 55.8591 71.9654C54.6354 71.7496 53.8182 70.5826 54.034 69.3588C54.6553 65.8353 51.8847 61.2048 49.1091 60.7154C46.0144 60.1697 42.5605 62.1999 41.7868 65.2812L41.7096 65.6413L31.4663 106.154L31.4277 106.512C31.1279 109.907 32.5054 114.395 35.4858 120.369L36.2032 121.777L36.8322 122.97L37.8736 124.885L39.0822 127.045L41.2705 130.903L42.7969 133.624L44.4228 136.585L45.2561 138.151L45.9881 139.574L46.6235 140.867L46.9956 141.664L47.3281 142.412L47.6224 143.117L47.8797 143.781L48.1015 144.409L48.2891 145.004C48.3176 145.101 48.3448 145.196 48.3705 145.29L48.5093 145.844C48.5299 145.934 48.5491 146.023 48.5671 146.112L48.6601 146.632L48.7243 147.136L48.761 147.625L48.7716 148.106L48.7598 148.5H71.9993C71.9995 148.333 72.0184 148.163 72.0577 147.993C75.1189 134.758 69.7082 121.284 61.743 116.094L61.292 115.793C55.2475 111.647 54.0743 106.406 55.8098 96.8345L56.0844 95.4025C56.1335 95.1586 56.1843 94.912 56.2368 94.6627L56.4971 93.472L57.1174 90.4544C57.6637 87.8839 55.5096 83.6215 53.532 83.2011C51.3131 82.7295 49.9425 83.654 49.4586 85.9289L47.3592 96.6447L46.0055 103.39L45.1801 107.384L44.9503 108.469C44.3907 111.094 46.194 115.837 50.4762 122.435L51.4318 123.877C51.763 124.368 52.1069 124.867 52.4635 125.376L53.5716 126.93C54.3008 127.936 54.0764 129.343 53.0702 130.072C52.0641 130.801 50.6572 130.577 49.928 129.571L49.3353 128.747L48.2059 127.136L47.1515 125.577C42.0671 117.906 39.8007 112.119 40.4723 107.943L40.5492 107.531L41.3068 103.905L42.7644 96.6804L44.8183 86.2198L45.0489 85.0325C46.0504 80.3212 49.7827 77.8036 54.4676 78.7994C58.9801 79.7586 62.3458 86.1905 61.5988 90.959L61.5221 91.3752L60.9927 93.9509C60.9842 94.0095 60.9733 94.0682 60.96 94.127L60.9037 94.3838L60.5547 96.0818C60.5374 96.1661 60.5155 96.2482 60.4895 96.3281L60.3693 96.9194L60.1333 98.2013L59.9382 99.4114C58.9212 106.266 60.043 109.615 64.1996 112.324L64.6991 112.66C73.8581 119.013 79.7323 133.854 76.5556 148.5H83.2498C84.4924 148.5 85.4998 149.508 85.4998 150.75C85.4998 151.904 84.6312 152.855 83.5122 152.985L83.2498 153H38.2498C37.0071 153 35.9998 151.993 35.9998 150.75C35.9998 149.596 36.8684 148.645 37.9874 148.515L38.2498 148.5H44.2087L44.2133 148.32L44.1988 147.946L44.159 147.553L44.0926 147.139L43.9984 146.7L43.875 146.233L43.7212 145.734L43.5356 145.201L43.317 144.63L42.9241 143.695L42.617 143.014L42.2722 142.284L41.6816 141.09L40.9989 139.766L40.2197 138.301L39.023 136.111L36.8688 132.263L34.728 128.484L33.5542 126.369L32.5274 124.458L31.8962 123.242C28.245 116.107 26.5069 110.668 26.9535 106.021L27.0207 105.444L27.0685 105.198L37.3124 64.6992C38.3166 59.0039 44.3404 55.3051 49.8906 56.2837Z" fill="#282828"/>
    <path d="M121.959 70.1403C120.93 64.2995 125.158 57.2317 130.535 56.2837C136.085 55.3051 142.108 59.0039 143.113 64.6992L153.357 105.198L153.404 105.444L153.468 105.992C153.929 110.78 151.961 116.428 147.84 123.985L147.125 125.278L146.361 126.625L145.074 128.832L142.802 132.651L141.261 135.26L139.913 137.576L138.749 139.623L137.758 141.424L137.123 142.627L136.575 143.715L136.111 144.697L135.845 145.299L135.614 145.86L135.416 146.385L135.248 146.877L135.112 147.337L135.004 147.77L134.924 148.178L134.879 148.5H141.75L142.012 148.515C143.131 148.645 144 149.596 144 150.75C144 151.993 142.992 153 141.75 153H96.7498L96.4874 152.985C95.3684 152.855 94.4998 151.904 94.4998 150.75C94.4998 149.508 95.5071 148.5 96.7498 148.5H103.861C100.685 133.854 106.559 119.013 115.718 112.66L116.217 112.324C120.374 109.615 121.496 106.266 120.479 99.4114L120.284 98.2013L120.048 96.9194C120.011 96.7321 119.974 96.5426 119.935 96.3508C119.905 96.2638 119.881 96.174 119.862 96.0818L119.497 94.3048L119.457 94.127C119.444 94.0682 119.433 94.0094 119.424 93.9508L118.895 91.3752L118.818 90.959C118.071 86.1905 121.437 79.7586 125.949 78.7994C130.634 77.8036 134.366 80.3212 135.368 85.0325L135.749 87.2973L136.815 93.5138L137.617 98.0347L138.061 100.461L138.61 103.363L138.988 105.291L139.45 107.531C140.347 111.735 138.102 117.651 132.848 125.577L131.794 127.136L130.664 128.747L130.072 129.571C129.342 130.577 127.936 130.801 126.929 130.072C125.923 129.343 125.699 127.936 126.428 126.93C126.619 126.666 126.807 126.405 126.992 126.146L128.061 124.62L129.055 123.149C133.674 116.179 135.629 111.188 135.049 108.469L134.812 107.335L134.298 104.765L133.582 100.986L132.951 97.5103L131.907 91.5402L130.948 85.8712C130.474 83.654 129.104 82.7295 126.885 83.2011C124.907 83.6215 122.753 87.8839 123.299 90.4544L123.92 93.4725L124.18 94.6627L124.475 96.1264C126.397 106.149 125.317 111.546 119.125 115.793L118.674 116.094C110.709 121.284 105.298 134.758 108.359 147.993C108.398 148.163 108.417 148.333 108.418 148.5H130.286L130.289 148.391L130.329 147.907C130.338 147.825 130.348 147.743 130.359 147.66L130.441 147.155L130.552 146.631L130.695 146.085L130.871 145.513C130.935 145.317 131.005 145.117 131.081 144.911L131.327 144.276L131.609 143.603L131.93 142.889L132.291 142.131L132.909 140.901L133.376 140.014L134.159 138.575L135.368 136.431L136.775 134.004L141.635 125.803L142.831 123.731L143.547 122.453L144.323 121.026C147.718 114.662 149.3 109.959 148.994 106.484L148.959 106.155L138.716 65.6413L138.638 65.2812C137.865 62.1999 134.411 60.1697 131.316 60.7154C128.54 61.2048 125.77 65.8353 126.391 69.3589C126.607 70.5826 125.79 71.7496 124.566 71.9654C123.342 72.1812 122.175 71.364 121.959 70.1403Z" fill="#282828"/>
    <path d="M124.2 135C125.442 135 126.45 133.993 126.45 132.75C126.45 131.508 125.442 130.5 124.2 130.5C122.957 130.5 121.95 131.508 121.95 132.75C121.95 133.993 122.957 135 124.2 135Z" fill="#282828"/>
</svg>
