<svg width="96" height="97" viewBox="0 0 96 97" fill="none" xmlns="http://www.w3.org/2000/svg">
<path fill-rule="evenodd" clip-rule="evenodd" d="M70.7996 92.0672C70.1379 92.0672 69.5996 91.5289 69.5996 90.8672C69.5996 90.2054 70.1379 89.6672 70.7996 89.6672C71.4613 89.6672 71.9996 90.2054 71.9996 90.8672C71.9996 91.5289 71.4613 92.0672 70.7996 92.0672Z" fill="#E1CBF1"/>
<path fill-rule="evenodd" clip-rule="evenodd" d="M80.3996 15.2672C79.7379 15.2672 79.1996 14.7289 79.1996 14.0672C79.1996 13.4055 79.7379 12.8672 80.3996 12.8672C81.0613 12.8672 81.5996 13.4055 81.5996 14.0672C81.5996 14.7289 81.0613 15.2672 80.3996 15.2672Z" fill="#E1CBF1"/>
<path fill-rule="evenodd" clip-rule="evenodd" d="M10.7996 20.0672C10.1379 20.0672 9.59961 19.5289 9.59961 18.8672C9.59961 18.2055 10.1379 17.6672 10.7996 17.6672C11.4613 17.6672 11.9996 18.2055 11.9996 18.8672C11.9996 19.5289 11.4613 20.0672 10.7996 20.0672Z" fill="#E1CBF1"/>
<path d="M44.3996 28.4676C44.3996 27.8048 43.8624 27.2676 43.1996 27.2676H28.7996L28.6597 27.2757C28.0629 27.345 27.5996 27.8522 27.5996 28.4676C27.5996 29.1303 28.1369 29.6676 28.7996 29.6676H43.1996L43.3396 29.6595C43.9364 29.5902 44.3996 29.083 44.3996 28.4676Z" fill="#FDC82E"/>
<path d="M46.7996 48.8676C45.4741 48.8676 44.3996 49.9421 44.3996 51.2676C44.3996 54.252 45.61 56.0676 47.9996 56.0676C48.6624 56.0676 49.1996 55.5303 49.1996 54.8676C49.1996 54.2048 48.6624 53.6676 47.9996 53.6676L47.8867 53.6635C47.7435 53.6529 47.6147 53.621 47.5003 53.5637C48.4839 53.2639 49.1996 52.3493 49.1996 51.2676C49.1996 49.9421 48.1251 48.8676 46.7996 48.8676Z" fill="#FDC82E"/>
<path d="M51.5996 51.2676C51.5996 49.9421 52.6741 48.8676 53.9996 48.8676C55.3251 48.8676 56.3996 49.9421 56.3996 51.2676C56.3996 52.3493 55.6839 53.2639 54.7003 53.5637C54.8147 53.621 54.9435 53.6529 55.0867 53.6635L55.1996 53.6676C55.8624 53.6676 56.3996 54.2048 56.3996 54.8676C56.3996 55.5303 55.8624 56.0676 55.1996 56.0676C52.81 56.0676 51.5996 54.252 51.5996 51.2676Z" fill="#FDC82E"/>
<path d="M40.7996 32.0676C41.4624 32.0676 41.9996 32.6048 41.9996 33.2676C41.9996 33.883 41.5364 34.3902 40.9396 34.4595L40.7996 34.4676H28.7996C28.1369 34.4676 27.5996 33.9303 27.5996 33.2676C27.5996 32.6522 28.0629 32.145 28.6597 32.0757L28.7996 32.0676H40.7996Z" fill="#FDC82E"/>
<path d="M37.1996 38.0676C37.1996 37.4048 36.6624 36.8676 35.9996 36.8676H28.7996L28.6597 36.8757C28.0629 36.945 27.5996 37.4522 27.5996 38.0676C27.5996 38.7303 28.1369 39.2676 28.7996 39.2676H35.9996L36.1396 39.2595C36.7364 39.1902 37.1996 38.683 37.1996 38.0676Z" fill="#FDC82E"/>
<path d="M67.1996 60.8676C67.8624 60.8676 68.3996 61.4048 68.3996 62.0676C68.3996 62.683 67.9364 63.1902 67.3396 63.2595L67.1996 63.2676H45.5996C44.9369 63.2676 44.3996 62.7303 44.3996 62.0676C44.3996 61.4522 44.8629 60.945 45.4597 60.8756L45.5996 60.8676H67.1996Z" fill="#FDC82E"/>
<path d="M63.5996 66.8676C63.5996 66.2048 63.0624 65.6676 62.3996 65.6676H45.5996L45.4597 65.6756C44.8629 65.745 44.3996 66.2522 44.3996 66.8676C44.3996 67.5303 44.9369 68.0676 45.5996 68.0676H62.3996L62.5396 68.0595C63.1364 67.9902 63.5996 67.483 63.5996 66.8676Z" fill="#FDC82E"/>
<path d="M38.3992 15.2676C46.6241 15.2676 53.1447 20.1361 56.3127 28.0202C56.5598 28.6351 56.2616 29.334 55.6466 29.5811C55.0317 29.8281 54.3328 29.5299 54.0857 28.915C51.2678 21.902 45.5964 17.6676 38.3992 17.6676C28.4581 17.6676 20.3992 25.7265 20.3992 35.6676C20.3992 39.5266 21.6152 43.1991 23.8381 46.2517C24.1199 46.6387 24.1422 47.1511 23.9078 47.5574L23.8201 47.6885L19.2316 53.6676H26.3992C27.0146 53.6676 27.5218 54.1308 27.5911 54.7276L27.5992 54.8676C27.5992 55.483 27.136 55.9902 26.5392 56.0595L26.3992 56.0676H16.7992C15.8495 56.0676 15.2936 55.0278 15.7718 54.2468L15.8472 54.1371L21.3832 46.9212L21.3154 46.8208C19.2602 43.6797 18.1026 40.0225 18.0058 36.1911L17.9992 35.6676C17.9992 24.401 27.1326 15.2676 38.3992 15.2676Z" fill="#5D2A9D"/>
<path d="M56.3992 34.4676C69.6541 34.4676 80.3992 45.2127 80.3992 58.4676C80.3992 62.2243 79.5345 65.8601 77.8957 69.1514C77.6003 69.7446 76.8799 69.9861 76.2866 69.6907C75.6934 69.3953 75.4519 68.6749 75.7473 68.0816C77.2215 65.1209 77.9992 61.851 77.9992 58.4676C77.9992 46.5382 68.3286 36.8676 56.3992 36.8676C44.4699 36.8676 34.7992 46.5382 34.7992 58.4676C34.7992 70.2644 44.2562 79.8524 56.0024 80.064L56.3992 80.0676H76.9564L73.4008 74.7332C73.0594 74.2212 73.1635 73.5422 73.6216 73.1535L73.7336 73.0691C74.2456 72.7278 74.9246 72.8319 75.3133 73.29L75.3977 73.4019L80.1977 80.6019C80.704 81.3614 80.2096 82.3665 79.3334 82.4604L79.1992 82.4676H56.3992C43.1444 82.4676 32.3992 71.7224 32.3992 58.4676C32.3992 45.2127 43.1444 34.4676 56.3992 34.4676Z" fill="#5D2A9D"/>
<path d="M65.9992 23.6676C65.9992 24.3293 66.5375 24.8676 67.1992 24.8676C67.8609 24.8676 68.3992 24.3293 68.3992 23.6676C68.3992 23.0058 67.8609 22.4676 67.1992 22.4676C66.5375 22.4676 65.9992 23.0058 65.9992 23.6676Z" fill="#5D2A9D"/>
<path d="M71.9992 24.8676C71.3375 24.8676 70.7992 24.3293 70.7992 23.6676C70.7992 23.0058 71.3375 22.4676 71.9992 22.4676C72.6609 22.4676 73.1992 23.0058 73.1992 23.6676C73.1992 24.3293 72.6609 24.8676 71.9992 24.8676Z" fill="#5D2A9D"/>
<path d="M75.5992 23.6676C75.5992 24.3293 76.1375 24.8676 76.7992 24.8676C77.4609 24.8676 77.9992 24.3293 77.9992 23.6676C77.9992 23.0058 77.4609 22.4676 76.7992 22.4676C76.1375 22.4676 75.5992 23.0058 75.5992 23.6676Z" fill="#5D2A9D"/>
<path fill-rule="evenodd" clip-rule="evenodd" d="M81.5992 17.6676H62.3992C61.7365 17.6676 61.1992 18.2048 61.1992 18.8676V28.4676L61.2073 28.6075C61.2766 29.2043 61.7838 29.6676 62.3992 29.6676H71.5012L75.9507 34.1161L76.0522 34.2074C76.8166 34.8245 77.9992 34.2902 77.9992 33.2676V29.6676H81.5992C82.262 29.6676 82.7992 29.1303 82.7992 28.4676V18.8676C82.7992 18.2048 82.262 17.6676 81.5992 17.6676ZM80.3992 20.0676V27.2676H76.7992L76.6593 27.2757C76.0625 27.345 75.5992 27.8522 75.5992 28.4676V30.3696L72.8478 27.619L72.7289 27.5149C72.5206 27.3554 72.2644 27.2676 71.9992 27.2676H63.5992V20.0676H80.3992Z" fill="#5D2A9D"/>
<path d="M19.1992 70.4676C19.862 70.4676 20.3992 71.0048 20.3992 71.6676C20.3992 72.283 19.936 72.7902 19.3392 72.8595L19.1992 72.8676H14.3992C13.7365 72.8676 13.1992 72.3303 13.1992 71.6676C13.1992 71.0522 13.6625 70.545 14.2593 70.4757L14.3992 70.4676H19.1992Z" fill="#5D2A9D"/>
<path d="M22.7992 71.6676C22.7992 72.3293 23.3375 72.8676 23.9992 72.8676C24.6609 72.8676 25.1992 72.3293 25.1992 71.6676C25.1992 71.0058 24.6609 70.4676 23.9992 70.4676C23.3375 70.4676 22.7992 71.0058 22.7992 71.6676Z" fill="#5D2A9D"/>
<path d="M28.7992 72.8676C28.1375 72.8676 27.5992 72.3293 27.5992 71.6676C27.5992 71.0058 28.1375 70.4676 28.7992 70.4676C29.4609 70.4676 29.9992 71.0058 29.9992 71.6676C29.9992 72.3293 29.4609 72.8676 28.7992 72.8676Z" fill="#5D2A9D"/>
</svg>
