<svg xmlns="http://www.w3.org/2000/svg" width="180" height="180" viewBox="0 0 180 180" fill="none">
    <path d="M63.0007 108.001C65.0007 85.5011 75.5007 77.5011 87.5007 69.5011C147.001 53.5011 149.001 108.501 147.501 116.001C146.301 122.001 141.001 132.168 138.501 136.501L147.501 151.001C131.667 151.001 98.5007 150.701 92.5007 149.501C85.0007 148.001 61.0007 130.501 63.0007 108.001Z" fill="#9C51D0" fill-opacity="0.3"/>
    <path fill-rule="evenodd" clip-rule="evenodd" d="M132.75 171C131.509 171 130.5 169.991 130.5 168.75C130.5 167.509 131.509 166.5 132.75 166.5C133.991 166.5 135 167.509 135 168.75C135 169.991 133.991 171 132.75 171Z" fill="#E1CBF1"/>
    <path fill-rule="evenodd" clip-rule="evenodd" d="M150.75 27C149.509 27 148.5 25.9907 148.5 24.75C148.5 23.5092 149.509 22.5 150.75 22.5C151.991 22.5 153 23.5092 153 24.75C153 25.9907 151.991 27 150.75 27Z" fill="#E1CBF1"/>
    <path fill-rule="evenodd" clip-rule="evenodd" d="M20.25 36C19.0093 36 18 34.9907 18 33.75C18 32.5092 19.0093 31.5 20.25 31.5C21.4907 31.5 22.5 32.5092 22.5 33.75C22.5 34.9907 21.4907 36 20.25 36Z" fill="#E1CBF1"/>
    <path d="M83.25 51.75C83.25 50.5074 82.2426 49.5 81 49.5H54L53.7376 49.5151C52.6186 49.6451 51.75 50.5961 51.75 51.75C51.75 52.9926 52.7574 54 54 54H81L81.2624 53.9849C82.3814 53.8549 83.25 52.9039 83.25 51.75Z" fill="#5D2A9D"/>
    <path d="M87.75 90C85.2647 90 83.25 92.0147 83.25 94.5C83.25 100.096 85.5194 103.5 90 103.5C91.2426 103.5 92.25 102.493 92.25 101.25C92.25 100.007 91.2426 99 90 99L89.7883 98.9924C89.5197 98.9725 89.2783 98.9127 89.0637 98.8052C90.9081 98.2431 92.25 96.5283 92.25 94.5C92.25 92.0147 90.2353 90 87.75 90Z" fill="#5D2A9D"/>
    <path d="M96.75 94.5C96.75 92.0147 98.7647 90 101.25 90C103.735 90 105.75 92.0147 105.75 94.5C105.75 96.5283 104.408 98.2431 102.564 98.8052C102.778 98.9127 103.02 98.9725 103.288 98.9924L103.5 99C104.743 99 105.75 100.007 105.75 101.25C105.75 102.493 104.743 103.5 103.5 103.5C99.0194 103.5 96.75 100.096 96.75 94.5Z" fill="#5D2A9D"/>
    <path d="M76.5 58.5C77.7426 58.5 78.75 59.5074 78.75 60.75C78.75 61.9039 77.8814 62.8549 76.7624 62.9849L76.5 63H54C52.7574 63 51.75 61.9926 51.75 60.75C51.75 59.5961 52.6186 58.6451 53.7376 58.5151L54 58.5H76.5Z" fill="#5D2A9D"/>
    <path d="M69.75 69.75C69.75 68.5074 68.7426 67.5 67.5 67.5H54L53.7376 67.5151C52.6186 67.6451 51.75 68.5961 51.75 69.75C51.75 70.9926 52.7574 72 54 72H67.5L67.7624 71.9849C68.8814 71.8549 69.75 70.9039 69.75 69.75Z" fill="#5D2A9D"/>
    <path d="M126 112.5C127.243 112.5 128.25 113.507 128.25 114.75C128.25 115.904 127.381 116.855 126.262 116.985L126 117H85.5C84.2574 117 83.25 115.993 83.25 114.75C83.25 113.596 84.1186 112.645 85.2376 112.515L85.5 112.5H126Z" fill="#5D2A9D"/>
    <path d="M119.25 123.75C119.25 122.507 118.243 121.5 117 121.5H85.5L85.2376 121.515C84.1186 121.645 83.25 122.596 83.25 123.75C83.25 124.993 84.2574 126 85.5 126H117L117.262 125.985C118.381 125.855 119.25 124.904 119.25 123.75Z" fill="#5D2A9D"/>
    <path d="M72 27C87.4216 27 99.6479 36.1285 105.588 50.9111C106.051 52.0641 105.492 53.3745 104.339 53.8378C103.186 54.3011 101.876 53.7419 101.412 52.5889C96.1286 39.4396 85.4948 31.5 72 31.5C53.3604 31.5 38.25 46.6104 38.25 65.25C38.25 72.4856 40.5299 79.3715 44.6979 85.0952C45.2264 85.8208 45.2681 86.7816 44.8285 87.5434L44.6642 87.7893L36.0608 99H49.5C50.6539 99 51.6049 99.8686 51.7349 100.988L51.75 101.25C51.75 102.404 50.8814 103.355 49.7624 103.485L49.5 103.5H31.5C29.7193 103.5 28.6769 101.55 29.5735 100.086L29.7149 99.8803L40.095 86.3505L39.9678 86.1624C36.1143 80.2727 33.9438 73.4154 33.7624 66.2316L33.75 65.25C33.75 44.1251 50.8751 27 72 27Z" fill="#282828"/>
    <path d="M105.75 63C130.603 63 150.75 83.1472 150.75 108C150.75 115.044 149.129 121.861 146.056 128.032C145.502 129.144 144.151 129.597 143.039 129.043C141.927 128.489 141.474 127.139 142.028 126.026C144.792 120.475 146.25 114.344 146.25 108C146.25 85.6325 128.118 67.5 105.75 67.5C83.3825 67.5 65.25 85.6325 65.25 108C65.25 130.119 82.9818 148.097 105.006 148.493L105.75 148.5H144.295L137.628 138.498C136.988 137.538 137.183 136.265 138.042 135.536L138.252 135.378C139.212 134.738 140.485 134.933 141.214 135.792L141.372 136.002L150.372 149.502C151.321 150.926 150.394 152.81 148.752 152.987L148.5 153H105.75C80.8972 153 60.75 132.853 60.75 108C60.75 83.1472 80.8972 63 105.75 63Z" fill="#282828"/>
    <path d="M123.75 42.75C123.75 43.9907 124.759 45 126 45C127.241 45 128.25 43.9907 128.25 42.75C128.25 41.5092 127.241 40.5 126 40.5C124.759 40.5 123.75 41.5092 123.75 42.75Z" fill="#FDC82E"/>
    <path d="M135 45C133.759 45 132.75 43.9907 132.75 42.75C132.75 41.5092 133.759 40.5 135 40.5C136.241 40.5 137.25 41.5092 137.25 42.75C137.25 43.9907 136.241 45 135 45Z" fill="#FDC82E"/>
    <path d="M141.75 42.75C141.75 43.9907 142.759 45 144 45C145.241 45 146.25 43.9907 146.25 42.75C146.25 41.5092 145.241 40.5 144 40.5C142.759 40.5 141.75 41.5092 141.75 42.75Z" fill="#FDC82E"/>
    <path fill-rule="evenodd" clip-rule="evenodd" d="M153 31.5H117C115.757 31.5 114.75 32.5074 114.75 33.75V51.75L114.765 52.0124C114.895 53.1314 115.846 54 117 54H134.066L142.409 62.341L142.599 62.5123C144.033 63.6692 146.25 62.6674 146.25 60.75V54H153C154.243 54 155.25 52.9926 155.25 51.75V33.75C155.25 32.5074 154.243 31.5 153 31.5ZM150.75 36V49.5H144L143.738 49.5151C142.619 49.6451 141.75 50.5961 141.75 51.75V55.3162L136.591 50.159L136.368 49.9637C135.978 49.6646 135.497 49.5 135 49.5H119.25V36H150.75Z" fill="#FDC82E"/>
    <path d="M36 130.5C37.2426 130.5 38.25 131.507 38.25 132.75C38.25 133.904 37.3814 134.855 36.2624 134.985L36 135H27C25.7574 135 24.75 133.993 24.75 132.75C24.75 131.596 25.6186 130.645 26.7376 130.515L27 130.5H36Z" fill="#282828"/>
    <path d="M42.75 132.75C42.75 133.991 43.7593 135 45 135C46.2407 135 47.25 133.991 47.25 132.75C47.25 131.509 46.2407 130.5 45 130.5C43.7593 130.5 42.75 131.509 42.75 132.75Z" fill="#282828"/>
    <path d="M54 135C52.7593 135 51.75 133.991 51.75 132.75C51.75 131.509 52.7593 130.5 54 130.5C55.2407 130.5 56.25 131.509 56.25 132.75C56.25 133.991 55.2407 135 54 135Z" fill="#282828"/>
</svg>
