<svg width="96" height="97" viewBox="0 0 96 97" fill="none" xmlns="http://www.w3.org/2000/svg">
<path fill-rule="evenodd" clip-rule="evenodd" d="M75.5992 6.8668C74.9375 6.8668 74.3992 6.32848 74.3992 5.6668C74.3992 5.00506 74.9375 4.4668 75.5992 4.4668C76.2609 4.4668 76.7992 5.00506 76.7992 5.6668C76.7992 6.32848 76.2609 6.8668 75.5992 6.8668Z" fill="#E1CBF1"/>
<path fill-rule="evenodd" clip-rule="evenodd" d="M32.3992 93.2668C31.7375 93.2668 31.1992 92.7285 31.1992 92.0668C31.1992 91.4051 31.7375 90.8668 32.3992 90.8668C33.0609 90.8668 33.5992 91.4051 33.5992 92.0668C33.5992 92.7285 33.0609 93.2668 32.3992 93.2668Z" fill="#E1CBF1"/>
<path fill-rule="evenodd" clip-rule="evenodd" d="M20.3992 16.4668C19.7375 16.4668 19.1992 15.9285 19.1992 15.2668C19.1992 14.6051 19.7375 14.0668 20.3992 14.0668C21.0609 14.0668 21.5992 14.6051 21.5992 15.2668C21.5992 15.9285 21.0609 16.4668 20.3992 16.4668Z" fill="#E1CBF1"/>
<path fill-rule="evenodd" clip-rule="evenodd" d="M59.0013 15.5657C58.5839 14.2546 58.1059 13.3629 57.4075 12.9268C56.142 12.1365 55.0715 12.9577 54.463 14.4819L54.3539 14.746C53.8088 16.0186 53.2522 16.5973 51.9594 17.517L51.3808 17.9341C50.1699 18.836 49.4203 19.6434 48.6863 21.0128C46.952 24.2487 47.563 28.3755 49.7779 30.3014C49.4191 31.0629 49.0738 31.8818 48.7416 32.7582C48.0578 31.52 47.0446 30.3986 45.7644 29.6046C44.4441 28.7856 43.3911 28.4612 41.8915 28.2856L41.1819 28.2136C39.6025 28.0635 38.8311 27.8407 37.7227 27.0111L37.4962 26.8369C36.2071 25.8212 34.8694 25.6453 34.1686 26.9624C33.7819 27.6893 33.8138 28.7006 34.1078 30.0447C34.5966 32.2795 35.8311 35.2461 37.0956 37.1811C39.2719 40.5111 43.3217 42.034 46.3457 41.0958C45.1248 46.854 44.8785 52.3021 45.612 57.4362C45.7057 58.0923 46.3136 58.5481 46.9696 58.4544C47.6257 58.3607 48.0816 57.7529 47.9879 57.0968C47.4027 53.0009 47.4791 48.6755 48.22 44.1183C48.4777 44.6221 48.8331 45.0789 49.2922 45.4641C52.094 47.8151 57.0572 46.7847 59.3606 43.1735C60.4451 41.4734 61.4551 38.852 61.8137 36.8541C62.0311 35.6427 62.0195 34.7129 61.632 34.0347C60.9454 32.8328 59.6788 32.942 58.4957 33.839L58.2932 33.9882C57.369 34.648 56.7106 34.8068 55.3232 34.8762L54.6547 34.9143C53.2967 35.0143 52.3381 35.2688 51.1524 35.9598C50.6858 36.2318 50.2615 36.5537 49.8826 36.9131C50.52 34.7567 51.2099 32.8939 51.9482 31.3257C55.745 31.9391 59.7159 28.0502 59.982 23.2399C60.1096 20.9319 59.6954 17.7454 59.0013 15.5657ZM54.8485 26.915C54.2963 27.4671 53.7626 28.1441 53.2483 28.9455C55.2927 28.591 57.4182 26.134 57.5856 23.1074C57.697 21.0928 57.3207 18.1978 56.7145 16.2939L56.5882 15.9236L56.5284 15.764L56.4124 16.0218C55.7482 17.4482 54.9799 18.2767 53.6454 19.2594L53.0664 19.675C51.9561 20.4704 51.3926 21.044 50.8016 22.1466C49.6889 24.2228 49.958 26.7485 50.9664 28.0706C51.6509 26.9414 52.3786 25.9907 53.1514 25.218C53.62 24.7493 54.3798 24.7493 54.8485 25.218C55.3171 25.6866 55.3171 26.4464 54.8485 26.915ZM36.3477 28.9788L36.5779 29.1453C37.8663 30.0485 38.946 30.3818 40.593 30.5656L41.3022 30.636C42.6615 30.7698 43.4363 30.9847 44.4994 31.6441C46.5433 32.9119 47.5739 35.3059 47.3037 36.9601L43.8656 34.668C43.3141 34.3004 42.5691 34.4494 42.2015 35.0008C41.8601 35.5129 41.9642 36.1919 42.4223 36.5806L42.5343 36.6649L45.7082 38.7809C43.7575 39.4444 40.7427 38.3747 39.1047 35.8682C38.0009 34.1792 36.8793 31.4839 36.4523 29.5319L36.3766 29.1481L36.3477 28.9788ZM59.5095 36.0659L59.4349 36.1163C58.2783 36.8878 57.292 37.1508 55.7973 37.2524L55.1307 37.2889C53.93 37.353 53.2625 37.508 52.3609 38.0334C51.0813 38.7791 50.3122 40.0821 50.1355 41.2897L52.4205 40.5281L52.5558 40.4915C53.1439 40.3685 53.7437 40.7032 53.9384 41.287C54.1479 41.9157 53.8081 42.5953 53.1794 42.8049L50.802 43.5974C50.8129 43.6069 50.8238 43.6163 50.8349 43.6256C52.4789 45.0051 55.7832 44.3191 57.3372 41.8829C58.251 40.4502 59.1475 38.1236 59.4514 36.4301C59.4738 36.3052 59.492 36.1871 59.5095 36.0659Z" fill="#FDC82E"/>
<path d="M26.6076 30.8844C29.4749 31.39 31.7303 35.1595 31.181 38.2745C31.066 38.9272 30.4436 39.363 29.7909 39.2479C29.1382 39.1329 28.7024 38.5105 28.8175 37.8578C29.1489 35.9786 27.6712 33.509 26.1909 33.2479C24.5404 32.9569 22.6983 34.0397 22.2856 35.683L22.2445 35.8751L16.7814 57.4821L16.7608 57.6726C16.6009 59.4833 17.3356 61.8773 18.9251 65.0631L19.3077 65.8139L19.6432 66.4506L20.1986 67.4719L20.8432 68.6236L22.0103 70.6816L22.8243 72.1325L23.6915 73.7118L24.1359 74.5467L24.5263 75.3056L24.8652 75.9954L25.0637 76.4203L25.241 76.8196L25.3979 77.1953L25.5352 77.5496L25.6535 77.8844L25.7536 78.2018C25.7688 78.2534 25.7832 78.3043 25.797 78.3547L25.871 78.6499C25.8819 78.698 25.8922 78.7456 25.9018 78.7927L25.9514 79.0703L25.9856 79.3387L26.0052 79.6L26.0109 79.8562L26.0046 80.0666H38.399C38.3991 79.9774 38.4092 79.8868 38.4301 79.7961C40.0628 72.7375 37.177 65.5512 32.9289 62.7832L32.6884 62.6225C29.4647 60.4115 28.839 57.6161 29.7646 52.5115L29.911 51.7478C29.9372 51.6177 29.9643 51.4861 29.9923 51.3532L30.1311 50.7182L30.4619 49.1088C30.7533 47.7378 29.6045 45.4645 28.5497 45.2403C27.3664 44.9888 26.6353 45.4819 26.3773 46.6951L25.2576 52.4103L24.5356 56.0078L24.0954 58.1379L23.9729 58.7168C23.6744 60.1166 24.6362 62.6462 26.92 66.1652L27.4296 66.9344C27.6063 67.1958 27.7897 67.4622 27.9799 67.7335L28.5709 68.5623C28.9598 69.0989 28.8401 69.8492 28.3035 70.2382C27.7669 70.6271 27.0165 70.5074 26.6276 69.9708L26.3115 69.5312L25.7092 68.6725L25.1468 67.8408C22.4351 63.7497 21.2264 60.6633 21.5846 58.4362L21.6256 58.2163L22.0297 56.2826L22.807 52.4293L23.9025 46.8503L24.0255 46.2171C24.5595 43.7044 26.5501 42.3617 29.0487 42.8928C31.4554 43.4043 33.2504 46.8347 32.852 49.3779L32.8111 49.5999L32.5288 50.9736C32.5242 51.0048 32.5185 51.0361 32.5114 51.0675L32.4813 51.2044L32.2952 52.11C32.2859 52.155 32.2743 52.1988 32.2604 52.2414L32.1963 52.5568L32.0704 53.2405L31.9664 53.8858C31.424 57.5419 32.0223 59.3279 34.2391 60.7724L34.5055 60.9516C39.3904 64.34 42.5232 72.2551 40.829 80.0666H44.3992C45.062 80.0666 45.5992 80.6038 45.5992 81.2666C45.5992 81.882 45.136 82.3892 44.5392 82.4585L44.3992 82.4666H20.3992C19.7365 82.4666 19.1992 81.9293 19.1992 81.2666C19.1992 80.6511 19.6625 80.1439 20.2593 80.0746L20.3992 80.0666H23.5773L23.5798 79.9704L23.572 79.7708L23.5508 79.5614L23.5154 79.3405L23.4652 79.1064L23.3994 78.8572L23.3173 78.5913L23.2184 78.3069L23.1017 78.0022L22.8922 77.5035L22.7284 77.1406L22.5445 76.7514L22.2295 76.1144L21.8654 75.4083L21.4499 74.6272L20.8116 73.459L19.6627 71.4068L18.5209 69.3914L17.8949 68.2634L17.3473 67.244L17.0107 66.5957C15.0633 62.7901 14.1364 59.8896 14.3746 57.4107L14.4104 57.103L14.4359 56.9721L19.8993 35.3726C20.4349 32.3351 23.6475 30.3625 26.6076 30.8844Z" fill="#5D2A9D"/>
<path d="M65.0444 38.2745C64.4951 35.1595 66.7505 31.39 69.6178 30.8844C72.5779 30.3625 75.7905 32.3351 76.3261 35.3726L81.7896 56.9721L81.815 57.103L81.8491 57.3956C82.095 59.949 81.045 62.9613 78.8472 66.9917L78.4658 67.6815L78.0583 68.3995L77.3723 69.5767L76.1605 71.6134L75.3386 73.0049L74.6198 74.2403L73.9988 75.3319L73.4703 76.2924L73.1314 76.9341L72.8393 77.5143L72.5916 78.0383L72.4502 78.359L72.3269 78.6586L72.221 78.9386L72.1319 79.2007L72.0589 79.4464L72.0014 79.6772L71.9587 79.8948L71.9348 80.0666H75.5992L75.7392 80.0746C76.336 80.1439 76.7992 80.6511 76.7992 81.2666C76.7992 81.9293 76.262 82.4666 75.5992 82.4666H51.5992L51.4593 82.4585C50.8625 82.3892 50.3992 81.882 50.3992 81.2666C50.3992 80.6038 50.9365 80.0666 51.5992 80.0666H55.392C53.6978 72.2551 56.8307 64.34 61.7155 60.9516L61.9819 60.7724C64.1987 59.3279 64.797 57.5419 64.2546 53.8858L64.1506 53.2405L64.0247 52.5568C64.0053 52.4569 63.9853 52.3558 63.9646 52.2535C63.9489 52.2071 63.936 52.1592 63.9258 52.11L63.731 51.1623L63.7097 51.0675C63.7026 51.0361 63.6968 51.0048 63.6922 50.9735L63.4099 49.5999L63.369 49.3779C62.9706 46.8347 64.7656 43.4043 67.1723 42.8928C69.6709 42.3617 71.6615 43.7044 72.1956 46.2171L72.3987 47.425L72.9674 50.7404L73.3953 53.1516L73.632 54.4455L73.9244 55.9933L74.1264 57.0215L74.3729 58.2163C74.851 60.4587 73.6537 63.6134 70.8517 67.8408L70.2893 68.6725L69.687 69.5312L69.3709 69.9708C68.9819 70.5074 68.2316 70.6271 67.695 70.2382C67.1584 69.8492 67.0387 69.0989 67.4276 68.5623C67.5295 68.4217 67.6297 68.2824 67.7282 68.1442L68.2988 67.3302L68.8287 66.546C71.292 62.8283 72.3348 60.1666 72.0256 58.7168L71.8989 58.1118L71.6247 56.7411L71.2431 54.7258L70.9067 52.8719L70.35 49.6878L69.8382 46.6644C69.5857 45.4819 68.8547 44.9888 67.6713 45.2403C66.6166 45.4645 65.4677 47.7378 65.7591 49.1088L66.09 50.7184L66.2287 51.3532L66.3859 52.1338C67.411 57.4794 66.835 60.3576 63.5326 62.6225L63.2921 62.7832C59.044 65.5512 56.1582 72.7375 57.7909 79.7961C57.8119 79.8868 57.8219 79.9774 57.822 80.0666H69.4854L69.487 80.0083L69.508 79.75C69.5127 79.7064 69.5181 79.6626 69.5241 79.6184L69.5676 79.349L69.6272 79.0697L69.7035 78.7784L69.7973 78.4733C69.8316 78.369 69.8689 78.2621 69.9093 78.1523L70.0403 77.8133L70.191 77.4546L70.3621 77.0739L70.5545 76.6694L70.8844 76.0135L71.133 75.5406L71.5508 74.7728L72.1955 73.6296L72.9459 72.3351L75.5379 67.9614L76.1758 66.8563L76.5578 66.1748L76.9715 65.4138C78.7825 62.0192 79.6259 59.511 79.4629 57.6576L79.4439 57.4823L73.981 35.8751L73.9398 35.6831C73.5271 34.0397 71.6851 32.9569 70.0345 33.2479C68.5542 33.509 67.0766 35.9786 67.4079 37.8578C67.523 38.5105 67.0872 39.1329 66.4345 39.2479C65.7819 39.363 65.1595 38.9272 65.0444 38.2745Z" fill="#5D2A9D"/>
<path d="M66.2392 72.8666C66.902 72.8666 67.4392 72.3293 67.4392 71.6666C67.4392 71.0038 66.902 70.4666 66.2392 70.4666C65.5765 70.4666 65.0392 71.0038 65.0392 71.6666C65.0392 72.3293 65.5765 72.8666 66.2392 72.8666Z" fill="#5D2A9D"/>
</svg>
