<svg width="249" height="172" viewBox="0 0 249 172" fill="none" xmlns="http://www.w3.org/2000/svg">
<g clip-path="url(#clip0_659_22004)">
<path d="M107.413 60.202L75.7596 60.202L75.7596 0.211072C75.7596 -1.91635 74.03 -3.64452 71.9007 -3.64452C34.2714 -3.64452 2.97039 25.466 0.208881 62.818C0.0776704 63.2054 0.00609902 63.6225 0.00609898 64.0575L0.00608862 175.5C0.00608842 177.627 1.73576 179.355 3.86504 179.355L107.413 179.355C109.542 179.355 111.271 177.627 111.271 175.5L111.271 64.0576C111.271 61.9301 109.542 60.202 107.413 60.202Z" fill="white"/>
</g>
<g clip-path="url(#clip1_659_22004)">
<path d="M244.4 60.202L212.486 60.202L212.486 0.211072C212.486 -1.91635 210.742 -3.64452 208.595 -3.64452C170.655 -3.64452 139.095 25.466 136.311 62.818C136.178 63.2054 136.106 63.6225 136.106 64.0575L136.106 175.5C136.106 177.627 137.85 179.355 139.997 179.355L244.4 179.355C246.547 179.355 248.291 177.627 248.291 175.5L248.291 64.0576C248.291 61.9301 246.547 60.202 244.4 60.202Z" fill="white"/>
</g>
<defs>
<clipPath id="clip0_659_22004">
<rect width="111.271" height="172" fill="white" transform="translate(111.271 172) rotate(-180)"/>
</clipPath>
<clipPath id="clip1_659_22004">
<rect width="112.191" height="172" fill="white" transform="translate(248.291 172) rotate(-180)"/>
</clipPath>
</defs>
</svg>
