<svg width="96" height="96" viewBox="0 0 96 96" fill="none" xmlns="http://www.w3.org/2000/svg">
<path fill-rule="evenodd" clip-rule="evenodd" d="M17.9998 16.8C17.3381 16.8 16.7998 16.2617 16.7998 15.6C16.7998 14.9383 17.3381 14.4 17.9998 14.4C18.6615 14.4 19.1998 14.9383 19.1998 15.6C19.1998 16.2617 18.6615 16.8 17.9998 16.8Z" fill="#ECECFE"/>
<path fill-rule="evenodd" clip-rule="evenodd" d="M5.9998 84C5.33812 84 4.7998 83.4617 4.7998 82.8C4.7998 82.1383 5.33812 81.6 5.9998 81.6C6.66148 81.6 7.1998 82.1383 7.1998 82.8C7.1998 83.4617 6.66148 84 5.9998 84Z" fill="#ECECFE"/>
<path fill-rule="evenodd" clip-rule="evenodd" d="M89.9998 76.8C89.3381 76.8 88.7998 76.2617 88.7998 75.6C88.7998 74.9383 89.3381 74.4 89.9998 74.4C90.6615 74.4 91.1998 74.9383 91.1998 75.6C91.1998 76.2617 90.6615 76.8 89.9998 76.8Z" fill="#ECECFE"/>
<path fill-rule="evenodd" clip-rule="evenodd" d="M70.7998 14.4C70.1381 14.4 69.5998 13.8617 69.5998 13.2C69.5998 12.5383 70.1381 12 70.7998 12C71.4615 12 71.9998 12.5383 71.9998 13.2C71.9998 13.8617 71.4615 14.4 70.7998 14.4Z" fill="#ECECFE"/>
<path d="M50.5779 12C70.4602 12 86.5779 28.1178 86.5779 48C86.5779 48.6627 86.0407 49.2 85.3779 49.2C84.7152 49.2 84.1779 48.6627 84.1779 48C84.1779 29.4432 69.1347 14.4 50.5779 14.4C32.0212 14.4 16.9779 29.4432 16.9779 48C16.9779 66.5568 32.0212 81.6 50.5779 81.6C63.9636 81.6 75.9065 73.701 81.272 61.69C81.5423 61.0849 82.252 60.8135 82.8571 61.0838C83.4622 61.3541 83.7336 62.0638 83.4633 62.6689C77.715 75.5367 64.919 84 50.5779 84C30.6957 84 14.5779 67.8823 14.5779 48C14.5779 28.1178 30.6957 12 50.5779 12Z" fill="#FDC82E"/>
<path d="M85.3779 58.3111C85.3779 59.0229 84.8009 59.6 84.089 59.6C83.3772 59.6 82.8001 59.0229 82.8001 58.3111C82.8001 57.5993 83.3772 57.0222 84.089 57.0222C84.8009 57.0222 85.3779 57.5993 85.3779 58.3111Z" fill="#FDC82E"/>
<path d="M17.3919 25.2385C16.8646 24.837 16.1117 24.9391 15.7103 25.4664C11.6547 30.7937 9.42236 37.2957 9.42236 44.1333C9.42236 44.7961 9.95962 45.3333 10.6224 45.3333C11.2851 45.3333 11.8224 44.7961 11.8224 44.1333C11.8224 37.8255 13.8797 31.8331 17.6199 26.9202C18.0213 26.3928 17.9193 25.6399 17.3919 25.2385Z" fill="#FDC82E"/>
<path fill-rule="evenodd" clip-rule="evenodd" d="M67.1959 41.9002C66.3441 31.6791 60.6249 26.3999 50.4 26.3999C40.1751 26.3999 34.4559 31.6791 33.6041 41.9002C33.5397 42.6737 34.2154 43.304 34.9825 43.1859L37.2 42.8448V43.3691C36.3411 43.5346 35.7079 43.7637 35.2641 44.0946C34.1386 44.9338 33.5999 46.2758 33.5999 47.9999C33.5999 51.0626 35.3371 52.7999 38.3999 52.7999C38.5305 52.7999 38.6563 52.779 38.774 52.7404C40.0506 55.2158 42.0296 57.2385 44.4342 58.5142C44.4119 58.6058 44.4 58.7014 44.4 58.7999C44.4 60.3583 43.6573 61.7433 42.5066 62.6201C42.488 62.6333 42.4699 62.6469 42.4522 62.661C41.6548 63.251 40.6681 63.5999 39.6 63.5999H37.2L36.9301 63.6049C33.0787 63.7468 30 66.9138 30 70.7999C30 71.4626 30.5373 71.9999 31.2 71.9999C31.8627 71.9999 32.4 71.4626 32.4 70.7999C32.4 68.1489 34.549 65.9999 37.2 65.9999H39.6L39.8699 65.9949C40.8736 65.9579 41.8248 65.7155 42.6827 65.3084C43.9693 67.3332 46.3421 67.9513 49.491 67.1641C50.134 67.0033 50.5249 66.3518 50.3642 65.7089C50.2034 65.0659 49.5519 64.675 48.909 64.8357C46.6653 65.3967 45.3548 65.093 44.6557 63.9263C45.83 62.7681 46.6083 61.2094 46.7691 59.4717C47.9221 59.8157 49.1401 59.9999 50.4 59.9999C51.6599 59.9999 52.8779 59.8157 54.0309 59.4717C54.3616 63.0449 57.3032 65.8613 60.9301 65.9949L61.2 65.9999H63.6C66.251 65.9999 68.4 68.1489 68.4 70.7999C68.4 71.4626 68.9373 71.9999 69.6 71.9999C70.2627 71.9999 70.8 71.4626 70.8 70.7999C70.8 66.9138 67.7213 63.7468 63.8699 63.6049L63.6 63.5999H61.2C58.549 63.5999 56.4 61.4509 56.4 58.7999C56.4 58.7014 56.3881 58.6058 56.3658 58.5142C58.7704 57.2385 60.7494 55.2158 62.0259 52.7404C62.1437 52.779 62.2694 52.7999 62.4 52.7999C65.4627 52.7999 67.2 51.0626 67.2 47.9999C67.2 46.2758 66.6613 44.9338 65.5358 44.0946C64.9291 43.6423 63.9687 43.3802 62.5613 43.2106C62.51 43.2038 62.4576 43.2001 62.4045 43.1999L62.4025 43.1998C62.2867 43.1994 62.1739 43.2158 62.0667 43.2468C61.8938 43.2967 61.737 43.3844 61.6057 43.5004C61.3735 43.7055 61.2214 43.9992 61.2021 44.3286C61.2003 44.3587 61.1996 44.3886 61.2 44.4183V46.1999L61.1955 46.5308C61.0295 52.6858 56.2468 57.5999 50.4 57.5999C44.4488 57.5999 39.6 52.5087 39.6 46.1999V42.4756L50.5825 40.7859L50.7241 40.7553C51.0477 40.6646 51.321 40.4412 51.4733 40.1366L52.6733 37.7366L52.7287 37.6078C52.9336 37.043 52.6871 36.4018 52.1367 36.1266L52.0079 36.0712C51.4431 35.8663 50.8019 36.1128 50.5267 36.6632L49.6032 38.5079L36.168 40.5743L36.1899 40.4198C37.3659 32.5811 42.004 28.7999 50.4 28.7999L50.8309 28.8033C58.8124 28.9292 63.2953 32.5846 64.5462 40.018L64.608 40.4147L56.691 38.4357L56.5533 38.4096C55.9575 38.3321 55.3851 38.7118 55.2358 39.3089C55.0751 39.9518 55.466 40.6033 56.109 40.7641L65.709 43.1641L65.8492 43.1906C66.5929 43.2872 67.2601 42.6715 67.1959 41.9002ZM37.2 45.828C36.9455 45.8949 36.7756 45.9613 36.6986 46.0187C36.2488 46.3541 35.9999 46.9742 35.9999 47.9999C35.9999 49.5261 36.5114 50.223 37.8136 50.3698C37.4476 49.1614 37.2364 47.8814 37.2043 46.5555L37.2 46.1999V45.828ZM64.8 47.9999C64.8 49.5261 64.2885 50.223 62.9864 50.3698C63.3851 49.0537 63.6 47.6526 63.6 46.1999V45.8281C63.8545 45.8949 64.0243 45.9613 64.1013 46.0187C64.5511 46.3541 64.8 46.9742 64.8 47.9999Z" fill="#5D2A9D"/>
</svg>
