<svg width="96" height="96" viewBox="0 0 96 96" fill="none" xmlns="http://www.w3.org/2000/svg">
<path fill-rule="evenodd" clip-rule="evenodd" d="M89.9999 74.3999C89.3399 74.3999 88.7999 73.8599 88.7999 73.1999C88.7999 72.5399 89.3399 71.9999 89.9999 71.9999C90.6599 71.9999 91.1999 72.5399 91.1999 73.1999C91.1999 73.8599 90.6599 74.3999 89.9999 74.3999Z" fill="#E0F0FE"/>
<path fill-rule="evenodd" clip-rule="evenodd" d="M65.9999 4.7999C65.3399 4.7999 64.7999 4.2599 64.7999 3.5999C64.7999 2.9399 65.3399 2.3999 65.9999 2.3999C66.6599 2.3999 67.1999 2.9399 67.1999 3.5999C67.1999 4.2599 66.6599 4.7999 65.9999 4.7999Z" fill="#E0F0FE"/>
<path fill-rule="evenodd" clip-rule="evenodd" d="M3.5999 64.7999C2.9399 64.7999 2.3999 64.2599 2.3999 63.5999C2.3999 62.9399 2.9399 62.3999 3.5999 62.3999C4.2599 62.3999 4.7999 62.9399 4.7999 63.5999C4.7999 64.2599 4.2599 64.7999 3.5999 64.7999Z" fill="#E0F0FE"/>
<path d="M61.1998 25.1998H29.9998C29.3398 25.1998 28.7998 24.6598 28.7998 23.9998C28.7998 23.3398 29.3398 22.7998 29.9998 22.7998H61.1998C61.8598 22.7998 62.3998 23.3398 62.3998 23.9998C62.3998 24.6598 61.8598 25.1998 61.1998 25.1998Z" fill="#FDC82E"/>
<path d="M53.9998 29.9998H29.9998C29.3398 29.9998 28.7998 29.4598 28.7998 28.7998C28.7998 28.1398 29.3398 27.5998 29.9998 27.5998H53.9998C54.6598 27.5998 55.1998 28.1398 55.1998 28.7998C55.1998 29.4598 54.6598 29.9998 53.9998 29.9998Z" fill="#FDC82E"/>
<path d="M61.1998 39.5998H29.9998C29.3398 39.5998 28.7998 39.0598 28.7998 38.3998C28.7998 37.7398 29.3398 37.1998 29.9998 37.1998H61.1998C61.8598 37.1998 62.3998 37.7398 62.3998 38.3998C62.3998 39.0598 61.8598 39.5998 61.1998 39.5998Z" fill="#FDC82E"/>
<path d="M53.9998 44.3998H29.9998C29.3398 44.3998 28.7998 43.8598 28.7998 43.1998C28.7998 42.5398 29.3398 41.9998 29.9998 41.9998H53.9998C54.6598 41.9998 55.1998 42.5398 55.1998 43.1998C55.1998 43.8598 54.6598 44.3998 53.9998 44.3998Z" fill="#FDC82E"/>
<path d="M73.1998 86.3998H46.7998C46.3798 86.3998 45.9838 86.1718 45.7678 85.8118C45.5518 85.4518 45.5398 84.9958 45.7438 84.6238L58.9438 60.6238C59.3638 59.8558 60.6238 59.8558 61.0438 60.6238L74.2438 84.6238C74.4478 84.9958 74.4478 85.4518 74.2198 85.8118C74.0038 86.1718 73.6078 86.3998 73.1878 86.3998H73.1998ZM48.8278 83.9998H71.1718L59.9998 63.6958L48.8278 83.9998Z" fill="#FDC82E"/>
<path d="M59.9998 76.7998C59.3398 76.7998 58.7998 76.2598 58.7998 75.5998V70.7998C58.7998 70.1398 59.3398 69.5998 59.9998 69.5998C60.6598 69.5998 61.1998 70.1398 61.1998 70.7998V75.5998C61.1998 76.2598 60.6598 76.7998 59.9998 76.7998Z" fill="#FDC82E"/>
<path d="M59.9998 81.5998C59.8438 81.5998 59.6878 81.5758 59.5438 81.5158C59.3998 81.4558 59.2678 81.3598 59.1478 81.2518C59.0398 81.1438 58.9558 81.0118 58.8958 80.8558C58.8358 80.7118 58.7998 80.5558 58.7998 80.3998C58.7998 80.2438 58.8358 80.0878 58.8958 79.9438C58.9558 79.7998 59.0398 79.6678 59.1478 79.5478C59.2678 79.4398 59.3998 79.3558 59.5438 79.2958C59.8318 79.1758 60.1678 79.1758 60.4558 79.2958C60.5998 79.3558 60.7318 79.4398 60.8518 79.5478C60.9598 79.6678 61.0558 79.7998 61.1158 79.9438C61.1758 80.0878 61.1998 80.2438 61.1998 80.3998C61.1998 80.7238 61.0798 81.0238 60.8518 81.2518C60.7318 81.3598 60.5998 81.4558 60.4558 81.5158C60.3118 81.5758 60.1558 81.5998 59.9998 81.5998Z" fill="#FDC82E"/>
<path d="M22.8001 14.3999H68.4001C69.0601 14.3999 69.6001 14.9399 69.6001 15.5999V63.5999C69.6241 65.2319 67.2241 65.2439 67.1881 63.5999V16.7999H24.0001V79.1999H42.0001C43.6321 79.1999 43.6201 81.5879 42.0001 81.5879H22.8001C22.1401 81.5879 21.6001 81.0599 21.6001 80.3999V15.5999C21.6001 14.9399 22.1401 14.3999 22.8001 14.3999Z" fill="#5D2A9D"/>
<path d="M74.4001 73.2119V25.0559C74.3281 24.4559 73.8121 23.9999 73.2001 23.9999H73.0561C72.4561 24.0719 72.0001 24.5879 72.0001 25.1999C72.0001 25.1999 72.0001 72.2519 72.0001 73.1999C72.0241 74.8079 74.4121 74.7959 74.4001 73.1999V73.2119Z" fill="#5D2A9D"/>
<path d="M61.2001 53.9999H30.0001C29.3401 53.9999 28.8001 53.4599 28.8001 52.7999C28.8001 52.1399 29.3401 51.5999 30.0001 51.5999H61.2001C61.8601 51.5999 62.4001 52.1399 62.4001 52.7999C62.4001 53.4599 61.8601 53.9999 61.2001 53.9999Z" fill="#5D2A9D"/>
<path d="M54.0001 58.7999H30.0001C29.3401 58.7999 28.8001 58.2599 28.8001 57.5999C28.8001 56.9399 29.3401 56.3999 30.0001 56.3999H54.0001C54.6601 56.3999 55.2001 56.9399 55.2001 57.5999C55.2001 58.2599 54.6601 58.7999 54.0001 58.7999Z" fill="#5D2A9D"/>
<path d="M48.0001 68.3999H30.0001C29.3401 68.3999 28.8001 67.8599 28.8001 67.1999C28.8001 66.5399 29.3401 65.9999 30.0001 65.9999H48.0001C48.6601 65.9999 49.2001 66.5399 49.2001 67.1999C49.2001 67.8599 48.6601 68.3999 48.0001 68.3999Z" fill="#5D2A9D"/>
<path d="M45.6001 73.1999H30.0001C29.3401 73.1999 28.8001 72.6599 28.8001 71.9999C28.8001 71.3399 29.3401 70.7999 30.0001 70.7999H45.6001C46.2601 70.7999 46.8001 71.3399 46.8001 71.9999C46.8001 72.6599 46.2601 73.1999 45.6001 73.1999Z" fill="#5D2A9D"/>
<path d="M39.6001 83.9999H32.2561C31.6561 84.0839 31.2001 84.5879 31.2001 85.1999C31.2001 85.8599 31.7401 86.3999 32.4001 86.3999L39.6001 86.3519C41.2321 86.3879 41.2441 83.9879 39.6001 83.9999Z" fill="#5D2A9D"/>
</svg>
