<svg width="96" height="96" viewBox="0 0 96 96" fill="none" xmlns="http://www.w3.org/2000/svg">
<path fill-rule="evenodd" clip-rule="evenodd" d="M80.4001 13.2002C79.7384 13.2002 79.2001 12.6619 79.2001 12.0002C79.2001 11.3385 79.7384 10.8002 80.4001 10.8002C81.0618 10.8002 81.6001 11.3385 81.6001 12.0002C81.6001 12.6619 81.0618 13.2002 80.4001 13.2002Z" fill="#F5F1F9"/>
<path fill-rule="evenodd" clip-rule="evenodd" d="M48.0001 88.8002C47.3384 88.8002 46.8001 88.2619 46.8001 87.6002C46.8001 86.9385 47.3384 86.4002 48.0001 86.4002C48.6618 86.4002 49.2001 86.9385 49.2001 87.6002C49.2001 88.2619 48.6618 88.8002 48.0001 88.8002Z" fill="#F5F1F9"/>
<path fill-rule="evenodd" clip-rule="evenodd" d="M16.8001 9.6002C16.1384 9.6002 15.6001 9.06188 15.6001 8.4002C15.6001 7.73846 16.1384 7.2002 16.8001 7.2002C17.4618 7.2002 18.0001 7.73846 18.0001 8.4002C18.0001 9.06188 17.4618 9.6002 16.8001 9.6002Z" fill="#F5F1F9"/>
<path d="M48.878 21.9379C52.354 18.2693 58.0337 18.3028 61.4775 21.9445C62.7987 23.3417 63.5309 25.3753 63.5953 27.7157C63.6135 28.3782 64.1653 28.9005 64.8278 28.8822C65.4903 28.864 66.0126 28.3122 65.9944 27.6497C65.9147 24.7535 64.9788 22.1541 63.2213 20.2955C59.11 15.9479 52.4628 15.638 47.9999 19.4646C43.5369 15.638 36.8897 15.9479 32.7784 20.2955C28.5667 24.7494 29.317 33.4586 33.8822 38.2862C35.9754 40.4997 39.0746 42.8627 43.1864 45.3888L44.3329 46.0817C44.9187 46.4302 45.5234 46.7818 46.1469 47.1365L47.3935 47.8356C47.4314 47.8578 47.4705 47.8778 47.5105 47.8956C47.6685 47.9664 47.835 48.0002 47.9996 48.0001C48.1644 48.0002 48.3311 47.9664 48.4892 47.8956C48.5292 47.8778 48.5682 47.8578 48.6061 47.8356L49.8528 47.1365C50.4763 46.7818 51.081 46.4302 51.6668 46.0817L52.8133 45.3888C56.9251 42.8627 60.0244 40.4997 62.1175 38.2862C62.5728 37.8047 62.5516 37.0452 62.0701 36.5898C61.5885 36.1345 60.829 36.1557 60.3737 36.6372C58.4327 38.6898 55.4762 40.9392 51.5107 43.3721L50.4041 44.0402C49.6371 44.4961 48.8357 44.9582 47.9999 45.4265C47.164 44.9582 46.3626 44.4961 45.5956 44.0402L44.4891 43.3721C40.5235 40.9392 37.567 38.6898 35.626 36.6372C31.8802 32.6761 31.2535 25.4012 34.5222 21.9445C37.9659 18.3029 43.6455 18.2693 47.1216 21.9378C47.1313 21.9482 47.1412 21.9584 47.1513 21.9686C47.2499 22.0673 47.3617 22.1453 47.4812 22.2025C47.8073 22.3587 48.1906 22.3597 48.5185 22.2025C48.638 22.1453 48.7498 22.0673 48.8484 21.9686C48.8585 21.9585 48.8683 21.9483 48.878 21.9379Z" fill="#FDC82E"/>
<path d="M73.1184 51.2272C75.939 49.5987 79.4649 50.3139 80.9738 52.9273C82.4826 55.5406 81.339 58.9518 78.5184 60.5803L59.2664 73.1225L58.9785 73.2681C56.5487 74.4408 53.3619 74.5949 48.8835 74.0965L48.5255 74.0557L47.7935 73.9662L47.0245 73.8646L46.1999 73.7486L43.915 73.406L41.1425 72.9996L39.4994 72.778L38.6353 72.6724L37.8552 72.5871L37.1532 72.5222L36.5235 72.4774L36.1409 72.4588L35.7859 72.449L35.3017 72.451C35.2509 72.4524 35.2011 72.4541 35.1522 72.4561L34.8699 72.473L34.6082 72.4986L34.3655 72.533L34.1399 72.5762L33.9298 72.6281L33.7334 72.6888L33.5488 72.7581C33.519 72.7703 33.4895 72.783 33.4605 72.796L33.2905 72.8782L33.128 72.9691L33.1005 72.9861L33.8125 74.9424L33.879 75.1424C34.4228 76.9479 33.5043 78.8856 31.7331 79.5303L25.1837 81.914L25.0495 81.9543C24.4649 82.0933 23.8562 81.7751 23.6457 81.1968C23.419 80.574 23.7401 79.8854 24.3629 79.6588L30.9122 77.275L31.031 77.2233C31.527 76.9701 31.7705 76.349 31.5573 75.7632L24.1696 55.4658L24.114 55.3355C23.8459 54.7917 23.2373 54.5282 22.7037 54.7224L16.1544 57.1061L16.0356 57.1578C15.5397 57.411 15.2961 58.0322 15.5093 58.6179L19.275 70.0883L19.311 70.2238C19.4313 70.8125 19.0938 71.4108 18.5091 71.6027C17.8794 71.8094 17.2014 71.4665 16.9947 70.8368L13.1764 59.2063C12.6439 57.4332 13.5623 55.4955 15.3335 54.8509L21.8829 52.4671L22.0803 52.4018C23.8629 51.8701 25.772 52.8512 26.4249 54.645L26.7476 55.5316C26.8067 55.472 26.873 55.4179 26.9461 55.3703C33.9655 50.8078 43.5245 51.4227 48.8693 55.2178L49.142 55.417C51.4031 57.1155 53.4129 57.0457 56.8999 55.1379L57.4786 54.8124L58.0848 54.4547L58.7202 54.0645C58.937 53.9291 59.159 53.7882 59.3864 53.642C59.402 53.6319 59.4178 53.6222 59.4338 53.613L59.451 53.6019L59.4626 53.5947L61.7132 52.2093L61.9229 52.0855C64.1102 50.8686 66.8994 51.5701 68.2447 53.723C69.8793 56.339 70.0743 58.0047 67.8629 59.3865L67.3412 59.7343L63.976 61.9671L61.4925 63.5987L58.7599 65.3668L57.3894 66.2345C55.5306 67.3977 52.4441 67.1979 48.0083 65.7466L47.1608 65.4599C46.8729 65.3594 46.5798 65.2541 46.2814 65.1439L45.3701 64.799C44.9064 64.6193 44.4306 64.4288 43.9427 64.2276C43.33 63.9749 43.0382 63.2734 43.2909 62.6607C43.5435 62.0481 44.245 61.7562 44.8577 62.0089C45.0144 62.0735 45.1697 62.1369 45.3235 62.199L46.2284 62.557C46.3763 62.6141 46.5227 62.6701 46.6676 62.7248L47.5192 63.0383C47.7971 63.1378 48.069 63.2325 48.3349 63.3224L49.1146 63.5773L49.858 63.8033C53.0002 64.7203 55.1136 64.8274 56.1163 64.2L57.7772 63.1462L59.8156 61.8272L63.1202 59.6562L66.7212 57.2626C67.1541 56.942 67.1605 56.6273 66.6376 55.7058L66.4435 55.3753L66.2094 54.9948C65.5231 53.8965 64.0765 53.5625 62.9782 54.2488L60.7208 55.6385L60.7064 55.6462L60.6847 55.6605L60.3279 55.8883L59.6331 56.3211C59.5193 56.3907 59.4065 56.459 59.2947 56.5261L58.6354 56.9129C54.0992 59.513 51.1877 59.8378 47.9336 57.5069L47.7005 57.3359C43.1911 53.9485 34.516 53.3124 28.2541 57.3826C28.0186 57.5356 27.7495 57.5955 27.49 57.5714L32.2674 70.697L32.3349 70.6604L32.5658 70.5472L32.8008 70.4451L33.0421 70.354L33.2919 70.2738L33.5522 70.2046L33.825 70.1461C33.9183 70.1285 34.0141 70.1126 34.1126 70.0985L34.4171 70.0616L34.7405 70.0353L35.0849 70.0197C35.1442 70.018 35.2044 70.0167 35.2657 70.0159L35.6457 70.0161L36.052 70.0268L36.4867 70.0479L36.952 70.0794L37.4499 70.1213L38.2626 70.2033L39.1606 70.3082L40.5029 70.4835L42.4376 70.7587L45.6538 71.2422L46.9466 71.4308L48.0911 71.5847L48.8022 71.6717L49.6477 71.7644C53.5862 72.1652 56.3052 71.9761 58.0519 71.0554L77.2634 58.5356L77.4567 58.4173C79.0914 57.3599 79.676 55.4796 78.8953 54.1273C78.0845 52.723 76.0444 52.3092 74.3184 53.3057C73.7444 53.637 73.0105 53.4404 72.6791 52.8664C72.3478 52.2925 72.5444 51.5586 73.1184 51.2272Z" fill="#5D2A9D"/>
<path d="M20.4001 60.0001C21.0628 60.0001 21.6001 59.4629 21.6001 58.8001C21.6001 58.1374 21.0628 57.6001 20.4001 57.6001C19.7374 57.6001 19.2001 58.1374 19.2001 58.8001C19.2001 59.4629 19.7374 60.0001 20.4001 60.0001Z" fill="#5D2A9D"/>
</svg>
