<svg width="96" height="96" viewBox="0 0 96 96" fill="none" xmlns="http://www.w3.org/2000/svg">
<path fill-rule="evenodd" clip-rule="evenodd" d="M89.9999 74.3999C89.3399 74.3999 88.7999 73.8599 88.7999 73.1999C88.7999 72.5399 89.3399 71.9999 89.9999 71.9999C90.6599 71.9999 91.1999 72.5399 91.1999 73.1999C91.1999 73.8599 90.6599 74.3999 89.9999 74.3999Z" fill="#E0F0FE"/>
<path fill-rule="evenodd" clip-rule="evenodd" d="M65.9999 4.7999C65.3399 4.7999 64.7999 4.2599 64.7999 3.5999C64.7999 2.9399 65.3399 2.3999 65.9999 2.3999C66.6599 2.3999 67.1999 2.9399 67.1999 3.5999C67.1999 4.2599 66.6599 4.7999 65.9999 4.7999Z" fill="#E0F0FE"/>
<path fill-rule="evenodd" clip-rule="evenodd" d="M3.5999 64.7999C2.9399 64.7999 2.3999 64.2599 2.3999 63.5999C2.3999 62.9399 2.9399 62.3999 3.5999 62.3999C4.2599 62.3999 4.7999 62.9399 4.7999 63.5999C4.7999 64.2599 4.2599 64.7999 3.5999 64.7999Z" fill="#E0F0FE"/>
<path d="M56.3999 27.5998C57.0599 27.5998 57.5999 28.1398 57.5999 28.7998C57.5999 29.4118 57.1319 29.9278 56.5439 29.9878H44.3999C43.7399 29.9878 43.1999 29.4478 43.1999 28.7878C43.1999 28.1758 43.6679 27.6598 44.2559 27.5998H56.3999Z" fill="#FDC82E"/>
<path d="M32.3999 29.9998C32.0879 29.9998 31.7879 29.8798 31.5479 29.6518L29.1479 27.2518C28.6799 26.7838 28.6799 26.0278 29.1479 25.5598C29.6159 25.0918 30.3719 25.0918 30.8399 25.5598L32.3879 27.1078L36.3359 23.1598C36.8039 22.6918 37.5599 22.6918 38.0279 23.1598C38.4959 23.6278 38.4959 24.3838 38.0279 24.8518L33.2279 29.6518C32.9879 29.8918 32.6879 29.9998 32.3759 29.9998H32.3999Z" fill="#FDC82E"/>
<path d="M61.1999 22.7998C61.8599 22.7998 62.3999 23.3398 62.3999 23.9998C62.3999 24.6118 61.9319 25.1278 61.3439 25.1878H44.3999C43.7399 25.1878 43.1999 24.6478 43.1999 23.9878C43.1999 23.3758 43.6679 22.8598 44.2559 22.7998H61.1999Z" fill="#FDC82E"/>
<path d="M56.3999 41.9998C57.0599 41.9998 57.5999 42.5398 57.5999 43.1998C57.5999 43.8118 57.1319 44.3278 56.5439 44.3878H44.3999C43.7399 44.3878 43.1999 43.8478 43.1999 43.1878C43.1999 42.5758 43.6679 42.0598 44.2559 41.9998H56.3999Z" fill="#FDC82E"/>
<path d="M32.3999 44.3998C32.0879 44.3998 31.7879 44.2798 31.5479 44.0518L29.1479 41.6518C28.6799 41.1838 28.6799 40.4278 29.1479 39.9598C29.6159 39.4918 30.3719 39.4918 30.8399 39.9598L32.3879 41.5078L36.3359 37.5598C36.8039 37.0918 37.5599 37.0918 38.0279 37.5598C38.4959 38.0278 38.4959 38.7838 38.0279 39.2518L33.2279 44.0518C32.9879 44.2918 32.6879 44.3998 32.3759 44.3998H32.3999Z" fill="#FDC82E"/>
<path d="M64.1999 86.3998C64.0079 86.3998 63.8039 86.3518 63.6239 86.2558C63.2279 86.0398 53.9999 80.8918 53.9999 67.3318C53.9999 66.8038 54.3479 66.3358 54.8519 66.1798C60.0359 64.6198 63.5519 62.5798 63.5879 62.5558C63.9599 62.3398 64.4279 62.3398 64.7999 62.5558C64.8359 62.5798 68.3519 64.6198 73.5359 66.1798C74.0399 66.3358 74.3879 66.8038 74.3879 67.3318C74.3879 80.8798 65.1479 86.0398 64.7639 86.2558C64.5839 86.3518 64.3919 86.3998 64.1879 86.3998H64.1999ZM56.4119 68.2078C56.7359 77.9398 62.3519 82.5358 64.1999 83.7838C66.0479 82.5358 71.6639 77.9518 71.9879 68.2078C68.1839 66.9838 65.3759 65.5918 64.1999 64.9678C63.0239 65.5918 60.2159 66.9958 56.4119 68.2078Z" fill="#FDC82E"/>
<path d="M61.1999 37.1998C61.8599 37.1998 62.3999 37.7398 62.3999 38.3998C62.3999 39.0118 61.9319 39.5278 61.3439 39.5878H44.3999C43.7399 39.5878 43.1999 39.0478 43.1999 38.3878C43.1999 37.7758 43.6679 37.2598 44.2559 37.1998H61.1999Z" fill="#FDC82E"/>
<path d="M56.4001 56.3999C57.0601 56.3999 57.6001 56.9399 57.6001 57.5999C57.6001 58.2119 57.1321 58.7279 56.5441 58.7879H44.4001C43.7401 58.7879 43.2001 58.2479 43.2001 57.5879C43.2001 56.9759 43.6681 56.4599 44.2561 56.3999H56.4001Z" fill="#5D2A9D"/>
<path fill-rule="evenodd" clip-rule="evenodd" d="M68.4001 14.3999H22.8001C22.1401 14.3999 21.6001 14.9399 21.6001 15.5999V80.3999C21.6001 81.0599 22.1401 81.5999 22.8001 81.5999H52.8001C53.4601 81.5999 54.0001 81.0599 54.0001 80.3999C54.0001 79.7399 53.4601 79.1999 52.8001 79.1999H24.0001V16.7999H67.2001V58.7999C67.2001 59.4599 67.7401 59.9999 68.4001 59.9999C69.0601 59.9999 69.6001 59.4599 69.6001 58.7999V15.5999C69.6001 14.9399 69.0601 14.3999 68.4001 14.3999Z" fill="#5D2A9D"/>
<path d="M73.2001 62.3999C72.5401 62.3999 72.0001 61.8599 72.0001 61.1999V25.1999C72.0001 24.5879 72.4681 24.0719 73.0561 24.0119H73.2001C73.8121 23.9999 74.3281 24.4679 74.3881 25.0559V61.1999C74.3881 61.8599 73.8481 62.3999 73.1881 62.3999H73.2001Z" fill="#5D2A9D"/>
<path d="M56.4001 85.1999C56.4001 85.8599 55.8601 86.3999 55.2001 86.3999H32.4001C31.7401 86.3999 31.2001 85.8599 31.2001 85.1999C31.2001 84.5879 31.6681 84.0719 32.2561 84.0119H55.2001C55.8601 84.0119 56.4001 84.5399 56.4001 85.1999Z" fill="#5D2A9D"/>
<path d="M61.2001 51.5999C61.8601 51.5999 62.4001 52.1399 62.4001 52.7999C62.4001 53.4119 61.9321 53.9279 61.3441 53.9879H44.4001C43.7401 53.9879 43.2001 53.4479 43.2001 52.7879C43.2001 52.1759 43.6681 51.6599 44.2561 51.5999H61.2001Z" fill="#5D2A9D"/>
<path d="M32.4001 58.7999C32.0881 58.7999 31.7881 58.6799 31.5481 58.4519L29.1481 56.0519C28.6801 55.5839 28.6801 54.8279 29.1481 54.3599C29.6161 53.8919 30.3721 53.8919 30.8401 54.3599L32.3881 55.9079L36.3361 51.9599C36.8041 51.4919 37.5601 51.4919 38.0281 51.9599C38.4961 52.4279 38.4961 53.1839 38.0281 53.6519L33.2281 58.4519C32.9881 58.6919 32.6881 58.7999 32.3761 58.7999H32.4001Z" fill="#5D2A9D"/>
<path d="M50.4001 67.1999C50.4001 67.8599 49.8601 68.3999 49.2001 68.3999H44.4001C43.7401 68.3999 43.2001 67.8599 43.2001 67.1999C43.2001 66.5879 43.6681 66.0719 44.2561 66.0119H49.2001C49.8601 66.0119 50.4001 66.5399 50.4001 67.1999Z" fill="#5D2A9D"/>
<path d="M51.6001 71.9999C51.6001 72.6599 51.0601 73.1999 50.4001 73.1999H44.4001C43.7401 73.1999 43.2001 72.6599 43.2001 71.9999C43.2001 71.3879 43.6681 70.8719 44.2561 70.8119H50.4001C51.0601 70.8119 51.6001 71.3399 51.6001 71.9999Z" fill="#5D2A9D"/>
<path d="M32.4001 73.1999C32.0881 73.1999 31.7881 73.0799 31.5481 72.8519L29.1481 70.4519C28.6801 69.9839 28.6801 69.2279 29.1481 68.7599C29.6161 68.2919 30.3721 68.2919 30.8401 68.7599L32.3881 70.3079L36.3361 66.3599C36.8041 65.8919 37.5601 65.8919 38.0281 66.3599C38.4961 66.8279 38.4961 67.5839 38.0281 68.0519L33.2281 72.8519C32.9881 73.0919 32.6881 73.1999 32.3761 73.1999H32.4001Z" fill="#5D2A9D"/>
</svg>
