<svg width="96" height="97" viewBox="0 0 96 97" fill="none" xmlns="http://www.w3.org/2000/svg">
<path fill-rule="evenodd" clip-rule="evenodd" d="M67.2004 93.2676C66.5387 93.2676 66.0004 92.7293 66.0004 92.0676C66.0004 91.4058 66.5387 90.8676 67.2004 90.8676C67.8621 90.8676 68.4004 91.4058 68.4004 92.0676C68.4004 92.7293 67.8621 93.2676 67.2004 93.2676Z" fill="#E1CBF1"/>
<path fill-rule="evenodd" clip-rule="evenodd" d="M9.60039 78.8676C8.93871 78.8676 8.40039 78.3293 8.40039 77.6676C8.40039 77.0058 8.93871 76.4676 9.60039 76.4676C10.2621 76.4676 10.8004 77.0058 10.8004 77.6676C10.8004 78.3293 10.2621 78.8676 9.60039 78.8676Z" fill="#E1CBF1"/>
<path fill-rule="evenodd" clip-rule="evenodd" d="M91.2004 70.4676C90.5387 70.4676 90.0004 69.9293 90.0004 69.2676C90.0004 68.6058 90.5387 68.0676 91.2004 68.0676C91.8621 68.0676 92.4004 68.6058 92.4004 69.2676C92.4004 69.9293 91.8621 70.4676 91.2004 70.4676Z" fill="#E1CBF1"/>
<path fill-rule="evenodd" clip-rule="evenodd" d="M78.0004 12.8676C77.3387 12.8676 76.8004 12.3293 76.8004 11.6676C76.8004 11.0058 77.3387 10.4676 78.0004 10.4676C78.6621 10.4676 79.2004 11.0058 79.2004 11.6676C79.2004 12.3293 78.6621 12.8676 78.0004 12.8676Z" fill="#E1CBF1"/>
<path fill-rule="evenodd" clip-rule="evenodd" d="M28.8004 5.66758C28.1387 5.66758 27.6004 5.12926 27.6004 4.46758C27.6004 3.80584 28.1387 3.26758 28.8004 3.26758C29.4621 3.26758 30.0004 3.80584 30.0004 4.46758C30.0004 5.12926 29.4621 5.66758 28.8004 5.66758Z" fill="#E1CBF1"/>
<path d="M44.515 19.6849C45.0152 21.0512 44.556 22.6555 43.6509 23.4149C43.2655 23.7383 42.9255 23.9293 42.347 24.1052L41.969 24.2098C41.9005 24.2273 41.829 24.2448 41.7543 24.2626L41.2649 24.3723L38.9568 24.8443L38.6669 24.906L38.8287 24.9907L39.1232 25.1505L39.6853 25.4667C40.2592 25.7981 40.4559 26.532 40.1245 27.1059C39.7931 27.6799 39.0592 27.8765 38.4853 27.5452L38.229 27.3991L37.6937 27.1054L35.8532 26.1428L35.0302 25.704C34.8941 25.6305 34.7579 25.5564 34.6206 25.4811L33.7754 25.0112L32.8555 24.486C32.2816 24.1546 32.0849 23.4207 32.4163 22.8468C32.7477 22.2728 33.4816 22.0762 34.0555 22.4075L34.9515 22.9191C35.0934 22.9991 35.2321 23.0767 35.3688 23.1527L35.5307 23.2415C35.6522 23.1563 35.7916 23.0923 35.9449 23.0563L36.601 22.9041L37.8537 22.6254L38.7768 22.4302L40.6747 22.0443L41.2105 21.9253L41.4767 21.8577L41.6836 21.7957C41.7137 21.7856 41.7419 21.7757 41.7684 21.7658L41.9081 21.7061L42.0175 21.6441L42.1082 21.5764C42.2519 21.4559 42.408 20.9106 42.2613 20.5099C42.0144 19.8354 41.0398 19.2567 38.9854 19.0246L34.9255 18.6078L32.6879 18.3863L30.1932 18.1498L27.6429 17.9251L26.492 17.8337L26.3055 17.8367L26.1661 17.8506L25.9288 17.8913L25.7488 17.9327L25.5488 17.9865L25.2064 18.0921L24.6595 18.2835L23.9934 18.5386L23.1908 18.8636L21.6928 19.496L18.9668 20.6797L18.8372 20.7247L18.7493 20.7461L18.6572 20.7595C18.6413 20.761 18.6252 20.7622 18.6087 20.7629L18.5054 20.7626L18.3915 20.7518L18.2643 20.7298L18.1214 20.6954L17.8717 20.6188L17.6779 20.5497L17.3399 20.4164L17.0793 20.3065L16.4616 20.0318L15.4822 19.5758L12.6794 18.232C12.0824 17.9442 11.8317 17.2269 12.1196 16.6299C12.4074 16.0329 13.1246 15.7823 13.7216 16.0701L15.825 17.0737L16.6786 17.4722L17.6109 17.8962L18.1766 18.1426L18.4886 18.2691L20.9129 17.2163L22.2779 16.6381L22.9685 16.3556L23.7597 16.0474L24.1061 15.9206L24.5725 15.7618L24.9836 15.638L25.2317 15.5733L25.4624 15.5219L25.6787 15.4826L25.8832 15.4548L26.079 15.4373C26.1111 15.4352 26.1429 15.4334 26.1745 15.4321L26.4559 15.4297L26.7347 15.4442L28.232 15.5662L30.8787 15.803L34.0054 16.1041L38.2584 16.5365L38.9191 16.6054C41.996 16.8882 43.8846 17.9628 44.515 19.6849Z" fill="#FDC82E"/>
<path d="M30.9512 44.1256C31.5027 44.364 32.1575 44.1563 32.4652 43.6234C32.7966 43.0494 32.5999 42.3155 32.026 41.9841L28.4997 39.9482L28.3744 39.8852C27.8229 39.6469 27.1681 39.8545 26.8604 40.3874C26.5291 40.9614 26.7257 41.6953 27.2997 42.0267L30.826 44.0626L30.9512 44.1256Z" fill="#FDC82E"/>
<path d="M24.5816 46.7659C24.2739 47.2989 23.6191 47.5065 23.0676 47.2682L22.9424 47.2052L17.5713 44.1042C17.3898 43.9994 17.1431 43.7563 16.8505 43.4026L16.5889 43.0731C16.5436 43.0138 16.4975 42.9525 16.4505 42.8892L16.1602 42.4857L15.8541 42.0378L15.5349 41.5494L15.2053 41.0244C15.1497 40.934 15.0937 40.8423 15.0375 40.7493L14.6973 40.1767L14.3534 39.5771L14.0086 38.9545C13.9512 38.849 13.8938 38.7427 13.8366 38.6357L13.4953 37.9859C13.4388 37.8764 13.3826 37.7663 13.3266 37.6558L12.9949 36.9875L12.673 36.3117L12.3635 35.6324L12.0691 34.9534C11.9738 34.7276 11.8815 34.5024 11.7925 34.2787L11.644 33.896L10.4954 33.0234L8.07794 31.2151L7.64036 30.8767L7.39157 30.6737L7.28362 30.5764L7.17804 30.472L7.13929 30.4216L7.05111 30.2666L6.94576 30.0674C6.72508 29.4425 7.05278 28.757 7.6777 28.5363C8.11034 28.3836 8.57201 28.4936 8.88838 28.7832L8.96257 28.8588L9.29794 29.1262L12.8215 31.7724L13.2037 32.0714L13.4012 32.2372L13.555 32.3847L13.5933 32.4337L13.6449 32.5192L13.7871 32.7785C14.6495 35.1073 15.8055 37.4051 17.075 39.4681L17.2804 39.7981L17.6834 40.4236C17.8812 40.7235 18.0725 41.0029 18.2526 41.2559L18.5487 41.6612L18.7594 41.9335L18.8645 42.063C18.8697 42.0723 18.8643 42.0754 18.8241 42.0548L24.1424 45.1267C24.7163 45.4581 24.913 46.192 24.5816 46.7659Z" fill="#FDC82E"/>
<path d="M27.5997 48.8678C28.2624 48.8678 28.7997 48.3306 28.7997 47.6678C28.7997 47.0051 28.2624 46.4678 27.5997 46.4678C26.9369 46.4678 26.3997 47.0051 26.3997 47.6678C26.3997 48.3306 26.9369 48.8678 27.5997 48.8678Z" fill="#FDC82E"/>
<path d="M65.3018 52.0617C64.9705 51.4877 65.1671 50.7538 65.7411 50.4224L65.9957 50.2735L66.5177 49.9569L68.6687 48.5952C68.8003 48.5132 68.9314 48.4319 69.0631 48.3508L69.868 47.862L70.7342 47.35C70.8864 47.2611 71.043 47.1702 71.2053 47.0765C71.7792 46.7452 72.5131 46.9418 72.8445 47.5158C73.1759 48.0897 72.9792 48.8236 72.4053 49.155L71.5142 49.6752L71.0484 49.9542C71.0408 49.9929 71.0312 50.0315 71.0196 50.07C70.8873 50.5089 70.7584 50.9277 70.6303 51.335L70.2459 52.5318L69.4686 54.8656L69.3663 55.1957L69.2918 55.46L69.242 55.6702L69.2345 55.7082C69.2312 55.7255 69.2282 55.7423 69.2255 55.7586L69.2073 55.9094L69.2063 56.0351L69.2196 56.1475C69.2521 56.3323 69.6463 56.74 70.0666 56.8134C70.7742 56.9368 71.7627 56.3822 72.9909 54.719L75.7218 50.9385L77.8707 47.9291L79.1576 46.1016L80.0381 44.8331C80.1059 44.7345 80.1724 44.6378 80.2375 44.5428C80.4292 44.2631 80.6194 43.8098 80.8041 43.1888L80.9264 42.7501L81.0468 42.2621L81.165 41.7252L81.2808 41.1398L81.3939 40.5064L81.5041 39.8252L81.6111 39.0968C81.6286 38.9715 81.646 38.8442 81.6633 38.715L81.765 37.9164L81.8628 37.0715C81.8679 37.025 81.8736 36.9808 81.881 36.9379L81.9094 36.8116L81.9374 36.7285L81.9985 36.6007L82.0548 36.5108L82.1261 36.4148L82.2656 36.2555L82.3833 36.1364L82.6022 35.9338L82.984 35.609L83.783 34.9746L85.3584 33.776L86.995 32.5474C87.5253 32.1499 88.2775 32.2575 88.675 32.7879C89.0725 33.3182 88.9648 34.0703 88.4345 34.4678L86.2862 36.0927L85.162 36.9636L84.6365 37.3824L84.2027 37.7446L84.0806 38.7447C84.0611 38.8967 84.0414 39.0463 84.0214 39.1938L83.899 40.0515C83.4815 42.8209 82.9691 44.6967 82.3127 45.7531L82.217 45.8998L81.3627 47.1355L80.3766 48.542L78.651 50.9715L75.891 54.8064L75.1191 55.8712C73.3358 58.3945 71.4609 59.4928 69.6542 59.1777C68.221 58.9277 67.0612 57.7278 66.856 56.5643C66.7599 56.0193 66.7751 55.6019 66.9553 54.907L67.0703 54.498L67.2199 54.0193L67.9245 51.9067L67.7816 51.9972L67.2178 52.3391C67.1257 52.3936 67.0338 52.4474 66.9411 52.5009C66.3671 52.8323 65.6332 52.6356 65.3018 52.0617Z" fill="#FDC82E"/>
<path d="M77.1922 24.6605L74.1404 26.007L73.5598 26.2482L73.3243 26.3333C73.1084 26.4026 73 26.4303 72.8056 26.4098L72.677 26.3917C70.2359 25.9787 67.6773 25.8333 65.2665 25.902L64.8796 25.9149L64.1397 25.9512L63.4557 25.9998C63.3471 26.0088 63.2414 26.0182 63.1389 26.028L62.6422 26.0817L62.3027 26.1278L62.1393 26.1539C62.1289 26.1537 62.1292 26.1475 62.1672 26.1229L54.5996 30.4906C54.0257 30.822 53.2918 30.6254 52.9604 30.0514C52.6527 29.5185 52.8003 28.8476 53.2825 28.4891L53.3996 28.4122L61.0188 24.0133C61.257 23.8758 61.7586 23.7602 62.447 23.6727L62.9328 23.6186C63.0181 23.6103 63.1055 23.6024 63.1948 23.5949L63.7542 23.5541L64.3562 23.5227L64.996 23.501C65.1055 23.4982 65.2163 23.4959 65.3284 23.494L66.0153 23.4878L66.7272 23.4923L67.4591 23.5081L68.206 23.5356L68.9628 23.575L69.7245 23.6269L70.4861 23.6916L71.2424 23.7696C71.6184 23.812 71.9906 23.8595 72.3561 23.9124L72.7775 23.9768L73.0373 23.8685L76.3546 22.4082L76.6792 22.2712L76.9323 22.1694L77.0971 22.1085L77.169 22.0847C77.4319 22.0016 77.5404 21.9783 77.83 22.0322C78.4815 22.1535 78.9113 22.7801 78.79 23.4316C78.6686 24.0831 78.0421 24.513 77.3905 24.3916C77.4714 24.4067 77.5219 24.4212 77.5559 24.433L77.6228 24.4582C77.6456 24.4645 77.6632 24.4599 77.7228 24.437L77.1922 24.6605Z" fill="#FDC82E"/>
<path d="M58.7997 34.4678C59.4624 34.4678 59.9997 33.9306 59.9997 33.2678C59.9997 32.6051 59.4624 32.0678 58.7997 32.0678C58.1369 32.0678 57.5997 32.6051 57.5997 33.2678C57.5997 33.9306 58.1369 34.4678 58.7997 34.4678Z" fill="#FDC82E"/>
<path d="M50.393 33.6375C50.2734 31.4251 48.4415 29.668 46.1992 29.668C43.8796 29.668 41.9992 31.5484 41.9992 33.868V36.0721C41.4537 35.813 40.8434 35.668 40.1992 35.668C37.8796 35.668 35.9992 37.5484 35.9992 39.868V57.73L35.2692 56.8729L33.8028 55.1226L33.0575 54.2473L32.6074 53.738L32.3494 53.4596L32.119 53.2245C32.0826 53.1886 32.0472 53.1544 32.0126 53.1216L31.814 52.9425C31.7187 52.8611 31.6291 52.7915 31.542 52.7309L31.3704 52.6211C31.2855 52.5714 31.2012 52.5289 31.1147 52.491L30.9378 52.4204C29.8277 52.0163 28.2086 52.4208 27.2755 53.5371C26.0993 54.9441 26.113 57.117 27.4065 59.923L29.1943 63.9092L30.931 67.7203L31.8501 69.698L32.4931 71.0557L32.5776 71.2228C32.9855 71.9892 33.7435 72.9033 34.8621 73.9867L35.404 74.4989C35.7823 74.8485 36.195 75.2144 36.6423 75.5973L37.3391 76.1844C37.5801 76.3845 37.8297 76.5888 38.0881 76.7976L38.3984 77.047L38.3987 81.2682L38.4081 81.4187C38.4821 82.0104 38.9869 82.4682 39.5987 82.4682C40.2614 82.4682 40.7987 81.9309 40.7987 81.2682V75.8867L39.9974 75.2526L39.0246 74.4631L38.4279 73.964L37.8729 73.487L37.3599 73.0326L36.8889 72.6012L36.4602 72.193C36.3244 72.0609 36.1956 71.9327 36.074 71.8085L35.7304 71.4481L35.4296 71.1121L35.1718 70.8009C34.9355 70.5022 34.764 70.2413 34.658 70.0199L34.1875 69.0287L33.3 67.1259L31.8405 63.9356L29.4685 58.656C28.6422 56.7608 28.6562 55.6274 29.1169 55.0763C29.3905 54.749 29.9407 54.6115 30.117 54.6757C30.133 54.6815 30.1532 54.693 30.1782 54.7106L30.2673 54.7823L30.3863 54.8933L30.7222 55.2429L31.2019 55.7795L31.8417 56.523L33.4425 58.4295L34.0841 59.1857L34.6662 59.8599L35.2156 60.4821L35.7594 61.0822L36.3244 61.6901C36.6205 62.0051 37.0465 62.1245 37.4411 62.0436C37.4704 62.0376 37.4993 62.0305 37.5277 62.0224C38.0308 61.8796 38.3992 61.4168 38.3992 60.868V39.868L38.4075 39.6946C38.4947 38.7818 39.2636 38.068 40.1992 38.068C41.1933 38.068 41.9992 38.8739 41.9992 39.868V54.868L42.0073 55.0079C42.0766 55.6047 42.5838 56.068 43.1992 56.068C43.862 56.068 44.3992 55.5307 44.3992 54.868V33.868L44.4075 33.6946C44.4947 32.7818 45.2636 32.068 46.1992 32.068C47.1933 32.068 47.9992 32.8739 47.9992 33.868V54.868L48.0073 55.0079C48.0766 55.6047 48.5838 56.068 49.1992 56.068C49.862 56.068 50.3992 55.5307 50.3992 54.868V37.4327L50.4074 37.2632C50.4943 36.3707 51.2606 35.668 52.1992 35.668C53.1965 35.668 53.9992 36.4613 53.9992 37.4327V54.868L54.0073 55.0079C54.0766 55.6047 54.5838 56.068 55.1992 56.068C55.862 56.068 56.3992 55.5307 56.3992 54.868V42.2327L56.4074 42.0632C56.4943 41.1707 57.2606 40.468 58.1992 40.468C59.1965 40.468 59.9992 41.2613 59.9992 42.2327V64.468L59.9952 64.8171C59.9437 66.9967 59.3887 68.5964 57.7977 71.007C57.6254 71.2681 57.3298 71.6145 56.9137 72.047L56.5276 72.4388L56.0828 72.8729L55.6387 73.2942L53.9975 74.8118L53.3856 75.3888L52.7992 75.9709V81.268L52.8073 81.4079C52.8766 82.0047 53.3838 82.468 53.9992 82.468L54.1392 82.4599C54.736 82.3906 55.1992 81.8834 55.1992 81.268V76.9744L55.3184 76.8621L57.2817 75.0436L57.7655 74.5845L58.2702 74.0912C58.9797 73.3838 59.4779 72.8182 59.8008 72.329C61.7262 69.4117 62.3992 67.3177 62.3992 64.468V42.2327L62.393 42.0039C62.2732 39.8073 60.4385 38.068 58.1992 38.068C57.5554 38.068 56.945 38.2118 56.3992 38.4689V37.4327L56.393 37.2039C56.2732 35.0073 54.4385 33.268 52.1992 33.268C51.5533 33.268 50.9411 33.4127 50.3939 33.6714L50.393 33.6375Z" fill="#5D2A9D"/>
</svg>
