<svg width="27" height="46" viewBox="0 0 27 46" fill="none" xmlns="http://www.w3.org/2000/svg">
<path d="M7.1487 26.3522C6.38516 24.5673 5.87934 22.6608 5.65368 20.7224C5.41071 20.7068 5.16773 20.6782 4.9254 20.6346C3.45923 20.3725 2.03088 19.5633 1.09233 18.3313C0.15377 17.0987 -0.248194 15.4413 0.156975 14.0239C2.39181 14.5521 4.49395 15.5141 5.53251 17.7036C5.60368 15.76 5.96717 13.8327 6.64609 12.0114C6.3685 11.8559 6.10052 11.6797 5.84408 11.4826C4.65807 10.5693 3.75285 9.18643 3.47334 7.65589C3.19446 6.12469 3.5836 4.46406 4.58242 3.39144C6.48261 5.02866 8.01353 7.0477 7.65388 9.80112C8.30779 8.57174 9.05466 7.3996 9.86179 6.2678C10.0323 6.03298 10.2048 5.79881 10.3804 5.56725C10.4061 5.34674 10.442 5.12688 10.4901 4.90833C10.8106 3.43307 11.669 2.02026 12.9224 1.12132C14.1763 0.222381 15.4598 -0.200421 16.9522 0.0916378C17.2997 1.98189 15.3989 6.13185 10.8343 6.2073C10.3933 6.81223 9.97591 7.43538 9.57587 8.06633C9.54702 8.11186 9.51881 8.1574 9.4906 8.20358C11.1953 6.76345 13.3795 6.65417 15.538 6.95339C15.4181 8.42409 14.4597 9.82714 13.1499 10.6389C11.8402 11.4507 10.2214 11.6894 8.75976 11.4039C8.45973 11.3453 8.16611 11.2653 7.88083 11.1671C6.97753 13.1861 6.51018 15.3099 6.42427 17.4415C7.10382 14.744 9.27199 13.4509 11.6415 12.6541C12.1716 14.0278 11.9197 15.7158 11.0953 17.0297C10.2715 18.343 8.92131 19.281 7.48463 19.6771C7.15575 19.7682 6.82303 19.8313 6.48902 19.869C6.68134 21.9427 7.2173 23.9884 8.04751 25.917C7.48207 22.9587 9.06941 20.8265 11.0613 19.1132C12.0588 20.1864 12.4473 21.8477 12.1665 23.3789C11.8864 24.9095 10.9792 26.291 9.79255 27.2036C9.5233 27.4111 9.23993 27.5946 8.94696 27.7559C9.74768 29.209 10.7209 30.5717 11.8415 31.7985C12.1088 32.0984 12.3838 32.3911 12.6659 32.676C11.1427 30.0097 11.9985 27.4469 13.3801 25.1605C14.6584 25.8643 15.538 27.3188 15.7431 28.8623C15.9477 30.4052 15.5117 32.0054 14.6655 33.2478C14.4853 33.5125 14.2879 33.761 14.0757 33.9932C14.4975 34.3574 14.9309 34.708 15.3758 35.043C16.2496 35.7033 17.1702 36.3225 18.1036 36.9346C15.9265 33.9802 16.7541 31.0271 18.2267 28.3842C19.6128 29.0841 20.6033 30.5984 20.8789 32.2324C21.1546 33.8663 20.7501 35.5855 19.8955 36.9398C19.7205 37.2175 19.5269 37.4803 19.3185 37.7282C21.9771 39.4649 24.6165 41.2628 26.4506 43.8965C26.668 44.2081 26.5833 44.6413 26.2641 44.8429L26.0737 44.9633C25.8916 45.0784 25.6531 45.0244 25.5345 44.8429C23.8824 42.3042 21.352 40.5271 18.8704 38.8587C18.6409 39.193 18.3825 39.5098 18.0953 39.8044C16.9805 40.9473 15.4162 41.7253 13.7846 41.8111C12.153 41.897 10.4792 41.2491 9.50214 40.0308C11.6799 38.0293 14.2821 36.5775 17.5183 37.9532C16.5637 37.3112 15.6104 36.6555 14.6995 35.9511C14.2456 35.6011 13.8026 35.2349 13.3724 34.8551C13.1519 35.0599 12.9179 35.2505 12.6685 35.4255C11.4434 36.2841 9.86692 36.7271 8.34626 36.5189C6.82495 36.3114 5.39147 35.4184 4.69781 34.1213C6.80508 32.81 9.15018 31.9663 11.594 33.1248C10.2394 31.6717 9.0553 30.0559 8.09879 28.3068C7.81736 28.4369 7.52566 28.5488 7.22499 28.6392C5.79728 29.0672 4.16315 28.9879 2.78224 28.3088C1.40133 27.6297 0.313402 26.3268 0.0537605 24.875C2.55657 24.2733 5.14914 24.2343 7.14806 26.3515L7.1487 26.3522Z" fill="#9C51D0"/>
</svg>
