<svg width="27" height="46" viewBox="0 0 27 46" fill="none" xmlns="http://www.w3.org/2000/svg">
<path d="M19.4226 26.3522C20.1861 24.5673 20.6919 22.6608 20.9176 20.7224C21.1606 20.7068 21.4036 20.6782 21.6459 20.6346C23.1121 20.3725 24.5404 19.5633 25.479 18.3313C26.4175 17.0987 26.8195 15.4413 26.4143 14.0239C24.1795 14.5521 22.0773 15.5141 21.0388 17.7036C20.9676 15.76 20.6041 13.8327 19.9252 12.0114C20.2028 11.8559 20.4708 11.6797 20.7272 11.4826C21.9132 10.5693 22.8184 9.18643 23.098 7.65589C23.3768 6.12469 22.9877 4.46406 21.9889 3.39144C20.0887 5.02866 18.5578 7.0477 18.9174 9.80112C18.2635 8.57174 17.5166 7.3996 16.7095 6.2678C16.539 6.03298 16.3665 5.79881 16.1909 5.56725C16.1652 5.34674 16.1293 5.12688 16.0812 4.90833C15.7607 3.43307 14.9023 2.02026 13.6489 1.12132C12.395 0.222381 11.1115 -0.200421 9.61904 0.0916378C9.27157 1.98189 11.1724 6.13185 15.737 6.2073C16.178 6.81224 16.5954 7.43538 16.9954 8.06633C17.0243 8.11186 17.0525 8.1574 17.0807 8.20358C15.376 6.76345 13.1918 6.65417 11.0333 6.95339C11.1532 8.42409 12.1116 9.82714 13.4213 10.6389C14.7311 11.4507 16.3498 11.6894 17.8115 11.4039C18.1116 11.3453 18.4052 11.2653 18.6905 11.1671C19.5938 13.1861 20.0611 15.3099 20.147 17.4415C19.4675 14.744 17.2993 13.4509 14.9298 12.6541C14.3997 14.0278 14.6516 15.7158 15.476 17.0297C16.2998 18.343 17.65 19.281 19.0867 19.6771C19.4155 19.7682 19.7483 19.8313 20.0823 19.869C19.8899 21.9427 19.354 23.9884 18.5238 25.917C19.0892 22.9587 17.5019 20.8265 15.51 19.1132C14.5125 20.1864 14.124 21.8477 14.4048 23.3789C14.6849 24.9095 15.5921 26.291 16.7787 27.2036C17.048 27.4111 17.3314 27.5946 17.6243 27.7559C16.8236 29.209 15.8504 30.5717 14.7298 31.7985C14.4625 32.0984 14.1874 32.3911 13.9054 32.676C15.4286 30.0097 14.5727 27.4469 13.1912 25.1605C11.9129 25.8643 11.0333 27.3188 10.8281 28.8623C10.6236 30.4052 11.0596 32.0054 11.9058 33.2478C12.086 33.5125 12.2834 33.761 12.4956 33.9932C12.0738 34.3574 11.6404 34.708 11.1955 35.043C10.3217 35.7033 9.40107 36.3225 8.46765 36.9346C10.6448 33.9802 9.81714 31.0271 8.34456 28.3842C6.95852 29.0841 5.96804 30.5984 5.69237 32.2324C5.4167 33.8663 5.82123 35.5855 6.6758 36.9398C6.85082 37.2175 7.04443 37.4803 7.25278 37.7282C4.59418 39.4649 1.95482 41.2628 0.120659 43.8965C-0.0966703 44.2081 -0.0120464 44.6413 0.307216 44.8429L0.49762 44.9633C0.679689 45.0784 0.918175 45.0244 1.03678 44.8429C2.68886 42.3042 5.21925 40.5271 7.7009 38.8587C7.93041 39.193 8.18877 39.5098 8.47598 39.8044C9.59084 40.9473 11.1551 41.7253 12.7867 41.8111C14.4182 41.897 16.0921 41.2491 17.0691 40.0308C14.8914 38.0293 12.2892 36.5775 9.05296 37.9532C10.0075 37.3112 10.9608 36.6555 11.8718 35.9511C12.3257 35.6011 12.7687 35.2349 13.1989 34.8551C13.4194 35.0599 13.6534 35.2505 13.9028 35.4255C15.1279 36.2841 16.7044 36.7271 18.225 36.5189C19.7463 36.3114 21.1798 35.4184 21.8735 34.1213C19.7662 32.81 17.4211 31.9663 14.9773 33.1248C16.3319 31.6717 17.516 30.0559 18.4725 28.3068C18.7539 28.4369 19.0456 28.5488 19.3463 28.6392C20.774 29.0672 22.4081 28.9879 23.789 28.3088C25.17 27.6297 26.2579 26.3268 26.5175 24.875C24.0147 24.2733 21.4221 24.2343 19.4232 26.3515L19.4226 26.3522Z" fill="#9C51D0"/>
</svg>
