<svg width="40" height="32" viewBox="-3 0 32 32" fill="none" xmlns="http://www.w3.org/2000/svg">
<g clip-path="url(#clip0_659_21495)">
<path d="M24.8115 14.1933H21.6727V8.47464C21.6727 7.02775 21.2976 5.59618 20.5856 4.33302C20.4019 4.00383 19.9809 3.88134 19.644 4.07273C19.3148 4.25646 19.1923 4.67752 19.3837 5.01436C19.9809 6.07082 20.2871 7.26508 20.2871 8.47464V14.1933H4.72344V8.47464C4.72344 4.56268 7.91579 1.37799 11.8278 1.37799H13.1904C14.1474 1.37799 15.0737 1.56938 15.9464 1.93685C16.2986 2.0823 16.7043 1.92153 16.8498 1.56938C16.9952 1.21723 16.8344 0.811486 16.4823 0.666032C15.4335 0.222013 14.3311 -0.00765228 13.1904 -0.00765228H11.8278C7.15024 3.21958e-06 3.34545 3.80479 3.34545 8.4823V14.201H0.688995C0.30622 14.201 0 14.5072 0 14.89V19.2612C0 19.644 0.30622 19.9502 0.688995 19.9502C1.07177 19.9502 1.37799 19.644 1.37799 19.2612V15.579H24.1225V30.6297H1.37799V26.2048C1.37799 25.822 1.07177 25.5158 0.688995 25.5158C0.30622 25.5158 0 25.822 0 26.2048V31.3187C0 31.7014 0.30622 32.0077 0.688995 32.0077H24.8115C25.1943 32.0077 25.5005 31.7014 25.5005 31.3187V14.89C25.5005 14.5072 25.1943 14.201 24.8115 14.201V14.1933Z" fill="black"/>
<path d="M15.6619 21.2216C15.6619 19.6139 14.3528 18.3125 12.7528 18.3125C11.1528 18.3125 9.84375 19.6216 9.84375 21.2216C9.84375 21.9795 10.1576 22.6914 10.6705 23.235L9.88968 26.8254C9.88203 26.8714 9.87437 26.9249 9.87437 26.9709C9.87437 27.7364 10.4945 28.3565 11.26 28.3565H14.238C15.0036 28.3565 15.6237 27.7364 15.6237 26.9709C15.6237 26.9249 15.6237 26.8714 15.6083 26.8254L14.8275 23.235C15.3481 22.6991 15.6543 21.9795 15.6543 21.2216H15.6619ZM11.2753 26.9709L12.0792 23.2426C12.0792 23.2426 12.0792 23.2273 12.0792 23.2197C12.171 22.9441 12.0792 22.6379 11.8418 22.4541C11.4438 22.1632 11.2217 21.7115 11.2217 21.2216C11.2217 20.3795 11.9107 19.6905 12.7528 19.6905C13.5949 19.6905 14.2839 20.3795 14.2839 21.2216C14.2839 21.7192 14.0543 22.1632 13.6562 22.4618C13.4036 22.6455 13.327 22.967 13.4265 23.2426L14.238 26.9785H11.2753V26.9709Z" fill="black"/>
<path d="M0.688995 22.7626C1.07177 22.7626 1.37799 22.4564 1.37799 22.0736V21.3999C1.37799 21.0172 1.07177 20.7109 0.688995 20.7109C0.30622 20.7109 0 21.0172 0 21.3999V22.0736C0 22.4564 0.30622 22.7626 0.688995 22.7626Z" fill="black"/>
<path d="M18.8101 3.49908C19.1929 3.49908 19.4991 3.19286 19.4991 2.81009C19.4991 2.42731 19.1929 2.12109 18.8101 2.12109C18.4273 2.12109 18.1211 2.42731 18.1211 2.81009C18.1211 3.19286 18.4273 3.49908 18.8101 3.49908Z" fill="black"/>
</g>
<defs>
<clipPath id="clip0_659_21495">
<rect width="40" height="32" fill="white"/>
</clipPath>
</defs>
</svg>
